<svg width="32" height="32" viewBox="0 0 32 32" fill="none" xmlns="http://www.w3.org/2000/svg">
<path d="M16 30.9973C24.2843 30.9973 31 24.2816 31 15.9973C31 7.71308 24.2843 0.997349 16 0.997349C7.71573 0.997349 1 7.71308 1 15.9973C1 24.2816 7.71573 30.9973 16 30.9973Z" stroke="black" stroke-width="1.5" stroke-linecap="round" stroke-linejoin="round"/>
<path d="M17.7782 8L10.7716 16.1576C10.7169 16.2223 10.6819 16.3013 10.6706 16.3852C10.6593 16.4691 10.6722 16.5545 10.7078 16.6314C10.7435 16.7082 10.8003 16.7732 10.8716 16.8189C10.943 16.8645 11.0259 16.8888 11.1106 16.8889H14.2221V24L21.2287 15.8436C21.2832 15.7787 21.3181 15.6997 21.3294 15.6158C21.3406 15.5318 21.3277 15.4464 21.2921 15.3696C21.2565 15.2927 21.1998 15.2276 21.1285 15.1818C21.0572 15.136 20.9744 15.1115 20.8897 15.1111H17.7782V8Z" stroke="black" stroke-width="1.5" stroke-linecap="round" stroke-linejoin="round"/>
</svg>
