<svg width="32" height="32" viewBox="0 0 32 32" fill="none" xmlns="http://www.w3.org/2000/svg">
<g clip-path="url(#clip0)">
<path d="M29 5H3C1.89543 5 1 5.89543 1 7V29C1 30.1046 1.89543 31 3 31H29C30.1046 31 31 30.1046 31 29V7C31 5.89543 30.1046 5 29 5Z" stroke="black" stroke-width="1.5" stroke-linecap="round" stroke-linejoin="round"/>
<path d="M1 13H31" stroke="black" stroke-width="1.5" stroke-linecap="round" stroke-linejoin="round"/>
<path d="M9 7V1" stroke="black" stroke-width="1.5" stroke-linecap="round" stroke-linejoin="round"/>
<path d="M23 7V1" stroke="black" stroke-width="1.5" stroke-linecap="round" stroke-linejoin="round"/>
<path fill-rule="evenodd" clip-rule="evenodd" d="M5.92595 24.2247C6.14522 24.0782 6.40301 24 6.66671 24C7.02033 24 7.35947 24.1405 7.60952 24.3905C7.85957 24.6406 8.00004 24.9797 8.00004 25.3333C8.00004 25.597 7.92184 25.8548 7.77533 26.0741C7.62882 26.2934 7.42058 26.4643 7.17695 26.5652C6.93331 26.6661 6.66523 26.6925 6.40659 26.641C6.14795 26.5896 5.91037 26.4626 5.7239 26.2761C5.53742 26.0897 5.41044 25.8521 5.35899 25.5935C5.30755 25.3348 5.33395 25.0667 5.43487 24.8231C5.53578 24.5795 5.70668 24.3712 5.92595 24.2247Z" fill="black"/>
<path fill-rule="evenodd" clip-rule="evenodd" d="M5.92595 17.558C6.14522 17.4115 6.40301 17.3333 6.66671 17.3333C7.02033 17.3333 7.35947 17.4738 7.60952 17.7239C7.85957 17.9739 8.00004 18.313 8.00004 18.6667C8.00004 18.9304 7.92184 19.1882 7.77533 19.4074C7.62882 19.6267 7.42058 19.7976 7.17695 19.8985C6.93331 19.9994 6.66523 20.0258 6.40659 19.9744C6.14795 19.9229 5.91037 19.7959 5.7239 19.6095C5.53742 19.423 5.41044 19.1854 5.35899 18.9268C5.30755 18.6681 5.33395 18.4001 5.43487 18.1564C5.53578 17.9128 5.70668 17.7045 5.92595 17.558Z" fill="black"/>
<path fill-rule="evenodd" clip-rule="evenodd" d="M15.5925 24.2247C15.8117 24.0782 16.0695 24 16.3332 24C16.6868 24 17.026 24.1405 17.276 24.3905C17.5261 24.6406 17.6665 24.9797 17.6665 25.3333C17.6665 25.597 17.5883 25.8548 17.4418 26.0741C17.2953 26.2934 17.0871 26.4643 16.8435 26.5652C16.5998 26.6661 16.3317 26.6925 16.0731 26.641C15.8145 26.5896 15.5769 26.4626 15.3904 26.2761C15.2039 26.0897 15.0769 25.8521 15.0255 25.5935C14.9741 25.3348 15.0005 25.0667 15.1014 24.8231C15.2023 24.5795 15.3732 24.3712 15.5925 24.2247Z" fill="black"/>
<path fill-rule="evenodd" clip-rule="evenodd" d="M15.5925 17.558C15.8117 17.4115 16.0695 17.3333 16.3332 17.3333C16.6868 17.3333 17.026 17.4738 17.276 17.7239C17.5261 17.9739 17.6665 18.313 17.6665 18.6667C17.6665 18.9304 17.5883 19.1882 17.4418 19.4074C17.2953 19.6267 17.0871 19.7976 16.8435 19.8985C16.5998 19.9994 16.3317 20.0258 16.0731 19.9744C15.8145 19.9229 15.5769 19.7959 15.3904 19.6095C15.2039 19.423 15.0769 19.1854 15.0255 18.9268C14.9741 18.6681 15.0005 18.4001 15.1014 18.1564C15.2023 17.9128 15.3732 17.7045 15.5925 17.558Z" fill="black"/>
<path fill-rule="evenodd" clip-rule="evenodd" d="M24.5926 24.2247C24.8118 24.0782 25.0696 24 25.3333 24C25.687 24 26.0261 24.1405 26.2761 24.3905C26.5262 24.6406 26.6667 24.9797 26.6667 25.3333C26.6667 25.597 26.5885 25.8548 26.442 26.0741C26.2954 26.2934 26.0872 26.4643 25.8436 26.5652C25.5999 26.6661 25.3319 26.6925 25.0732 26.641C24.8146 26.5896 24.577 26.4626 24.3905 26.2761C24.204 26.0897 24.0771 25.8521 24.0256 25.5935C23.9742 25.3348 24.0006 25.0667 24.1015 24.8231C24.2024 24.5795 24.3733 24.3712 24.5926 24.2247Z" fill="black"/>
<path fill-rule="evenodd" clip-rule="evenodd" d="M24.5926 17.558C24.8118 17.4115 25.0696 17.3333 25.3333 17.3333C25.687 17.3333 26.0261 17.4738 26.2761 17.7239C26.5262 17.9739 26.6667 18.313 26.6667 18.6667C26.6667 18.9304 26.5885 19.1882 26.442 19.4074C26.2954 19.6267 26.0872 19.7976 25.8436 19.8985C25.5999 19.9994 25.3319 20.0258 25.0732 19.9744C24.8146 19.9229 24.577 19.7959 24.3905 19.6095C24.204 19.423 24.0771 19.1854 24.0256 18.9268C23.9742 18.6681 24.0006 18.4001 24.1015 18.1564C24.2024 17.9128 24.3733 17.7045 24.5926 17.558Z" fill="black"/>
</g>
<defs>
<clipPath id="clip0">
<rect width="32" height="32" fill="white"/>
</clipPath>
</defs>
</svg>
