<svg width="32" height="32" viewBox="0 0 32 32" fill="none" xmlns="http://www.w3.org/2000/svg">
<path d="M28 17L25.3333 10.6667M6.66667 10.6667L4 17" stroke="black" stroke-width="1.5" stroke-linecap="round" stroke-linejoin="round"/>
<path d="M2 25.9574V28C2 28.5305 2.21071 29.0392 2.58579 29.4142C2.96086 29.7893 3.46957 30 4 30C4.53043 30 5.03914 29.7893 5.41421 29.4142C5.78929 29.0392 6 28.5305 6 28V26" stroke="black" stroke-width="1.5" stroke-linecap="round" stroke-linejoin="round"/>
<path d="M30 25.9574V28C30 28.5305 29.7893 29.0392 29.4142 29.4142C29.0391 29.7893 28.5304 30 28 30C27.4696 30 26.9609 29.7893 26.5858 29.4142C26.2107 29.0392 26 28.5305 26 28V26" stroke="black" stroke-width="1.5" stroke-linecap="round" stroke-linejoin="round"/>
<path d="M26.5 21C26.6326 21 26.7598 21.0527 26.8536 21.1464C26.9473 21.2402 27 21.3674 27 21.5" stroke="black" stroke-width="1.5" stroke-linecap="round" stroke-linejoin="round"/>
<path d="M26 21.5C26 21.3674 26.0527 21.2402 26.1464 21.1464C26.2402 21.0527 26.3674 21 26.5 21" stroke="black" stroke-width="1.5" stroke-linecap="round" stroke-linejoin="round"/>
<path d="M26.5 22C26.3674 22 26.2402 21.9473 26.1464 21.8536C26.0527 21.7598 26 21.6326 26 21.5" stroke="black" stroke-width="1.5" stroke-linecap="round" stroke-linejoin="round"/>
<path d="M27 21.5C27 21.6326 26.9473 21.7598 26.8536 21.8536C26.7598 21.9473 26.6326 22 26.5 22" stroke="black" stroke-width="1.5" stroke-linecap="round" stroke-linejoin="round"/>
<path d="M5.5 21C5.36739 21 5.24021 21.0527 5.14645 21.1464C5.05268 21.2402 5 21.3674 5 21.5" stroke="black" stroke-width="1.5" stroke-linecap="round" stroke-linejoin="round"/>
<path d="M6 21.5C6 21.3674 5.94732 21.2402 5.85355 21.1464C5.75978 21.0527 5.63261 21 5.5 21" stroke="black" stroke-width="1.5" stroke-linecap="round" stroke-linejoin="round"/>
<path d="M5.5 22C5.63261 22 5.75978 21.9473 5.85355 21.8536C5.94732 21.7598 6 21.6326 6 21.5" stroke="black" stroke-width="1.5" stroke-linecap="round" stroke-linejoin="round"/>
<path d="M5 21.5C5 21.6326 5.05268 21.7598 5.14645 21.8536C5.24021 21.9473 5.36739 22 5.5 22" stroke="black" stroke-width="1.5" stroke-linecap="round" stroke-linejoin="round"/>
<path d="M3.66667 17H28.3333C29.0406 17 29.7189 17.281 30.219 17.781C30.719 18.2811 31 18.9594 31 19.6667V24.6667C31 25.0203 30.8595 25.3594 30.6095 25.6095C30.3594 25.8595 30.0203 26 29.6667 26H2.33333C1.97971 26 1.64057 25.8595 1.39052 25.6095C1.14048 25.3594 1 25.0203 1 24.6667V19.6667C1 18.9594 1.28095 18.2811 1.78105 17.781C2.28115 17.281 2.95942 17 3.66667 17V17Z" stroke="black" stroke-width="1.5" stroke-linecap="round" stroke-linejoin="round"/>
<path d="M16.6667 5.66667C16.6667 7.32352 18.0099 8.66667 19.6667 8.66667C21.3236 8.66667 22.6667 7.32352 22.6667 5.66667C22.6667 4.00981 21.3236 2.66667 19.6667 2.66667C18.0099 2.66667 16.6667 4.00981 16.6667 5.66667Z" stroke="black" stroke-width="1.5" stroke-linecap="round" stroke-linejoin="round"/>
<path d="M16.6667 5.6665L12.3334 5.6665M9.33342 7.63711L9.33342 5.6665L12.3334 5.6665M12.3334 5.6665L12.3334 7.80868" stroke="black" stroke-width="1.5" stroke-linecap="round" stroke-linejoin="round"/>
</svg>
