<svg width="32" height="32" viewBox="0 0 32 32" fill="none" xmlns="http://www.w3.org/2000/svg">
<path d="M28 17L25.3333 10.6667L23.5 9.5M4 17L6.66667 10.6667L8.5 9.5" stroke="black" stroke-width="1.5" stroke-linecap="round" stroke-linejoin="round"/>
<path d="M2 25.9574V28C2 28.5305 2.21071 29.0392 2.58579 29.4142C2.96086 29.7893 3.46957 30 4 30C4.53043 30 5.03914 29.7893 5.41421 29.4142C5.78929 29.0392 6 28.5305 6 28V26" stroke="black" stroke-width="1.5" stroke-linecap="round" stroke-linejoin="round"/>
<path d="M30 25.9574V28C30 28.5305 29.7893 29.0392 29.4142 29.4142C29.0391 29.7893 28.5304 30 28 30C27.4696 30 26.9609 29.7893 26.5858 29.4142C26.2107 29.0392 26 28.5305 26 28V26" stroke="black" stroke-width="1.5" stroke-linecap="round" stroke-linejoin="round"/>
<path d="M26.5 21C26.6326 21 26.7598 21.0527 26.8536 21.1464C26.9473 21.2402 27 21.3674 27 21.5" stroke="black" stroke-width="1.5" stroke-linecap="round" stroke-linejoin="round"/>
<path d="M26 21.5C26 21.3674 26.0527 21.2402 26.1464 21.1464C26.2402 21.0527 26.3674 21 26.5 21" stroke="black" stroke-width="1.5" stroke-linecap="round" stroke-linejoin="round"/>
<path d="M26.5 22C26.3674 22 26.2402 21.9473 26.1464 21.8536C26.0527 21.7598 26 21.6326 26 21.5" stroke="black" stroke-width="1.5" stroke-linecap="round" stroke-linejoin="round"/>
<path d="M27 21.5C27 21.6326 26.9473 21.7598 26.8536 21.8536C26.7598 21.9473 26.6326 22 26.5 22" stroke="black" stroke-width="1.5" stroke-linecap="round" stroke-linejoin="round"/>
<path d="M5.5 21C5.36739 21 5.24021 21.0527 5.14645 21.1464C5.05268 21.2402 5 21.3674 5 21.5" stroke="black" stroke-width="1.5" stroke-linecap="round" stroke-linejoin="round"/>
<path d="M6 21.5C6 21.3674 5.94732 21.2402 5.85355 21.1464C5.75978 21.0527 5.63261 21 5.5 21" stroke="black" stroke-width="1.5" stroke-linecap="round" stroke-linejoin="round"/>
<path d="M5.5 22C5.63261 22 5.75978 21.9473 5.85355 21.8536C5.94732 21.7598 6 21.6326 6 21.5" stroke="black" stroke-width="1.5" stroke-linecap="round" stroke-linejoin="round"/>
<path d="M5 21.5C5 21.6326 5.05268 21.7598 5.14645 21.8536C5.24021 21.9473 5.36739 22 5.5 22" stroke="black" stroke-width="1.5" stroke-linecap="round" stroke-linejoin="round"/>
<path d="M3.66667 17H28.3333C29.0406 17 29.7189 17.281 30.219 17.781C30.719 18.2811 31 18.9594 31 19.6667V24.6667C31 25.0203 30.8595 25.3594 30.6095 25.6095C30.3594 25.8595 30.0203 26 29.6667 26H2.33333C1.97971 26 1.64057 25.8595 1.39052 25.6095C1.14048 25.3594 1 25.0203 1 24.6667V19.6667C1 18.9594 1.28095 18.2811 1.78105 17.781C2.28115 17.281 2.95942 17 3.66667 17V17Z" stroke="black" stroke-width="1.5" stroke-linecap="round" stroke-linejoin="round"/>
<path d="M15.5157 1.28196C15.561 1.19716 15.6301 1.12591 15.7156 1.07613C15.801 1.02635 15.8993 1 15.9996 1C16.0999 1 16.1982 1.02635 16.2836 1.07613C16.3691 1.12591 16.4383 1.19716 16.4835 1.28196L17.6091 3.43184C17.6481 3.50555 17.7054 3.56922 17.776 3.61743C17.8467 3.66564 17.9285 3.69697 18.0147 3.70874L20.5392 4.05407C20.638 4.06719 20.731 4.10616 20.8078 4.1666C20.8845 4.22705 20.942 4.30657 20.9736 4.39624C21.0046 4.48535 21.0084 4.58092 20.9846 4.67198C20.9608 4.76304 20.9104 4.8459 20.8392 4.91107L19.0058 6.5956C18.9442 6.65217 18.8981 6.72207 18.8714 6.79929C18.8447 6.87651 18.8382 6.95872 18.8525 7.03885L19.2847 9.41298C19.3016 9.50587 19.2903 9.60137 19.2521 9.68841C19.2139 9.77544 19.1505 9.85043 19.0691 9.90466C18.9873 9.95972 18.8909 9.99229 18.7907 9.99879C18.6905 10.0053 18.5904 9.98547 18.5014 9.94151L16.2524 8.82656C16.1745 8.78817 16.088 8.76813 16.0002 8.76813C15.9124 8.76813 15.8258 8.78817 15.7479 8.82656L13.499 9.94151C13.4099 9.98547 13.3098 10.0053 13.2096 9.99879C13.1094 9.99229 13.0131 9.95972 12.9312 9.90466C12.8498 9.85043 12.7864 9.77544 12.7482 9.68841C12.7101 9.60137 12.6988 9.50587 12.7156 9.41298L13.1467 7.03885C13.1613 6.95881 13.155 6.87662 13.1285 6.79939C13.1019 6.72216 13.056 6.65222 12.9945 6.5956L11.1611 4.91107C11.0897 4.84605 11.0391 4.76318 11.0154 4.67207C10.9916 4.58096 10.9955 4.48532 11.0267 4.39624C11.058 4.30659 11.1153 4.22704 11.1918 4.16657C11.2684 4.10611 11.3613 4.06714 11.46 4.05407L13.9845 3.70874C14.0708 3.69696 14.1528 3.66564 14.2236 3.61744C14.2944 3.56924 14.3519 3.50557 14.3912 3.43184L15.5157 1.28196Z" stroke="black" stroke-width="1.5" stroke-linecap="round" stroke-linejoin="round"/>
</svg>
