<svg width="32" height="32" viewBox="0 0 32 32" fill="none" xmlns="http://www.w3.org/2000/svg">
<path d="M29 25H15L7 31V25H3C2.46957 25 1.96086 24.7893 1.58579 24.4142C1.21071 24.0391 1 23.5304 1 23V3C1 2.46957 1.21071 1.96086 1.58579 1.58579C1.96086 1.21071 2.46957 1 3 1H29C29.5304 1 30.0391 1.21071 30.4142 1.58579C30.7893 1.96086 31 2.46957 31 3V23C31 23.5304 30.7893 24.0391 30.4142 24.4142C30.0391 24.7893 29.5304 25 29 25Z" stroke="black" stroke-width="1.5" stroke-linecap="round" stroke-linejoin="round"/>
<path d="M12.844 9.66667C12.5984 9.16676 12.2176 8.74569 11.7448 8.45122C11.2721 8.15674 10.7263 8.00065 10.1693 8.00065C9.61233 8.00065 9.0665 8.15674 8.59374 8.45122C8.12099 8.74569 7.74022 9.16676 7.49463 9.66667" stroke="black" stroke-width="1.5" stroke-linecap="round" stroke-linejoin="round"/>
<path d="M24.8359 9.66667C24.5903 9.16676 24.2095 8.74569 23.7368 8.45122C23.264 8.15674 22.7182 8.00065 22.1612 8.00065C21.6043 8.00065 21.0584 8.15674 20.5857 8.45122C20.1129 8.74569 19.7322 9.16676 19.4866 9.66667" stroke="black" stroke-width="1.5" stroke-linecap="round" stroke-linejoin="round"/>
<path d="M11.0027 17C12.4141 18.2869 14.2553 19.0002 16.1654 19.0002C18.0754 19.0002 19.9166 18.2869 21.328 17" stroke="black" stroke-width="1.5" stroke-linecap="round" stroke-linejoin="round"/>
</svg>
