<svg width="32" height="32" viewBox="0 0 32 32" fill="none" xmlns="http://www.w3.org/2000/svg">
<path d="M12 23C18.0751 23 23 18.0751 23 12C23 5.92487 18.0751 1 12 1C5.92487 1 1 5.92487 1 12C1 18.0751 5.92487 23 12 23Z" stroke="black" stroke-width="1.5" stroke-linecap="round" stroke-linejoin="round"/>
<path d="M12 17C14.7614 17 17 14.7614 17 12C17 9.23858 14.7614 7 12 7C9.23858 7 7 9.23858 7 12C7 14.7614 9.23858 17 12 17Z" stroke="black" stroke-width="1.5" stroke-linecap="round" stroke-linejoin="round"/>
<path d="M11.5065 26.9907C12.4816 28.1747 13.6936 29.1418 15.0645 29.8297C16.4355 30.5176 17.9352 30.9112 19.4673 30.9852C20.9995 31.0591 22.5301 30.8119 23.961 30.2592C25.3919 29.7066 26.6913 28.8608 27.776 27.7761C28.8606 26.6915 29.7064 25.392 30.259 23.9612C30.8117 22.5303 31.059 20.9996 30.985 19.4675C30.911 17.9354 30.5174 16.4357 29.8295 15.0647C29.1416 13.6937 28.1746 12.4818 26.9905 11.5067" stroke="black" stroke-width="1.5" stroke-linecap="round" stroke-linejoin="round"/>
<path d="M19.5267 24.9773C19.6827 24.992 19.84 25 20 25C21.3261 25 22.5979 24.4732 23.5356 23.5355C24.4733 22.5978 25 21.3261 25 20C25 19.84 24.992 19.6827 24.9774 19.5267" stroke="black" stroke-width="1.5" stroke-linecap="round" stroke-linejoin="round"/>
</svg>
