<svg width="32" height="32" viewBox="0 0 32 32" fill="none" xmlns="http://www.w3.org/2000/svg">
<path d="M3.71069 28L28.7107 4" stroke="black" stroke-width="1.5" stroke-linecap="round" stroke-linejoin="round"/>
<path d="M11.952 25.4013C13.2624 25.8083 14.6279 26.0102 16 26C21.4667 26.092 27.0107 22.2493 30.432 18.484C30.7988 18.0768 31.0018 17.5481 31.0018 17C31.0018 16.4519 30.7988 15.9232 30.432 15.516C29.1926 14.1563 27.8194 12.9247 26.3334 11.84" stroke="black" stroke-width="1.5" stroke-linecap="round" stroke-linejoin="round"/>
<path d="M19.2173 8.37601C18.1653 8.1142 17.0841 7.98785 16 8C10.6253 7.91067 5.06668 11.6693 1.57201 15.5133C1.20519 15.9206 1.0022 16.4492 1.0022 16.9973C1.0022 17.5454 1.20519 18.0741 1.57201 18.4813C2.63458 19.6445 3.79433 20.7151 5.03868 21.6813" stroke="black" stroke-width="1.5" stroke-linecap="round" stroke-linejoin="round"/>
<path d="M11 17C10.9998 16.3433 11.129 15.6931 11.3802 15.0864C11.6315 14.4797 11.9997 13.9284 12.4641 13.4641C12.9284 12.9997 13.4797 12.6315 14.0864 12.3802C14.6931 12.129 15.3433 11.9998 16 12" stroke="black" stroke-width="1.5" stroke-linecap="round" stroke-linejoin="round"/>
<path d="M21 16.9987C21.0002 17.6554 20.871 18.3057 20.6198 18.9125C20.3686 19.5193 20.0003 20.0706 19.536 20.5351C19.0717 20.9995 18.5204 21.3679 17.9137 21.6193C17.307 21.8706 16.6567 22 16 22" stroke="black" stroke-width="1.5" stroke-linecap="round" stroke-linejoin="round"/>
</svg>
