<svg width="32" height="32" viewBox="0 0 32 32" fill="none" xmlns="http://www.w3.org/2000/svg">
<path d="M19.6667 1H2.33333C1.59695 1 1 1.59695 1 2.33333V29.6667C1 30.403 1.59695 31 2.33333 31H19.6667C20.403 31 21 30.403 21 29.6667V2.33333C21 1.59695 20.403 1 19.6667 1Z" stroke="black" stroke-width="1.5" stroke-linecap="round" stroke-linejoin="round"/>
<path d="M14.6667 20.4444C14.6667 21.3874 14.3155 22.2918 13.6904 22.9586C13.0652 23.6254 12.2174 24 11.3333 24C10.4493 24 9.60143 23.6254 8.97631 22.9586C8.35119 22.2918 8 21.3874 8 20.4444C8 18.4806 11.3333 13.3333 11.3333 13.3333C11.3333 13.3333 14.6667 18.4806 14.6667 20.4444Z" stroke="black" stroke-width="1.5" stroke-linecap="round" stroke-linejoin="round"/>
<path d="M31 12L30.1093 13.3333C29.3858 14.4193 28.9998 15.6951 29 17V29C29 29.5304 28.7893 30.0391 28.4142 30.4142C28.0391 30.7893 27.5304 31 27 31C26.4695 31 25.9608 30.7893 25.5858 30.4142C25.2107 30.0391 25 29.5304 25 29V9C25 8.46957 24.7893 7.96086 24.4142 7.58579C24.0391 7.21071 23.5304 7 23 7H21H1.33331" stroke="black" stroke-width="1.5" stroke-linecap="round" stroke-linejoin="round"/>
<path d="M29 17H31" stroke="black" stroke-width="1.5" stroke-linecap="round" stroke-linejoin="round"/>
</svg>
