<svg width="32" height="32" viewBox="0 0 32 32" fill="none" xmlns="http://www.w3.org/2000/svg">
<path d="M15.9197 1.33355C19.1299 1.31599 22.2572 2.35218 24.8218 4.28313C27.3864 6.21409 29.2467 8.93315 30.1171 12.0231C30.9876 15.1131 30.8202 18.4034 29.6406 21.3891C28.461 24.3748 26.3344 26.891 23.5871 28.5517C20.8398 30.2124 17.6234 30.9258 14.4316 30.5826C11.2397 30.2393 8.24865 28.8582 5.91727 26.6513C3.58589 24.4444 2.04298 21.5335 1.52525 18.3653C1.00753 15.197 1.5436 11.9464 3.05121 9.11221M6.37329 2.74667L7.78796 1.33333M9.20272 5.576L10.6161 4.16134M7.78794 8.404C7.22532 8.96661 6.46226 9.28268 5.6666 9.28268C4.87095 9.28268 4.10788 8.96661 3.54527 8.404C2.98266 7.84138 2.66659 7.07832 2.66659 6.28266C2.66659 5.48701 2.98266 4.72394 3.54527 4.16133L5.6666 2.04L9.90927 6.28266L7.78794 8.404ZM19.9999 17.3333C19.9999 18.3942 19.5785 19.4116 18.8283 20.1618C18.0782 20.9119 17.0608 21.3333 15.9999 21.3333C14.9391 21.3333 13.9216 20.9119 13.1715 20.1618C12.4213 19.4116 11.9999 18.3942 11.9999 17.3333C11.9999 15.124 15.9999 9.33333 15.9999 9.33333C15.9999 9.33333 19.9999 15.124 19.9999 17.3333Z" stroke="black" stroke-width="1.5" stroke-linecap="round" stroke-linejoin="round"/>
</svg>
