<svg width="32" height="32" viewBox="0 0 32 32" fill="none" xmlns="http://www.w3.org/2000/svg">
<path d="M10 16.0053H31" stroke="black" stroke-width="1.5" stroke-linecap="round" stroke-linejoin="round"/>
<path d="M26 21.0053L31 16.0053L26 11.0053" stroke="black" stroke-width="1.5" stroke-linecap="round" stroke-linejoin="round"/>
<path d="M21.0001 22V28C21.0229 28.5061 20.8444 29.0006 20.5036 29.3754C20.1627 29.7502 19.6874 29.9748 19.1814 30H2.81739C2.31166 29.9744 1.83662 29.7497 1.49608 29.375C1.15555 29.0002 0.977213 28.5059 1.00006 28V4C0.976858 3.49405 1.15507 2.99952 1.49568 2.62468C1.83629 2.24983 2.31154 2.02522 2.81739 2H19.1814C19.6874 2.02522 20.1627 2.24979 20.5036 2.6246C20.8444 2.9994 21.0229 3.49392 21.0001 4V10" stroke="black" stroke-width="1.5" stroke-linecap="round" stroke-linejoin="round"/>
</svg>
