<svg width="32" height="32" viewBox="0 0 32 32" fill="none" xmlns="http://www.w3.org/2000/svg">
<path d="M16 31C24.2843 31 31 24.2843 31 16C31 7.71573 24.2843 1 16 1C7.71573 1 1 7.71573 1 16C1 24.2843 7.71573 31 16 31Z" stroke="black" stroke-width="1.5" stroke-miterlimit="10"/>
<path fill-rule="evenodd" clip-rule="evenodd" d="M19.38 16.5022C19.6189 16.8279 19.7379 17.2427 19.7379 17.7455C19.7379 18.4517 19.5326 19.0024 19.1222 19.4024C18.7117 19.8 18.1613 19.9989 17.4698 19.9989H14.1335C13.983 19.9989 13.8683 19.9554 13.7893 19.8697C13.7104 19.7829 13.6715 19.6572 13.6715 19.4926V12.5074C13.6715 12.3417 13.7104 12.216 13.7893 12.1303C13.8683 12.0434 13.983 12 14.1335 12H17.2541C17.9045 12 18.4381 12.1828 18.8538 12.5462C19.2727 12.9119 19.4811 13.4192 19.4811 14.0728C19.4811 14.5071 19.3821 14.8727 19.1843 15.1653C18.9843 15.4589 18.7107 15.668 18.3634 15.7972C18.8001 15.9389 19.139 16.1743 19.379 16.5011L19.38 16.5022ZM10.8024 12.13C10.8813 12.0443 10.995 12.0009 11.1466 12.0009H11.8338C11.9843 12.0009 12.099 12.0443 12.178 12.13C12.2569 12.2168 12.2958 12.3425 12.2958 12.5071V19.4924C12.2958 19.658 12.2559 19.7837 12.1769 19.8694C12.098 19.9563 11.9833 19.9997 11.8328 19.9997H10.9087C10.6698 19.9997 10.4846 19.8854 10.3551 19.6615L8.83534 16.935C8.28069 15.9591 7.85339 15.1558 7.55133 14.5239C7.59343 15.4495 7.61448 16.4814 7.61448 17.6229V19.4924C7.61448 19.658 7.57449 19.7837 7.49555 19.8694C7.41557 19.9563 7.30085 19.9997 7.15034 19.9997H6.46308C6.31153 19.9997 6.19681 19.9563 6.11788 19.8706C6.03894 19.7837 6 19.658 6 19.4935V12.5082C6 12.3425 6.03894 12.2168 6.11788 12.1311C6.19681 12.0443 6.31153 12.0009 6.46203 12.0009H7.42609C7.54923 12.0009 7.65342 12.0271 7.73867 12.0808C7.82498 12.1323 7.9018 12.218 7.97022 12.3391L9.64364 15.3352C10.1562 16.2448 10.5172 16.9087 10.7214 17.3292C10.694 16.6162 10.6793 15.6952 10.6793 14.5696V12.5082C10.6793 12.3425 10.7193 12.2168 10.7982 12.1311L10.8024 12.13ZM16.833 15.1424H15.3238V13.3849H16.8436C17.5277 13.3849 17.8697 13.6672 17.8697 14.2305C17.8697 14.5162 17.7824 14.739 17.6035 14.9024C17.4245 15.0624 17.1698 15.1424 16.833 15.1424ZM17.7676 18.3488C17.9729 18.1717 18.075 17.918 18.075 17.5878C18.075 17.2655 17.9729 17.0119 17.7676 16.8279C17.5624 16.6451 17.2572 16.5514 16.8541 16.5514H15.3238V18.6128H16.8541C17.2572 18.6128 17.5624 18.5248 17.7676 18.35V18.3488ZM25.9999 12.5062C25.9999 12.3417 25.9609 12.216 25.882 12.1291H25.8841C25.8052 12.0434 25.6905 12 25.5389 12H21.2175C21.067 12 20.9523 12.0434 20.8733 12.1303C20.7944 12.216 20.7555 12.3417 20.7555 12.5074V19.4926C20.7555 19.6572 20.7944 19.7829 20.8733 19.8697C20.9523 19.9554 21.067 19.9989 21.2175 19.9989H21.9563C22.1068 19.9989 22.2215 19.9554 22.3005 19.8686C22.3794 19.7829 22.4194 19.6572 22.4194 19.4915V16.8564H25.2821C25.4326 16.8564 25.5473 16.8142 25.6263 16.7273C25.7052 16.6405 25.7441 16.5148 25.7441 16.3502V15.8315C25.7441 15.6669 25.7052 15.5401 25.6263 15.4544C25.5473 15.3675 25.4326 15.3241 25.2811 15.3241H22.4183V13.5324H25.5379C25.6884 13.5324 25.8031 13.4889 25.882 13.4021C25.9609 13.3164 25.9999 13.1907 25.9999 13.025V12.5062Z" fill="black"/>
</svg>
