<svg width="32" height="32" viewBox="0 0 32 32" fill="none" xmlns="http://www.w3.org/2000/svg">
<path d="M16.5133 21.2333C17.9684 21.2333 19.148 20.0538 19.148 18.5987C19.148 17.1436 17.9684 15.964 16.5133 15.964C15.0582 15.964 13.8787 17.1436 13.8787 18.5987C13.8787 20.0538 15.0582 21.2333 16.5133 21.2333Z" stroke="black" stroke-width="1.5" stroke-linecap="round" stroke-linejoin="round"/>
<path d="M23.5346 9.048C24.8082 9.98347 25.8817 11.1644 26.6919 12.5211C27.502 13.8779 28.0325 15.3831 28.2519 16.948" stroke="black" stroke-width="1.5" stroke-linecap="round" stroke-linejoin="round"/>
<path d="M9.49199 9.048C8.2186 9.98368 7.14525 11.1646 6.33511 12.5214C5.52496 13.8781 4.99441 15.3832 4.77466 16.948" stroke="black" stroke-width="1.5" stroke-linecap="round" stroke-linejoin="round"/>
<path d="M21.612 29.3013C19.9494 30.0938 18.125 30.4877 16.2835 30.4518C14.4421 30.4159 12.6344 29.9512 11.004 29.0947" stroke="black" stroke-width="1.5" stroke-linecap="round" stroke-linejoin="round"/>
<path d="M15.6173 16.1213L14.0573 14.788C13.4475 14.2641 13.0161 13.5631 12.8233 12.7826C12.6304 12.0022 12.6857 11.181 12.9813 10.4333L16.1333 2.49601C16.2561 2.15502 16.4986 1.87022 16.8156 1.69454C17.1326 1.51885 17.5026 1.46423 17.8569 1.54081C18.2111 1.6174 18.5255 1.81999 18.7416 2.11094C18.9578 2.40188 19.0609 2.7614 19.0319 3.12267L17.9999 16.4253" stroke="black" stroke-width="1.5" stroke-linecap="round" stroke-linejoin="round"/>
<path d="M14.816 20.6133L14.4373 22.6333C14.2896 23.4246 13.898 24.1498 13.3175 24.7074C12.737 25.265 11.9966 25.627 11.2 25.7427L2.75467 26.98C2.39855 27.0424 2.03186 26.9739 1.72233 26.7871C1.4128 26.6002 1.18132 26.3077 1.07065 25.9635C0.959981 25.6193 0.97759 25.2467 1.12023 24.9144C1.26286 24.5822 1.5209 24.3128 1.84667 24.156L13.8827 18.396" stroke="black" stroke-width="1.5" stroke-linecap="round" stroke-linejoin="round"/>
<path d="M19.1067 19.0667L21.0454 18.384C21.8039 18.1166 22.6269 18.0929 23.3996 18.3162C24.1722 18.5394 24.8558 18.9986 25.3547 19.6293L30.6494 26.3253C30.8808 26.6026 31.0043 26.9543 30.9969 27.3154C30.9895 27.6766 30.8518 28.0229 30.6092 28.2905C30.3666 28.5581 30.0354 28.729 29.6767 28.7717C29.318 28.8144 28.956 28.7259 28.6574 28.5227L17.6507 20.98" stroke="black" stroke-width="1.5" stroke-linecap="round" stroke-linejoin="round"/>
</svg>
