<svg width="32" height="32" viewBox="0 0 32 32" fill="none" xmlns="http://www.w3.org/2000/svg">
<path d="M7.43468 29.0943C5.39698 30.9804 1.52369 30.1961 1.52369 30.1961C1.52369 30.1961 0.656164 26.2544 2.62548 24.2851C2.91971 23.9671 3.28133 23.719 3.68386 23.5589C4.08639 23.3987 4.51964 23.3307 4.95188 23.3597C5.38412 23.3886 5.8044 23.5139 6.18195 23.7264C6.5595 23.9388 6.88476 24.233 7.13391 24.5873C7.48794 24.8366 7.78176 25.1619 7.99388 25.5394C8.206 25.9169 8.33104 26.337 8.35987 26.769C8.38871 27.2011 8.32059 27.6341 8.16051 28.0364C8.00043 28.4387 7.75244 28.8001 7.43468 29.0943Z" stroke="black" stroke-width="1.5" stroke-linecap="round" stroke-linejoin="round"/>
<path d="M28.4037 3.3087L30.3791 1.33333" stroke="black" stroke-width="1.5" stroke-linecap="round" stroke-linejoin="round"/>
<path d="M28.6668 10.2111L28.4038 3.30868L21.5014 3.0457C20.481 3.06744 19.4817 3.33977 18.5914 3.83869C17.7011 4.33761 16.9471 5.04781 16.3959 5.90673L8.89197 18.3257L13.3747 22.8145L25.7937 15.3165C26.6553 14.7672 27.3682 14.014 27.8694 13.1235C28.3705 12.233 28.6668 11.3922 28.6668 10.2111Z" stroke="black" stroke-width="1.5" stroke-linecap="round" stroke-linejoin="round"/>
<path d="M12.0311 13.1371L10.3686 12.5477C9.85939 12.3507 9.30458 12.3029 8.76921 12.41C8.23383 12.517 7.74008 12.7745 7.34583 13.1522L4.43795 16.0526C4.34522 16.15 4.28185 16.2715 4.25511 16.4033C4.22838 16.5352 4.23936 16.6718 4.28681 16.7977C4.33393 16.9325 4.41386 17.0536 4.51939 17.1499C4.62492 17.2462 4.75275 17.3147 4.89136 17.3493L8.8965 18.3317" stroke="black" stroke-width="1.5" stroke-linecap="round" stroke-linejoin="round"/>
<path d="M18.5177 19.7131L19.1585 21.3424C19.3568 21.8506 19.4063 22.4048 19.3011 22.9402C19.1959 23.4755 18.9404 23.9698 18.5645 24.3651L15.6596 27.2806C15.5622 27.3738 15.4403 27.4374 15.3082 27.4642C15.1761 27.4909 15.039 27.4797 14.913 27.4317C14.7785 27.3843 14.6578 27.3042 14.5618 27.1987C14.4658 27.0932 14.3975 26.9656 14.3629 26.8272L13.3805 22.822" stroke="black" stroke-width="1.5" stroke-linecap="round" stroke-linejoin="round"/>
<path d="M21.5616 12.4177C22.8137 12.4177 23.8287 11.4027 23.8287 10.1507C23.8287 8.89862 22.8137 7.88363 21.5616 7.88363C20.3096 7.88363 19.2946 8.89862 19.2946 10.1507C19.2946 11.4027 20.3096 12.4177 21.5616 12.4177Z" stroke="black" stroke-width="1.5" stroke-linecap="round" stroke-linejoin="round"/>
</svg>
