<svg width="32" height="32" viewBox="0 0 32 32" fill="none" xmlns="http://www.w3.org/2000/svg">
<path d="M5.96667 13.8307L3 15.8307L1 12.864" stroke="black" stroke-width="1.5" stroke-linecap="round" stroke-linejoin="round"/>
<path d="M3.00134 15.832C3.04315 12.4408 4.31457 9.18001 6.57937 6.65554C8.84418 4.13108 11.9484 2.51458 15.3152 2.10637C18.6821 1.69816 22.0826 2.52601 24.8851 4.4361C27.6875 6.3462 29.7014 9.20866 30.5524 12.4916C31.4034 15.7746 31.0337 19.2549 29.5121 22.2859C27.9904 25.3169 25.4202 27.6925 22.2791 28.9713C19.1379 30.25 15.6393 30.3451 12.4333 29.2388C9.22736 28.1324 6.53199 25.8999 4.84801 22.956" stroke="black" stroke-width="1.5" stroke-linecap="round" stroke-linejoin="round"/>
<path d="M12.6666 16.6667H21.9999" stroke="black" stroke-width="1.5" stroke-linecap="round" stroke-linejoin="round"/>
<path d="M10.6666 14.6667C11.1971 14.6667 11.7058 14.8774 12.0808 15.2525C12.4559 15.6275 12.6666 16.1362 12.6666 16.6667C12.6666 17.1971 12.4559 17.7058 12.0808 18.0809C11.7058 18.456 11.1971 18.6667 10.6666 18.6667" stroke="black" stroke-width="1.5" stroke-linecap="round" stroke-linejoin="round"/>
<path d="M24.3333 14.6667C23.8028 14.6667 23.2941 14.8774 22.919 15.2524C22.544 15.6275 22.3333 16.1362 22.3333 16.6667C22.3333 17.1971 22.544 17.7058 22.919 18.0809C23.2941 18.4559 23.8028 18.6667 24.3333 18.6667" stroke="black" stroke-width="1.5" stroke-linecap="round" stroke-linejoin="round"/>
</svg>
