<svg width="32" height="32" viewBox="0 0 32 32" fill="none" xmlns="http://www.w3.org/2000/svg">
<path d="M29 7H18C16.9391 7 15.9217 7.42143 15.1716 8.17157C14.4214 8.92172 14 9.93913 14 11V19.3333" stroke="black" stroke-width="1.5" stroke-linecap="round" stroke-linejoin="round"/>
<path d="M23 13L29 7L23 1" stroke="black" stroke-width="1.5" stroke-linecap="round" stroke-linejoin="round"/>
<path d="M25 19V29C25 29.5304 24.7893 30.0391 24.4142 30.4142C24.0391 30.7893 23.5304 31 23 31H5C4.46957 31 3.96086 30.7893 3.58579 30.4142C3.21071 30.0391 3 29.5304 3 29V9C3 8.46957 3.21071 7.96086 3.58579 7.58579C3.96086 7.21071 4.46957 7 5 7H8" stroke="black" stroke-width="1.5" stroke-linecap="round" stroke-linejoin="round"/>
</svg>
