<svg width="32" height="32" viewBox="0 0 32 32" fill="none" xmlns="http://www.w3.org/2000/svg">
<path d="M30.3094 13.4827L30.6801 13.116C30.8257 12.9716 30.927 12.7885 30.9719 12.5883C31.0167 12.3882 31.0033 12.1794 30.9331 11.9866C30.863 11.7939 30.7391 11.6252 30.5761 11.5007C30.4131 11.3762 30.2178 11.301 30.0134 11.284L21.4267 10.4333L16.9721 1.6C16.8804 1.42107 16.7412 1.2709 16.5697 1.16603C16.3982 1.06117 16.2011 1.00568 16.0001 1.00568C15.799 1.00568 15.6019 1.06117 15.4304 1.16603C15.2589 1.2709 15.1197 1.42107 15.0281 1.6L10.5667 10.4333L1.98005 11.284C1.77564 11.301 1.58037 11.3762 1.41737 11.5007C1.25436 11.6252 1.13046 11.7939 1.06031 11.9866C0.990169 12.1794 0.976727 12.3882 1.02158 12.5883C1.06643 12.7885 1.16769 12.9716 1.31339 13.116L8.38005 20.12L5.77205 29.6373C5.71845 29.8392 5.7243 30.0523 5.78892 30.2509C5.85353 30.4495 5.97415 30.6252 6.13626 30.7569C6.29838 30.8886 6.49509 30.9707 6.70273 30.9932C6.91038 31.0158 7.12012 30.9778 7.30672 30.884L12.2894 28.416" stroke="black" stroke-width="1.5" stroke-linecap="round" stroke-linejoin="round"/>
<path d="M23 31C27.4183 31 31 27.4183 31 23C31 18.5817 27.4183 15 23 15C18.5817 15 15 18.5817 15 23C15 27.4183 18.5817 31 23 31Z" stroke="black" stroke-width="1.5" stroke-linecap="round" stroke-linejoin="round"/>
<path d="M26.5654 20.6747L22.6921 25.8387C22.6059 25.9531 22.4962 26.0478 22.3704 26.1163C22.2446 26.1848 22.1055 26.2255 21.9627 26.2357C21.8198 26.246 21.6763 26.2255 21.542 26.1756C21.4077 26.1257 21.2857 26.0477 21.1841 25.9467L19.1841 23.9467" stroke="black" stroke-width="1.5" stroke-linecap="round" stroke-linejoin="round"/>
</svg>
