<svg width="32" height="32" viewBox="0 0 32 32" fill="none" xmlns="http://www.w3.org/2000/svg">
<path d="M8.96399 7.30267C9.08059 6.13403 9.48929 5.0135 10.1525 4.04422C10.8157 3.07495 11.712 2.28808 12.759 1.75604C13.8061 1.224 14.9701 0.963902 16.144 0.999675C17.3179 1.03545 18.4639 1.36595 19.4766 1.96075C20.4893 2.55555 21.3361 3.39555 21.939 4.40341C22.5419 5.41126 22.8817 6.5546 22.9269 7.72817C22.9721 8.90174 22.7214 10.0678 22.1978 11.1191C21.6742 12.1704 20.8946 13.073 19.9307 13.744" stroke="black" stroke-width="1.5" stroke-linecap="round" stroke-linejoin="round"/>
<path d="M9.9187 4.46667C11.0022 5.58525 12.2996 6.47448 13.7337 7.08148C15.1678 7.68849 16.7094 8.00085 18.2667 8C19.8382 8.00157 21.3936 7.68405 22.8387 7.06667" stroke="black" stroke-width="1.5" stroke-linecap="round" stroke-linejoin="round"/>
<path d="M14.4307 13C14.0351 13 13.6484 13.1173 13.3195 13.3371C12.9906 13.5568 12.7343 13.8692 12.5829 14.2346C12.4315 14.6001 12.3919 15.0022 12.4691 15.3902C12.5463 15.7781 12.7367 16.1345 13.0165 16.4142C13.2962 16.6939 13.6525 16.8844 14.0405 16.9616C14.4284 17.0387 14.8306 16.9991 15.196 16.8478C15.5615 16.6964 15.8738 16.44 16.0936 16.1111C16.3134 15.7822 16.4307 15.3956 16.4307 15C16.4307 14.4696 16.22 13.9609 15.8449 13.5858C15.4698 13.2107 14.9611 13 14.4307 13Z" stroke="black" stroke-width="1.5" stroke-linecap="round" stroke-linejoin="round"/>
<path d="M12.4307 15H10.4307C9.3698 15 8.35238 14.5786 7.60224 13.8284C6.85209 13.0783 6.43066 12.0609 6.43066 11V9.56267" stroke="black" stroke-width="1.5" stroke-linecap="round" stroke-linejoin="round"/>
<path d="M28.9333 31C28.9334 28.6222 28.2806 26.29 27.0463 24.2577C25.8119 22.2254 24.0434 20.5709 21.9333 19.4747" stroke="black" stroke-width="1.5" stroke-linecap="round" stroke-linejoin="round"/>
<path d="M9.93068 19.4747C7.82117 20.5713 6.05315 22.2259 4.81929 24.2582C3.58543 26.2905 2.93309 28.6225 2.93335 31" stroke="black" stroke-width="1.5" stroke-linecap="round" stroke-linejoin="round"/>
</svg>
