<svg width="32" height="32" viewBox="0 0 32 32" fill="none" xmlns="http://www.w3.org/2000/svg">
<path d="M1.51331 3.512V11.856C1.51353 12.9168 1.93511 13.934 2.68531 14.684L18.192 30.1907C18.3199 30.3187 18.4802 30.4097 18.6558 30.4538C18.8314 30.4979 19.0157 30.4935 19.189 30.441C19.3622 30.3886 19.518 30.2901 19.6397 30.1561C19.7614 30.0221 19.8445 29.8575 19.88 29.68L21.5133 21.512L29.6813 19.8787C29.8588 19.8432 30.0234 19.7601 30.1574 19.6384C30.2914 19.5167 30.3899 19.3609 30.4423 19.1877C30.4948 19.0144 30.4992 18.8301 30.4551 18.6545C30.411 18.4789 30.32 18.3186 30.192 18.1907L14.6853 2.684C13.9353 1.9338 12.9181 1.51223 11.8573 1.512H3.51331C2.98287 1.512 2.47416 1.72271 2.09909 2.09779C1.72402 2.47286 1.51331 2.98157 1.51331 3.512V3.512Z" stroke="black" stroke-width="1.5" stroke-linecap="round" stroke-linejoin="round"/>
<path d="M8.51331 10.512C9.61788 10.512 10.5133 9.61657 10.5133 8.512C10.5133 7.40743 9.61788 6.512 8.51331 6.512C7.40874 6.512 6.51331 7.40743 6.51331 8.512C6.51331 9.61657 7.40874 10.512 8.51331 10.512Z" stroke="black" stroke-width="1.5" stroke-linecap="round" stroke-linejoin="round"/>
</svg>
