<svg width="32" height="32" viewBox="0 0 32 32" fill="none" xmlns="http://www.w3.org/2000/svg">
<path d="M9.96802 4.44534C11.0518 5.56982 12.3512 6.46418 13.7885 7.07495C15.2259 7.68572 16.7716 8.00034 18.3334 8.00001C19.9151 8.00045 21.4803 7.67834 22.9334 7.05334" stroke="black" stroke-width="1.5" stroke-linecap="round" stroke-linejoin="round"/>
<path d="M16 15C19.866 15 23 11.866 23 8C23 4.13401 19.866 1 16 1C12.134 1 9 4.13401 9 8C9 11.866 12.134 15 16 15Z" stroke="black" stroke-width="1.5" stroke-linecap="round" stroke-linejoin="round"/>
<path d="M3 31C3 27.5522 4.36964 24.2456 6.80761 21.8076C9.24559 19.3696 12.5522 18 16 18C19.4478 18 22.7544 19.3696 25.1924 21.8076C27.6304 24.2456 29 27.5522 29 31" stroke="black" stroke-width="1.5" stroke-linecap="round" stroke-linejoin="round"/>
</svg>
