<svg width="32" height="32" viewBox="0 0 32 32" fill="none" xmlns="http://www.w3.org/2000/svg">
<path d="M29 24.6667V26.6667C29 27.7275 28.5786 28.745 27.8284 29.4951C27.0783 30.2452 26.0609 30.6667 25 30.6667H5C3.93913 30.6667 2.92172 30.2452 2.17157 29.4951C1.42143 28.745 1 27.7275 1 26.6667V12.6667C1 11.6058 1.42143 10.5884 2.17157 9.83824C2.92172 9.0881 3.93913 8.66667 5 8.66667H25C26.0609 8.66667 27.0783 9.0881 27.8284 9.83824C28.5786 10.5884 29 11.6058 29 12.6667V14.6667" stroke="black" stroke-width="1.5" stroke-linecap="round" stroke-linejoin="round"/>
<path d="M25 8.66667L21.8947 2.456C21.7772 2.22097 21.6146 2.01139 21.4162 1.83922C21.2177 1.66705 20.9873 1.53567 20.738 1.45258C20.4888 1.3695 20.2256 1.33634 19.9635 1.355C19.7015 1.37366 19.4456 1.44377 19.2107 1.56133L5 8.66667" stroke="black" stroke-width="1.5" stroke-linecap="round" stroke-linejoin="round"/>
<path d="M29 24.6667C29.5304 24.6667 30.0391 24.456 30.4142 24.0809C30.7893 23.7058 31 23.1971 31 22.6667V16.6667C31 16.1362 30.7893 15.6275 30.4142 15.2525C30.0391 14.8774 29.5304 14.6667 29 14.6667H24C22.6739 14.6667 21.4021 15.1935 20.4645 16.1311C19.5268 17.0688 19 18.3406 19 19.6667C19 20.9928 19.5268 22.2645 20.4645 23.2022C21.4021 24.1399 22.6739 24.6667 24 24.6667H29Z" stroke="black" stroke-width="1.5" stroke-linecap="round" stroke-linejoin="round"/>
<path d="M24 19.1667C24.0989 19.1667 24.1956 19.196 24.2778 19.2509C24.36 19.3059 24.4241 19.384 24.4619 19.4753C24.4998 19.5667 24.5097 19.6672 24.4904 19.7642C24.4711 19.8612 24.4235 19.9503 24.3536 20.0202C24.2836 20.0901 24.1945 20.1378 24.0975 20.1571C24.0006 20.1764 23.9 20.1664 23.8087 20.1286C23.7173 20.0908 23.6392 20.0267 23.5843 19.9445C23.5293 19.8622 23.5 19.7656 23.5 19.6667C23.5 19.5341 23.5527 19.4069 23.6464 19.3131C23.7402 19.2193 23.8674 19.1667 24 19.1667" stroke="black" stroke-width="1.5" stroke-linecap="round" stroke-linejoin="round"/>
</svg>
