<svg width="24" height="24" viewBox="0 0 24 24" fill="none" xmlns="http://www.w3.org/2000/svg">
<path d="M20.25 0.75H3.75C2.09315 0.75 0.75 2.09315 0.75 3.75V8.25C0.75 9.90685 2.09315 11.25 3.75 11.25H20.25C21.9069 11.25 23.25 9.90685 23.25 8.25V3.75C23.25 2.09315 21.9069 0.75 20.25 0.75Z" stroke="#474445" stroke-width="1.5" stroke-linecap="round" stroke-linejoin="round"/>
<path d="M5.25 3.75H18.75" stroke="#474445" stroke-width="1.5" stroke-linecap="round" stroke-linejoin="round"/>
<path d="M18.75 8.25H5.25C4.85218 8.25 4.47064 8.40804 4.18934 8.68934C3.90804 8.97064 3.75 9.35218 3.75 9.75V11.25H20.25V9.75C20.25 9.35218 20.092 8.97064 19.8107 8.68934C19.5294 8.40804 19.1478 8.25 18.75 8.25Z" stroke="#474445" stroke-width="1.5" stroke-linecap="round" stroke-linejoin="round"/>
<path d="M3.87886 14C3.60023 14.2786 3.37921 14.6093 3.22841 14.9733C3.07761 15.3373 3 15.7275 3 16.1215C3 16.5155 3.07761 16.9057 3.22841 17.2697C3.37921 17.6337 3.60023 17.9644 3.87886 18.243C4.44127 18.8056 4.75722 19.5685 4.75722 20.364C4.75722 21.1595 4.44127 21.9224 3.87886 22.485" stroke="#474445" stroke-width="1.5" stroke-linecap="round" stroke-linejoin="round"/>
<path d="M11.8789 14C11.6002 14.2786 11.3792 14.6093 11.2284 14.9733C11.0776 15.3373 11 15.7275 11 16.1215C11 16.5155 11.0776 16.9057 11.2284 17.2697C11.3792 17.6337 11.6002 17.9644 11.8789 18.243C12.4413 18.8056 12.7572 19.5685 12.7572 20.364C12.7572 21.1595 12.4413 21.9224 11.8789 22.485" stroke="#474445" stroke-width="1.5" stroke-linecap="round" stroke-linejoin="round"/>
<path d="M19.8789 14C19.6002 14.2786 19.3792 14.6093 19.2284 14.9733C19.0776 15.3373 19 15.7275 19 16.1215C19 16.5155 19.0776 16.9057 19.2284 17.2697C19.3792 17.6337 19.6002 17.9644 19.8789 18.243C20.4413 18.8056 20.7572 19.5685 20.7572 20.364C20.7572 21.1595 20.4413 21.9224 19.8789 22.485" stroke="#474445" stroke-width="1.5" stroke-linecap="round" stroke-linejoin="round"/>
</svg>
