<svg width="24" height="24" viewBox="0 0 24 24" fill="none" xmlns="http://www.w3.org/2000/svg">
<path fill-rule="evenodd" clip-rule="evenodd" d="M1.5 3.75C1.5 2.50736 2.50736 1.5 3.75 1.5H20.25C21.4926 1.5 22.5 2.50736 22.5 3.75V8.25C22.5 9.22966 21.8739 10.0631 21 10.372V9.75C21 9.15326 20.7629 8.58097 20.341 8.15901C19.919 7.73705 19.3467 7.5 18.75 7.5H5.25C4.65326 7.5 4.08097 7.73705 3.65901 8.15901C3.23705 8.58097 3 9.15326 3 9.75V10.372C2.12611 10.0631 1.5 9.22966 1.5 8.25V3.75ZM3.75 12H20.25C22.3211 12 24 10.3211 24 8.25V3.75C24 1.67893 22.3211 0 20.25 0H3.75C1.67893 0 0 1.67893 0 3.75V8.25C0 10.3211 1.67893 12 3.75 12ZM19.5 9.75V10.5H4.5V9.75C4.5 9.55109 4.57902 9.36032 4.71967 9.21967C4.86032 9.07902 5.05109 9 5.25 9H18.75C18.9489 9 19.1397 9.07902 19.2803 9.21967C19.421 9.36032 19.5 9.55109 19.5 9.75ZM5.25 3C4.83579 3 4.5 3.33579 4.5 3.75C4.5 4.16421 4.83579 4.5 5.25 4.5H18.75C19.1642 4.5 19.5 4.16421 19.5 3.75C19.5 3.33579 19.1642 3 18.75 3H5.25ZM4.40914 14.5304C4.70206 14.2375 4.7021 13.7626 4.40923 13.4697C4.11637 13.1768 3.64149 13.1768 3.34857 13.4696C3.00029 13.8179 2.72401 14.2313 2.53551 14.6863C2.34702 15.1413 2.25 15.629 2.25 16.1215C2.25 16.614 2.34702 17.1017 2.53551 17.5567C2.72398 18.0117 3.00022 18.425 3.34845 18.7733L3.34857 18.7734C3.77031 19.1953 4.00722 19.7674 4.00722 20.364C4.00722 20.9606 3.77026 21.5328 3.34845 21.9548C3.0556 22.2477 3.05567 22.7226 3.34861 23.0154C3.64155 23.3083 4.11642 23.3082 4.40927 23.0152C5.11229 22.312 5.50722 21.3584 5.50722 20.364C5.50722 19.3696 5.11229 18.416 4.40927 17.7127L4.40914 17.7126C4.20017 17.5037 4.0344 17.2556 3.92131 16.9826C3.86403 16.8444 3.82083 16.7011 3.79214 16.5549C3.76418 16.4125 3.75 16.2674 3.75 16.1215C3.75 15.826 3.80821 15.5334 3.92131 15.2604C3.97773 15.1242 4.04726 14.9942 4.12872 14.8722C4.21055 14.7496 4.30442 14.6351 4.40914 14.5304ZM12.4092 13.4697C12.7021 13.7626 12.7021 14.2375 12.4091 14.5304C12.3044 14.6351 12.2106 14.7496 12.1287 14.8722C12.0473 14.9942 11.9777 15.1242 11.9213 15.2604C11.8082 15.5334 11.75 15.826 11.75 16.1215C11.75 16.2674 11.7642 16.4125 11.7921 16.5549C11.8208 16.7011 11.864 16.8444 11.9213 16.9826C12.0344 17.2556 12.2002 17.5037 12.4091 17.7126L12.4093 17.7127C13.1123 18.416 13.5072 19.3696 13.5072 20.364C13.5072 21.3584 13.1123 22.312 12.4093 23.0152C12.1164 23.3082 11.6415 23.3083 11.3486 23.0154C11.0557 22.7226 11.0556 22.2477 11.3484 21.9548C11.7703 21.5328 12.0072 20.9606 12.0072 20.364C12.0072 19.7674 11.7703 19.1953 11.3486 18.7734L11.3484 18.7733C11.0002 18.425 10.724 18.0117 10.5355 17.5567C10.347 17.1017 10.25 16.614 10.25 16.1215C10.25 15.629 10.347 15.1413 10.5355 14.6863C10.724 14.2313 11.0003 13.8179 11.3486 13.4696C11.6415 13.1768 12.1164 13.1768 12.4092 13.4697ZM20.4091 14.5304C20.7021 14.2375 20.7021 13.7626 20.4092 13.4697C20.1164 13.1768 19.6415 13.1768 19.3486 13.4696C19.0003 13.8179 18.724 14.2313 18.5355 14.6863C18.347 15.1413 18.25 15.629 18.25 16.1215C18.25 16.614 18.347 17.1017 18.5355 17.5567C18.724 18.0117 19.0002 18.425 19.3484 18.7733L19.3486 18.7734C19.7703 19.1953 20.0072 19.7674 20.0072 20.364C20.0072 20.9606 19.7703 21.5328 19.3484 21.9548C19.0556 22.2477 19.0557 22.7226 19.3486 23.0154C19.6415 23.3083 20.1164 23.3082 20.4093 23.0152C21.1123 22.312 21.5072 21.3584 21.5072 20.364C21.5072 19.3696 21.1123 18.416 20.4093 17.7127L20.4091 17.7126C20.2002 17.5037 20.0344 17.2556 19.9213 16.9826C19.864 16.8444 19.8208 16.7011 19.7921 16.5549C19.7642 16.4125 19.75 16.2674 19.75 16.1215C19.75 15.826 19.8082 15.5334 19.9213 15.2604C19.9777 15.1242 20.0473 14.9942 20.1287 14.8722C20.2106 14.7496 20.3044 14.6351 20.4091 14.5304Z" fill="#767676"/>
</svg>
