<svg width="24" height="24" viewBox="0 0 24 24" fill="none" xmlns="http://www.w3.org/2000/svg">
<path d="M12 16.5C11.9258 16.5 11.8533 16.522 11.7917 16.5632C11.73 16.6044 11.6819 16.663 11.6535 16.7315C11.6252 16.8 11.6177 16.8754 11.6322 16.9482C11.6467 17.0209 11.6824 17.0877 11.7348 17.1402C11.7873 17.1926 11.8541 17.2283 11.9268 17.2428C11.9996 17.2573 12.075 17.2498 12.1435 17.2215C12.212 17.1931 12.2706 17.145 12.3118 17.0833C12.353 17.0217 12.375 16.9492 12.375 16.875C12.375 16.7755 12.3355 16.6802 12.2652 16.6098C12.1948 16.5395 12.0995 16.5 12 16.5Z" fill="#474445" stroke="#474445" stroke-width="1.5" stroke-linecap="round" stroke-linejoin="round"/>
<path d="M12 13.5V6" stroke="#474445" stroke-width="1.5" stroke-miterlimit="10" stroke-linecap="round"/>
<path d="M12 23.25C18.2132 23.25 23.25 18.2132 23.25 12C23.25 5.7868 18.2132 0.75 12 0.75C5.7868 0.75 0.75 5.7868 0.75 12C0.75 18.2132 5.7868 23.25 12 23.25Z" stroke="#474445" stroke-width="1.5" stroke-miterlimit="10"/>
</svg>
