<svg width="24" height="24" viewBox="0 0 24 24" fill="none" xmlns="http://www.w3.org/2000/svg">
<path d="M12 4.5V19.5M12 4.5L19 4.5M12 4.5H5M12 19.5H19M12 19.5H5M10 2L14 2M10 22H14M2 8H4C4.55228 8 5 7.55228 5 7V2C5 1.44772 4.55228 1 4 1H2C1.44772 1 1 1.44772 1 2V7C1 7.55228 1.44772 8 2 8ZM2 23H4C4.55228 23 5 22.5523 5 22V17C5 16.4477 4.55228 16 4 16H2C1.44772 16 1 16.4477 1 17V22C1 22.5523 1.44772 23 2 23ZM20 8H22C22.5523 8 23 7.55228 23 7V2C23 1.44772 22.5523 1 22 1H20C19.4477 1 19 1.44772 19 2V7C19 7.55228 19.4477 8 20 8ZM20 23H22C22.5523 23 23 22.5523 23 22V17C23 16.4477 22.5523 16 22 16H20C19.4477 16 19 16.4477 19 17V22C19 22.5523 19.4477 23 20 23Z" stroke="#767676" stroke-width="1.5" stroke-linecap="round" stroke-linejoin="round"/>
</svg>
