<svg width="24" height="24" viewBox="0 0 24 24" fill="none" xmlns="http://www.w3.org/2000/svg">
<path d="M3 4V22C3 22.5523 3.44772 23 4 23H7C7.55228 23 8 22.5523 8 22V14.5C8 12.2909 9.79086 10.5 12 10.5V10.5C14.2091 10.5 16 12.2909 16 14.5V22C16 22.5523 16.4477 23 17 23H20C20.5523 23 21 22.5523 21 22V4" stroke="#71717A" stroke-width="1.5"/>
<path d="M1 15L10 15" stroke="#71717A" stroke-width="1.5" stroke-linecap="round"/>
<path d="M14 15L23 15" stroke="#71717A" stroke-width="1.5" stroke-linecap="round"/>
<rect x="1" y="1" width="22" height="3" rx="1" stroke="#71717A" stroke-width="1.5"/>
</svg>
