<svg width="24" height="24" viewBox="0 0 24 24" fill="none" xmlns="http://www.w3.org/2000/svg">
<path fill-rule="evenodd" clip-rule="evenodd" d="M1.5 3.75V2.25H22.5V3.75H21.75H2.25H1.5ZM1.5 5.25H1.25C0.559644 5.25 0 4.69036 0 4V2C0 1.30964 0.559644 0.75 1.25 0.75H22.75C23.4404 0.75 24 1.30964 24 2V4C24 4.69036 23.4404 5.25 22.75 5.25H22.5V14.25H23.25C23.6642 14.25 24 14.5858 24 15C24 15.4142 23.6642 15.75 23.25 15.75H22.5V21C22.5 21.5967 22.2629 22.169 21.841 22.591C21.419 23.0129 20.8467 23.25 20.25 23.25H17.25C16.6533 23.25 16.081 23.0129 15.659 22.591C15.2371 22.169 15 21.5967 15 21V15.75H14.25C13.8358 15.75 13.5 15.4142 13.5 15C13.5 14.5858 13.8358 14.25 14.25 14.25H15C15 13.4544 14.6839 12.6913 14.1213 12.1287C13.5587 11.5661 12.7956 11.25 12 11.25C11.2044 11.25 10.4413 11.5661 9.87868 12.1287C9.31607 12.6913 9 13.4544 9 14.25H9.75C10.1642 14.25 10.5 14.5858 10.5 15C10.5 15.4142 10.1642 15.75 9.75 15.75H9V21C9 21.5967 8.76295 22.169 8.34099 22.591C7.91903 23.0129 7.34674 23.25 6.75 23.25H3.75C3.15326 23.25 2.58097 23.0129 2.15901 22.591C1.73705 22.169 1.5 21.5967 1.5 21V15.75H0.75C0.335786 15.75 0 15.4142 0 15C0 14.5858 0.335786 14.25 0.75 14.25H1.5V5.25ZM21 5.25V14.25H16.5C16.5 13.0565 16.0259 11.9119 15.182 11.068C14.3381 10.2241 13.1935 9.75 12 9.75C10.8065 9.75 9.66193 10.2241 8.81802 11.068C7.97411 11.9119 7.5 13.0565 7.5 14.25H3V5.25H21ZM16.5 21V15.75H21V21C21 21.1989 20.921 21.3897 20.7803 21.5303C20.6397 21.671 20.4489 21.75 20.25 21.75H17.25C17.0511 21.75 16.8603 21.671 16.7197 21.5303C16.579 21.3897 16.5 21.1989 16.5 21ZM3 15.75V21C3 21.1989 3.07902 21.3897 3.21967 21.5303C3.36032 21.671 3.55109 21.75 3.75 21.75H6.75C6.94891 21.75 7.13968 21.671 7.28033 21.5303C7.42098 21.3897 7.5 21.1989 7.5 21V15.75H3Z" fill="#474445"/>
</svg>
