<svg width="24" height="24" viewBox="0 0 24 24" fill="none" xmlns="http://www.w3.org/2000/svg">
<path d="M23 9.94443L12.2669 20.6784C11.0292 21.9162 9.35045 22.6115 7.60002 22.6115C5.84958 22.6115 4.17084 21.9162 2.9331 20.6784C1.69536 19.4407 1 17.7619 1 16.0115C1 14.2611 1.69536 12.5823 2.9331 11.3446L11.7487 2.52997C12.1546 2.10973 12.6401 1.77453 13.1769 1.54393C13.7137 1.31333 14.2911 1.19195 14.8753 1.18687C15.4596 1.1818 16.0389 1.29312 16.5797 1.51436C17.1204 1.73559 17.6117 2.06231 18.0248 2.47543C18.438 2.88856 18.7647 3.37982 18.9859 3.92057C19.2071 4.46131 19.3185 5.0407 19.3134 5.62492C19.3083 6.20915 19.1869 6.78652 18.9563 7.32333C18.7257 7.86015 18.3905 8.34566 17.9703 8.75155L9.15565 17.5711C8.74079 17.9719 8.18511 18.1937 7.60827 18.1888C7.03144 18.1839 6.47962 17.9526 6.07166 17.5448C5.6637 17.1369 5.43224 16.5852 5.42714 16.0083C5.42204 15.4315 5.6437 14.8758 6.04438 14.4608L14.86 5.64222" stroke="#767676" stroke-width="1.5" stroke-linecap="round" stroke-linejoin="round"/>
</svg>
