<svg width="24" height="24" viewBox="0 0 24 24" fill="none" xmlns="http://www.w3.org/2000/svg">
<path fill-rule="evenodd" clip-rule="evenodd" d="M2.75 3.75C2.75 2.50736 3.75736 1.5 5 1.5C6.24264 1.5 7.25 2.50736 7.25 3.75C7.25 4.99264 6.24264 6 5 6C3.75736 6 2.75 4.99264 2.75 3.75ZM5.75 7.42499C7.46168 7.07753 8.75 5.56422 8.75 3.75C8.75 1.67893 7.07107 0 5 0C2.92893 0 1.25 1.67893 1.25 3.75C1.25 5.56422 2.53832 7.07753 4.25 7.42499V11.25C4.25 11.8467 4.48705 12.419 4.90901 12.841C5.33097 13.2629 5.90326 13.5 6.5 13.5H8C8.19891 13.5 8.38968 13.579 8.53033 13.7197C8.67098 13.8603 8.75 14.0511 8.75 14.25V18.75C8.75 19.3467 8.98705 19.919 9.40901 20.341C9.83097 20.7629 10.4033 21 11 21H14C14.4142 21 14.75 20.6642 14.75 20.25C14.75 19.8358 14.4142 19.5 14 19.5H11C10.8011 19.5 10.6103 19.421 10.4697 19.2803C10.329 19.1397 10.25 18.9489 10.25 18.75V14.25C10.25 13.6533 10.0129 13.081 9.59099 12.659C9.16903 12.2371 8.59674 12 8 12H6.5C6.30109 12 6.11032 11.921 5.96967 11.7803C5.82902 11.6397 5.75 11.4489 5.75 11.25V7.42499ZM18.5 0C18.0858 0 17.75 0.335786 17.75 0.75V3.75V6.75C17.75 7.16421 18.0858 7.5 18.5 7.5C18.9142 7.5 19.25 7.16421 19.25 6.75V4.5H20C20.5967 4.5 21.169 4.26295 21.591 3.84099C22.0129 3.41903 22.25 2.84674 22.25 2.25C22.25 1.65326 22.0129 1.08097 21.591 0.65901C21.169 0.237053 20.5967 0 20 0H18.5ZM20 3H19.25V1.5H20C20.1989 1.5 20.3897 1.57902 20.5303 1.71967C20.671 1.86032 20.75 2.05109 20.75 2.25C20.75 2.44891 20.671 2.63968 20.5303 2.78033C20.3897 2.92098 20.1989 3 20 3ZM18.2827 9.03218C18.599 8.93641 18.9407 9.05898 19.124 9.33397L20.75 11.7729V9.75C20.75 9.33579 21.0858 9 21.5 9C21.9142 9 22.25 9.33579 22.25 9.75V14.25C22.25 14.5805 22.0337 14.872 21.7173 14.9678C21.401 15.0636 21.0593 14.941 20.876 14.666L19.25 12.2271V14.25C19.25 14.6642 18.9142 15 18.5 15C18.0858 15 17.75 14.6642 17.75 14.25V9.75C17.75 9.4195 17.9663 9.12795 18.2827 9.03218ZM17.9697 16.7197C18.1103 16.579 18.3011 16.5 18.5 16.5C19.4946 16.5 20.4484 16.8951 21.1517 17.5983C21.8549 18.3016 22.25 19.2554 22.25 20.25C22.25 21.2446 21.8549 22.1984 21.1517 22.9017C20.4484 23.6049 19.4946 24 18.5 24C18.3011 24 18.1103 23.921 17.9697 23.7803C17.829 23.6397 17.75 23.4489 17.75 23.25V17.25C17.75 17.0511 17.829 16.8603 17.9697 16.7197ZM19.25 22.3713C19.5634 22.2605 19.8514 22.0805 20.091 21.841C20.5129 21.419 20.75 20.8467 20.75 20.25C20.75 19.6533 20.5129 19.081 20.091 18.659C19.8514 18.4195 19.5634 18.2395 19.25 18.1287V22.3713Z" fill="#474445"/>
</svg>
