<svg width="24" height="24" viewBox="0 0 24 24" fill="none" xmlns="http://www.w3.org/2000/svg">
<path fill-rule="evenodd" clip-rule="evenodd" d="M10 1.25C9.58579 1.25 9.25 1.58579 9.25 2C9.25 2.41421 9.58579 2.75 10 2.75L14 2.75C14.4142 2.75 14.75 2.41421 14.75 2C14.75 1.58579 14.4142 1.25 14 1.25H10ZM5 3.75C4.58579 3.75 4.25 4.08579 4.25 4.5C4.25 4.91421 4.58579 5.25 5 5.25H12H19C19.4142 5.25 19.75 4.91421 19.75 4.5C19.75 4.08579 19.4142 3.75 19 3.75H12H5ZM0.25 17C0.25 16.0335 1.0335 15.25 2 15.25H4C4.9665 15.25 5.75 16.0335 5.75 17V18.75H12H18.25V17C18.25 16.0335 19.0335 15.25 20 15.25H22C22.9665 15.25 23.75 16.0335 23.75 17V22C23.75 22.9665 22.9665 23.75 22 23.75H20C19.0335 23.75 18.25 22.9665 18.25 22V20.25H12H5.75V22C5.75 22.9665 4.9665 23.75 4 23.75H2C1.0335 23.75 0.25 22.9665 0.25 22V17ZM19.75 22V19.5V17C19.75 16.8619 19.8619 16.75 20 16.75H22C22.1381 16.75 22.25 16.8619 22.25 17V22C22.25 22.1381 22.1381 22.25 22 22.25H20C19.8619 22.25 19.75 22.1381 19.75 22ZM4.25 17V19.5V22C4.25 22.1381 4.13807 22.25 4 22.25H2C1.86193 22.25 1.75 22.1381 1.75 22V17C1.75 16.8619 1.86193 16.75 2 16.75H4C4.13807 16.75 4.25 16.8619 4.25 17ZM10 21.25C9.58579 21.25 9.25 21.5858 9.25 22C9.25 22.4142 9.58579 22.75 10 22.75H14C14.4142 22.75 14.75 22.4142 14.75 22C14.75 21.5858 14.4142 21.25 14 21.25H10Z" fill="#767676"/>
</svg>
