<svg width="24" height="24" viewBox="0 0 24 24" fill="none" xmlns="http://www.w3.org/2000/svg">
<path d="M10 2L14 2" stroke="#71717A" stroke-width="1.5" stroke-linecap="round" stroke-linejoin="round"/>
<path d="M19 4.5H12H5" stroke="#71717A" stroke-width="1.5" stroke-linecap="round" stroke-linejoin="round"/>
<path d="M12 19.5H5M2 23H4C4.55228 23 5 22.5523 5 22V17C5 16.4477 4.55228 16 4 16H2C1.44772 16 1 16.4477 1 17V22C1 22.5523 1.44772 23 2 23Z" stroke="#71717A" stroke-width="1.5" stroke-linecap="round" stroke-linejoin="round"/>
<path d="M19 17C19 16.4477 19.4477 16 20 16H22C22.5523 16 23 16.4477 23 17V22C23 22.5523 22.5523 23 22 23H20C19.4477 23 19 22.5523 19 22V17Z" stroke="#71717A" stroke-width="1.5" stroke-linecap="round" stroke-linejoin="round"/>
<path d="M19 19.5H12H5" stroke="#71717A" stroke-width="1.5" stroke-linecap="round" stroke-linejoin="round"/>
<path d="M10 22H14" stroke="#71717A" stroke-width="1.5" stroke-linecap="round" stroke-linejoin="round"/>
</svg>
