<svg width="24" height="24" viewBox="0 0 24 24" fill="none" xmlns="http://www.w3.org/2000/svg">
<path d="M21.0647 12.6502L20.3303 12.8024L20.3303 12.8025L21.0647 12.6502ZM18.3169 10.5V11.25L18.3171 11.25L18.3169 10.5ZM5.68309 10.5L5.6829 11.25H5.68309V10.5ZM2.9353 12.6502L3.66968 12.8025L3.66969 12.8024L2.9353 12.6502ZM1.55301 19.3169L0.818632 19.1646L0.818623 19.1647L1.55301 19.3169ZM4.29986 22.5L4.29981 23.25H4.29986V22.5ZM19.7001 22.5V23.25H19.7002L19.7001 22.5ZM22.447 19.3169L23.1814 19.1647L23.1814 19.1646L22.447 19.3169ZM21.7991 12.498C21.6364 11.7129 21.1941 11.0138 20.5575 10.5157L19.6331 11.697C19.9988 11.9831 20.2418 12.3754 20.3303 12.8024L21.7991 12.498ZM20.5575 10.5157C19.9216 10.0181 19.1295 9.74979 18.3167 9.75L18.3171 11.25C18.8016 11.2499 19.2666 11.4102 19.6331 11.697L20.5575 10.5157ZM18.3169 9.75H5.68309V11.25H18.3169V9.75ZM5.68328 9.75C4.87054 9.74979 4.07841 10.0181 3.44252 10.5157L4.36693 11.697C4.73336 11.4102 5.19837 11.2499 5.6829 11.25L5.68328 9.75ZM3.44252 10.5157C2.80593 11.0138 2.36364 11.713 2.20091 12.498L3.66969 12.8024C3.75821 12.3754 4.00121 11.9831 4.36693 11.697L3.44252 10.5157ZM2.20092 12.498L0.818632 19.1646L2.28739 19.4692L3.66968 12.8025L2.20092 12.498ZM0.818623 19.1647C0.714899 19.6651 0.728938 20.1814 0.859527 20.6756L2.30976 20.2925C2.23847 20.0226 2.2309 19.7417 2.2874 19.4691L0.818623 19.1647ZM0.859527 20.6756C0.990085 21.1698 1.23327 21.6274 1.569 22.0165L2.70462 21.0365C2.51505 20.8168 2.38109 20.5624 2.30976 20.2925L0.859527 20.6756ZM1.569 22.0165C1.90461 22.4054 2.32415 22.716 2.79585 22.9283L3.41148 21.5604C3.13517 21.436 2.89432 21.2563 2.70462 21.0365L1.569 22.0165ZM2.79585 22.9283C3.26747 23.1405 3.78098 23.25 4.29981 23.25L4.29991 21.75C3.99141 21.75 3.68787 21.6848 3.41148 21.5604L2.79585 22.9283ZM4.29986 23.25H19.7001V21.75H4.29986V23.25ZM19.7002 23.25C20.219 23.25 20.7325 23.1405 21.2041 22.9283L20.5885 21.5604C20.3121 21.6848 20.0086 21.75 19.7001 21.75L19.7002 23.25ZM21.2041 22.9283C21.6758 22.716 22.0954 22.4054 22.431 22.0165L21.2954 21.0365C21.1057 21.2563 20.8648 21.436 20.5885 21.5604L21.2041 22.9283ZM22.431 22.0165C22.7667 21.6274 23.0099 21.1698 23.1405 20.6756L21.6902 20.2925C21.6189 20.5624 21.4849 20.8168 21.2954 21.0365L22.431 22.0165ZM23.1405 20.6756C23.2711 20.1814 23.2851 19.6651 23.1814 19.1647L21.7126 19.4691C21.7691 19.7417 21.7615 20.0226 21.6902 20.2925L23.1405 20.6756ZM23.1814 19.1646L21.7991 12.498L20.3303 12.8025L21.7126 19.4692L23.1814 19.1646Z" fill="#71717A"/>
<path d="M12 1.5V0.75V1.5ZM16.5 5.25H17.25H16.5ZM15.75 22.5C15.75 22.9142 16.0858 23.25 16.5 23.25C16.9142 23.25 17.25 22.9142 17.25 22.5H15.75ZM6.75 22.5C6.75 22.9142 7.08579 23.25 7.5 23.25C7.91421 23.25 8.25 22.9142 8.25 22.5H6.75ZM8.25 5.25C8.25 4.50307 8.60502 3.75213 9.29816 3.17452L8.33788 2.02218C7.34319 2.85109 6.75 4.00781 6.75 5.25H8.25ZM9.29816 3.17452C9.99529 2.59357 10.9657 2.25 12 2.25V0.75C10.6474 0.75 9.32858 1.1966 8.33788 2.02218L9.29816 3.17452ZM12 2.25C13.0343 2.25 14.0047 2.59357 14.7018 3.17452L15.6621 2.02218C14.6714 1.1966 13.3526 0.75 12 0.75V2.25ZM14.7018 3.17452C15.395 3.75213 15.75 4.50307 15.75 5.25H17.25C17.25 4.00781 16.6568 2.85109 15.6621 2.02218L14.7018 3.17452ZM8.25 22.5V5.25H6.75V22.5H8.25ZM15.75 5.25V22.5H17.25V5.25H15.75Z" fill="#71717A"/>
</svg>
