<svg width="24" height="24" viewBox="0 0 24 24" fill="none" xmlns="http://www.w3.org/2000/svg">
<path fill-rule="evenodd" clip-rule="evenodd" d="M11.6833 1.58637C11.8814 1.48187 12.1183 1.48187 12.3165 1.58637L20.8764 6.10148C21.1077 6.2235 21.2338 6.45336 21.2215 6.67984C21.0497 9.86073 20.1487 12.9527 18.5931 15.6877C17.0361 18.4254 14.8753 20.7142 12.304 22.3638C12.1183 22.4829 11.8814 22.4829 11.6957 22.3638C9.12448 20.7142 6.96366 18.4254 5.40662 15.6877C3.85106 12.9527 2.95006 9.86073 2.77821 6.67984C2.76598 6.45336 2.89208 6.2235 3.1234 6.10148L11.6833 1.58637ZM13.0163 0.259629C12.3802 -0.0758821 11.6195 -0.0758821 10.9835 0.259629L2.42358 4.77474C1.70534 5.15359 1.23472 5.91524 1.2804 6.76076C1.4646 10.1704 2.43044 13.489 4.10275 16.4293C5.77685 19.3728 8.10511 21.8423 10.8857 23.6263C11.565 24.0621 12.4348 24.0621 13.114 23.6263C15.8946 21.8423 18.2229 19.3728 19.897 16.4293C21.5693 13.489 22.5352 10.1704 22.7194 6.76076C22.765 5.91523 22.2944 5.15359 21.5762 4.77474L13.0163 0.259629ZM17.0302 9.53033C17.3231 9.23744 17.3231 8.76256 17.0302 8.46967C16.7373 8.17678 16.2624 8.17678 15.9695 8.46967L10.4999 13.9393L8.53021 11.9697C8.23732 11.6768 7.76244 11.6768 7.46955 11.9697C7.17666 12.2626 7.17666 12.7374 7.46955 13.0303L9.96955 15.5303C10.2624 15.8232 10.7373 15.8232 11.0302 15.5303L17.0302 9.53033Z" fill="#767676"/>
</svg>
