<svg width="24" height="24" viewBox="0 0 24 24" fill="none" xmlns="http://www.w3.org/2000/svg">
<path d="M4.7548 16.0585C3.14087 13.2208 2.20745 10.0155 2.02943 6.7203C2.00047 6.1843 2.29883 5.68854 2.77361 5.43811L11.3335 0.923C11.7506 0.702993 12.2494 0.702993 12.6665 0.923L21.2264 5.43811C21.7012 5.68854 21.9995 6.1843 21.9706 6.7203C21.7926 10.0155 20.8591 13.2208 19.2452 16.0585C17.6296 18.8991 15.3851 21.2782 12.7091 22.9951C12.2767 23.2725 11.7233 23.2725 11.2909 22.9951C8.61491 21.2782 6.37038 18.8991 4.7548 16.0585Z" stroke="#71717A" stroke-width="1.5" stroke-linecap="round" stroke-linejoin="round"/>
<path d="M8 12.5L10.5 15L16.5 9" stroke="#71717A" stroke-width="1.5" stroke-linecap="round" stroke-linejoin="round"/>
</svg>
