<svg width="24" height="24" viewBox="0 0 24 24" fill="none" xmlns="http://www.w3.org/2000/svg">
<rect x="4" y="6" width="19" height="12" rx="2" stroke="#767676" stroke-width="1.5"/>
<path d="M4 9H2C1.44772 9 1 9.44772 1 10V14C1 14.5523 1.44772 15 2 15H4" stroke="#767676" stroke-width="1.5"/>
<path d="M14.25 9C14.25 8.58579 13.9142 8.25 13.5 8.25C13.0858 8.25 12.75 8.58579 12.75 9H14.25ZM12.75 15C12.75 15.4142 13.0858 15.75 13.5 15.75C13.9142 15.75 14.25 15.4142 14.25 15H12.75ZM14.25 15V9H12.75V15H14.25Z" fill="#767676"/>
<path d="M19.75 9C19.75 8.58579 19.4142 8.25 19 8.25C18.5858 8.25 18.25 8.58579 18.25 9H19.75ZM18.25 15C18.25 15.4142 18.5858 15.75 19 15.75C19.4142 15.75 19.75 15.4142 19.75 15H18.25ZM19.75 15V9H18.25V15H19.75Z" fill="#767676"/>
</svg>
