<svg width="24" height="24" viewBox="0 0 24 24" fill="none" xmlns="http://www.w3.org/2000/svg">
<path d="M9 18.721C10.347 17.6479 12.0074 17.0436 13.729 17H23.229" stroke="#474445" stroke-width="1.5" stroke-linecap="round" stroke-linejoin="round"/>
<path d="M22.0377 7.26C22.1854 7.20838 22.3185 7.12213 22.426 7.00847C22.5335 6.89481 22.6122 6.75705 22.6554 6.60673C22.6987 6.45642 22.7054 6.29791 22.6748 6.1445C22.6442 5.99109 22.5773 5.84724 22.4797 5.725C21.2154 4.1454 19.4926 2.99651 17.5484 2.43646C15.6042 1.87641 13.5342 1.93274 11.6234 2.59769C9.71251 3.26264 8.05472 4.50353 6.8782 6.14954C5.70169 7.79556 5.06428 9.76577 5.05372 11.789C5.05306 11.9455 5.08993 12.0999 5.16123 12.2392C5.23253 12.3785 5.33618 12.4987 5.4635 12.5896C5.59083 12.6806 5.73811 12.7398 5.893 12.7621C6.04789 12.7844 6.20588 12.7693 6.35372 12.718L22.0377 7.26Z" stroke="#474445" stroke-width="1.5" stroke-linecap="round" stroke-linejoin="round"/>
<path d="M11.6244 2.598L10.9814 0.75" stroke="#474445" stroke-width="1.5" stroke-linecap="round" stroke-linejoin="round"/>
<path d="M14.1963 9.98901L17.0003 17" stroke="#474445" stroke-width="1.5" stroke-linecap="round" stroke-linejoin="round"/>
<path d="M0.75 22.25C1.56444 22.3508 2.3911 22.2684 3.16964 22.0089C3.94818 21.7494 4.65893 21.3193 5.25 20.75C5.67632 21.2222 6.19699 21.5997 6.77835 21.8581C7.35971 22.1164 7.98881 22.2499 8.625 22.2499C9.26119 22.2499 9.89029 22.1164 10.4716 21.8581C11.053 21.5997 11.5737 21.2222 12 20.75C12.4263 21.2222 12.947 21.5997 13.5284 21.8581C14.1097 22.1164 14.7388 22.2499 15.375 22.2499C16.0112 22.2499 16.6403 22.1164 17.2216 21.8581C17.803 21.5997 18.3237 21.2222 18.75 20.75C19.3411 21.3193 20.0518 21.7494 20.8304 22.0089C21.6089 22.2684 22.4356 22.3508 23.25 22.25" stroke="#474445" stroke-width="1.5" stroke-linecap="round" stroke-linejoin="round"/>
</svg>
