<svg width="24" height="24" viewBox="0 0 24 24" fill="none" xmlns="http://www.w3.org/2000/svg">
<path d="M9 18.721C10.347 17.6479 12.0074 17.0436 13.729 17H23.229M11.6236 2.59769C13.5345 1.93274 15.6045 1.87641 17.5487 2.43646C19.4929 2.99651 21.2157 4.1454 22.48 5.725C22.5776 5.84724 22.6445 5.99109 22.6751 6.1445C22.7056 6.29791 22.699 6.45641 22.6557 6.60673C22.6124 6.75705 22.5338 6.89481 22.4263 7.00847C22.3188 7.12213 22.1857 7.20838 22.038 7.26L6.354 12.718C6.20616 12.7693 6.04817 12.7844 5.89328 12.7621C5.73839 12.7398 5.59111 12.6806 5.46379 12.5896C5.33646 12.4987 5.23281 12.3785 5.16151 12.2392C5.09021 12.0999 5.05334 11.9455 5.054 11.789C5.06456 9.76577 5.70197 7.79556 6.87848 6.14954C8.055 4.50353 9.71279 3.26264 11.6236 2.59769ZM11.6236 2.59769L10.981 0.75M14.196 9.989L17 17M0.75 22.25C1.56444 22.3508 2.3911 22.2684 3.16964 22.0089C3.94818 21.7494 4.65893 21.3193 5.25 20.75C5.67632 21.2222 6.19699 21.5997 6.77835 21.8581C7.35971 22.1164 7.98881 22.2499 8.625 22.2499C9.26119 22.2499 9.89029 22.1164 10.4716 21.8581C11.053 21.5997 11.5737 21.2222 12 20.75C12.4263 21.2222 12.947 21.5997 13.5284 21.8581C14.1097 22.1164 14.7388 22.2499 15.375 22.2499C16.0112 22.2499 16.6403 22.1164 17.2216 21.8581C17.803 21.5997 18.3237 21.2222 18.75 20.75C19.3411 21.3193 20.0518 21.7494 20.8304 22.0089C21.6089 22.2684 22.4356 22.3508 23.25 22.25" stroke="#767676" stroke-width="1.5" stroke-linecap="round" stroke-linejoin="round"/>
</svg>
