<svg width="24" height="24" viewBox="0 0 24 24" fill="none" xmlns="http://www.w3.org/2000/svg">
<path d="M8.53267 18.1344C8.2087 18.3925 8.1553 18.8644 8.4134 19.1883C8.6715 19.5123 9.14336 19.5657 9.46733 19.3076L8.53267 18.1344ZM13.729 17V16.25C13.7227 16.25 13.7163 16.2501 13.71 16.2502L13.729 17ZM23.1914 17.75C23.6056 17.75 23.9414 17.4142 23.9414 17C23.9414 16.5858 23.6056 16.25 23.1914 16.25V17.75ZM9.46733 19.3076C10.6866 18.3362 12.1896 17.7893 13.748 17.7498L13.71 16.2502C11.8251 16.298 10.0074 16.9595 8.53267 18.1344L9.46733 19.3076ZM13.729 17.75H23.1914V16.25H13.729V17.75Z" fill="#767676"/>
<path d="M22.0377 7.26L22.2842 7.96834L22.2852 7.96799L22.0377 7.26ZM22.4797 5.725L23.0658 5.25704L23.0653 5.25634L22.4797 5.725ZM5.05372 11.789L4.30373 11.7851L4.30373 11.7858L5.05372 11.789ZM6.35372 12.718L6.59964 13.4265L6.60022 13.4263L6.35372 12.718ZM22.2852 7.96799C22.546 7.87683 22.7811 7.7245 22.971 7.52377L21.8811 6.49318C21.8559 6.51976 21.8248 6.53994 21.7902 6.55201L22.2852 7.96799ZM22.971 7.52377C23.1608 7.32303 23.2997 7.07974 23.3762 6.81426L21.9347 6.39921C21.9246 6.43436 21.9062 6.46659 21.8811 6.49318L22.971 7.52377ZM23.3762 6.81426C23.4526 6.54878 23.4643 6.26885 23.4103 5.99792L21.9392 6.29108C21.9464 6.32697 21.9448 6.36405 21.9347 6.39921L23.3762 6.81426ZM23.4103 5.99792C23.3563 5.72699 23.2382 5.47294 23.0658 5.25704L21.8936 6.19296C21.9164 6.22155 21.9321 6.2552 21.9392 6.29108L23.4103 5.99792ZM23.0653 5.25634C21.7041 3.55568 19.8492 2.31874 17.756 1.71577L17.3408 3.15715C19.136 3.67428 20.7268 4.73513 21.8942 6.19366L23.0653 5.25634ZM17.756 1.71577C15.6628 1.11279 13.4342 1.17344 11.3769 1.88935L11.8699 3.30603C13.6343 2.69204 15.5456 2.64003 17.3408 3.15715L17.756 1.71577ZM11.3769 1.88935C9.31957 2.60527 7.53473 3.94125 6.26804 5.71342L7.48837 6.58567C8.57471 5.0658 10.1054 3.92002 11.8699 3.30603L11.3769 1.88935ZM6.26804 5.71342C5.00136 7.48558 4.3151 9.6068 4.30373 11.7851L5.80371 11.7929C5.81346 9.92475 6.40202 8.10553 7.48837 6.58567L6.26804 5.71342ZM4.30373 11.7858C4.30256 12.0622 4.36767 12.3348 4.49359 12.5809L5.82886 11.8975C5.81218 11.8649 5.80356 11.8288 5.80371 11.7922L4.30373 11.7858ZM4.49359 12.5809C4.61951 12.8269 4.80258 13.0392 5.02744 13.1999L5.89957 11.9794C5.86978 11.9582 5.84554 11.93 5.82886 11.8975L4.49359 12.5809ZM5.02744 13.1999C5.25231 13.3605 5.51242 13.465 5.78597 13.5044L6.00003 12.0198C5.9638 12.0146 5.92935 12.0007 5.89957 11.9794L5.02744 13.1999ZM5.78597 13.5044C6.05952 13.5439 6.33854 13.5172 6.59964 13.4265L6.1078 12.0095C6.07322 12.0215 6.03626 12.025 6.00003 12.0198L5.78597 13.5044ZM6.60022 13.4263L22.2842 7.96834L21.7912 6.55167L6.10722 12.0097L6.60022 13.4263Z" fill="#767676"/>
<path d="M14.8927 9.71051C14.7388 9.32591 14.3024 9.13883 13.9178 9.29264C13.5332 9.44646 13.3461 9.88293 13.4999 10.2675L14.8927 9.71051ZM16.3039 17.2785C16.4577 17.6631 16.8942 17.8502 17.2788 17.6964C17.6634 17.5426 17.8505 17.1061 17.6966 16.7215L16.3039 17.2785ZM13.4999 10.2675L16.3039 17.2785L17.6966 16.7215L14.8927 9.71051L13.4999 10.2675Z" fill="#767676"/>
<path d="M0.842122 21.5057C0.431045 21.4548 0.0565565 21.7468 0.00567913 22.1579C-0.0451983 22.569 0.246801 22.9434 0.657878 22.9943L0.842122 21.5057ZM5.25 20.75L5.80669 20.2474C5.67058 20.0966 5.47915 20.0075 5.27616 20.0005C5.07318 19.9934 4.876 20.0689 4.72971 20.2098L5.25 20.75ZM12 20.75L12.5567 20.2474C12.4145 20.0899 12.2122 20 12 20C11.7878 20 11.5855 20.0899 11.4433 20.2474L12 20.75ZM18.75 20.75L19.2703 20.2098C19.124 20.0689 18.9268 19.9934 18.7238 20.0005C18.5209 20.0075 18.3294 20.0966 18.1933 20.2474L18.75 20.75ZM20.8304 22.0089L21.0675 21.2974L20.8304 22.0089ZM23.2872 23.0009C23.6987 22.9536 23.994 22.5817 23.9467 22.1702C23.8995 21.7587 23.5276 21.4634 23.1161 21.5107L23.2872 23.0009ZM0.657878 22.9943C1.58315 23.1088 2.52232 23.0153 3.40681 22.7204L2.93247 21.2974C2.25989 21.5216 1.54572 21.5928 0.842122 21.5057L0.657878 22.9943ZM3.40681 22.7204C4.2913 22.4256 5.09878 21.937 5.77029 21.2902L4.72971 20.2098C4.21908 20.7016 3.60506 21.0732 2.93247 21.2974L3.40681 22.7204ZM4.69331 21.2526C5.18996 21.8027 5.79651 22.2424 6.47376 22.5434L7.08295 21.1727C6.59748 20.957 6.16269 20.6417 5.80669 20.2474L4.69331 21.2526ZM6.47376 22.5434C7.15101 22.8444 7.88388 22.9999 8.625 22.9999V21.4999C8.09375 21.4999 7.56841 21.3885 7.08295 21.1727L6.47376 22.5434ZM8.625 22.9999C9.36612 22.9999 10.099 22.8444 10.7762 22.5434L10.1671 21.1727C9.68159 21.3885 9.15625 21.4999 8.625 21.4999V22.9999ZM10.7762 22.5434C11.4535 22.2424 12.06 21.8027 12.5567 21.2526L11.4433 20.2474C11.0873 20.6417 10.6525 20.957 10.1671 21.1727L10.7762 22.5434ZM11.4433 21.2526C11.94 21.8027 12.5465 22.2424 13.2238 22.5434L13.8329 21.1727C13.3475 20.957 12.9127 20.6417 12.5567 20.2474L11.4433 21.2526ZM13.2238 22.5434C13.901 22.8444 14.6339 22.9999 15.375 22.9999V21.4999C14.8437 21.4999 14.3184 21.3885 13.8329 21.1727L13.2238 22.5434ZM15.375 22.9999C16.1161 22.9999 16.849 22.8444 17.5262 22.5434L16.9171 21.1727C16.4316 21.3885 15.9063 21.4999 15.375 21.4999V22.9999ZM17.5262 22.5434C18.2035 22.2424 18.81 21.8027 19.3067 21.2526L18.1933 20.2474C17.8373 20.6417 17.4025 20.957 16.9171 21.1727L17.5262 22.5434ZM18.2297 21.2902C18.9012 21.937 19.7087 22.4256 20.5932 22.7204L21.0675 21.2974C20.3949 21.0732 19.7809 20.7016 19.2703 20.2098L18.2297 21.2902ZM20.5932 22.7204C21.4602 23.0094 22.3797 23.1051 23.2872 23.0009L23.1161 21.5107C22.426 21.5899 21.7268 21.5172 21.0675 21.2974L20.5932 22.7204Z" fill="#767676"/>
<path d="M10.9147 2.84407C11.0508 3.2353 11.4783 3.44214 11.8695 3.30606C12.2607 3.16999 12.4676 2.74253 12.3315 2.35131L10.9147 2.84407ZM11.6888 0.503619C11.5528 0.112393 11.1253 -0.0944484 10.7341 0.0416242C10.3429 0.177697 10.136 0.605156 10.2721 0.996381L11.6888 0.503619ZM12.3315 2.35131L11.6888 0.503619L10.2721 0.996381L10.9147 2.84407L12.3315 2.35131Z" fill="#767676"/>
</svg>
