<svg width="24" height="24" viewBox="0 0 24 24" fill="none" xmlns="http://www.w3.org/2000/svg">
<path fill-rule="evenodd" clip-rule="evenodd" d="M3 1.5C2.58579 1.5 2.25 1.83579 2.25 2.25V7.5H3.87803C3.79512 7.26542 3.75 7.01298 3.75 6.75V5.25C3.75 4.00736 4.75736 3 6 3H9C10.2426 3 11.25 4.00736 11.25 5.25V6.75C11.25 7.01298 11.2049 7.26542 11.122 7.5H12.878C12.7951 7.26542 12.75 7.01298 12.75 6.75V5.25C12.75 4.00736 13.7574 3 15 3H18C19.2426 3 20.25 4.00736 20.25 5.25V6.75C20.25 7.01298 20.2049 7.26542 20.122 7.5H21.75V2.25C21.75 1.83579 21.4142 1.5 21 1.5H3ZM0.75 2.25V8.25V12.75V21.75C0.75 22.9926 1.75736 24 3 24H21C22.2426 24 23.25 22.9926 23.25 21.75V12.75V8.25V2.25C23.25 1.00736 22.2426 0 21 0H3C1.75736 0 0.75 1.00736 0.75 2.25ZM21.75 12V9H18H15H9H6H2.25V12H21.75ZM2.25 13.5H21.75V21.75C21.75 22.1642 21.4142 22.5 21 22.5H3C2.58579 22.5 2.25 22.1642 2.25 21.75V13.5ZM9 7.5H6C5.58579 7.5 5.25 7.16421 5.25 6.75V5.25C5.25 4.83579 5.58579 4.5 6 4.5H9C9.41421 4.5 9.75 4.83579 9.75 5.25V6.75C9.75 7.16421 9.41421 7.5 9 7.5ZM18 7.5H15C14.5858 7.5 14.25 7.16421 14.25 6.75V5.25C14.25 4.83579 14.5858 4.5 15 4.5H18C18.4142 4.5 18.75 4.83579 18.75 5.25V6.75C18.75 7.16421 18.4142 7.5 18 7.5Z" fill="#474445"/>
</svg>
