<svg width="24" height="24" viewBox="0 0 24 24" fill="none" xmlns="http://www.w3.org/2000/svg">
<g clip-path="url(#clip0)">
<path fill-rule="evenodd" clip-rule="evenodd" d="M12.4064 0.369572C12.159 0.210143 11.8412 0.210143 11.5938 0.369572L0.343815 7.61957C-0.00436137 7.84395 -0.104718 8.3081 0.119662 8.65628C0.344042 9.00445 0.808191 9.10481 1.15637 8.88043L12.0001 1.89225L22.8438 8.88043C23.192 9.10481 23.6561 9.00445 23.8805 8.65628C24.1049 8.3081 24.0045 7.84395 23.6564 7.61957L12.4064 0.369572ZM3.00009 12.75C3.00009 12.3358 2.6643 12 2.25009 12C1.83588 12 1.50009 12.3358 1.50009 12.75V14.25V18.75V23.25C1.50009 23.6642 1.83588 24 2.25009 24H21.7501C22.1643 24 22.5001 23.6642 22.5001 23.25V18.75V17.25C22.5001 16.2554 22.105 15.3016 21.4017 14.5983C20.6985 13.8951 19.7446 13.5 18.7501 13.5H14.0311H14.0311C13.056 13.5 12.1002 13.7716 11.2708 14.2843C10.4415 14.797 9.77123 15.5305 9.33527 16.4026L9.33523 16.4027L8.99627 17.0806C8.95411 16.1477 8.56497 15.2616 7.90174 14.5983C7.19848 13.8951 6.24465 13.5 5.25009 13.5H3.00009V12.75ZM10.2136 18H21.0001V17.25C21.0001 16.6533 20.763 16.081 20.3411 15.659C19.9191 15.2371 19.3468 15 18.7501 15H14.0311H14.0311C13.3346 15 12.6519 15.194 12.0595 15.5602C11.4671 15.9264 10.9883 16.4504 10.6769 17.0733L10.6769 17.0734L10.2136 18ZM9.00009 19.5H8.25009H3.00009V22.5H21.0001V19.5H9.00009ZM7.50009 17.25V18H3.00009V15H5.25009C5.84683 15 6.41912 15.2371 6.84108 15.659C7.26304 16.081 7.50009 16.6533 7.50009 17.25Z" fill="#474445"/>
</g>
<defs>
<clipPath id="clip0">
<rect width="24" height="24" fill="white"/>
</clipPath>
</defs>
</svg>
