<svg width="24" height="24" viewBox="0 0 24 24" fill="none" xmlns="http://www.w3.org/2000/svg">
<path fill-rule="evenodd" clip-rule="evenodd" d="M12 0C12.4142 0 12.75 0.335786 12.75 0.75V2.28437C16.9907 2.67507 20.25 6.34424 20.25 10.619C20.25 14.1514 20.6208 16.1654 20.9659 17.2701C21.1378 17.8204 21.3009 18.1373 21.4028 18.3015C21.4536 18.3833 21.4891 18.427 21.5028 18.4429L21.5056 18.4461C21.7277 18.6486 21.8083 18.9659 21.7066 19.2516C21.6002 19.5504 21.3172 19.75 21 19.75H3C2.71415 19.75 2.45316 19.5875 2.327 19.331C2.20242 19.0777 2.23071 18.7763 2.39943 18.5508L2.40074 18.5489C2.40465 18.5433 2.41398 18.5295 2.42801 18.507C2.45604 18.4621 2.50292 18.382 2.56272 18.2616C2.68227 18.021 2.85394 17.6185 3.02977 17.0133C3.3816 15.8021 3.75 13.779 3.75 10.619C3.75 6.37222 7.03677 2.68086 11.25 2.28508V0.75C11.25 0.335786 11.5858 0 12 0ZM12 3.75C8.29679 3.75 5.25 6.9163 5.25 10.619C5.25 13.8937 4.8684 16.061 4.47023 17.4317C4.37927 17.7448 4.28744 18.0164 4.19911 18.25H19.7195C19.6577 18.0908 19.5955 17.9138 19.5341 17.7173C19.1292 16.421 18.75 14.2445 18.75 10.619C18.75 6.8877 15.7361 3.75 12 3.75ZM9.78875 21.0304C10.1862 20.9137 10.603 21.1413 10.7196 21.5387C10.8838 22.0979 11.4198 22.4992 12.0025 22.4992C12.5852 22.4992 13.1212 22.0979 13.2854 21.5387C13.402 21.1413 13.8188 20.9137 14.2163 21.0304C14.6137 21.147 14.8413 21.5638 14.7246 21.9613C14.373 23.1591 13.2509 23.9992 12.0025 23.9992C10.7541 23.9992 9.63201 23.1591 9.28037 21.9613C9.16369 21.5638 9.3913 21.147 9.78875 21.0304Z" fill="#474445"/>
</svg>
