<svg width="24" height="24" viewBox="0 0 24 24" fill="none" xmlns="http://www.w3.org/2000/svg">
<path fill-rule="evenodd" clip-rule="evenodd" d="M12 0C12.4142 0 12.75 0.335786 12.75 0.75V2.28463C14.6663 2.462 16.4689 3.31485 17.8378 4.70543C19.3836 6.27581 20.25 8.40322 20.25 10.619C20.25 14.1514 20.6208 16.1654 20.9659 17.2701C21.1378 17.8204 21.3009 18.1373 21.4028 18.3015C21.4536 18.3833 21.4891 18.427 21.5028 18.4429L21.5056 18.4461C21.7277 18.6486 21.8083 18.9659 21.7066 19.2516C21.6002 19.5504 21.3172 19.75 21 19.75H3C2.71415 19.75 2.45316 19.5875 2.327 19.331C2.20242 19.0777 2.23071 18.7763 2.39943 18.5508L2.40073 18.5489C2.40465 18.5433 2.41398 18.5295 2.42801 18.507C2.45604 18.4621 2.50292 18.382 2.56272 18.2616C2.68227 18.021 2.85394 17.6185 3.02977 17.0133C3.3816 15.8021 3.75 13.779 3.75 10.619C3.75 8.40322 4.61637 6.27581 6.16221 4.70543C7.53106 3.31485 9.33367 2.462 11.25 2.28463V0.75C11.25 0.335786 11.5858 0 12 0ZM12 3.75C10.2136 3.75 8.498 4.47078 7.23119 5.75771C5.96398 7.04503 5.25 8.79349 5.25 10.619C5.25 13.8937 4.8684 16.061 4.47023 17.4317C4.37927 17.7448 4.28744 18.0164 4.19911 18.25H19.7195C19.6577 18.0908 19.5955 17.9138 19.5341 17.7173C19.1292 16.421 18.75 14.2445 18.75 10.619C18.75 8.79349 18.036 7.04503 16.7688 5.75771C15.502 4.47078 13.7864 3.75 12 3.75ZM9.78875 21.0304C10.1862 20.9137 10.603 21.1413 10.7196 21.5387C10.801 21.8159 10.97 22.0593 11.2012 22.2325C11.4325 22.4056 11.7136 22.4992 12.0025 22.4992C12.2914 22.4992 12.5725 22.4056 12.8038 22.2325C13.035 22.0593 13.204 21.8159 13.2854 21.5387C13.402 21.1413 13.8188 20.9137 14.2163 21.0304C14.6137 21.147 14.8413 21.5638 14.7246 21.9613C14.552 22.5494 14.1934 23.0659 13.7027 23.4332C13.212 23.8006 12.6155 23.9992 12.0025 23.9992C11.3895 23.9992 10.793 23.8006 10.3023 23.4332C9.81156 23.0659 9.45303 22.5494 9.28037 21.9613C9.16369 21.5638 9.3913 21.147 9.78875 21.0304Z" fill="#474445"/>
</svg>
