<svg width="24" height="24" viewBox="0 0 24 24" fill="none" xmlns="http://www.w3.org/2000/svg">
<path fill-rule="evenodd" clip-rule="evenodd" d="M11.0921 2.46046C11.3464 2.1335 11.2875 1.66229 10.9606 1.40799C10.6336 1.15369 10.1624 1.21259 9.9081 1.53955L6.6333 5.75H1.75907C0.915962 5.75 0.356381 6.62335 0.708714 7.38931C2.42187 11.1137 6.14628 13.5 10.2458 13.5H22.1252C22.5394 13.5 22.8752 13.1642 22.8752 12.75V8C22.8752 7.58579 22.5394 7.25 22.1252 7.25H19.8108L18.5304 5.96967C18.3898 5.82902 18.199 5.75 18.0001 5.75H8.5336L11.0921 2.46046ZM10.2458 12C6.91438 12 3.87198 10.1614 2.31377 7.25H7.00012H17.6895L18.9698 8.53033C19.1104 8.67099 19.3012 8.75 19.5001 8.75H21.3752V12H10.2458ZM3.99956 17.5255C4.2898 17.23 4.28552 16.7552 3.99 16.4649C3.69448 16.1747 3.21963 16.179 2.92939 16.4745L0.9651 18.4745C0.678548 18.7662 0.678548 19.2338 0.9651 19.5255L2.92939 21.5255C3.21963 21.8211 3.69448 21.8253 3.99 21.5351C4.28552 21.2448 4.2898 20.77 3.99956 20.4745L3.28803 19.75H20.7123L20.0008 20.4745C19.7106 20.77 19.7148 21.2448 20.0104 21.5351C20.3059 21.8253 20.7807 21.8211 21.071 21.5255L23.0353 19.5255C23.3218 19.2338 23.3218 18.7662 23.0353 18.4745L21.071 16.4745C20.7807 16.179 20.3059 16.1747 20.0104 16.4649C19.7148 16.7552 19.7106 17.23 20.0008 17.5255L20.7123 18.25H3.28803L3.99956 17.5255Z" fill="#474445"/>
</svg>
