<svg width="24" height="25" viewBox="0 0 24 25" fill="none" xmlns="http://www.w3.org/2000/svg">
<path d="M12 23.25C18.2132 23.25 23.25 18.2132 23.25 12C23.25 5.7868 18.2132 0.75 12 0.75C5.7868 0.75 0.75 5.7868 0.75 12C0.75 18.2132 5.7868 23.25 12 23.25Z" stroke="#71717A" stroke-width="1.5" stroke-linecap="round" stroke-linejoin="round"/>
<path d="M13.3337 6.00201L8.07871 12.1202C8.03772 12.1688 8.01144 12.228 8.00298 12.2909C7.99451 12.3539 8.0042 12.4179 8.03091 12.4755C8.05763 12.5332 8.10025 12.5819 8.15376 12.6162C8.20727 12.6504 8.26945 12.6686 8.33297 12.6687H10.6666V18.002L15.9216 11.8847C15.9624 11.8361 15.9886 11.7768 15.9971 11.7139C16.0055 11.6509 15.9958 11.5868 15.9691 11.5292C15.9424 11.4716 15.8999 11.4227 15.8464 11.3884C15.793 11.354 15.7308 11.3356 15.6673 11.3353H13.3337V6.00201Z" stroke="#71717A" stroke-width="1.5" stroke-linecap="round" stroke-linejoin="round"/>
</svg>
