<svg width="24" height="24" viewBox="0 0 24 24" fill="none" xmlns="http://www.w3.org/2000/svg">
<g clip-path="url(#clip0_148_204)">
<path d="M12 23.248C18.2132 23.248 23.25 18.2112 23.25 11.998C23.25 5.78478 18.2132 0.747986 12 0.747986C5.7868 0.747986 0.75 5.78478 0.75 11.998C0.75 18.2112 5.7868 23.248 12 23.248Z" stroke="#767676" stroke-width="1.5" stroke-linecap="round" stroke-linejoin="round"/>
<path d="M13.3337 6L8.07871 12.1182C8.03772 12.1667 8.01144 12.226 8.00298 12.2889C7.99451 12.3518 8.0042 12.4159 8.03091 12.4735C8.05763 12.5311 8.10025 12.5799 8.15376 12.6141C8.20727 12.6484 8.26945 12.6666 8.33297 12.6667H10.6666V18L15.9216 11.8827C15.9624 11.8341 15.9886 11.7748 15.9971 11.7118C16.0055 11.6489 15.9958 11.5848 15.9691 11.5272C15.9424 11.4695 15.8999 11.4207 15.8464 11.3864C15.793 11.352 15.7308 11.3336 15.6673 11.3333H13.3337V6Z" stroke="#767676" stroke-width="1.5" stroke-linecap="round" stroke-linejoin="round"/>
</g>
<defs>
<clipPath id="clip0_148_204">
<rect width="24" height="24" fill="white"/>
</clipPath>
</defs>
</svg>
