<svg width="24" height="24" viewBox="0 0 24 24" fill="none" xmlns="http://www.w3.org/2000/svg">
<g clip-path="url(#clip0)">
<path fill-rule="evenodd" clip-rule="evenodd" d="M1.5 11.998C1.5 6.199 6.20101 1.49799 12 1.49799C17.799 1.49799 22.5 6.199 22.5 11.998C22.5 17.797 17.799 22.498 12 22.498C6.20101 22.498 1.5 17.797 1.5 11.998ZM12 -0.00201416C5.37258 -0.00201416 0 5.37057 0 11.998C0 18.6254 5.37258 23.998 12 23.998C18.6274 23.998 24 18.6254 24 11.998C24 5.37057 18.6274 -0.00201416 12 -0.00201416ZM14.0837 6C14.0837 5.68628 13.8884 5.40571 13.5942 5.29672C13.3 5.18773 12.9691 5.27334 12.7647 5.51133L7.50976 11.6296L7.50974 11.6295L7.50582 11.6342C7.3726 11.7919 7.28719 11.9843 7.25967 12.1889C7.23215 12.3935 7.26366 12.6017 7.35048 12.789C7.4373 12.9762 7.57582 13.1348 7.74971 13.246C7.92361 13.3572 8.12565 13.4164 8.33204 13.4167H8.33297H9.91662V18C9.91662 18.3137 10.1119 18.5943 10.406 18.7033C10.7002 18.8123 11.0311 18.7267 11.2355 18.4887L16.4905 12.3714L16.4905 12.3714L16.4955 12.3654C16.6282 12.2077 16.7131 12.0155 16.7404 11.8112C16.7677 11.607 16.7363 11.3992 16.6497 11.2122C16.5632 11.0251 16.4251 10.8667 16.2517 10.7553C16.0784 10.644 15.8769 10.5843 15.6708 10.5833V10.5833H15.6673H14.0837V6ZM10.6666 11.9167H9.24049L12.5837 8.02429V11.3333C12.5837 11.7475 12.9194 12.0833 13.3337 12.0833H14.7605L11.4166 15.9759V12.6667C11.4166 12.2525 11.0808 11.9167 10.6666 11.9167Z" fill="#474445"/>
</g>
<defs>
<clipPath id="clip0">
<rect width="24" height="24" fill="white"/>
</clipPath>
</defs>
</svg>
