<svg width="24" height="24" viewBox="0 0 24 24" fill="none" xmlns="http://www.w3.org/2000/svg">
<path fill-rule="evenodd" clip-rule="evenodd" d="M2.25 1C2.25 0.585786 2.58579 0.25 3 0.25H21C21.4142 0.25 21.75 0.585786 21.75 1V22.25H23C23.4142 22.25 23.75 22.5858 23.75 23C23.75 23.4142 23.4142 23.75 23 23.75H21.0017L21 23.75L20.9983 23.75H15H9H3.00171L3 23.75L2.99829 23.75H1C0.585786 23.75 0.25 23.4142 0.25 23C0.25 22.5858 0.585786 22.25 1 22.25H2.25V1ZM3.75 22.25H8.25V19C8.25 18.0335 9.0335 17.25 10 17.25H14C14.9665 17.25 15.75 18.0335 15.75 19V22.25H20.25V1.75H3.75V22.25ZM14.25 22.25V19C14.25 18.8619 14.1381 18.75 14 18.75H10C9.86193 18.75 9.75 18.8619 9.75 19V22.25H14.25ZM6.25 5C6.25 4.58579 6.58579 4.25 7 4.25H10C10.4142 4.25 10.75 4.58579 10.75 5C10.75 5.41421 10.4142 5.75 10 5.75H7C6.58579 5.75 6.25 5.41421 6.25 5ZM7 8.25C6.58579 8.25 6.25 8.58579 6.25 9C6.25 9.41421 6.58579 9.75 7 9.75H10C10.4142 9.75 10.75 9.41421 10.75 9C10.75 8.58579 10.4142 8.25 10 8.25H7ZM13.25 9C13.25 8.58579 13.5858 8.25 14 8.25H17C17.4142 8.25 17.75 8.58579 17.75 9C17.75 9.41421 17.4142 9.75 17 9.75H14C13.5858 9.75 13.25 9.41421 13.25 9ZM14 12.25C13.5858 12.25 13.25 12.5858 13.25 13C13.25 13.4142 13.5858 13.75 14 13.75H17C17.4142 13.75 17.75 13.4142 17.75 13C17.75 12.5858 17.4142 12.25 17 12.25H14ZM6.25 13C6.25 12.5858 6.58579 12.25 7 12.25H10C10.4142 12.25 10.75 12.5858 10.75 13C10.75 13.4142 10.4142 13.75 10 13.75H7C6.58579 13.75 6.25 13.4142 6.25 13ZM14 4.25C13.5858 4.25 13.25 4.58579 13.25 5C13.25 5.41421 13.5858 5.75 14 5.75H17C17.4142 5.75 17.75 5.41421 17.75 5C17.75 4.58579 17.4142 4.25 17 4.25H14Z" fill="#474445"/>
</svg>
