<svg width="24" height="24" viewBox="0 0 24 24" fill="none" xmlns="http://www.w3.org/2000/svg">
<path fill-rule="evenodd" clip-rule="evenodd" d="M12.75 0.75C12.75 0.335786 12.4142 0 12 0C11.5858 0 11.25 0.335786 11.25 0.75V2.25C11.25 2.66421 11.5858 3 12 3C12.4142 3 12.75 2.66421 12.75 2.25V0.75ZM5.57825 15.1715C6.23502 16.246 7.15567 17.1318 8.25 17.7465V19.5C8.25 20.0967 8.48705 20.669 8.90901 21.091C9.33097 21.5129 9.90326 21.75 10.5 21.75H11.25V23.25C11.25 23.6642 11.5858 24 12 24C12.4142 24 12.75 23.6642 12.75 23.25V21.75H13.5C14.0967 21.75 14.669 21.5129 15.091 21.091C15.5129 20.669 15.75 20.0967 15.75 19.5V17.7466C16.845 17.1315 17.7662 16.245 18.423 15.1696C19.1452 13.9874 19.5185 12.6252 19.5 11.24L19.4999 11.2367C19.4649 9.26208 18.6649 7.37813 17.2684 5.98164C15.8719 4.58516 13.988 3.78515 12.0134 3.75012C12.0045 3.74996 11.9956 3.74996 11.9867 3.75012C10.0114 3.78518 8.12677 4.58581 6.73017 5.98324C5.33356 7.38067 4.53406 9.26574 4.50016 11.2411H4.50015L4.50011 11.2444C4.48244 12.6289 4.85617 13.9901 5.57825 15.1715ZM13.5 20.25C13.6989 20.25 13.8897 20.171 14.0303 20.0303C14.171 19.8897 14.25 19.6989 14.25 19.5V18H12H9.75V19.5C9.75 19.6989 9.82902 19.8897 9.96967 20.0303C10.1103 20.171 10.3011 20.25 10.5 20.25H12H13.5ZM9.09656 16.5H11.25V13.8107L9.21967 11.7803C8.92678 11.4874 8.92678 11.0126 9.21967 10.7197C9.51256 10.4268 9.98744 10.4268 10.2803 10.7197L12 12.4393L13.7197 10.7197C14.0126 10.4268 14.4874 10.4268 14.7803 10.7197C15.0732 11.0126 15.0732 11.4874 14.7803 11.7803L12.75 13.8107V16.5H14.9035C15.8243 16.009 16.5979 15.28 17.143 14.3877C17.7174 13.4472 18.0146 12.3635 18.0001 11.2616C17.9716 9.67613 17.329 8.16359 16.2077 7.0423C15.0892 5.92375 13.5813 5.28162 12.0001 5.25013C10.4182 5.28165 8.90979 5.92427 7.79114 7.04358C6.66974 8.16565 6.02761 9.67912 5.99997 11.2652C5.98622 12.3665 6.28366 13.4494 6.8581 14.3892C7.40308 15.2808 8.17636 16.0092 9.09656 16.5ZM0.75 11.25C0.75 10.8358 1.08579 10.5 1.5 10.5H3C3.41421 10.5 3.75 10.8358 3.75 11.25C3.75 11.6642 3.41421 12 3 12H1.5C1.08579 12 0.75 11.6642 0.75 11.25ZM4.26965 3.20921C3.97098 2.92221 3.4962 2.93167 3.20921 3.23035C2.92221 3.52902 2.93167 4.0038 3.23035 4.29079L4.33035 5.3478C4.62902 5.63479 5.1038 5.62533 5.39079 5.32665C5.67779 5.02798 5.66833 4.5532 5.36965 4.26621L4.26965 3.20921ZM20.25 11.25C20.25 10.8358 20.5858 10.5 21 10.5H22.5C22.9142 10.5 23.25 10.8358 23.25 11.25C23.25 11.6642 22.9142 12 22.5 12H21C20.5858 12 20.25 11.6642 20.25 11.25ZM20.7696 4.29079C21.0682 4.0038 21.0777 3.52902 20.7907 3.23035C20.5037 2.93167 20.0289 2.92221 19.7302 3.20921L18.6302 4.26621C18.3316 4.5532 18.3221 5.02798 18.6091 5.32665C18.8961 5.62533 19.3709 5.63479 19.6696 5.3478L20.7696 4.29079Z" fill="#767676"/>
</svg>
