<svg width="24" height="24" viewBox="0 0 24 24" fill="none" xmlns="http://www.w3.org/2000/svg">
<g clip-path="url(#clip0_964:35)">
<path fill-rule="evenodd" clip-rule="evenodd" d="M2.25 1.50299C1.83579 1.50299 1.5 1.83878 1.5 2.25299V3.75299C1.5 4.1672 1.83579 4.50299 2.25 4.50299H21.75C22.1642 4.50299 22.5 4.1672 22.5 3.75299V2.25299C22.5 1.83878 22.1642 1.50299 21.75 1.50299H2.25ZM0 2.25299C0 1.01035 1.00736 0.00299072 2.25 0.00299072H21.75C22.9926 0.00299072 24 1.01035 24 2.25299V3.75299C24 4.99563 22.9926 6.00299 21.75 6.00299H2.25C1.00736 6.00299 0 4.99563 0 3.75299V2.25299ZM2.25 10.503C1.83579 10.503 1.5 10.8388 1.5 11.253V12.753C1.5 13.1672 1.83579 13.503 2.25 13.503H21.75C22.1642 13.503 22.5 13.1672 22.5 12.753V11.253C22.5 10.8388 22.1642 10.503 21.75 10.503H2.25ZM0 11.253C0 10.0104 1.00736 9.00299 2.25 9.00299H21.75C22.9926 9.00299 24 10.0104 24 11.253V12.753C24 13.9956 22.9926 15.003 21.75 15.003H2.25C1.00736 15.003 0 13.9956 0 12.753V11.253ZM1.5 20.253C1.5 19.8388 1.83579 19.503 2.25 19.503H21.75C22.1642 19.503 22.5 19.8388 22.5 20.253V21.753C22.5 22.1672 22.1642 22.503 21.75 22.503H2.25C1.83579 22.503 1.5 22.1672 1.5 21.753V20.253ZM2.25 18.003C1.00736 18.003 0 19.0103 0 20.253V21.753C0 22.9956 1.00736 24.003 2.25 24.003H21.75C22.9926 24.003 24 22.9956 24 21.753V20.253C24 19.0103 22.9926 18.003 21.75 18.003H2.25Z" fill="#767676"/>
</g>
<defs>
<clipPath id="clip0_964:35">
<rect width="24" height="24" fill="white"/>
</clipPath>
</defs>
</svg>
