<svg width="24" height="24" viewBox="0 0 24 24" fill="none" xmlns="http://www.w3.org/2000/svg">
<g clip-path="url(#clip0)">
<path d="M21.75 0.752991H2.25C1.42157 0.752991 0.75 1.42456 0.75 2.25299V3.75299C0.75 4.58142 1.42157 5.25299 2.25 5.25299H21.75C22.5784 5.25299 23.25 4.58142 23.25 3.75299V2.25299C23.25 1.42456 22.5784 0.752991 21.75 0.752991Z" stroke="#474445" stroke-width="1.5" stroke-linecap="round" stroke-linejoin="round"/>
<path d="M21.75 9.75299H2.25C1.42157 9.75299 0.75 10.4246 0.75 11.253V12.753C0.75 13.5814 1.42157 14.253 2.25 14.253H21.75C22.5784 14.253 23.25 13.5814 23.25 12.753V11.253C23.25 10.4246 22.5784 9.75299 21.75 9.75299Z" stroke="#474445" stroke-width="1.5" stroke-linecap="round" stroke-linejoin="round"/>
<path d="M21.75 18.753H2.25C1.42157 18.753 0.75 19.4246 0.75 20.253V21.753C0.75 22.5814 1.42157 23.253 2.25 23.253H21.75C22.5784 23.253 23.25 22.5814 23.25 21.753V20.253C23.25 19.4246 22.5784 18.753 21.75 18.753Z" stroke="#474445" stroke-width="1.5" stroke-linecap="round" stroke-linejoin="round"/>
</g>
<defs>
<clipPath id="clip0">
<rect width="24" height="24" fill="white"/>
</clipPath>
</defs>
</svg>
