<svg width="24" height="24" viewBox="0 0 24 24" fill="none" xmlns="http://www.w3.org/2000/svg">
<g clip-path="url(#clip0_1312_573)">
<path fill-rule="evenodd" clip-rule="evenodd" d="M4.5 2.71301C4.5 2.02266 5.05964 1.46301 5.75 1.46301H18.25C18.9404 1.46301 19.5 2.02266 19.5 2.71301V5.21301V13.463H4.5V5.21301V2.71301ZM4.5 14.963H19.5V18.213C19.5 18.7848 19.116 19.267 18.5919 19.4157C18.572 19.4199 18.5525 19.425 18.5333 19.4308C18.4423 19.4519 18.3474 19.463 18.25 19.463H15.7564L15.75 19.463L15.7436 19.463H8.2564L8.25 19.463L8.2436 19.463H5.75C5.65256 19.463 5.55772 19.4519 5.4667 19.4308C5.44748 19.425 5.42795 19.4199 5.40812 19.4157C4.88396 19.267 4.5 18.7848 4.5 18.213V14.963ZM3 18.213V14.213V5.96301H2.25C2.05109 5.96301 1.86032 6.04203 1.71967 6.18268C1.57902 6.32334 1.5 6.5141 1.5 6.71301V9.71301C1.5 10.1272 1.16421 10.463 0.75 10.463C0.335786 10.463 0 10.1272 0 9.71301V6.71301C0 6.11628 0.237053 5.54398 0.65901 5.12202C1.08097 4.70007 1.65326 4.46301 2.25 4.46301H3V2.71301C3 1.19423 4.23122 -0.0369873 5.75 -0.0369873H18.25C19.7688 -0.0369873 21 1.19423 21 2.71301V4.46301H21.75C22.3467 4.46301 22.919 4.70007 23.341 5.12202C23.7629 5.54398 24 6.11627 24 6.71301V9.71301C24 10.1272 23.6642 10.463 23.25 10.463C22.8358 10.463 22.5 10.1272 22.5 9.71301V6.71301C22.5 6.5141 22.421 6.32334 22.2803 6.18268C22.1397 6.04203 21.9489 5.96301 21.75 5.96301H21V14.213V18.213C21 19.2817 20.3904 20.208 19.5 20.6632V21.713C19.5 22.3097 19.2629 22.882 18.841 23.304C18.419 23.7259 17.8467 23.963 17.25 23.963C16.6533 23.963 16.081 23.7259 15.659 23.304C15.2371 22.882 15 22.3097 15 21.713V20.963H9V21.713C9 22.3097 8.76295 22.882 8.34099 23.304C7.91903 23.7259 7.34674 23.963 6.75 23.963C6.15326 23.963 5.58097 23.7259 5.15901 23.304C4.73705 22.882 4.5 22.3097 4.5 21.713V20.6632C3.60958 20.208 3 19.2817 3 18.213ZM18 21.713V20.963H16.5V21.713C16.5 21.9119 16.579 22.1027 16.7197 22.2433C16.8603 22.384 17.0511 22.463 17.25 22.463C17.4489 22.463 17.6397 22.384 17.7803 22.2433C17.921 22.1027 18 21.9119 18 21.713ZM7.5 20.963H6V21.713C6 21.9119 6.07902 22.1027 6.21967 22.2433C6.36032 22.384 6.55109 22.463 6.75 22.463C6.94891 22.463 7.13968 22.384 7.28033 22.2433C7.42098 22.1027 7.5 21.9119 7.5 21.713V20.963ZM14.25 16.463C13.8358 16.463 13.5 16.7988 13.5 17.213C13.5 17.6272 13.8358 17.963 14.25 17.963H17.25C17.6642 17.963 18 17.6272 18 17.213C18 16.7988 17.6642 16.463 17.25 16.463H14.25ZM6 17.213C6 16.7988 6.33579 16.463 6.75 16.463H9.75C10.1642 16.463 10.5 16.7988 10.5 17.213C10.5 17.6272 10.1642 17.963 9.75 17.963H6.75C6.33579 17.963 6 17.6272 6 17.213ZM9.75 2.96301C9.33579 2.96301 9 3.2988 9 3.71301C9 4.12723 9.33579 4.46301 9.75 4.46301H14.25C14.6642 4.46301 15 4.12723 15 3.71301C15 3.2988 14.6642 2.96301 14.25 2.96301H9.75Z" fill="#767676"/>
</g>
<defs>
<clipPath id="clip0_1312_573">
<rect width="24" height="24" fill="white"/>
</clipPath>
</defs>
</svg>
