<svg width="24" height="24" viewBox="0 0 24 24" fill="none" xmlns="http://www.w3.org/2000/svg">
<path d="M4 10L1 18H7L4 10Z" stroke="#767676" stroke-width="1.5" stroke-linecap="round" stroke-linejoin="round"/>
<path d="M4 18V23" stroke="#767676" stroke-width="1.5" stroke-linecap="round" stroke-linejoin="round"/>
<path d="M10 12.5V23H22V12.5" stroke="#767676" stroke-width="1.5" stroke-linecap="round" stroke-linejoin="round"/>
<path d="M13.25 23C13.25 23.4142 13.5858 23.75 14 23.75C14.4142 23.75 14.75 23.4142 14.75 23H13.25ZM17.25 23C17.25 23.4142 17.5858 23.75 18 23.75C18.4142 23.75 18.75 23.4142 18.75 23H17.25ZM14.5 17.75H17.5V16.25H14.5V17.75ZM13.25 17.5V23H14.75V17.5H13.25ZM18.75 23V17.5H17.25V23H18.75ZM17.5 17.75C17.3619 17.75 17.25 17.6381 17.25 17.5H18.75C18.75 16.8096 18.1904 16.25 17.5 16.25V17.75ZM14.5 16.25C13.8096 16.25 13.25 16.8096 13.25 17.5H14.75C14.75 17.6381 14.6381 17.75 14.5 17.75V16.25Z" fill="#767676"/>
<path d="M8.51191 12.4306C8.19741 12.7001 8.16099 13.1736 8.43056 13.4881C8.70012 13.8026 9.1736 13.839 9.48809 13.5694L8.51191 12.4306ZM22.5119 13.5694C22.8264 13.839 23.2999 13.8026 23.5694 13.4881C23.839 13.1736 23.8026 12.7001 23.4881 12.4306L22.5119 13.5694ZM15.6746 7.27891L15.1865 6.70947L15.6746 7.27891ZM16.3254 7.27891L16.8135 6.70947L16.3254 7.27891ZM9.48809 13.5694L16.1627 7.84835L15.1865 6.70947L8.51191 12.4306L9.48809 13.5694ZM15.8373 7.84835L22.5119 13.5694L23.4881 12.4306L16.8135 6.70947L15.8373 7.84835ZM16.1627 7.84835C16.0691 7.9286 15.9309 7.9286 15.8373 7.84835L16.8135 6.70947C16.3454 6.30823 15.6546 6.30823 15.1865 6.70947L16.1627 7.84835Z" fill="#767676"/>
<path d="M15 11.25C14.5858 11.25 14.25 11.5858 14.25 12C14.25 12.4142 14.5858 12.75 15 12.75V11.25ZM17 12.75C17.4142 12.75 17.75 12.4142 17.75 12C17.75 11.5858 17.4142 11.25 17 11.25V12.75ZM15 12.75H17V11.25H15V12.75Z" fill="#767676"/>
<path d="M1 22.25C0.585786 22.25 0.25 22.5858 0.25 23C0.25 23.4142 0.585786 23.75 1 23.75V22.25ZM10 23.75C10.4142 23.75 10.75 23.4142 10.75 23C10.75 22.5858 10.4142 22.25 10 22.25V23.75ZM1 23.75H10V22.25H1V23.75Z" fill="#767676"/>
<path d="M9.56524 6.99944C10.1975 7.01357 10.809 6.75813 11.2656 6.28927C11.7221 5.82041 11.9863 5.17649 12 4.49902C11.9729 3.86653 11.7329 3.26598 11.3245 2.80849C10.916 2.351 10.3667 2.06756 9.77829 2.01062C9.18984 1.95368 8.60206 2.12709 8.12374 2.49877C7.64541 2.87044 7.30892 3.41522 7.17653 4.03228C6.9716 3.92942 6.74825 3.8755 6.52196 3.87425C6.12704 3.86602 5.74516 4.02579 5.45992 4.31858C5.17468 4.61138 5.00931 5.01335 5 5.43651C5.00914 5.85979 5.17445 6.26193 5.45971 6.55487C5.74497 6.84781 6.12693 7.00767 6.52196 6.99944H9.56524Z" stroke="#767676" stroke-width="1.5" stroke-linecap="round" stroke-linejoin="round"/>
</svg>
