<svg width="24" height="24" viewBox="0 0 24 24" fill="none" xmlns="http://www.w3.org/2000/svg">
<path d="M18.75 0.75H5.25C4.42157 0.75 3.75 1.42157 3.75 2.25V21.75C3.75 22.5784 4.42157 23.25 5.25 23.25H18.75C19.5784 23.25 20.25 22.5784 20.25 21.75V2.25C20.25 1.42157 19.5784 0.75 18.75 0.75Z" stroke="#767676" stroke-width="1.5" stroke-linecap="round" stroke-linejoin="round"/>
<path d="M16.5 3.75H7.5C7.08579 3.75 6.75 4.08579 6.75 4.5V7.5C6.75 7.91421 7.08579 8.25 7.5 8.25H16.5C16.9142 8.25 17.25 7.91421 17.25 7.5V4.5C17.25 4.08579 16.9142 3.75 16.5 3.75Z" stroke="#767676" stroke-width="1.5" stroke-linecap="round" stroke-linejoin="round"/>
<path d="M7.875 12C7.94917 12 8.02167 12.022 8.08334 12.0632C8.14501 12.1044 8.19307 12.163 8.22145 12.2315C8.24984 12.3 8.25726 12.3754 8.24279 12.4482C8.22832 12.5209 8.19261 12.5877 8.14017 12.6402C8.08772 12.6926 8.0209 12.7283 7.94816 12.7428C7.87542 12.7573 7.80002 12.7498 7.73149 12.7215C7.66297 12.6931 7.6044 12.645 7.5632 12.5833C7.52199 12.5217 7.5 12.4492 7.5 12.375C7.5 12.2755 7.53951 12.1802 7.60984 12.1098C7.68016 12.0395 7.77554 12 7.875 12Z" fill="#767676" stroke="#767676" stroke-width="1.5" stroke-linecap="round" stroke-linejoin="round"/>
<path d="M12.1558 12C12.2299 12 12.3024 12.022 12.3641 12.0632C12.4258 12.1044 12.4738 12.163 12.5022 12.2315C12.5306 12.3 12.538 12.3754 12.5236 12.4482C12.5091 12.5209 12.4734 12.5877 12.4209 12.6402C12.3685 12.6926 12.3017 12.7283 12.2289 12.7428C12.1562 12.7573 12.0808 12.7498 12.0123 12.7215C11.9437 12.6931 11.8852 12.645 11.844 12.5833C11.8028 12.5217 11.7808 12.4492 11.7808 12.375C11.7808 12.2755 11.8203 12.1802 11.8906 12.1098C11.9609 12.0395 12.0563 12 12.1558 12" stroke="#767676" stroke-width="1.5" stroke-linecap="round" stroke-linejoin="round"/>
<path d="M16.125 12C16.1992 12 16.2717 12.022 16.3333 12.0632C16.395 12.1044 16.4431 12.163 16.4715 12.2315C16.4998 12.3 16.5073 12.3754 16.4928 12.4482C16.4783 12.5209 16.4426 12.5877 16.3902 12.6402C16.3377 12.6926 16.2709 12.7283 16.1982 12.7428C16.1254 12.7573 16.05 12.7498 15.9815 12.7215C15.913 12.6931 15.8544 12.645 15.8132 12.5833C15.772 12.5217 15.75 12.4492 15.75 12.375C15.75 12.2755 15.7895 12.1802 15.8598 12.1098C15.9302 12.0395 16.0255 12 16.125 12Z" fill="#767676" stroke="#767676" stroke-width="1.5" stroke-linecap="round" stroke-linejoin="round"/>
<path d="M7.875 15.75C7.94917 15.75 8.02167 15.772 8.08334 15.8132C8.14501 15.8544 8.19307 15.913 8.22145 15.9815C8.24984 16.05 8.25726 16.1254 8.24279 16.1982C8.22832 16.2709 8.19261 16.3377 8.14017 16.3902C8.08772 16.4426 8.0209 16.4783 7.94816 16.4928C7.87542 16.5073 7.80002 16.4998 7.73149 16.4715C7.66297 16.4431 7.6044 16.395 7.5632 16.3333C7.52199 16.2717 7.5 16.1992 7.5 16.125C7.5 16.0255 7.53951 15.9302 7.60984 15.8598C7.68016 15.7895 7.77554 15.75 7.875 15.75Z" fill="#767676" stroke="#767676" stroke-width="1.5" stroke-linecap="round" stroke-linejoin="round"/>
<path d="M12.1558 15.75C12.2299 15.75 12.3024 15.772 12.3641 15.8132C12.4258 15.8544 12.4738 15.913 12.5022 15.9815C12.5306 16.05 12.538 16.1254 12.5236 16.1982C12.5091 16.2709 12.4734 16.3377 12.4209 16.3902C12.3685 16.4426 12.3017 16.4783 12.2289 16.4928C12.1562 16.5073 12.0808 16.4998 12.0123 16.4715C11.9437 16.4431 11.8852 16.395 11.844 16.3333C11.8028 16.2717 11.7808 16.1992 11.7808 16.125C11.7808 16.0255 11.8203 15.9302 11.8906 15.8598C11.9609 15.7895 12.0563 15.75 12.1558 15.75" stroke="#767676" stroke-width="1.5" stroke-linecap="round" stroke-linejoin="round"/>
<path d="M16.125 15.75C16.1992 15.75 16.2717 15.772 16.3333 15.8132C16.395 15.8544 16.4431 15.913 16.4715 15.9815C16.4998 16.05 16.5073 16.1254 16.4928 16.1982C16.4783 16.2709 16.4426 16.3377 16.3902 16.3902C16.3377 16.4426 16.2709 16.4783 16.1982 16.4928C16.1254 16.5073 16.05 16.4998 15.9815 16.4715C15.913 16.4431 15.8544 16.395 15.8132 16.3333C15.772 16.2717 15.75 16.1992 15.75 16.125C15.75 16.0255 15.7895 15.9302 15.8598 15.8598C15.9302 15.7895 16.0255 15.75 16.125 15.75Z" fill="#767676" stroke="#767676" stroke-width="1.5" stroke-linecap="round" stroke-linejoin="round"/>
<path d="M7.875 19.5C7.94917 19.5 8.02167 19.522 8.08334 19.5632C8.14501 19.6044 8.19307 19.663 8.22145 19.7315C8.24984 19.8 8.25726 19.8754 8.24279 19.9482C8.22832 20.0209 8.19261 20.0877 8.14017 20.1402C8.08772 20.1926 8.0209 20.2283 7.94816 20.2428C7.87542 20.2573 7.80002 20.2498 7.73149 20.2215C7.66297 20.1931 7.6044 20.145 7.5632 20.0833C7.52199 20.0217 7.5 19.9492 7.5 19.875C7.5 19.7755 7.53951 19.6802 7.60984 19.6098C7.68016 19.5395 7.77554 19.5 7.875 19.5Z" fill="#767676" stroke="#767676" stroke-width="1.5" stroke-linecap="round" stroke-linejoin="round"/>
<path d="M12.1558 19.5C12.2299 19.5 12.3024 19.522 12.3641 19.5632C12.4258 19.6044 12.4738 19.663 12.5022 19.7315C12.5306 19.8 12.538 19.8754 12.5236 19.9482C12.5091 20.0209 12.4734 20.0877 12.4209 20.1402C12.3685 20.1926 12.3017 20.2283 12.2289 20.2428C12.1562 20.2573 12.0808 20.2498 12.0123 20.2215C11.9437 20.1931 11.8852 20.145 11.844 20.0833C11.8028 20.0217 11.7808 19.9492 11.7808 19.875C11.7808 19.7755 11.8203 19.6802 11.8906 19.6098C11.9609 19.5395 12.0563 19.5 12.1558 19.5" stroke="#767676" stroke-width="1.5" stroke-linecap="round" stroke-linejoin="round"/>
<path d="M16.125 19.5C16.1992 19.5 16.2717 19.522 16.3333 19.5632C16.395 19.6044 16.4431 19.663 16.4715 19.7315C16.4998 19.8 16.5073 19.8754 16.4928 19.9482C16.4783 20.0209 16.4426 20.0877 16.3902 20.1402C16.3377 20.1926 16.2709 20.2283 16.1982 20.2428C16.1254 20.2573 16.05 20.2498 15.9815 20.2215C15.913 20.1931 15.8544 20.145 15.8132 20.0833C15.772 20.0217 15.75 19.9492 15.75 19.875C15.75 19.7755 15.7895 19.6802 15.8598 19.6098C15.9302 19.5395 16.0255 19.5 16.125 19.5Z" fill="#767676" stroke="#767676" stroke-width="1.5" stroke-linecap="round" stroke-linejoin="round"/>
</svg>
