<svg width="24" height="24" viewBox="0 0 24 24" fill="none" xmlns="http://www.w3.org/2000/svg">
<path d="M16.043 3.691L17.52 6H21.75C22.1478 6 22.5294 6.15804 22.8107 6.43934C23.092 6.72064 23.25 7.10218 23.25 7.5V19.5C23.25 19.8978 23.092 20.2794 22.8107 20.5607C22.5294 20.842 22.1478 21 21.75 21H2.25C1.85218 21 1.47064 20.842 1.18934 20.5607C0.908035 20.2794 0.75 19.8978 0.75 19.5V7.5C0.75 7.10218 0.908035 6.72064 1.18934 6.43934C1.47064 6.15804 1.85218 6 2.25 6H6.48L7.958 3.691C8.09369 3.47915 8.28048 3.30482 8.50118 3.18407C8.72189 3.06332 8.96942 3.00002 9.221 3H14.779C15.0307 2.99986 15.2785 3.06308 15.4994 3.18383C15.7203 3.30459 15.9072 3.479 16.043 3.691Z" stroke="#71717A" stroke-width="1.5" stroke-linecap="round" stroke-linejoin="round"/>
<path d="M4 6V4.5" stroke="#71717A" stroke-width="1.5" stroke-linecap="round" stroke-linejoin="round"/>
<path d="M12 17C14.2091 17 16 15.2091 16 13C16 10.7909 14.2091 9 12 9C9.79086 9 8 10.7909 8 13C8 15.2091 9.79086 17 12 17Z" stroke="#71717A" stroke-width="1.5" stroke-linecap="round" stroke-linejoin="round"/>
</svg>
