<svg width="24" height="24" viewBox="0 0 24 24" fill="none" xmlns="http://www.w3.org/2000/svg">
<path fill-rule="evenodd" clip-rule="evenodd" d="M15.8591 2.52575C15.5279 2.34468 15.1565 2.24986 14.779 2.25H14.7788H9.221H9.22093C8.84356 2.25004 8.47226 2.34498 8.1412 2.52611C7.81014 2.70724 7.52996 2.96872 7.32643 3.2865L7.32633 3.28666L6.06959 5.25H4.75V4.5C4.75 4.08579 4.41421 3.75 4 3.75C3.58579 3.75 3.25 4.08579 3.25 4.5V5.25H2.25C1.65326 5.25 1.08097 5.48705 0.65901 5.90901C0.237053 6.33097 0 6.90326 0 7.5V19.5C0 20.0967 0.237053 20.669 0.65901 21.091C1.08097 21.5129 1.65326 21.75 2.25 21.75H21.75C22.3467 21.75 22.919 21.5129 23.341 21.091C23.7629 20.669 24 20.0967 24 19.5V7.5C24 6.90326 23.7629 6.33097 23.341 5.90901C22.919 5.48705 22.3467 5.25 21.75 5.25H17.9306L16.6748 3.28686L16.6746 3.2865C16.4709 2.96851 16.1905 2.70689 15.8591 2.52575ZM14.7794 3.75C14.9053 3.74993 15.0292 3.78154 15.1396 3.84192L15.4114 4.0955L16.8882 6.40414C17.026 6.61963 17.2642 6.75 17.52 6.75H21.75C21.9489 6.75 22.1397 6.82902 22.2803 6.96967C22.421 7.11032 22.5 7.30109 22.5 7.5V19.5C22.5 19.6989 22.421 19.8897 22.2803 20.0303C22.1397 20.171 21.9489 20.25 21.75 20.25H2.25C2.05109 20.25 1.86032 20.171 1.71967 20.0303C1.57902 19.8897 1.5 19.6989 1.5 19.5V7.5C1.5 7.30109 1.57902 7.11032 1.71967 6.96967C1.86032 6.82902 2.05109 6.75 2.25 6.75H4H6.48C6.73572 6.75 6.97381 6.61971 7.11167 6.40434L8.58957 4.0955L8.58963 4.09541L8.58967 4.09534C8.65751 3.98948 8.75086 3.90238 8.86116 3.84204C8.97149 3.78167 9.09523 3.75002 9.221 3.75H9.22107H14.779L14.7794 3.75ZM8.75 13C8.75 11.2051 10.2051 9.75 12 9.75C13.7949 9.75 15.25 11.2051 15.25 13C15.25 14.7949 13.7949 16.25 12 16.25C10.2051 16.25 8.75 14.7949 8.75 13ZM12 8.25C9.37665 8.25 7.25 10.3766 7.25 13C7.25 15.6234 9.37665 17.75 12 17.75C14.6234 17.75 16.75 15.6234 16.75 13C16.75 10.3766 14.6234 8.25 12 8.25Z" fill="#474445"/>
</svg>
