<svg width="24" height="24" viewBox="0 0 24 24" fill="none" xmlns="http://www.w3.org/2000/svg">
<path fill-rule="evenodd" clip-rule="evenodd" d="M14.7502 2.75C15.5787 2.75 16.2502 3.42157 16.2502 4.25C16.2502 5.07843 15.5787 5.75 14.7502 5.75C13.9218 5.75 13.2502 5.07843 13.2502 4.25C13.2502 3.42157 13.9218 2.75 14.7502 2.75ZM17.7502 4.25C17.7502 2.59315 16.4071 1.25 14.7502 1.25C13.3524 1.25 12.1779 2.20602 11.8448 3.49987H9.25024L7.00024 3.49987C6.58603 3.49987 6.25024 3.83566 6.25024 4.24987V5.72783C6.25024 6.14204 6.58603 6.47783 7.00024 6.47783C7.41446 6.47783 7.75024 6.14204 7.75024 5.72783V4.99987H8.50024V5.85651C8.50024 6.27072 8.83603 6.60651 9.25024 6.60651C9.66446 6.60651 10.0002 6.27072 10.0002 5.85651V4.99987H11.8447C12.1777 6.29386 13.3523 7.25 14.7502 7.25C16.4071 7.25 17.7502 5.90686 17.7502 4.25ZM5.29104 7.30881C5.6728 7.46955 5.85196 7.90933 5.69123 8.29108L4.12956 12H19.8704L18.3088 8.29108C18.148 7.90933 18.3272 7.46955 18.709 7.30881C19.0907 7.14807 19.5305 7.32724 19.6912 7.70899L21.5029 12.0116C22.1395 12.0704 22.7388 12.3497 23.1945 12.8055C23.7103 13.3212 24 14.0206 24 14.75V16.125V18.5C24 18.9641 23.8156 19.4092 23.4874 19.7374C23.4138 19.8111 23.3343 19.8775 23.25 19.9361V21C23.25 21.5968 23.0129 22.169 22.591 22.591C22.169 23.013 21.5967 23.25 21 23.25C20.4033 23.25 19.831 23.013 19.409 22.591C18.9871 22.169 18.75 21.5968 18.75 21V20.25H5.25V21C5.25 21.5968 5.01295 22.169 4.59099 22.591C4.16903 23.013 3.59674 23.25 3 23.25C2.40326 23.25 1.83097 23.013 1.40901 22.591C0.987053 22.169 0.75 21.5968 0.75 21V19.9361C0.665706 19.8775 0.586192 19.8111 0.512563 19.7374C0.184374 19.4092 0 18.9641 0 18.5V16.125V14.75C0 14.0207 0.289731 13.3212 0.805456 12.8055C1.26123 12.3497 1.86053 12.0704 2.49712 12.0116L4.30877 7.70899C4.46951 7.32724 4.90929 7.14807 5.29104 7.30881ZM1.5 16.875H3.75029C4.16451 16.875 4.50029 16.5392 4.50029 16.125C4.50029 15.7108 4.16451 15.375 3.75029 15.375H1.5V14.75C1.5 14.4185 1.6317 14.1005 1.86612 13.8661C2.10054 13.6317 2.41848 13.5 2.75 13.5H2.98265C2.99402 13.5003 3.00538 13.5003 3.0167 13.5H20.9833C20.9946 13.5003 21.006 13.5003 21.0173 13.5H21.25C21.5815 13.5 21.8995 13.6317 22.1339 13.8661C22.3683 14.1005 22.5 14.4185 22.5 14.75V15.375H20.25C19.8358 15.375 19.5 15.7108 19.5 16.125C19.5 16.5392 19.8358 16.875 20.25 16.875H22.5V18.5C22.5 18.5663 22.4737 18.6299 22.4268 18.6768C22.3979 18.7057 22.3626 18.7268 22.3242 18.7387C22.3162 18.7406 22.3083 18.7427 22.3004 18.7449C22.2839 18.7483 22.2671 18.75 22.25 18.75H1.75C1.73294 18.75 1.71605 18.7483 1.69959 18.7449C1.69171 18.7427 1.68378 18.7406 1.6758 18.7387C1.63744 18.7268 1.60215 18.7057 1.57322 18.6768C1.52634 18.6299 1.5 18.5663 1.5 18.5V16.875ZM2.25 21V20.25H3.75V21C3.75 21.1989 3.67098 21.3897 3.53033 21.5303C3.38968 21.671 3.19891 21.75 3 21.75C2.80109 21.75 2.61032 21.671 2.46967 21.5303C2.32902 21.3897 2.25 21.1989 2.25 21ZM20.25 20.25H21.75V21C21.75 21.1989 21.671 21.3897 21.5303 21.5303C21.3897 21.671 21.1989 21.75 21 21.75C20.8011 21.75 20.6103 21.671 20.4697 21.5303C20.329 21.3897 20.25 21.1989 20.25 21V20.25ZM9.75 15.75C9.33579 15.75 9 16.0858 9 16.5C9 16.9142 9.33579 17.25 9.75 17.25H14.25C14.6642 17.25 15 16.9142 15 16.5C15 16.0858 14.6642 15.75 14.25 15.75H9.75Z" fill="#474445"/>
</svg>
