<svg width="24" height="24" viewBox="0 0 24 24" fill="none" xmlns="http://www.w3.org/2000/svg">
<path d="M21 12.75L19 8.00003M5 8.00003L3 12.75" stroke="#474445" stroke-width="1.5" stroke-linecap="round" stroke-linejoin="round"/>
<path d="M1.5 19.468V21C1.5 21.3978 1.65804 21.7794 1.93934 22.0607C2.22064 22.342 2.60218 22.5 3 22.5C3.39782 22.5 3.77936 22.342 4.06066 22.0607C4.34196 21.7794 4.5 21.3978 4.5 21V19.5" stroke="#474445" stroke-width="1.5" stroke-linecap="round" stroke-linejoin="round"/>
<path d="M22.5 19.468V21C22.5 21.3978 22.342 21.7794 22.0607 22.0607C21.7794 22.342 21.3978 22.5 21 22.5C20.6022 22.5 20.2206 22.342 19.9393 22.0607C19.658 21.7794 19.5 21.3978 19.5 21V19.5" stroke="#474445" stroke-width="1.5" stroke-linecap="round" stroke-linejoin="round"/>
<path d="M19.875 15.75C19.9745 15.75 20.0698 15.7895 20.1402 15.8598C20.2105 15.9302 20.25 16.0255 20.25 16.125" stroke="#474445" stroke-width="1.5" stroke-linecap="round" stroke-linejoin="round"/>
<path d="M19.5 16.125C19.5 16.0255 19.5395 15.9302 19.6098 15.8598C19.6802 15.7895 19.7755 15.75 19.875 15.75" stroke="#474445" stroke-width="1.5" stroke-linecap="round" stroke-linejoin="round"/>
<path d="M19.875 16.5C19.7755 16.5 19.6802 16.4605 19.6098 16.3902C19.5395 16.3198 19.5 16.2245 19.5 16.125" stroke="#474445" stroke-width="1.5" stroke-linecap="round" stroke-linejoin="round"/>
<path d="M20.25 16.125C20.25 16.2245 20.2105 16.3198 20.1402 16.3902C20.0698 16.4605 19.9745 16.5 19.875 16.5" stroke="#474445" stroke-width="1.5" stroke-linecap="round" stroke-linejoin="round"/>
<path d="M4.125 15.75C4.02554 15.75 3.93016 15.7895 3.85983 15.8598C3.78951 15.9302 3.75 16.0255 3.75 16.125" stroke="#474445" stroke-width="1.5" stroke-linecap="round" stroke-linejoin="round"/>
<path d="M4.5 16.125C4.5 16.0255 4.46049 15.9302 4.39016 15.8598C4.31984 15.7895 4.22446 15.75 4.125 15.75" stroke="#474445" stroke-width="1.5" stroke-linecap="round" stroke-linejoin="round"/>
<path d="M4.125 16.5C4.22446 16.5 4.31984 16.4605 4.39016 16.3902C4.46049 16.3198 4.5 16.2245 4.5 16.125" stroke="#474445" stroke-width="1.5" stroke-linecap="round" stroke-linejoin="round"/>
<path d="M3.75 16.125C3.75 16.2245 3.78951 16.3198 3.85983 16.3902C3.93016 16.4605 4.02554 16.5 4.125 16.5" stroke="#474445" stroke-width="1.5" stroke-linecap="round" stroke-linejoin="round"/>
<path d="M2.75 12.75H21.25C21.7804 12.75 22.2891 12.9607 22.6642 13.3358C23.0393 13.7109 23.25 14.2196 23.25 14.75V18.5C23.25 18.7652 23.1446 19.0196 22.9571 19.2071C22.7696 19.3946 22.5152 19.5 22.25 19.5H1.75C1.48478 19.5 1.23043 19.3946 1.04289 19.2071C0.855357 19.0196 0.75 18.7652 0.75 18.5V14.75C0.75 14.2196 0.960714 13.7109 1.33579 13.3358C1.71086 12.9607 2.21957 12.75 2.75 12.75V12.75Z" stroke="#474445" stroke-width="1.5" stroke-linecap="round" stroke-linejoin="round"/>
<path d="M11.6368 0.961468C11.6707 0.897867 11.7226 0.84443 11.7867 0.807097C11.8507 0.769765 11.9245 0.75 11.9997 0.75C12.0749 0.75 12.1487 0.769765 12.2127 0.807097C12.2768 0.84443 12.3287 0.897867 12.3626 0.961468L13.2068 2.57388C13.2361 2.62916 13.2791 2.67691 13.332 2.71307C13.385 2.74923 13.4464 2.77273 13.511 2.78155L15.4044 3.04055C15.4785 3.05039 15.5483 3.07962 15.6058 3.12495C15.6634 3.17028 15.7065 3.22993 15.7302 3.29718C15.7534 3.36401 15.7563 3.43569 15.7384 3.50398C15.7206 3.57228 15.6828 3.63443 15.6294 3.6833L14.2544 4.9467C14.2082 4.98913 14.1736 5.04156 14.1536 5.09947C14.1335 5.15738 14.1286 5.21904 14.1394 5.27913L14.4635 7.05974C14.4762 7.1294 14.4677 7.20103 14.4391 7.2663C14.4105 7.33158 14.3629 7.38782 14.3019 7.42849C14.2404 7.46979 14.1682 7.49422 14.093 7.49909C14.0179 7.50397 13.9428 7.4891 13.876 7.45613L12.1893 6.61992C12.1309 6.59113 12.066 6.5761 12.0001 6.5761C11.9343 6.5761 11.8694 6.59113 11.8109 6.61992L10.1242 7.45613C10.0574 7.4891 9.98234 7.50397 9.9072 7.49909C9.83207 7.49422 9.75981 7.46979 9.69838 7.42849C9.63737 7.38782 9.58979 7.33158 9.56117 7.2663C9.53256 7.20103 9.52407 7.1294 9.53671 7.05974L9.86006 5.27913C9.87094 5.2191 9.86624 5.15746 9.84635 5.09954C9.82645 5.04162 9.79197 4.98917 9.74589 4.9467L8.37084 3.6833C8.31727 3.63454 8.27936 3.57239 8.26152 3.50405C8.24367 3.43572 8.24661 3.36399 8.27001 3.29718C8.29353 3.22994 8.33644 3.17028 8.39387 3.12493C8.4513 3.07958 8.52098 3.05035 8.59502 3.04055L10.4884 2.78155C10.5531 2.77272 10.6146 2.74923 10.6677 2.71308C10.7208 2.67693 10.7639 2.62918 10.7934 2.57388L11.6368 0.961468Z" stroke="#474445" stroke-width="1.5" stroke-linecap="round" stroke-linejoin="round"/>
</svg>
