<svg width="24" height="24" viewBox="0 0 24 24" fill="none" xmlns="http://www.w3.org/2000/svg">
<path fill-rule="evenodd" clip-rule="evenodd" d="M13.5433 1.39707C12.884 0.163822 11.116 0.163828 10.4567 1.39708L9.90065 2.43716C9.86145 2.51049 9.78835 2.55953 9.70562 2.56799L8.66709 2.67423C7.10769 2.83376 6.52843 4.80543 7.75374 5.78308L8.30766 6.22505C8.38285 6.28504 8.41695 6.38284 8.39536 6.47657L8.21872 7.24359C7.88913 8.67475 9.36267 9.85087 10.6851 9.21217L11.8913 8.62967C11.96 8.5965 12.04 8.5965 12.1087 8.62967L13.3148 9.21217C14.6373 9.85087 16.1109 8.67475 15.7813 7.24359L15.6046 6.47657C15.583 6.38284 15.6171 6.28504 15.6923 6.22505L16.2462 5.78308C17.4716 4.80543 16.8923 2.83375 15.3329 2.67423L14.2944 2.56799C14.2116 2.55953 14.1385 2.51049 14.0993 2.43716L13.5433 1.39707ZM11.7795 2.10427C11.8737 1.92809 12.1263 1.92809 12.2205 2.10427L12.7765 3.14435C13.0509 3.65769 13.5626 4.00097 14.1417 4.0602L15.1802 4.16644C15.403 4.18923 15.4858 4.4709 15.3107 4.61057L14.7568 5.05253C14.2305 5.47246 13.9918 6.15709 14.1429 6.81321L14.3195 7.58022C14.3666 7.78468 14.1561 7.95269 13.9672 7.86145L12.761 7.27895C12.2802 7.04674 11.7197 7.04674 11.2389 7.27895L10.0328 7.86145C9.84388 7.95269 9.63338 7.78468 9.68046 7.58022L9.8571 6.81321C10.0082 6.15709 9.76949 5.47246 9.24319 5.05254L8.68926 4.61057C8.51422 4.4709 8.59697 4.18923 8.81974 4.16644L9.85827 4.0602C10.4373 4.00097 10.949 3.65769 11.2235 3.14435L11.7795 2.10427ZM5.59052 8.12012C5.74104 7.73423 5.55024 7.29937 5.16434 7.14885C4.77844 6.99833 4.34359 7.18914 4.19307 7.57503L2.40835 12.1505C1.01409 12.6973 0.0268555 14.0549 0.0268555 15.643V18.2828C0.0268555 18.8767 0.322675 19.4015 0.775001 19.7179V20.7375C0.775001 21.9781 1.78075 22.9839 3.0214 22.9839C4.26206 22.9839 5.26781 21.9781 5.26781 20.7375V20.0328H18.732V20.7375C18.732 21.9781 19.7378 22.9839 20.9784 22.9839C22.2191 22.9839 23.2248 21.9781 23.2248 20.7375V19.7178C23.6771 19.4015 23.9729 18.8767 23.9729 18.2828V15.643C23.9729 14.0548 22.9856 12.6972 21.5912 12.1505L19.8065 7.57503C19.656 7.18914 19.2211 6.99833 18.8352 7.14885C18.4494 7.29937 18.2585 7.73423 18.4091 8.12012L19.8807 11.893H4.11888L5.59052 8.12012ZM19.482 18.5328H18.732H5.26781H4.51781H1.77685C1.63878 18.5328 1.52686 18.4209 1.52686 18.2828V15.643C1.52686 14.4004 2.53421 13.393 3.77686 13.393H20.2229C21.4655 13.393 22.4729 14.4004 22.4729 15.643V18.2828C22.4729 18.4209 22.361 18.5328 22.2229 18.5328H19.482ZM20.232 20.7375V20.0328H21.7248V20.7375C21.7248 21.1497 21.3906 21.4839 20.9784 21.4839C20.5662 21.4839 20.232 21.1497 20.232 20.7375ZM3.76781 20.0328H2.275V20.7375C2.275 21.1497 2.60918 21.4839 3.0214 21.4839C3.43363 21.4839 3.76781 21.1497 3.76781 20.7375V20.0328ZM4.14359 17.0696C4.76342 17.0696 5.2659 16.5741 5.2659 15.9629C5.2659 15.3518 4.76342 14.8563 4.14359 14.8563C3.52376 14.8563 3.02129 15.3518 3.02129 15.9629C3.02129 16.5741 3.52376 17.0696 4.14359 17.0696ZM20.9785 15.9629C20.9785 16.5741 20.476 17.0696 19.8562 17.0696C19.2363 17.0696 18.7339 16.5741 18.7339 15.9629C18.7339 15.3518 19.2363 14.8563 19.8562 14.8563C20.476 14.8563 20.9785 15.3518 20.9785 15.9629Z" fill="#767676"/>
</svg>
