<svg width="24" height="24" viewBox="0 0 24 24" fill="none" xmlns="http://www.w3.org/2000/svg">
<path fill-rule="evenodd" clip-rule="evenodd" d="M6.73806 3.75C6.18605 3.75 5.6994 4.11208 5.54078 4.64081L4.00801 9.75H12H19.992L18.4592 4.64081C18.3006 4.11208 17.814 3.75 17.2619 3.75H6.73806ZM1.71812 9.61328L1.86444 9.90591C1.45592 10.0539 1.08496 10.3028 0.782921 10.6322C0.275246 11.1861 0 11.9243 0 12.6818V14.25V18.4091C0 18.8773 0.169889 19.338 0.490028 19.6873C0.569314 19.7738 0.656443 19.8518 0.75 19.9202V21C0.75 21.5968 0.987053 22.1691 1.40901 22.591C1.83097 23.013 2.40326 23.25 3 23.25C3.59674 23.25 4.16903 23.013 4.59099 22.591C5.01295 22.1691 5.25 21.5968 5.25 21V20.25H18.75V21C18.75 21.5968 18.9871 22.1691 19.409 22.591C19.831 23.013 20.4033 23.25 21 23.25C21.5967 23.25 22.169 23.013 22.591 22.591C23.0129 22.1691 23.25 21.5968 23.25 21V19.9202C23.3436 19.8518 23.4307 19.7738 23.51 19.6873C23.8301 19.338 24 18.8773 24 18.4091V14.25V12.6818C24 11.9243 23.7248 11.1861 23.2171 10.6322C22.915 10.3028 22.5441 10.0539 22.1356 9.90591L22.2819 9.61328L23.1122 9.33651C23.5051 9.20553 23.7175 8.78079 23.5865 8.38783C23.4555 7.99487 23.0308 7.7825 22.6378 7.91349L21.5128 8.28849C21.385 8.3311 21.2722 8.40692 21.185 8.50672L19.896 4.20979C19.547 3.04658 18.4764 2.25 17.2619 2.25H6.73806C5.52364 2.25 4.453 3.04659 4.10404 4.20979L2.81495 8.50672C2.72782 8.40692 2.615 8.3311 2.48717 8.28849L1.36217 7.91349C0.969213 7.7825 0.544473 7.99487 0.413488 8.38783C0.282502 8.78079 0.494872 9.20553 0.887829 9.33651L1.71812 9.61328ZM22.5 13.5H19C18.7159 13.5 18.4562 13.6605 18.3292 13.9146L17.2042 16.1646C17.0189 16.5351 17.1691 16.9856 17.5396 17.1708C17.9101 17.3561 18.3606 17.2059 18.5458 16.8354L19.4635 15H22.5V18.4091C22.5 18.5196 22.4592 18.6138 22.4042 18.6737C22.3513 18.7314 22.2942 18.75 22.25 18.75H1.75C1.70579 18.75 1.64869 18.7314 1.59576 18.6737C1.54082 18.6138 1.5 18.5196 1.5 18.4091V15H4.53647L5.45418 16.8354C5.63942 17.2059 6.08993 17.3561 6.46041 17.1708C6.83089 16.9856 6.98106 16.5351 6.79582 16.1646L5.67082 13.9146C5.54378 13.6605 5.28408 13.5 5 13.5H1.5V12.6818C1.5 12.282 1.64618 11.9103 1.88865 11.6458C2.12912 11.3835 2.44058 11.25 2.75 11.25H12H21.25C21.5594 11.25 21.8709 11.3835 22.1113 11.6458C22.3538 11.9103 22.5 12.282 22.5 12.6818V13.5ZM2.25 21V20.25H3.75V21C3.75 21.1989 3.67098 21.3897 3.53033 21.5303C3.38968 21.671 3.19891 21.75 3 21.75C2.80109 21.75 2.61032 21.671 2.46967 21.5303C2.32902 21.3897 2.25 21.1989 2.25 21ZM20.25 21V20.25H21.75V21C21.75 21.1989 21.671 21.3897 21.5303 21.5303C21.3897 21.671 21.1989 21.75 21 21.75C20.8011 21.75 20.6103 21.671 20.4697 21.5303C20.329 21.3897 20.25 21.1989 20.25 21ZM9 16.5C9 16.0858 9.33579 15.75 9.75 15.75H14.25C14.6642 15.75 15 16.0858 15 16.5C15 16.9142 14.6642 17.25 14.25 17.25H9.75C9.33579 17.25 9 16.9142 9 16.5Z" fill="#474445"/>
</svg>
