<svg width="24" height="24" viewBox="0 0 24 24" fill="none" xmlns="http://www.w3.org/2000/svg">
<g clip-path="url(#clip0_1199_97)">
<path d="M20.2461 9V8.248C20.2461 7.45235 19.93 6.68929 19.3674 6.12668C18.8048 5.56407 18.0417 5.248 17.2461 5.248H3.74609C2.95044 5.248 2.18738 5.56407 1.62477 6.12668C1.06216 6.68929 0.746094 7.45235 0.746094 8.248V17.248C0.746094 18.0436 1.06216 18.8067 1.62477 19.3693C2.18738 19.9319 2.95044 20.248 3.74609 20.248H9.00391" stroke="#767676" stroke-width="1.5" stroke-linecap="round" stroke-linejoin="round"/>
<path d="M5.99609 5.248V20.248" stroke="#767676" stroke-width="1.5" stroke-linecap="round" stroke-linejoin="round"/>
<path d="M14.9961 5.248V8.999" stroke="#767676" stroke-width="1.5" stroke-linecap="round" stroke-linejoin="round"/>
<path d="M7.5 5.248V2.248C7.5 1.85018 7.65804 1.46865 7.93934 1.18734C8.22064 0.906036 8.60218 0.748001 9 0.748001H12C12.197 0.748001 12.392 0.7868 12.574 0.862182C12.756 0.937564 12.9214 1.04805 13.0607 1.18734C13.1999 1.32663 13.3104 1.49199 13.3858 1.67398C13.4612 1.85596 13.5 2.05102 13.5 2.248V5.125" stroke="#767676" stroke-width="1.5" stroke-linecap="round" stroke-linejoin="round"/>
<path d="M17.2461 23.248C20.5598 23.248 23.2461 20.5617 23.2461 17.248C23.2461 13.9343 20.5598 11.248 17.2461 11.248C13.9324 11.248 11.2461 13.9343 11.2461 17.248C11.2461 20.5617 13.9324 23.248 17.2461 23.248Z" stroke="#767676" stroke-width="1.5" stroke-linecap="round" stroke-linejoin="round"/>
<path d="M11.6831 19.5H13.5001C13.8979 19.5 14.2795 19.342 14.5608 19.0607C14.8421 18.7794 15.0001 18.3978 15.0001 18V17.248L16.8001 15.9C16.9577 15.7818 17.0905 15.6337 17.1908 15.4642C17.2912 15.2947 17.3572 15.1071 17.385 14.9121C17.4129 14.7171 17.4021 14.5186 17.3532 14.3277C17.3043 14.1369 17.2183 13.9576 17.1001 13.8L15.4407 11.5835" stroke="#767676" stroke-width="1.5" stroke-linecap="round" stroke-linejoin="round"/>
<path d="M20.409 22.347L19.788 19.916C19.7051 19.5848 19.7378 19.2351 19.8805 18.925C20.0232 18.6148 20.2675 18.3626 20.573 18.21L23.203 16.8866" stroke="#767676" stroke-width="1.5" stroke-linecap="round" stroke-linejoin="round"/>
</g>
<defs>
<clipPath id="clip0_1199_97">
<rect width="24" height="24" fill="white"/>
</clipPath>
</defs>
</svg>
