<svg width="24" height="24" viewBox="0 0 24 24" fill="none" xmlns="http://www.w3.org/2000/svg">
<g clip-path="url(#clip0)">
<path fill-rule="evenodd" clip-rule="evenodd" d="M7.40901 0.657011C7.83097 0.235054 8.40326 -0.0019989 9 -0.0019989H12C12.2955 -0.0019989 12.5881 0.056199 12.861 0.169272C13.134 0.282345 13.3821 0.448079 13.591 0.657011C13.7999 0.865943 13.9657 1.11398 14.0787 1.38696C14.1918 1.65995 14.25 1.95253 14.25 2.248V4.498H14.9961H17.2461C18.2407 4.498 19.1945 4.89309 19.8977 5.59635C20.601 6.29961 20.9961 7.25344 20.9961 8.248V9C20.9961 9.41422 20.6603 9.75 20.2461 9.75C19.8319 9.75 19.4961 9.41422 19.4961 9V8.248C19.4961 7.65126 19.259 7.07897 18.8371 6.65701C18.4151 6.23505 17.8428 5.998 17.2461 5.998H15.7461V8.999C15.7461 9.41321 15.4103 9.749 14.9961 9.749C14.5819 9.749 14.2461 9.41321 14.2461 8.999V5.998H13.5H7.5H6.74609V19.498H9.00009C9.41431 19.498 9.75009 19.8338 9.75009 20.248C9.75009 20.6622 9.41431 20.998 9.00009 20.998H5.99609H3.74609C2.75153 20.998 1.7977 20.6029 1.09444 19.8997C0.391182 19.1964 -0.00390625 18.2426 -0.00390625 17.248V8.248C-0.00390625 7.25344 0.391182 6.29961 1.09444 5.59635C1.7977 4.89309 2.75153 4.498 3.74609 4.498H5.99609H6.75V2.248C6.75 1.65126 6.98705 1.07897 7.40901 0.657011ZM12.75 2.248V4.498H8.25V2.248C8.25 2.04909 8.32902 1.85832 8.46967 1.71767C8.61032 1.57702 8.80109 1.498 9 1.498H12C12.0985 1.498 12.196 1.5174 12.287 1.55509C12.378 1.59278 12.4607 1.64803 12.5303 1.71767C12.6 1.78731 12.6552 1.86999 12.6929 1.96099C12.7306 2.05198 12.75 2.14951 12.75 2.248ZM3.74609 5.998C3.14936 5.998 2.57706 6.23505 2.1551 6.65701C1.73315 7.07897 1.49609 7.65126 1.49609 8.248V17.248C1.49609 17.8447 1.73315 18.417 2.1551 18.839C2.57706 19.2609 3.14936 19.498 3.74609 19.498H5.24609V5.998H3.74609ZM11.9961 17.248C11.9961 15.0966 13.2902 13.2475 15.1424 12.4365L16.4997 14.2495L16.5001 14.25C16.5592 14.3288 16.6022 14.4185 16.6266 14.5139C16.6511 14.6093 16.6565 14.7086 16.6426 14.8061C16.6286 14.9036 16.5956 14.9974 16.5455 15.0821C16.4954 15.1667 16.4291 15.2406 16.3505 15.2997L16.3505 15.2997L16.3501 15.3L14.5505 16.6477C14.3614 16.7893 14.2501 17.0117 14.2501 17.248V18C14.2501 18.1989 14.1711 18.3897 14.0304 18.5303C13.8898 18.671 13.699 18.75 13.5001 18.75H12.2141C12.0723 18.2741 11.9961 17.77 11.9961 17.248ZM17.7001 13.35L16.7083 12.0252C16.8851 12.0072 17.0645 11.998 17.2461 11.998C19.8688 11.998 22.0424 13.9212 22.4334 16.4343L20.2379 17.539L20.2368 17.5396C19.7791 17.7685 19.4131 18.1465 19.1992 18.6114C18.9851 19.0767 18.9361 19.6011 19.0604 20.098L19.0613 20.1016L19.5392 21.9721C18.8463 22.309 18.0683 22.498 17.2461 22.498C15.4629 22.498 13.8874 21.609 12.9385 20.25H13.5001C14.0968 20.25 14.6691 20.0129 15.0911 19.591C15.5131 19.169 15.7501 18.5967 15.7501 18V17.6233L17.2497 16.5003L17.2501 16.5C17.4865 16.3227 17.6856 16.1006 17.8362 15.8464C17.9867 15.5921 18.0857 15.3107 18.1275 15.0182C18.1693 14.7257 18.153 14.4278 18.0797 14.1416C18.0064 13.8554 17.8774 13.5865 17.7002 13.3502L17.7001 13.35ZM20.8546 21.0613C21.666 20.2932 22.2324 19.269 22.4243 18.118L20.9101 18.88L20.9081 18.881C20.7553 18.9573 20.6332 19.0834 20.5618 19.2385C20.4907 19.3931 20.4743 19.5673 20.5152 19.7325L20.8546 21.0613ZM17.2461 10.498C13.5182 10.498 10.4961 13.5201 10.4961 17.248C10.4961 20.9759 13.5182 23.998 17.2461 23.998C20.974 23.998 23.9961 20.9759 23.9961 17.248C23.9961 13.5201 20.974 10.498 17.2461 10.498Z" fill="#474445"/>
</g>
<defs>
<clipPath id="clip0">
<rect width="24" height="24" fill="white"/>
</clipPath>
</defs>
</svg>
