<svg width="25" height="25" viewBox="0 0 25 25" fill="none" xmlns="http://www.w3.org/2000/svg">
<path d="M21.0903 9.37556V8.59235C21.0903 7.76368 20.7611 6.96896 20.1752 6.383C19.5892 5.79705 18.7945 5.46786 17.9658 5.46786H3.90561C3.07695 5.46786 2.28222 5.79705 1.69627 6.383C1.11031 6.96896 0.781123 7.76368 0.781123 8.59235V17.9658C0.781123 18.7945 1.11031 19.5892 1.69627 20.1752C2.28222 20.7611 3.07695 21.0903 3.90561 21.0903H9.38161" stroke="#71717A" stroke-width="1.5" stroke-linecap="round" stroke-linejoin="round"/>
<path d="M6.24898 5.46786V21.0903" stroke="#71717A" stroke-width="1.5" stroke-linecap="round" stroke-linejoin="round"/>
<path d="M15.6225 5.46786V9.37452" stroke="#71717A" stroke-width="1.5" stroke-linecap="round" stroke-linejoin="round"/>
<path d="M7.8153 5.46786V2.34337C7.8153 1.92904 7.97989 1.53167 8.27287 1.23869C8.56585 0.945716 8.96321 0.781123 9.37754 0.781123H12.502C12.7072 0.781123 12.9103 0.821532 13.0999 0.900042C13.2894 0.978552 13.4616 1.09363 13.6067 1.23869C13.7518 1.38376 13.8669 1.55598 13.9454 1.74552C14.0239 1.93506 14.0643 2.13821 14.0643 2.34337V5.33975" stroke="#71717A" stroke-width="1.5" stroke-linecap="round" stroke-linejoin="round"/>
<path d="M17.9658 24.2148C21.417 24.2148 24.2148 21.417 24.2148 17.9658C24.2148 14.5146 21.417 11.7168 17.9658 11.7168C14.5146 11.7168 11.7168 14.5146 11.7168 17.9658C11.7168 21.417 14.5146 24.2148 17.9658 24.2148Z" stroke="#71717A" stroke-width="1.5" stroke-linecap="round" stroke-linejoin="round"/>
<path d="M12.172 20.3113H14.0644C14.4787 20.3113 14.8761 20.1467 15.1691 19.8537C15.462 19.5607 15.6266 19.1634 15.6266 18.749V17.9658L17.5013 16.5619C17.6655 16.4388 17.8037 16.2846 17.9083 16.108C18.0128 15.9315 18.0815 15.7361 18.1105 15.533C18.1395 15.3299 18.1283 15.1231 18.0774 14.9244C18.0264 14.7256 17.9369 14.5389 17.8138 14.3747L16.0855 12.0663" stroke="#71717A" stroke-width="1.5" stroke-linecap="round" stroke-linejoin="round"/>
<path d="M21.26 23.2764L20.6132 20.7445C20.5269 20.3995 20.5609 20.0354 20.7096 19.7124C20.8582 19.3893 21.1126 19.1266 21.4308 18.9677L24.17 17.5894" stroke="#71717A" stroke-width="1.5" stroke-linecap="round" stroke-linejoin="round"/>
</svg>
