<svg width="24" height="24" viewBox="0 0 24 24" fill="none" xmlns="http://www.w3.org/2000/svg">
<path d="M9.07692 18.6923L5.84615 21V16.3846H2.61538C2.18696 16.3846 1.77608 16.2225 1.47314 15.934C1.17019 15.6455 1 15.2542 1 14.8462V2.53846C1 2.13044 1.17019 1.73912 1.47314 1.45061C1.77608 1.16209 2.18696 1 2.61538 1H21.3846C21.813 1 22.2239 1.16209 22.5269 1.45061C22.8298 1.73912 23 2.13044 23 2.53846V7.15385M5.993 10.7C6.93861 11.2004 7.95132 11.5621 9 11.774M8 5V6.5M16 5V6.5M20.5 20.3333H22C22.5523 20.3333 23 19.8856 23 19.3333V14C23 13.4477 22.5523 13 22 13H14C13.4477 13 13 13.4477 13 14V19.3333C13 19.8856 13.4477 20.3333 14 20.3333H16.75L20.5 23V20.3333Z" stroke="#767676" stroke-width="1.5" stroke-linecap="round" stroke-linejoin="round"/>
</svg>
