<svg width="24" height="24" viewBox="0 0 24 24" fill="none" xmlns="http://www.w3.org/2000/svg">
<g clip-path="url(#clip0_1199_29)">
<path d="M16.5201 7.50246C16.5201 7.91667 16.8559 8.25246 17.2701 8.25246C17.6843 8.25246 18.0201 7.91667 18.0201 7.50246H16.5201ZM7.54341 21.0036C7.95763 21.0036 8.29341 20.6678 8.29341 20.2536C8.29341 19.8394 7.95763 19.5036 7.54341 19.5036V21.0036ZM16.686 3.91671L16.1551 4.44638L16.686 3.91671ZM18.0201 7.50246V5.32916H16.5201V7.50246H18.0201ZM17.217 3.38704L14.9392 1.10351L13.8772 2.16285L16.1551 4.44638L17.217 3.38704ZM12.2842 0.00186157H2.80957V1.50186H12.2842V0.00186157ZM0.0595703 2.75186V18.2536H1.55957V2.75186H0.0595703ZM2.80957 21.0036H7.54341V19.5036H2.80957V21.0036ZM0.0595703 18.2536C0.0595703 19.7724 1.29079 21.0036 2.80957 21.0036V19.5036C2.11921 19.5036 1.55957 18.9439 1.55957 18.2536H0.0595703ZM2.80957 0.00186157C1.29079 0.00186157 0.0595703 1.23308 0.0595703 2.75186H1.55957C1.55957 2.06151 2.11921 1.50186 2.80957 1.50186V0.00186157ZM14.9392 1.10351C14.2356 0.398229 13.2804 0.00186157 12.2842 0.00186157V1.50186C12.8819 1.50186 13.4551 1.73968 13.8772 2.16285L14.9392 1.10351ZM18.0201 5.32916C18.0201 4.601 17.7313 3.90256 17.217 3.38704L16.1551 4.44638C16.3888 4.68071 16.5201 4.99818 16.5201 5.32916H18.0201Z" fill="#767676"/>
<path d="M4.9248 6.00235H13.1551" stroke="#767676" stroke-width="1.5" stroke-linecap="round"/>
<path d="M4.9248 10.8777H10.1622" stroke="#767676" stroke-width="1.5" stroke-linecap="round"/>
<path d="M4.9248 15.7532H7.16942" stroke="#767676" stroke-width="1.5" stroke-linecap="round"/>
<ellipse cx="17.2698" cy="17.2533" rx="5.98564" ry="6.00053" stroke="#767676" stroke-width="1.5"/>
<path d="M14.5 17.5L16.584 19.1672C16.8093 19.3475 17.1401 19.3001 17.3058 19.0637L19.8889 15.3782" stroke="#767676" stroke-width="1.5" stroke-linecap="round" stroke-linejoin="round"/>
</g>
<defs>
<clipPath id="clip0_1199_29">
<rect width="24" height="24" fill="white"/>
</clipPath>
</defs>
</svg>
