<svg width="24" height="24" viewBox="0 0 24 24" fill="none" xmlns="http://www.w3.org/2000/svg">
<g clip-path="url(#clip0)">
<path fill-rule="evenodd" clip-rule="evenodd" d="M0.0595703 2.75186C0.0595703 1.23308 1.29079 0.00186157 2.80957 0.00186157H12.2842C13.2804 0.00186157 14.2356 0.398229 14.9392 1.10351L17.217 3.38704C17.7313 3.90256 18.0201 4.601 18.0201 5.32916V7.50246C18.0201 7.91667 17.6843 8.25246 17.2701 8.25246C16.8559 8.25246 16.5201 7.91667 16.5201 7.50246V5.32916C16.5201 4.99818 16.3888 4.68071 16.1551 4.44638L13.8772 2.16285C13.4551 1.73968 12.8819 1.50186 12.2842 1.50186H2.80957C2.11921 1.50186 1.55957 2.06151 1.55957 2.75186V18.2536C1.55957 18.9439 2.11921 19.5036 2.80957 19.5036H7.54341C7.95763 19.5036 8.29341 19.8394 8.29341 20.2536C8.29341 20.6678 7.95763 21.0036 7.54341 21.0036H2.80957C1.29079 21.0036 0.0595703 19.7724 0.0595703 18.2536V2.75186ZM4.1748 6.00233C4.1748 5.58811 4.51059 5.25233 4.9248 5.25233H13.1551C13.5693 5.25233 13.9051 5.58811 13.9051 6.00233C13.9051 6.41654 13.5693 6.75233 13.1551 6.75233H4.9248C4.51059 6.75233 4.1748 6.41654 4.1748 6.00233ZM4.9248 10.1277C4.51059 10.1277 4.1748 10.4635 4.1748 10.8777C4.1748 11.292 4.51059 11.6277 4.9248 11.6277H10.1622C10.5765 11.6277 10.9122 11.292 10.9122 10.8777C10.9122 10.4635 10.5765 10.1277 10.1622 10.1277H4.9248ZM4.1748 15.7532C4.1748 15.339 4.51059 15.0032 4.9248 15.0032H7.16942C7.58363 15.0032 7.91942 15.339 7.91942 15.7532C7.91942 16.1674 7.58363 16.5032 7.16942 16.5032H4.9248C4.51059 16.5032 4.1748 16.1674 4.1748 15.7532ZM17.2698 12.0028C14.38 12.0028 12.0342 14.3518 12.0342 17.2533C12.0342 20.1549 14.38 22.5039 17.2698 22.5039C20.1596 22.5039 22.5055 20.1549 22.5055 17.2533C22.5055 14.3518 20.1596 12.0028 17.2698 12.0028ZM10.5342 17.2533C10.5342 13.5269 13.5481 10.5028 17.2698 10.5028C20.9916 10.5028 24.0055 13.5269 24.0055 17.2533C24.0055 20.9798 20.9916 24.0039 17.2698 24.0039C13.5481 24.0039 10.5342 20.9798 10.5342 17.2533ZM20.3151 14.761C20.6559 14.9964 20.7414 15.4635 20.506 15.8043L17.8217 19.6914C17.2002 20.5912 15.915 20.7071 15.1427 19.9329L13.7464 18.5331C13.4538 18.2398 13.4544 17.7649 13.7477 17.4724C14.0409 17.1799 14.5158 17.1805 14.8083 17.4737L16.2047 18.8735C16.315 18.9841 16.4986 18.9676 16.5874 18.839L19.2717 14.952C19.5071 14.6111 19.9742 14.5256 20.3151 14.761Z" fill="#474445"/>
</g>
<defs>
<clipPath id="clip0">
<rect width="24" height="24" fill="white"/>
</clipPath>
</defs>
</svg>
