<svg width="24" height="24" viewBox="0 0 24 24" fill="none" xmlns="http://www.w3.org/2000/svg">
<path d="M7.476 7.084C8.28882 7.92736 9.26338 8.59813 10.3414 9.05621C11.4194 9.51429 12.5787 9.75025 13.75 9.75C14.9363 9.75034 16.1102 9.50875 17.2 9.04M18.913 20.876C18.0072 19.9645 16.9301 19.2412 15.7437 18.7476C14.5573 18.254 13.285 17.9999 12 17.9999C10.715 17.9999 9.44269 18.254 8.25628 18.7476C7.06987 19.2412 5.99278 19.9645 5.087 20.876M17.25 9.75C17.25 12.6495 14.8995 15 12 15C9.10051 15 6.75 12.6495 6.75 9.75C6.75 6.85051 9.10051 4.5 12 4.5C14.8995 4.5 17.25 6.85051 17.25 9.75ZM23.25 12C23.25 18.2132 18.2132 23.25 12 23.25C5.7868 23.25 0.75 18.2132 0.75 12C0.75 5.7868 5.7868 0.75 12 0.75C18.2132 0.75 23.25 5.7868 23.25 12Z" stroke="#474445" stroke-width="1.5" stroke-linecap="round" stroke-linejoin="round"/>
</svg>
