<svg width="24" height="24" viewBox="0 0 24 24" fill="none" xmlns="http://www.w3.org/2000/svg">
<path d="M12 15C14.8995 15 17.25 12.6495 17.25 9.75C17.25 6.85051 14.8995 4.5 12 4.5C9.10051 4.5 6.75 6.85051 6.75 9.75C6.75 12.6495 9.10051 15 12 15Z" stroke="#71717A" stroke-width="1.5" stroke-linecap="round" stroke-linejoin="round"/>
<path d="M12 23.25C18.2132 23.25 23.25 18.2132 23.25 12C23.25 5.7868 18.2132 0.75 12 0.75C5.7868 0.75 0.75 5.7868 0.75 12C0.75 18.2132 5.7868 23.25 12 23.25Z" stroke="#71717A" stroke-width="1.5" stroke-linecap="round" stroke-linejoin="round"/>
<path d="M7.47607 7.084C8.28889 7.92736 9.26345 8.59813 10.3415 9.05621C11.4195 9.51428 12.5788 9.75025 13.7501 9.75C14.9148 9.75033 16.0676 9.51745 17.1406 9.06533" stroke="#71717A" stroke-width="1.5" stroke-linecap="round" stroke-linejoin="round"/>
<path d="M5.08691 20.876C5.9927 19.9645 7.06978 19.2412 8.25619 18.7476C9.44261 18.254 10.7149 17.9999 11.9999 17.9999C13.2849 17.9999 14.5572 18.254 15.7436 18.7476C16.9207 19.2373 17.9902 19.9532 18.8915 20.8546" stroke="#71717A" stroke-width="1.5" stroke-linecap="round" stroke-linejoin="round"/>
</svg>
