<svg width="24" height="24" viewBox="0 0 24 24" fill="none" xmlns="http://www.w3.org/2000/svg">
<path fill-rule="evenodd" clip-rule="evenodd" d="M1.5 12C1.5 6.20101 6.20101 1.5 12 1.5C17.799 1.5 22.5 6.20101 22.5 12C22.5 15.1365 21.1248 17.9517 18.9445 19.8757C18.0813 19.1141 17.0975 18.4985 16.0317 18.0551C14.754 17.5235 13.3838 17.2499 11.9999 17.2499C10.616 17.2499 9.24581 17.5235 7.9681 18.0551C6.90239 18.4985 5.9186 19.114 5.05544 19.8756C2.87516 17.9517 1.5 15.1364 1.5 12ZM4.63338 21.4734C6.66673 23.0569 9.22322 24 12 24C18.6274 24 24 18.6274 24 12C24 5.37258 18.6274 0 12 0C5.37258 0 0 5.37258 0 12C0 15.8443 1.80769 19.2664 4.61942 21.4626C4.62404 21.4662 4.62869 21.4699 4.63338 21.4734ZM6.27716 20.8048C6.96021 20.2417 7.72394 19.7813 8.54429 19.44C9.6394 18.9844 10.8138 18.7499 11.9999 18.7499C13.186 18.7499 14.3604 18.9844 15.4555 19.44C16.2759 19.7814 17.0397 20.2417 17.7227 20.8049C16.0765 21.877 14.111 22.5 12 22.5C9.88893 22.5 7.92338 21.877 6.27716 20.8048ZM7.49991 9.75C7.49991 9.25616 7.57946 8.7809 7.72645 8.33633C8.427 8.91441 9.20862 9.3898 10.048 9.74648C11.2187 10.2439 12.4777 10.5002 13.7497 10.5L7.72645 8.33633L13.7501 10.5C14.679 10.5002 15.601 10.3638 16.4867 10.0969C16.3096 12.4201 14.3685 14.25 11.9999 14.25C9.51463 14.25 7.49991 12.2353 7.49991 9.75ZM13.7501 9C14.6337 9.00025 15.5099 8.85365 16.3429 8.56752C15.8237 6.65587 14.076 5.25 11.9999 5.25C10.5583 5.25 9.27499 5.92791 8.45141 6.98234C9.09791 7.55849 9.83513 8.02622 10.6346 8.36594C11.6198 8.78458 12.6793 9.00023 13.7498 9H13.7501ZM5.99991 9.75C5.99991 8.6464 6.29787 7.61238 6.81773 6.72402C6.82549 6.70983 6.83375 6.69584 6.8425 6.68207C7.88925 4.9262 9.80722 3.75 11.9999 3.75C15.3136 3.75 17.9999 6.43629 17.9999 9.75C17.9999 13.0637 15.3136 15.75 11.9999 15.75C8.68621 15.75 5.99991 13.0637 5.99991 9.75Z" fill="#767676"/>
</svg>
