<svg width="24" height="24" viewBox="0 0 24 24" fill="none" xmlns="http://www.w3.org/2000/svg">
<path d="M10.5459 2.438C10.7294 2.6417 10.9537 2.80457 11.2042 2.91605C11.4546 3.02754 11.7258 3.08514 11.9999 3.08514C12.2741 3.08514 12.5452 3.02754 12.7957 2.91605C13.0462 2.80457 13.2704 2.6417 13.4539 2.438L14.3999 1.4C14.671 1.09995 15.0284 0.891146 15.4229 0.802265C15.8174 0.713384 16.2298 0.748776 16.6034 0.903585C16.977 1.05839 17.2935 1.32503 17.5095 1.6669C17.7256 2.00877 17.8305 2.40912 17.8099 2.813L17.7389 4.213C17.7252 4.48611 17.7688 4.75907 17.867 5.01429C17.9652 5.26951 18.1157 5.50134 18.3089 5.69484C18.5021 5.88834 18.7337 6.03922 18.9888 6.13777C19.2439 6.23631 19.5168 6.28034 19.7899 6.267L21.1899 6.196C21.5935 6.17611 21.9934 6.28152 22.3348 6.49779C22.6762 6.71407 22.9423 7.03062 23.0967 7.40407C23.2511 7.77752 23.2863 8.18958 23.1973 8.58379C23.1084 8.97799 22.8997 9.33504 22.5999 9.606L21.5579 10.546C21.3545 10.7298 21.1918 10.9542 21.0805 11.2047C20.9692 11.4552 20.9117 11.7264 20.9117 12.0005C20.9117 12.2747 20.9692 12.5458 21.0805 12.7963C21.1918 13.0468 21.3545 13.2712 21.5579 13.455L22.5999 14.395C22.9 14.6661 23.1088 15.0235 23.1977 15.418C23.2865 15.8125 23.2511 16.2249 23.0963 16.5985C22.9415 16.9721 22.6749 17.2886 22.333 17.5046C21.9911 17.7206 21.5908 17.8256 21.1869 17.805L19.7869 17.734C19.5132 17.7199 19.2396 17.7635 18.9838 17.8618C18.7279 17.9601 18.4956 18.1111 18.3018 18.3049C18.108 18.4987 17.9571 18.731 17.8587 18.9869C17.7604 19.2427 17.7168 19.5163 17.7309 19.79L17.8019 21.19C17.8198 21.5919 17.7136 21.9895 17.4976 22.3289C17.2817 22.6682 16.9665 22.9329 16.5949 23.0869C16.2233 23.2409 15.8133 23.2768 15.4206 23.1897C15.0279 23.1026 14.6715 22.8967 14.3999 22.6L13.4589 21.559C13.2752 21.3556 13.0509 21.193 12.8005 21.0817C12.55 20.9704 12.279 20.9128 12.0049 20.9128C11.7308 20.9128 11.4598 20.9704 11.2094 21.0817C10.9589 21.193 10.7346 21.3556 10.5509 21.559L9.60592 22.6C9.33473 22.8981 8.97821 23.1053 8.58497 23.1934C8.19172 23.2814 7.78088 23.2461 7.40846 23.0921C7.03604 22.9382 6.72016 22.6731 6.50389 22.3331C6.28761 21.993 6.18147 21.5946 6.19992 21.192L6.27192 19.792C6.286 19.5183 6.24246 19.2447 6.14411 18.9889C6.04577 18.733 5.89482 18.5007 5.70102 18.3069C5.50722 18.1131 5.27489 17.9622 5.01907 17.8638C4.76325 17.7655 4.48963 17.7219 4.21592 17.736L2.81592 17.807C2.4122 17.8281 2.01186 17.7237 1.66986 17.5081C1.32785 17.2926 1.06095 16.9764 0.905801 16.6031C0.750649 16.2298 0.714851 15.8176 0.803323 15.4232C0.891794 15.0287 1.1002 14.6713 1.39992 14.4L2.44092 13.46C2.64437 13.2762 2.807 13.0518 2.91831 12.8013C3.02962 12.5508 3.08713 12.2797 3.08713 12.0055C3.08713 11.7314 3.02962 11.4602 2.91831 11.2097C2.807 10.9592 2.64437 10.7348 2.44092 10.551L1.39992 9.606C1.10117 9.33501 0.893402 8.97836 0.80502 8.58481C0.716638 8.19126 0.751954 7.78002 0.906141 7.4073C1.06033 7.03458 1.32586 6.71858 1.66644 6.50248C2.00702 6.28639 2.40603 6.18075 2.80892 6.2L4.20892 6.271C4.48315 6.28542 4.75734 6.242 5.0137 6.14354C5.27005 6.04509 5.50282 5.89382 5.69691 5.69955C5.89099 5.50528 6.04204 5.27235 6.14024 5.0159C6.23844 4.75946 6.2816 4.48522 6.26692 4.211L6.19992 2.81C6.18102 2.40727 6.28685 2.00851 6.50296 1.66815C6.71907 1.32778 7.03494 1.06238 7.40746 0.908167C7.77998 0.753953 8.19101 0.718434 8.58446 0.806457C8.97791 0.89448 9.33462 1.10176 9.60592 1.4L10.5459 2.438Z" stroke="#71717A" stroke-width="1.5" stroke-linecap="round" stroke-linejoin="round"/>
<path d="M12 16C14.2091 16 16 14.2091 16 12C16 9.79086 14.2091 8 12 8C9.79086 8 8 9.79086 8 12C8 14.2091 9.79086 16 12 16Z" stroke="#71717A" stroke-width="1.5" stroke-linecap="round" stroke-linejoin="round"/>
</svg>
