<svg width="24" height="24" viewBox="0 0 24 24" fill="none" xmlns="http://www.w3.org/2000/svg">
<path fill-rule="evenodd" clip-rule="evenodd" d="M16.3163 1.59646C16.0857 1.50092 15.8312 1.47907 15.5877 1.53393C15.3443 1.58878 15.1237 1.71764 14.9564 1.90282L14.9542 1.9052L14.0111 2.94C14.0106 2.94061 14.01 2.94122 14.0095 2.94183C13.756 3.22274 13.4464 3.44738 13.1006 3.60125C12.7542 3.75546 12.3792 3.83514 11.9999 3.83514C11.6207 3.83514 11.2457 3.75546 10.8992 3.60125C10.5531 3.44721 10.2432 3.22223 9.98948 2.94088C9.98922 2.94058 9.98895 2.94029 9.98869 2.94L9.05111 1.90467C9.05096 1.9045 9.0508 1.90433 9.05065 1.90417C8.88328 1.72037 8.66331 1.59264 8.42072 1.53837C8.1779 1.48404 7.92423 1.50596 7.69433 1.60114C7.46443 1.69631 7.26949 1.8601 7.13612 2.07016C7.00276 2.2802 6.93744 2.52628 6.94909 2.77481C6.94909 2.77482 6.94909 2.77484 6.94909 2.77486L7.01596 4.17314C7.03592 4.55164 6.97619 4.93013 6.84064 5.28411C6.70483 5.63879 6.49592 5.96094 6.2275 6.22962C5.95907 6.49831 5.63713 6.70752 5.28258 6.84369C4.92822 6.97978 4.5492 7.03985 4.17012 7.02C4.16993 7.01999 4.16973 7.01998 4.16954 7.01997L2.77311 6.94915C2.77279 6.94913 2.77246 6.94912 2.77214 6.9491C2.5239 6.93744 2.2781 7.00262 2.06825 7.13576C1.85813 7.26909 1.69431 7.46405 1.59918 7.694C1.50405 7.92395 1.48227 8.17766 1.53679 8.42047C1.59132 8.66327 1.7195 8.88331 1.90382 9.0505L1.90403 9.05069L2.94364 9.99444C2.94385 9.99463 2.94407 9.99482 2.94428 9.99501C3.22528 10.249 3.44992 10.559 3.60371 10.9052C3.75761 11.2516 3.83713 11.6264 3.83713 12.0055C3.83713 12.3846 3.75761 12.7594 3.60371 13.1058C3.4498 13.4522 3.22494 13.7625 2.94364 14.0166L2.94356 14.0167L1.90322 14.9561C1.90318 14.9561 1.90314 14.9561 1.9031 14.9562C1.71825 15.1235 1.58971 15.344 1.53514 15.5873C1.48056 15.8307 1.50265 16.085 1.59837 16.3153C1.69409 16.5456 1.85875 16.7406 2.06976 16.8736C2.28076 17.0066 2.52775 17.071 2.77683 17.058L2.77793 17.058L4.17739 16.987C4.55595 16.9675 4.93437 17.0277 5.28819 17.1638C5.642 17.2998 5.96332 17.5085 6.23135 17.7766C6.49938 18.0446 6.70816 18.3659 6.84417 18.7197C6.98018 19.0736 7.0404 19.452 7.02093 19.8305L6.94913 21.2263C6.9491 21.227 6.94908 21.2276 6.94905 21.2282C6.93807 21.476 7.00359 21.7212 7.13673 21.9305C7.2702 22.1404 7.46515 22.304 7.69499 22.399C7.92482 22.494 8.17837 22.5158 8.42107 22.4615C8.66355 22.4072 8.8834 22.2795 9.0507 22.0958C9.05085 22.0956 9.051 22.0955 9.05115 22.0953L9.99426 21.0564C9.99454 21.0561 9.99482 21.0558 9.9951 21.0555C10.2489 20.7746 10.5588 20.55 10.9048 20.3963C11.2511 20.2424 11.6259 20.1628 12.0049 20.1628C12.3839 20.1628 12.7587 20.2424 13.1051 20.3963C13.4513 20.5501 13.7614 20.7749 14.0153 21.0561C14.0154 21.0562 14.0155 21.0563 14.0156 21.0564L14.9531 22.0936C14.9536 22.0941 14.9541 22.0946 14.9546 22.0951C15.122 22.2774 15.3414 22.4039 15.583 22.4575C15.8254 22.5113 16.0784 22.4891 16.3078 22.3941C16.5371 22.299 16.7316 22.1357 16.8649 21.9262C16.9978 21.7174 17.0634 21.4727 17.0528 21.2254C17.0527 21.2247 17.0527 21.2241 17.0527 21.2234L16.9819 19.8285C16.9624 19.45 17.0227 19.0716 17.1587 18.7177C17.2947 18.3639 17.5035 18.0426 17.7715 17.7746C18.0395 17.5065 18.3608 17.2978 18.7147 17.1618C19.0685 17.0257 19.4469 16.9655 19.8254 16.985L21.2249 17.056L21.2251 17.056C21.4743 17.0687 21.7214 17.0039 21.9324 16.8706C22.1434 16.7373 22.3079 16.5419 22.4035 16.3114C22.499 16.0808 22.5208 15.8263 22.466 15.5828C22.4112 15.3395 22.2824 15.1191 22.0974 14.9518C22.0973 14.9517 22.0972 14.9516 22.0971 14.9515L21.0555 14.0119L21.0552 14.0116C20.7739 13.7575 20.549 13.4472 20.3951 13.1008C20.2412 12.7544 20.1617 12.3796 20.1617 12.0005C20.1617 11.6214 20.2412 11.2466 20.3951 10.9002C20.549 10.5538 20.7739 10.2435 21.0552 9.98944L21.0555 9.98912L22.097 9.04958C22.2821 8.88236 22.4108 8.662 22.4657 8.41872C22.5206 8.17544 22.4989 7.92113 22.4036 7.69065C22.3083 7.46018 22.1441 7.26482 21.9334 7.13134C21.7229 6.99794 21.4762 6.93289 21.2273 6.94508C21.2271 6.94508 21.227 6.94509 21.2268 6.9451L19.8279 7.01604L19.8265 7.01611C19.4487 7.03455 19.0713 6.97367 18.7185 6.83737C18.3658 6.70108 18.0454 6.4924 17.7782 6.22478C17.511 5.95716 17.3028 5.63653 17.167 5.28355C17.0312 4.93057 16.9709 4.55306 16.9899 4.17534L16.9899 4.17502L17.0609 2.77502L17.0609 2.77486C17.0736 2.5256 17.0088 2.27852 16.8755 2.06754C16.7422 1.85655 16.5468 1.692 16.3163 1.59646ZM15.2581 0.0706036C15.8036 -0.0523058 16.3738 -0.00336349 16.8905 0.210714C17.4071 0.42479 17.8448 0.79351 18.1436 1.26627C18.4423 1.73902 18.5874 2.29265 18.5589 2.85115L18.488 4.25067C18.4795 4.41916 18.5064 4.58756 18.567 4.74503C18.6276 4.90249 18.7204 5.04551 18.8396 5.16489C18.9588 5.28428 19.1017 5.37736 19.2591 5.43816C19.4163 5.49889 19.5844 5.52606 19.7527 5.51793C19.7529 5.51792 19.7531 5.51791 19.7533 5.5179L21.1519 5.44697L21.153 5.44692C21.7111 5.4194 22.2641 5.56517 22.7362 5.86424C23.2083 6.16332 23.5763 6.60107 23.7898 7.11749C24.0033 7.63391 24.0519 8.20373 23.929 8.74885C23.806 9.29398 23.5174 9.78773 23.1028 10.1624L23.1023 10.1629L22.0606 11.1026C21.935 11.216 21.8346 11.3546 21.7659 11.5092C21.6972 11.6639 21.6617 11.8313 21.6617 12.0005C21.6617 12.1698 21.6972 12.3371 21.7659 12.4918C21.8346 12.6464 21.935 12.785 22.0606 12.8984C22.0606 12.8984 22.0606 12.8984 22.0606 12.8984L23.1023 13.8381L23.1027 13.8385C23.5177 14.2134 23.8064 14.7076 23.9293 15.2531C24.0522 15.7987 24.0033 16.3689 23.7892 16.8856C23.5751 17.4022 23.2064 17.8399 22.7337 18.1386C22.2609 18.4374 21.7073 18.5825 21.1488 18.554L19.7489 18.483L19.7484 18.483C19.5795 18.4743 19.4107 18.5012 19.2529 18.5619C19.095 18.6225 18.9517 18.7157 18.8321 18.8352C18.7126 18.9548 18.6194 19.0981 18.5588 19.256C18.4981 19.4138 18.4712 19.5826 18.4799 19.7515L18.48 19.752L18.551 21.152L18.5512 21.1566C18.5759 21.7123 18.429 22.2622 18.1304 22.7315C17.8318 23.2008 17.3959 23.5668 16.8821 23.7798C16.3682 23.9927 15.8012 24.0424 15.2582 23.9219C14.7151 23.8014 14.2223 23.5167 13.8467 23.1064L13.8435 23.1029L13.8435 23.1029L12.9025 22.0619L12.9023 22.0616C12.7889 21.9361 12.6505 21.8357 12.4959 21.767C12.3413 21.6983 12.1741 21.6628 12.0049 21.6628C11.8358 21.6628 11.6685 21.6983 11.5139 21.767C11.3594 21.8357 11.2209 21.9361 11.1076 22.0616L11.1062 22.0631L10.1612 23.1041L10.1607 23.1047C9.78567 23.5169 9.29266 23.8034 8.74886 23.9252C8.20507 24.047 7.63694 23.9981 7.12194 23.7852C6.60694 23.5723 6.17013 23.2058 5.87105 22.7356C5.57197 22.2654 5.42519 21.7143 5.45071 21.1577L5.45091 21.1535L5.52291 19.7535L6.27192 19.792L5.52291 19.7535C5.5316 19.5846 5.50473 19.4158 5.44406 19.258C5.38339 19.1001 5.29025 18.9568 5.17069 18.8372C5.05112 18.7177 4.90779 18.6245 4.74996 18.5639C4.59212 18.5032 4.42331 18.4763 4.25445 18.485L4.25391 18.485L2.85501 18.556C2.85473 18.556 2.85445 18.556 2.85417 18.556C2.2961 18.585 1.74273 18.4406 1.26996 18.1426C0.796951 17.8445 0.427818 17.4073 0.213236 16.891C-0.00134647 16.3747 -0.0508564 15.8046 0.0715031 15.259C0.193863 14.7135 0.482092 14.2192 0.896622 13.844L0.89728 13.8434L1.9382 12.9034C2.06379 12.79 2.16419 12.6515 2.23291 12.4968C2.30163 12.3421 2.33713 12.1748 2.33713 12.0055C2.33713 11.8363 2.30163 11.6689 2.23291 11.5142C2.16419 11.3596 2.06379 11.221 1.9382 11.1076L1.93681 11.1063L0.896018 10.1615C0.895949 10.1614 0.895881 10.1614 0.895813 10.1613C0.482738 9.78654 0.195463 9.29335 0.0732469 8.74915C-0.0489891 8.20485 -0.000145316 7.63609 0.213101 7.1206C0.426348 6.60512 0.793591 6.16807 1.26463 5.8692C1.73567 5.57033 2.28751 5.42423 2.84473 5.45086L2.84691 5.45096L4.24691 5.52197L4.2483 5.52204C4.41748 5.53093 4.58665 5.50414 4.74481 5.4434C4.90297 5.38266 5.04658 5.28933 5.16632 5.16948C5.28606 5.04962 5.37925 4.90592 5.43984 4.7477C5.50042 4.58948 5.52705 4.42029 5.51799 4.25111L5.51776 4.24683L5.51778 4.24683L5.45078 2.84583L5.45074 2.84515C5.42461 2.28823 5.57096 1.73681 5.86981 1.26613C6.16865 0.795459 6.60545 0.428454 7.12059 0.2152C7.63572 0.00194508 8.20411 -0.0471723 8.7482 0.0745499C9.29228 0.196272 9.78556 0.482904 10.1607 0.895336L10.1618 0.896566L11.1018 1.93457L11.1032 1.93601C11.2163 2.06165 11.3546 2.1621 11.5091 2.23086C11.6636 2.29961 11.8308 2.33514 11.9999 2.33514C12.169 2.33514 12.3362 2.29961 12.4907 2.23086C12.6452 2.1621 12.7835 2.06165 12.8967 1.93601L12.8996 1.9328L12.8996 1.93281L13.8434 0.897187C13.8438 0.896757 13.8442 0.896327 13.8446 0.895897C14.2194 0.481652 14.7131 0.193386 15.2581 0.0706036ZM12 8.75C10.2051 8.75 8.75 10.2051 8.75 12C8.75 13.7949 10.2051 15.25 12 15.25C13.7949 15.25 15.25 13.7949 15.25 12C15.25 10.2051 13.7949 8.75 12 8.75ZM7.25 12C7.25 9.37665 9.37665 7.25 12 7.25C14.6234 7.25 16.75 9.37665 16.75 12C16.75 14.6234 14.6234 16.75 12 16.75C9.37665 16.75 7.25 14.6234 7.25 12Z" fill="#474445"/>
</svg>
