<svg width="24" height="24" viewBox="0 0 24 24" fill="none" xmlns="http://www.w3.org/2000/svg">
<path fill-rule="evenodd" clip-rule="evenodd" d="M2.25 2.25C2.25 1.83579 2.58579 1.5 3 1.5H7.5C7.91421 1.5 8.25 1.83579 8.25 2.25V4.5H2.25V2.25ZM0.75 5.25V2.25C0.75 1.00736 1.75736 0 3 0H7.5C8.74264 0 9.75 1.00736 9.75 2.25V5.25V9.75V14.25V18.253L16.0484 4.24483C16.0836 4.15635 16.1017 4.06194 16.1016 3.96665C16.1015 3.86815 16.0819 3.77064 16.0442 3.67969C16.0064 3.58874 15.951 3.50611 15.8813 3.43655C15.8116 3.36698 15.7288 3.31183 15.6378 3.27424L15.6378 3.27424L11.4788 1.55724C11.0959 1.39918 10.9137 0.960668 11.0718 0.577799C11.2298 0.19493 11.6683 0.0126889 12.0512 0.170753L16.2102 1.88775L16.2102 1.88776C16.4833 2.00053 16.7316 2.16599 16.9408 2.37469C17.1499 2.58339 17.3159 2.83125 17.4293 3.10412C17.5427 3.37699 17.6012 3.66952 17.6016 3.965C17.6019 4.26049 17.544 4.55314 17.4312 4.82626C17.4283 4.83341 17.4252 4.84051 17.422 4.84756L10.6443 19.9219L21.5131 10.6752C21.5825 10.6104 21.6389 10.5329 21.6794 10.4469C21.7213 10.3577 21.7453 10.2612 21.7499 10.1629C21.7546 10.0645 21.7398 9.96614 21.7064 9.87347C21.6731 9.78079 21.6218 9.6956 21.5555 9.62275L18.5266 6.29483C18.2477 5.9885 18.2701 5.51415 18.5764 5.23534C18.8827 4.95653 19.3571 4.97884 19.6359 5.28517L22.6649 8.61317L22.665 8.61325C22.8638 8.8318 23.0177 9.08738 23.1178 9.36539C23.2178 9.64341 23.2622 9.93841 23.2483 10.2336C23.2343 10.5287 23.1624 10.8182 23.0366 11.0856C22.9108 11.3529 22.7335 11.5929 22.5149 11.7917C22.5088 11.7974 22.5025 11.8029 22.4962 11.8082L9.40802 22.943C9.01024 23.5779 8.30442 24 7.5 24H3C1.75736 24 0.75 22.9926 0.75 21.75V14.25V9.75V5.25ZM2.25 15V21.75C2.25 22.1642 2.58579 22.5 3 22.5H7.5C7.78315 22.5 8.02964 22.3431 8.15729 22.1115C8.16055 22.1052 8.16389 22.0989 8.16734 22.0926C8.21852 21.9931 8.2481 21.8807 8.24991 21.7616C8.24976 21.7521 8.24979 21.7425 8.25 21.7329V15H2.25ZM8.25 13.5H2.25V10.5H8.25V13.5ZM8.25 6V9H2.25V6H8.25Z" fill="#474445"/>
</svg>
