<svg width="24" height="24" viewBox="0 0 24 24" fill="none" xmlns="http://www.w3.org/2000/svg">
<path d="M7.5 0.75H3C2.17157 0.75 1.5 1.42157 1.5 2.25V21.75C1.5 22.5784 2.17157 23.25 3 23.25H7.5C8.32843 23.25 9 22.5784 9 21.75V2.25C9 1.42157 8.32843 0.75 7.5 0.75Z" stroke="#71717A" stroke-width="1.5" stroke-linecap="round" stroke-linejoin="round"/>
<path d="M9 21.75L16.738 4.54C16.8132 4.35792 16.8518 4.16282 16.8516 3.96583C16.8513 3.76884 16.8123 3.57382 16.7367 3.39191C16.6612 3.20999 16.5505 3.04475 16.411 2.90562C16.2716 2.76648 16.1061 2.65618 15.924 2.581L11.833 0.892076" stroke="#71717A" stroke-width="1.5" stroke-linecap="round" stroke-linejoin="round"/>
<path d="M8.82422 22.455L22.0102 11.237C22.1559 11.1044 22.2741 10.9445 22.358 10.7662C22.4419 10.588 22.4898 10.395 22.4991 10.1982C22.5084 10.0014 22.4788 9.80477 22.4121 9.61943C22.3454 9.43409 22.2428 9.2637 22.1102 9.118L19.1386 5.85308" stroke="#71717A" stroke-width="1.5" stroke-linecap="round" stroke-linejoin="round"/>
<path d="M1.5 5.25H9" stroke="#71717A" stroke-width="1.5" stroke-linecap="round" stroke-linejoin="round"/>
<path d="M1.5 9.75H9" stroke="#71717A" stroke-width="1.5" stroke-linecap="round" stroke-linejoin="round"/>
<path d="M1.5 14.25H9" stroke="#71717A" stroke-width="1.5" stroke-linecap="round" stroke-linejoin="round"/>
</svg>
