<svg width="24" height="24" viewBox="0 0 24 24" fill="none" xmlns="http://www.w3.org/2000/svg">
<path d="M23.0349 11.4369L22.05 2.49096C22.0065 2.09553 21.8077 1.73358 21.4973 1.48475C21.1869 1.23592 20.7903 1.12059 20.3949 1.16412L4.49099 2.91507C4.09556 2.95861 3.73361 3.15745 3.48478 3.46785C3.23595 3.77825 3.12062 4.17478 3.16415 4.57021L3.3528 6.28369" stroke="#71717A" stroke-width="1.5" stroke-linecap="round" stroke-linejoin="round"/>
<path d="M18.5385 9H2.46154C1.65435 9 1 9.65979 1 10.4737V21.5263C1 22.3402 1.65435 23 2.46154 23H18.5385C19.3456 23 20 22.3402 20 21.5263V10.4737C20 9.65979 19.3456 9 18.5385 9Z" stroke="#71717A" stroke-width="1.5" stroke-linecap="round" stroke-linejoin="round"/>
<path d="M1 19H20" stroke="#71717A" stroke-width="1.5" stroke-linecap="round" stroke-linejoin="round"/>
<path d="M5 13H7" stroke="#71717A" stroke-width="1.5" stroke-linecap="round" stroke-linejoin="round"/>
<path d="M7.41357 6.61749L9.65006 6.37127" stroke="#71717A" stroke-width="1.5" stroke-linecap="round" stroke-linejoin="round"/>
</svg>
