<svg width="24" height="24" viewBox="0 0 24 24" fill="none" xmlns="http://www.w3.org/2000/svg">
<path fill-rule="evenodd" clip-rule="evenodd" d="M11.9999 0.750198C11.1066 0.750198 10.2379 1.04258 9.52634 1.5827C9.03815 1.95329 8.64238 2.42653 8.36447 2.96502C7.79057 2.79614 7.18282 2.75588 6.58526 2.85168C5.71041 2.99194 4.90598 3.41605 4.29596 4.05863L4.29584 4.05875C3.68095 4.70675 3.28047 5.52834 3.14881 6.41189C3.05534 7.03917 3.10059 7.67608 3.27757 8.27873C2.73945 8.58815 2.27208 9.01224 1.91058 9.52437C1.39942 10.2485 1.125 11.1131 1.125 11.9995C1.125 12.8859 1.39942 13.7505 1.91058 14.4746C2.27208 14.9868 2.73945 15.4109 3.27757 15.7203C3.10059 16.3229 3.05534 16.9598 3.14881 17.5871C3.28047 18.4707 3.68095 19.2923 4.29584 19.9403C4.90571 20.583 5.71006 21.0073 6.5849 21.1478C7.18253 21.2438 7.79039 21.2037 8.36441 21.0349C8.64232 21.5734 9.03811 22.0467 9.52634 22.4173C10.2379 22.9574 11.1066 23.2498 11.9999 23.2498C12.8932 23.2498 13.7619 22.9574 14.4734 22.4173C14.9616 22.0467 15.3574 21.5735 15.6353 21.035C16.2092 21.2038 16.8169 21.2439 17.4145 21.148C18.2892 21.0074 19.0935 20.583 19.7031 19.94C20.318 19.2922 20.7186 18.4708 20.8505 17.5875C20.9438 16.9621 20.8993 16.3272 20.7238 15.7262C21.2656 15.4195 21.736 14.9956 22.0988 14.4818C22.6111 13.7562 22.8825 12.888 22.8749 12C22.8826 11.1118 22.6112 10.2436 22.099 9.51786C21.7362 9.00389 21.2656 8.57981 20.7238 8.27297C20.8993 7.67189 20.9438 7.03691 20.8505 6.41155C20.7186 5.52809 20.318 4.70664 19.703 4.0588C19.0932 3.41607 18.2889 2.99184 17.4141 2.85155C16.8167 2.75574 16.209 2.79601 15.6353 2.96491C15.3573 2.42647 14.9616 1.95326 14.4734 1.5827C13.7619 1.04258 12.8932 0.750198 11.9999 0.750198ZM21.3749 11.9921L22.1249 12L21.3749 12.0078C21.3809 12.5834 21.2054 13.1464 20.8734 13.6166C20.5414 14.0869 20.0697 14.4407 19.5252 14.6277C19.3208 14.6979 19.1566 14.8529 19.0747 15.053C18.9929 15.253 19.0013 15.4787 19.0979 15.6721C19.3594 16.1957 19.4533 16.7871 19.3669 17.366C19.2805 17.9449 19.018 18.4831 18.615 18.9076L18.6147 18.908C18.2316 19.3119 17.7262 19.5786 17.1766 19.6669C16.6269 19.7552 16.0634 19.6602 15.5731 19.3965C15.3725 19.2886 15.1337 19.2777 14.9241 19.367C14.7144 19.4562 14.5568 19.6359 14.4955 19.8554C14.3434 20.4003 14.0171 20.8805 13.5665 21.2225C13.1159 21.5646 12.5656 21.7498 11.9999 21.7498C11.4341 21.7498 10.8839 21.5646 10.4333 21.2225C9.98266 20.8805 9.65638 20.4003 9.50428 19.8554C9.44304 19.636 9.28539 19.4563 9.07581 19.367C8.86623 19.2777 8.62744 19.2885 8.42679 19.3964C7.93625 19.6601 7.3726 19.7551 6.82272 19.6668C6.27285 19.5785 5.76729 19.3118 5.38397 18.9078L5.38394 18.9078C4.98108 18.4832 4.71869 17.9449 4.63243 17.366C4.54618 16.7872 4.64023 16.1958 4.90181 15.6722C4.99781 15.4801 5.00682 15.256 4.92655 15.0567C4.84628 14.8575 4.68444 14.7022 4.48204 14.6303C3.93874 14.4372 3.46854 14.0807 3.13603 13.6096C2.80352 13.1385 2.625 12.5761 2.625 11.9995C2.625 11.4229 2.80352 10.8605 3.13603 10.3894C3.46854 9.91834 3.93874 9.56178 4.48204 9.3687C4.68444 9.29677 4.84628 9.14151 4.92655 8.94227C5.00682 8.74304 4.99781 8.51894 4.90181 8.32679C4.64023 7.80324 4.54618 7.21184 4.63243 6.63296C4.71868 6.05414 4.98103 5.5159 5.38382 5.09137L9.40346 6.75018L9.375 6.75C8.13236 6.75 7.125 7.75736 7.125 9C7.125 10.2426 8.13236 11.25 9.375 11.25C10.6176 11.25 11.625 10.2426 11.625 9C11.625 8.36632 11.363 7.79382 10.9415 7.38489L14.4724 8.84199L8.09467 15.2197C7.80178 15.5126 7.80178 15.9874 8.09467 16.2803C8.38756 16.5732 8.86244 16.5732 9.15533 16.2803L15.974 9.46167L21.3609 11.6847C21.3713 11.7865 21.376 11.8891 21.3749 11.9921ZM21.3609 11.6847L15.974 9.46163L16.6553 8.78033C16.9482 8.48744 16.9482 8.01256 16.6553 7.71967C16.3624 7.42678 15.8876 7.42678 15.5947 7.71967L14.4724 8.84193L10.9413 7.3847C10.5426 6.99804 10.0012 6.75767 9.40377 6.75018L5.38394 5.09125C5.76734 4.68744 6.2729 4.42092 6.82272 4.33277C7.37259 4.24461 7.93618 4.33975 8.42664 4.60353C8.62729 4.71145 8.86612 4.7223 9.07574 4.63304C9.28535 4.54378 9.44303 4.36407 9.50428 4.14463C9.65638 3.5997 9.98266 3.11953 10.4333 2.77745C10.8839 2.43538 11.4341 2.2502 11.9999 2.2502C12.5656 2.2502 13.1159 2.43538 13.5665 2.77745C14.0171 3.11953 14.3434 3.5997 14.4955 4.14463C14.5568 4.3641 14.7145 4.54383 14.9241 4.63308C15.1338 4.72233 15.3726 4.71142 15.5733 4.60345C16.0635 4.33965 16.6269 4.24448 17.1766 4.33263C17.7263 4.42078 18.2316 4.68734 18.6148 5.0912L18.615 5.0914C19.018 5.51586 19.2805 6.0541 19.3669 6.63298C19.4533 7.21186 19.3594 7.8033 19.0979 8.32694C19.0013 8.5203 18.9929 8.74592 19.0747 8.94596C19.1565 9.146 19.3207 9.30101 19.5251 9.37127C20.0696 9.55845 20.5414 9.91238 20.8735 10.3828C21.1461 10.7691 21.3132 11.2178 21.3609 11.6847ZM9.375 8.25C8.96079 8.25 8.625 8.58579 8.625 9C8.625 9.41421 8.96079 9.75 9.375 9.75C9.78921 9.75 10.125 9.41421 10.125 9C10.125 8.58579 9.78921 8.25 9.375 8.25ZM14.625 15C14.625 14.5858 14.9608 14.25 15.375 14.25C15.7892 14.25 16.125 14.5858 16.125 15C16.125 15.4142 15.7892 15.75 15.375 15.75C14.9608 15.75 14.625 15.4142 14.625 15ZM15.375 12.75C14.1324 12.75 13.125 13.7574 13.125 15C13.125 16.2426 14.1324 17.25 15.375 17.25C16.6176 17.25 17.625 16.2426 17.625 15C17.625 13.7574 16.6176 12.75 15.375 12.75Z" fill="#474445"/>
</svg>
