<svg width="24" height="24" viewBox="0 0 24 24" fill="none" xmlns="http://www.w3.org/2000/svg">
<path d="M16.0674 2.25C15.6532 2.25 15.3174 2.58579 15.3174 3C15.3174 3.41421 15.6532 3.75 16.0674 3.75V2.25ZM16.0674 20.25C15.6532 20.25 15.3174 20.5858 15.3174 21C15.3174 21.4142 15.6532 21.75 16.0674 21.75V20.25ZM20.4997 3.75C20.6986 3.75 20.8893 3.82902 21.03 3.96967L22.0907 2.90901C21.6687 2.48705 21.0964 2.25 20.4997 2.25V3.75ZM21.03 3.96967C21.1707 4.11032 21.2497 4.30109 21.2497 4.5H22.7497C22.7497 3.90326 22.5126 3.33097 22.0907 2.90901L21.03 3.96967ZM21.2497 4.5V19.5H22.7497V4.5H21.2497ZM21.2497 19.5C21.2497 19.6989 21.1707 19.8897 21.03 20.0303L22.0907 21.091C22.5126 20.669 22.7497 20.0967 22.7497 19.5H21.2497ZM21.03 20.0303C20.8893 20.171 20.6986 20.25 20.4997 20.25V21.75C21.0964 21.75 21.6687 21.5129 22.0907 21.091L21.03 20.0303ZM16.0674 3.75H20.4997V2.25H16.0674V3.75ZM20.4997 20.25H16.0674V21.75H20.4997V20.25Z" fill="#71717A"/>
<path d="M12.1032 22.9926L12.0041 23.7361L12.0042 23.7361L12.1032 22.9926ZM2.67467 21.7352L2.77381 20.9918L2.77292 20.9917L2.67467 21.7352ZM2 21.0097L2.75 21.0101V21.0097H2ZM2 3.90556H2.75L2.75 3.9049L2 3.90556ZM2.62124 3.18788L2.76819 3.92334C2.77534 3.92191 2.78247 3.92038 2.78957 3.91874L2.62124 3.18788ZM12.0498 1.01625L11.9029 0.280784C11.8957 0.282213 11.8886 0.283746 11.8815 0.285383L12.0498 1.01625ZM13 1.73393L12.25 1.73327V1.73393H13ZM13 22.2671L13.75 22.2676V22.2671H13ZM12.2024 22.2492L2.77381 20.9918L2.57552 22.4786L12.0041 23.7361L12.2024 22.2492ZM2.77292 20.9917C2.7629 20.9904 2.7549 20.9876 2.74924 20.9847C2.74358 20.9818 2.74133 20.9794 2.7413 20.9794L1.64285 22.0009C1.89027 22.2669 2.2234 22.4321 2.57641 22.4788L2.77292 20.9917ZM2.7413 20.9794C2.74129 20.9794 2.74188 20.98 2.74278 20.9814C2.74367 20.9829 2.74481 20.9849 2.74592 20.9877C2.74822 20.9935 2.75001 21.0012 2.75 21.0101L1.25 21.0093C1.24979 21.3819 1.39421 21.7335 1.64285 22.0009L2.7413 20.9794ZM2.75 21.0097V3.90556H1.25V21.0097H2.75ZM2.75 3.9049C2.75001 3.91322 2.74843 3.92056 2.74631 3.92618C2.74421 3.93173 2.74201 3.93449 2.7416 3.93497L1.60748 2.95325C1.37999 3.21606 1.24969 3.55216 1.25 3.90622L2.75 3.9049ZM2.7416 3.93497C2.74124 3.93538 2.74879 3.92722 2.76819 3.92334L2.47429 2.45241C2.1418 2.51885 1.83398 2.69158 1.60748 2.95325L2.7416 3.93497ZM2.78957 3.91874L12.2181 1.74711L11.8815 0.285383L2.4529 2.45701L2.78957 3.91874ZM12.1968 1.75171C12.2089 1.74929 12.2218 1.74946 12.2337 1.7521L12.5604 0.288122C12.3443 0.239884 12.1199 0.23741 11.9029 0.280784L12.1968 1.75171ZM12.2337 1.7521C12.2455 1.75473 12.253 1.75908 12.2565 1.76175L13.1606 0.564807C12.9819 0.429858 12.7766 0.33637 12.5604 0.288122L12.2337 1.7521ZM12.2565 1.76175C12.2599 1.7643 12.2583 1.76423 12.2556 1.75891L13.5915 1.07667C13.4879 0.873871 13.3394 0.699877 13.1606 0.564807L12.2565 1.76175ZM12.2556 1.75891C12.2528 1.75333 12.25 1.74438 12.25 1.73327L13.75 1.73459C13.7502 1.50472 13.6952 1.27973 13.5915 1.07667L12.2556 1.75891ZM12.25 1.73393V22.2671H13.75V1.73393H12.25ZM12.25 22.2666C12.25 22.256 12.2526 22.2473 12.2553 22.2417L13.6025 22.9013C13.6988 22.7046 13.7499 22.4883 13.75 22.2676L12.25 22.2666ZM12.2553 22.2417C12.258 22.2362 12.2598 22.2356 12.2572 22.2377L13.2007 23.4039C13.3681 23.2684 13.5063 23.0977 13.6025 22.9013L12.2553 22.2417ZM12.2572 22.2377C12.2545 22.2399 12.2481 22.244 12.2375 22.247L12.6347 23.6934C12.84 23.637 13.0333 23.5393 13.2007 23.4039L12.2572 22.2377ZM12.2375 22.247C12.2268 22.2499 12.2145 22.2508 12.2023 22.2492L12.0042 23.7361C12.2148 23.7641 12.4295 23.7498 12.6347 23.6934L12.2375 22.247Z" fill="#71717A"/>
<path d="M8.5 11.25C8.08579 11.25 7.75 11.5858 7.75 12C7.75 12.4142 8.08579 12.75 8.5 12.75V11.25ZM10 12.75C10.4142 12.75 10.75 12.4142 10.75 12C10.75 11.5858 10.4142 11.25 10 11.25V12.75ZM8.5 12.75H10V11.25H8.5V12.75Z" fill="#71717A"/>
</svg>
