<svg width="24" height="24" viewBox="0 0 24 24" fill="none" xmlns="http://www.w3.org/2000/svg">
<path d="M16 3H20.5C20.8978 3 21.2794 3.15804 21.5607 3.43934C21.842 3.72064 22 4.10218 22 4.5V19.5C22 19.8978 21.842 20.2794 21.5607 20.5607C21.2794 20.842 20.8978 21 20.5 21H16" stroke="#474445" stroke-width="1.5" stroke-linecap="round" stroke-linejoin="round"/>
<path d="M12.1032 22.9926L2.67467 21.7352C2.48741 21.7105 2.31604 21.6234 2.19207 21.4901C2.06811 21.3568 1.9999 21.1862 2 21.0097V3.90556C1.99985 3.73763 2.06146 3.57474 2.17454 3.44411C2.28761 3.31348 2.4453 3.22303 2.62124 3.18788L12.0498 1.01625C12.1644 0.99335 12.283 0.99467 12.397 1.02011C12.511 1.04555 12.6175 1.09447 12.7086 1.16328C12.7997 1.23209 12.8731 1.31905 12.9235 1.41779C12.974 1.51653 13.0001 1.62455 13 1.73393V22.2671C12.9999 22.3722 12.9757 22.4759 12.9289 22.5715C12.8822 22.667 12.814 22.752 12.7289 22.8208C12.6439 22.8896 12.544 22.9405 12.4361 22.9702C12.3281 22.9998 12.2146 23.0075 12.1032 22.9926V22.9926Z" stroke="#474445" stroke-width="1.5" stroke-linecap="round" stroke-linejoin="round"/>
<path d="M8.5 12H10" stroke="#474445" stroke-width="1.5" stroke-linecap="round" stroke-linejoin="round"/>
</svg>
