<svg width="24" height="24" viewBox="0 0 24 24" fill="none" xmlns="http://www.w3.org/2000/svg">
<g clip-path="url(#clip0_1312_532)">
<path d="M8.25195 22.5C7.83774 22.5 7.50195 22.8358 7.50195 23.25C7.50195 23.6642 7.83774 24 8.25195 24V22.5ZM14.252 24C14.6662 24 15.002 23.6642 15.002 23.25C15.002 22.8358 14.6662 22.5 14.252 22.5V24ZM8.25195 24H14.252V22.5H8.25195V24Z" fill="#767676"/>
<path d="M10.502 23.25C10.502 23.6642 10.8377 24 11.252 24C11.6662 24 12.002 23.6642 12.002 23.25H10.502ZM12.002 13.5C12.002 13.0858 11.6662 12.75 11.252 12.75C10.8377 12.75 10.502 13.0858 10.502 13.5H12.002ZM12.002 23.25V13.5H10.502V23.25H12.002Z" fill="#767676"/>
<path d="M3.57395 0.75V1.5L3.57418 1.5L3.57395 0.75ZM4.91595 1.579L5.58674 1.24352L5.58673 1.2435L4.91595 1.579ZM6.08117 5.58548C6.26645 5.95595 6.71697 6.10607 7.08744 5.92078C7.4579 5.7355 7.60802 5.28498 7.42274 4.91452L6.08117 5.58548ZM0.828125 5.96046e-08C0.413911 5.96046e-08 0.078125 0.335786 0.078125 0.75C0.078125 1.16421 0.413911 1.5 0.828125 1.5L0.828125 5.96046e-08ZM3.57418 1.5C3.71348 1.49996 3.85005 1.53872 3.96856 1.61193L4.75688 0.33578C4.40134 0.116146 3.99164 -0.000124991 3.57373 1.19209e-07L3.57418 1.5ZM3.96856 1.61193C4.08708 1.68514 4.18286 1.78991 4.24518 1.9145L5.58673 1.2435C5.39978 0.86973 5.11243 0.555413 4.75688 0.33578L3.96856 1.61193ZM4.24517 1.91448L6.08117 5.58548L7.42274 4.91452L5.58674 1.24352L4.24517 1.91448ZM0.828125 1.5H3.57395V5.96046e-08H0.828125L0.828125 1.5Z" fill="#767676"/>
<path d="M18.7136 5.24999L18.7152 4.49999L18.7137 4.49999L18.7136 5.24999ZM19.4606 6.07399L20.2069 6.14912L20.2072 6.1458L19.4606 6.07399ZM3.04164 6.07399L2.29518 6.1468L2.29541 6.14912L3.04164 6.07399ZM3.78864 5.24899L3.78869 4.49899L3.78719 4.49899L3.78864 5.24899ZM18.7121 5.99999L18.7129 6.00016L19.3221 4.62944C19.131 4.54451 18.9243 4.50042 18.7152 4.49999L18.7121 5.99999ZM18.7129 6.00016L18.7136 6.00065L19.8249 4.99318C19.6844 4.83826 19.5132 4.71437 19.3221 4.62944L18.7129 6.00016ZM18.7136 6.00065L18.714 6.00136L20.1377 5.52913C20.0719 5.33065 19.9653 5.1481 19.8249 4.99318L18.7136 6.00065ZM18.714 6.00136L18.7141 6.00218L20.2072 6.1458C20.2272 5.93765 20.2036 5.72761 20.1377 5.52913L18.714 6.00136ZM18.7144 5.99887C18.5282 7.84882 17.6615 9.56367 16.2825 10.8108L17.2886 11.9233C18.9434 10.4268 19.9834 8.36901 20.2069 6.14912L18.7144 5.99887ZM16.2825 10.8108C14.9035 12.0579 13.1104 12.7485 11.2511 12.7485V14.2485C13.4823 14.2485 15.6339 13.4199 17.2886 11.9233L16.2825 10.8108ZM11.2511 12.7485C9.39183 12.7485 7.59879 12.0579 6.21979 10.8108L5.21365 11.9233C6.86842 13.4199 9.02002 14.2485 11.2511 14.2485V12.7485ZM6.21979 10.8108C4.84079 9.56367 3.97411 7.84882 3.78787 5.99887L2.29541 6.14912C2.5189 8.36901 3.55889 10.4268 5.21365 11.9233L6.21979 10.8108ZM3.7881 6.00119L3.78819 6.00036L2.364 5.52952C2.2983 5.72824 2.27486 5.93849 2.29518 6.1468L3.7881 6.00119ZM3.78819 6.00036L3.7886 5.99965L2.67668 4.99286C2.5362 5.148 2.4297 5.3308 2.364 5.52952L3.78819 6.00036ZM3.7886 5.99965L3.78927 5.99916L3.17976 4.62858C2.98851 4.71363 2.81716 4.83771 2.67668 4.99286L3.7886 5.99965ZM3.78927 5.99916L3.79008 5.99899L3.78719 4.49899C3.5779 4.4994 3.37099 4.54354 3.17976 4.62858L3.78927 5.99916ZM3.78859 5.99899L18.7136 5.99999L18.7137 4.49999L3.78869 4.49899L3.78859 5.99899Z" fill="#767676"/>
<path d="M15.0936 5.40735C15.1772 5.81304 15.5738 6.07415 15.9795 5.99056C16.3852 5.90696 16.6463 5.51032 16.5627 5.10463L15.0936 5.40735ZM19.5005 7.49999C19.0863 7.49979 18.7504 7.83541 18.7502 8.24962C18.75 8.66384 19.0856 8.99979 19.4998 8.99999L19.5005 7.49999ZM16.5627 5.10463C16.4377 4.49778 16.5035 3.8671 16.7513 3.29918L15.3764 2.69947C15.0048 3.55127 14.906 4.49717 15.0936 5.40735L16.5627 5.10463ZM16.7513 3.29918C16.999 2.73126 17.4164 2.25393 17.9462 1.93273L17.1686 0.650023C16.374 1.13177 15.7479 1.84768 15.3764 2.69947L16.7513 3.29918ZM17.9462 1.93273C18.4761 1.61152 19.0924 1.46219 19.7105 1.50524L19.8147 0.0088625C18.8876 -0.0556957 17.9633 0.168273 17.1686 0.650023L17.9462 1.93273ZM19.7105 1.50524C20.3286 1.54828 20.9182 1.78159 21.3984 2.17313L22.3463 1.01059C21.6261 0.423341 20.7417 0.0734207 19.8147 0.0088625L19.7105 1.50524ZM21.3984 2.17313C21.8786 2.56467 22.2258 3.09525 22.3924 3.69202L23.8372 3.28868C23.5873 2.39361 23.0665 1.59783 22.3463 1.01059L21.3984 2.17313ZM22.3924 3.69202C22.5591 4.2888 22.5369 4.92252 22.3289 5.50618L23.7419 6.0096C24.0538 5.13421 24.0871 4.18374 23.8372 3.28868L22.3924 3.69202ZM22.3289 5.50618C22.121 6.08984 21.7375 6.59482 21.231 6.95181L22.0953 8.17782C22.8548 7.64239 23.43 6.88499 23.7419 6.0096L22.3289 5.50618ZM21.231 6.95181C20.7246 7.3088 20.1201 7.50029 19.5005 7.49999L19.4998 8.99999C20.4291 9.00044 21.3357 8.71324 22.0953 8.17782L21.231 6.95181Z" fill="#767676"/>
</g>
<defs>
<clipPath id="clip0_1312_532">
<rect width="24" height="24" fill="white"/>
</clipPath>
</defs>
</svg>
