<svg width="25" height="25" viewBox="0 0 25 25" fill="none" xmlns="http://www.w3.org/2000/svg">
<path d="M8.59474 23.4367C8.16332 23.4367 7.81358 23.7865 7.81358 24.2179C7.81358 24.6493 8.16332 24.999 8.59474 24.999V23.4367ZM14.844 24.999C15.2754 24.999 15.6251 24.6493 15.6251 24.2179C15.6251 23.7865 15.2754 23.4367 14.844 23.4367V24.999ZM8.59474 24.999H14.844V23.4367H8.59474V24.999Z" fill="#767676"/>
<path d="M10.9382 24.2179C10.9382 24.6493 11.2879 24.999 11.7194 24.999C12.1508 24.999 12.5005 24.6493 12.5005 24.2179H10.9382ZM12.5005 14.0629C12.5005 13.6315 12.1508 13.2817 11.7194 13.2817C11.2879 13.2817 10.9382 13.6315 10.9382 14.0629H12.5005ZM12.5005 24.2179V14.0629H10.9382V24.2179H12.5005Z" fill="#767676"/>
<path d="M3.72241 0.783253V1.56441L3.72265 1.56441L3.72241 0.783253ZM5.12016 1.64669L5.81881 1.29727L5.8188 1.29725L5.12016 1.64669ZM6.33378 5.8196C6.52676 6.20545 6.99599 6.36181 7.38184 6.16883C7.7677 5.97585 7.92405 5.50661 7.73107 5.12076L6.33378 5.8196ZM0.862525 0.00209789C0.431105 0.00209789 0.0813703 0.351833 0.0813703 0.783253C0.0813703 1.21467 0.431105 1.56441 0.862525 1.56441L0.862525 0.00209789ZM3.72265 1.56441C3.86774 1.56436 4.00998 1.60473 4.13341 1.68098L4.95448 0.351825C4.58416 0.123068 4.15745 0.00196764 3.72218 0.00209795L3.72265 1.56441ZM4.13341 1.68098C4.25685 1.75724 4.35662 1.86636 4.42152 1.99613L5.8188 1.29725C5.62409 0.907956 5.3248 0.580583 4.95448 0.351825L4.13341 1.68098ZM4.42151 1.99611L6.33378 5.8196L7.73107 5.12076L5.81881 1.29727L4.42151 1.99611ZM0.862525 1.56441H3.72241V0.00209789H0.862525L0.862525 1.56441Z" fill="#767676"/>
<path d="M19.491 5.47017L19.4926 4.68902L19.491 4.68902L19.491 5.47017ZM20.269 6.3284L21.0463 6.40665L21.0466 6.40319L20.269 6.3284ZM3.16799 6.3284L2.39052 6.40423L2.39076 6.40665L3.16799 6.3284ZM3.94602 5.46913L3.94607 4.68798L3.94451 4.68798L3.94602 5.46913ZM19.4894 6.25133L19.4902 6.25151L20.1247 4.82384C19.9257 4.73539 19.7104 4.68947 19.4926 4.68902L19.4894 6.25133ZM19.4902 6.25151L19.4909 6.25201L20.6484 5.2027C20.5021 5.04134 20.3238 4.9123 20.1247 4.82384L19.4902 6.25151ZM19.4909 6.25201L19.4914 6.25275L20.9742 5.76091C20.9057 5.55418 20.7947 5.36405 20.6484 5.2027L19.4909 6.25201ZM19.4914 6.25275L19.4915 6.25361L21.0466 6.40319C21.0674 6.1864 21.0428 5.96764 20.9742 5.76091L19.4914 6.25275ZM19.4918 6.25015C19.2978 8.17695 18.3951 9.96304 16.9589 11.262L18.0068 12.4207C19.7303 10.862 20.8135 8.71876 21.0462 6.40665L19.4918 6.25015ZM16.9589 11.262C15.5226 12.5609 13.655 13.2802 11.7185 13.2802V14.8425C14.0423 14.8425 16.2833 13.9794 18.0068 12.4207L16.9589 11.262ZM11.7185 13.2802C9.78197 13.2802 7.91444 12.5609 6.47816 11.262L5.43023 12.4207C7.15373 13.9794 9.39471 14.8425 11.7185 14.8425V13.2802ZM6.47816 11.262C5.04187 9.96304 4.1392 8.17695 3.94521 6.25015L2.39076 6.40665C2.62354 8.71876 3.70672 10.862 5.43023 12.4207L6.47816 11.262ZM3.94545 6.25257L3.94555 6.25171L2.4622 5.76131C2.39377 5.96828 2.36936 6.18727 2.39052 6.40423L3.94545 6.25257ZM3.94555 6.25171L3.94598 6.25097L2.78787 5.20235C2.64156 5.36395 2.53063 5.55433 2.4622 5.76131L3.94555 6.25171ZM3.94598 6.25097L3.94668 6.25046L3.31184 4.82295C3.11266 4.91153 2.93418 5.04076 2.78787 5.20235L3.94598 6.25097ZM3.94668 6.25046L3.94752 6.25028L3.94451 4.68798C3.72652 4.6884 3.51102 4.73437 3.31184 4.82295L3.94668 6.25046ZM3.94596 6.25029L19.4909 6.25133L19.491 4.68902L3.94607 4.68798L3.94596 6.25029Z" fill="#767676"/>
<path d="M15.7206 5.63406C15.8076 6.05661 16.2208 6.32856 16.6433 6.2415C17.0658 6.15443 17.3378 5.74131 17.2507 5.31877L15.7206 5.63406ZM20.3106 7.81363C19.8791 7.81342 19.5292 8.16299 19.529 8.59441C19.5288 9.02583 19.8784 9.37573 20.3098 9.37594L20.3106 7.81363ZM17.2507 5.31877C17.1205 4.68671 17.1891 4.02984 17.4471 3.43832L16.0151 2.81371C15.6281 3.70088 15.5252 4.68608 15.7206 5.63406L17.2507 5.31877ZM17.4471 3.43832C17.7051 2.84681 18.1399 2.34965 18.6917 2.01511L17.8818 0.679122C17.0541 1.18088 16.4021 1.92653 16.0151 2.81371L17.4471 3.43832ZM18.6917 2.01511C19.2436 1.68056 19.8854 1.52503 20.5292 1.56986L20.6378 0.0113285C19.6722 -0.0559114 18.7095 0.177361 17.8818 0.679122L18.6917 2.01511ZM20.5292 1.56986C21.173 1.61469 21.7871 1.85769 22.2873 2.2655L23.2745 1.05466C22.5244 0.443025 21.6033 0.0785684 20.6378 0.0113285L20.5292 1.56986ZM22.2873 2.2655C22.7874 2.6733 23.1491 3.22592 23.3226 3.84749L24.8274 3.42738C24.5671 2.49514 24.0247 1.6663 23.2745 1.05466L22.2873 2.2655ZM23.3226 3.84749C23.4961 4.46905 23.473 5.12909 23.2564 5.737L24.7281 6.26134C25.053 5.34958 25.0877 4.35963 24.8274 3.42738L23.3226 3.84749ZM23.2564 5.737C23.0399 6.3449 22.6404 6.87087 22.113 7.24268L23.0131 8.51962C23.8042 7.96195 24.4033 7.17309 24.7281 6.26134L23.2564 5.737ZM22.113 7.24268C21.5855 7.6145 20.9559 7.81394 20.3106 7.81363L20.3098 9.37594C21.2777 9.37641 22.222 9.07728 23.0131 8.51962L22.113 7.24268Z" fill="#767676"/>
</svg>
