<svg width="24" height="24" viewBox="0 0 24 24" fill="none" xmlns="http://www.w3.org/2000/svg">
<g clip-path="url(#clip0)">
<path d="M8.25195 23.25H14.252" stroke="#474445" stroke-width="1.5" stroke-linecap="round" stroke-linejoin="round"/>
<path d="M11.252 23.25V13.5" stroke="#474445" stroke-width="1.5" stroke-linecap="round" stroke-linejoin="round"/>
<path d="M0.751953 0.75H3.57395C3.85256 0.749917 4.12569 0.82743 4.36272 0.973853C4.59975 1.12028 4.79132 1.32982 4.91595 1.579L6.75195 5.25" stroke="#474445" stroke-width="1.5" stroke-linecap="round" stroke-linejoin="round"/>
<path d="M18.7136 5.25002C18.8183 5.25024 18.9218 5.27231 19.0175 5.31483C19.1132 5.35735 19.1989 5.41938 19.2692 5.49695C19.3395 5.57451 19.3929 5.66591 19.4259 5.76528C19.4588 5.86465 19.4707 5.96981 19.4606 6.07402C19.2558 8.10895 18.3024 9.99526 16.7856 11.3671C15.2687 12.7389 13.2963 13.4985 11.2511 13.4985C9.20593 13.4985 7.23361 12.7389 5.71672 11.3671C4.19984 9.99526 3.24651 8.10895 3.04164 6.07402C3.03147 5.96973 3.0432 5.86446 3.07609 5.76497C3.10899 5.66548 3.16231 5.57396 3.23264 5.49628C3.30298 5.41861 3.38877 5.35648 3.48451 5.3139C3.58026 5.27132 3.68385 5.24923 3.78864 5.24902L18.7136 5.25002Z" stroke="#474445" stroke-width="1.5" stroke-linecap="round" stroke-linejoin="round"/>
<path d="M15.8282 5.25599C15.6719 4.49748 15.7542 3.70918 16.0638 2.99933C16.3734 2.28947 16.8952 1.69285 17.5574 1.29137C18.2197 0.889899 18.99 0.70325 19.7626 0.757051C20.5351 0.810851 21.2721 1.10246 21.8723 1.59186C22.4726 2.08125 22.9066 2.74443 23.1148 3.49035C23.3231 4.23627 23.2953 5.02836 23.0354 5.75789C22.7755 6.48742 22.2961 7.11861 21.6632 7.56481C21.0302 8.01102 20.2746 8.25036 19.5002 8.24999C19.3164 8.24989 19.133 8.23653 18.9512 8.20999" stroke="#474445" stroke-width="1.5" stroke-linecap="round" stroke-linejoin="round"/>
</g>
<defs>
<clipPath id="clip0">
<rect width="24" height="24" fill="white"/>
</clipPath>
</defs>
</svg>
