<svg width="24" height="24" viewBox="0 0 24 24" fill="none" xmlns="http://www.w3.org/2000/svg">
<g clip-path="url(#clip0)">
<path d="M8.25195 23.25H14.252M11.252 23.25V13.5M0.751953 0.749988H3.57395C3.85256 0.749904 4.12569 0.827418 4.36272 0.973841C4.59975 1.12026 4.79132 1.32981 4.91595 1.57899L6.75195 5.24999M15.828 5.25599C15.6717 4.49748 15.754 3.70918 16.0636 2.99933C16.3732 2.28947 16.895 1.69285 17.5572 1.29137C18.2195 0.889899 18.9898 0.70325 19.7624 0.757051C20.5349 0.810851 21.2719 1.10246 21.8721 1.59186C22.4723 2.08125 22.9064 2.74443 23.1146 3.49035C23.3229 4.23627 23.2951 5.02836 23.0352 5.75789C22.7753 6.48742 22.2959 7.11861 21.663 7.56481C21.03 8.01102 20.2744 8.25036 19.5 8.24999C19.3162 8.24989 19.1328 8.23653 18.951 8.20999M18.714 5.24999C18.8186 5.2502 18.9221 5.27228 19.0178 5.3148C19.1135 5.35732 19.1992 5.41934 19.2695 5.49691C19.3399 5.57448 19.3932 5.66587 19.4262 5.76524C19.4591 5.86461 19.471 5.96977 19.461 6.07399C19.2561 8.10891 18.3028 9.99522 16.7859 11.3671C15.269 12.7389 13.2967 13.4985 11.2515 13.4985C9.20624 13.4985 7.23392 12.7389 5.71704 11.3671C4.20015 9.99522 3.24682 8.10891 3.04195 6.07399C3.03178 5.96969 3.04352 5.86443 3.07641 5.76494C3.1093 5.66544 3.16263 5.57392 3.23296 5.49625C3.30329 5.41857 3.38908 5.35645 3.48483 5.31387C3.58058 5.27129 3.68417 5.24919 3.78895 5.24899L18.714 5.24999Z" stroke="#474445" stroke-width="1.5" stroke-linecap="round" stroke-linejoin="round"/>
</g>
<defs>
<clipPath id="clip0">
<rect width="24" height="24" fill="white"/>
</clipPath>
</defs>
</svg>
