<svg width="24" height="24" viewBox="0 0 24 24" fill="none" xmlns="http://www.w3.org/2000/svg">
<path d="M17.9307 23.25H6.06871L4.52671 16.281C4.49278 16.1299 4.49001 15.9736 4.51855 15.8214C4.54709 15.6692 4.60635 15.5245 4.69271 15.396C4.77106 15.2757 4.8776 15.1764 5.00309 15.1067C5.12857 15.037 5.26919 14.999 5.41271 14.996H18.5867C18.7302 14.999 18.8709 15.037 18.9963 15.1067C19.1218 15.1764 19.2284 15.2757 19.3067 15.396C19.3931 15.5245 19.4523 15.6692 19.4809 15.8214C19.5094 15.9736 19.5066 16.1299 19.4727 16.281L17.9307 23.25Z" stroke="#474445" stroke-width="1.5" stroke-linecap="round" stroke-linejoin="round"/>
<path d="M0.75 23.25H23.25" stroke="#474445" stroke-width="1.5" stroke-linecap="round" stroke-linejoin="round"/>
<path d="M12 20.25C12.8284 20.25 13.5 19.5784 13.5 18.75C13.5 17.9216 12.8284 17.25 12 17.25C11.1716 17.25 10.5 17.9216 10.5 18.75C10.5 19.5784 11.1716 20.25 12 20.25Z" stroke="#474445" stroke-width="1.5" stroke-linecap="round" stroke-linejoin="round"/>
<path d="M12 9C14.2782 9 16.125 7.15317 16.125 4.875C16.125 2.59683 14.2782 0.75 12 0.75C9.72183 0.75 7.875 2.59683 7.875 4.875C7.875 7.15317 9.72183 9 12 9Z" stroke="#474445" stroke-width="1.5" stroke-linecap="round" stroke-linejoin="round"/>
<path d="M17 12.75C16.3736 12.042 15.6039 11.475 14.7419 11.0867C13.88 10.6985 12.9454 10.4977 12 10.4977C11.0546 10.4977 10.12 10.6985 9.25806 11.0867C8.3961 11.475 7.62643 12.042 7 12.75" stroke="#474445" stroke-width="1.5" stroke-linecap="round" stroke-linejoin="round"/>
</svg>
