<svg width="24" height="24" viewBox="0 0 24 24" fill="none" xmlns="http://www.w3.org/2000/svg">
<path fill-rule="evenodd" clip-rule="evenodd" d="M3.75 0.75C3.75 0.335786 4.08579 0 4.5 0H6.75C7.74456 0 8.69839 0.395088 9.40165 1.09835C9.92544 1.62214 10.2783 2.28492 10.4242 3H18C19.3924 3 20.7277 3.55312 21.7123 4.53769C22.6969 5.52225 23.25 6.85761 23.25 8.25C23.25 9.64239 22.6969 10.9777 21.7123 11.9623C20.7277 12.9469 19.3924 13.5 18 13.5H6.75C5.95435 13.5 5.19129 13.8161 4.62868 14.3787C4.06607 14.9413 3.75 15.7044 3.75 16.5C3.75 17.2957 4.06607 18.0587 4.62868 18.6213C5.19129 19.1839 5.95435 19.5 6.75 19.5H10.4272C10.6213 18.6518 11.0964 17.8928 11.777 17.3474C12.4828 16.7819 13.3645 16.4821 14.2684 16.5H16.7826H16.7826C18.1155 16.4999 19.4186 16.8945 20.5276 17.634L20.5277 17.634L22.5796 19.002L22.5797 19.002C22.7851 19.139 22.9536 19.3246 23.0701 19.5423C23.1866 19.76 23.2475 20.0031 23.2475 20.25C23.2475 20.4969 23.1866 20.74 23.0701 20.9577C22.9536 21.1754 22.7851 21.361 22.5797 21.498L22.5796 21.498L20.5277 22.866L20.5276 22.866C19.4186 23.6055 18.1155 24.0001 16.7826 24L16.2798 22.5H16.7826H16.7826C17.8194 22.5001 18.8329 22.1932 19.6955 21.618L19.6956 21.618L21.7475 20.25L19.6956 18.882L19.6955 18.882C18.8329 18.3068 17.8194 17.9999 16.7826 18H16.7826H14.7712H14.2606L14.2441 17.9998C13.6893 17.9876 13.148 18.171 12.715 18.518C12.3906 18.778 12.1424 19.1173 11.9926 19.5H15.2741L14.7712 18L15.2741 19.5H17.25C17.6642 19.5 18 19.8358 18 20.25C18 20.6642 17.6642 21 17.25 21H15.7769L16.2798 22.5H16.2797L15.7769 21H11.9773C12.0679 21.2562 12.2043 21.4944 12.3804 21.7026C12.5917 21.9526 12.855 22.1534 13.1518 22.2911C13.4487 22.4288 13.7721 22.5001 14.0994 22.5H14.0996H16.2797L16.7826 24H14.0998H14.0996C13.5542 24.0001 13.0154 23.8813 12.5207 23.6518C12.0258 23.4223 11.5871 23.0876 11.2349 22.6711C10.8828 22.2545 10.6257 21.7662 10.4817 21.2401C10.4599 21.1606 10.4408 21.0805 10.4244 21H6.75C5.55653 21 4.41193 20.5259 3.56802 19.682C2.72411 18.8381 2.25 17.6935 2.25 16.5C2.25 15.3065 2.72411 14.1619 3.56802 13.318C4.41193 12.4741 5.55653 12 6.75 12H18C18.9946 12 19.9484 11.6049 20.6516 10.9016C21.3549 10.1984 21.75 9.24456 21.75 8.25C21.75 7.25544 21.3549 6.30161 20.6516 5.59835C19.9484 4.89509 18.9946 4.5 18 4.5H10.4242C10.2783 5.21508 9.92544 5.87786 9.40165 6.40165C8.69839 7.10491 7.74456 7.5 6.75 7.5H4.5C4.08579 7.5 3.75 7.16421 3.75 6.75V6H1.5C1.08579 6 0.75 5.66421 0.75 5.25C0.75 4.83579 1.08579 4.5 1.5 4.5H3.75V3H1.5C1.08579 3 0.75 2.66421 0.75 2.25C0.75 1.83579 1.08579 1.5 1.5 1.5H3.75V0.75ZM8.34099 2.15901C8.76295 2.58097 9 3.15326 9 3.75C9 4.34674 8.76295 4.91903 8.34099 5.34099C7.91903 5.76295 7.34674 6 6.75 6H5.25V5.25V2.25V1.5H6.75C7.34674 1.5 7.91903 1.73705 8.34099 2.15901Z" fill="#474445"/>
</svg>
