<svg width="24" height="24" viewBox="0 0 24 24" fill="none" xmlns="http://www.w3.org/2000/svg">
<rect x="1" y="4" width="22" height="19" rx="2" stroke="#71717A" stroke-width="1.5" stroke-linecap="round" stroke-linejoin="round"/>
<path d="M23 10H1" stroke="#71717A" stroke-width="1.5" stroke-linecap="round" stroke-linejoin="round"/>
<path d="M19 14H5" stroke="#71717A" stroke-width="1.5" stroke-linecap="round" stroke-linejoin="round"/>
<path d="M8 14V17C8 18.1046 8.89543 19 10 19H23" stroke="#71717A" stroke-width="1.5" stroke-linecap="round" stroke-linejoin="round"/>
<path d="M21 4V2C21 1.44772 20.5523 1 20 1H18C17.4477 1 17 1.44772 17 2V4" stroke="#71717A" stroke-width="1.5" stroke-linecap="round" stroke-linejoin="round"/>
<path d="M14 4V2C14 1.44772 13.5523 1 13 1H11C10.4477 1 10 1.44772 10 2V4" stroke="#71717A" stroke-width="1.5" stroke-linecap="round" stroke-linejoin="round"/>
<path d="M7 4V2C7 1.44772 6.55228 1 6 1H4C3.44772 1 3 1.44772 3 2V4" stroke="#71717A" stroke-width="1.5" stroke-linecap="round" stroke-linejoin="round"/>
</svg>
