<svg width="24" height="24" viewBox="0 0 24 24" fill="none" xmlns="http://www.w3.org/2000/svg">
<path d="M22.2742 16.7017L22.8877 16.2703L22.2742 16.7017ZM9.25 7C9.25 8.24264 8.24264 9.25 7 9.25V10.75C9.07107 10.75 10.75 9.07107 10.75 7H9.25ZM7 9.25C5.75736 9.25 4.75 8.24264 4.75 7H3.25C3.25 9.07107 4.92893 10.75 7 10.75V9.25ZM4.75 7C4.75 5.75736 5.75736 4.75 7 4.75V3.25C4.92893 3.25 3.25 4.92893 3.25 7H4.75ZM7 4.75C8.24264 4.75 9.25 5.75736 9.25 7H10.75C10.75 4.92893 9.07107 3.25 7 3.25V4.75ZM4.25 21C4.25 21.6904 3.69036 22.25 3 22.25V23.75C4.51878 23.75 5.75 22.5188 5.75 21H4.25ZM3 22.25C2.30964 22.25 1.75 21.6904 1.75 21H0.25C0.25 22.5188 1.48122 23.75 3 23.75V22.25ZM1.75 21C1.75 20.3096 2.30964 19.75 3 19.75V18.25C1.48122 18.25 0.25 19.4812 0.25 21H1.75ZM3 19.75C3.69036 19.75 4.25 20.3096 4.25 21H5.75C5.75 19.4812 4.51878 18.25 3 18.25V19.75ZM12.25 7C12.25 9.8995 9.8995 12.25 7 12.25V13.75C10.7279 13.75 13.75 10.7279 13.75 7H12.25ZM7 12.25C4.10051 12.25 1.75 9.8995 1.75 7H0.25C0.25 10.7279 3.27208 13.75 7 13.75V12.25ZM1.75 7C1.75 4.10051 4.10051 1.75 7 1.75V0.25C3.27208 0.25 0.25 3.27208 0.25 7H1.75ZM22.25 19C22.25 20.7949 20.7949 22.25 19 22.25V23.75C21.6234 23.75 23.75 21.6234 23.75 19H22.25ZM19 22.25C17.2051 22.25 15.75 20.7949 15.75 19H14.25C14.25 21.6234 16.3766 23.75 19 23.75V22.25ZM15.75 19C15.75 17.2051 17.2051 15.75 19 15.75V14.25C16.3766 14.25 14.25 16.3766 14.25 19H15.75ZM19 22.25H3V23.75H19V22.25ZM0.25 7V21H1.75V7H0.25ZM7 1.75C8.5548 1.75 9.95098 2.42493 10.9134 3.50019L12.0311 2.49981C10.7962 1.12008 8.9992 0.25 7 0.25V1.75ZM10.9134 3.50019C11.7451 4.42951 12.25 5.6549 12.25 7H13.75C13.75 5.27168 13.0995 3.69352 12.0311 2.49981L10.9134 3.50019ZM19 15.75C20.0993 15.75 21.0714 16.2951 21.6607 17.1331L22.8877 16.2703C22.0295 15.05 20.6082 14.25 19 14.25V15.75ZM21.6607 17.1331C22.0321 17.6612 22.25 18.304 22.25 19H23.75C23.75 17.9852 23.4309 17.0428 22.8877 16.2703L21.6607 17.1331ZM10.8832 3.46433L21.6853 17.166L22.8632 16.2374L12.0612 2.53567L10.8832 3.46433Z" fill="#474445"/>
</svg>
