<svg width="24" height="24" viewBox="0 0 24 24" fill="none" xmlns="http://www.w3.org/2000/svg">
<path fill-rule="evenodd" clip-rule="evenodd" d="M18 0.25C17.0335 0.25 16.25 1.0335 16.25 2V3.25H14.75V2C14.75 1.0335 13.9665 0.25 13 0.25H11C10.0335 0.25 9.25 1.0335 9.25 2V3.25H7.75V2C7.75 1.0335 6.9665 0.25 6 0.25H4C3.0335 0.25 2.25 1.0335 2.25 2V3.35352C1.09575 3.67998 0.25 4.74122 0.25 6V10V21C0.25 22.5188 1.48122 23.75 3 23.75H21C22.5188 23.75 23.75 22.5188 23.75 21V19V10V6C23.75 4.74122 22.9043 3.67998 21.75 3.35352V2C21.75 1.0335 20.9665 0.25 20 0.25H18ZM3.75 3.25V2C3.75 1.86193 3.86193 1.75 4 1.75H6C6.13807 1.75 6.25 1.86193 6.25 2V3.25H3.75ZM7 4.75H3C2.30964 4.75 1.75 5.30964 1.75 6V9.25H22.25V6C22.25 5.30964 21.6904 4.75 21 4.75H17H14H10H7ZM13.25 2V3.25H10.75V2C10.75 1.86193 10.8619 1.75 11 1.75H13C13.1381 1.75 13.25 1.86193 13.25 2ZM20.25 3.25V2C20.25 1.86193 20.1381 1.75 20 1.75H18C17.8619 1.75 17.75 1.86193 17.75 2V3.25H20.25ZM22.25 10.75V18.25H10C9.30964 18.25 8.75 17.6904 8.75 17V14.75H19C19.4142 14.75 19.75 14.4142 19.75 14C19.75 13.5858 19.4142 13.25 19 13.25H8H5C4.58579 13.25 4.25 13.5858 4.25 14C4.25 14.4142 4.58579 14.75 5 14.75H7.25V17C7.25 18.5188 8.48122 19.75 10 19.75H22.25V21C22.25 21.6904 21.6904 22.25 21 22.25H3C2.30964 22.25 1.75 21.6904 1.75 21V10.75H22.25Z" fill="#767676"/>
</svg>
