<svg width="24" height="24" viewBox="0 0 24 24" fill="none" xmlns="http://www.w3.org/2000/svg">
<path fill-rule="evenodd" clip-rule="evenodd" d="M12 1.5C6.20101 1.5 1.5 6.20101 1.5 12C1.5 17.799 6.20101 22.5 12 22.5C17.799 22.5 22.5 17.799 22.5 12C22.5 6.20101 17.799 1.5 12 1.5ZM0 12C0 5.37258 5.37258 0 12 0C18.6274 0 24 5.37258 24 12C24 18.6274 18.6274 24 12 24C5.37258 24 0 18.6274 0 12ZM14.5315 5.41435C14.8549 5.15559 15.3269 5.20803 15.5857 5.53148L17.5857 8.03148C17.8048 8.30539 17.8048 8.69461 17.5857 8.96852L15.5857 11.4685C15.3269 11.792 14.8549 11.8444 14.5315 11.5857C14.208 11.3269 14.1556 10.8549 14.4143 10.5315L15.4395 9.25H9C8.58579 9.25 8.25 8.91421 8.25 8.5C8.25 8.08579 8.58579 7.75 9 7.75H15.4395L14.4143 6.46852C14.1556 6.14507 14.208 5.67311 14.5315 5.41435ZM9.41435 18.4685C9.6731 18.792 10.1451 18.8444 10.4685 18.5857C10.792 18.3269 10.8444 17.8549 10.5857 17.5315L9.56047 16.25H16C16.4142 16.25 16.75 15.9142 16.75 15.5C16.75 15.0858 16.4142 14.75 16 14.75L9.56047 14.75L10.5857 13.4685C10.8444 13.1451 10.792 12.6731 10.4685 12.4143C10.1451 12.1556 9.67311 12.208 9.41435 12.5315L7.41435 15.0315C7.19522 15.3054 7.19522 15.6946 7.41435 15.9685L9.41435 18.4685Z" fill="#767676"/>
</svg>
