<svg width="24" height="24" viewBox="0 0 24 24" fill="none" xmlns="http://www.w3.org/2000/svg">
<g clip-path="url(#clip0)">
<path fill-rule="evenodd" clip-rule="evenodd" d="M22.0742 2.4806C22.3611 2.77941 22.3514 3.25418 22.0526 3.54104L3.3026 21.541C3.00379 21.8279 2.52902 21.8182 2.24216 21.5194C1.95531 21.2206 1.965 20.7458 2.2638 20.459L21.0138 2.45896C21.3126 2.1721 21.7874 2.18179 22.0742 2.4806ZM19.1441 8.43781C19.3883 8.10325 19.8575 8.03 20.1921 8.27421C21.3472 9.11744 22.4147 10.0748 23.3781 11.1317L23.3811 11.135C23.7803 11.5782 24.0012 12.1535 24.0012 12.75C24.0012 13.3465 23.7803 13.9218 23.3811 14.365L23.3789 14.3674C20.7595 17.2502 16.4138 20.3201 11.9964 20.25C10.893 20.2573 9.79516 20.0945 8.74142 19.7673C8.34585 19.6444 8.12476 19.2241 8.24761 18.8286C8.37047 18.433 8.79073 18.2119 9.18631 18.3347C10.0953 18.617 11.0425 18.7571 11.9943 18.75L12.0125 18.7501C15.7913 18.8137 19.7568 16.1226 22.2676 13.3599C22.418 13.1924 22.5012 12.9752 22.5012 12.75C22.5012 12.525 22.4181 12.3079 22.2679 12.1404C21.3727 11.1585 20.3809 10.2692 19.3077 9.48578C18.9731 9.24157 18.8999 8.77238 19.1441 8.43781ZM14.5944 5.55419C13.7468 5.34326 12.8757 5.24102 12.0023 5.24993C7.65723 5.18264 3.30161 8.18562 0.624369 11.1305L0.624363 11.1305L0.622053 11.133C0.222861 11.5762 0.00195312 12.1515 0.00195312 12.748C0.00195312 13.3445 0.222861 13.9198 0.622053 14.363L0.622039 14.363L0.625574 14.3668C1.45123 15.2707 2.35241 16.1025 3.31932 16.8534C3.64648 17.1074 4.11764 17.0481 4.37169 16.721C4.62574 16.3938 4.56647 15.9227 4.23931 15.6686C3.34048 14.9707 2.50271 14.1975 1.73507 13.3574C1.58498 13.1899 1.50195 12.9729 1.50195 12.748C1.50195 12.5228 1.58517 12.3056 1.73557 12.1381C4.29823 9.31984 8.27504 6.68818 11.9879 6.74989L12.0087 6.74995C12.7579 6.74155 13.5051 6.82887 14.2322 7.0098C14.6342 7.10983 15.0411 6.86506 15.1411 6.46311C15.2411 6.06115 14.9964 5.65422 14.5944 5.55419ZM11.9998 9.75C11.6058 9.7499 11.2157 9.82741 10.8517 9.97813C10.4877 10.1288 10.157 10.3498 9.87839 10.6284C9.59981 10.907 9.37885 11.2377 9.22813 11.6017C9.07742 11.9657 8.9999 12.3558 9 12.7498C9.00011 13.164 8.66441 13.4999 8.2502 13.5C7.83599 13.5001 7.50011 13.1644 7.5 12.7502C7.49984 12.1592 7.61614 11.5739 7.84224 11.0279C8.06834 10.4818 8.39981 9.98564 8.81773 9.56773C9.23564 9.14981 9.7318 8.81834 10.2779 8.59224C10.8239 8.36614 11.4092 8.24984 12.0002 8.25C12.4144 8.25011 12.7501 8.58599 12.75 9.0002C12.7499 9.41441 12.414 9.75011 11.9998 9.75ZM16.5 12.7488C16.4999 12.3346 16.164 11.9989 15.7498 11.999C15.3356 11.9991 14.9999 12.335 15 12.7492C15.0001 13.1432 14.9226 13.5334 14.7719 13.8975C14.6212 14.2616 14.4002 14.5924 14.1216 14.871C13.843 15.1497 13.5123 15.3707 13.1482 15.5216C12.7842 15.6724 12.394 15.75 12 15.75C11.5858 15.75 11.25 16.0858 11.25 16.5C11.25 16.9142 11.5858 17.25 12 17.25C12.591 17.25 13.1763 17.1336 13.7224 16.9073C14.2684 16.6811 14.7645 16.3495 15.1824 15.9316C15.6003 15.5136 15.9317 15.0173 16.1578 14.4712C16.3839 13.9251 16.5002 13.3399 16.5 12.7488Z" fill="#474445"/>
</g>
<defs>
<clipPath id="clip0">
<rect width="24" height="24" fill="white"/>
</clipPath>
</defs>
</svg>
