<svg width="24" height="24" viewBox="0 0 24 24" fill="none" xmlns="http://www.w3.org/2000/svg">
<g clip-path="url(#clip0)">
<path d="M2.7832 21L21.5332 3" stroke="#474445" stroke-width="1.5" stroke-linecap="round" stroke-linejoin="round"/>
<path d="M8.96387 19.051C9.94668 19.3562 10.9708 19.5077 11.9999 19.5C16.0999 19.569 20.2579 16.687 22.8239 13.863C23.099 13.5576 23.2512 13.1611 23.2512 12.75C23.2512 12.3389 23.099 11.9424 22.8239 11.637C21.8943 10.6172 20.8644 9.69355 19.7499 8.88" stroke="#474445" stroke-width="1.5" stroke-linecap="round" stroke-linejoin="round"/>
<path d="M14.4133 6.282C13.6243 6.08564 12.8134 5.99088 12.0003 6C7.96932 5.933 3.80032 8.752 1.17932 11.635C0.904199 11.9404 0.751953 12.3369 0.751953 12.748C0.751953 13.1591 0.904199 13.5556 1.17932 13.861C1.97624 14.7334 2.84605 15.5363 3.77932 16.261" stroke="#474445" stroke-width="1.5" stroke-linecap="round" stroke-linejoin="round"/>
<path d="M8.25 12.75C8.24987 12.2575 8.34678 11.7698 8.53518 11.3148C8.72359 10.8598 8.99981 10.4463 9.34806 10.0981C9.6963 9.74981 10.1098 9.47359 10.5648 9.28518C11.0198 9.09678 11.5075 8.99987 12 9" stroke="#474445" stroke-width="1.5" stroke-linecap="round" stroke-linejoin="round"/>
<path d="M15.75 12.749C15.7501 13.2415 15.6532 13.7293 15.4648 14.1844C15.2764 14.6395 15.0002 15.053 14.652 15.4013C14.3038 15.7496 13.8903 16.0259 13.4353 16.2145C12.9803 16.403 12.4925 16.5 12 16.5" stroke="#474445" stroke-width="1.5" stroke-linecap="round" stroke-linejoin="round"/>
</g>
<defs>
<clipPath id="clip0">
<rect width="24" height="24" fill="white"/>
</clipPath>
</defs>
</svg>
