<svg width="24" height="24" viewBox="0 0 24 24" fill="none" xmlns="http://www.w3.org/2000/svg">
<path d="M2.7832 21L21.5332 3" stroke="#767676" stroke-width="1.5" stroke-linecap="round" stroke-linejoin="round"/>
<path d="M19.7499 8.88C20.8644 9.69355 21.8943 10.6172 22.8239 11.637C23.099 11.9424 23.2512 12.3389 23.2512 12.75C23.2512 13.1611 23.099 13.5576 22.8239 13.863C20.2579 16.687 16.0999 19.569 11.9999 19.5C10.9834 19.5076 9.97177 19.3599 9 19.0621" stroke="#767676" stroke-width="1.5" stroke-linecap="round" stroke-linejoin="round"/>
<path d="M3.77932 16.261C2.84605 15.5363 1.97624 14.7334 1.17932 13.861C0.904199 13.5556 0.751953 13.1591 0.751953 12.748C0.751953 12.3369 0.904199 11.9404 1.17932 11.635C3.80032 8.752 7.96932 5.933 12.0003 6C12.7754 5.9913 13.5485 6.07702 14.3027 6.25516" stroke="#767676" stroke-width="1.5" stroke-linecap="round" stroke-linejoin="round"/>
<path d="M11.9998 9C11.5074 8.99987 11.0197 9.09678 10.5646 9.28518C10.1096 9.47359 9.69615 9.74981 9.3479 10.0981C8.99966 10.4463 8.72344 10.8598 8.53503 11.3148C8.35111 11.759 8.25438 12.2343 8.25 12.7148" stroke="#767676" stroke-width="1.5" stroke-linecap="round" stroke-linejoin="round"/>
<path d="M12 16.5C12.4925 16.5 12.9803 16.403 13.4353 16.2145C13.8903 16.0259 14.3038 15.7496 14.652 15.4013C15.0002 15.053 15.2764 14.6395 15.4648 14.1844C15.6501 13.7368 15.7469 13.2577 15.7499 12.7734" stroke="#767676" stroke-width="1.5" stroke-linecap="round" stroke-linejoin="round"/>
</svg>
