<svg width="24" height="24" viewBox="0 0 24 24" fill="none" xmlns="http://www.w3.org/2000/svg">
<g clip-path="url(#clip0)">
<path fill-rule="evenodd" clip-rule="evenodd" d="M23.3791 10.3804C20.6993 7.434 16.3447 4.43357 12.0003 4.5009C7.65595 4.43357 3.30125 7.43398 0.624195 10.3807L0.62419 10.3807L0.622053 10.383C0.222861 10.8262 0.00195312 11.4015 0.00195312 11.998C0.00195312 12.5945 0.222861 13.1698 0.622048 13.613L0.62404 13.6152C3.24095 16.4974 7.58401 19.5664 12.0003 19.4981C16.4166 19.5664 20.7606 16.4975 23.3794 13.6154L23.3816 13.613C23.7808 13.1698 24.0017 12.5945 24.0017 11.998C24.0017 11.4015 23.7808 10.8262 23.3816 10.383L23.3791 10.3804ZM1.50195 11.998C1.50195 11.7728 1.58519 11.5555 1.73565 11.388C4.29804 8.56805 8.27481 5.93826 11.9877 6.00089C11.9961 6.00104 12.0045 6.00104 12.013 6.00089C15.7257 5.93826 19.7025 8.56791 22.2681 11.3881C22.4185 11.5556 22.5017 11.7728 22.5017 11.998C22.5017 12.2231 22.4185 12.4403 22.2681 12.6079C19.7574 15.3706 15.7918 18.0617 12.0129 17.9981C12.0076 17.998 12.0023 17.998 11.9969 17.998C11.9939 17.998 11.9908 17.9981 11.9877 17.9981C8.2089 18.0617 4.24435 15.3706 1.73569 12.6081C1.58521 12.4405 1.50195 12.2232 1.50195 11.998ZM12.0002 8.999C12.3942 8.9989 12.7844 9.07644 13.1485 9.22721C13.5125 9.37798 13.8433 9.59901 14.1219 9.87767C14.4005 10.1563 14.6214 10.4872 14.7721 10.8513C14.9228 11.2153 15.0002 11.6056 15 11.9996V11.9998C14.9998 12.5931 14.8238 13.1731 14.494 13.6663C14.1643 14.1595 13.6957 14.5439 13.1475 14.7709C12.5993 14.9978 11.9961 15.0571 11.4142 14.9413C10.8323 14.8254 10.2979 14.5396 9.8784 14.12C9.45892 13.7004 9.17328 13.1659 9.05759 12.584C8.9419 12.0021 9.00135 11.3989 9.22844 10.8508C9.45553 10.3026 9.84004 9.83415 10.3334 9.50454C10.8267 9.17493 11.4067 8.999 12 8.999H12.0002ZM13.7224 7.84135C13.1763 7.6152 12.5911 7.49887 12 7.499L16.5 12.0002C16.5003 11.4091 16.3841 10.8238 16.1581 10.2777C15.9321 9.73149 15.6006 9.23519 15.1827 8.81715C14.7648 8.39911 14.2686 8.06753 13.7224 7.84135ZM9.50006 8.2573C10.24 7.76293 11.1099 7.49904 11.9998 7.499L16.5 12.0004C16.4997 12.8903 16.2356 13.7601 15.741 14.4999C15.2464 15.2398 14.5435 15.8164 13.7212 16.1568C12.899 16.4972 11.9942 16.5862 11.1214 16.4124C10.2485 16.2386 9.44681 15.8099 8.8176 15.1806C8.18838 14.5512 7.75992 13.7493 7.58638 12.8765C7.41284 12.0036 7.50203 11.0988 7.84266 10.2766C8.18329 9.45445 8.76007 8.75172 9.50006 8.2573Z" fill="#474445"/>
</g>
<defs>
<clipPath id="clip0">
<rect width="24" height="24" fill="white"/>
</clipPath>
</defs>
</svg>
