<svg width="24" height="24" viewBox="0 0 24 24" fill="none" xmlns="http://www.w3.org/2000/svg">
<g clip-path="url(#clip0_148_230)">
<path d="M8.25 18L5.25 20.25V15.75H2.25C1.85218 15.75 1.47064 15.592 1.18934 15.3107C0.908035 15.0294 0.75 14.6478 0.75 14.25V2.25C0.75 1.85218 0.908035 1.47064 1.18934 1.18934C1.47064 0.908035 1.85218 0.75 2.25 0.75H18.75C19.1478 0.75 19.5294 0.908035 19.8107 1.18934C20.092 1.47064 20.25 1.85218 20.25 2.25V6.71484" stroke="#767676" stroke-width="1.5" stroke-linecap="round" stroke-linejoin="round"/>
<path d="M5.25 5.25H15.75" stroke="#767676" stroke-width="1.5" stroke-linecap="round" stroke-linejoin="round"/>
<path d="M5.25 9.75H8.25" stroke="#767676" stroke-width="1.5" stroke-linecap="round" stroke-linejoin="round"/>
<path d="M23.25 18.75H20.25V23.25L15.75 18.75H11.25V9.75H23.25V18.75Z" stroke="#767676" stroke-width="1.5" stroke-linecap="round" stroke-linejoin="round"/>
<path d="M19.5 15H15" stroke="#767676" stroke-width="1.5" stroke-linecap="round" stroke-linejoin="round"/>
</g>
<defs>
<clipPath id="clip0_148_230">
<rect width="24" height="24" fill="white"/>
</clipPath>
</defs>
</svg>
