<svg width="24" height="24" viewBox="0 0 24 24" fill="none" xmlns="http://www.w3.org/2000/svg">
<g clip-path="url(#clip0)">
<path fill-rule="evenodd" clip-rule="evenodd" d="M1.71967 1.71967C1.86032 1.57902 2.05109 1.5 2.25 1.5H18.75C18.9489 1.5 19.1397 1.57902 19.2803 1.71967C19.421 1.86032 19.5 2.05109 19.5 2.25V6.75C19.5 7.16421 19.8358 7.5 20.25 7.5C20.6642 7.5 21 7.16421 21 6.75V2.25C21 1.65326 20.7629 1.08097 20.341 0.65901C19.919 0.237053 19.3467 0 18.75 0H2.25C1.65326 0 1.08097 0.237053 0.65901 0.65901C0.237053 1.08097 0 1.65326 0 2.25V14.25C0 14.8467 0.237053 15.419 0.65901 15.841C1.08097 16.2629 1.65326 16.5 2.25 16.5H4.5V20.25C4.5 20.5341 4.6605 20.7938 4.91459 20.9208C5.16868 21.0479 5.47274 21.0204 5.7 20.85L8.7 18.6C9.03137 18.3515 9.09853 17.8814 8.85 17.55C8.60147 17.2186 8.13137 17.1515 7.8 17.4L6 18.75V15.75C6 15.3358 5.66421 15 5.25 15H2.25C2.05109 15 1.86032 14.921 1.71967 14.7803C1.57902 14.6397 1.5 14.4489 1.5 14.25V2.25C1.5 2.05109 1.57902 1.86032 1.71967 1.71967ZM5.25 4.5C4.83579 4.5 4.5 4.83579 4.5 5.25C4.5 5.66421 4.83579 6 5.25 6H15.75C16.1642 6 16.5 5.66421 16.5 5.25C16.5 4.83579 16.1642 4.5 15.75 4.5H5.25ZM4.5 9.75C4.5 9.33579 4.83579 9 5.25 9H8.25C8.66421 9 9 9.33579 9 9.75C9 10.1642 8.66421 10.5 8.25 10.5H5.25C4.83579 10.5 4.5 10.1642 4.5 9.75ZM11.25 9C10.8358 9 10.5 9.33579 10.5 9.75V18.75C10.5 19.1642 10.8358 19.5 11.25 19.5H15.4393L19.7197 23.7803C19.9342 23.9948 20.2568 24.059 20.537 23.9429C20.8173 23.8268 21 23.5533 21 23.25V19.5H23.25C23.6642 19.5 24 19.1642 24 18.75V9.75C24 9.33579 23.6642 9 23.25 9H11.25ZM15.75 18H12V10.5H22.5V18H20.25C19.8358 18 19.5 18.3358 19.5 18.75V21.4393L16.2803 18.2197C16.1397 18.079 15.9489 18 15.75 18ZM13.5 12.75C13.5 12.3358 13.8358 12 14.25 12H20.25C20.6642 12 21 12.3358 21 12.75C21 13.1642 20.6642 13.5 20.25 13.5H14.25C13.8358 13.5 13.5 13.1642 13.5 12.75ZM14.25 15C13.8358 15 13.5 15.3358 13.5 15.75C13.5 16.1642 13.8358 16.5 14.25 16.5H20.25C20.6642 16.5 21 16.1642 21 15.75C21 15.3358 20.6642 15 20.25 15H14.25Z" fill="#474445"/>
</g>
<defs>
<clipPath id="clip0">
<rect width="24" height="24" fill="white"/>
</clipPath>
</defs>
</svg>
