<svg width="24" height="24" viewBox="0 0 24 24" fill="none" xmlns="http://www.w3.org/2000/svg">
<path fill-rule="evenodd" clip-rule="evenodd" d="M1.71967 1.71967C1.86032 1.57902 2.05109 1.5 2.25 1.5H12.8788H12.879C13.0776 1.50008 13.2681 1.57897 13.4087 1.71933L13.4088 1.7195L16.2805 4.59116C16.421 4.73172 16.4999 4.92228 16.5 5.121V5.12116V7.5C16.5 7.91421 16.8358 8.25 17.25 8.25C17.6642 8.25 18 7.91421 18 7.5V5.121V5.12084C17.9999 4.52452 17.763 3.95264 17.3415 3.53084L17.3413 3.53067L14.4693 0.65867L14.4692 0.6585C14.0474 0.236973 13.4755 0.000127316 12.8792 0H12.879H2.25C1.65326 0 1.08097 0.237053 0.65901 0.65901C0.237053 1.08097 0 1.65326 0 2.25V18.75C0 19.3467 0.237053 19.919 0.65901 20.341C1.08097 20.7629 1.65326 21 2.25 21H7.5C7.91421 21 8.25 20.6642 8.25 20.25C8.25 19.8358 7.91421 19.5 7.5 19.5H2.25C2.05109 19.5 1.86032 19.421 1.71967 19.2803C1.57902 19.1397 1.5 18.9489 1.5 18.75V2.25C1.5 2.05109 1.57902 1.86032 1.71967 1.71967ZM3 6.75C3 6.33579 3.33579 6 3.75 6H14.25C14.6642 6 15 6.33579 15 6.75C15 7.16421 14.6642 7.5 14.25 7.5H3.75C3.33579 7.5 3 7.16421 3 6.75ZM17.25 12C14.3505 12 12 14.3505 12 17.25C12 20.1495 14.3505 22.5 17.25 22.5C20.1495 22.5 22.5 20.1495 22.5 17.25C22.5 14.3505 20.1495 12 17.25 12ZM10.5 17.25C10.5 13.5221 13.5221 10.5 17.25 10.5C20.9779 10.5 24 13.5221 24 17.25C24 20.9779 20.9779 24 17.25 24C13.5221 24 10.5 20.9779 10.5 17.25ZM17.25 13.5C17.6642 13.5 18 13.8358 18 14.25V16.5H20.25C20.6642 16.5 21 16.8358 21 17.25C21 17.6642 20.6642 18 20.25 18H18V20.25C18 20.6642 17.6642 21 17.25 21C16.8358 21 16.5 20.6642 16.5 20.25V18H14.25C13.8358 18 13.5 17.6642 13.5 17.25C13.5 16.8358 13.8358 16.5 14.25 16.5H16.5V14.25C16.5 13.8358 16.8358 13.5 17.25 13.5ZM3.75 10.5C3.33579 10.5 3 10.8358 3 11.25C3 11.6642 3.33579 12 3.75 12H9.75C10.1642 12 10.5 11.6642 10.5 11.25C10.5 10.8358 10.1642 10.5 9.75 10.5H3.75ZM3 15.75C3 15.3358 3.33579 15 3.75 15H7.5C7.91421 15 8.25 15.3358 8.25 15.75C8.25 16.1642 7.91421 16.5 7.5 16.5H3.75C3.33579 16.5 3 16.1642 3 15.75Z" fill="#474445"/>
</svg>
