<svg width="24" height="24" viewBox="0 0 24 24" fill="none" xmlns="http://www.w3.org/2000/svg">
<path fill-rule="evenodd" clip-rule="evenodd" d="M1.25 3C1.25 1.48122 2.48122 0.25 4 0.25H20C21.5188 0.25 22.75 1.48122 22.75 3V22.25H23.25C23.6642 22.25 24 22.5858 24 23C24 23.4142 23.6642 23.75 23.25 23.75H22H18H12.0103H6H2H0.75C0.335786 23.75 0 23.4142 0 23C0 22.5858 0.335786 22.25 0.75 22.25H1.25V3ZM14.9653 22.25H17.25V11.625C17.25 11.054 16.8584 10.75 16.56 10.75H7.44C7.14156 10.75 6.75 11.054 6.75 11.625V22.25H9.04166C8.33696 21.3202 8.17959 20.2644 8.27585 19.3314C8.38502 18.2734 8.81993 17.33 9.1973 16.7652C9.32193 16.5786 9.52351 16.4577 9.74674 16.4355C9.96998 16.4133 10.1914 16.4922 10.3503 16.6506L11.0068 17.3048L12.0441 14.7206C12.1392 14.4835 12.3486 14.3111 12.5996 14.2633C12.8506 14.2154 13.1087 14.2986 13.2845 14.4841C15.0343 16.3304 15.7043 18.0532 15.7477 19.5127C15.782 20.6653 15.4227 21.6073 14.9653 22.25ZM14.1762 22.25L14.0745 22.1479L14.1759 22.25H14.1762ZM12.0103 22.25C11.4344 22.25 10.8825 22.0221 10.476 21.6171C9.84812 20.989 9.6907 20.2339 9.76793 19.4853C9.8062 19.1144 9.90211 18.7566 10.0213 18.4403L10.7511 19.1676C10.9294 19.3453 11.1849 19.4217 11.4315 19.371C11.6781 19.3203 11.8828 19.1493 11.9765 18.9157L12.9742 16.4301C13.9159 17.6771 14.2241 18.7406 14.2484 19.5573C14.2789 20.5817 13.8676 21.2961 13.5457 21.616L13.545 21.6167C13.1384 22.0219 12.5864 22.25 12.0103 22.25ZM21.25 3V22.25H18.75V11.625C18.75 10.4011 17.8521 9.25 16.56 9.25H7.44C6.14786 9.25 5.25 10.4011 5.25 11.625V22.25H2.75V3C2.75 2.30964 3.30964 1.75 4 1.75H20C20.6904 1.75 21.25 2.30964 21.25 3Z" fill="#474445"/>
</svg>
