<svg width="24" height="24" viewBox="0 0 24 24" fill="none" xmlns="http://www.w3.org/2000/svg">
<path fill-rule="evenodd" clip-rule="evenodd" d="M13.0986 4.53789L14.8146 2.8219C15.6618 1.99806 16.7991 1.54048 17.9809 1.54813C19.1643 1.55578 20.297 2.02927 21.1338 2.86605C21.9706 3.70284 22.4441 4.83556 22.4517 6.01893C22.4594 7.20076 22.0018 8.33809 21.1779 9.18528L19.462 10.9012L13.0986 4.53789ZM12.038 5.59855L10.3217 7.31479C9.49788 8.16198 9.0403 9.29929 9.04795 10.4811C9.0556 11.6645 9.52909 12.7972 10.3659 13.634C11.2027 14.4708 12.3354 14.9442 13.5187 14.9519C14.7006 14.9595 15.8379 14.5019 16.6851 13.6781L18.4013 11.9619L12.038 5.59855ZM19.9803 12.5042L17.7422 14.7423L17.7353 14.7492L17.7353 14.7492C16.6052 15.8503 15.0869 16.4621 13.509 16.4519C12.184 16.4433 10.9066 15.9967 9.87053 15.193L6.71227 18.3513L6.71041 18.3532C6.687 18.3764 6.66333 18.3993 6.63941 18.4219C6.23103 18.87 6.00382 19.4556 6.00489 20.0644C6.00601 20.7079 6.26215 21.3248 6.7172 21.7798C7.17224 22.2349 7.78909 22.491 8.43263 22.4921C9.07574 22.4932 9.6931 22.2396 10.1496 21.7867L10.1505 21.7858L11.6487 20.2877C11.9416 19.9948 12.4164 19.9948 12.7093 20.2877C13.0022 20.5806 13.0022 21.0554 12.7093 21.3483L11.2093 22.8483L11.2075 22.8502C10.4692 23.5833 9.47045 23.9939 8.43 23.9921C7.38956 23.9903 6.39225 23.5762 5.65654 22.8405C4.92083 22.1048 4.50671 21.1074 4.50489 20.067C4.50452 19.8581 4.52079 19.6508 4.55296 19.447C4.34915 19.4792 4.14188 19.4955 3.93293 19.4951C2.89249 19.4933 1.89518 19.0792 1.15947 18.3435C0.423761 17.6077 0.00963908 16.6104 0.00781852 15.57C0.00599796 14.5295 0.416627 13.5308 1.14976 12.7925L1.15161 12.7907L2.65161 11.2907C2.9445 10.9978 3.41938 10.9978 3.71227 11.2907C4.00516 11.5835 4.00516 12.0584 3.71227 12.3513L2.21325 13.8503C1.76035 14.3069 1.50669 14.9242 1.50782 15.5674C1.50894 16.2109 1.76508 16.8277 2.22013 17.2828C2.67517 17.7378 3.29203 17.994 3.93556 17.9951C4.5443 17.9962 5.12998 17.769 5.57803 17.3606C5.60063 17.3366 5.62357 17.3129 5.64683 17.2895L5.64868 17.2877L8.8069 14.1294C8.00318 13.0933 7.55655 11.8159 7.54798 10.4908C7.53777 8.91298 8.1495 7.39464 9.25068 6.26459L9.25746 6.25764L9.2575 6.25768L13.7575 1.75768L13.7644 1.75082L13.7644 1.75087C14.8945 0.649682 16.4128 0.0379549 17.9906 0.0481603C19.5684 0.0583658 21.0787 0.689682 22.1945 1.80539C23.3102 2.92111 23.9415 4.4314 23.9517 6.00923C23.9619 7.58705 23.3502 9.10539 22.249 10.2354L22.2422 10.2424L22.2422 10.2423L20.0043 12.4802C20.0004 12.4843 19.9964 12.4883 19.9924 12.4924C19.9884 12.4964 19.9843 12.5003 19.9803 12.5042Z" fill="#767676"/>
</svg>
