<svg width="24" height="24" viewBox="0 0 24 24" fill="none" xmlns="http://www.w3.org/2000/svg">
<path d="M17.2118 14.212C16.223 15.1756 14.8945 15.7108 13.5139 15.7019C12.1333 15.693 10.8118 15.1406 9.83554 14.1643C8.85929 13.1881 8.30689 11.8665 8.29796 10.486C8.28903 9.10536 8.82429 7.77681 9.78783 6.78801L14.2878 2.28801C15.2766 1.32448 16.6052 0.789215 17.9858 0.798145C19.3664 0.807074 20.6879 1.35948 21.6641 2.33572C22.6404 3.31197 23.1928 4.63348 23.2017 6.01408C23.2106 7.39467 22.6754 8.72322 21.7118 9.71201L17.2118 14.212Z" stroke="#474445" stroke-width="1.5" stroke-linecap="round" stroke-linejoin="round"/>
<path d="M9.78894 14.214L6.18194 17.821C5.58448 18.4143 4.77623 18.7466 3.93424 18.7451C3.09226 18.7436 2.28518 18.4085 1.6898 17.8131C1.09442 17.2177 0.759291 16.4107 0.757817 15.5687C0.756344 14.7267 1.08865 13.9184 1.68194 13.321L3.18194 11.821" stroke="#474445" stroke-width="1.5" stroke-linecap="round" stroke-linejoin="round"/>
<path d="M9.78601 14.211L6.17901 17.818C5.58572 18.4155 5.25341 19.2237 5.25489 20.0657C5.25636 20.9077 5.59149 21.7148 6.18687 22.3101C6.78225 22.9055 7.58933 23.2406 8.43131 23.2421C9.2733 23.2436 10.0816 22.9113 10.679 22.318L12.179 20.818" stroke="#474445" stroke-width="1.5" stroke-linecap="round" stroke-linejoin="round"/>
<path d="M12.0381 4.53802L19.4621 11.962" stroke="#474445" stroke-width="1.5" stroke-linecap="round" stroke-linejoin="round"/>
</svg>
