<svg width="24" height="24" viewBox="0 0 24 24" fill="none" xmlns="http://www.w3.org/2000/svg">
<g clip-path="url(#clip0)">
<path d="M16.3181 1.189C16.0369 1.47029 15.8789 1.85175 15.8789 2.2495C15.8789 2.64724 16.0369 3.02871 16.3181 3.31L20.6891 7.681C20.8284 7.82033 20.9937 7.93087 21.1757 8.0063C21.3577 8.08173 21.5527 8.12058 21.7497 8.12062C21.9467 8.12067 22.1418 8.08191 22.3238 8.00657C22.5059 7.93122 22.6713 7.82076 22.8106 7.6815C22.9499 7.54223 23.0605 7.37688 23.1359 7.1949C23.2113 7.01291 23.2502 6.81785 23.2502 6.62085C23.2503 6.42385 23.2115 6.22877 23.1362 6.04675C23.0608 5.86473 22.9504 5.69933 22.8111 5.56L18.4391 1.189C18.1578 0.90779 17.7763 0.749817 17.3786 0.749817C16.9808 0.749817 16.5994 0.90779 16.3181 1.189Z" stroke="#474445" stroke-width="1.5" stroke-linecap="round" stroke-linejoin="round"/>
<path d="M12.0754 1.18801C11.936 1.32731 11.8255 1.49271 11.75 1.67476C11.6746 1.85681 11.6357 2.05195 11.6357 2.24901C11.6357 2.44607 11.6746 2.64121 11.75 2.82326C11.8255 3.00531 11.936 3.17071 12.0754 3.31001L20.6904 11.925C20.83 12.0643 20.9955 12.1747 21.1777 12.25C21.36 12.3252 21.5552 12.3639 21.7523 12.3637C21.9495 12.3635 22.1446 12.3245 22.3267 12.2489C22.5088 12.1733 22.6742 12.0625 22.8134 11.923C22.9527 11.7835 23.0631 11.6179 23.1384 11.4357C23.2137 11.2535 23.2523 11.0582 23.2521 10.8611C23.2519 10.664 23.2129 10.4688 23.1373 10.2867C23.0617 10.1047 22.951 9.93928 22.8114 9.80001L14.2004 1.18801C14.0611 1.04817 13.8955 0.937214 13.7131 0.861506C13.5308 0.785798 13.3353 0.746826 13.1379 0.746826C12.9405 0.746826 12.745 0.785798 12.5627 0.861506C12.3804 0.937214 12.2148 1.04817 12.0754 1.18801V1.18801Z" stroke="#474445" stroke-width="1.5" stroke-linecap="round" stroke-linejoin="round"/>
<path d="M1.18918 16.318C1.32848 16.1786 1.49388 16.068 1.67593 15.9926C1.85798 15.9171 2.05312 15.8783 2.25018 15.8783C2.44724 15.8783 2.64238 15.9171 2.82443 15.9926C3.00648 16.068 3.17188 16.1786 3.31118 16.318L7.68218 20.689C7.95542 20.9719 8.10661 21.3508 8.10319 21.7441C8.09977 22.1374 7.94202 22.5136 7.66391 22.7917C7.3858 23.0698 7.00958 23.2276 6.61628 23.231C6.22299 23.2344 5.84408 23.0832 5.56118 22.81L1.18918 18.439C0.907973 18.1577 0.75 17.7762 0.75 17.3785C0.75 16.9807 0.907973 16.5993 1.18918 16.318Z" stroke="#474445" stroke-width="1.5" stroke-linecap="round" stroke-linejoin="round"/>
<path d="M1.18876 12.074C1.47005 11.7928 1.85151 11.6348 2.24926 11.6348C2.647 11.6348 3.02846 11.7928 3.30976 12.074L11.9248 20.689C12.2061 20.9708 12.3641 21.3528 12.3638 21.7511C12.3635 22.1493 12.205 22.5311 11.9233 22.8125C11.6415 23.0939 11.2594 23.2518 10.8612 23.2515C10.463 23.2513 10.0811 23.0928 9.79976 22.811L1.18876 14.2C1.04876 14.0606 0.937683 13.895 0.861886 13.7126C0.786089 13.5301 0.74707 13.3345 0.74707 13.137C0.74707 12.9395 0.786089 12.7439 0.861886 12.5615C0.937683 12.379 1.04876 12.2134 1.18876 12.074V12.074Z" stroke="#474445" stroke-width="1.5" stroke-linecap="round" stroke-linejoin="round"/>
<path d="M15.3212 6.5567L6.55664 15.3213L8.67796 17.4426L17.4425 8.67802L15.3212 6.5567Z" stroke="#474445" stroke-width="1.5" stroke-linecap="round" stroke-linejoin="round"/>
</g>
<defs>
<clipPath id="clip0">
<rect width="24" height="24" fill="white"/>
</clipPath>
</defs>
</svg>
