<svg width="24" height="24" viewBox="0 0 24 24" fill="none" xmlns="http://www.w3.org/2000/svg">
<g clip-path="url(#clip0_1312_559)">
<path d="M16.3181 1.189L15.7878 0.658586L15.7877 0.658747L16.3181 1.189ZM16.3181 3.31L15.7877 3.84025L15.7878 3.84033L16.3181 3.31ZM20.6891 7.681L21.2195 7.15079L21.2194 7.15067L20.6891 7.681ZM22.8111 5.56L23.3415 5.02979L23.3414 5.02961L22.8111 5.56ZM18.4391 1.189L18.9694 0.658606L18.9693 0.658586L18.4391 1.189ZM17.3786 0.749817V-0.000183105V0.749817ZM15.7877 0.658747C15.3659 1.08068 15.1289 1.65288 15.1289 2.2495H16.6289C16.6289 2.05062 16.7079 1.85989 16.8485 1.71925L15.7877 0.658747ZM15.1289 2.2495C15.1289 2.84612 15.3659 3.41831 15.7877 3.84025L16.8485 2.77975C16.7079 2.6391 16.6289 2.44837 16.6289 2.2495H15.1289ZM15.7878 3.84033L20.1588 8.21133L21.2194 7.15067L16.8484 2.77967L15.7878 3.84033ZM20.1586 8.2112C20.3675 8.4202 20.6155 8.586 20.8885 8.69914L21.4629 7.31346C21.3719 7.27574 21.2892 7.22046 21.2195 7.15079L20.1586 8.2112ZM20.8885 8.69914C21.1615 8.81228 21.4541 8.87055 21.7496 8.87062L21.7499 7.37062C21.6514 7.3706 21.5539 7.35118 21.4629 7.31346L20.8885 8.69914ZM21.7496 8.87062C22.045 8.87069 22.3377 8.81256 22.6107 8.69955L22.037 7.31359C21.946 7.35127 21.8484 7.37065 21.7499 7.37062L21.7496 8.87062ZM22.6107 8.69955C22.8837 8.58653 23.1318 8.42085 23.3408 8.21195L22.2804 7.15104C22.2107 7.22068 22.128 7.27592 22.037 7.31359L22.6107 8.69955ZM23.3408 8.21195C23.5498 8.00306 23.7156 7.75505 23.8287 7.48207L22.443 6.90772C22.4053 6.99872 22.3501 7.0814 22.2804 7.15104L23.3408 8.21195ZM23.8287 7.48207C23.9419 7.2091 24.0001 6.91652 24.0002 6.62103L22.5002 6.62067C22.5002 6.71918 22.4808 6.81672 22.443 6.90772L23.8287 7.48207ZM24.0002 6.62103C24.0003 6.32553 23.9422 6.03292 23.8291 5.7599L22.4432 6.3336C22.4809 6.42462 22.5002 6.52217 22.5002 6.62067L24.0002 6.62103ZM23.8291 5.7599C23.7161 5.48688 23.5504 5.23879 23.3415 5.02979L22.2806 6.0902C22.3503 6.15987 22.4055 6.24258 22.4432 6.3336L23.8291 5.7599ZM23.3414 5.02961L18.9694 0.658606L17.9088 1.71939L22.2808 6.09039L23.3414 5.02961ZM18.9693 0.658586C18.5474 0.236777 17.9752 -0.000183105 17.3786 -0.000183105V1.49982C17.5775 1.49982 17.7682 1.5788 17.9088 1.71941L18.9693 0.658586ZM17.3786 -0.000183105C16.782 -0.000183105 16.2098 0.236777 15.7878 0.658586L16.8483 1.71941C16.989 1.5788 17.1797 1.49982 17.3786 1.49982V-0.000183105Z" fill="#767676"/>
<path d="M12.0744 1.18801L12.6046 1.71851L12.6057 1.71742L12.0744 1.18801ZM12.0744 3.31001L12.6048 2.77968L12.6046 2.77951L12.0744 3.31001ZM20.6894 11.925L20.1591 12.4553L20.1596 12.4558L20.6894 11.925ZM22.8104 9.80001L22.2801 10.3303L22.2806 10.3308L22.8104 9.80001ZM14.1994 1.18801L13.6682 1.71742L13.6691 1.71831L14.1994 1.18801ZM13.1369 0.746826V-0.00317383V0.746826ZM11.5443 0.657509C11.3352 0.86646 11.1693 1.11456 11.0562 1.38764L12.4419 1.96189C12.4796 1.87086 12.5349 1.78816 12.6046 1.71851L11.5443 0.657509ZM11.0562 1.38764C10.943 1.66072 10.8848 1.95342 10.8848 2.24901H12.3848C12.3848 2.15048 12.4042 2.05291 12.4419 1.96189L11.0562 1.38764ZM10.8848 2.24901C10.8848 2.5446 10.943 2.8373 11.0562 3.11038L12.4419 2.53613C12.4042 2.44511 12.3848 2.34754 12.3848 2.24901H10.8848ZM11.0562 3.11038C11.1693 3.38346 11.3352 3.63156 11.5443 3.84051L12.6046 2.77951C12.5349 2.70986 12.4796 2.62716 12.4419 2.53613L11.0562 3.11038ZM11.5441 3.84034L20.1591 12.4553L21.2198 11.3947L12.6048 2.77968L11.5441 3.84034ZM20.1596 12.4558C20.3689 12.6647 20.6172 12.8303 20.8904 12.9431L21.4631 11.5568C21.372 11.5191 21.2891 11.4639 21.2193 11.3942L20.1596 12.4558ZM20.8904 12.9431C21.1636 13.056 21.4564 13.114 21.7521 13.1137L21.7507 11.6137C21.652 11.6138 21.5543 11.5945 21.4631 11.5568L20.8904 12.9431ZM21.7521 13.1137C22.0477 13.1134 22.3404 13.0549 22.6134 12.9415L22.0381 11.5562C21.947 11.5941 21.8493 11.6136 21.7507 11.6137L21.7521 13.1137ZM22.6134 12.9415C22.8864 12.8281 23.1344 12.6621 23.3433 12.4528L22.2816 11.3932C22.2119 11.463 22.1292 11.5184 22.0381 11.5562L22.6134 12.9415ZM23.3433 12.4528C23.5521 12.2436 23.7177 11.9953 23.8306 11.722L22.4442 11.1493C22.4066 11.2405 22.3513 11.3234 22.2816 11.3932L23.3433 12.4528ZM23.8306 11.722C23.9435 11.4488 24.0014 11.156 24.0011 10.8604L22.5011 10.8618C22.5012 10.9604 22.4819 11.0581 22.4442 11.1493L23.8306 11.722ZM24.0011 10.8604C24.0009 10.5648 23.9423 10.2721 23.829 9.99906L22.4437 10.5744C22.4815 10.6655 22.501 10.7632 22.5011 10.8618L24.0011 10.8604ZM23.829 9.99906C23.7156 9.72604 23.5495 9.47803 23.3403 9.26918L22.2806 10.3308C22.3504 10.4005 22.4058 10.4833 22.4437 10.5744L23.829 9.99906ZM23.3408 9.26971L14.7298 0.65771L13.6691 1.71831L22.2801 10.3303L23.3408 9.26971ZM14.7307 0.6586C14.5217 0.44884 14.2733 0.282407 13.9998 0.168845L13.4246 1.55417C13.5157 1.59202 13.5985 1.6475 13.6682 1.71742L14.7307 0.6586ZM13.9998 0.168845C13.7263 0.0552832 13.4331 -0.00317383 13.1369 -0.00317383V1.49683C13.2357 1.49683 13.3334 1.51631 13.4246 1.55417L13.9998 0.168845ZM13.1369 -0.00317383C12.8408 -0.00317383 12.5476 0.0552832 12.2741 0.168845L12.8493 1.55417C12.9405 1.51631 13.0382 1.49683 13.1369 1.49683V-0.00317383ZM12.2741 0.168845C12.0006 0.282407 11.7522 0.44884 11.5432 0.6586L12.6057 1.71742C12.6754 1.6475 12.7582 1.59202 12.8493 1.55417L12.2741 0.168845Z" fill="#767676"/>
<path d="M1.18918 16.318L1.71959 16.8483L1.71968 16.8482L1.18918 16.318ZM3.31118 16.318L2.78068 16.8482L2.78085 16.8483L3.31118 16.318ZM7.68218 20.689L8.22173 20.1679L8.21251 20.1587L7.68218 20.689ZM5.56118 22.81L5.03083 23.3405L5.04015 23.3495L5.56118 22.81ZM1.18918 18.439L0.65877 18.9693L0.65891 18.9694L1.18918 18.439ZM0.75 17.3785H0H0.75ZM1.71968 16.8482C1.78933 16.7785 1.87203 16.7232 1.96306 16.6855L1.38881 15.2997C1.11573 15.4129 0.867629 15.5788 0.65868 15.7878L1.71968 16.8482ZM1.96306 16.6855C2.05408 16.6477 2.15165 16.6283 2.25018 16.6283V15.1283C1.95459 15.1283 1.66189 15.1866 1.38881 15.2997L1.96306 16.6855ZM2.25018 16.6283C2.34871 16.6283 2.44628 16.6477 2.5373 16.6855L3.11155 15.2997C2.83847 15.1866 2.54577 15.1283 2.25018 15.1283V16.6283ZM2.5373 16.6855C2.62833 16.7232 2.71103 16.7785 2.78068 16.8482L3.84168 15.7878C3.63273 15.5788 3.38463 15.4129 3.11155 15.2997L2.5373 16.6855ZM2.78085 16.8483L7.15185 21.2193L8.21251 20.1587L3.84151 15.7877L2.78085 16.8483ZM7.14271 21.21C7.27933 21.3515 7.35493 21.5409 7.35322 21.7376L8.85316 21.7506C8.85829 21.1607 8.6315 20.5923 8.22165 20.168L7.14271 21.21ZM7.35322 21.7376C7.35151 21.9342 7.27263 22.1223 7.13358 22.2614L8.19424 23.3221C8.61141 22.9049 8.84804 22.3406 8.85316 21.7506L7.35322 21.7376ZM7.13358 22.2614C6.99452 22.4005 6.80641 22.4793 6.60976 22.481L6.6228 23.981C7.21274 23.9759 7.77707 23.7392 8.19424 23.3221L7.13358 22.2614ZM6.60976 22.481C6.41312 22.4828 6.22366 22.4072 6.08221 22.2705L5.04015 23.3495C5.4645 23.7593 6.03286 23.9861 6.6228 23.981L6.60976 22.481ZM6.09145 22.2796L1.71945 17.9086L0.65891 18.9694L5.03091 23.3404L6.09145 22.2796ZM1.71959 17.9088C1.57899 17.7681 1.5 17.5774 1.5 17.3785H0C0 17.9751 0.23696 18.5473 0.65877 18.9693L1.71959 17.9088ZM1.5 17.3785C1.5 17.1796 1.57899 16.9889 1.71959 16.8483L0.65877 15.7878C0.23696 16.2097 0 16.7819 0 17.3785H1.5Z" fill="#767676"/>
<path d="M1.18876 12.074L1.71791 12.6055L1.71901 12.6044L1.18876 12.074ZM3.30976 12.074L3.84009 11.5437L3.84001 11.5436L3.30976 12.074ZM11.9248 20.689L12.4555 20.1591L12.4551 20.1587L11.9248 20.689ZM9.79976 22.811L10.3305 22.2811L10.3301 22.2807L9.79976 22.811ZM1.18876 14.2L1.71909 13.6697L1.71791 13.6685L1.18876 14.2ZM0.74707 13.137H1.49707H0.74707ZM1.71901 12.6044C1.85965 12.4638 2.05038 12.3848 2.24926 12.3848V10.8848C1.65263 10.8848 1.08044 11.1218 0.658505 11.5436L1.71901 12.6044ZM2.24926 12.3848C2.44813 12.3848 2.63886 12.4638 2.77951 12.6044L3.84001 11.5436C3.41807 11.1218 2.84588 10.8848 2.24926 10.8848V12.3848ZM2.77942 12.6043L11.3944 21.2193L12.4551 20.1587L3.84009 11.5437L2.77942 12.6043ZM11.3941 21.219C11.5349 21.36 11.6139 21.5512 11.6138 21.7505L13.1138 21.7516C13.1142 21.1545 12.8774 20.5816 12.4555 20.1591L11.3941 21.219ZM11.6138 21.7505C11.6137 21.9499 11.5343 22.141 11.3933 22.2818L12.4532 23.3432C12.8758 22.9213 13.1134 22.3487 13.1138 21.7516L11.6138 21.7505ZM11.3933 22.2818C11.2523 22.4226 11.061 22.5017 10.8617 22.5015L10.8607 24.0015C11.4578 24.002 12.0307 23.7652 12.4532 23.3432L11.3933 22.2818ZM10.8617 22.5015C10.6624 22.5014 10.4713 22.4221 10.3305 22.2811L9.26905 23.341C9.691 23.7635 10.2635 24.0011 10.8607 24.0015L10.8617 22.5015ZM10.3301 22.2807L1.71909 13.6697L0.658425 14.7303L9.26943 23.3413L10.3301 22.2807ZM1.71791 13.6685C1.64792 13.5988 1.59238 13.516 1.55448 13.4248L0.169293 14.0003C0.282989 14.274 0.449612 14.5224 0.659598 14.7315L1.71791 13.6685ZM1.55448 13.4248C1.51658 13.3336 1.49707 13.2358 1.49707 13.137H-0.00292969C-0.00292969 13.4333 0.0555982 13.7267 0.169293 14.0003L1.55448 13.4248ZM1.49707 13.137C1.49707 13.0382 1.51658 12.9404 1.55448 12.8492L0.169293 12.2737C0.0555982 12.5473 -0.00292969 12.8407 -0.00292969 13.137H1.49707ZM1.55448 12.8492C1.59238 12.758 1.64792 12.6752 1.71791 12.6055L0.659598 11.5425C0.449612 11.7516 0.282989 12 0.169293 12.2737L1.55448 12.8492Z" fill="#767676"/>
<path d="M6.55664 15.3213L6.02631 14.791C5.88566 14.9316 5.80664 15.1224 5.80664 15.3213C5.80664 15.5202 5.88566 15.711 6.02631 15.8516L6.55664 15.3213ZM15.3212 6.5567L15.8516 6.02637C15.7109 5.88572 15.5201 5.8067 15.3212 5.8067C15.1223 5.8067 14.9316 5.88572 14.7909 6.02637L15.3212 6.5567ZM17.4425 8.67802L17.9729 9.20835C18.2658 8.91546 18.2658 8.44059 17.9729 8.14769L17.4425 8.67802ZM8.67796 17.4426L8.14763 17.9729C8.28828 18.1136 8.47905 18.1926 8.67796 18.1926C8.87687 18.1926 9.06764 18.1136 9.20829 17.9729L8.67796 17.4426ZM7.08697 15.8516L15.8516 7.08703L14.7909 6.02637L6.02631 14.791L7.08697 15.8516ZM14.7909 7.08703L16.9122 9.20835L17.9729 8.14769L15.8516 6.02637L14.7909 7.08703ZM16.9122 8.14769L8.14763 16.9123L9.20829 17.9729L17.9729 9.20835L16.9122 8.14769ZM9.20829 16.9123L7.08697 14.791L6.02631 15.8516L8.14763 17.9729L9.20829 16.9123Z" fill="#767676"/>
</g>
<defs>
<clipPath id="clip0_1312_559">
<rect width="24" height="24" fill="white"/>
</clipPath>
</defs>
</svg>
