<svg width="24" height="24" viewBox="0 0 24 24" fill="none" xmlns="http://www.w3.org/2000/svg">
<g clip-path="url(#clip0_1312_559)">
<path d="M16.3178 1.18901C16.0365 1.4703 15.8786 1.85176 15.8786 2.24951C15.8786 2.64726 16.0365 3.02872 16.3178 3.31001L20.6888 7.68101C20.828 7.82034 20.9934 7.93088 21.1754 8.00631C21.3573 8.08174 21.5524 8.12059 21.7494 8.12064C21.9464 8.12068 22.1415 8.08193 22.3235 8.00658C22.5055 7.93124 22.6709 7.82078 22.8103 7.68151C22.9496 7.54224 23.0601 7.3769 23.1356 7.19491C23.211 7.01292 23.2498 6.81786 23.2499 6.62086C23.2499 6.42386 23.2112 6.22878 23.1358 6.04676C23.0605 5.86474 22.95 5.69934 22.8108 5.56001L18.4388 1.18901C18.1575 0.907802 17.776 0.749829 17.3783 0.749829C16.9805 0.749829 16.599 0.907802 16.3178 1.18901Z" stroke="#767676" stroke-width="1.5" stroke-linecap="round" stroke-linejoin="round"/>
<path d="M12.0748 1.18801C11.9354 1.32731 11.8248 1.49271 11.7493 1.67476C11.6739 1.85681 11.6351 2.05195 11.6351 2.24901C11.6351 2.44607 11.6739 2.64121 11.7493 2.82326C11.8248 3.00531 11.9354 3.17071 12.0748 3.31001L20.6898 11.925C20.8293 12.0643 20.9949 12.1747 21.1771 12.25C21.3593 12.3252 21.5545 12.3639 21.7517 12.3637C21.9488 12.3635 22.144 12.3245 22.326 12.2489C22.5081 12.1733 22.6735 12.0625 22.8128 11.923C22.952 11.7835 23.0624 11.6179 23.1377 11.4357C23.213 11.2535 23.2516 11.0582 23.2514 10.8611C23.2513 10.664 23.2122 10.4688 23.1366 10.2867C23.061 10.1047 22.9503 9.93928 22.8108 9.80001L14.1998 1.18801C14.0604 1.04817 13.8948 0.937214 13.7125 0.861506C13.5302 0.785798 13.3347 0.746826 13.1373 0.746826C12.9398 0.746826 12.7444 0.785798 12.562 0.861506C12.3797 0.937214 12.2141 1.04817 12.0748 1.18801Z" stroke="#767676" stroke-width="1.5" stroke-linecap="round" stroke-linejoin="round"/>
<path d="M1.18876 16.318C1.32806 16.1786 1.49346 16.068 1.67551 15.9926C1.85756 15.9172 2.05269 15.8783 2.24976 15.8783C2.44682 15.8783 2.64195 15.9172 2.824 15.9926C3.00605 16.068 3.17145 16.1786 3.31076 16.318L7.68176 20.689C7.95499 20.9719 8.10618 21.3508 8.10277 21.7441C8.09935 22.1374 7.9416 22.5136 7.66348 22.7917C7.38537 23.0698 7.00915 23.2276 6.61586 23.231C6.22256 23.2344 5.84366 23.0832 5.56076 22.81L1.18876 18.439C0.907549 18.1577 0.749575 17.7763 0.749575 17.3785C0.749575 16.9808 0.907549 16.5993 1.18876 16.318Z" stroke="#767676" stroke-width="1.5" stroke-linecap="round" stroke-linejoin="round"/>
<path d="M1.18876 12.074C1.47005 11.7928 1.85151 11.6348 2.24926 11.6348C2.647 11.6348 3.02846 11.7928 3.30976 12.074L11.9248 20.689C12.2061 20.9708 12.3641 21.3528 12.3638 21.7511C12.3635 22.1493 12.205 22.5311 11.9233 22.8125C11.6415 23.0939 11.2594 23.2518 10.8612 23.2516C10.463 23.2513 10.0811 23.0928 9.79976 22.811L1.18876 14.2C1.04876 14.0606 0.937683 13.895 0.861886 13.7126C0.786089 13.5301 0.74707 13.3345 0.74707 13.137C0.74707 12.9395 0.786089 12.7439 0.861886 12.5615C0.937683 12.379 1.04876 12.2134 1.18876 12.074Z" stroke="#767676" stroke-width="1.5" stroke-linecap="round" stroke-linejoin="round"/>
<path d="M15.3209 6.5567L6.5563 15.3213L8.67762 17.4426L17.4422 8.67802L15.3209 6.5567Z" stroke="#767676" stroke-width="1.5" stroke-linecap="round" stroke-linejoin="round"/>
</g>
<defs>
<clipPath id="clip0_1312_559">
<rect width="24" height="24" fill="white"/>
</clipPath>
</defs>
</svg>
