<svg width="24" height="24" viewBox="0 0 24 24" fill="none" xmlns="http://www.w3.org/2000/svg">
<path d="M5 20.5L12 20.5L19 20.5M5 5.5L12 5.5L19 5.5M14 23L10 23M14 3L10 3M22 2L20 2C19.4477 2 19 2.44772 19 3L19 8C19 8.55229 19.4477 9 20 9L22 9C22.5523 9 23 8.55229 23 8L23 3C23 2.44772 22.5523 2 22 2ZM4 2L2 2C1.44772 2 1 2.44772 1 3L1 8C1 8.55228 1.44772 9 2 9L4 9C4.55229 9 5 8.55229 5 8L5 3C5 2.44772 4.55229 2 4 2Z" stroke="#474445" stroke-width="1.5" stroke-linecap="round" stroke-linejoin="round"/>
</svg>
