<svg width="24" height="24" viewBox="0 0 24 24" fill="none" xmlns="http://www.w3.org/2000/svg">
<path d="M22 8.25L20 8.25L20 9.75L22 9.75L22 8.25ZM19.75 8L19.75 3L18.25 3L18.25 8L19.75 8ZM20 2.75L22 2.75L22 1.25L20 1.25L20 2.75ZM22.25 3L22.25 8L23.75 8L23.75 3L22.25 3ZM22 2.75C22.1381 2.75 22.25 2.86193 22.25 3L23.75 3C23.75 2.0335 22.9665 1.25 22 1.25L22 2.75ZM19.75 3C19.75 2.86193 19.8619 2.75 20 2.75L20 1.25C19.0335 1.25 18.25 2.0335 18.25 3L19.75 3ZM20 8.25C19.8619 8.25 19.75 8.13807 19.75 8L18.25 8C18.25 8.9665 19.0335 9.75 20 9.75L20 8.25ZM22 9.75C22.9665 9.75 23.75 8.9665 23.75 8L22.25 8C22.25 8.13807 22.1381 8.25 22 8.25L22 9.75Z" fill="#767676"/>
<path d="M4 8.25L2 8.25L2 9.75L4 9.75L4 8.25ZM1.75 8L1.75 3L0.250001 3L0.25 8L1.75 8ZM2 2.75L4 2.75L4 1.25L2 1.25L2 2.75ZM4.25 3L4.25 8L5.75 8L5.75 3L4.25 3ZM4 2.75C4.13807 2.75 4.25 2.86193 4.25 3L5.75 3C5.75 2.0335 4.9665 1.25 4 1.25L4 2.75ZM1.75 3C1.75 2.86193 1.86193 2.75 2 2.75L2 1.25C1.0335 1.25 0.250001 2.0335 0.250001 3L1.75 3ZM2 8.25C1.86193 8.25 1.75 8.13807 1.75 8L0.25 8C0.25 8.9665 1.0335 9.75 2 9.75L2 8.25ZM4 9.75C4.9665 9.75 5.75 8.9665 5.75 8L4.25 8C4.25 8.13807 4.13807 8.25 4 8.25L4 9.75Z" fill="#767676"/>
<path d="M5 19.75C4.58579 19.75 4.25 20.0858 4.25 20.5C4.25 20.9142 4.58579 21.25 5 21.25L5 19.75ZM19 21.25C19.4142 21.25 19.75 20.9142 19.75 20.5C19.75 20.0858 19.4142 19.75 19 19.75L19 21.25ZM12 19.75L5 19.75L5 21.25L12 21.25L12 19.75ZM12 21.25L19 21.25L19 19.75L12 19.75L12 21.25Z" fill="#767676"/>
<path d="M5 4.75C4.58579 4.75 4.25 5.08579 4.25 5.5C4.25 5.91421 4.58579 6.25 5 6.25L5 4.75ZM19 6.25C19.4142 6.25 19.75 5.91422 19.75 5.5C19.75 5.08579 19.4142 4.75 19 4.75L19 6.25ZM12 4.75L5 4.75L5 6.25L12 6.25L12 4.75ZM12 6.25L19 6.25L19 4.75L12 4.75L12 6.25Z" fill="#767676"/>
<path d="M14 23.75C14.4142 23.75 14.75 23.4142 14.75 23C14.75 22.5858 14.4142 22.25 14 22.25L14 23.75ZM10 22.25C9.58579 22.25 9.25 22.5858 9.25 23C9.25 23.4142 9.58579 23.75 10 23.75L10 22.25ZM14 22.25L10 22.25L10 23.75L14 23.75L14 22.25Z" fill="#767676"/>
<path d="M14 3.75C14.4142 3.75 14.75 3.41421 14.75 3C14.75 2.58579 14.4142 2.25 14 2.25L14 3.75ZM10 2.25C9.58579 2.25 9.25 2.58579 9.25 3C9.25 3.41421 9.58579 3.75 10 3.75L10 2.25ZM14 2.25L10 2.25L10 3.75L14 3.75L14 2.25Z" fill="#767676"/>
</svg>
