<svg width="24" height="24" viewBox="0 0 24 24" fill="none" xmlns="http://www.w3.org/2000/svg">
<g clip-path="url(#clip0)">
<path fill-rule="evenodd" clip-rule="evenodd" d="M1.5 1.75C1.5 1.61193 1.61193 1.5 1.75 1.5H14.75C14.8881 1.5 15 1.61193 15 1.75V4.5H1.5V1.75ZM16.5 1.75V4.5H17.25C17.8467 4.5 18.419 4.73705 18.841 5.15901C19.2629 5.58097 19.5 6.15326 19.5 6.75V21.75C19.5 21.9489 19.579 22.1397 19.7197 22.2803C19.8603 22.421 20.0511 22.5 20.25 22.5C20.4489 22.5 20.6397 22.421 20.7803 22.2803C20.921 22.1397 21 21.9489 21 21.75V12.7501V12.75C20.9999 11.6233 21.3332 10.5218 21.9578 9.58417L21.9583 9.5834L22.6263 8.5834C22.8564 8.23897 23.3222 8.14626 23.6666 8.37635C24.011 8.60643 24.1037 9.07217 23.8737 9.4166L23.2062 10.4158C22.8857 10.8969 22.6692 11.4364 22.5673 12H23.25C23.6642 12 24 12.3358 24 12.75C24 13.1642 23.6642 13.5 23.25 13.5H22.5V21.75C22.5 22.3467 22.2629 22.919 21.841 23.341C21.419 23.7629 20.8467 24 20.25 24C19.6533 24 19.081 23.7629 18.659 23.341C18.2371 22.919 18 22.3467 18 21.75V6.75C18 6.55109 17.921 6.36032 17.7803 6.21967C17.6397 6.07902 17.4489 6 17.25 6H16.5V22.25C16.5 23.2165 15.7165 24 14.75 24H1.75C0.783502 24 0 23.2165 0 22.25V1.75C0 0.783502 0.783502 0 1.75 0H14.75C15.7165 0 16.5 0.783502 16.5 1.75ZM1.5 6H15V22.25C15 22.3881 14.8881 22.5 14.75 22.5H1.75C1.61193 22.5 1.5 22.3881 1.5 22.25V6ZM8.5 10L9.12952 9.59232C8.99129 9.37887 8.75431 9.25 8.5 9.25C8.24569 9.25 8.00871 9.37887 7.87048 9.59232L8.5 10ZM8.5 10C9.12952 9.59232 9.12957 9.59239 9.12962 9.59248L9.12978 9.59272L9.13026 9.59346L9.1319 9.596L9.13783 9.6052L9.15993 9.63967C9.17906 9.66958 9.20678 9.71313 9.24187 9.76879C9.31203 9.88008 9.41176 10.04 9.53122 10.2362C9.76977 10.6279 10.0888 11.1675 10.4089 11.756C10.7276 12.3421 11.0541 12.989 11.3029 13.593C11.5399 14.1684 11.75 14.8051 11.75 15.3333C11.75 16.2244 11.4186 17.088 10.8149 17.7319C10.2097 18.3775 9.37815 18.75 8.5 18.75C7.62186 18.75 6.79028 18.3775 6.18508 17.7319C5.58141 17.088 5.25 16.2244 5.25 15.3333C5.25 14.8051 5.46014 14.1684 5.69714 13.593C5.94591 12.989 6.27237 12.3421 6.59113 11.756C6.91117 11.1675 7.23024 10.6279 7.46878 10.2362C7.58824 10.04 7.68797 9.88008 7.75813 9.76879C7.79322 9.71313 7.82094 9.66958 7.84007 9.63967L7.86217 9.6052L7.8681 9.596L7.86974 9.59346L7.87022 9.59272L7.87038 9.59248C7.87043 9.59239 7.87048 9.59232 8.5 10ZM7.90887 12.4727C8.11316 12.097 8.31789 11.7407 8.5 11.4328C8.68211 11.7407 8.88684 12.097 9.09113 12.4727C9.39737 13.0357 9.69591 13.6301 9.91589 14.1643C10.1476 14.7269 10.25 15.1251 10.25 15.3333C10.25 15.8567 10.0546 16.3497 9.72061 16.706C9.38814 17.0606 8.94794 17.25 8.5 17.25C8.05206 17.25 7.61186 17.0606 7.27939 16.706C6.94537 16.3497 6.75 15.8567 6.75 15.3333C6.75 15.1251 6.85236 14.7269 7.08411 14.1643C7.3041 13.6301 7.60263 13.0357 7.90887 12.4727Z" fill="#474445"/>
</g>
<defs>
<clipPath id="clip0">
<rect width="24" height="24" fill="white"/>
</clipPath>
</defs>
</svg>
