<svg width="24" height="24" viewBox="0 0 24 24" fill="none" xmlns="http://www.w3.org/2000/svg">
<g clip-path="url(#clip0_148:222)">
<path fill-rule="evenodd" clip-rule="evenodd" d="M1.75 1.5C1.61193 1.5 1.5 1.61193 1.5 1.75V9H15V5.25V1.75C15 1.61193 14.8881 1.5 14.75 1.5H1.75ZM16.5 1.75V4.5H17.25C17.8467 4.5 18.419 4.73705 18.841 5.15901C19.2629 5.58097 19.5 6.15326 19.5 6.75V21.75C19.5 21.9489 19.579 22.1397 19.7197 22.2803C19.8603 22.421 20.0511 22.5 20.25 22.5C20.4489 22.5 20.6397 22.421 20.7803 22.2803C20.921 22.1397 21 21.9489 21 21.75V12.7501V12.75C20.9999 11.6233 21.3332 10.5218 21.9578 9.58417L21.9583 9.5834L22.6263 8.5834C22.8564 8.23897 23.3222 8.14626 23.6666 8.37635C24.011 8.60643 24.1037 9.07217 23.8737 9.4166L23.2062 10.4158L23.206 10.4161C22.8856 10.8971 22.6692 11.4365 22.5673 12H23.25C23.6642 12 24 12.3358 24 12.75C24 13.1642 23.6642 13.5 23.25 13.5H22.5V21.75C22.5 22.3467 22.2629 22.919 21.841 23.341C21.419 23.7629 20.8467 24 20.25 24C19.6533 24 19.081 23.7629 18.659 23.341C18.2371 22.919 18 22.3467 18 21.75V6.75C18 6.55109 17.921 6.36032 17.7803 6.21967C17.6397 6.07902 17.4489 6 17.25 6H16.5V9.75V22.25C16.5 23.2165 15.7165 24 14.75 24H1.75C0.783502 24 0 23.2165 0 22.25V9.75V1.75C0 0.783502 0.783502 0 1.75 0H14.75C15.7165 0 16.5 0.783502 16.5 1.75ZM15 10.5H1.5V22.25C1.5 22.3881 1.61193 22.5 1.75 22.5H14.75C14.8881 22.5 15 22.3881 15 22.25V10.5ZM3.65901 3.65901C4.08097 3.23705 4.65326 3 5.25 3H11.25C11.8467 3 12.419 3.23705 12.841 3.65901C13.2629 4.08097 13.5 4.65326 13.5 5.25C13.5 5.84674 13.2629 6.41903 12.841 6.84099C12.419 7.26295 11.8467 7.5 11.25 7.5H5.25C4.65326 7.5 4.08097 7.26295 3.65901 6.84099C3.23705 6.41903 3 5.84674 3 5.25C3 4.65326 3.23705 4.08097 3.65901 3.65901ZM5.25 4.5C5.05109 4.5 4.86032 4.57902 4.71967 4.71967C4.57902 4.86032 4.5 5.05109 4.5 5.25C4.5 5.44891 4.57902 5.63968 4.71967 5.78033C4.86032 5.92098 5.05109 6 5.25 6H11.25C11.4489 6 11.6397 5.92098 11.7803 5.78033C11.921 5.63968 12 5.44891 12 5.25C12 5.05109 11.921 4.86032 11.7803 4.71967C11.6397 4.57902 11.4489 4.5 11.25 4.5H5.25Z" fill="#767676"/>
</g>
<defs>
<clipPath id="clip0_148:222">
<rect width="24" height="24" fill="white"/>
</clipPath>
</defs>
</svg>
