<svg width="24" height="24" viewBox="0 0 24 24" fill="none" xmlns="http://www.w3.org/2000/svg">
<path d="M11.9357 0.250176C11.5215 0.252442 11.1876 0.59006 11.1898 1.00427C11.1921 1.41847 11.5297 1.75242 11.9439 1.75015L11.9357 0.250176ZM2.28847 6.83416L1.65477 6.433C1.64467 6.44895 1.63518 6.46528 1.62632 6.48194L2.28847 6.83416ZM3.1337 6.90115C3.35525 6.55117 3.25114 6.08785 2.90115 5.8663C2.55117 5.64475 2.08785 5.74886 1.8663 6.09885L3.1337 6.90115ZM11.9439 1.75015C14.1874 1.73788 16.373 2.46203 18.1653 3.81151L19.0676 2.61319C17.013 1.06623 14.5076 0.236108 11.9357 0.250176L11.9439 1.75015ZM18.1653 3.81151C19.9576 5.16098 21.2577 7.06123 21.866 9.22072L23.3098 8.814C22.6125 6.33849 21.1222 4.16015 19.0676 2.61319L18.1653 3.81151ZM21.866 9.22072C22.4743 11.3802 22.3574 13.6796 21.533 15.7662L22.9281 16.3174C23.8731 13.9255 24.0072 11.2895 23.3098 8.814L21.866 9.22072ZM21.533 15.7662C20.7086 17.8528 19.2224 19.6113 17.3024 20.7719L18.0784 22.0556C20.2794 20.7252 21.9831 18.7094 22.9281 16.3174L21.533 15.7662ZM17.3024 20.7719C15.3824 21.9325 13.1346 22.4311 10.9039 22.1912L10.7435 23.6826C13.3007 23.9576 15.8774 23.3861 18.0784 22.0556L17.3024 20.7719ZM10.9039 22.1912C8.67327 21.9513 6.58292 20.9861 4.9536 19.4438L3.92242 20.5332C5.79017 22.3012 8.18643 23.4076 10.7435 23.6826L10.9039 22.1912ZM4.9536 19.4438C3.32429 17.9015 2.246 15.8672 1.88418 13.653L0.403819 13.8949C0.818584 16.4331 2.05467 18.7651 3.92242 20.5332L4.9536 19.4438ZM1.88418 13.653C1.52237 11.4388 1.89701 9.16712 2.95062 7.18637L1.62632 6.48194C0.418517 8.75255 -0.0109459 11.3567 0.403819 13.8949L1.88418 13.653ZM2.92217 7.23531L3.1337 6.90115L1.8663 6.09885L1.65477 6.433L2.92217 7.23531Z" fill="#71717A"/>
<path d="M5.84101 6.303L5.31068 5.77267H5.31068L5.84101 6.303ZM2 4.712H1.25H2ZM2.65901 3.121L2.12868 2.59067L2.12868 2.59067L2.65901 3.121ZM4.25001 1.53L4.78034 0.999669C4.48745 0.706775 4.01258 0.706775 3.71968 0.999669L4.25001 1.53ZM7.43201 4.712L7.96234 5.24233C8.103 5.10168 8.18201 4.91091 8.18201 4.712C8.18201 4.51309 8.103 4.32232 7.96234 4.18167L7.43201 4.712ZM5.31068 5.77267C5.02938 6.05398 4.64784 6.21201 4.25001 6.21201V7.71201C5.04567 7.71201 5.80873 7.39594 6.37134 6.83333L5.31068 5.77267ZM4.25001 6.21201C3.85219 6.21201 3.47065 6.05398 3.18934 5.77267L2.12868 6.83333C2.6913 7.39594 3.45436 7.71201 4.25001 7.71201V6.21201ZM3.18934 5.77267C2.90804 5.49136 2.75 5.10983 2.75 4.712H1.25C1.25 5.50765 1.56607 6.27072 2.12868 6.83333L3.18934 5.77267ZM2.75 4.712C2.75 4.31417 2.90804 3.93264 3.18934 3.65133L2.12868 2.59067C1.56607 3.15328 1.25 3.91635 1.25 4.712H2.75ZM3.18934 3.65133L4.78034 2.06033L3.71968 0.999669L2.12868 2.59067L3.18934 3.65133ZM3.71968 2.06033L6.90168 5.24233L7.96234 4.18167L4.78034 0.999669L3.71968 2.06033ZM6.90168 4.18167L5.31068 5.77267L6.37134 6.83333L7.96234 5.24233L6.90168 4.18167Z" fill="#71717A"/>
<path d="M4.25019 1.52942C3.95716 1.82218 3.95694 2.29705 4.24969 2.59008C4.54245 2.88311 5.01732 2.88334 5.31035 2.59058L4.25019 1.52942ZM6.37135 1.53058C6.66438 1.23782 6.66461 0.762951 6.37185 0.46992C6.0791 0.176889 5.60422 0.176665 5.31119 0.46942L6.37135 1.53058ZM5.31035 2.59058L6.37135 1.53058L5.31119 0.46942L4.25019 1.52942L5.31035 2.59058Z" fill="#71717A"/>
<path d="M6.37176 3.65192C6.07901 3.94495 6.07923 4.41983 6.37226 4.71258C6.6653 5.00534 7.14017 5.00511 7.43292 4.71208L6.37176 3.65192ZM8.49292 3.65108C8.78568 3.35805 8.78545 2.88318 8.49242 2.59042C8.19939 2.29767 7.72452 2.29789 7.43176 2.59092L8.49292 3.65108ZM7.43292 4.71208L8.49292 3.65108L7.43176 2.59092L6.37176 3.65192L7.43292 4.71208Z" fill="#71717A"/>
<path d="M9 13H8.25H9ZM12 7L12.6171 6.57374C12.4771 6.37101 12.2464 6.25 12 6.25C11.7536 6.25 11.5229 6.37101 11.3829 6.57374L12 7ZM14.25 13C14.25 13.5967 14.0129 14.169 13.591 14.591L14.6517 15.6517C15.3549 14.9484 15.75 13.9946 15.75 13H14.25ZM13.591 14.591C13.169 15.0129 12.5967 15.25 12 15.25V16.75C12.9946 16.75 13.9484 16.3549 14.6517 15.6517L13.591 14.591ZM12 15.25C11.4033 15.25 10.831 15.0129 10.409 14.591L9.34835 15.6517C10.0516 16.3549 11.0054 16.75 12 16.75V15.25ZM10.409 14.591C9.98705 14.169 9.75 13.5967 9.75 13H8.25C8.25 13.9946 8.64509 14.9484 9.34835 15.6517L10.409 14.591ZM9.75 13C9.75 12.7561 9.87648 12.3 10.1554 11.6651C10.4208 11.061 10.7805 10.3898 11.1487 9.75496C11.5156 9.12262 11.8835 8.53914 12.1602 8.11299C12.2984 7.90024 12.4134 7.72748 12.4935 7.60836C12.5335 7.54882 12.5648 7.50273 12.5859 7.4718C12.5964 7.45633 12.6044 7.44466 12.6097 7.437C12.6123 7.43317 12.6143 7.43034 12.6155 7.42855C12.6161 7.42765 12.6166 7.427 12.6168 7.42662C12.617 7.42643 12.6171 7.42631 12.6171 7.42625C12.6171 7.42622 12.6171 7.42622 12.6171 7.42621C12.6171 7.42623 12.6171 7.42626 12 7C11.3829 6.57374 11.3829 6.57381 11.3828 6.57389C11.3828 6.57394 11.3827 6.57405 11.3826 6.57415C11.3825 6.57435 11.3823 6.57462 11.3821 6.57496C11.3816 6.57563 11.381 6.57657 11.3801 6.57776C11.3785 6.58015 11.3761 6.58358 11.3731 6.58801C11.367 6.59689 11.3581 6.60981 11.3467 6.62656C11.3239 6.66006 11.2907 6.70889 11.2487 6.77134C11.1648 6.8962 11.0453 7.07568 10.9023 7.29598C10.6165 7.73592 10.2344 8.34175 9.85126 9.00229C9.4695 9.66036 9.0792 10.3855 8.7821 11.0618C8.49852 11.7072 8.25 12.4154 8.25 13H9.75ZM12 7C11.3829 7.42626 11.3829 7.42623 11.3829 7.42621C11.3829 7.42622 11.3829 7.42622 11.3829 7.42625C11.3829 7.42631 11.383 7.42643 11.3832 7.42662C11.3834 7.427 11.3839 7.42765 11.3845 7.42855C11.3857 7.43034 11.3877 7.43317 11.3903 7.437C11.3956 7.44466 11.4036 7.45633 11.4141 7.4718C11.4352 7.50273 11.4665 7.54882 11.5065 7.60836C11.5866 7.72748 11.7016 7.90024 11.8398 8.11299C12.1165 8.53914 12.4844 9.12262 12.8513 9.75496C13.2195 10.3898 13.5792 11.061 13.8446 11.6651C14.1235 12.3 14.25 12.7561 14.25 13H15.75C15.75 12.4154 15.5015 11.7072 15.2179 11.0618C14.9208 10.3855 14.5305 9.66036 14.1487 9.00229C13.7656 8.34175 13.3835 7.73592 13.0977 7.29598C12.9547 7.07568 12.8352 6.8962 12.7513 6.77134C12.7093 6.70889 12.6761 6.66006 12.6533 6.62656C12.6419 6.60981 12.633 6.59689 12.6269 6.58801C12.6239 6.58358 12.6215 6.58015 12.6199 6.57776C12.619 6.57657 12.6184 6.57563 12.6179 6.57496C12.6177 6.57462 12.6175 6.57435 12.6174 6.57415C12.6173 6.57405 12.6172 6.57394 12.6172 6.57389C12.6171 6.57381 12.6171 6.57374 12 7Z" fill="#71717A"/>
</svg>
