<svg width="24" height="24" viewBox="0 0 24 24" fill="none" xmlns="http://www.w3.org/2000/svg">
<path fill-rule="evenodd" clip-rule="evenodd" d="M2.75001 1.5C2.75001 1.08579 2.41422 0.75 2.00001 0.75C1.5858 0.75 1.25001 1.08579 1.25001 1.5V16.1113C1.25 16.1137 1.25 16.1161 1.25001 16.1185V22.5C1.25001 22.9142 1.5858 23.25 2.00001 23.25C2.41422 23.25 2.75001 22.9142 2.75001 22.5V16.4524L7.3582 12.3725C7.37069 12.3615 7.38281 12.35 7.39453 12.3382C7.46301 12.2689 7.54385 12.2143 7.63223 12.1773C7.72058 12.1403 7.81499 12.1213 7.91012 12.1213C8.00525 12.1213 8.09966 12.1403 8.18801 12.1773C8.27639 12.2143 8.35724 12.2689 8.42571 12.3382L8.42588 12.3383L11.5186 15.4662L11.5187 15.4663C11.7257 15.6757 11.9719 15.8423 12.2434 15.9561C12.5151 16.07 12.8066 16.1287 13.1011 16.1287C13.3957 16.1287 13.6872 16.07 13.9588 15.9561C14.2304 15.8423 14.4766 15.6757 14.6835 15.4663L14.6837 15.4662L21.25 8.82523V12C21.25 12.4142 21.5858 12.75 22 12.75C22.4142 12.75 22.75 12.4142 22.75 12V7C22.75 6.58579 22.4142 6.25 22 6.25H17C16.5858 6.25 16.25 6.58579 16.25 7C16.25 7.41421 16.5858 7.75 17 7.75H20.2037L13.6169 14.4117L13.6167 14.4118C13.5482 14.4811 13.4674 14.5357 13.379 14.5727C13.2907 14.6097 13.1963 14.6287 13.1011 14.6287C13.006 14.6287 12.9116 14.6097 12.8232 14.5727C12.7349 14.5357 12.654 14.4811 12.5855 14.4118L12.5854 14.4117L9.49269 11.2838L9.49252 11.2837C9.28556 11.0743 9.03938 10.9077 8.76782 10.7939C8.49616 10.68 8.20469 10.6213 7.91012 10.6213C7.61555 10.6213 7.32408 10.68 7.05242 10.7939C6.78926 10.9042 6.54994 11.064 6.34705 11.2644L2.75001 14.449V1.5Z" fill="#474445"/>
</svg>
