<svg width="24" height="24" viewBox="0 0 24 24" fill="none" xmlns="http://www.w3.org/2000/svg">
<path fill-rule="evenodd" clip-rule="evenodd" d="M13.5 0.75C13.3011 0.75 13.1103 0.829018 12.9697 0.96967C12.829 1.11032 12.75 1.30109 12.75 1.5V10.5C12.75 10.9142 13.0858 11.25 13.5 11.25H22.5C22.6989 11.25 22.8897 11.171 23.0303 11.0303C23.171 10.8897 23.25 10.6989 23.25 10.5C23.25 7.91414 22.2228 5.43419 20.3943 3.60571C18.5658 1.77723 16.0859 0.75 13.5 0.75ZM14.25 9.75V2.28414C16.163 2.4587 17.9642 3.29697 19.3336 4.66637C20.703 6.03577 21.5413 7.837 21.7159 9.75H14.25ZM10.5 3.75C8.57164 3.75 6.68657 4.32183 5.08319 5.39317C3.47982 6.46452 2.23013 7.98726 1.49218 9.76884C0.754224 11.5504 0.561142 13.5108 0.937348 15.4021C1.31355 17.2934 2.24215 19.0307 3.60571 20.3943C4.96927 21.7579 6.70656 22.6865 8.59787 23.0627C10.4892 23.4389 12.4496 23.2458 14.2312 22.5078C16.0127 21.7699 17.5355 20.5202 18.6068 18.9168C19.6782 17.3134 20.25 15.4284 20.25 13.5C20.25 13.0858 19.9142 12.75 19.5 12.75H11.25V4.5C11.25 4.30109 11.171 4.11032 11.0303 3.96967C10.8897 3.82902 10.6989 3.75 10.5 3.75ZM5.91655 6.64038C7.06446 5.87336 8.38301 5.40894 9.75 5.28416V13.5C9.75 13.9142 10.0858 14.25 10.5 14.25H18.7158C18.5911 15.617 18.1266 16.9355 17.3596 18.0835C16.4531 19.4402 15.1646 20.4976 13.6571 21.122C12.1497 21.7464 10.4909 21.9098 8.89051 21.5915C7.29017 21.2732 5.82016 20.4874 4.66637 19.3336C3.51259 18.1798 2.72685 16.7098 2.40853 15.1095C2.0902 13.5092 2.25358 11.8504 2.878 10.3429C3.50242 8.83537 4.55984 7.5469 5.91655 6.64038Z" fill="#767676"/>
</svg>
