<svg width="24" height="24" viewBox="0 0 24 24" fill="none" xmlns="http://www.w3.org/2000/svg">
<g clip-path="url(#clip0_964:38)">
<path fill-rule="evenodd" clip-rule="evenodd" d="M1.5 2.24701C1.5 1.8328 1.83579 1.49701 2.25 1.49701H8.25C8.66421 1.49701 9 1.8328 9 2.24701V8.24701C9 8.66122 8.66421 8.99701 8.25 8.99701H2.25C1.83579 8.99701 1.5 8.66122 1.5 8.24701V2.24701ZM2.25 -0.00299072C1.00736 -0.00299072 0 1.00437 0 2.24701V8.24701C0 9.48965 1.00736 10.497 2.25 10.497H8.25C9.49264 10.497 10.5 9.48965 10.5 8.24701V2.24701C10.5 1.00437 9.49264 -0.00299072 8.25 -0.00299072H2.25ZM1.5 15.747C1.5 15.3328 1.83579 14.997 2.25 14.997H8.25C8.66421 14.997 9 15.3328 9 15.747V21.747C9 22.1612 8.66421 22.497 8.25 22.497H2.25C1.83579 22.497 1.5 22.1612 1.5 21.747V15.747ZM2.25 13.497C1.00736 13.497 0 14.5044 0 15.747V21.747C0 22.9896 1.00736 23.997 2.25 23.997H8.25C9.49264 23.997 10.5 22.9896 10.5 21.747V15.747C10.5 14.5044 9.49264 13.497 8.25 13.497H2.25ZM15.75 1.49701C15.3358 1.49701 15 1.8328 15 2.24701V8.24701C15 8.66122 15.3358 8.99701 15.75 8.99701H21.75C22.1642 8.99701 22.5 8.66122 22.5 8.24701V2.24701C22.5 1.8328 22.1642 1.49701 21.75 1.49701H15.75ZM13.5 2.24701C13.5 1.00437 14.5074 -0.00299072 15.75 -0.00299072H21.75C22.9926 -0.00299072 24 1.00437 24 2.24701V8.24701C24 9.48965 22.9926 10.497 21.75 10.497H15.75C14.5074 10.497 13.5 9.48965 13.5 8.24701V2.24701ZM15 15.747C15 15.3328 15.3358 14.997 15.75 14.997H21.75C22.1642 14.997 22.5 15.3328 22.5 15.747V21.747C22.5 22.1612 22.1642 22.497 21.75 22.497H15.75C15.3358 22.497 15 22.1612 15 21.747V15.747ZM15.75 13.497C14.5074 13.497 13.5 14.5044 13.5 15.747V21.747C13.5 22.9896 14.5074 23.997 15.75 23.997H21.75C22.9926 23.997 24 22.9896 24 21.747V15.747C24 14.5044 22.9926 13.497 21.75 13.497H15.75Z" fill="#767676"/>
</g>
<defs>
<clipPath id="clip0_964:38">
<rect width="24" height="24" fill="white"/>
</clipPath>
</defs>
</svg>
