<svg width="24" height="24" viewBox="0 0 24 24" fill="none" xmlns="http://www.w3.org/2000/svg">
<path d="M17.6248 8.99991V9.74994L17.6325 9.74987L17.6248 8.99991ZM18.7498 10.3489L19.4822 10.5102C19.4836 10.5039 19.485 10.4975 19.4862 10.4911L18.7498 10.3489ZM12.0114 15.7647V15.0147V15.7647ZM5.27292 10.3489L4.53685 10.4927C4.53799 10.4986 4.5392 10.5044 4.54048 10.5102L5.27292 10.3489ZM6.39991 8.99991L6.3893 9.7499H6.39991V8.99991ZM17.6325 9.74987C17.6894 9.74928 17.7457 9.76137 17.7974 9.78524L18.4265 8.42352C18.1729 8.30639 17.8965 8.2471 17.6172 8.24996L17.6325 9.74987ZM17.7974 9.78524C17.8491 9.80911 17.8948 9.84418 17.9313 9.88791L19.0833 8.92722C18.9044 8.71271 18.68 8.54066 18.4265 8.42352L17.7974 9.78524ZM17.9313 9.88791C17.9678 9.93163 17.994 9.98291 18.0082 10.038L19.4608 9.66381C19.3911 9.39333 19.2622 9.14173 19.0833 8.92722L17.9313 9.88791ZM18.0082 10.038C18.0224 10.0932 18.0242 10.1508 18.0134 10.2067L19.4862 10.4911C19.5392 10.2169 19.5305 9.93429 19.4608 9.66381L18.0082 10.038ZM18.0174 10.1876C17.716 11.556 16.9563 12.7805 15.8641 13.6584L16.8038 14.8275C18.1624 13.7356 19.1073 12.2124 19.4822 10.5102L18.0174 10.1876ZM15.8641 13.6584C14.7719 14.5362 13.4126 15.0147 12.0114 15.0147V16.5147C13.7544 16.5147 15.4452 15.9195 16.8038 14.8275L15.8641 13.6584ZM12.0114 15.0147C10.6101 15.0147 9.25087 14.5362 8.15865 13.6584L7.21897 14.8275C8.57757 15.9195 10.2683 16.5147 12.0114 16.5147V15.0147ZM8.15865 13.6584C7.06644 12.7805 6.30676 11.556 6.00536 10.1876L4.54048 10.5102C4.91539 12.2124 5.86036 13.7356 7.21897 14.8275L8.15865 13.6584ZM6.00899 10.2051C5.99809 10.1493 5.99977 10.0918 6.01392 10.0367L4.56112 9.66346C4.49144 9.93464 4.48315 10.218 4.53685 10.4927L6.00899 10.2051ZM6.01392 10.0367C6.02806 9.98169 6.05431 9.93049 6.09074 9.88688L4.93961 8.92518C4.7601 9.14005 4.63079 9.39227 4.56112 9.66346L6.01392 10.0367ZM6.09074 9.88688C6.12718 9.84326 6.17289 9.80833 6.22454 9.78462L5.59878 8.42139C5.34432 8.5382 5.11912 8.71031 4.93961 8.92518L6.09074 9.88688ZM6.22454 9.78462C6.27619 9.76091 6.33248 9.74903 6.3893 9.74983L6.41052 8.24999C6.13056 8.24603 5.85324 8.30459 5.59878 8.42139L6.22454 9.78462ZM6.39991 9.7499H17.6248V8.24992H6.39991V9.7499Z" fill="#71717A"/>
<path d="M18.796 23.5076C18.9384 23.8966 19.3691 24.0965 19.7581 23.9541C20.147 23.8117 20.3469 23.3809 20.2045 22.9919L18.796 23.5076ZM16.9375 14.069C16.7951 13.6801 16.3644 13.4802 15.9754 13.6226C15.5864 13.765 15.3866 14.1958 15.529 14.5847L16.9375 14.069ZM20.2045 22.9919L16.9375 14.069L15.529 14.5847L18.796 23.5076L20.2045 22.9919Z" fill="#71717A"/>
<path d="M3.79569 22.9919C3.65328 23.3809 3.85314 23.8117 4.2421 23.9541C4.63106 24.0965 5.06182 23.8966 5.20423 23.5076L3.79569 22.9919ZM8.4712 14.5847C8.61361 14.1958 8.41375 13.765 8.02479 13.6226C7.63583 13.4802 7.20507 13.6801 7.06266 14.069L8.4712 14.5847ZM5.20423 23.5076L8.4712 14.5847L7.06266 14.069L3.79569 22.9919L5.20423 23.5076Z" fill="#71717A"/>
<path d="M18.4015 20.9998C18.8157 20.9998 19.1515 20.664 19.1515 20.2498C19.1515 19.8356 18.8157 19.4998 18.4015 19.4998V20.9998ZM5.59761 19.4998C5.1834 19.4998 4.84761 19.8356 4.84761 20.2498C4.84761 20.664 5.1834 20.9998 5.59761 20.9998V19.4998ZM18.4015 19.4998H5.59761V20.9998H18.4015V19.4998Z" fill="#71717A"/>
<path d="M17.1884 1.57297L17.7845 2.02815L17.7885 2.02285L17.1884 1.57297ZM17.4304 3.74995L16.9488 4.32491L16.9495 4.32544L17.4304 3.74995ZM17.6734 5.92693L17.0774 5.47164L17.0734 5.47694L17.6734 5.92693ZM16.9114 5.69294C16.6629 6.0243 16.73 6.4944 17.0614 6.74293C17.3928 6.99145 17.8629 6.9243 18.1114 6.59293L16.9114 5.69294ZM18.3878 1.2234C18.6363 0.891986 18.569 0.421902 18.2376 0.173441C17.9062 -0.0750213 17.4361 -0.00777381 17.1877 0.323642L18.3878 1.2234ZM16.5923 1.11781C16.2275 1.59552 16.061 2.19549 16.1274 2.79285L17.6182 2.62713C17.5945 2.41351 17.654 2.19896 17.7845 2.02813L16.5923 1.11781ZM16.1274 2.79285C16.1938 3.39022 16.488 3.93897 16.9488 4.32491L17.912 3.175C17.7472 3.03699 17.642 2.84075 17.6182 2.62713L16.1274 2.79285ZM16.9495 4.32544C17.1143 4.46323 17.2197 4.65933 17.2435 4.87287L18.7342 4.70647C18.6675 4.10887 18.3727 3.56006 17.9113 3.17447L16.9495 4.32544ZM17.2435 4.87287C17.2673 5.08641 17.2078 5.30091 17.0774 5.47166L18.2694 6.38221C18.6344 5.90437 18.8009 5.30408 18.7342 4.70647L17.2435 4.87287ZM17.0734 5.47694L16.9114 5.69294L18.1114 6.59293L18.2734 6.37693L17.0734 5.47694ZM17.1877 0.323642L16.5883 1.12309L17.7885 2.02285L18.3878 1.2234L17.1877 0.323642Z" fill="#71717A"/>
<path d="M11.3252 1.57299L11.9213 2.02817L11.9252 2.02287L11.3252 1.57299ZM11.5672 3.74997L11.0856 4.32493L11.0862 4.32546L11.5672 3.74997ZM11.8102 5.92695L11.2141 5.47166L11.2102 5.47696L11.8102 5.92695ZM11.0482 5.69295C10.7996 6.02432 10.8668 6.49442 11.1982 6.74295C11.5295 6.99147 11.9996 6.92432 12.2482 6.59295L11.0482 5.69295ZM12.5241 1.22404C12.7726 0.892627 12.7053 0.422543 12.3739 0.174081C12.0425 -0.0743806 11.5724 -0.00713271 11.324 0.324283L12.5241 1.22404ZM10.7291 1.11783C10.3643 1.59554 10.1978 2.19551 10.2642 2.79287L11.755 2.62715C11.7313 2.41353 11.7908 2.19898 11.9212 2.02815L10.7291 1.11783ZM10.2642 2.79287C10.3306 3.39024 10.6248 3.93899 11.0856 4.32493L12.0487 3.17502C11.884 3.03701 11.7788 2.84077 11.755 2.62715L10.2642 2.79287ZM11.0862 4.32546C11.2511 4.46325 11.3564 4.65935 11.3803 4.87289L12.871 4.70649C12.8043 4.10888 12.5095 3.56008 12.0481 3.17448L11.0862 4.32546ZM11.3803 4.87289C11.4041 5.08643 11.3446 5.30093 11.2142 5.47167L12.4062 6.38223C12.7712 5.90439 12.9377 5.30409 12.871 4.70649L11.3803 4.87289ZM11.2102 5.47696L11.0482 5.69295L12.2482 6.59295L12.4102 6.37695L11.2102 5.47696ZM11.324 0.324283L10.7251 1.12311L11.9252 2.02287L12.5241 1.22404L11.324 0.324283Z" fill="#71717A"/>
<path d="M5.32522 1.57297L5.92133 2.02815L5.9253 2.02285L5.32522 1.57297ZM5.56721 3.74995L5.08564 4.32491L5.08627 4.32544L5.56721 3.74995ZM5.81021 5.92693L5.21419 5.47164L5.21022 5.47694L5.81021 5.92693ZM5.04822 5.69293C4.79969 6.0243 4.86685 6.4944 5.19822 6.74293C5.52958 6.99145 5.99968 6.9243 6.24821 6.59293L5.04822 5.69293ZM6.52558 1.22215C6.77404 0.890734 6.70679 0.420651 6.37538 0.172189C6.04396 -0.0762726 5.57388 -0.00902478 5.32542 0.322391L6.52558 1.22215ZM4.72913 1.11781C4.36436 1.59552 4.19786 2.19549 4.26426 2.79285L5.75507 2.62713C5.73132 2.41351 5.79086 2.19896 5.9213 2.02813L4.72913 1.11781ZM4.26426 2.79285C4.33067 3.39022 4.62487 3.93897 5.08564 4.32491L6.04879 3.175C5.88402 3.03699 5.77881 2.84075 5.75507 2.62713L4.26426 2.79285ZM5.08627 4.32544C5.25115 4.46323 5.35648 4.65933 5.38032 4.87287L6.87104 4.70647C6.80434 4.10886 6.50956 3.56006 6.04815 3.17446L5.08627 4.32544ZM5.38032 4.87287C5.40415 5.08641 5.34465 5.30091 5.21422 5.47165L6.40621 6.38221C6.77123 5.90437 6.93775 5.30407 6.87104 4.70647L5.38032 4.87287ZM5.21022 5.47694L5.04822 5.69293L6.24821 6.59293L6.41021 6.37693L5.21022 5.47694ZM5.32542 0.322391L4.72513 1.12309L5.9253 2.02285L6.52558 1.22215L5.32542 0.322391Z" fill="#71717A"/>
</svg>
