<svg width="24" height="24" viewBox="0 0 24 24" fill="none" xmlns="http://www.w3.org/2000/svg">
<path d="M17.625 8.99999V9.75003L17.6326 9.74995L17.625 8.99999ZM18.75 10.349L19.4824 10.5103C19.4838 10.504 19.4851 10.4976 19.4864 10.4912L18.75 10.349ZM12.0115 15.7649V15.0149V15.7649ZM5.27297 10.349L4.53689 10.4928C4.53803 10.4987 4.53924 10.5045 4.54052 10.5103L5.27297 10.349ZM6.39997 8.99999L6.38936 9.74999H6.39997V8.99999ZM17.6326 9.74995C17.6896 9.74937 17.7459 9.76145 17.7976 9.78533L18.4266 8.4236C18.1731 8.30646 17.8966 8.24718 17.6173 8.25003L17.6326 9.74995ZM17.7976 9.78533C17.8493 9.8092 17.895 9.84427 17.9315 9.88799L19.0834 8.9273C18.9045 8.71279 18.6802 8.54074 18.4266 8.4236L17.7976 9.78533ZM17.9315 9.88799C17.9679 9.93172 17.9942 9.983 18.0084 10.0381L19.461 9.6639C19.3913 9.39341 19.2623 9.14181 19.0834 8.9273L17.9315 9.88799ZM18.0084 10.0381C18.0226 10.0933 18.0244 10.1509 18.0136 10.2068L19.4864 10.4912C19.5393 10.217 19.5307 9.93438 19.461 9.6639L18.0084 10.0381ZM18.0175 10.1877C17.7161 11.5561 16.9564 12.7807 15.8642 13.6585L16.8039 14.8277C18.1625 13.7357 19.1075 12.2126 19.4824 10.5103L18.0175 10.1877ZM15.8642 13.6585C14.772 14.5363 13.4127 15.0149 12.0115 15.0149V16.5149C13.7545 16.5149 15.4453 15.9196 16.8039 14.8277L15.8642 13.6585ZM12.0115 15.0149C10.6102 15.0149 9.25095 14.5363 8.15873 13.6585L7.21903 14.8277C8.57765 15.9196 10.2684 16.5149 12.0115 16.5149V15.0149ZM8.15873 13.6585C7.06651 12.7807 6.30681 11.5561 6.00541 10.1877L4.54052 10.5103C4.91543 12.2126 5.86042 13.7357 7.21903 14.8277L8.15873 13.6585ZM6.00905 10.2051C5.99814 10.1494 5.99983 10.0919 6.01397 10.0368L4.56116 9.66354C4.49148 9.93473 4.48319 10.218 4.53689 10.4928L6.00905 10.2051ZM6.01397 10.0368C6.02811 9.98177 6.05436 9.93058 6.0908 9.88696L4.93965 8.92526C4.76014 9.14014 4.63083 9.39236 4.56116 9.66354L6.01397 10.0368ZM6.0908 9.88696C6.12723 9.84335 6.17294 9.80842 6.22459 9.78471L5.59883 8.42147C5.34436 8.53827 5.11917 8.71039 4.93965 8.92526L6.0908 9.88696ZM6.22459 9.78471C6.27624 9.761 6.33253 9.74911 6.38936 9.74992L6.41058 8.25007C6.13061 8.2461 5.85329 8.30466 5.59883 8.42147L6.22459 9.78471ZM6.39997 9.74999H17.625V8.24999H6.39997V9.74999Z" fill="#767676"/>
<path d="M18.7961 23.5079C18.9385 23.8968 19.3693 24.0967 19.7583 23.9543C20.1472 23.8119 20.3471 23.3811 20.2047 22.9921L18.7961 23.5079ZM16.9377 14.0691C16.7953 13.6802 16.3645 13.4803 15.9755 13.6227C15.5866 13.7651 15.3867 14.1959 15.5291 14.5849L16.9377 14.0691ZM20.2047 22.9921L16.9377 14.0691L15.5291 14.5849L18.7961 23.5079L20.2047 22.9921Z" fill="#767676"/>
<path d="M3.79572 22.9921C3.65331 23.3811 3.85318 23.8119 4.24214 23.9543C4.6311 24.0967 5.06187 23.8968 5.20428 23.5079L3.79572 22.9921ZM8.47128 14.5849C8.61369 14.1959 8.41382 13.7651 8.02486 13.6227C7.6359 13.4803 7.20513 13.6802 7.06272 14.0691L8.47128 14.5849ZM5.20428 23.5079L8.47128 14.5849L7.06272 14.0691L3.79572 22.9921L5.20428 23.5079Z" fill="#767676"/>
<path d="M18.4017 21C18.8159 21 19.1517 20.6642 19.1517 20.25C19.1517 19.8358 18.8159 19.5 18.4017 19.5V21ZM5.59766 19.5C5.18344 19.5 4.84766 19.8358 4.84766 20.25C4.84766 20.6642 5.18344 21 5.59766 21V19.5ZM18.4017 19.5H5.59766V21H18.4017V19.5Z" fill="#767676"/>
<path d="M17.1885 1.57299L17.7847 2.02817L17.7886 2.02287L17.1885 1.57299ZM17.4305 3.74999L16.949 4.32495L16.9496 4.32548L17.4305 3.74999ZM17.6735 5.92699L17.0775 5.47169L17.0735 5.47699L17.6735 5.92699ZM16.9115 5.69299C16.663 6.02436 16.7302 6.49446 17.0615 6.74299C17.3929 6.99152 17.863 6.92436 18.1115 6.59299L16.9115 5.69299ZM18.388 1.22341C18.6364 0.891994 18.5692 0.421906 18.2378 0.173442C17.9064 -0.075022 17.4363 -0.00777388 17.1878 0.323645L18.388 1.22341ZM16.5925 1.11782C16.2277 1.59553 16.0612 2.19551 16.1276 2.79288L17.6184 2.62715C17.5947 2.41353 17.6542 2.19898 17.7846 2.02815L16.5925 1.11782ZM16.1276 2.79288C16.194 3.39025 16.4882 3.93901 16.949 4.32495L17.9121 3.17503C17.7474 3.03701 17.6421 2.84078 17.6184 2.62715L16.1276 2.79288ZM16.9496 4.32548C17.1145 4.46327 17.2198 4.65937 17.2436 4.87291L18.7344 4.70651C18.6677 4.1089 18.3729 3.5601 17.9115 3.17449L16.9496 4.32548ZM17.2436 4.87291C17.2675 5.08645 17.208 5.30096 17.0775 5.4717L18.2695 6.38227C18.6346 5.90442 18.8011 5.30412 18.7344 4.70651L17.2436 4.87291ZM17.0735 5.47699L16.9115 5.69299L18.1115 6.59299L18.2735 6.37699L17.0735 5.47699ZM17.1878 0.323645L16.5885 1.1231L17.7886 2.02287L18.388 1.22341L17.1878 0.323645Z" fill="#767676"/>
<path d="M11.3253 1.57301L11.9214 2.02819L11.9254 2.02289L11.3253 1.57301ZM11.5673 3.75001L11.0857 4.32497L11.0863 4.3255L11.5673 3.75001ZM11.8103 5.92701L11.2142 5.4717L11.2103 5.477L11.8103 5.92701ZM11.0483 5.693C10.7997 6.02437 10.8669 6.49448 11.1983 6.74301C11.5296 6.99153 11.9997 6.92438 12.2483 6.59301L11.0483 5.693ZM12.5242 1.22405C12.7727 0.892634 12.7055 0.422547 12.374 0.174083C12.0426 -0.0743812 11.5725 -0.00713277 11.3241 0.324286L12.5242 1.22405ZM10.7292 1.11784C10.3644 1.59555 10.1979 2.19553 10.2643 2.7929L11.7551 2.62717C11.7314 2.41355 11.7909 2.199 11.9214 2.02817L10.7292 1.11784ZM10.2643 2.7929C10.3307 3.39027 10.6249 3.93903 11.0857 4.32497L12.0488 3.17504C11.8841 3.03703 11.7789 2.8408 11.7551 2.62717L10.2643 2.7929ZM11.0863 4.3255C11.2512 4.46329 11.3565 4.65939 11.3804 4.87293L12.8711 4.70653C12.8044 4.10892 12.5096 3.56011 12.0482 3.17451L11.0863 4.3255ZM11.3804 4.87293C11.4042 5.08647 11.3447 5.30097 11.2143 5.47172L12.4063 6.38229C12.7713 5.90444 12.9378 5.30414 12.8711 4.70653L11.3804 4.87293ZM11.2103 5.477L11.0483 5.693L12.2483 6.59301L12.4103 6.37701L11.2103 5.477ZM11.3241 0.324286L10.7252 1.12312L11.9254 2.02289L12.5242 1.22405L11.3241 0.324286Z" fill="#767676"/>
<path d="M5.32526 1.57299L5.92138 2.02817L5.92535 2.02287L5.32526 1.57299ZM5.56726 3.74999L5.08568 4.32495L5.08632 4.32548L5.56726 3.74999ZM5.81026 5.92699L5.21424 5.47168L5.21026 5.47698L5.81026 5.92699ZM5.04826 5.69298C4.79974 6.02435 4.86689 6.49446 5.19826 6.74299C5.52963 6.99151 5.99973 6.92436 6.24826 6.59299L5.04826 5.69298ZM6.52564 1.22216C6.7741 0.890742 6.70685 0.420654 6.37544 0.172191C6.04402 -0.0762733 5.57393 -0.00902486 5.32546 0.322394L6.52564 1.22216ZM4.72917 1.11782C4.3644 1.59553 4.19789 2.1955 4.2643 2.79288L5.75512 2.62715C5.73137 2.41353 5.79091 2.19898 5.92135 2.02815L4.72917 1.11782ZM4.2643 2.79288C4.3307 3.39025 4.62491 3.93901 5.08568 4.32495L6.04884 3.17502C5.88407 3.03701 5.77886 2.84078 5.75512 2.62715L4.2643 2.79288ZM5.08632 4.32548C5.25119 4.46327 5.35653 4.65937 5.38036 4.87291L6.8711 4.70651C6.8044 4.1089 6.50962 3.56009 6.04821 3.17449L5.08632 4.32548ZM5.38036 4.87291C5.4042 5.08645 5.3447 5.30095 5.21426 5.4717L6.40627 6.38227C6.77129 5.90442 6.93781 5.30412 6.8711 4.70651L5.38036 4.87291ZM5.21026 5.47698L5.04826 5.69298L6.24826 6.59299L6.41026 6.37699L5.21026 5.47698ZM5.32546 0.322394L4.72518 1.1231L5.92535 2.02287L6.52564 1.22216L5.32546 0.322394Z" fill="#767676"/>
</svg>
