<svg width="24" height="24" viewBox="0 0 24 24" fill="none" xmlns="http://www.w3.org/2000/svg">
<path d="M19.5 23.25L16.233 14.327M4.5 23.25L7.767 14.327M18.402 20.25H5.598M17.8055 0.75L17.1885 1.573C16.9409 1.89727 16.8279 2.30453 16.873 2.71003C16.9181 3.11553 17.1178 3.48802 17.4305 3.75C17.7437 4.01169 17.9437 4.38415 17.989 4.78972C18.0343 5.1953 17.9213 5.6027 17.6735 5.927L17.5115 6.143M11.9423 0.75L11.3253 1.573C11.0777 1.89727 10.9646 2.30453 11.0097 2.71003C11.0548 3.11553 11.2545 3.48802 11.5673 3.75C11.8804 4.01169 12.0805 4.38415 12.1257 4.78972C12.171 5.1953 12.058 5.6027 11.8103 5.927L11.6483 6.143M5.94226 0.75L5.32526 1.573C5.07766 1.89727 4.96463 2.30453 5.00971 2.71003C5.05478 3.11553 5.25449 3.48802 5.56726 3.75C5.88041 4.01169 6.08046 4.38415 6.12573 4.78972C6.171 5.1953 6.058 5.6027 5.81026 5.927L5.64826 6.143M17.625 9C17.7931 8.99828 17.9595 9.03397 18.1121 9.10447C18.2648 9.17498 18.3998 9.27854 18.5075 9.40765C18.6152 9.53677 18.6928 9.68822 18.7347 9.85102C18.7767 10.0138 18.7819 10.1839 18.75 10.349C18.4118 11.8844 17.5595 13.2582 16.3341 14.2431C15.1087 15.228 13.5837 15.7649 12.0115 15.7649C10.4393 15.7649 8.91433 15.228 7.68891 14.2431C6.46349 13.2582 5.61115 11.8844 5.273 10.349C5.2407 10.1837 5.24569 10.0133 5.28759 9.85019C5.3295 9.68707 5.40728 9.53537 5.51526 9.40612C5.62323 9.27688 5.75868 9.17335 5.91174 9.1031C6.0648 9.03284 6.2316 8.99762 6.4 9H17.625Z" stroke="#767676" stroke-width="1.5" stroke-linecap="round" stroke-linejoin="round"/>
</svg>
