<svg width="24" height="24" viewBox="0 0 24 24" fill="none" xmlns="http://www.w3.org/2000/svg">
<path d="M17.625 8.99999C17.7931 8.99827 17.9595 9.03396 18.1121 9.10446C18.2647 9.17497 18.3998 9.27853 18.5074 9.40765C18.6151 9.53676 18.6927 9.68821 18.7347 9.85101C18.7766 10.0138 18.7819 10.1839 18.75 10.349C18.4118 11.8843 17.5595 13.2582 16.3341 14.2431C15.1086 15.228 13.5836 15.7649 12.0115 15.7649C10.4393 15.7649 8.9143 15.228 7.68888 14.2431C6.46346 13.2582 5.61112 11.8843 5.27297 10.349C5.24067 10.1837 5.24565 10.0133 5.28756 9.85018C5.32947 9.68707 5.40725 9.53536 5.51523 9.40611C5.6232 9.27687 5.75865 9.17334 5.91171 9.10309C6.06477 9.03283 6.23157 8.99761 6.39997 8.99999H17.625Z" stroke="#474445" stroke-width="1.5" stroke-linecap="round" stroke-linejoin="round"/>
<path d="M19.5004 23.25L16.2334 14.327" stroke="#474445" stroke-width="1.5" stroke-linecap="round" stroke-linejoin="round"/>
<path d="M4.5 23.25L7.767 14.327" stroke="#474445" stroke-width="1.5" stroke-linecap="round" stroke-linejoin="round"/>
<path d="M18.4017 20.25H5.59766" stroke="#474445" stroke-width="1.5" stroke-linecap="round" stroke-linejoin="round"/>
<path d="M6.92006 0.75L6.30006 1.573C6.05256 1.89754 5.93988 2.3051 5.98553 2.71068C6.03117 3.11627 6.23161 3.48859 6.54506 3.75V3.75C6.85783 4.01198 7.05754 4.38447 7.10262 4.78997C7.14769 5.19547 7.03466 5.60273 6.78706 5.927L6.62506 6.143" stroke="#474445" stroke-width="1.5" stroke-linecap="round" stroke-linejoin="round"/>
<path d="M12.5555 0.75L11.9385 1.573C11.6909 1.89727 11.5779 2.30453 11.623 2.71003C11.6681 3.11553 11.8678 3.48802 12.1805 3.75V3.75C12.4937 4.01169 12.6937 4.38415 12.739 4.78972C12.7843 5.1953 12.6713 5.6027 12.4235 5.927L12.2615 6.143" stroke="#474445" stroke-width="1.5" stroke-linecap="round" stroke-linejoin="round"/>
<path d="M17.8055 0.75L17.1885 1.573C16.9409 1.89727 16.8279 2.30453 16.873 2.71003C16.9181 3.11553 17.1178 3.48802 17.4305 3.75V3.75C17.7437 4.01169 17.9437 4.38415 17.989 4.78972C18.0343 5.1953 17.9213 5.6027 17.6735 5.927L17.5115 6.143" stroke="#474445" stroke-width="1.5" stroke-linecap="round" stroke-linejoin="round"/>
</svg>
