<svg width="24" height="24" viewBox="0 0 24 24" fill="none" xmlns="http://www.w3.org/2000/svg">
<g clip-path="url(#clip0_1312_571)">
<path fill-rule="evenodd" clip-rule="evenodd" d="M4.54611 0.00402999C4.93952 -0.0204257 5.33246 0.0589017 5.68558 0.23407C6.03869 0.409237 6.3396 0.674098 6.55816 1.00213L6.5584 1.0025L7.30929 2.13094L7.75743 1.70194C8.00845 1.45354 8.31444 1.26768 8.65069 1.15945C8.98959 1.05036 9.34955 1.02326 9.70097 1.08036C10.0524 1.13747 10.3852 1.27715 10.6722 1.48794C10.9591 1.69872 11.1919 1.97459 11.3515 2.29286L11.3518 2.29358L13.4208 6.43158C13.5371 6.66407 13.5246 6.94017 13.388 7.16129C13.2513 7.3824 13.0099 7.51699 12.75 7.51699H0.750005C0.490071 7.51699 0.248672 7.3824 0.112017 7.16129C-0.0246384 6.94017 -0.0370614 6.66407 0.0791842 6.43158L2.67316 1.24363L2.67318 1.24358C2.84944 0.891024 3.11521 0.590957 3.4439 0.373417C3.7726 0.155866 4.15269 0.0284856 4.54611 0.00402999ZM5.01899 1.57782C4.90129 1.51943 4.77031 1.49299 4.63917 1.50114C4.50803 1.50929 4.38133 1.55175 4.27177 1.62427C4.1622 1.69679 4.0736 1.79682 4.01485 1.91434L4.01483 1.9144L1.96353 6.01699H11.5365L10.0105 2.96511L10.0104 2.96488C9.95724 2.85888 9.87968 2.76701 9.78411 2.6968C9.68847 2.62654 9.57751 2.57998 9.46037 2.56094C9.34323 2.54191 9.22325 2.55094 9.11028 2.5873C8.99731 2.62367 8.89458 2.68632 8.81054 2.77011L8.79963 2.78077L7.69963 3.83377C7.53931 3.98724 7.31924 4.06182 7.09864 4.03745C6.87804 4.01308 6.67956 3.89225 6.55661 3.70747L5.30985 1.83384C5.237 1.7245 5.1367 1.63621 5.01899 1.57782ZM20.25 2.25C20.5654 2.25 20.8471 2.4473 20.9548 2.74369L23.9548 10.9937C24.0385 11.2236 24.0047 11.4799 23.8643 11.6803C23.7239 11.8807 23.4947 12 23.25 12H21V14.25C21 14.6642 20.6642 15 20.25 15C19.8358 15 19.5 14.6642 19.5 14.25V12H17.25C17.0053 12 16.7761 11.8807 16.6357 11.6803C16.4953 11.4799 16.4615 11.2236 16.5452 10.9937L19.5452 2.74369C19.6529 2.4473 19.9346 2.25 20.25 2.25ZM20.25 10.5H22.1792L20.25 5.19463L18.3208 10.5H20.25ZM3.75 11.25C4.06538 11.25 4.34707 11.4473 4.45485 11.7437L7.45485 19.9937C7.53846 20.2236 7.50467 20.4799 7.36431 20.6803C7.22395 20.8807 6.99466 21 6.75 21H4.5V23.25C4.5 23.6642 4.16422 24 3.75 24C3.33579 24 3 23.6642 3 23.25V21H0.750005C0.505345 21 0.276064 20.8807 0.135704 20.6803C-0.00465637 20.4799 -0.0384511 20.2236 0.0451596 19.9937L3.04516 11.7437C3.15294 11.4473 3.43462 11.25 3.75 11.25ZM3.75 19.5H5.67923L3.75 14.1946L1.82078 19.5H3.75ZM18.9584 19.1812C19.245 18.8821 19.7197 18.8719 20.0188 19.1584C20.702 19.8129 21.2071 20.6306 21.4865 21.5345C21.6089 21.9302 21.3873 22.3502 20.9915 22.4725C20.5958 22.5949 20.1758 22.3733 20.0535 21.9775C19.8493 21.3172 19.4803 20.7197 18.9812 20.2416C18.6821 19.955 18.6719 19.4803 18.9584 19.1812ZM15.1762 17.119C14.7736 17.0217 14.3683 17.2692 14.271 17.6718C14.1737 18.0745 14.4212 18.4797 14.8238 18.577C15.0815 18.6393 15.3484 18.694 15.6266 18.74L15.6291 18.7404C16.0996 18.8166 16.5629 18.9322 17.0141 19.0859C17.4062 19.2195 17.8323 19.01 17.9659 18.6179C18.0995 18.2259 17.89 17.7997 17.4979 17.6661C16.9677 17.4854 16.4232 17.3495 15.8702 17.2599C15.6288 17.2199 15.3982 17.1727 15.1762 17.119ZM10.3635 13.9968C10.7337 13.8109 11.1845 13.9602 11.3704 14.3303C11.6513 14.8895 12.0347 15.3909 12.5007 15.8084C12.8092 16.0849 12.8352 16.559 12.5588 16.8675C12.2823 17.176 11.8082 17.202 11.4997 16.9256C10.8938 16.3826 10.3952 15.7307 10.03 15.0037C9.84407 14.6335 9.99339 14.1827 10.3635 13.9968ZM10.5001 9.75246C10.5014 9.33824 10.1668 9.00136 9.75255 9C9.33834 8.99865 9.00145 9.33333 9.0001 9.74754C8.9981 10.3585 9.02845 10.9691 9.09104 11.5768C9.13347 11.9889 9.50189 12.2885 9.91392 12.2461C10.326 12.2036 10.6256 11.8352 10.5831 11.4232C10.526 10.8681 10.4983 10.3104 10.5001 9.75246Z" fill="#767676"/>
</g>
<defs>
<clipPath id="clip0_1312_571">
<rect width="24" height="24" fill="white"/>
</clipPath>
</defs>
</svg>
