<svg width="24" height="24" viewBox="0 0 24 24" fill="none" xmlns="http://www.w3.org/2000/svg">
<g clip-path="url(#clip0_1199_100)">
<path fill-rule="evenodd" clip-rule="evenodd" d="M11.7129 2.30646C11.8039 2.26874 11.9015 2.24932 12 2.24932C12.0985 2.24932 12.1961 2.26874 12.2871 2.30646C12.3781 2.34418 12.4608 2.39947 12.5305 2.46916L12.5306 2.4693L22.7196 12.6593C23.0125 12.9522 23.4874 12.9522 23.7803 12.6594C24.0732 12.3665 24.0732 11.8916 23.7804 11.5987L13.5915 1.40884L13.5914 1.4087C13.3824 1.19968 13.1344 1.03387 12.8614 0.92073C12.5883 0.807567 12.2956 0.749321 12 0.749321C11.7044 0.749321 11.4117 0.807567 11.1386 0.92073C10.8656 1.03387 10.6176 1.19968 10.4086 1.4087L10.4085 1.40884L0.219644 11.5987C-0.073235 11.8916 -0.0732117 12.3665 0.219696 12.6594C0.512604 12.9522 0.987477 12.9522 1.28036 12.6593L11.4694 2.4693L11.4695 2.46916C11.5392 2.39947 11.6219 2.34418 11.7129 2.30646ZM3.75 12.75C4.16421 12.75 4.5 13.0858 4.5 13.5V21C4.5 21.1989 4.57902 21.3897 4.71967 21.5303C4.86032 21.671 5.05109 21.75 5.25 21.75H7.5C7.91421 21.75 8.25 22.0858 8.25 22.5C8.25 22.9142 7.91421 23.25 7.5 23.25H5.25C4.65326 23.25 4.08097 23.0129 3.65901 22.591C3.23705 22.169 3 21.5967 3 21V13.5C3 13.0858 3.33579 12.75 3.75 12.75ZM20.25 12.75C20.6642 12.75 21 13.0858 21 13.5V21C21 21.5967 20.7629 22.169 20.341 22.591C19.919 23.0129 19.3467 23.25 18.75 23.25H16.5C16.0858 23.25 15.75 22.9142 15.75 22.5C15.75 22.0858 16.0858 21.75 16.5 21.75H18.75C18.9489 21.75 19.1397 21.671 19.2803 21.5303C19.421 21.3897 19.5 21.1989 19.5 21V13.5C19.5 13.0858 19.8358 12.75 20.25 12.75ZM12 8.25C11.1716 8.25 10.5 8.92157 10.5 9.75C10.5 10.5784 11.1716 11.25 12 11.25C12.8284 11.25 13.5 10.5784 13.5 9.75C13.5 8.92157 12.8284 8.25 12 8.25ZM9 9.75C9 8.09315 10.3431 6.75 12 6.75C13.6569 6.75 15 8.09315 15 9.75C15 11.4069 13.6569 12.75 12 12.75C10.3431 12.75 9 11.4069 9 9.75ZM12 12.75C13.1935 12.75 14.3381 13.2241 15.182 14.068C16.0259 14.9119 16.5 16.0565 16.5 17.25V18C16.5 18.4142 16.1642 18.75 15.75 18.75H14.8853L14.2398 22.6233C14.1795 22.9849 13.8666 23.25 13.5 23.25H10.5C10.1334 23.25 9.82048 22.9849 9.7602 22.6233L9.11465 18.75H8.25C7.83579 18.75 7.5 18.4142 7.5 18V17.25C7.5 16.0565 7.97411 14.9119 8.81802 14.068C9.66193 13.2241 10.8065 12.75 12 12.75ZM9.87868 15.1287C10.4413 14.5661 11.2044 14.25 12 14.25C12.7956 14.25 13.5587 14.5661 14.1213 15.1287C14.6839 15.6913 15 16.4544 15 17.25H14.25C13.8834 17.25 13.5705 17.5151 13.5102 17.8767L12.8647 21.75H11.1353L10.4898 17.8767C10.4295 17.5151 10.1166 17.25 9.75 17.25H9C9 16.4544 9.31607 15.6913 9.87868 15.1287Z" fill="#767676"/>
</g>
<defs>
<clipPath id="clip0_1199_100">
<rect width="24" height="24" fill="white"/>
</clipPath>
</defs>
</svg>
