<svg width="24" height="24" viewBox="0 0 24 24" fill="none" xmlns="http://www.w3.org/2000/svg">
<g clip-path="url(#clip0_1199_112)">
<path fill-rule="evenodd" clip-rule="evenodd" d="M8.539 0.741866C8.15951 0.575862 7.71729 0.748931 7.55129 1.12842C7.38529 1.50792 7.55836 1.95013 7.93785 2.11614L9.02358 2.59107V6.72606L2.13923 8.10256C2.12858 8.10469 2.11802 8.10704 2.10756 8.1096L0.603026 8.41057C0.19686 8.49183 -0.0665359 8.88696 0.0147154 9.29312C0.0959667 9.69929 0.491097 9.96268 0.897263 9.88143L1.53628 9.7536V21.821H0.788231C0.374017 21.821 0.0382306 22.1568 0.0382306 22.571C0.0382306 22.9852 0.374017 23.321 0.788231 23.321H23.2502C23.6644 23.321 24.0002 22.9852 24.0002 22.571C24.0002 22.1568 23.6644 21.821 23.2502 21.821H22.5036V8.48767L22.9459 8.68114C23.3253 8.84714 23.7676 8.67407 23.9336 8.29458C24.0996 7.91508 23.9265 7.47287 23.547 7.30687L22.503 6.85018V2.101C22.503 1.68678 22.1672 1.351 21.753 1.351H18.758C18.3437 1.351 18.008 1.68678 18.008 2.101V4.88391L8.539 0.741866ZM21.003 2.851V6.19403L19.508 5.54007V2.851H21.003ZM3.03628 21.821V9.45354L9.02328 8.25587V21.821H3.03628ZM21.0036 7.83156V21.821H19.5088L19.5177 16.0802V16.079C19.5177 15.4823 19.2807 14.91 18.8587 14.488C18.4368 14.0661 17.8645 13.829 17.2677 13.829H14.2677C13.671 13.829 13.0987 14.0661 12.6767 14.488C12.2548 14.91 12.0177 15.4823 12.0177 16.079V21.821H10.5236V3.24765L21.0036 7.83156ZM13.5177 21.821H18.0088L18.0177 16.079V16.0785C18.0176 15.8798 17.9386 15.6892 17.7981 15.5487C17.6574 15.408 17.4666 15.329 17.2677 15.329H14.2677C14.0688 15.329 13.878 15.408 13.7374 15.5487C13.5967 15.6893 13.5177 15.8801 13.5177 16.079V21.821ZM13.0001 7.25C12.5859 7.25 12.2501 7.58579 12.2501 8C12.2501 8.41421 12.5859 8.75 13.0001 8.75H15.0001C15.4144 8.75 15.7501 8.41421 15.7501 8C15.7501 7.58579 15.4144 7.25 15.0001 7.25H13.0001Z" fill="#767676"/>
</g>
<defs>
<clipPath id="clip0_1199_112">
<rect width="24" height="24" fill="white"/>
</clipPath>
</defs>
</svg>
