<svg width="24" height="24" viewBox="0 0 24 24" fill="none" xmlns="http://www.w3.org/2000/svg">
<path d="M0.788086 22.571H23.2501" stroke="#474445" stroke-width="1.5" stroke-linecap="round" stroke-linejoin="round"/>
<path d="M9.77313 22.5V7.341L2.28613 8.838V22.5" stroke="#474445" stroke-width="1.5" stroke-linecap="round" stroke-linejoin="round"/>
<path d="M21.7534 22.5V7.341L9.77344 2.101V22.5" stroke="#474445" stroke-width="1.5" stroke-linecap="round" stroke-linejoin="round"/>
<path d="M12.7676 6.967C12.8167 6.967 12.8653 6.97667 12.9107 6.99546C12.9561 7.01426 12.9973 7.04181 13.032 7.07654C13.0668 7.11127 13.0943 7.1525 13.1131 7.19787C13.1319 7.24325 13.1416 7.29188 13.1416 7.34099" stroke="#474445" stroke-width="1.5" stroke-linecap="round" stroke-linejoin="round"/>
<path d="M12.3926 7.34099C12.3928 7.24171 12.4325 7.14659 12.5028 7.07648C12.5731 7.00637 12.6683 6.96699 12.7676 6.967" stroke="#474445" stroke-width="1.5" stroke-linecap="round" stroke-linejoin="round"/>
<path d="M12.7676 7.716C12.6681 7.716 12.5727 7.67649 12.5024 7.60617C12.4321 7.53584 12.3926 7.44046 12.3926 7.341" stroke="#474445" stroke-width="1.5" stroke-linecap="round" stroke-linejoin="round"/>
<path d="M13.1416 7.341C13.1417 7.3902 13.1321 7.43894 13.1134 7.48443C13.0947 7.52993 13.0671 7.57127 13.0324 7.60611C12.9976 7.64094 12.9564 7.66858 12.9109 7.68744C12.8655 7.7063 12.8168 7.716 12.7676 7.716" stroke="#474445" stroke-width="1.5" stroke-linecap="round" stroke-linejoin="round"/>
<path d="M18.7576 22.5L18.7676 16.079C18.7676 15.6812 18.6095 15.2996 18.3282 15.0183C18.0469 14.737 17.6654 14.579 17.2676 14.579H14.2676C13.8698 14.579 13.4882 14.737 13.2069 15.0183C12.9256 15.2996 12.7676 15.6812 12.7676 16.079V22.5" stroke="#474445" stroke-width="1.5" stroke-linecap="round" stroke-linejoin="round"/>
<path d="M0.75 9.146L9.773 7.341" stroke="#474445" stroke-width="1.5" stroke-linecap="round" stroke-linejoin="round"/>
<path d="M8.23828 1.429L23.2463 7.994" stroke="#474445" stroke-width="1.5" stroke-linecap="round" stroke-linejoin="round"/>
<path d="M18.7578 6.022V2.101H21.7528V7.341" stroke="#474445" stroke-width="1.5" stroke-linecap="round" stroke-linejoin="round"/>
</svg>
