<svg width="24" height="24" viewBox="0 0 24 24" fill="none" xmlns="http://www.w3.org/2000/svg">
<path fill-rule="evenodd" clip-rule="evenodd" d="M3.02295 1.5C2.82404 1.5 2.63327 1.57902 2.49262 1.71967C2.35197 1.86032 2.27295 2.05109 2.27295 2.25V21.75C2.27295 21.9489 2.35197 22.1397 2.49262 22.2803C2.63327 22.421 2.82404 22.5 3.02295 22.5H20.9769C21.1759 22.5 21.3666 22.421 21.5073 22.2803C21.6479 22.1397 21.7269 21.9489 21.7269 21.75V5.133V5.13259C21.727 5.03252 21.707 4.93347 21.6682 4.84124C21.6295 4.74913 21.5727 4.66569 21.5012 4.59583L3.02295 1.5ZM3.02295 1.5H18.0229H18.0229C18.2184 1.50004 18.4062 1.57641 18.5462 1.71283L18.5464 1.713L21.5009 4.59559L3.02295 1.5ZM1.43196 0.65901C1.85392 0.237053 2.42621 0 3.02295 0H18.0229H18.023C18.6098 5.88298e-05 19.1734 0.229357 19.5935 0.639L19.5937 0.63917L22.5487 3.52217L22.5489 3.52241C22.7637 3.73214 22.9343 3.98271 23.0508 4.25939C23.1672 4.53606 23.2271 4.83324 23.2269 5.13341L22.4769 5.133H23.2269V5.13341V21.75C23.2269 22.3467 22.9899 22.919 22.5679 23.341C22.146 23.7629 21.5737 24 20.9769 24H3.02295C2.42621 24 1.85392 23.7629 1.43196 23.341C1.01 22.919 0.772949 22.3467 0.772949 21.75V2.25C0.772949 1.65326 1.01 1.08097 1.43196 0.65901ZM8.27295 6C7.44452 6 6.77295 6.67157 6.77295 7.5C6.77295 8.32843 7.44452 9 8.27295 9C9.10138 9 9.77295 8.32843 9.77295 7.5C9.77295 6.67157 9.10138 6 8.27295 6ZM5.27295 7.5C5.27295 5.84315 6.6161 4.5 8.27295 4.5C9.9298 4.5 11.2729 5.84315 11.2729 7.5C11.2729 9.15685 9.9298 10.5 8.27295 10.5C6.6161 10.5 5.27295 9.15685 5.27295 7.5ZM14.066 11.1108C13.7791 11.1075 13.4957 11.1744 13.2406 11.3056C12.9855 11.4368 12.7664 11.6283 12.6022 11.8634L12.6019 11.8637L10.3706 15.0519L9.32724 14.215L9.32696 14.2147C9.13624 14.0619 8.91581 13.9504 8.67967 13.8875C8.44354 13.8245 8.19688 13.8113 7.95538 13.8488C7.71389 13.8863 7.48285 13.9737 7.27696 14.1054C7.07107 14.237 6.89484 14.4101 6.75948 14.6136C6.75307 14.6233 6.74688 14.633 6.74093 14.643L4.35698 18.614C4.21788 18.8457 4.21419 19.1343 4.3473 19.3694C4.48042 19.6046 4.72976 19.75 5 19.75H19C19.2717 19.75 19.5221 19.6031 19.6546 19.366C19.7872 19.1289 19.7812 18.8386 19.6389 18.6072L15.5268 11.9192C15.5222 11.9116 15.5175 11.9042 15.5126 11.8968C15.3537 11.6579 15.1389 11.4613 14.8868 11.3243C14.6347 11.1873 14.3529 11.114 14.066 11.1108ZM13.9266 12.6395C13.9644 12.6201 14.0064 12.6102 14.0489 12.6107C14.0915 12.6111 14.1332 12.622 14.1706 12.6423C14.2053 12.6612 14.2353 12.6877 14.2583 12.7198L17.6584 18.25H6.32503L8.01511 15.4348C8.03416 15.4088 8.05789 15.3865 8.08511 15.3691C8.11562 15.3495 8.14987 15.3366 8.18566 15.331C8.22146 15.3255 8.25801 15.3274 8.29301 15.3368C8.32801 15.3461 8.36068 15.3626 8.38894 15.3853L10.0567 16.723C10.2185 16.8528 10.4268 16.9098 10.6321 16.8804C10.8375 16.8511 11.0215 16.738 11.1404 16.568L13.8314 12.723L13.832 12.7223C13.8563 12.6874 13.8888 12.659 13.9266 12.6395Z" fill="#767676"/>
</svg>
