<svg width="24" height="24" viewBox="0 0 24 24" fill="none" xmlns="http://www.w3.org/2000/svg">
<path d="M22.4769 21.75C22.4769 22.1478 22.3189 22.5294 22.0376 22.8107C21.7563 23.092 21.3748 23.25 20.9769 23.25H3.02295C2.62512 23.25 2.24359 23.092 1.96229 22.8107C1.68098 22.5294 1.52295 22.1478 1.52295 21.75V2.25C1.52295 1.85218 1.68098 1.47064 1.96229 1.18934C2.24359 0.908035 2.62512 0.75 3.02295 0.75H18.0229C18.4141 0.750039 18.7899 0.902905 19.0699 1.176L22.0249 4.059C22.1681 4.19882 22.2819 4.36587 22.3595 4.55032C22.4371 4.73476 22.4771 4.93288 22.4769 5.133V21.75Z" stroke="#71717A" stroke-width="1.5" stroke-linecap="round" stroke-linejoin="round"/>
<path d="M8.27295 9.75C9.51559 9.75 10.5229 8.74264 10.5229 7.5C10.5229 6.25736 9.51559 5.25 8.27295 5.25C7.03031 5.25 6.02295 6.25736 6.02295 7.5C6.02295 8.74264 7.03031 9.75 8.27295 9.75Z" stroke="#71717A" stroke-width="1.5" stroke-linecap="round" stroke-linejoin="round"/>
<path d="M19 19L14.8879 12.312C14.7968 12.1748 14.6734 12.062 14.5287 11.9833C14.384 11.9047 14.2222 11.8626 14.0575 11.8607C13.8928 11.8588 13.7301 11.8972 13.5836 11.9726C13.4371 12.0479 13.3112 12.1579 13.2169 12.293L10.5259 16.138L8.85795 14.8C8.74846 14.7123 8.62191 14.6483 8.48634 14.6121C8.35078 14.5759 8.20917 14.5684 8.07052 14.5899C7.93188 14.6115 7.79924 14.6616 7.68103 14.7372C7.56283 14.8128 7.46166 14.9122 7.38395 15.029L5 19" stroke="#71717A" stroke-width="1.5" stroke-linecap="round" stroke-linejoin="round"/>
</svg>
