<svg width="24" height="24" viewBox="0 0 24 24" fill="none" xmlns="http://www.w3.org/2000/svg">
<g clip-path="url(#clip0)">
<path d="M12 7.5C12.0742 7.5 12.1467 7.47801 12.2083 7.4368C12.27 7.3956 12.3181 7.33703 12.3465 7.26851C12.3748 7.19998 12.3823 7.12458 12.3678 7.05184C12.3533 6.9791 12.3176 6.91228 12.2652 6.85983C12.2127 6.80739 12.1459 6.77167 12.0732 6.7572C12.0004 6.74274 11.925 6.75016 11.8565 6.77854C11.788 6.80693 11.7294 6.85499 11.6882 6.91666C11.647 6.97833 11.625 7.05083 11.625 7.125C11.625 7.22445 11.6645 7.31984 11.7348 7.39016C11.8052 7.46049 11.9005 7.5 12 7.5Z" fill="#474445" stroke="#474445" stroke-width="1.5" stroke-linecap="round" stroke-linejoin="round"/>
<path d="M12 10.5L12 18" stroke="#474445" stroke-width="1.5" stroke-miterlimit="10" stroke-linecap="round"/>
<path d="M12 0.750001C5.7868 0.75 0.75 5.7868 0.749999 12C0.749998 18.2132 5.78679 23.25 12 23.25C18.2132 23.25 23.25 18.2132 23.25 12C23.25 5.7868 18.2132 0.750001 12 0.750001Z" stroke="#474445" stroke-width="1.5" stroke-miterlimit="10"/>
</g>
<defs>
<clipPath id="clip0">
<rect width="24" height="24" fill="white" transform="translate(24 24) rotate(-180)"/>
</clipPath>
</defs>
</svg>
