<svg width="24" height="24" viewBox="0 0 24 24" fill="none" xmlns="http://www.w3.org/2000/svg">
<g clip-path="url(#clip0_963_181)">
<path fill-rule="evenodd" clip-rule="evenodd" d="M1.5 12C1.5 17.799 6.20101 22.5 12 22.5C17.799 22.5 22.5 17.799 22.5 12C22.5 6.20101 17.799 1.5 12 1.5C6.20101 1.5 1.5 6.20101 1.5 12ZM12 24C5.37258 24 0 18.6274 0 12C0 5.37258 5.37258 0 12 0C18.6274 0 24 5.37258 24 12C24 18.6274 18.6274 24 12 24ZM12 18.75C12.4142 18.75 12.75 18.4142 12.75 18L12.75 10.5C12.75 10.0858 12.4142 9.75 12 9.75C11.5858 9.75 11.25 10.0858 11.25 10.5L11.25 18C11.25 18.4142 11.5858 18.75 12 18.75ZM12 8C11.8022 8 11.6089 7.94135 11.4444 7.83147C11.28 7.72159 11.1518 7.56541 11.0761 7.38268C11.0004 7.19996 10.9806 6.99889 11.0192 6.80491C11.0578 6.61093 11.153 6.43274 11.2929 6.29289C11.4327 6.15304 11.6109 6.0578 11.8049 6.01921C11.9989 5.98063 12.2 6.00043 12.3827 6.07612C12.5654 6.15181 12.7216 6.27998 12.8315 6.44443C12.9414 6.60888 13 6.80222 13 7C13 7.26522 12.8946 7.51957 12.7071 7.70711C12.5196 7.89464 12.2652 8 12 8Z" fill="#767676"/>
</g>
<defs>
<clipPath id="clip0_963_181">
<rect width="24" height="24" fill="white"/>
</clipPath>
</defs>
</svg>
