<svg width="24" height="24" viewBox="0 0 24 24" fill="none" xmlns="http://www.w3.org/2000/svg">
<g clip-path="url(#clip0_1199_83)">
<path fill-rule="evenodd" clip-rule="evenodd" d="M7.93934 1.93934C8.22064 1.65804 8.60218 1.5 9 1.5C9.39783 1.5 9.77936 1.65804 10.0607 1.93934C10.342 2.22064 10.5 2.60218 10.5 3V3.43583C10.2408 3.52672 9.98651 3.63364 9.73878 3.75629L9.72048 3.74728C9.01984 3.40391 8.26835 3.18623 7.5 3.10032V3C7.5 2.60218 7.65804 2.22064 7.93934 1.93934ZM6 4.61237C5.1028 4.74187 4.25306 5.10172 3.53452 5.65845C2.75836 6.25982 2.16639 7.06679 1.82586 7.98772C1.48533 8.90865 1.40988 9.90661 1.60807 10.8683C1.80627 11.8299 2.27017 12.7167 2.94709 13.428C3.62401 14.1392 4.48681 14.6464 5.4375 14.8918C5.76864 14.9773 6 15.276 6 15.618V21.754C6 21.9529 6.07902 22.1437 6.21967 22.2843C6.36032 22.425 6.55109 22.504 6.75 22.504C6.94892 22.504 7.13968 22.425 7.28033 22.2843C7.42098 22.1437 7.5 21.9529 7.5 21.754V15.618C7.5 15.276 7.73136 14.9773 8.0625 14.8918C9.18967 14.6008 10.1881 13.9434 10.9009 13.023C11.6137 12.1025 12.0003 10.9713 12 9.80719C11.9998 8.82532 11.7242 7.8632 11.2045 7.0301C10.6849 6.197 9.94206 5.52632 9.06038 5.09422C8.5662 4.85204 8.03951 4.69025 7.5 4.61238V6.93503C8.37389 7.24391 9 8.07734 9 9.057C9 10.2996 7.99264 11.307 6.75 11.307C5.50736 11.307 4.5 10.2996 4.5 9.057C4.5 8.07734 5.12611 7.24391 6 6.93503V4.61237ZM6 3.10032V3C6 2.20435 6.31607 1.44129 6.87868 0.87868C7.44129 0.31607 8.20435 0 9 0C9.79565 0 10.5587 0.31607 11.1213 0.87868C11.6839 1.44129 12 2.20435 12 3V3.09558C12.5415 3.03638 13.0916 3.04258 13.6383 3.11653C15.1155 3.31634 16.485 3.99952 17.5331 5.05947C18.5813 6.11943 19.2491 7.49652 19.4323 8.97589C19.5913 10.2598 19.3776 11.558 18.823 12.7178L23.3403 17.2315L23.3498 17.2409L23.3497 17.241C23.7595 17.6653 23.9863 18.2337 23.9812 18.8236C23.9761 19.4136 23.7394 19.9779 23.3223 20.3951C22.9051 20.8122 22.3408 21.0489 21.7508 21.054C21.1609 21.0591 20.5925 20.8323 20.1682 20.4225L20.1589 20.4135L20.1589 20.4134L15.6441 15.8995C15.0203 16.1976 14.353 16.3981 13.6658 16.493C13.2555 16.5496 12.8769 16.2629 12.8203 15.8526C12.7636 15.4422 13.0503 15.0637 13.4606 15.007C14.1458 14.9125 14.8053 14.6827 15.401 14.3311C15.6956 14.1572 16.0706 14.2047 16.3125 14.4466L21.2141 19.3473C21.3551 19.4815 21.5429 19.5557 21.7378 19.554C21.9344 19.5523 22.1226 19.4735 22.2616 19.3344C22.4007 19.1953 22.4795 19.0072 22.4813 18.8106C22.4829 18.6158 22.4088 18.428 22.2746 18.287L17.3701 13.3865C17.128 13.1446 17.0804 12.7695 17.2544 12.4747C17.8438 11.4763 18.0862 10.3109 17.9437 9.16027C17.8011 8.00965 17.2818 6.93858 16.4665 6.11417C15.6513 5.28976 14.5861 4.7584 13.4372 4.60299C12.6977 4.50296 11.9502 4.56231 11.2434 4.7715C11.7199 5.19658 12.136 5.68919 12.4773 6.23626C13.1453 7.30739 13.4997 8.54441 13.5 9.80681C13.5004 11.3036 13.0033 12.758 12.0869 13.9414C11.2909 14.9692 10.2179 15.7419 9 16.1725V21.754C9 22.3507 8.76295 22.923 8.34099 23.345C7.91903 23.767 7.34674 24.004 6.75 24.004C6.15327 24.004 5.58097 23.767 5.15901 23.345C4.73705 22.923 4.5 22.3507 4.5 21.754V16.1725C3.50039 15.8191 2.59529 15.2341 1.86054 14.4621C0.990218 13.5477 0.393772 12.4075 0.138949 11.1711C-0.115875 9.93464 -0.0188637 8.65154 0.418964 7.46749C0.856793 6.28344 1.61789 5.2459 2.61581 4.47271C3.59667 3.71274 4.76769 3.2381 6 3.10032ZM6.74915 8.307C6.33532 8.30746 6 8.64307 6 9.057C6 9.47121 6.33579 9.807 6.75 9.807C7.16421 9.807 7.5 9.47121 7.5 9.057C7.5 8.64279 7.16421 8.307 6.75 8.307C6.74971 8.307 6.74943 8.307 6.74915 8.307Z" fill="#767676"/>
</g>
<defs>
<clipPath id="clip0_1199_83">
<rect width="24" height="24" fill="white"/>
</clipPath>
</defs>
</svg>
