<svg width="24" height="24" viewBox="0 0 24 24" fill="none" xmlns="http://www.w3.org/2000/svg">
<g clip-path="url(#clip0_1199:131)">
<path fill-rule="evenodd" clip-rule="evenodd" d="M1.5 12C1.5 6.20101 6.20101 1.5 12 1.5C17.799 1.5 22.5 6.20101 22.5 12C22.5 17.799 17.799 22.5 12 22.5C6.20101 22.5 1.5 17.799 1.5 12ZM12 -1.90735e-06C5.37258 -1.90735e-06 0 5.37258 0 12C0 18.6274 5.37258 24 12 24C18.6274 24 24 18.6274 24 12C24 5.37258 18.6274 -1.90735e-06 12 -1.90735e-06ZM10.5036 8.55574C10.8106 8.27759 10.8339 7.80328 10.5557 7.49636C10.2776 7.18943 9.80328 7.1661 9.49636 7.44426L6.75 9.93315L6.75 8C6.75 7.58578 6.41421 7.25 6 7.25C5.58578 7.25 5.25 7.58578 5.25 8L5.25 11.625L5.25 16C5.25 16.4142 5.58578 16.75 6 16.75C6.41421 16.75 6.75 16.4142 6.75 16L6.75 13.5568L9.44648 16.5061C9.72597 16.8118 10.2004 16.833 10.5061 16.5535C10.8118 16.274 10.833 15.7996 10.5535 15.4939L7.06183 11.6749L10.5036 8.55574ZM13 7.25C12.8011 7.25 12.6103 7.32901 12.4697 7.46967C12.329 7.61032 12.25 7.80108 12.25 8L12.25 12V16C12.25 16.4142 12.5858 16.75 13 16.75C13.4142 16.75 13.75 16.4142 13.75 16V13.8107L16.4697 16.5303C16.7626 16.8232 17.2374 16.8232 17.5303 16.5303C17.8232 16.2374 17.8232 15.7626 17.5303 15.4697L14.8107 12.75H15C16.5188 12.75 17.75 11.5188 17.75 10C17.75 8.48121 16.5188 7.25 15 7.25L13 7.25ZM13.75 8.75L13.75 11.25H15C15.6904 11.25 16.25 10.6904 16.25 10C16.25 9.30964 15.6904 8.75 15 8.75H13.75Z" fill="#767676"/>
</g>
<defs>
<clipPath id="clip0_1199:131">
<rect width="24" height="24" fill="white"/>
</clipPath>
</defs>
</svg>
