<svg width="24" height="24" viewBox="0 0 24 24" fill="none" xmlns="http://www.w3.org/2000/svg">
<g clip-path="url(#clip0)">
<path d="M7.75 8C7.75 7.58579 7.41421 7.25 7 7.25C6.58578 7.25 6.25 7.58579 6.25 8L7.75 8ZM6.25 16C6.25 16.4142 6.58578 16.75 7 16.75C7.41421 16.75 7.75 16.4142 7.75 16H6.25ZM11.5036 8.55574C11.8106 8.27759 11.8339 7.80329 11.5557 7.49636C11.2776 7.18943 10.8033 7.16611 10.4964 7.44426L11.5036 8.55574ZM10.4465 16.5061C10.726 16.8118 11.2004 16.833 11.5061 16.5535C11.8118 16.274 11.833 15.7996 11.5535 15.4939L10.4465 16.5061ZM14 8V7.25C13.8011 7.25 13.6103 7.32902 13.4697 7.46967C13.329 7.61032 13.25 7.80109 13.25 8H14ZM16 8V8.75V8ZM13.25 16C13.25 16.4142 13.5858 16.75 14 16.75C14.4142 16.75 14.75 16.4142 14.75 16H13.25ZM16 12V12.75V12ZM17.4697 16.5303C17.7626 16.8232 18.2374 16.8232 18.5303 16.5303C18.8232 16.2374 18.8232 15.7626 18.5303 15.4697L17.4697 16.5303ZM1.5 12C1.5 6.20101 6.20101 1.5 12 1.5V0C5.37258 -5.96046e-07 5.96046e-07 5.37258 0 12H1.5ZM12 1.5C17.799 1.5 22.5 6.20101 22.5 12H24C24 5.37258 18.6274 5.96046e-07 12 0V1.5ZM22.5 12C22.5 17.799 17.799 22.5 12 22.5V24C18.6274 24 24 18.6274 24 12H22.5ZM12 22.5C6.20101 22.5 1.5 17.799 1.5 12H0C-5.96046e-07 18.6274 5.37258 24 12 24V22.5ZM6.25 8L6.25 11.625H7.75L7.75 8L6.25 8ZM6.25 11.625L6.25 16H7.75L7.75 11.625H6.25ZM7.50364 12.1807L11.5036 8.55574L10.4964 7.44426L6.49636 11.0693L7.50364 12.1807ZM6.44648 12.1311L10.4465 16.5061L11.5535 15.4939L7.55352 11.1189L6.44648 12.1311ZM14 8.75L16 8.75V7.25L14 7.25V8.75ZM13.25 12V16H14.75V12H13.25ZM16 11.25H14V12.75H16V11.25ZM13.4697 12.5303L17.4697 16.5303L18.5303 15.4697L14.5303 11.4697L13.4697 12.5303ZM17.25 10C17.25 10.6904 16.6904 11.25 16 11.25V12.75C17.5188 12.75 18.75 11.5188 18.75 10H17.25ZM16 8.75C16.6904 8.75 17.25 9.30964 17.25 10H18.75C18.75 8.48122 17.5188 7.25 16 7.25V8.75ZM13.25 8L13.25 12H14.75L14.75 8H13.25Z" fill="#474445"/>
</g>
<defs>
<clipPath id="clip0">
<rect width="24" height="24" fill="white" transform="translate(24 24) rotate(-180)"/>
</clipPath>
</defs>
</svg>
