<svg width="24" height="24" viewBox="0 0 24 24" fill="none" xmlns="http://www.w3.org/2000/svg">
<path d="M6 11.625L5.49636 11.0693C5.34855 11.2032 5.26019 11.3905 5.25083 11.5898C5.24147 11.7891 5.31187 11.9838 5.44648 12.1311L6 11.625ZM10.5036 8.55574C10.8106 8.27759 10.8339 7.80329 10.5557 7.49636C10.2776 7.18943 9.80329 7.16611 9.49636 7.44426L10.5036 8.55574ZM9.44648 16.5061C9.72597 16.8118 10.2004 16.833 10.5061 16.5535C10.8118 16.274 10.833 15.7996 10.5535 15.4939L9.44648 16.5061ZM6.50364 12.1807L10.5036 8.55574L9.49636 7.44426L5.49636 11.0693L6.50364 12.1807ZM5.44648 12.1311L9.44648 16.5061L10.5535 15.4939L6.55352 11.1189L5.44648 12.1311Z" fill="#767676"/>
<path d="M1.5 12C1.5 6.20101 6.20101 1.5 12 1.5V0C5.37258 -5.96046e-07 5.96046e-07 5.37258 0 12H1.5ZM12 1.5C17.799 1.5 22.5 6.20101 22.5 12H24C24 5.37258 18.6274 5.96046e-07 12 0V1.5ZM22.5 12C22.5 17.799 17.799 22.5 12 22.5V24C18.6274 24 24 18.6274 24 12H22.5ZM12 22.5C6.20101 22.5 1.5 17.799 1.5 12H0C-5.96046e-07 18.6274 5.37258 24 12 24V22.5Z" fill="#767676"/>
<path d="M6.75 8C6.75 7.58579 6.41421 7.25 6 7.25C5.58579 7.25 5.25 7.58579 5.25 8H6.75ZM5.25 16C5.25 16.4142 5.58579 16.75 6 16.75C6.41421 16.75 6.75 16.4142 6.75 16H5.25ZM5.25 8L5.25 16H6.75L6.75 8H5.25Z" fill="#767676"/>
<path d="M13 8L13 16" stroke="#767676" stroke-width="1.5" stroke-miterlimit="10" stroke-linecap="round" stroke-linejoin="round"/>
<path d="M13 7.25C12.5858 7.25 12.25 7.58579 12.25 8C12.25 8.41421 12.5858 8.75 13 8.75L13 7.25ZM15 8L15 8.75H15V8ZM13 11.25C12.5858 11.25 12.25 11.5858 12.25 12C12.25 12.4142 12.5858 12.75 13 12.75V11.25ZM15 12V12.75V12ZM13 8.75L15 8.75L15 7.25L13 7.25L13 8.75ZM15 11.25H13V12.75L15 12.75V11.25ZM16.25 10C16.25 10.6904 15.6904 11.25 15 11.25V12.75C16.5188 12.75 17.75 11.5188 17.75 10H16.25ZM15 8.75C15.6904 8.75 16.25 9.30964 16.25 10H17.75C17.75 8.48122 16.5188 7.25 15 7.25V8.75Z" fill="#767676"/>
<path d="M13.5303 11.4697C13.2374 11.1768 12.7626 11.1768 12.4697 11.4697C12.1768 11.7626 12.1768 12.2374 12.4697 12.5303L13.5303 11.4697ZM16.4697 16.5303C16.7626 16.8232 17.2374 16.8232 17.5303 16.5303C17.8232 16.2374 17.8232 15.7626 17.5303 15.4697L16.4697 16.5303ZM12.4697 12.5303L16.4697 16.5303L17.5303 15.4697L13.5303 11.4697L12.4697 12.5303Z" fill="#767676"/>
</svg>
