<svg width="24" height="24" viewBox="0 0 24 24" fill="none" xmlns="http://www.w3.org/2000/svg">
<g clip-path="url(#clip0)">
<path fill-rule="evenodd" clip-rule="evenodd" d="M1.5 12C1.5 6.20101 6.20101 1.5 12 1.5C17.799 1.5 22.5 6.20101 22.5 12C22.5 17.799 17.799 22.5 12 22.5C6.20101 22.5 1.5 17.799 1.5 12ZM12 -1.04907e-06C5.37258 -1.62846e-06 1.62846e-06 5.37258 1.04907e-06 12C4.69686e-07 18.6274 5.37258 24 12 24C18.6274 24 24 18.6274 24 12C24 5.37258 18.6274 -4.69686e-07 12 -1.04907e-06ZM11.5036 8.55574C11.8106 8.27759 11.8339 7.80329 11.5557 7.49636C11.2776 7.18943 10.8033 7.16611 10.4964 7.44426L7.75 9.93315L7.75 8C7.75 7.58579 7.41421 7.25 7 7.25C6.58579 7.25 6.25 7.58579 6.25 8L6.25 11.625L6.25 16C6.25 16.4142 6.58579 16.75 7 16.75C7.41421 16.75 7.75 16.4142 7.75 16L7.75 13.5568L10.4465 16.5061C10.726 16.8118 11.2004 16.833 11.5061 16.5535C11.8118 16.274 11.833 15.7996 11.5535 15.4939L8.06183 11.6749L11.5036 8.55574ZM14 7.25C13.8011 7.25 13.6103 7.32902 13.4697 7.46967C13.329 7.61032 13.25 7.80109 13.25 8L13.25 12L13.25 16C13.25 16.4142 13.5858 16.75 14 16.75C14.4142 16.75 14.75 16.4142 14.75 16L14.75 13.8107L17.4697 16.5303C17.7626 16.8232 18.2374 16.8232 18.5303 16.5303C18.8232 16.2374 18.8232 15.7626 18.5303 15.4697L15.8107 12.75L16 12.75C17.5188 12.75 18.75 11.5188 18.75 10C18.75 8.48122 17.5188 7.25 16 7.25L14 7.25ZM16 8.75L14.75 8.75L14.75 11.25L16 11.25C16.6904 11.25 17.25 10.6904 17.25 10C17.25 9.30965 16.6904 8.75 16 8.75Z" fill="#474445"/>
</g>
<defs>
<clipPath id="clip0">
<rect width="24" height="24" fill="white" transform="translate(24 24) rotate(-180)"/>
</clipPath>
</defs>
</svg>
