<svg width="24" height="24" viewBox="0 0 24 24" fill="none" xmlns="http://www.w3.org/2000/svg">
<path d="M20.25 0.75H3.75C2.92157 0.75 2.25 1.42157 2.25 2.25V21.75C2.25 22.5784 2.92157 23.25 3.75 23.25H20.25C21.0784 23.25 21.75 22.5784 21.75 21.75V2.25C21.75 1.42157 21.0784 0.75 20.25 0.75Z" stroke="#474445" stroke-width="1.5" stroke-linecap="round" stroke-linejoin="round"/>
<path d="M5.25 3.75H8.25" stroke="#474445" stroke-width="1.5" stroke-linecap="round" stroke-linejoin="round"/>
<path d="M2.25 6.75H21.75" stroke="#474445" stroke-width="1.5" stroke-linecap="round" stroke-linejoin="round"/>
<path d="M12 20.25C14.8995 20.25 17.25 17.8995 17.25 15C17.25 12.1005 14.8995 9.75 12 9.75C9.10051 9.75 6.75 12.1005 6.75 15C6.75 17.8995 9.10051 20.25 12 20.25Z" stroke="#474445" stroke-width="1.5" stroke-linecap="round" stroke-linejoin="round"/>
<path d="M13.5 3.375C13.5742 3.375 13.6467 3.39699 13.7083 3.4382C13.77 3.4794 13.8181 3.53797 13.8465 3.60649C13.8748 3.67502 13.8823 3.75042 13.8678 3.82316C13.8533 3.8959 13.8176 3.96272 13.7652 4.01516C13.7127 4.06761 13.6459 4.10333 13.5732 4.11779C13.5004 4.13226 13.425 4.12484 13.3565 4.09645C13.288 4.06807 13.2294 4.02001 13.1882 3.95834C13.147 3.89667 13.125 3.82417 13.125 3.75C13.125 3.65054 13.1645 3.55516 13.2348 3.48483C13.3052 3.41451 13.4005 3.375 13.5 3.375" stroke="#474445" stroke-width="1.5" stroke-linecap="round" stroke-linejoin="round"/>
<path d="M17.5 3.375C17.5742 3.375 17.6467 3.39699 17.7083 3.4382C17.77 3.4794 17.8181 3.53797 17.8465 3.60649C17.8748 3.67502 17.8823 3.75042 17.8678 3.82316C17.8533 3.8959 17.8176 3.96272 17.7652 4.01516C17.7127 4.06761 17.6459 4.10333 17.5732 4.11779C17.5004 4.13226 17.425 4.12484 17.3565 4.09645C17.288 4.06807 17.2294 4.02001 17.1882 3.95834C17.147 3.89667 17.125 3.82417 17.125 3.75C17.125 3.65054 17.1645 3.55516 17.2348 3.48483C17.3052 3.41451 17.4005 3.375 17.5 3.375" stroke="#474445" stroke-width="1.5" stroke-linecap="round" stroke-linejoin="round"/>
<path d="M9.75 15C9.75 14.4033 9.98705 13.831 10.409 13.409C10.831 12.9871 11.4033 12.75 12 12.75" stroke="#474445" stroke-width="1.5" stroke-linecap="round" stroke-linejoin="round"/>
</svg>
