<svg width="24" height="24" viewBox="0 0 24 24" fill="none" xmlns="http://www.w3.org/2000/svg">
<path fill-rule="evenodd" clip-rule="evenodd" d="M3.75 1.5C3.33579 1.5 3 1.83579 3 2.25V6H21V2.25C21 1.83579 20.6642 1.5 20.25 1.5H3.75ZM21 7.5H3V21.75C3 22.1642 3.33579 22.5 3.75 22.5H20.25C20.6642 22.5 21 22.1642 21 21.75V7.5ZM1.5 6.75V21.75C1.5 22.9926 2.50736 24 3.75 24H20.25C21.4926 24 22.5 22.9926 22.5 21.75V6.75V2.25C22.5 1.00736 21.4926 0 20.25 0H3.75C2.50736 0 1.5 1.00736 1.5 2.25V6.75ZM4.5 3.75C4.5 3.33579 4.83579 3 5.25 3H8.25C8.66421 3 9 3.33579 9 3.75C9 4.16421 8.66421 4.5 8.25 4.5H5.25C4.83579 4.5 4.5 4.16421 4.5 3.75ZM12 10.5C9.51472 10.5 7.5 12.5147 7.5 15C7.5 17.4853 9.51472 19.5 12 19.5C14.4853 19.5 16.5 17.4853 16.5 15C16.5 12.5147 14.4853 10.5 12 10.5ZM6 15C6 11.6863 8.68629 9 12 9C15.3137 9 18 11.6863 18 15C18 18.3137 15.3137 21 12 21C8.68629 21 6 18.3137 6 15ZM12.7045 2.9545C12.9155 2.74353 13.2016 2.625 13.5 2.625C13.7225 2.625 13.94 2.69098 14.125 2.8146C14.31 2.93821 14.4542 3.11392 14.5394 3.31948C14.6245 3.52505 14.6468 3.75125 14.6034 3.96948C14.56 4.1877 14.4528 4.38816 14.2955 4.5455C14.1382 4.70283 13.9377 4.80997 13.7195 4.85338C13.5012 4.89679 13.275 4.87451 13.0695 4.78936C12.8639 4.70422 12.6882 4.56002 12.5646 4.37502C12.441 4.19001 12.375 3.97251 12.375 3.75C12.375 3.45163 12.4935 3.16548 12.7045 2.9545ZM17.5 2.625C17.2016 2.625 16.9155 2.74353 16.7045 2.9545C16.4935 3.16548 16.375 3.45163 16.375 3.75C16.375 3.97251 16.441 4.19001 16.5646 4.37502C16.6882 4.56002 16.8639 4.70422 17.0695 4.78936C17.275 4.87451 17.5012 4.89679 17.7195 4.85338C17.9377 4.80997 18.1382 4.70283 18.2955 4.5455C18.4528 4.38816 18.56 4.1877 18.6034 3.96948C18.6468 3.75125 18.6245 3.52505 18.5394 3.31948C18.4542 3.11392 18.31 2.93821 18.125 2.8146C17.94 2.69098 17.7225 2.625 17.5 2.625ZM10.9393 13.9393C11.2206 13.658 11.6022 13.5 12 13.5C12.4142 13.5 12.75 13.1642 12.75 12.75C12.75 12.3358 12.4142 12 12 12C11.2044 12 10.4413 12.3161 9.87868 12.8787C9.31607 13.4413 9 14.2044 9 15C9 15.4142 9.33579 15.75 9.75 15.75C10.1642 15.75 10.5 15.4142 10.5 15C10.5 14.6022 10.658 14.2206 10.9393 13.9393Z" fill="#474445"/>
</svg>
