<svg width="24" height="24" viewBox="0 0 24 24" fill="none" xmlns="http://www.w3.org/2000/svg">
<path d="M22.9172 6.20001L12.7082 0.922019C12.4893 0.808983 12.2465 0.749999 12.0002 0.749999C11.7538 0.749999 11.5111 0.808983 11.2922 0.922019L1.08321 6.20001C0.982943 6.25194 0.898879 6.33042 0.8402 6.42689C0.781522 6.52336 0.750487 6.6341 0.750487 6.74701C0.750487 6.85992 0.781522 6.97067 0.8402 7.06713C0.898879 7.1636 0.982943 7.24209 1.08321 7.29401L11.2922 12.575C11.5111 12.688 11.7538 12.747 12.0002 12.747C12.2465 12.747 12.4893 12.688 12.7082 12.575L22.9172 7.30001C23.0174 7.24809 23.1015 7.1696 23.1602 7.07313C23.2189 6.97667 23.2499 6.86592 23.2499 6.75301C23.2499 6.6401 23.2189 6.52936 23.1602 6.43289C23.1015 6.33642 23.0174 6.25794 22.9172 6.20601V6.20001Z" stroke="#767676" stroke-width="1.5" stroke-linecap="round" stroke-linejoin="round"/>
<path d="M5.1002 9.37502L1.08321 11.453C0.982943 11.5049 0.898879 11.5834 0.8402 11.6799C0.781522 11.7764 0.750487 11.8871 0.750487 12C0.750487 12.1129 0.781522 12.2237 0.8402 12.3201C0.898879 12.4166 0.982943 12.4951 1.08321 12.547L11.2922 17.828C11.5111 17.941 11.7538 18 12.0002 18C12.2465 18 12.4893 17.941 12.7082 17.828L22.9172 12.547C23.0174 12.4951 23.1015 12.4166 23.1602 12.3201C23.2189 12.2237 23.2499 12.1129 23.2499 12C23.2499 11.8871 23.2189 11.7764 23.1602 11.6799C23.1015 11.5834 23.0174 11.5049 22.9172 11.453L18.9392 9.39518" stroke="#767676" stroke-width="1.5" stroke-linecap="round" stroke-linejoin="round"/>
<path d="M5.1002 14.625L1.08321 16.7C0.982943 16.7519 0.898879 16.8304 0.8402 16.9269C0.781522 17.0234 0.750487 17.1341 0.750487 17.247C0.750487 17.3599 0.781522 17.4707 0.8402 17.5671C0.898879 17.6636 0.982943 17.7421 1.08321 17.794L11.2922 23.075C11.5111 23.188 11.7538 23.247 12.0002 23.247C12.2465 23.247 12.4893 23.188 12.7082 23.075L22.9172 17.8C23.0174 17.7481 23.1015 17.6696 23.1602 17.5731C23.2189 17.4767 23.2499 17.3659 23.2499 17.253C23.2499 17.1401 23.2189 17.0294 23.1602 16.9329C23.1015 16.8364 23.0174 16.7579 22.9172 16.706L18.9298 14.6404" stroke="#767676" stroke-width="1.5" stroke-linecap="round" stroke-linejoin="round"/>
</svg>
