<svg width="24" height="24" viewBox="0 0 24 24" fill="none" xmlns="http://www.w3.org/2000/svg">
<g clip-path="url(#clip0)">
<path d="M10.7391 11.554C13.8593 12.4117 16.7831 13.8673 19.3481 15.84L23.2501 19.17M13.7521 21.1C15.7495 21.0997 17.6651 20.3061 19.0774 18.8936C20.4897 17.4811 21.2831 15.5654 21.2831 13.568C21.2831 2.645 8.13911 8.252 1.81111 3C1.7432 2.94916 1.6627 2.91782 1.57829 2.90936C1.49388 2.9009 1.40876 2.91564 1.33211 2.952C1.25427 2.98458 1.18594 3.03632 1.13349 3.10241C1.08103 3.16851 1.04616 3.2468 1.03211 3.33C-0.899889 14.643 7.42811 21.1 13.7521 21.1Z" stroke="#474445" stroke-width="1.5" stroke-linecap="round" stroke-linejoin="round"/>
</g>
<defs>
<clipPath id="clip0">
<rect width="24" height="24" fill="white" transform="matrix(-1 0 0 1 24 0)"/>
</clipPath>
</defs>
</svg>
