<svg width="24" height="24" viewBox="0 0 24 24" fill="none" xmlns="http://www.w3.org/2000/svg">
<path d="M1.54725 3L1.99005 2.39467C1.79276 2.25035 1.53752 2.21123 1.30606 2.28984C1.07461 2.36845 0.895981 2.55492 0.827386 2.78953L1.54725 3ZM20.3218 16.8006L20.947 17.2149L20.9612 17.1934L20.974 17.171L20.3218 16.8006ZM15.6283 6.63173L15.56 7.37862L15.6283 6.63173ZM0.827386 2.78953C-1.07936 9.31122 1.97315 15.7882 6.41506 19.2106C8.64368 20.9277 11.2818 21.924 13.8913 21.7249C16.5286 21.5238 19.029 20.1087 20.947 17.2149L19.6967 16.3863C18.004 18.9401 15.9011 20.0673 13.7772 20.2293C11.6253 20.3934 9.34421 19.5738 7.33056 18.0223C3.28792 14.9076 0.563706 9.03667 2.26711 3.21047L0.827386 2.78953ZM20.974 17.171C21.4095 16.4042 21.663 15.3605 21.7312 14.2572C21.7999 13.1433 21.6837 11.9094 21.3274 10.7363C20.612 8.38048 18.881 6.17606 15.6966 5.88485L15.56 7.37862C17.9576 7.59787 19.2953 9.20677 19.8921 11.1722C20.192 12.1597 20.2928 13.2134 20.234 14.1648C20.1746 15.1267 19.9561 15.9258 19.6697 16.4302L20.974 17.171ZM15.6966 5.88485C11.5071 5.50173 9.0521 5.32481 7.1289 4.88915C5.2672 4.46742 3.91574 3.80331 1.99005 2.39467L1.10445 3.60533C3.15057 5.10207 4.68763 5.87414 6.7975 6.35208C8.84588 6.8161 11.4455 7.00235 15.56 7.37862L15.6966 5.88485Z" fill="#71717A"/>
<path d="M10 11C14.2059 11.8 17.5314 13.7732 23 19" stroke="#71717A" stroke-width="1.5" stroke-linecap="round"/>
</svg>
