<svg width="24" height="24" viewBox="0 0 24 24" fill="none" xmlns="http://www.w3.org/2000/svg">
<g clip-path="url(#clip0)">
<path fill-rule="evenodd" clip-rule="evenodd" d="M1.02668 2.26692C1.2225 2.17749 1.43866 2.14161 1.65306 2.1631C1.87333 2.18517 2.08339 2.26695 2.2606 2.39962C2.27062 2.40713 2.28046 2.41488 2.29009 2.42288C3.72499 3.61379 5.58219 4.21789 7.65663 4.59285C8.69023 4.77968 9.75749 4.90646 10.8359 5.02629C10.9843 5.04279 11.1331 5.05917 11.2821 5.07556L11.2826 5.07562L11.2827 5.07562C12.2074 5.1774 13.1388 5.27991 14.0329 5.4159C16.0921 5.72912 18.1086 6.23824 19.6063 7.46742C21.1522 8.73615 22.0331 10.6721 22.0331 13.568C22.0331 14.6308 21.8288 15.6725 21.442 16.6407L23.7373 18.5995C24.0524 18.8684 24.0899 19.3418 23.821 19.6569C23.5521 19.9719 23.0787 20.0094 22.7636 19.7405L20.7393 18.0129C20.4173 18.5192 20.0387 18.9929 19.6078 19.4239C18.0548 20.977 15.9485 21.8497 13.7522 21.85C6.98611 21.85 -1.72117 14.9968 0.292809 3.20375C0.328079 2.99627 0.415161 2.80104 0.546015 2.63617C0.673574 2.47544 0.838678 2.34867 1.02668 2.26692ZM19.5845 17.0274C19.2982 17.5103 18.9507 17.9596 18.547 18.3633C17.2754 19.6351 15.5505 20.3497 13.752 20.35C7.94543 20.3499 0.124641 14.4434 1.70512 3.8701C3.3665 5.10481 5.37341 5.70446 7.38983 6.06893C8.47835 6.26569 9.59028 6.39711 10.6702 6.51711C10.8217 6.53395 10.9725 6.55056 11.1225 6.56707L11.1227 6.56709C12.0496 6.66916 12.9465 6.76791 13.8073 6.89885C15.8251 7.20576 17.4901 7.6712 18.6547 8.62692C19.771 9.5431 20.5331 11.0024 20.5331 13.568C20.5331 14.2634 20.4263 14.9478 20.2218 15.5993L19.8353 15.2695C19.8257 15.2612 19.8158 15.2532 19.8057 15.2455C17.1637 13.2136 14.1521 11.7142 10.9383 10.8308C10.5389 10.721 10.1261 10.9558 10.0163 11.3552C9.90651 11.7546 10.1413 12.1674 10.5407 12.2772C13.5611 13.1074 16.3918 14.5154 18.8762 16.423L19.5845 17.0274Z" fill="#474445"/>
</g>
<defs>
<clipPath id="clip0">
<rect width="24" height="24" fill="white" transform="matrix(-1 0 0 1 24 0)"/>
</clipPath>
</defs>
</svg>
