<svg width="24" height="24" viewBox="0 0 24 24" fill="none" xmlns="http://www.w3.org/2000/svg">
<path fill-rule="evenodd" clip-rule="evenodd" d="M1.75 1.5C1.61193 1.5 1.5 1.61193 1.5 1.75V22.25C1.5 22.3881 1.61193 22.5 1.75 22.5H5.25V10.5C5.25 10.1022 5.40804 9.72064 5.68934 9.43934C5.97064 9.15804 6.35217 9 6.75 9H12H17.25C17.6478 9 18.0294 9.15804 18.3107 9.43934C18.592 9.72065 18.75 10.1022 18.75 10.5V22.5H22.25C22.3881 22.5 22.5 22.3881 22.5 22.25V1.75C22.5 1.61193 22.3881 1.5 22.25 1.5H1.75ZM11.25 10.5H6.75V22.5H11.25V10.5ZM12.75 22.5V10.5H17.25V22.5H12.75ZM12 24H18H22.25C23.2165 24 24 23.2165 24 22.25V1.75C24 0.783502 23.2165 0 22.25 0H1.75C0.783502 0 0 0.783502 0 1.75V22.25C0 23.2165 0.783502 24 1.75 24H6H12ZM13.55 3.4C13.8814 3.15147 14.3515 3.21863 14.6 3.55L15.5 4.75L16.4 3.55C16.6485 3.21863 17.1186 3.15147 17.45 3.4C17.7814 3.64853 17.8485 4.11863 17.6 4.45L16.1 6.45C15.9584 6.63885 15.7361 6.75 15.5 6.75C15.2639 6.75 15.0416 6.63885 14.9 6.45L13.4 4.45C13.1515 4.11863 13.2186 3.64853 13.55 3.4ZM9.4 6.45C9.64853 6.78137 10.1186 6.84853 10.45 6.6C10.7814 6.35147 10.8485 5.88137 10.6 5.55L9.1 3.55C8.95836 3.36115 8.73607 3.25 8.5 3.25C8.26393 3.25 8.04164 3.36115 7.9 3.55L6.4 5.55C6.15147 5.88137 6.21863 6.35147 6.55 6.6C6.88137 6.84853 7.35147 6.78137 7.6 6.45L8.5 5.25L9.4 6.45Z" fill="#767676"/>
</svg>
