<svg width="24" height="24" viewBox="0 0 24 24" fill="none" xmlns="http://www.w3.org/2000/svg">
<path fill-rule="evenodd" clip-rule="evenodd" d="M23.75 1.00001C23.75 0.585794 23.4142 0.250007 23 0.250007L17 0.25C16.5858 0.25 16.25 0.585785 16.25 0.999999C16.25 1.41421 16.5858 1.75 17 1.75L21.2447 1.75L11.458 11.9816C11.1717 12.2809 11.1823 12.7557 11.4816 13.042C11.7809 13.3283 12.2557 13.3177 12.542 13.0184L22.25 2.86913V6.99999C22.25 7.41421 22.5858 7.74999 23 7.74999C23.4142 7.74999 23.75 7.41421 23.75 6.99999V1.00001ZM3 0.250007C1.48122 0.250007 0.25 1.48122 0.25 3.00001V21C0.25 22.5188 1.48122 23.75 3 23.75H21C22.5188 23.75 23.75 22.5188 23.75 21V13C23.75 12.5858 23.4142 12.25 23 12.25C22.5858 12.25 22.25 12.5858 22.25 13V21C22.25 21.6904 21.6904 22.25 21 22.25H3C2.30964 22.25 1.75 21.6904 1.75 21V3.00001C1.75 2.30965 2.30964 1.75001 3 1.75001H11C11.4142 1.75001 11.75 1.41422 11.75 1.00001C11.75 0.585794 11.4142 0.250007 11 0.250007H3Z" fill="#474445"/>
</svg>
