<svg width="24" height="24" viewBox="0 0 24 24" fill="none" xmlns="http://www.w3.org/2000/svg">
<path fill-rule="evenodd" clip-rule="evenodd" d="M4 1.25001C2.48122 1.25001 1.25 2.48122 1.25 4.00001V20C1.25 21.5188 2.48122 22.75 4 22.75H20C21.5188 22.75 22.75 21.5188 22.75 20V12.75C22.75 12.3358 22.4142 12 22 12C21.5858 12 21.25 12.3358 21.25 12.75V20C21.25 20.6904 20.6904 21.25 20 21.25H4C3.30964 21.25 2.75 20.6904 2.75 20V4.00001C2.75 3.30965 3.30964 2.75001 4 2.75001H11C11.4142 2.75001 11.75 2.41422 11.75 2.00001C11.75 1.58579 11.4142 1.25001 11 1.25001H4ZM22.75 2.00001C22.75 1.5858 22.4142 1.25001 22 1.25001L17 1.25001C16.5858 1.25001 16.25 1.5858 16.25 2.00001C16.25 2.41422 16.5858 2.75001 17 2.75001L20.1893 2.75001L11.2197 11.7197C10.9268 12.0126 10.9268 12.4874 11.2197 12.7803C11.5126 13.0732 11.9874 13.0732 12.2803 12.7803L21.25 3.81067V6.50001C21.25 6.91423 21.5858 7.25001 22 7.25001C22.4142 7.25001 22.75 6.91423 22.75 6.50001V2.00001Z" fill="#767676"/>
</svg>
