<svg width="24" height="24" viewBox="0 0 24 24" fill="none" xmlns="http://www.w3.org/2000/svg">
<g clip-path="url(#clip0)">
<path fill-rule="evenodd" clip-rule="evenodd" d="M18.7502 -0.00602722C17.3578 -0.00602722 16.0225 0.547099 15.0379 1.53167L12.7879 3.78167L12.7865 3.78303C12.268 4.30423 11.8653 4.92901 11.6047 5.6165C11.3442 6.304 11.2317 7.03875 11.2745 7.77271C11.2986 8.18622 11.6534 8.50187 12.0669 8.47773C12.4805 8.45358 12.7961 8.0988 12.772 7.68529C12.7414 7.16203 12.8216 6.63822 13.0074 6.14809C13.193 5.65824 13.4799 5.21306 13.8493 4.84162L13.8499 4.84097L16.0986 2.59233C16.8018 1.88906 17.7557 1.49397 18.7502 1.49397C19.7448 1.49397 20.6986 1.88906 21.4019 2.59233C22.1052 3.2956 22.5003 4.24943 22.5003 5.244C22.5003 6.23857 22.1052 7.1924 21.4019 7.89567L19.1524 10.1452C18.7812 10.5157 18.336 10.8036 17.8459 10.9901C17.3558 11.1765 16.8318 11.2573 16.3083 11.2272C15.8948 11.2035 15.5403 11.5194 15.5165 11.9329C15.4927 12.3465 15.8086 12.701 16.2222 12.7248C16.9566 12.767 17.6917 12.6536 18.3793 12.392C19.0669 12.1304 19.6915 11.7265 20.2121 11.2068L20.2126 11.2063L22.4626 8.95633C23.4471 7.97176 24.0003 6.63639 24.0003 5.244C24.0003 3.85161 23.4471 2.51624 22.4626 1.53167C21.478 0.547099 20.1426 -0.00602722 18.7502 -0.00602722ZM17.7803 6.21867C18.0732 6.51156 18.0732 6.98644 17.7803 7.27933L7.28033 17.7793C6.98744 18.0722 6.51256 18.0722 6.21967 17.7793C5.92678 17.4864 5.92678 17.0116 6.21967 16.7187L16.7197 6.21867C17.0126 5.92578 17.4874 5.92578 17.7803 6.21867ZM5.62092 11.6049C6.30854 11.3433 7.04368 11.2299 7.77817 11.2722C8.1917 11.2961 8.50761 11.6506 8.48379 12.0641C8.45996 12.4777 8.10542 12.7936 7.69189 12.7698C7.16838 12.7396 6.64441 12.8204 6.1543 13.0069C5.6643 13.1933 5.2192 13.4811 4.84817 13.8515L4.84795 13.8517L2.59836 16.1013C1.89509 16.8046 1.5 17.7584 1.5 18.753C1.5 19.2455 1.597 19.7331 1.78545 20.1881C1.97391 20.643 2.25014 21.0564 2.59836 21.4047C2.94658 21.7529 3.35998 22.0291 3.81495 22.2176C4.26993 22.406 4.75757 22.503 5.25003 22.503C6.2446 22.503 7.19843 22.1079 7.9017 21.4047L10.1513 19.1551C10.5218 18.784 10.8097 18.3388 10.9962 17.8487C11.1826 17.3586 11.2634 16.8346 11.2333 16.3111C11.2094 15.8976 11.5254 15.5431 11.9389 15.5192C12.3524 15.4954 12.707 15.8113 12.7308 16.2249C12.7731 16.9593 12.6597 17.6945 12.3981 18.3821C12.1365 19.0697 11.7326 19.6943 11.2128 20.2149L11.2124 20.2153L8.96236 22.4653C7.97779 23.4499 6.64242 24.003 5.25003 24.003C4.56058 24.003 3.87789 23.8672 3.24093 23.6034C2.60397 23.3396 2.02521 22.9528 1.5377 22.4653C1.05019 21.9778 0.663473 21.3991 0.399635 20.7621C0.135796 20.1251 0 19.4424 0 18.753C0 17.3606 0.553126 16.0252 1.5377 15.0407L3.7877 12.7907L3.7881 12.7903C4.30872 12.2704 4.9333 11.8665 5.62092 11.6049Z" fill="#474445"/>
</g>
<defs>
<clipPath id="clip0">
<rect width="24" height="24" fill="white"/>
</clipPath>
</defs>
</svg>
