<svg width="24" height="25" viewBox="0 0 24 25" fill="none" xmlns="http://www.w3.org/2000/svg">
<path d="M6.75 17.255L17.25 6.75503" stroke="#71717A" stroke-width="1.5" stroke-linecap="round" stroke-linejoin="round"/>
<path d="M7.73503 12.027C7.10603 11.9908 6.47648 12.0879 5.88761 12.3119C5.29875 12.5359 4.76387 12.8819 4.31803 13.327L2.06803 15.577C1.22411 16.4209 0.75 17.5655 0.75 18.759C0.75 19.35 0.866397 19.9351 1.09254 20.4811C1.31869 21.0271 1.65016 21.5232 2.06803 21.941C2.48589 22.3589 2.98197 22.6904 3.52794 22.9165C4.07391 23.1427 4.65908 23.2591 5.25003 23.2591C6.44351 23.2591 7.58811 22.7849 8.43203 21.941L10.682 19.691C11.1272 19.2452 11.4731 18.7103 11.6972 18.1214C11.9183 17.5403 12.0157 16.9194 11.9834 16.2986" stroke="#71717A" stroke-width="1.5" stroke-linecap="round" stroke-linejoin="round"/>
<path d="M12.0232 7.73503C11.9865 7.10642 12.0829 6.47714 12.3061 5.88832C12.5292 5.29951 12.8741 4.76442 13.3182 4.31803L15.5682 2.06803C16.4122 1.22411 17.5568 0.75 18.7502 0.75C19.9437 0.75 21.0883 1.22411 21.9322 2.06803C22.7761 2.91195 23.2503 4.05655 23.2503 5.25003C23.2503 6.44351 22.7761 7.58811 21.9322 8.43203L19.6822 10.682C19.2363 11.1271 18.7015 11.473 18.1126 11.6971C17.6486 11.8736 17.1593 11.9713 16.6649 11.9871" stroke="#71717A" stroke-width="1.5" stroke-linecap="round" stroke-linejoin="round"/>
</svg>
