<svg width="24" height="24" viewBox="0 0 24 24" fill="none" xmlns="http://www.w3.org/2000/svg">
<g clip-path="url(#clip0_1199_105)">
<path d="M6.75 17.249L17.25 6.749" stroke="#767676" stroke-width="1.5" stroke-linecap="round" stroke-linejoin="round"/>
<path d="M7.73503 12.021C7.10603 11.9848 6.47648 12.0818 5.88761 12.3059C5.29875 12.5299 4.76387 12.8758 4.31803 13.321L2.06803 15.571C1.22411 16.4149 0.75 17.5595 0.75 18.753C0.75 19.344 0.866397 19.9291 1.09254 20.4751C1.31869 21.0211 1.65016 21.5171 2.06803 21.935C2.48589 22.3529 2.98197 22.6843 3.52794 22.9105C4.07391 23.1366 4.65908 23.253 5.25003 23.253C6.44351 23.253 7.58811 22.7789 8.43203 21.935L10.682 19.685C11.1272 19.2392 11.4731 18.7043 11.6972 18.1154C11.9183 17.5342 12.0157 16.9134 11.9834 16.2926" stroke="#767676" stroke-width="1.5" stroke-linecap="round" stroke-linejoin="round"/>
<path d="M12.0232 7.729C11.9865 7.10039 12.0829 6.47111 12.3061 5.8823C12.5292 5.29348 12.8741 4.75839 13.3182 4.312L15.5682 2.062C16.4122 1.21808 17.5568 0.743973 18.7502 0.743973C19.9437 0.743973 21.0883 1.21808 21.9322 2.062C22.7761 2.90592 23.2503 4.05052 23.2503 5.244C23.2503 6.43748 22.7761 7.58208 21.9322 8.426L19.6822 10.676C19.2363 11.1211 18.7015 11.467 18.1126 11.691C17.6486 11.8676 17.1593 11.9653 16.6649 11.9811" stroke="#767676" stroke-width="1.5" stroke-linecap="round" stroke-linejoin="round"/>
</g>
<defs>
<clipPath id="clip0_1199_105">
<rect width="24" height="24" fill="white"/>
</clipPath>
</defs>
</svg>
