<svg width="24" height="24" viewBox="0 0 24 24" fill="none" xmlns="http://www.w3.org/2000/svg">
<g clip-path="url(#clip0)">
<path fill-rule="evenodd" clip-rule="evenodd" d="M4.75 1.51099C4.15326 1.51099 3.58097 1.74804 3.15901 2.17C2.73705 2.59195 2.5 3.16425 2.5 3.76099V20.261C2.5 20.8577 2.73705 21.43 3.15901 21.852C3.58097 22.2739 4.15326 22.511 4.75 22.511H14.25V19C14.25 18.0054 14.6451 17.0516 15.3483 16.3483C16.0516 15.6451 17.0054 15.25 18 15.25H21.5V3.76099C21.5 3.16425 21.2629 2.59195 20.841 2.17C20.419 1.74804 19.8467 1.51099 19.25 1.51099H12.75V8.75C12.75 9.03405 12.5895 9.29373 12.3355 9.42078C12.0814 9.54784 11.7774 9.52048 11.5501 9.3501L9.0001 7.43843L6.45 9.351C6.22274 9.52145 5.91868 9.54886 5.66459 9.42182C5.4105 9.29478 5.25 9.03508 5.25 8.751V1.51099H4.75ZM6.75 1.51099V7.251L8.55 5.901C8.81662 5.70104 9.18321 5.701 9.44987 5.9009L11.25 7.2504V1.51099H6.75ZM15.8486 21.8527C15.8166 21.8847 15.7838 21.9156 15.75 21.9455V19C15.75 18.4033 15.9871 17.831 16.409 17.409C16.831 16.9871 17.4033 16.75 18 16.75H20.9433C20.9104 16.7875 20.8762 16.8241 20.8407 16.8596L20.8406 16.8597L15.8488 21.8525L15.8488 21.8525L15.8486 21.8527ZM2.09835 1.10934C2.80161 0.406075 3.75544 0.0109863 4.75 0.0109863H19.25C20.2446 0.0109863 21.1984 0.406074 21.9017 1.10934C22.6049 1.8126 23 2.76642 23 3.76099V15.269V15.2691C22.9998 16.2636 22.6046 17.2172 21.9014 17.9203L21.9013 17.9204L16.9094 22.9133L16.9092 22.9135C16.5608 23.2617 16.1472 23.5378 15.6921 23.7261C15.2371 23.9144 14.7494 24.0112 14.257 24.011H14.2567H4.75C3.75544 24.011 2.80161 23.6159 2.09835 22.9126C1.39509 22.2094 1 21.2555 1 20.261V3.76099C1 2.76642 1.39509 1.8126 2.09835 1.10934ZM6 18.25C5.58579 18.25 5.25 18.5858 5.25 19C5.25 19.4142 5.58579 19.75 6 19.75H10C10.4142 19.75 10.75 19.4142 10.75 19C10.75 18.5858 10.4142 18.25 10 18.25H6ZM5.25 14C5.25 13.5858 5.58579 13.25 6 13.25H14C14.4142 13.25 14.75 13.5858 14.75 14C14.75 14.4142 14.4142 14.75 14 14.75H6C5.58579 14.75 5.25 14.4142 5.25 14Z" fill="#474445"/>
</g>
<defs>
<clipPath id="clip0">
<rect width="24" height="24" fill="white"/>
</clipPath>
</defs>
</svg>
