<svg width="24" height="24" viewBox="0 0 24 24" fill="none" xmlns="http://www.w3.org/2000/svg">
<g clip-path="url(#clip0_964_37)">
<path fill-rule="evenodd" clip-rule="evenodd" d="M1.5 2.24701C1.5 1.8328 1.83579 1.49701 2.25 1.49701H21.75C22.1642 1.49701 22.5 1.8328 22.5 2.24701V8.24701C22.5 8.66122 22.1642 8.99701 21.75 8.99701H2.25C1.83579 8.99701 1.5 8.66122 1.5 8.24701V2.24701ZM2.25 -0.00299072C1.00736 -0.00299072 0 1.00437 0 2.24701V8.24701C0 9.48965 1.00736 10.497 2.25 10.497H21.75C22.9926 10.497 24 9.48965 24 8.24701V2.24701C24 1.00437 22.9926 -0.00299072 21.75 -0.00299072H2.25ZM1.5 15.747C1.5 15.3328 1.83579 14.997 2.25 14.997H21.75C22.1642 14.997 22.5 15.3328 22.5 15.747V21.747C22.5 22.1612 22.1642 22.497 21.75 22.497H2.25C1.83579 22.497 1.5 22.1612 1.5 21.747V15.747ZM2.25 13.497C1.00736 13.497 0 14.5044 0 15.747V21.747C0 22.9896 1.00736 23.997 2.25 23.997H21.75C22.9926 23.997 24 22.9896 24 21.747V15.747C24 14.5044 22.9926 13.497 21.75 13.497H2.25Z" fill="#767676"/>
</g>
<defs>
<clipPath id="clip0_964_37">
<rect width="24" height="24" fill="white"/>
</clipPath>
</defs>
</svg>
