<svg width="24" height="24" viewBox="0 0 24 24" fill="none" xmlns="http://www.w3.org/2000/svg">
<g clip-path="url(#clip0_964_37)">
<path d="M21.75 0.747009H2.25C1.42157 0.747009 0.75 1.41858 0.75 2.24701V8.24701C0.75 9.07544 1.42157 9.74701 2.25 9.74701H21.75C22.5784 9.74701 23.25 9.07544 23.25 8.24701V2.24701C23.25 1.41858 22.5784 0.747009 21.75 0.747009Z" stroke="#767676" stroke-width="1.5" stroke-linecap="round" stroke-linejoin="round"/>
<path d="M21.75 14.247H2.25C1.42157 14.247 0.75 14.9186 0.75 15.747V21.747C0.75 22.5754 1.42157 23.247 2.25 23.247H21.75C22.5784 23.247 23.25 22.5754 23.25 21.747V15.747C23.25 14.9186 22.5784 14.247 21.75 14.247Z" stroke="#767676" stroke-width="1.5" stroke-linecap="round" stroke-linejoin="round"/>
</g>
<defs>
<clipPath id="clip0_964_37">
<rect width="24" height="24" fill="white"/>
</clipPath>
</defs>
</svg>
