<svg width="24" height="24" viewBox="0 0 24 24" fill="none" xmlns="http://www.w3.org/2000/svg">
<path d="M2.25003 3.92302V11.537C2.25005 13.9437 2.97935 16.2938 4.34179 18.2777C5.70423 20.2615 7.63585 21.786 9.88203 22.65L10.923 23.05C11.6163 23.3167 12.3838 23.3167 13.077 23.05L14.118 22.65C16.3642 21.786 18.2958 20.2615 19.6583 18.2777C21.0207 16.2938 21.75 13.9437 21.75 11.537V3.92302C21.7519 3.6365 21.671 3.35553 21.5171 3.1139C21.3631 2.87228 21.1426 2.68028 20.882 2.56102C18.0819 1.33881 15.0552 0.721678 12 0.750018C8.94489 0.721678 5.9182 1.33881 3.11803 2.56102C2.85751 2.68028 2.63699 2.87228 2.48301 3.1139C2.32902 3.35553 2.24812 3.6365 2.25003 3.92302V3.92302Z" stroke="#767676" stroke-width="1.5" stroke-linecap="round" stroke-linejoin="round"/>
<path d="M15 9.75H9C8.17157 9.75 7.5 10.4216 7.5 11.25V15.75C7.5 16.5784 8.17157 17.25 9 17.25H15C15.8284 17.25 16.5 16.5784 16.5 15.75V11.25C16.5 10.4216 15.8284 9.75 15 9.75Z" stroke="#767676" stroke-width="1.5" stroke-linecap="round" stroke-linejoin="round"/>
<path d="M11 13.5H13" stroke="#767676" stroke-width="1.5" stroke-linecap="round" stroke-linejoin="round"/>
<path d="M9 9.75V8.25C9 7.45435 9.31607 6.69129 9.87868 6.12868C10.4413 5.56607 11.2044 5.25 12 5.25C12.7956 5.25 13.5587 5.56607 14.1213 6.12868C14.6839 6.69129 15 7.45435 15 8.25V9.75" stroke="#767676" stroke-width="1.5" stroke-linecap="round" stroke-linejoin="round"/>
</svg>
