<svg width="24" height="24" viewBox="0 0 24 24" fill="none" xmlns="http://www.w3.org/2000/svg">
<path fill-rule="evenodd" clip-rule="evenodd" d="M2.25 5.69484V18.5C2.25 18.9142 2.58579 19.25 3 19.25H21C21.4142 19.25 21.75 18.9142 21.75 18.5V5.69485L14.502 11.8362C14.493 11.8438 14.4838 11.8513 14.4744 11.8585C13.765 12.4042 12.8951 12.7001 12.0001 12.7001C11.1051 12.7001 10.2352 12.4042 9.52581 11.8585C9.51646 11.8513 9.50728 11.8438 9.49828 11.8362L2.25 5.69484ZM20.5448 4.75H3.45525L10.4536 10.6796C10.8983 11.0172 11.4415 11.2001 12.0001 11.2001C12.5588 11.2001 13.1019 11.0172 13.5466 10.6796L20.5448 4.75ZM3 3.25C1.75736 3.25 0.75 4.25736 0.75 5.5V18.5C0.75 19.7426 1.75736 20.75 3 20.75H21C22.2426 20.75 23.25 19.7426 23.25 18.5V5.5C23.25 4.25736 22.2426 3.25 21 3.25H3Z" fill="#767676"/>
</svg>
