<svg width="24" height="24" viewBox="0 0 24 24" fill="none" xmlns="http://www.w3.org/2000/svg">
<path d="M11 19V23" stroke="#71717A" stroke-width="1.5" stroke-linecap="round" stroke-linejoin="round"/>
<path d="M22 8H5.33333C4.44928 8 3.60143 8.33112 2.97631 8.92052C2.35119 9.50992 2 10.3093 2 11.1429V18.2143C2 18.4227 2.0878 18.6225 2.24408 18.7699C2.40036 18.9172 2.61232 19 2.83333 19H22V8Z" stroke="#71717A" stroke-width="1.5" stroke-linecap="round" stroke-linejoin="round"/>
<path d="M11 8V1" stroke="#71717A" stroke-width="1.5" stroke-linecap="round" stroke-linejoin="round"/>
<path d="M11 5L17 5L15.5 3L17 1L11 1" stroke="#71717A" stroke-width="1.5" stroke-linecap="round" stroke-linejoin="round"/>
<path d="M10.25 16C10.25 16.4142 10.5858 16.75 11 16.75C11.4142 16.75 11.75 16.4142 11.75 16H10.25ZM11 11V10.25C10.5858 10.25 10.25 10.5858 10.25 11H11ZM11 11.75H13V10.25H11V11.75ZM13.25 12V13H14.75V12H13.25ZM11.75 16V14H10.25V16H11.75ZM11.75 14V11H10.25V14H11.75ZM13 13.25H11V14.75H13V13.25ZM13.25 13C13.25 13.1381 13.1381 13.25 13 13.25V14.75C13.9665 14.75 14.75 13.9665 14.75 13H13.25ZM13 11.75C13.1381 11.75 13.25 11.8619 13.25 12H14.75C14.75 11.0335 13.9665 10.25 13 10.25V11.75Z" fill="#71717A"/>
</svg>
