<svg width="24" height="24" viewBox="0 0 24 24" fill="none" xmlns="http://www.w3.org/2000/svg">
<path fill-rule="evenodd" clip-rule="evenodd" d="M3 1.75C2.30964 1.75 1.75 2.30964 1.75 3C1.75 3.69036 2.30964 4.25 3 4.25C3.69036 4.25 4.25 3.69036 4.25 3C4.25 2.30964 3.69036 1.75 3 1.75ZM0.25 3C0.25 1.48122 1.48122 0.25 3 0.25C4.51878 0.25 5.75 1.48122 5.75 3C5.75 4.51878 4.51878 5.75 3 5.75C1.48122 5.75 0.25 4.51878 0.25 3ZM10.75 3C10.75 2.30964 11.3096 1.75 12 1.75C12.6904 1.75 13.25 2.30964 13.25 3C13.25 3.69036 12.6904 4.25 12 4.25C11.3096 4.25 10.75 3.69036 10.75 3ZM12 0.25C10.4812 0.25 9.25 1.48122 9.25 3C9.25 4.51878 10.4812 5.75 12 5.75C13.5188 5.75 14.75 4.51878 14.75 3C14.75 1.48122 13.5188 0.25 12 0.25ZM12.75 7.5C12.75 7.08579 12.4142 6.75 12 6.75C11.5858 6.75 11.25 7.08579 11.25 7.5V11.25H3.75V8C3.75 7.58579 3.41421 7.25 3 7.25C2.58579 7.25 2.25 7.58579 2.25 8V12V14.25V16C2.25 16.4142 2.58579 16.75 3 16.75C3.41421 16.75 3.75 16.4142 3.75 16V14.25V12.75H11.25V16C11.25 16.4142 11.5858 16.75 12 16.75C12.4142 16.75 12.75 16.4142 12.75 16V12.75H19.5C19.9142 12.75 20.25 13.0858 20.25 13.5V16C20.25 16.4142 20.5858 16.75 21 16.75C21.4142 16.75 21.75 16.4142 21.75 16V13.5C21.75 12.2574 20.7426 11.25 19.5 11.25H12.75V7.5ZM10.75 21C10.75 20.3096 11.3096 19.75 12 19.75C12.6904 19.75 13.25 20.3096 13.25 21C13.25 21.6904 12.6904 22.25 12 22.25C11.3096 22.25 10.75 21.6904 10.75 21ZM12 18.25C10.4812 18.25 9.25 19.4812 9.25 21C9.25 22.5188 10.4812 23.75 12 23.75C13.5188 23.75 14.75 22.5188 14.75 21C14.75 19.4812 13.5188 18.25 12 18.25ZM21 19.75C20.3096 19.75 19.75 20.3096 19.75 21C19.75 21.6904 20.3096 22.25 21 22.25C21.6904 22.25 22.25 21.6904 22.25 21C22.25 20.3096 21.6904 19.75 21 19.75ZM18.25 21C18.25 19.4812 19.4812 18.25 21 18.25C22.5188 18.25 23.75 19.4812 23.75 21C23.75 22.5188 22.5188 23.75 21 23.75C19.4812 23.75 18.25 22.5188 18.25 21ZM1.75 21C1.75 20.3096 2.30964 19.75 3 19.75C3.69036 19.75 4.25 20.3096 4.25 21C4.25 21.6904 3.69036 22.25 3 22.25C2.30964 22.25 1.75 21.6904 1.75 21ZM3 18.25C1.48122 18.25 0.25 19.4812 0.25 21C0.25 22.5188 1.48122 23.75 3 23.75C4.51878 23.75 5.75 22.5188 5.75 21C5.75 19.4812 4.51878 18.25 3 18.25Z" fill="#474445"/>
</svg>
