<svg width="24" height="24" viewBox="0 0 24 24" fill="none" xmlns="http://www.w3.org/2000/svg">
<path fill-rule="evenodd" clip-rule="evenodd" d="M21.551 4.64688L15.9859 2.42085V8.5353C15.9859 8.94951 15.6502 9.2853 15.2359 9.2853C14.8217 9.2853 14.4859 8.94951 14.4859 8.5353V2.42085L8.76373 4.70974V18.622L11.3463 17.5889C11.7309 17.4351 12.1674 17.6222 12.3212 18.0068C12.475 18.3913 12.288 18.8278 11.9034 18.9817L8.66366 20.2775C8.24644 20.4444 7.78101 20.4444 7.36379 20.2775L1.14157 17.7887C0.477169 17.5229 0.0415039 16.8794 0.0415039 16.1638V2.79011C0.0415039 1.55204 1.29192 0.705467 2.44144 1.16527L7.92088 3.35705C7.98048 3.38089 8.04697 3.38089 8.10657 3.35705L14.586 0.765272C15.0032 0.598384 15.4687 0.598384 15.8859 0.765272L22.1081 3.25416C22.7725 3.51992 23.2082 4.16341 23.2082 4.87899V9.25752C23.2082 9.67173 22.8724 10.0075 22.4582 10.0075C22.044 10.0075 21.7082 9.67173 21.7082 9.25752V4.87899C21.7082 4.77677 21.6459 4.68484 21.551 4.64688ZM7.26373 4.70974L1.88435 2.55799C1.72014 2.4923 1.5415 2.61324 1.5415 2.79011V16.1638C1.5415 16.266 1.60374 16.358 1.69866 16.3959L7.26373 18.622V4.70974ZM18.1248 11.8131C16.1458 11.8131 14.5415 13.4174 14.5415 15.3964C14.5415 15.8161 14.733 16.4383 15.1096 17.2033C15.4753 17.946 15.9727 18.7396 16.4875 19.4747C17.001 20.2079 17.5211 20.8677 17.9235 21.3408C17.9953 21.4252 18.0626 21.5028 18.1248 21.5732C18.1871 21.5028 18.2544 21.4252 18.3262 21.3408C18.7286 20.8677 19.2487 20.2079 19.7621 19.4747C20.277 18.7396 20.7744 17.946 21.1401 17.2033C21.5167 16.4383 21.7082 15.8161 21.7082 15.3964C21.7082 13.4174 20.1039 11.8131 18.1248 11.8131ZM13.0415 15.3964C13.0415 12.589 15.3174 10.3131 18.1248 10.3131C20.9323 10.3131 23.2082 12.589 23.2082 15.3964C23.2082 16.1734 22.8863 17.0523 22.4858 17.8658C22.0744 18.7016 21.5309 19.564 20.9908 20.3352C20.4492 21.1085 19.9002 21.8054 19.4688 22.3126C19.2539 22.5653 19.0624 22.7776 18.9118 22.9314C18.838 23.0066 18.7636 23.0786 18.6951 23.1366C18.6623 23.1642 18.6156 23.2019 18.561 23.2367C18.5339 23.254 18.4905 23.28 18.4352 23.3038C18.3913 23.3228 18.2772 23.3686 18.1248 23.3686C17.9725 23.3686 17.8584 23.3228 17.8145 23.3038C17.7592 23.28 17.7158 23.254 17.6887 23.2367C17.6341 23.2019 17.5874 23.1642 17.5546 23.1366C17.4861 23.0786 17.4116 23.0066 17.3379 22.9314C17.1873 22.7776 16.9958 22.5653 16.7809 22.3126C16.3495 21.8054 15.8004 21.1085 15.2589 20.3352C14.7187 19.564 14.1753 18.7016 13.7638 17.8658C13.3634 17.0523 13.0415 16.1734 13.0415 15.3964ZM19.5693 15.3964C19.5693 16.1942 18.9226 16.8409 18.1248 16.8409C17.3271 16.8409 16.6804 16.1942 16.6804 15.3964C16.6804 14.5987 17.3271 13.952 18.1248 13.952C18.9226 13.952 19.5693 14.5987 19.5693 15.3964Z" fill="#474445"/>
</svg>
