<svg width="24" height="24" viewBox="0 0 24 24" fill="none" xmlns="http://www.w3.org/2000/svg">
<g clip-path="url(#clip0_150:104)">
<path fill-rule="evenodd" clip-rule="evenodd" d="M21.0909 0.21967C20.798 -0.0732232 20.3231 -0.0732234 20.0302 0.21967C19.7373 0.512563 19.7373 0.987436 20.0302 1.28033L21.7499 3H5.25C4.65326 3 4.08097 3.23705 3.65901 3.65901C3.23705 4.08097 3 4.65326 3 5.25V21.7496L1.28022 20.0306C0.98727 19.7377 0.512396 19.7378 0.219563 20.0308C-0.0732714 20.3237 -0.0731752 20.7986 0.219777 21.0914L2.6895 23.5602L2.68978 23.5604C2.82902 23.6997 2.99433 23.8102 3.17625 23.8856C3.35118 23.9581 3.53819 23.9967 3.72738 23.9997C3.73489 23.9999 3.74243 24 3.75 24L3.76081 23.9999L3.77158 23.9997C3.96147 23.997 4.14919 23.9583 4.32475 23.8856C4.50672 23.8102 4.67206 23.6996 4.81133 23.5603L4.8115 23.5602L7.28033 21.0913C7.57322 20.7984 7.57322 20.3236 7.28033 20.0307C6.98744 19.7378 6.51256 19.7378 6.21967 20.0307L4.5 21.7503V5.25C4.5 5.05109 4.57902 4.86032 4.71967 4.71967C4.86032 4.57902 5.05109 4.5 5.25 4.5H21.7499L20.0302 6.21967C19.7373 6.51256 19.7373 6.98744 20.0302 7.28033C20.3231 7.57322 20.798 7.57322 21.0909 7.28033L23.5605 4.81071L23.5607 4.81052L23.5609 4.81033C23.7001 4.67118 23.8106 4.50598 23.886 4.32414C23.9615 4.14213 24.0003 3.94703 24.0003 3.75C24.0003 3.55297 23.9615 3.35787 23.886 3.17586C23.8106 2.99402 23.7001 2.82882 23.5609 2.68967L23.5608 2.68961L23.5605 2.68929L21.0909 0.21967ZM24 21.75C24 21.3358 23.6642 21 23.25 21C22.8358 21 22.5 21.3358 22.5 21.75C22.5 21.9489 22.421 22.1397 22.2803 22.2803C22.1397 22.421 21.9489 22.5 21.75 22.5C21.3358 22.5 21 22.8358 21 23.25C21 23.6642 21.3358 24 21.75 24C22.3467 24 22.919 23.7629 23.341 23.341C23.7629 22.919 24 22.3467 24 21.75ZM16.5 23.25C16.5 22.8358 16.8358 22.5 17.25 22.5H18.75C19.1642 22.5 19.5 22.8358 19.5 23.25C19.5 23.6642 19.1642 24 18.75 24H17.25C16.8358 24 16.5 23.6642 16.5 23.25ZM12.75 22.5C12.3358 22.5 12 22.8358 12 23.25C12 23.6642 12.3358 24 12.75 24H14.25C14.6642 24 15 23.6642 15 23.25C15 22.8358 14.6642 22.5 14.25 22.5H12.75ZM7.5 23.25C7.5 22.8358 7.83579 22.5 8.25 22.5H9.75C10.1642 22.5 10.5 22.8358 10.5 23.25C10.5 23.6642 10.1642 24 9.75 24H8.25C7.83579 24 7.5 23.6642 7.5 23.25ZM24 17.25C24 16.8358 23.6642 16.5 23.25 16.5C22.8358 16.5 22.5 16.8358 22.5 17.25V18.75C22.5 19.1642 22.8358 19.5 23.25 19.5C23.6642 19.5 24 19.1642 24 18.75V17.25ZM23.25 12C23.6642 12 24 12.3358 24 12.75V14.25C24 14.6642 23.6642 15 23.25 15C22.8358 15 22.5 14.6642 22.5 14.25V12.75C22.5 12.3358 22.8358 12 23.25 12ZM24 8.25C24 7.83579 23.6642 7.5 23.25 7.5C22.8358 7.5 22.5 7.83579 22.5 8.25V9.75C22.5 10.1642 22.8358 10.5 23.25 10.5C23.6642 10.5 24 10.1642 24 9.75V8.25Z" fill="#767676"/>
</g>
<defs>
<clipPath id="clip0_150:104">
<rect width="24" height="24" fill="white"/>
</clipPath>
</defs>
</svg>
