<svg width="24" height="24" viewBox="0 0 24 24" fill="none" xmlns="http://www.w3.org/2000/svg">
<path d="M20.5605 6.75L23.0305 4.28C23.1002 4.21044 23.1555 4.12782 23.1932 4.03688C23.2309 3.94593 23.2503 3.84845 23.2503 3.75C23.2503 3.65155 23.2309 3.55407 23.1932 3.46312C23.1555 3.37218 23.1002 3.28956 23.0305 3.22L20.6709 0.860352" stroke="#71717A" stroke-width="1.5" stroke-linecap="round" stroke-linejoin="round"/>
<path d="M3.75 23.25V5.25C3.75 4.85218 3.90804 4.47064 4.18934 4.18934C4.47064 3.90804 4.85218 3.75 5.25 3.75C5.25 3.75 16.7311 3.75 23 3.75" stroke="#71717A" stroke-width="1.5" stroke-linecap="round" stroke-linejoin="round"/>
<path d="M0.75 20.561L3.22 23.03C3.28965 23.0997 3.37235 23.155 3.46338 23.1927C3.5544 23.2304 3.65197 23.2498 3.7505 23.2498C3.84903 23.2498 3.9466 23.2304 4.03762 23.1927C4.12865 23.155 4.21135 23.0997 4.281 23.03L6.75 20.56" stroke="#71717A" stroke-width="1.5" stroke-linecap="round" stroke-linejoin="round"/>
<path d="M21.75 23.25C22.1478 23.25 22.5294 23.092 22.8107 22.8107C23.092 22.5294 23.25 22.1478 23.25 21.75" stroke="#71717A" stroke-width="1.5" stroke-linecap="round" stroke-linejoin="round"/>
<path d="M18.75 23.25H17.25" stroke="#71717A" stroke-width="1.5" stroke-linecap="round" stroke-linejoin="round"/>
<path d="M14.25 23.25H12.75" stroke="#71717A" stroke-width="1.5" stroke-linecap="round" stroke-linejoin="round"/>
<path d="M9.75 23.25H8.25" stroke="#71717A" stroke-width="1.5" stroke-linecap="round" stroke-linejoin="round"/>
<path d="M23.25 18.75V17.25" stroke="#71717A" stroke-width="1.5" stroke-linecap="round" stroke-linejoin="round"/>
<path d="M23.25 14.25V12.75" stroke="#71717A" stroke-width="1.5" stroke-linecap="round" stroke-linejoin="round"/>
<path d="M23.25 9.75V8.25" stroke="#71717A" stroke-width="1.5" stroke-linecap="round" stroke-linejoin="round"/>
</svg>
