<svg width="24" height="24" viewBox="0 0 24 24" fill="none" xmlns="http://www.w3.org/2000/svg">
<g clip-path="url(#clip0_1199:122)">
<path fill-rule="evenodd" clip-rule="evenodd" d="M1.71967 1.71967C1.86032 1.57902 2.05109 1.5 2.25 1.5H21.75C21.9489 1.5 22.1397 1.57902 22.2803 1.71967C22.421 1.86032 22.5 2.05109 22.5 2.25V17.25C22.5 17.4489 22.421 17.6397 22.2803 17.7803C22.1397 17.921 21.9489 18 21.75 18H11.25C11.0877 18 10.9298 18.0526 10.8 18.15L6 21.75V18.75C6 18.3358 5.66421 18 5.25 18H2.25C2.05109 18 1.86032 17.921 1.71967 17.7803C1.57902 17.6397 1.5 17.4489 1.5 17.25V2.25C1.5 2.05109 1.57902 1.86032 1.71967 1.71967ZM2.25 0C1.65326 0 1.08097 0.237053 0.65901 0.65901C0.237053 1.08097 0 1.65326 0 2.25V17.25C0 17.8467 0.237053 18.419 0.65901 18.841C1.08097 19.2629 1.65326 19.5 2.25 19.5H4.5V23.25C4.5 23.5341 4.6605 23.7938 4.91459 23.9208C5.16868 24.0479 5.47274 24.0204 5.7 23.85L11.5 19.5H21.75C22.3467 19.5 22.919 19.2629 23.341 18.841C23.7629 18.419 24 17.8467 24 17.25V2.25C24 1.65326 23.7629 1.08097 23.341 0.65901C22.919 0.237053 22.3467 0 21.75 0H2.25ZM7.62709 5.25049C7.06919 5.25049 6.52245 5.40684 6.0489 5.70181C5.57535 5.99678 5.19394 6.41856 4.94794 6.9193C4.7653 7.29107 4.91862 7.74051 5.29039 7.92315C5.66217 8.10579 6.11161 7.95247 6.29425 7.5807C6.41663 7.33159 6.60638 7.12176 6.84196 6.97501C7.07755 6.82827 7.34954 6.75049 7.62709 6.75049C7.90464 6.75049 8.17664 6.82827 8.41223 6.97501C8.64781 7.12176 8.83756 7.33159 8.95994 7.5807C9.14258 7.95247 9.59202 8.10579 9.96379 7.92315C10.3356 7.74051 10.4889 7.29107 10.3062 6.9193C10.0602 6.41856 9.67884 5.99678 9.20529 5.70181C8.73174 5.40684 8.185 5.25049 7.62709 5.25049ZM15.043 5.70181C15.5166 5.40684 16.0633 5.25049 16.6212 5.25049C17.1791 5.25049 17.7259 5.40684 18.1994 5.70181C18.673 5.99678 19.0544 6.41856 19.3004 6.9193C19.483 7.29107 19.3297 7.74051 18.9579 7.92315C18.5862 8.10579 18.1367 7.95247 17.9541 7.5807C17.8317 7.33159 17.642 7.12176 17.4064 6.97501C17.1708 6.82827 16.8988 6.75049 16.6212 6.75049C16.3437 6.75049 16.0717 6.82827 15.8361 6.97501C15.6005 7.12176 15.4108 7.33159 15.2884 7.5807C15.1057 7.95247 14.6563 8.10579 14.2845 7.92315C13.9128 7.74051 13.7594 7.29107 13.9421 6.9193C14.1881 6.41856 14.5695 5.99678 15.043 5.70181ZM8.75726 12.1958C8.45117 11.9167 7.9768 11.9386 7.69773 12.2447C7.41866 12.5508 7.44056 13.0252 7.74665 13.3042C8.94338 14.3953 10.5045 15.0002 12.124 15.0002C13.7434 15.0002 15.3045 14.3953 16.5013 13.3042C16.8074 13.0252 16.8293 12.5508 16.5502 12.2447C16.2711 11.9386 15.7967 11.9167 15.4906 12.1958C14.5702 13.035 13.3695 13.5002 12.124 13.5002C10.8784 13.5002 9.6777 13.035 8.75726 12.1958Z" fill="#767676"/>
</g>
<defs>
<clipPath id="clip0_1199:122">
<rect width="24" height="24" fill="white"/>
</clipPath>
</defs>
</svg>
