<svg width="24" height="24" viewBox="0 0 24 24" fill="none" xmlns="http://www.w3.org/2000/svg">
<g clip-path="url(#clip0)">
<path fill-rule="evenodd" clip-rule="evenodd" d="M1.71967 1.71967C1.86032 1.57902 2.05109 1.5 2.25 1.5H21.75C21.9489 1.5 22.1397 1.57902 22.2803 1.71967C22.421 1.86032 22.5 2.05109 22.5 2.25V17.25C22.5 17.4489 22.421 17.6397 22.2803 17.7803C22.1397 17.921 21.9489 18 21.75 18H11.25C11.0877 18 10.9298 18.0526 10.8 18.15L6 21.75V18.75C6 18.3358 5.66421 18 5.25 18H2.25C2.05109 18 1.86032 17.921 1.71967 17.7803C1.57902 17.6397 1.5 17.4489 1.5 17.25V2.25C1.5 2.05109 1.57902 1.86032 1.71967 1.71967ZM2.25 0C1.65326 0 1.08097 0.237053 0.65901 0.65901C0.237053 1.08097 0 1.65326 0 2.25V17.25C0 17.8467 0.237053 18.419 0.65901 18.841C1.08097 19.2629 1.65326 19.5 2.25 19.5H4.5V23.25C4.5 23.5341 4.6605 23.7938 4.91459 23.9208C5.16868 24.0479 5.47274 24.0204 5.7 23.85L11.5 19.5H21.75C22.3467 19.5 22.919 19.2629 23.341 18.841C23.7629 18.419 24 17.8467 24 17.25V2.25C24 1.65326 23.7629 1.08097 23.341 0.65901C22.919 0.237053 22.3467 0 21.75 0H2.25ZM6.5 11C7.32843 11 8 10.3284 8 9.5C8 8.67157 7.32843 8 6.5 8C5.67157 8 5 8.67157 5 9.5C5 10.3284 5.67157 11 6.5 11ZM13.5 9.5C13.5 10.3284 12.8284 11 12 11C11.1716 11 10.5 10.3284 10.5 9.5C10.5 8.67157 11.1716 8 12 8C12.8284 8 13.5 8.67157 13.5 9.5ZM17.5 11C18.3284 11 19 10.3284 19 9.5C19 8.67157 18.3284 8 17.5 8C16.6716 8 16 8.67157 16 9.5C16 10.3284 16.6716 11 17.5 11Z" fill="#474445"/>
</g>
<defs>
<clipPath id="clip0">
<rect width="24" height="24" fill="white"/>
</clipPath>
</defs>
</svg>
