<svg width="24" height="24" viewBox="0 0 24 24" fill="none" xmlns="http://www.w3.org/2000/svg">
<path d="M21.75 18.75H11.25L5.25 23.25V18.75H2.25C1.85218 18.75 1.47064 18.592 1.18934 18.3107C0.908035 18.0294 0.75 17.6478 0.75 17.25V2.25C0.75 1.85218 0.908035 1.47064 1.18934 1.18934C1.47064 0.908035 1.85218 0.75 2.25 0.75H21.75C22.1478 0.75 22.5294 0.908035 22.8107 1.18934C23.092 1.47064 23.25 1.85218 23.25 2.25V17.25C23.25 17.6478 23.092 18.0294 22.8107 18.3107C22.5294 18.592 22.1478 18.75 21.75 18.75Z" stroke="#71717A" stroke-width="1.5" stroke-linecap="round" stroke-linejoin="round"/>
<path d="M5 6H19" stroke="#71717A" stroke-width="1.5" stroke-linecap="round" stroke-linejoin="round"/>
<path d="M5 11H12" stroke="#71717A" stroke-width="1.5" stroke-linecap="round" stroke-linejoin="round"/>
</svg>
