<svg width="24" height="24" viewBox="0 0 24 24" fill="none" xmlns="http://www.w3.org/2000/svg">
<path d="M21.75 18.75H11.25L5.25 23.25V18.75H2.25C1.85217 18.75 1.47064 18.592 1.18934 18.3107C0.908035 18.0294 0.75 17.6478 0.75 17.25V2.25C0.75 1.85217 0.908035 1.47064 1.18934 1.18934C1.47064 0.908035 1.85217 0.75 2.25 0.75H21.75C22.1478 0.75 22.5294 0.908035 22.8107 1.18934C23.092 1.47064 23.25 1.85217 23.25 2.25V17.25C23.25 17.6478 23.092 18.0294 22.8107 18.3107C22.5294 18.592 22.1478 18.75 21.75 18.75Z" stroke="#71717A" stroke-width="1.5" stroke-linecap="round" stroke-linejoin="round"/>
<path d="M9.62196 7.22804C9.43749 6.86274 9.15618 6.55494 8.80856 6.33841C8.45399 6.11756 8.04462 6.00049 7.6269 6.00049C7.20917 6.00049 6.7998 6.11756 6.44523 6.33841C6.09761 6.55494 5.8163 6.86274 5.63184 7.22804" stroke="#71717A" stroke-width="1.5" stroke-linecap="round" stroke-linejoin="round"/>
<path d="M14.627 7.22737C14.8114 6.86236 15.0926 6.55481 15.44 6.33841C15.7946 6.11756 16.2039 6.00049 16.6217 6.00049C17.0394 6.00049 17.4488 6.11756 17.8033 6.33841C18.1507 6.55481 18.4319 6.86236 18.6164 7.22737" stroke="#71717A" stroke-width="1.5" stroke-linecap="round" stroke-linejoin="round"/>
<path d="M15.9753 12.7687C14.9195 13.722 13.5472 14.2502 12.1239 14.2502C10.7006 14.2502 9.32833 13.722 8.27246 12.7687" stroke="#71717A" stroke-width="1.5" stroke-linecap="round" stroke-linejoin="round"/>
</svg>
