<svg width="24" height="24" viewBox="0 0 24 24" fill="none" xmlns="http://www.w3.org/2000/svg">
<g clip-path="url(#clip0)">
<path d="M4.25 23.229L12.75 9.72901C12.8678 9.57572 13.0192 9.45155 13.1926 9.3661C13.366 9.28065 13.5567 9.23621 13.75 9.23621C13.9433 9.23621 14.134 9.28065 14.3074 9.3661C14.4808 9.45155 14.6322 9.57572 14.75 9.72901L23.25 23.229H4.25Z" stroke="#474445" stroke-width="1.5" stroke-linecap="round" stroke-linejoin="round"/>
<path d="M4.25 23.229H0.75L4.5 16.479L6.675 19.378" stroke="#474445" stroke-width="1.5" stroke-linecap="round" stroke-linejoin="round"/>
<path d="M8.7002 16.162L11.0482 18.135C11.2396 18.297 11.485 18.3812 11.7356 18.3709C11.9862 18.3605 12.2238 18.2563 12.4012 18.079L13.0432 17.436C13.2307 17.2485 13.485 17.1432 13.7502 17.1432C14.0154 17.1432 14.2697 17.2485 14.4572 17.436L15.0992 18.079C15.2766 18.2563 15.5142 18.3605 15.7648 18.3709C16.0154 18.3812 16.2607 18.297 16.4522 18.135L18.8002 16.162" stroke="#474445" stroke-width="1.5" stroke-linecap="round" stroke-linejoin="round"/>
<path d="M13.5 9.26701V0.729004" stroke="#474445" stroke-width="1.5" stroke-linecap="round" stroke-linejoin="round"/>
<path d="M13.5 0.729004H20.693C20.7912 0.729502 20.8872 0.757992 20.9697 0.811131C21.0522 0.864269 21.1179 0.939851 21.159 1.029C21.2013 1.11818 21.2179 1.21742 21.2067 1.3155C21.1956 1.41358 21.1572 1.50658 21.096 1.584L19.959 3.026C19.8857 3.11962 19.8459 3.2351 19.8459 3.354C19.8459 3.47291 19.8857 3.58839 19.959 3.682L21.1 5.126C21.1612 5.20363 21.1995 5.2968 21.2107 5.39503C21.2218 5.49326 21.2053 5.59265 21.163 5.682C21.122 5.77123 21.0564 5.84688 20.9738 5.90003C20.8912 5.95319 20.7952 5.98163 20.697 5.982H13.5" stroke="#474445" stroke-width="1.5" stroke-linecap="round" stroke-linejoin="round"/>
</g>
<defs>
<clipPath id="clip0">
<rect width="24" height="24" fill="white"/>
</clipPath>
</defs>
</svg>
