<svg width="24" height="24" viewBox="0 0 24 24" fill="none" xmlns="http://www.w3.org/2000/svg">
<g clip-path="url(#clip0_964_2)">
<path d="M4.25 23.229L3.61533 22.8294C3.46982 23.0605 3.46143 23.3524 3.59342 23.5915C3.7254 23.8306 3.97691 23.979 4.25 23.979V23.229ZM12.75 9.72901L12.1552 9.27212C12.1411 9.29058 12.1277 9.3097 12.1153 9.3294L12.75 9.72901ZM14.75 9.72901L15.3847 9.3294C15.3723 9.3097 15.359 9.29058 15.3448 9.27212L14.75 9.72901ZM23.25 23.229V23.979C23.5231 23.979 23.7746 23.8306 23.9066 23.5915C24.0386 23.3524 24.0302 23.0605 23.8847 22.8294L23.25 23.229ZM4.88467 23.6286L13.3847 10.1286L12.1153 9.3294L3.61533 22.8294L4.88467 23.6286ZM13.3448 10.1859C13.3925 10.1238 13.4539 10.0735 13.5241 10.0388L12.861 8.69335C12.5845 8.82963 12.343 9.02765 12.1552 9.27212L13.3448 10.1859ZM13.5241 10.0388C13.5944 10.0042 13.6717 9.98621 13.75 9.98621V8.48621C13.4417 8.48621 13.1376 8.55708 12.861 8.69335L13.5241 10.0388ZM13.75 9.98621C13.8283 9.98621 13.9056 10.0042 13.9759 10.0388L14.639 8.69335C14.3624 8.55708 14.0583 8.48621 13.75 8.48621V9.98621ZM13.9759 10.0388C14.0462 10.0735 14.1075 10.1238 14.1552 10.1859L15.3448 9.27212C15.157 9.02765 14.9155 8.82962 14.639 8.69335L13.9759 10.0388ZM14.1153 10.1286L22.6153 23.6286L23.8847 22.8294L15.3847 9.3294L14.1153 10.1286ZM23.25 22.479H4.25V23.979H23.25V22.479Z" fill="#767676"/>
<path d="M4.24999 23.979C4.66421 23.979 4.99999 23.6432 4.99999 23.229C4.99999 22.8148 4.66421 22.479 4.24999 22.479L4.24999 23.979ZM0.75 23.229L0.094382 22.8648C-0.0346727 23.0971 -0.0311672 23.3803 0.103597 23.6094C0.238361 23.8384 0.484261 23.979 0.750001 23.979L0.75 23.229ZM4.5 16.479L5.09993 16.0289C4.94742 15.8256 4.70236 15.7134 4.44883 15.7308C4.1953 15.7481 3.96779 15.8926 3.84438 16.1148L4.5 16.479ZM6.07507 19.8281C6.32366 20.1594 6.79377 20.2265 7.1251 19.9779C7.45643 19.7293 7.52351 19.2592 7.27493 18.9279L6.07507 19.8281ZM4.24999 22.479L0.749999 22.479L0.750001 23.979L4.24999 23.979L4.24999 22.479ZM1.40562 23.5932L5.15562 16.8432L3.84438 16.1148L0.094382 22.8648L1.40562 23.5932ZM3.90007 16.9291L6.07507 19.8281L7.27493 18.9279L5.09993 16.0289L3.90007 16.9291Z" fill="#767676"/>
<path d="M9.18269 15.5878C8.86557 15.3213 8.39247 15.3624 8.126 15.6795C7.85953 15.9966 7.90058 16.4697 8.2177 16.7362L9.18269 15.5878ZM11.0482 18.135L11.5327 17.5626L11.5307 17.5608L11.0482 18.135ZM12.4012 18.079L12.9314 18.6095L12.9319 18.6089L12.4012 18.079ZM13.0432 17.436L12.5129 16.9056L12.5125 16.9061L13.0432 17.436ZM14.4572 17.436L14.9879 16.9061L14.9874 16.9056L14.4572 17.436ZM15.0992 18.079L14.5685 18.6089L14.569 18.6095L15.0992 18.079ZM16.4522 18.135L15.9697 17.5608L15.9676 17.5626L16.4522 18.135ZM19.2827 16.7362C19.5998 16.4697 19.6409 15.9966 19.3744 15.6795C19.1079 15.3624 18.6348 15.3213 18.3177 15.5878L19.2827 16.7362ZM8.2177 16.7362L10.5657 18.7092L11.5307 17.5608L9.18269 15.5878L8.2177 16.7362ZM10.5636 18.7075C10.8987 18.9911 11.3281 19.1384 11.7666 19.1202L11.7046 17.6215C11.6419 17.6241 11.5806 17.6031 11.5327 17.5626L10.5636 18.7075ZM11.7666 19.1202C12.2052 19.1021 12.6209 18.9198 12.9314 18.6095L11.871 17.5486C11.8266 17.5929 11.7673 17.6189 11.7046 17.6215L11.7666 19.1202ZM12.9319 18.6089L13.5739 17.9659L12.5125 16.9061L11.8705 17.5491L12.9319 18.6089ZM13.5734 17.9664C13.6203 17.9196 13.6839 17.8932 13.7502 17.8932V16.3932C13.2862 16.3932 12.8411 16.5775 12.5129 16.9056L13.5734 17.9664ZM13.7502 17.8932C13.8165 17.8932 13.8801 17.9196 13.9269 17.9664L14.9874 16.9056C14.6593 16.5775 14.2142 16.3932 13.7502 16.3932V17.8932ZM13.9265 17.9659L14.5685 18.6089L15.6299 17.5491L14.9879 16.9061L13.9265 17.9659ZM14.569 18.6095C14.8795 18.9198 15.2952 19.1021 15.7338 19.1202L15.7958 17.6215C15.7331 17.6189 15.6737 17.5929 15.6294 17.5486L14.569 18.6095ZM15.7338 19.1202C16.1723 19.1384 16.6017 18.9911 16.9367 18.7075L15.9676 17.5626C15.9198 17.6031 15.8584 17.6241 15.7958 17.6215L15.7338 19.1202ZM16.9347 18.7092L19.2827 16.7362L18.3177 15.5878L15.9697 17.5608L16.9347 18.7092Z" fill="#767676"/>
<path d="M12.75 9.267C12.75 9.68122 13.0858 10.017 13.5 10.017C13.9142 10.017 14.25 9.68122 14.25 9.267H12.75ZM14.25 0.729004C14.25 0.31479 13.9142 -0.0209961 13.5 -0.0209961C13.0858 -0.0209961 12.75 0.31479 12.75 0.729004H14.25ZM14.25 9.267V0.729004H12.75V9.267H14.25Z" fill="#767676"/>
<path d="M13.5 -0.0209961C13.0858 -0.0209961 12.75 0.31479 12.75 0.729004C12.75 1.14322 13.0858 1.479 13.5 1.479V-0.0209961ZM20.693 0.729004L20.6968 -0.0209961H20.693V0.729004ZM21.159 1.029L20.4778 1.34297L20.4814 1.35059L21.159 1.029ZM21.096 1.584L20.5078 1.11873L20.5071 1.11963L21.096 1.584ZM19.959 3.026L19.3701 2.56163L19.3685 2.5636L19.959 3.026ZM19.959 3.682L19.3685 4.14441L19.3705 4.14699L19.959 3.682ZM21.1 5.126L21.6889 4.66158L21.6885 4.66102L21.1 5.126ZM21.163 5.682L20.4851 5.3611L20.4815 5.3689L21.163 5.682ZM20.697 5.982V6.73201L20.6999 6.732L20.697 5.982ZM13.5 5.232C13.0858 5.232 12.75 5.56779 12.75 5.982C12.75 6.39622 13.0858 6.732 13.5 6.732V5.232ZM13.5 1.479H20.693V-0.0209961H13.5V1.479ZM20.6892 1.47899C20.6447 1.47877 20.6011 1.46585 20.5637 1.44175L21.3757 0.180511C21.1732 0.0501363 20.9377 -0.0197644 20.6968 -0.0209864L20.6892 1.47899ZM20.5637 1.44175C20.5263 1.41765 20.4965 1.38338 20.4779 1.34295L21.8401 0.71506C21.7393 0.496326 21.5782 0.310887 21.3757 0.180511L20.5637 1.44175ZM20.4814 1.35059C20.4638 1.31334 20.4569 1.27188 20.4615 1.2309L21.9519 1.40009C21.9789 1.16296 21.9389 0.923022 21.8366 0.707415L20.4814 1.35059ZM20.4615 1.2309C20.4662 1.18993 20.4822 1.15108 20.5078 1.11873L21.6842 2.04928C21.8323 1.86209 21.925 1.63722 21.9519 1.40009L20.4615 1.2309ZM20.5071 1.11963L19.3701 2.56163L20.5479 3.49038L21.6849 2.04838L20.5071 1.11963ZM19.3685 2.5636C19.1918 2.7892 19.0959 3.06747 19.0959 3.354H20.5959C20.5959 3.40273 20.5795 3.45005 20.5495 3.48841L19.3685 2.5636ZM19.0959 3.354C19.0959 3.64054 19.1918 3.91881 19.3685 4.14441L20.5495 3.2196C20.5795 3.25796 20.5959 3.30528 20.5959 3.354H19.0959ZM19.3705 4.14699L20.5115 5.59099L21.6885 4.66102L20.5475 3.21702L19.3705 4.14699ZM20.5111 5.59043C20.4858 5.55841 20.47 5.51998 20.4654 5.47947L21.9559 5.31059C21.9291 5.07362 21.8366 4.84885 21.6889 4.66158L20.5111 5.59043ZM20.4654 5.47947C20.4609 5.43897 20.4677 5.39797 20.4851 5.36112L21.8409 6.00289C21.9429 5.78733 21.9828 5.54756 21.9559 5.31059L20.4654 5.47947ZM20.4815 5.3689C20.5002 5.32818 20.5301 5.29367 20.5678 5.26941L21.3798 6.53065C21.5826 6.4001 21.7438 6.21428 21.8445 5.99511L20.4815 5.3689ZM20.5678 5.26941C20.6055 5.24516 20.6493 5.23218 20.6941 5.23201L20.6999 6.732C20.9411 6.73107 21.177 6.66121 21.3798 6.53065L20.5678 5.26941ZM20.697 5.232H13.5V6.732H20.697V5.232Z" fill="#767676"/>
</g>
<defs>
<clipPath id="clip0_964_2">
<rect width="24" height="24" fill="white"/>
</clipPath>
</defs>
</svg>
