<svg width="32" height="32" viewBox="0 0 32 32" fill="none" xmlns="http://www.w3.org/2000/svg">
<path fill-rule="evenodd" clip-rule="evenodd" d="M6.35876 4.35876C7.24956 3.46796 7.75 2.25978 7.75 1C7.75 0.585786 7.41421 0.25 7 0.25C6.58579 0.25 6.25 0.585786 6.25 1C6.25 1.86195 5.90759 2.6886 5.2981 3.2981C4.6886 3.90759 3.86195 4.25 3 4.25C2.27065 4.25 1.57118 4.53973 1.05546 5.05546C0.539731 5.57118 0.25 6.27065 0.25 7C0.25 7.41421 0.585786 7.75 1 7.75C1.41421 7.75 1.75 7.41421 1.75 7C1.75 6.66848 1.8817 6.35054 2.11612 6.11612C2.35054 5.8817 2.66848 5.75 3 5.75C4.25978 5.75 5.46796 5.24956 6.35876 4.35876ZM30.4697 0.46967C30.7626 0.176777 31.2374 0.176777 31.5303 0.46967C31.8232 0.762563 31.8232 1.23744 31.5303 1.53033L1.53033 31.5303C1.23744 31.8232 0.762563 31.8232 0.46967 31.5303C0.176777 31.2374 0.176777 30.7626 0.46967 30.4697L30.4697 0.46967ZM1.75 12.3333C1.75 11.9191 1.41421 11.5833 1 11.5833C0.585786 11.5833 0.25 11.9191 0.25 12.3333V20.3333C0.25 20.7475 0.585786 21.0833 1 21.0833C1.41421 21.0833 1.75 20.7475 1.75 20.3333V12.3333ZM4.25 12.3333C4.25 11.9191 4.58579 11.5833 5 11.5833H15C15.4142 11.5833 15.75 11.9191 15.75 12.3333C15.75 12.7475 15.4142 13.0833 15 13.0833H5.75V19.5833H7C7.41421 19.5833 7.75 19.9191 7.75 20.3333C7.75 20.7475 7.41421 21.0833 7 21.0833H5C4.58579 21.0833 4.25 20.7475 4.25 20.3333V12.3333ZM23.917 12.3333C23.917 11.9191 24.2528 11.5833 24.667 11.5833H29.0003C29.7297 11.5833 30.4291 11.873 30.9449 12.3888C31.4606 12.9045 31.7503 13.604 31.7503 14.3333V18.3333C31.7503 19.0627 31.4606 19.7621 30.9449 20.2779C30.4291 20.7936 29.7297 21.0833 29.0003 21.0833H16.667C16.2528 21.0833 15.917 20.7475 15.917 20.3333C15.917 19.9191 16.2528 19.5833 16.667 19.5833H29.0003C29.3318 19.5833 29.6498 19.4516 29.8842 19.2172C30.1186 18.9828 30.2503 18.6648 30.2503 18.3333V14.3333C30.2503 14.0018 30.1186 13.6839 29.8842 13.4494C29.6498 13.215 29.3318 13.0833 29.0003 13.0833H24.667C24.2528 13.0833 23.917 12.7475 23.917 12.3333Z" fill="#474445"/>
</svg>
