<svg width="32" height="32" viewBox="0 0 32 32" fill="none" xmlns="http://www.w3.org/2000/svg">
<path d="M24.667 12.3333H29.0003C29.5308 12.3333 30.0395 12.544 30.4145 12.9191C30.7896 13.2942 31.0003 13.8029 31.0003 14.3333V18.3333C31.0003 18.8637 30.7896 19.3725 30.4145 19.7475C30.0395 20.1226 29.5308 20.3333 29.0003 20.3333H16.667" stroke="#474445" stroke-width="1.5" stroke-linecap="round" stroke-linejoin="round"/>
<path d="M7 20.3333H5V12.3333H15" stroke="#474445" stroke-width="1.5" stroke-linecap="round" stroke-linejoin="round"/>
<path d="M1 12.3333V20.3333" stroke="#474445" stroke-width="1.5" stroke-linecap="round" stroke-linejoin="round"/>
<path d="M1 31L31 1" stroke="#474445" stroke-width="1.5" stroke-linecap="round" stroke-linejoin="round"/>
<path d="M7 1C7 2.06087 6.57857 3.07828 5.82843 3.82843C5.07828 4.57857 4.06087 5 3 5C2.46957 5 1.96086 5.21071 1.58579 5.58579C1.21071 5.96086 1 6.46957 1 7" stroke="#474445" stroke-width="1.5" stroke-linecap="round" stroke-linejoin="round"/>
</svg>
