<svg width="24" height="24" viewBox="0 0 24 24" fill="none" xmlns="http://www.w3.org/2000/svg">
<path d="M12 23.25C18.2132 23.25 23.25 18.2132 23.25 12C23.25 5.7868 18.2132 0.75 12 0.75C5.7868 0.75 0.75 5.7868 0.75 12C0.75 18.2132 5.7868 23.25 12 23.25Z" stroke="#474445" stroke-width="1.5" stroke-miterlimit="10"/>
<path fill-rule="evenodd" clip-rule="evenodd" d="M15.035 12.3767C15.2142 12.6209 15.3034 12.932 15.3034 13.3091C15.3034 13.8387 15.1495 14.2518 14.8416 14.5518C14.5338 14.85 14.1209 14.9991 13.6023 14.9991H11.1001C10.9872 14.9991 10.9012 14.9666 10.842 14.9023C10.7828 14.8372 10.7536 14.7429 10.7536 14.6195V9.38052C10.7536 9.25625 10.7828 9.16198 10.842 9.0977C10.9012 9.03257 10.9872 9 11.1001 9H13.4405C13.9283 9 14.3285 9.13712 14.6403 9.40966C14.9545 9.6839 15.1108 10.0644 15.1108 10.5546C15.1108 10.8803 15.0366 11.1545 14.8882 11.3739C14.7382 11.5942 14.533 11.751 14.2725 11.8479C14.6001 11.9541 14.8542 12.1307 15.0342 12.3758L15.035 12.3767ZM8.6018 9.0977C8.661 9.03342 8.74625 9.00086 8.85992 9.00086H9.37536C9.48824 9.00086 9.57428 9.03342 9.63348 9.0977C9.69268 9.16283 9.72189 9.25711 9.72189 9.38052V14.6195C9.72189 14.7438 9.69189 14.838 9.63269 14.9023C9.57349 14.9674 9.48745 15 9.37457 15H8.68153C8.50234 15 8.36342 14.9143 8.26633 14.7463L7.12651 12.7015C6.71052 11.9696 6.39004 11.3671 6.1635 10.8932C6.19507 11.5873 6.21086 12.3612 6.21086 13.2174V14.6195C6.21086 14.7438 6.18087 14.838 6.12167 14.9023C6.06167 14.9674 5.97564 15 5.86276 15H5.34731C5.23365 15 5.14761 14.9674 5.08841 14.9032C5.02921 14.838 5 14.7438 5 14.6203V9.38137C5 9.25711 5.02921 9.16283 5.08841 9.09856C5.14761 9.03342 5.23365 9.00086 5.34652 9.00086H6.06957C6.16192 9.00086 6.24007 9.02057 6.30401 9.06085C6.36873 9.09941 6.42635 9.16369 6.47766 9.25454L7.73273 11.5016C8.11714 12.1838 8.38789 12.6818 8.54102 12.9971C8.5205 12.4624 8.50945 11.7716 8.50945 10.9274V9.38137C8.50945 9.25711 8.53944 9.16283 8.59864 9.09856L8.6018 9.0977ZM13.1248 11.3568H11.9929V10.0387H13.1327C13.6458 10.0387 13.9023 10.2504 13.9023 10.6729C13.9023 10.8872 13.8368 11.0543 13.7026 11.1768C13.5684 11.2968 13.3774 11.3568 13.1248 11.3568ZM13.8257 13.7616C13.9796 13.6288 14.0562 13.4385 14.0562 13.1908C14.0562 12.9492 13.9796 12.7589 13.8257 12.6209C13.6718 12.4838 13.4429 12.4135 13.1406 12.4135H11.9929V13.9596H13.1406C13.4429 13.9596 13.6718 13.8936 13.8257 13.7625V13.7616ZM20 9.37966C20 9.25625 19.9708 9.16198 19.9116 9.09684H19.9132C19.854 9.03257 19.7679 9 19.6543 9H16.4132C16.3003 9 16.2143 9.03257 16.1551 9.0977C16.0959 9.16198 16.0667 9.25625 16.0667 9.38052V14.6195C16.0667 14.7429 16.0959 14.8372 16.1551 14.9023C16.2143 14.9666 16.3003 14.9991 16.4132 14.9991H16.9673C17.0802 14.9991 17.1662 14.9666 17.2254 14.9014C17.2846 14.8372 17.3146 14.7429 17.3146 14.6186V12.6423H19.4617C19.5745 12.6423 19.6606 12.6106 19.7198 12.5455C19.779 12.4804 19.8082 12.3861 19.8082 12.2627V11.8736C19.8082 11.7502 19.779 11.655 19.7198 11.5908C19.6606 11.5256 19.5745 11.4931 19.4609 11.4931H17.3138V10.1493H19.6535C19.7663 10.1493 19.8524 10.1167 19.9116 10.0516C19.9708 9.98729 20 9.89302 20 9.76875V9.37966Z" fill="#474445"/>
</svg>
