<svg width="24" height="24" viewBox="0 0 24 24" fill="none" xmlns="http://www.w3.org/2000/svg">
<path d="M12 23.25C18.2132 23.25 23.25 18.2132 23.25 12C23.25 5.7868 18.2132 0.75 12 0.75C5.7868 0.75 0.75 5.7868 0.75 12C0.75 18.2132 5.7868 23.25 12 23.25Z" stroke="#71717A" stroke-width="1.5" stroke-miterlimit="10"/>
<path d="M8.6018 9.0977C8.661 9.03342 8.74625 9.00085 8.85992 9.00085H9.37536C9.48824 9.00085 9.57428 9.03342 9.63348 9.0977C9.69268 9.16283 9.72189 9.2571 9.72189 9.38051V14.6195C9.72189 14.7437 9.69189 14.838 9.63269 14.9023C9.57349 14.9674 9.48745 15 9.37457 15H8.68153C8.50234 15 8.36342 14.9143 8.26633 14.7463L7.12651 12.7015C6.71052 11.9696 6.39004 11.3671 6.1635 10.8932C6.19507 11.5873 6.21086 12.3612 6.21086 13.2174V14.6195C6.21086 14.7437 6.18087 14.838 6.12167 14.9023C6.06167 14.9674 5.97564 15 5.86276 15H5.34731C5.23365 15 5.14761 14.9674 5.08841 14.9032C5.02921 14.838 5 14.7437 5 14.6203V9.38137C5 9.2571 5.02921 9.16283 5.08841 9.09855C5.14761 9.03342 5.23365 9.00085 5.34652 9.00085H6.06957C6.16192 9.00085 6.24007 9.02057 6.30401 9.06085C6.36873 9.09941 6.42635 9.16369 6.47766 9.25453L7.73273 11.5016C8.11714 12.1838 8.38789 12.6818 8.54102 12.9971C8.5205 12.4624 8.50945 11.7716 8.50945 10.9274V9.38137C8.50945 9.2571 8.53944 9.16283 8.59864 9.09855L8.6018 9.0977Z" fill="#71717A"/>
<path fill-rule="evenodd" clip-rule="evenodd" d="M15.0348 12.3767C15.214 12.6209 15.3032 12.932 15.3032 13.3091C15.3032 13.8387 15.1493 14.2518 14.8415 14.5518C14.5336 14.85 14.1208 14.9991 13.6022 14.9991H11.0999C10.9871 14.9991 10.901 14.9666 10.8418 14.9023C10.7826 14.8372 10.7534 14.7429 10.7534 14.6195V9.38052C10.7534 9.25625 10.7826 9.16198 10.8418 9.0977C10.901 9.03257 10.9871 9 11.0999 9H13.4404C13.9282 9 14.3284 9.13712 14.6402 9.40966C14.9543 9.6839 15.1106 10.0644 15.1106 10.5546C15.1106 10.8803 15.0364 11.1545 14.888 11.3739C14.7381 11.5942 14.5328 11.751 14.2723 11.8479C14.5999 11.9541 14.8541 12.1307 15.0341 12.3758L15.0348 12.3767ZM11.9927 11.3568H13.1246C13.3772 11.3568 13.5682 11.2968 13.7024 11.1768C13.8366 11.0543 13.9021 10.8871 13.9021 10.6729C13.9021 10.2504 13.6456 10.0387 13.1325 10.0387H11.9927V11.3568ZM14.056 13.1908C14.056 13.4385 13.9795 13.6288 13.8255 13.7616C13.6716 13.8927 13.4427 13.9596 13.1404 13.9596H11.9927V12.4135H13.1404C13.4427 12.4135 13.6716 12.4838 13.8255 12.6209C13.9795 12.7589 14.056 12.9492 14.056 13.1908Z" fill="#71717A"/>
<path d="M19.9118 9.09684C19.971 9.16198 20.0002 9.25625 20.0002 9.37966V9.76875C20.0002 9.89302 19.971 9.98729 19.9118 10.0516C19.8526 10.1167 19.7666 10.1493 19.6537 10.1493H17.3141V11.4931H19.4611C19.5748 11.4931 19.6608 11.5256 19.72 11.5908C19.7792 11.655 19.8084 11.7502 19.8084 11.8736V12.2627C19.8084 12.3861 19.7792 12.4804 19.72 12.5455C19.6608 12.6106 19.5748 12.6423 19.4619 12.6423H17.3149V14.6186C17.3149 14.7429 17.2849 14.8372 17.2257 14.9014C17.1665 14.9666 17.0804 14.9991 16.9675 14.9991H16.4134C16.3005 14.9991 16.2145 14.9666 16.1553 14.9023C16.0961 14.8372 16.0669 14.7429 16.0669 14.6195V9.38052C16.0669 9.25625 16.0961 9.16198 16.1553 9.0977C16.2145 9.03257 16.3005 9 16.4134 9H19.6545C19.7682 9 19.8542 9.03257 19.9134 9.09684H19.9118Z" fill="#71717A"/>
</svg>
