<svg width="24" height="24" viewBox="0 0 24 24" fill="none" xmlns="http://www.w3.org/2000/svg">
<path fill-rule="evenodd" clip-rule="evenodd" d="M1.5 12C1.5 6.20101 6.20101 1.5 12 1.5C17.799 1.5 22.5 6.20101 22.5 12C22.5 17.799 17.799 22.5 12 22.5C6.20101 22.5 1.5 17.799 1.5 12ZM12 0C5.37258 0 0 5.37258 0 12C0 18.6274 5.37258 24 12 24C18.6274 24 24 18.6274 24 12C24 5.37258 18.6274 0 12 0ZM15.3034 13.3091C15.3034 12.932 15.2142 12.6209 15.035 12.3767L15.0342 12.3758C14.8542 12.1307 14.6001 11.9541 14.2725 11.8479C14.533 11.751 14.7382 11.5942 14.8882 11.3739C15.0366 11.1545 15.1108 10.8803 15.1108 10.5546C15.1108 10.0644 14.9545 9.6839 14.6403 9.40966C14.3285 9.13712 13.9283 9 13.4405 9H11.1001C10.9872 9 10.9012 9.03257 10.842 9.0977C10.7828 9.16198 10.7536 9.25625 10.7536 9.38052V14.6195C10.7536 14.7429 10.7828 14.8372 10.842 14.9023C10.9012 14.9666 10.9872 14.9991 11.1001 14.9991H13.6023C14.1209 14.9991 14.5338 14.85 14.8416 14.5518C15.1495 14.2518 15.3034 13.8387 15.3034 13.3091ZM8.85992 9.00086C8.74625 9.00086 8.661 9.03342 8.6018 9.0977L8.59864 9.09856C8.53944 9.16283 8.50945 9.25711 8.50945 9.38137V10.9274C8.50945 11.7716 8.5205 12.4624 8.54102 12.9971C8.38789 12.6818 8.11714 12.1838 7.73273 11.5016L6.47766 9.25453C6.42635 9.16369 6.36873 9.09941 6.30401 9.06085C6.24007 9.02057 6.16192 9.00086 6.06957 9.00086H5.34652C5.23365 9.00086 5.14761 9.03342 5.08841 9.09856C5.02921 9.16283 5 9.25711 5 9.38137V14.6203C5 14.7438 5.02921 14.838 5.08841 14.9032C5.14761 14.9674 5.23365 15 5.34731 15H5.86276C5.97564 15 6.06168 14.9674 6.12167 14.9023C6.18087 14.838 6.21086 14.7438 6.21086 14.6195V13.2174C6.21086 12.3612 6.19508 11.5873 6.1635 10.8932C6.39004 11.3671 6.71052 11.9696 7.12651 12.7015L8.26633 14.7463C8.36342 14.9143 8.50234 15 8.68153 15H9.37457C9.48745 15 9.57349 14.9674 9.63269 14.9023C9.69189 14.838 9.72189 14.7438 9.72189 14.6195V9.38052C9.72189 9.25711 9.69268 9.16283 9.63348 9.0977C9.57428 9.03342 9.48824 9.00086 9.37536 9.00086H8.85992ZM11.9929 11.3568H13.1248C13.3774 11.3568 13.5684 11.2968 13.7026 11.1768C13.8368 11.0543 13.9023 10.8872 13.9023 10.6729C13.9023 10.2504 13.6458 10.0387 13.1327 10.0387H11.9929V11.3568ZM14.0562 13.1908C14.0562 13.4385 13.9796 13.6288 13.8257 13.7616V13.7625C13.6718 13.8936 13.4429 13.9596 13.1406 13.9596H11.9929V12.4135H13.1406C13.4429 12.4135 13.6718 12.4838 13.8257 12.6209C13.9796 12.7589 14.0562 12.9492 14.0562 13.1908ZM19.9116 9.09684C19.9708 9.16198 20 9.25625 20 9.37966V9.76875C20 9.89301 19.9708 9.98729 19.9116 10.0516C19.8524 10.1167 19.7663 10.1493 19.6535 10.1493H17.3138V11.4931H19.4609C19.5745 11.4931 19.6606 11.5256 19.7198 11.5908C19.779 11.655 19.8082 11.7502 19.8082 11.8736V12.2627C19.8082 12.3861 19.779 12.4804 19.7198 12.5455C19.6606 12.6106 19.5745 12.6423 19.4617 12.6423H17.3146V14.6186C17.3146 14.7429 17.2846 14.8372 17.2254 14.9014C17.1662 14.9666 17.0802 14.9991 16.9673 14.9991H16.4132C16.3003 14.9991 16.2143 14.9666 16.1551 14.9023C16.0959 14.8372 16.0667 14.7429 16.0667 14.6195V9.38052C16.0667 9.25625 16.0959 9.16198 16.1551 9.0977C16.2143 9.03257 16.3003 9 16.4132 9H19.6543C19.7679 9 19.854 9.03257 19.9132 9.09684H19.9116Z" fill="#767676"/>
</svg>
