<svg width="24" height="24" viewBox="0 0 24 24" fill="none" xmlns="http://www.w3.org/2000/svg">
<path d="M1 22V12.5C1 12.2239 1.22386 12 1.5 12L22.5003 12C22.7764 12 23.0003 12.2239 23.0003 12.5V14.5" stroke="#71717A" stroke-width="1.5" stroke-linecap="round" stroke-linejoin="round"/>
<path d="M18 12V9.5C18 9.22386 18.2239 9 18.5 9L20.5 9C20.7761 9 21 9.22386 21 9.5V11.5" stroke="#71717A" stroke-width="1.5" stroke-linecap="round" stroke-linejoin="round"/>
<path d="M13 15V21.5C13 21.7761 13.2239 22 13.5 22H22.5C22.7761 22 23 21.7761 23 21.5V14.5" stroke="#71717A" stroke-width="1.5" stroke-linecap="round" stroke-linejoin="round"/>
<path d="M13 18H23" stroke="#71717A" stroke-width="1.5" stroke-linecap="round" stroke-linejoin="round"/>
<path d="M1 15H23" stroke="#71717A" stroke-width="1.5" stroke-linecap="round" stroke-linejoin="round"/>
<path d="M11.75 2H4.25C3.55964 2 3 2.53726 3 3.2V7.8C3 8.46274 3.55964 9 4.25 9H11.75C12.4404 9 13 8.46274 13 7.8V3.2C13 2.53726 12.4404 2 11.75 2Z" stroke="#71717A" stroke-width="1.5" stroke-linecap="round" stroke-linejoin="round"/>
<path d="M8 9V12" stroke="#71717A" stroke-width="1.5" stroke-linecap="round" stroke-linejoin="round"/>
</svg>
