<svg width="24" height="24" viewBox="0 0 24 24" fill="none" xmlns="http://www.w3.org/2000/svg">
<path fill-rule="evenodd" clip-rule="evenodd" d="M12 1.5C6.20101 1.5 1.5 6.20101 1.5 12C1.5 17.799 6.20101 22.5 12 22.5C17.799 22.5 22.5 17.799 22.5 12C22.5 6.20101 17.799 1.5 12 1.5ZM0 12C0 5.37258 5.37258 0 12 0C18.6274 0 24 5.37258 24 12C24 18.6274 18.6274 24 12 24C5.37258 24 0 18.6274 0 12ZM9.75 8.25C9.75 7.83579 10.0858 7.5 10.5 7.5H12.75C13.5456 7.5 14.3087 7.81607 14.8713 8.37868C15.4339 8.94129 15.75 9.70435 15.75 10.5C15.75 11.2956 15.4339 12.0587 14.8713 12.6213C14.3087 13.1839 13.5456 13.5 12.75 13.5H11.25V17.25C11.25 17.6642 10.9142 18 10.5 18C10.0858 18 9.75 17.6642 9.75 17.25V12.75V8.25ZM11.25 9V12H12.75C13.1478 12 13.5294 11.842 13.8107 11.5607C14.092 11.2794 14.25 10.8978 14.25 10.5C14.25 10.1022 14.092 9.72064 13.8107 9.43934C13.5294 9.15804 13.1478 9 12.75 9H11.25Z" fill="#767676"/>
</svg>
