<svg width="24" height="24" viewBox="0 0 24 24" fill="none" xmlns="http://www.w3.org/2000/svg">
<g clip-path="url(#clip0_1312_555)">
<path fill-rule="evenodd" clip-rule="evenodd" d="M9.00977 1.25C9.00977 0.835786 8.67398 0.5 8.25977 0.5C7.84555 0.5 7.50977 0.835786 7.50977 1.25V2.11619C6.92768 2.30104 6.43417 2.69148 6.06878 3.17868C5.55523 3.86341 5.25977 4.77499 5.25977 5.75C5.25977 6.72501 5.55523 7.63659 6.06878 8.32132C6.5825 9.00628 7.34945 9.5 8.25977 9.5C9.17008 9.5 9.93703 9.00628 10.4508 8.32132C10.9643 7.63659 11.2598 6.72501 11.2598 5.75C11.2598 4.77499 10.9643 3.86341 10.4508 3.17868C10.0854 2.69148 9.59185 2.30104 9.00977 2.11619V1.25ZM8.25977 3.5C7.92744 3.5 7.56939 3.67786 7.26878 4.07868C6.96798 4.47973 6.75977 5.06816 6.75977 5.75C6.75977 6.43184 6.96798 7.02027 7.26878 7.42132C7.56939 7.82214 7.92744 8 8.25977 8C8.59209 8 8.95014 7.82214 9.25076 7.42132C9.55155 7.02027 9.75977 6.43184 9.75977 5.75C9.75977 5.06816 9.55155 4.47973 9.25076 4.07868C8.95014 3.67786 8.59209 3.5 8.25977 3.5ZM9.18782 11.0317C10.0402 10.5204 11.0156 10.2503 12.0096 10.2503C13.0036 10.2503 13.979 10.5204 14.8314 11.0317C15.4849 11.4181 16.0408 11.9498 16.456 12.5855C16.8703 13.2197 17.1334 13.9405 17.2253 14.6924C17.2575 14.9174 17.3429 15.1314 17.4743 15.3169C17.6069 15.5039 17.7824 15.6563 17.9862 15.7614L17.9875 15.762C18.8656 16.2167 19.5549 16.967 19.9337 17.8805C20.3124 18.794 20.3563 19.8119 20.0576 20.7546L20.0537 20.7666L20.0536 20.7666C19.8242 21.4506 19.4272 22.0662 18.8989 22.5575C18.3727 23.0469 17.7328 23.3974 17.0371 23.5774C16.3364 23.7726 15.6 23.8028 14.8855 23.6657C14.1687 23.528 13.4937 23.2256 12.9138 22.7824C12.6538 22.5847 12.3362 22.4777 12.0096 22.4777C11.683 22.4777 11.3655 22.5847 11.1055 22.7823C10.5256 23.2256 9.85052 23.528 9.13366 23.6657C8.41923 23.8028 7.68277 23.7726 6.98206 23.5774C6.2864 23.3974 5.64652 23.0469 5.12028 22.5575C4.59199 22.0662 4.19503 21.4506 3.96555 20.7666L3.96154 20.7546L3.96165 20.7546C3.66289 19.8119 3.70677 18.794 4.08553 17.8805C4.46429 16.967 5.15359 16.2167 6.03175 15.762L6.033 15.7614C6.23678 15.6563 6.41234 15.5039 6.5449 15.3169C6.67633 15.1314 6.76168 14.9174 6.79394 14.6925C6.88574 13.9406 7.1489 13.2197 7.56318 12.5855C7.9784 11.9498 8.53428 11.4181 9.18782 11.0317ZM16.4816 14.79L15.737 14.8797C15.6736 14.3537 15.4899 13.8493 15.2002 13.4057C14.9104 12.9621 14.5224 12.5912 14.0662 12.3218L14.0615 12.319L14.0615 12.319C13.4418 11.9469 12.7325 11.7503 12.0096 11.7503C11.2867 11.7503 10.5774 11.9469 9.95769 12.319L9.95301 12.3218L9.953 12.3218C9.49679 12.5912 9.10877 12.9621 8.81902 13.4057C8.52927 13.8493 8.34559 14.3537 8.28222 14.8797L8.28057 14.8934L8.28044 14.8934C8.21571 15.3585 8.0402 15.8012 7.76867 16.1843C7.49731 16.5671 7.13798 16.8792 6.72091 17.0943C6.15701 17.3865 5.71439 17.8684 5.47114 18.455C5.22861 19.0399 5.19981 19.6915 5.38966 20.2954C5.53984 20.7398 5.79832 21.1397 6.1418 21.4591C6.48682 21.78 6.90664 22.0095 7.36303 22.1266L7.37914 22.1309C7.85829 22.2653 8.36212 22.2864 8.85082 22.1926C9.33953 22.0987 9.79972 21.8925 10.195 21.5903L10.1964 21.5892C10.7176 21.1925 11.3546 20.9777 12.0096 20.9777C12.6646 20.9777 13.3016 21.1925 13.8228 21.5892L13.8242 21.5903C14.2195 21.8925 14.6797 22.0987 15.1684 22.1926C15.6571 22.2864 16.1609 22.2653 16.6401 22.1309L16.6562 22.1266C17.1126 22.0095 17.5324 21.78 17.8774 21.4591C18.2209 21.1397 18.4794 20.7397 18.6295 20.2954C18.8194 19.6915 18.7906 19.0399 18.5481 18.455C18.3048 17.8684 17.8622 17.3865 17.2984 17.0944C16.8813 16.8793 16.5219 16.5672 16.2505 16.1843C15.979 15.8012 15.8035 15.3585 15.7388 14.8934L16.4816 14.79ZM1.50977 11.75C1.50977 11.0682 1.71798 10.4797 2.01878 10.0787C2.31939 9.67786 2.67744 9.5 3.00977 9.5C3.34209 9.5 3.70014 9.67786 4.00076 10.0787C4.30155 10.4797 4.50977 11.0682 4.50977 11.75C4.50977 12.4318 4.30155 13.0203 4.00076 13.4213C3.70014 13.8221 3.34209 14 3.00977 14C2.67744 14 2.31939 13.8221 2.01878 13.4213C1.71798 13.0203 1.50977 12.4318 1.50977 11.75ZM0.818775 9.17868C1.18417 8.69148 1.67768 8.30104 2.25977 8.11619V7.25C2.25977 6.83579 2.59555 6.5 3.00977 6.5C3.42398 6.5 3.75977 6.83579 3.75977 7.25V8.11619C4.34185 8.30104 4.83536 8.69148 5.20076 9.17868C5.7143 9.86341 6.00977 10.775 6.00977 11.75C6.00977 12.725 5.7143 13.6366 5.20076 14.3213C4.68703 15.0063 3.92008 15.5 3.00977 15.5C2.09945 15.5 1.3325 15.0063 0.818775 14.3213C0.305227 13.6366 0.00976562 12.725 0.00976562 11.75C0.00976562 10.775 0.305227 9.86341 0.818775 9.17868ZM14.7688 4.07868C14.468 4.47973 14.2598 5.06816 14.2598 5.75C14.2598 6.43184 14.468 7.02027 14.7688 7.42132C15.0694 7.82214 15.4274 8 15.7598 8C16.0921 8 16.4501 7.82214 16.7508 7.42132C17.0515 7.02027 17.2598 6.43184 17.2598 5.75C17.2598 5.06816 17.0515 4.47973 16.7508 4.07868C16.4501 3.67786 16.0921 3.5 15.7598 3.5C15.4274 3.5 15.0694 3.67786 14.7688 4.07868ZM16.5098 1.25V2.11619C17.0919 2.30104 17.5854 2.69148 17.9508 3.17868C18.4643 3.86341 18.7598 4.77499 18.7598 5.75C18.7598 6.72501 18.4643 7.63659 17.9508 8.32132C17.437 9.00628 16.6701 9.5 15.7598 9.5C14.8494 9.5 14.0825 9.00628 13.5688 8.32132C13.0552 7.63659 12.7598 6.72501 12.7598 5.75C12.7598 4.77499 13.0552 3.86341 13.5688 3.17868C13.9342 2.69148 14.4277 2.30104 15.0098 2.11619V1.25C15.0098 0.835786 15.3456 0.5 15.7598 0.5C16.174 0.5 16.5098 0.835786 16.5098 1.25ZM19.5098 11.75C19.5098 11.0682 19.718 10.4797 20.0188 10.0787C20.3194 9.67786 20.6774 9.5 21.0098 9.5C21.3421 9.5 21.7001 9.67786 22.0008 10.0787C22.3015 10.4797 22.5098 11.0682 22.5098 11.75C22.5098 12.4318 22.3015 13.0203 22.0008 13.4213C21.7001 13.8221 21.3421 14 21.0098 14C20.6774 14 20.3194 13.8221 20.0188 13.4213C19.718 13.0203 19.5098 12.4318 19.5098 11.75ZM20.2598 8.11619C19.6777 8.30104 19.1842 8.69148 18.8188 9.17868C18.3052 9.86341 18.0098 10.775 18.0098 11.75C18.0098 12.725 18.3052 13.6366 18.8188 14.3213C19.3325 15.0063 20.0994 15.5 21.0098 15.5C21.9201 15.5 22.687 15.0063 23.2008 14.3213C23.7143 13.6366 24.0098 12.725 24.0098 11.75C24.0098 10.775 23.7143 9.86341 23.2008 9.17868C22.8354 8.69148 22.3419 8.30104 21.7598 8.11619V7.25C21.7598 6.83579 21.424 6.5 21.0098 6.5C20.5956 6.5 20.2598 6.83579 20.2598 7.25V8.11619Z" fill="#767676"/>
</g>
<defs>
<clipPath id="clip0_1312_555">
<rect width="24" height="24" fill="white"/>
</clipPath>
</defs>
</svg>
