<svg width="25" height="24" viewBox="0 0 25 24" fill="none" xmlns="http://www.w3.org/2000/svg">
<path d="M16.4816 14.79C16.4044 14.1496 16.1808 13.5356 15.8281 12.9956C15.4754 12.4556 15.003 12.004 14.4476 11.676C13.7112 11.2339 12.8685 11.0003 12.0096 11.0003C11.1507 11.0003 10.308 11.2339 9.5716 11.676C9.01621 12.004 8.54384 12.4556 8.1911 12.9956C7.83837 13.5356 7.61475 14.1496 7.5376 14.79C7.48943 15.1361 7.35883 15.4655 7.15679 15.7506C6.95475 16.0356 6.68717 16.268 6.3766 16.428C5.65544 16.8014 5.08938 17.4176 4.77833 18.1678C4.46729 18.9179 4.43126 19.7539 4.6766 20.528C4.86627 21.0934 5.19438 21.6022 5.63104 22.0083C6.06769 22.4144 6.59901 22.7048 7.1766 22.853C7.76773 23.0188 8.38931 23.0449 8.99224 22.9291C9.59517 22.8134 10.1629 22.559 10.6506 22.186C11.0413 21.8887 11.5187 21.7277 12.0096 21.7277C12.5005 21.7277 12.9779 21.8887 13.3686 22.186C13.8563 22.559 14.424 22.8134 15.027 22.9291C15.6299 23.0449 16.2515 23.0188 16.8426 22.853C17.4202 22.7048 17.9515 22.4144 18.3882 22.0083C18.8248 21.6022 19.1529 21.0934 19.3426 20.528C19.5879 19.7539 19.5519 18.9179 19.2409 18.1678C18.9298 17.4176 18.3638 16.8014 17.6426 16.428C17.332 16.268 17.0645 16.0356 16.8624 15.7506C16.6604 15.4655 16.5298 15.1361 16.4816 14.79V14.79Z" stroke="#71717A" stroke-width="1.5" stroke-linecap="round" stroke-linejoin="round"/>
<path d="M8.25977 8.75C9.50241 8.75 10.5098 7.40685 10.5098 5.75C10.5098 4.09315 9.50241 2.75 8.25977 2.75C7.01712 2.75 6.00977 4.09315 6.00977 5.75C6.00977 7.40685 7.01712 8.75 8.25977 8.75Z" stroke="#71717A" stroke-width="1.5" stroke-linecap="round" stroke-linejoin="round"/>
<path d="M3.00977 14.75C4.25241 14.75 5.25977 13.4069 5.25977 11.75C5.25977 10.0931 4.25241 8.75 3.00977 8.75C1.76712 8.75 0.759766 10.0931 0.759766 11.75C0.759766 13.4069 1.76712 14.75 3.00977 14.75Z" stroke="#71717A" stroke-width="1.5" stroke-linecap="round" stroke-linejoin="round"/>
<path d="M15.7598 8.75C17.0024 8.75 18.0098 7.40685 18.0098 5.75C18.0098 4.09315 17.0024 2.75 15.7598 2.75C14.5171 2.75 13.5098 4.09315 13.5098 5.75C13.5098 7.40685 14.5171 8.75 15.7598 8.75Z" stroke="#71717A" stroke-width="1.5" stroke-linecap="round" stroke-linejoin="round"/>
<path d="M21.0098 14.75C22.2524 14.75 23.2598 13.4069 23.2598 11.75C23.2598 10.0931 22.2524 8.75 21.0098 8.75C19.7671 8.75 18.7598 10.0931 18.7598 11.75C18.7598 13.4069 19.7671 14.75 21.0098 14.75Z" stroke="#71717A" stroke-width="1.5" stroke-linecap="round" stroke-linejoin="round"/>
<path d="M3.00977 8.75V7.25" stroke="#71717A" stroke-width="1.5" stroke-linecap="round" stroke-linejoin="round"/>
<path d="M8.25977 2.75V1.25" stroke="#71717A" stroke-width="1.5" stroke-linecap="round" stroke-linejoin="round"/>
<path d="M15.7598 2.75V1.25" stroke="#71717A" stroke-width="1.5" stroke-linecap="round" stroke-linejoin="round"/>
<path d="M21.0098 8.75V7.25" stroke="#71717A" stroke-width="1.5" stroke-linecap="round" stroke-linejoin="round"/>
</svg>
