<svg width="24" height="24" viewBox="0 0 24 24" fill="none" xmlns="http://www.w3.org/2000/svg">
<rect x="5" y="1" width="14" height="22" rx="2" stroke="#71717A" stroke-width="1.5"/>
<path d="M5 18.25C4.58579 18.25 4.25 18.5858 4.25 19C4.25 19.4142 4.58579 19.75 5 19.75V18.25ZM19 19.75C19.4142 19.75 19.75 19.4142 19.75 19C19.75 18.5858 19.4142 18.25 19 18.25V19.75ZM19 18.25H5V19.75H19V18.25Z" fill="#71717A"/>
<path d="M4.37723 13.0705C4.01922 12.8622 3.56011 12.9835 3.35177 13.3415C3.14344 13.6995 3.26477 14.1586 3.62277 14.367L4.37723 13.0705ZM6.12277 15.8218C6.48078 16.0301 6.93989 15.9088 7.14823 15.5508C7.35656 15.1928 7.23523 14.7337 6.87723 14.5254L6.12277 15.8218ZM3.62277 14.367L6.12277 15.8218L6.87723 14.5254L4.37723 13.0705L3.62277 14.367Z" fill="#71717A"/>
<path d="M4.37723 10.0705C4.01922 9.86219 3.56011 9.98352 3.35177 10.3415C3.14344 10.6995 3.26477 11.1586 3.62277 11.367L4.37723 10.0705ZM6.12277 12.8218C6.48078 13.0301 6.93989 12.9088 7.14823 12.5508C7.35656 12.1928 7.23523 11.7337 6.87723 11.5254L6.12277 12.8218ZM3.62277 11.367L6.12277 12.8218L6.87723 11.5254L4.37723 10.0705L3.62277 11.367Z" fill="#71717A"/>
<path d="M18.3772 5.07052C18.0192 4.86219 17.5601 4.98352 17.3518 5.34152C17.1434 5.69953 17.2648 6.15864 17.6228 6.36698L18.3772 5.07052ZM20.1228 7.82181C20.4808 8.03015 20.9399 7.90882 21.1482 7.55081C21.3566 7.1928 21.2352 6.73369 20.8772 6.52536L20.1228 7.82181ZM17.6228 6.36698L20.1228 7.82181L20.8772 6.52536L18.3772 5.07052L17.6228 6.36698Z" fill="#71717A"/>
</svg>
