<svg width="24" height="24" viewBox="0 0 24 24" fill="none" xmlns="http://www.w3.org/2000/svg">
<path fill-rule="evenodd" clip-rule="evenodd" d="M5.00098 3.75C5.00098 2.50736 6.00834 1.5 7.25098 1.5H16.751C17.9936 1.5 19.001 2.50736 19.001 3.75V17.25H5.00098V3.75ZM5.00098 18.75V20.25C5.00098 21.4926 6.00834 22.5 7.25098 22.5H16.751C17.9936 22.5 19.001 21.4926 19.001 20.25V18.75H5.00098ZM7.25098 0C5.17991 0 3.50098 1.67893 3.50098 3.75V20.25C3.50098 22.3211 5.17991 24 7.25098 24H16.751C18.822 24 20.501 22.3211 20.501 20.25V3.75C20.501 1.67893 18.822 0 16.751 0H7.25098Z" fill="#767676"/>
</svg>
