<svg width="24" height="24" viewBox="0 0 24 24" fill="none" xmlns="http://www.w3.org/2000/svg">
<rect x="5" y="1" width="14" height="22" rx="2" stroke="#767676" stroke-width="1.5"/>
<path d="M5 18.25C4.58579 18.25 4.25 18.5858 4.25 19C4.25 19.4142 4.58579 19.75 5 19.75V18.25ZM19 19.75C19.4142 19.75 19.75 19.4142 19.75 19C19.75 18.5858 19.4142 18.25 19 18.25V19.75ZM19 18.25H5V19.75H19V18.25Z" fill="#767676"/>
<path d="M14.3772 6.07052C14.0192 5.86219 13.5601 5.98352 13.3518 6.34152C13.1434 6.69953 13.2648 7.15864 13.6228 7.36698L14.3772 6.07052ZM14.8728 8.0944C15.2308 8.30273 15.6899 8.1814 15.8982 7.82339C16.1066 7.46539 15.9852 7.00627 15.6272 6.79794L14.8728 8.0944ZM13.6228 7.36698L14.8728 8.0944L15.6272 6.79794L14.3772 6.07052L13.6228 7.36698Z" fill="#767676"/>
<path d="M14.3772 3.07052C14.0192 2.86219 13.5601 2.98352 13.3518 3.34152C13.1434 3.69953 13.2648 4.15864 13.6228 4.36698L14.3772 3.07052ZM16.1228 5.82181C16.4808 6.03015 16.9399 5.90882 17.1482 5.55081C17.3566 5.1928 17.2352 4.73369 16.8772 4.52536L16.1228 5.82181ZM13.6228 4.36698L16.1228 5.82181L16.8772 4.52536L14.3772 3.07052L13.6228 4.36698Z" fill="#767676"/>
<path d="M8.37723 13.0705C8.01922 12.8622 7.56011 12.9835 7.35177 13.3415C7.14344 13.6995 7.26477 14.1586 7.62277 14.367L8.37723 13.0705ZM10.1228 15.8218C10.4808 16.0301 10.9399 15.9088 11.1482 15.5508C11.3566 15.1928 11.2352 14.7337 10.8772 14.5254L10.1228 15.8218ZM7.62277 14.367L10.1228 15.8218L10.8772 14.5254L8.37723 13.0705L7.62277 14.367Z" fill="#767676"/>
</svg>
