<svg width="24" height="24" viewBox="0 0 24 24" fill="none" xmlns="http://www.w3.org/2000/svg">
<g clip-path="url(#clip0_964_36)">
<path d="M12 10.5C13.6569 10.5 15 9.15685 15 7.5C15 5.84315 13.6569 4.5 12 4.5C10.3431 4.5 9 5.84315 9 7.5C9 9.15685 10.3431 10.5 12 10.5Z" stroke="#767676" stroke-width="1.5" stroke-linecap="round" stroke-linejoin="round"/>
<path d="M12 0.75C13.7902 0.75 15.5071 1.46116 16.773 2.72703C18.0388 3.9929 18.75 5.70979 18.75 7.5C18.75 10.751 13.618 18.027 12.304 19.837C12.269 19.8847 12.2232 19.9236 12.1704 19.9503C12.1176 19.9771 12.0592 19.991 12 19.991C11.9408 19.991 11.8824 19.9771 11.8296 19.9503C11.7768 19.9236 11.731 19.8847 11.696 19.837C10.382 18.027 5.25 10.751 5.25 7.5C5.25 5.70979 5.96116 3.9929 7.22703 2.72703C8.4929 1.46116 10.2098 0.75 12 0.75V0.75Z" stroke="#767676" stroke-width="1.5" stroke-linecap="round" stroke-linejoin="round"/>
<path d="M18.1316 17.8148C20.7774 18.3589 22.5 19.2471 22.5 20.25C22.5 21.907 17.8 23.25 12 23.25C6.2 23.25 1.5 21.907 1.5 20.25C1.5 19.2472 3.22129 18.3595 5.86292 17.8148" stroke="#767676" stroke-width="1.5" stroke-linecap="round" stroke-linejoin="round"/>
</g>
<defs>
<clipPath id="clip0_964_36">
<rect width="24" height="24" fill="white"/>
</clipPath>
</defs>
</svg>
