<svg width="24" height="24" viewBox="0 0 24 24" fill="none" xmlns="http://www.w3.org/2000/svg">
<path d="M12 1V0.25V1ZM20 9.63966H19.25H20ZM13.3736 22.2996L12.7774 21.8447L12.777 21.8452L13.3736 22.2996ZM10.6276 22.2996L11.2242 21.8452L11.2236 21.8445L10.6276 22.2996ZM12 1.75C13.9034 1.75 15.7417 2.56605 17.1065 4.04007L18.2072 3.02093C16.5715 1.25444 14.3401 0.25 12 0.25V1.75ZM17.1065 4.04007C18.4732 5.51602 19.25 7.52937 19.25 9.63966H20.75C20.75 7.16719 19.8411 4.78548 18.2072 3.02093L17.1065 4.04007ZM19.25 9.63966C19.25 10.3809 19.017 11.322 18.5888 12.403C18.1648 13.4735 17.5705 14.6299 16.8962 15.7863C15.5479 18.0989 13.9122 20.3573 12.7774 21.8447L13.9699 22.7546C15.1212 21.2456 16.7988 18.9314 18.1921 16.5418C18.8886 15.3471 19.5222 14.1199 19.9834 12.9554C20.4405 11.8013 20.75 10.6558 20.75 9.63966H19.25ZM12.777 21.8452C12.6761 21.9777 12.5529 22.0797 12.419 22.148L13.1006 23.4842C13.4416 23.3103 13.7377 23.0595 13.9703 22.7541L12.777 21.8452ZM12.419 22.148C12.2855 22.2161 12.1428 22.25 12.0006 22.25V23.75C12.3834 23.75 12.7593 23.6583 13.1006 23.4842L12.419 22.148ZM12.0006 22.25C11.8583 22.25 11.7157 22.2161 11.5821 22.148L10.9006 23.4842C11.2419 23.6583 11.6177 23.75 12.0006 23.75V22.25ZM11.5821 22.148C11.4483 22.0797 11.3251 21.9777 11.2242 21.8452L10.0309 22.7541C10.2635 23.0595 10.5596 23.3103 10.9006 23.4842L11.5821 22.148ZM11.2236 21.8445C10.0889 20.3585 8.45301 18.1001 7.10435 15.7872C6.42996 14.6307 5.83544 13.4741 5.41135 12.4034C4.98309 11.3222 4.75 10.3809 4.75 9.63966H3.25C3.25 10.6558 3.55957 11.8015 4.01676 12.9558C4.47811 14.1205 5.11182 15.3479 5.80854 16.5428C7.2021 18.9327 8.88 21.247 10.0315 22.7548L11.2236 21.8445ZM4.75 9.63966C4.75 7.52937 5.52678 5.51602 6.89346 4.04007L5.79284 3.02093C4.15893 4.78548 3.25 7.16719 3.25 9.63966H4.75ZM6.89346 4.04007C8.25834 2.56605 10.0966 1.75 12 1.75V0.25C9.65993 0.25 7.42854 1.25444 5.79284 3.02093L6.89346 4.04007Z" fill="#71717A"/>
<path d="M14.25 9C14.25 10.2426 13.2426 11.25 12 11.25V12.75C14.0711 12.75 15.75 11.0711 15.75 9H14.25ZM12 11.25C10.7574 11.25 9.75 10.2426 9.75 9H8.25C8.25 11.0711 9.92893 12.75 12 12.75V11.25ZM9.75 9C9.75 7.75736 10.7574 6.75 12 6.75V5.25C9.92893 5.25 8.25 6.92893 8.25 9H9.75ZM12 6.75C13.2426 6.75 14.25 7.75736 14.25 9H15.75C15.75 6.92893 14.0711 5.25 12 5.25V6.75Z" fill="#71717A"/>
</svg>
