<svg width="24" height="24" viewBox="0 0 24 24" fill="none" xmlns="http://www.w3.org/2000/svg">
<path fill-rule="evenodd" clip-rule="evenodd" d="M12 1.5C10.4087 1.5 8.88258 2.13214 7.75736 3.25736C6.63214 4.38258 6 5.9087 6 7.5C6 8.15274 6.26787 9.0997 6.76149 10.2486C7.24569 11.3755 7.91089 12.616 8.62611 13.8276C9.86804 15.9314 11.2353 17.9052 12 18.9757C12.7647 17.9052 14.132 15.9314 15.3739 13.8276C16.0891 12.616 16.7543 11.3755 17.2385 10.2486C17.7321 9.0997 18 8.15274 18 7.5C18 5.9087 17.3679 4.38258 16.2426 3.25736C15.1174 2.13214 13.5913 1.5 12 1.5ZM6.6967 2.1967C8.10322 0.790176 10.0109 0 12 0C13.9891 0 15.8968 0.790176 17.3033 2.1967C18.7098 3.60322 19.5 5.51088 19.5 7.5C19.5 8.47276 19.1264 9.65443 18.6167 10.8407C18.0976 12.0489 17.3976 13.3501 16.6656 14.5901C15.2007 17.0716 13.5734 19.3651 12.9109 20.2776L12.9088 20.2806C12.8041 20.4233 12.6673 20.5393 12.5094 20.6193C12.3515 20.6993 12.177 20.741 12 20.741C11.823 20.741 11.6485 20.6993 11.4906 20.6193C11.3327 20.5393 11.1959 20.4233 11.0912 20.2806L11.0891 20.2776C10.4266 19.3651 8.79927 17.0716 7.33439 14.5901C6.60236 13.3501 5.90243 12.0489 5.38332 10.8407C4.87363 9.65443 4.5 8.47276 4.5 7.5C4.5 5.51088 5.29018 3.60322 6.6967 2.1967ZM12 5.25C10.7574 5.25 9.75 6.25736 9.75 7.5C9.75 8.74264 10.7574 9.75 12 9.75C13.2426 9.75 14.25 8.74264 14.25 7.5C14.25 6.25736 13.2426 5.25 12 5.25ZM8.25 7.5C8.25 5.42893 9.92893 3.75 12 3.75C14.0711 3.75 15.75 5.42893 15.75 7.5C15.75 9.57107 14.0711 11.25 12 11.25C9.92893 11.25 8.25 9.57107 8.25 7.5ZM18.1247 17.0483C17.7184 16.9678 17.3237 17.232 17.2433 17.6383C17.1628 18.0446 17.427 18.4392 17.8333 18.5197C19.1633 18.7831 20.2134 19.1259 20.9108 19.4982C21.2599 19.6846 21.4862 19.8604 21.6171 20.0077C21.7438 20.1504 21.75 20.2286 21.75 20.25C21.75 20.2837 21.7201 20.4822 21.2551 20.7963C20.8163 21.0928 20.132 21.3894 19.219 21.6502C17.4031 22.1691 14.8507 22.5 12 22.5C9.14931 22.5 6.59692 22.1691 4.78105 21.6502C3.86801 21.3894 3.1837 21.0928 2.74487 20.7963C2.27991 20.4822 2.25 20.2837 2.25 20.25C2.25 20.2285 2.25619 20.1506 2.3821 20.0085C2.51218 19.8617 2.7372 19.6864 3.08447 19.5004C3.77824 19.1288 4.82304 18.7864 6.14662 18.5225C6.55284 18.4416 6.8165 18.0466 6.73553 17.6404C6.65455 17.2342 6.2596 16.9705 5.85338 17.0515C4.45796 17.3296 3.25276 17.7087 2.37628 18.1781C1.93843 18.4126 1.54825 18.6877 1.25943 19.0137C0.966439 19.3443 0.75 19.7615 0.75 20.25C0.75 21.0448 1.30759 21.6355 1.90513 22.0392C2.5288 22.4606 3.38199 22.8105 4.36895 23.0925C6.35308 23.6594 9.05069 24 12 24C14.9493 24 17.6469 23.6594 19.631 23.0925C20.618 22.8105 21.4712 22.4606 22.0949 22.0392C22.6924 21.6355 23.25 21.0448 23.25 20.25C23.25 19.7604 23.0325 19.3425 22.7385 19.0115C22.4486 18.6852 22.0569 18.4097 21.6172 18.175C20.7371 17.7051 19.5267 17.3259 18.1247 17.0483Z" fill="#767676"/>
</svg>
