<svg width="24" height="24" viewBox="0 0 24 24" fill="none" xmlns="http://www.w3.org/2000/svg">
<path d="M12 1C14.1217 1 16.1566 1.91025 17.6569 3.5305C19.1571 5.15075 20 7.34828 20 9.63966C20 13.1544 15.6599 19.3033 13.3736 22.2996C13.2069 22.5186 12.9972 22.695 12.7598 22.8161C12.5224 22.9372 12.2631 23 12.0006 23C11.738 23 11.4788 22.9372 11.2414 22.8161C11.004 22.695 10.7943 22.5186 10.6276 22.2996C8.34133 19.3058 4 13.1544 4 9.63966C4 7.34828 4.84285 5.15075 6.34315 3.5305C7.84344 1.91025 9.87827 1 12 1Z" stroke="#474445" stroke-width="1.5" stroke-linecap="round" stroke-linejoin="round"/>
<path d="M12 12C13.6569 12 15 10.6569 15 9C15 7.34315 13.6569 6 12 6C10.3431 6 9 7.34315 9 9C9 10.6569 10.3431 12 12 12Z" stroke="#474445" stroke-width="1.5" stroke-linecap="round" stroke-linejoin="round"/>
</svg>
