<svg width="24" height="24" viewBox="0 0 24 24" fill="none" xmlns="http://www.w3.org/2000/svg">
<path d="M7.5 15L9.173 13.744C9.34376 13.6161 9.5388 13.5244 9.74621 13.4743C9.95361 13.4243 10.169 13.4171 10.3793 13.4532C10.5896 13.4892 10.7903 13.5677 10.9693 13.6839C11.1482 13.8001 11.3016 13.9516 11.42 14.129V14.129C11.5916 14.3869 11.6832 14.6897 11.6832 14.9995C11.6832 15.3093 11.5916 15.6121 11.42 15.87L9.775 18.337C9.26951 19.0948 8.54596 19.6813 7.7 20.019L5.25 21" stroke="#474445" stroke-width="1.5" stroke-linecap="round" stroke-linejoin="round"/>
<path d="M8.25 9.75L4.655 11.29C3.59266 11.7452 2.74618 12.5917 2.291 13.654L1.114 16.4C0.873837 16.9602 0.749999 17.5634 0.75 18.173V23.25" stroke="#474445" stroke-width="1.5" stroke-linecap="round" stroke-linejoin="round"/>
<path d="M8.25 19.755V21C8.25 21.5967 8.48705 22.169 8.90901 22.591C9.33097 23.0129 9.90326 23.25 10.5 23.25H21C21.5967 23.25 22.169 23.0129 22.591 22.591C23.0129 22.169 23.25 21.5967 23.25 21V3C23.25 2.40326 23.0129 1.83097 22.591 1.40901C22.169 0.987053 21.5967 0.75 21 0.75H18.75C18.75 1.54565 18.4339 2.30871 17.8713 2.87132C17.3087 3.43393 16.5456 3.75 15.75 3.75C14.9544 3.75 14.1913 3.43393 13.6287 2.87132C13.0661 2.30871 12.75 1.54565 12.75 0.75H10.5C9.90326 0.75 9.33097 0.987053 8.90901 1.40901C8.48705 1.83097 8.25 2.40326 8.25 3V14.437" stroke="#474445" stroke-width="1.5" stroke-linecap="round" stroke-linejoin="round"/>
<path d="M12.2861 9.525L13.6701 10.328L19.5001 7.475" stroke="#474445" stroke-width="1.5" stroke-linecap="round" stroke-linejoin="round"/>
<path d="M17.0691 8.665L13.7861 6.75" stroke="#474445" stroke-width="1.5" stroke-linecap="round" stroke-linejoin="round"/>
<path d="M23.25 18.75H20.25" stroke="#474445" stroke-width="1.5" stroke-linecap="round" stroke-linejoin="round"/>
<path d="M17.25 18.75H15" stroke="#474445" stroke-width="1.5" stroke-linecap="round" stroke-linejoin="round"/>
</svg>
