<svg width="24" height="24" viewBox="0 0 24 24" fill="none" xmlns="http://www.w3.org/2000/svg">
<path fill-rule="evenodd" clip-rule="evenodd" d="M10.5 0C9.70435 0 8.94129 0.31607 8.37868 0.87868C7.81607 1.44129 7.5 2.20435 7.5 3V9.25536L4.35968 10.6006L4.35962 10.6006C3.12025 11.1317 2.13271 12.1192 1.60165 13.3585L1.60162 13.3586L0.424667 16.1045L0.424654 16.1045C0.144472 16.7581 0 17.4619 0 18.173V23.25C0 23.6642 0.335786 24 0.75 24C1.16421 24 1.5 23.6642 1.5 23.25V18.173C1.5 17.665 1.6032 17.1624 1.80333 16.6955L1.80335 16.6955L2.87783 14.1887L2.87784 14.1886L2.98035 13.9495L2.98038 13.9494C3.3597 13.0641 4.06507 12.3587 4.95032 11.9794L4.95038 11.9794L6.62544 11.2618L6.62545 11.2618L7.5 10.8872V14.0622L7.04971 14.4002C6.71846 14.6489 6.65153 15.119 6.90022 15.4503C7.1489 15.7815 7.61903 15.8485 7.95029 15.5998L8.69038 15.0442C8.69673 15.0395 8.70302 15.0348 8.70922 15.03L9.62261 14.3443L9.62285 14.3441C9.71198 14.2774 9.81376 14.2296 9.92199 14.2035C10.0303 14.1773 10.1428 14.1736 10.2527 14.1924C10.3625 14.2112 10.4673 14.2522 10.5608 14.3129C10.6541 14.3735 10.7341 14.4525 10.7959 14.545C10.8855 14.6797 10.9332 14.8378 10.9332 14.9995C10.9332 15.1614 10.8854 15.3196 10.7957 15.4544L10.7957 15.4544L9.15108 17.9208L9.151 17.9209C8.82563 18.4086 8.39186 18.8112 7.88642 19.0989L7.875 19.1053C7.72957 19.1874 7.57825 19.26 7.42192 19.3225L7.42121 19.3227L4.97121 20.3037C4.58668 20.4577 4.39977 20.8943 4.55374 21.2788C4.70771 21.6633 5.14425 21.8502 5.52879 21.6963L7.5 20.907V21C7.5 21.7957 7.81607 22.5587 8.37868 23.1213C8.94129 23.6839 9.70435 24 10.5 24H21C21.7957 24 22.5587 23.6839 23.1213 23.1213C23.6839 22.5587 24 21.7957 24 21V18.75V3C24 2.20435 23.6839 1.44129 23.1213 0.87868C22.5587 0.31607 21.7957 0 21 0H18.75C18.3358 0 18 0.335786 18 0.75C18 1.34674 17.7629 1.91903 17.341 2.34099C16.919 2.76295 16.3467 3 15.75 3C15.1533 3 14.581 2.76295 14.159 2.34099C13.7371 1.91903 13.5 1.34674 13.5 0.75C13.5 0.335786 13.1642 0 12.75 0H10.5ZM20.25 18H22.5V3C22.5 2.60218 22.342 2.22064 22.0607 1.93934C21.7794 1.65804 21.3978 1.5 21 1.5H19.4242C19.2783 2.21508 18.9254 2.87786 18.4016 3.40165C17.6984 4.10491 16.7446 4.5 15.75 4.5C14.7554 4.5 13.8016 4.10491 13.0983 3.40165C12.5746 2.87786 12.2217 2.21508 12.0758 1.5H10.5C10.1022 1.5 9.72064 1.65804 9.43934 1.93934C9.15804 2.22064 9 2.60218 9 3V9.73271C9.00026 9.74402 9.00026 9.75532 9 9.76659V12.9657C9.17916 12.8676 9.37092 12.7933 9.57042 12.7452C9.87691 12.6713 10.1952 12.6607 10.506 12.7139C10.8167 12.7672 11.1133 12.8832 11.3777 13.0549C11.6421 13.2266 11.8688 13.4504 12.0438 13.7126L11.42 14.129L12.0443 13.7134C12.2979 14.0944 12.4332 14.5418 12.4332 14.9995C12.4332 15.4572 12.2979 15.9046 12.0443 16.2856L12.044 16.2861L10.399 18.7531L10.3989 18.7532C10.0253 19.3133 9.54951 19.7932 9 20.1699V21C9 21.3978 9.15804 21.7794 9.43934 22.0607C9.72064 22.342 10.1022 22.5 10.5 22.5H21C21.3978 22.5 21.7794 22.342 22.0607 22.0607C22.342 21.7794 22.5 21.3978 22.5 21V19.5H20.25C19.8358 19.5 19.5 19.1642 19.5 18.75C19.5 18.3358 19.8358 18 20.25 18ZM20.1738 7.14533C20.3559 7.51739 20.2019 7.96659 19.8298 8.14866L17.4212 9.32733C17.4068 9.33498 17.3922 9.34214 17.3773 9.34882L13.9998 11.0017C13.775 11.1117 13.5102 11.1023 13.2937 10.9767L11.9097 10.1737C11.5515 9.96584 11.4295 9.50689 11.6374 9.14861C11.8453 8.79033 12.3042 8.66841 12.6625 8.87628L13.7002 9.47832L15.4809 8.60686L13.4082 7.39784C13.0504 7.18914 12.9296 6.7299 13.1383 6.37211C13.347 6.01432 13.8062 5.89346 14.164 6.10216L17.0998 7.81464L19.1705 6.80134C19.5425 6.61927 19.9917 6.77328 20.1738 7.14533ZM15 18C14.5858 18 14.25 18.3358 14.25 18.75C14.25 19.1642 14.5858 19.5 15 19.5H17.25C17.6642 19.5 18 19.1642 18 18.75C18 18.3358 17.6642 18 17.25 18H15Z" fill="#767676"/>
</svg>
