<svg width="24" height="24" viewBox="0 0 24 24" fill="none" xmlns="http://www.w3.org/2000/svg">
<path d="M3.63383 12.746L4.06509 11.6007L3.05817 8.92604C2.98587 8.73312 2.98082 8.52099 3.04384 8.32476C3.10686 8.12853 3.23418 7.95999 3.40472 7.84703L5.77089 6.2826L6.50924 3.52023C6.56258 3.32102 6.68161 3.14627 6.84656 3.025C7.01151 2.90372 7.21246 2.84322 7.41605 2.85352L10.2385 2.99876L12.4391 1.20039C12.5979 1.07072 12.7958 1 12.9999 1C13.2039 1 13.4018 1.07072 13.5606 1.20039L15.7612 2.99876L18.5837 2.85645C18.7873 2.84614 18.9882 2.90665 19.1531 3.02792C19.3181 3.1492 19.4371 3.32394 19.4905 3.52316L20.2288 6.28552L22.595 7.84995C22.7657 7.96279 22.8931 8.13133 22.9561 8.3276C23.0192 8.52387 23.014 8.73607 22.9415 8.92897L21.9356 11.6036L22.9415 14.2773C23.0141 14.4703 23.0193 14.6827 22.9562 14.8791C22.8932 15.0755 22.7657 15.2443 22.595 15.3573L20.2288 16.9168L19.4866 19.6802C19.4336 19.8796 19.3147 20.0547 19.1497 20.1762C18.9847 20.2977 18.7836 20.3583 18.5798 20.3478L15.7573 20.2055L13.5825 21.979" stroke="#71717A" stroke-width="1.5" stroke-linecap="round" stroke-linejoin="round"/>
<path d="M1.24805 18.3714L3.74324 22.1142" stroke="#71717A" stroke-width="1.5" stroke-linecap="round" stroke-linejoin="round"/>
<path d="M16.79 16.872L3 21L2 19.5L11.158 8L16.79 16.872Z" stroke="#71717A" stroke-width="1.5" stroke-linecap="round" stroke-linejoin="round"/>
<path d="M10.5 7L17.5 18" stroke="#71717A" stroke-width="1.5" stroke-linecap="round" stroke-linejoin="round"/>
<path d="M6 20.316L6.876 21.662C7.02084 21.8995 7.21269 22.1048 7.43977 22.2655C7.66685 22.4261 7.92437 22.5386 8.19651 22.5961C8.46865 22.6536 8.74967 22.6549 9.02231 22.5998C9.29496 22.5448 9.55348 22.4346 9.782 22.276C10.2492 21.9398 10.5702 21.4378 10.6793 20.8726C10.7884 20.3075 10.6774 19.722 10.369 19.236" stroke="#71717A" stroke-width="1.5" stroke-linecap="round" stroke-linejoin="round"/>
</svg>
