<svg width="24" height="24" viewBox="0 0 24 24" fill="none" xmlns="http://www.w3.org/2000/svg">
<path d="M5.57598 21.8207C4.04771 23.2353 1.14274 22.647 1.14274 22.647C1.14274 22.647 0.492092 19.6908 1.96908 18.2138C2.18975 17.9753 2.46097 17.7892 2.76287 17.6691C3.06476 17.5491 3.3897 17.498 3.71388 17.5197C4.03806 17.5415 4.35327 17.6354 4.63643 17.7948C4.9196 17.9541 5.16354 18.1747 5.3504 18.4405C5.61593 18.6275 5.83629 18.8714 5.99538 19.1545C6.15447 19.4377 6.24825 19.7527 6.26988 20.0768C6.2915 20.4008 6.24041 20.7256 6.12035 21.0273C6.00029 21.329 5.8143 21.6001 5.57598 21.8207Z" stroke="#71717A" stroke-width="1.5" stroke-linecap="round" stroke-linejoin="round"/>
<path d="M21.3027 2.48152L22.7843 1" stroke="#71717A" stroke-width="1.5" stroke-linecap="round" stroke-linejoin="round"/>
<path d="M21.5001 7.65834L21.3028 2.48151L16.126 2.28427C15.3607 2.30058 14.6112 2.50483 13.9435 2.87902C13.2758 3.2532 12.7103 3.78585 12.2969 4.43004L6.66895 13.7443L10.031 17.1109L19.3452 11.4874C19.9914 11.0754 20.5261 10.5105 20.902 9.84263C21.2778 9.17476 21.5001 8.54418 21.5001 7.65834Z" stroke="#71717A" stroke-width="1.5" stroke-linecap="round" stroke-linejoin="round"/>
<path d="M6.67241 13.7488L3.66855 13.012C3.56459 12.986 3.46872 12.9346 3.38957 12.8624C3.31043 12.7902 3.25048 12.6994 3.21514 12.5982C3.17955 12.5039 3.17131 12.4014 3.19136 12.3025C3.21142 12.2037 3.25894 12.1125 3.32849 12.0394L5.5094 9.86417C5.80509 9.5809 6.17541 9.38779 6.57694 9.30748C6.97847 9.22717 7.39457 9.263 7.77646 9.41076L8.99997 9.84455" stroke="#71717A" stroke-width="1.5" stroke-linecap="round" stroke-linejoin="round"/>
<path d="M10.0352 17.1165L10.772 20.1204C10.7979 20.2242 10.8492 20.3199 10.9212 20.399C10.9932 20.4781 11.0837 20.5382 11.1846 20.5738C11.2791 20.6097 11.3818 20.6182 11.4809 20.5981C11.58 20.578 11.6714 20.5303 11.7445 20.4604L13.9232 18.2738C14.2051 17.9773 14.3967 17.6066 14.4756 17.2051C14.5545 16.8036 14.5174 16.388 14.3686 16.0068L13.9232 14.8742" stroke="#71717A" stroke-width="1.5" stroke-linecap="round" stroke-linejoin="round"/>
<path d="M16.171 9.31331C17.11 9.31331 17.8713 8.55206 17.8713 7.61302C17.8713 6.67397 17.11 5.91272 16.171 5.91272C15.232 5.91272 14.4707 6.67397 14.4707 7.61302C14.4707 8.55206 15.232 9.31331 16.171 9.31331Z" stroke="#71717A" stroke-width="1.5" stroke-linecap="round" stroke-linejoin="round"/>
</svg>
