<svg width="24" height="24" viewBox="0 0 24 24" fill="none" xmlns="http://www.w3.org/2000/svg">
<path d="M11.5662 1.01726L10.8965 0.679726L10.8944 0.683974L11.5662 1.01726ZM12.0002 0.749991V0V0.749991ZM12.4342 1.01726L13.1061 0.683968L13.104 0.679732L12.4342 1.01726ZM13.4432 3.05124L12.7714 3.38453L12.7724 3.38672L13.4432 3.05124ZM13.8062 3.31324L13.9134 2.57095L13.9133 2.57094L13.8062 3.31324ZM16.0702 3.64023L15.963 4.38253L15.9659 4.38293L16.0702 3.64023ZM16.4592 3.96323L17.1712 3.72759L17.1701 3.72416L16.4592 3.96323ZM16.3382 4.45023L15.8192 3.90873L15.8151 3.91273L16.3382 4.45023ZM14.7002 6.04421L15.221 6.58394L15.2233 6.5817L14.7002 6.04421ZM14.5622 6.4632L13.8226 6.58784L13.8232 6.59082L14.5622 6.4632ZM14.9502 8.71018L15.69 8.58691L15.6893 8.58256L14.9502 8.71018ZM14.7562 9.17517L14.3234 8.56268L14.3204 8.56476L14.7562 9.17517ZM14.2472 9.21017L14.5953 8.54586L14.594 8.54518L14.2472 9.21017ZM12.2262 8.15618L11.8746 8.81864L11.8794 8.82117L12.2262 8.15618ZM11.7742 8.15618L12.1217 8.82083L12.1259 8.81862L11.7742 8.15618ZM9.75827 9.21017L9.41078 8.54553L9.41016 8.54586L9.75827 9.21017ZM9.24927 9.17517L9.68504 8.56476L9.68211 8.56268L9.24927 9.17517ZM9.05528 8.71018L8.31621 8.58256L8.31548 8.58691L9.05528 8.71018ZM9.44327 6.4632L10.1823 6.59082L10.1828 6.58784L9.44327 6.4632ZM9.30527 6.04421L8.78303 6.5825L8.78452 6.58394L9.30527 6.04421ZM7.66229 4.45023L8.18454 3.91193L8.18122 3.90875L7.66229 4.45023ZM7.54129 3.96323L6.83042 3.72416L6.82928 3.72759L7.54129 3.96323ZM7.93029 3.64023L8.03462 4.38294L8.0375 4.38252L7.93029 3.64023ZM10.1943 3.31324L10.0871 2.57094L10.0871 2.57095L10.1943 3.31324ZM10.5573 3.05124L11.228 3.38672L11.2291 3.38453L10.5573 3.05124ZM12.236 1.3548C12.214 1.39845 12.1803 1.43514 12.1387 1.46077L11.3521 0.183564C11.1572 0.30358 10.9995 0.475349 10.8965 0.679732L12.236 1.3548ZM12.1387 1.46077C12.0971 1.48641 12.0491 1.49998 12.0002 1.49998V0C11.7714 0 11.547 0.0635484 11.3521 0.183564L12.1387 1.46077ZM12.0002 1.49998C11.9514 1.49998 11.9034 1.48641 11.8618 1.46077L12.6484 0.183564C12.4535 0.0635484 12.2291 0 12.0002 0V1.49998ZM11.8618 1.46077C11.8202 1.43514 11.7865 1.39845 11.7645 1.3548L13.104 0.679732C13.001 0.475349 12.8433 0.30358 12.6484 0.183564L11.8618 1.46077ZM11.7624 1.35056L12.7714 3.38453L14.1151 2.71795L13.1061 0.683974L11.7624 1.35056ZM12.7724 3.38672C12.8615 3.56471 12.9922 3.7185 13.1536 3.83497L14.0315 2.6187C14.0664 2.64392 14.0947 2.67722 14.114 2.71577L12.7724 3.38672ZM13.1536 3.83497C13.315 3.95144 13.5021 4.02712 13.6991 4.05554L13.9133 2.57094C13.956 2.57709 13.9965 2.59348 14.0315 2.6187L13.1536 3.83497ZM13.699 4.05553L15.963 4.38252L16.1774 2.89795L13.9134 2.57095L13.699 4.05553ZM15.9659 4.38293C15.9164 4.37599 15.8699 4.35541 15.8314 4.32351L16.7897 3.16949C16.6138 3.02349 16.4008 2.92933 16.1745 2.89753L15.9659 4.38293ZM15.8314 4.32351C15.793 4.29161 15.7642 4.24964 15.7483 4.2023L17.1701 3.72416C17.0972 3.50754 16.9655 3.31548 16.7897 3.16949L15.8314 4.32351ZM15.7472 4.19887C15.7306 4.14865 15.7285 4.09474 15.7413 4.04338L17.197 4.40507C17.2526 4.18134 17.2436 3.94644 17.1712 3.72759L15.7472 4.19887ZM15.7413 4.04338C15.754 3.99203 15.7811 3.94535 15.8193 3.90875L16.8571 4.9917C17.0236 4.8322 17.1414 4.62881 17.197 4.40507L15.7413 4.04338ZM15.8151 3.91273L14.1772 5.50671L15.2233 6.5817L16.8612 4.98772L15.8151 3.91273ZM14.1795 5.50448C14.0364 5.64247 13.9292 5.81324 13.867 6.00202L15.2917 6.47125C15.2776 6.51401 15.2534 6.55268 15.221 6.58394L14.1795 5.50448ZM13.867 6.00202C13.8049 6.19079 13.7896 6.39187 13.8227 6.58784L15.3018 6.33856C15.3093 6.38295 15.3058 6.42849 15.2917 6.47125L13.867 6.00202ZM13.8232 6.59082L14.2112 8.83779L15.6893 8.58256L15.3013 6.33559L13.8232 6.59082ZM14.2104 8.83344C14.2019 8.78226 14.208 8.7297 14.2279 8.68181L15.6123 9.25936C15.7009 9.04697 15.7278 8.81391 15.69 8.58691L14.2104 8.83344ZM14.2279 8.68181C14.2479 8.63392 14.281 8.59263 14.3234 8.56268L15.189 9.78766C15.377 9.65485 15.5237 9.47175 15.6123 9.25936L14.2279 8.68181ZM14.3204 8.56476C14.36 8.5365 14.4067 8.51977 14.4552 8.51644L14.5581 10.0129C14.7864 9.99719 15.0058 9.91851 15.192 9.78558L14.3204 8.56476ZM14.4552 8.51644C14.5037 8.5131 14.5522 8.52329 14.5953 8.54586L13.8991 9.87448C14.1017 9.98067 14.3299 10.0286 14.5581 10.0129L14.4552 8.51644ZM14.594 8.54518L12.573 7.49119L11.8794 8.82117L13.9004 9.87516L14.594 8.54518ZM12.5779 7.49374C12.4 7.39931 12.2017 7.34992 12.0002 7.34992V8.84991C11.9564 8.84991 11.9133 8.83917 11.8746 8.81862L12.5779 7.49374ZM12.0002 7.34992C11.7988 7.34992 11.6005 7.39931 11.4226 7.49374L12.1259 8.81862C12.0872 8.83917 12.0441 8.84991 12.0002 8.84991V7.34992ZM11.4268 7.49155L9.41078 8.54553L10.1058 9.87481L12.1217 8.82082L11.4268 7.49155ZM9.41016 8.54586C9.45324 8.52329 9.50174 8.5131 9.55027 8.51644L9.44737 10.0129C9.67561 10.0286 9.90374 9.98067 10.1064 9.87448L9.41016 8.54586ZM9.55027 8.51644C9.5988 8.51977 9.64545 8.5365 9.68504 8.56476L8.81351 9.78558C8.99971 9.91851 9.21913 9.99719 9.44737 10.0129L9.55027 8.51644ZM9.68211 8.56268C9.72449 8.59263 9.75756 8.63392 9.77754 8.68181L8.39321 9.25936C8.48181 9.47174 8.6285 9.65485 8.81644 9.78766L9.68211 8.56268ZM9.77754 8.68181C9.79752 8.7297 9.8036 8.78226 9.79507 8.83344L8.31548 8.58691C8.27766 8.81391 8.3046 9.04697 8.39321 9.25936L9.77754 8.68181ZM9.79433 8.83779L10.1823 6.59082L8.70422 6.33559L8.31622 8.58256L9.79433 8.83779ZM10.1828 6.58784C10.2159 6.39186 10.2006 6.19078 10.1385 6.00202L8.71376 6.47125C8.69968 6.4285 8.69623 6.38295 8.70371 6.33856L10.1828 6.58784ZM10.1385 6.00202C10.0763 5.81325 9.96905 5.64248 9.82602 5.50448L8.78452 6.58394C8.75213 6.55268 8.72784 6.514 8.71376 6.47125L10.1385 6.00202ZM9.82751 5.50592L8.18453 3.91194L7.14006 4.98852L8.78304 6.5825L9.82751 5.50592ZM8.18122 3.90875C8.21942 3.94535 8.24646 3.99203 8.25922 4.04338L6.8035 4.40507C6.85909 4.6288 6.97693 4.8322 7.14336 4.9917L8.18122 3.90875ZM8.25922 4.04338C8.27198 4.09473 8.26993 4.14864 8.2533 4.19887L6.82928 3.72759C6.75685 3.94645 6.74791 4.18134 6.8035 4.40507L8.25922 4.04338ZM8.25216 4.2023C8.23624 4.24964 8.20746 4.29161 8.16904 4.32351L7.21082 3.16949C7.03499 3.31548 6.90327 3.50754 6.83042 3.72416L8.25216 4.2023ZM8.16904 4.32351C8.13062 4.35541 8.08407 4.37599 8.03461 4.38293L7.82596 2.89753C7.59964 2.92933 7.38664 3.02349 7.21082 3.16949L8.16904 4.32351ZM8.0375 4.38252L10.3015 4.05553L10.0871 2.57095L7.82308 2.89795L8.0375 4.38252ZM10.3014 4.05554C10.4983 4.02712 10.6855 3.95144 10.8469 3.83497L9.96902 2.6187C10.004 2.59348 10.0445 2.57709 10.0871 2.57094L10.3014 4.05554ZM10.8469 3.83497C11.0082 3.7185 11.139 3.56471 11.228 3.38672L9.88648 2.71577C9.90576 2.67722 9.93408 2.64392 9.96902 2.6187L10.8469 3.83497ZM11.2291 3.38453L12.2381 1.35056L10.8944 0.683974L9.88539 2.71795L11.2291 3.38453Z" fill="#767676"/>
<path d="M5.45917 9.65015L5.80594 8.98514L5.80585 8.9851L5.45917 9.65015ZM5.23268 9.59466V8.84467V9.59466ZM5.00618 9.65015L5.35276 10.3153L5.35286 10.3152L5.00618 9.65015ZM2.9912 10.7001L2.64462 10.035L2.64429 10.0352L2.9912 10.7001ZM2.48121 10.6661L2.0472 11.2778L2.0491 11.2791L2.48121 10.6661ZM2.28821 10.2001L1.54911 10.0728L1.54882 10.0745L2.28821 10.2001ZM2.67521 7.95417L1.93615 7.82656L1.93611 7.82682L2.67521 7.95417ZM2.53821 7.53518L2.01664 8.07412L2.0173 8.07476L2.53821 7.53518ZM0.894226 5.9442L0.372646 6.48312L0.372661 6.48314L0.894226 5.9442ZM0.774228 5.4572L0.0633471 5.21813L0.0619714 5.2223L0.774228 5.4572ZM1.16322 5.13421L1.26755 5.87691L1.27048 5.87649L1.16322 5.13421ZM3.4262 4.80721L3.32075 4.06467L3.31894 4.06493L3.4262 4.80721ZM3.79019 4.54521L4.46086 4.88093L4.46193 4.87877L3.79019 4.54521ZM4.80018 2.51124L4.12979 2.17498L4.12845 2.17768L4.80018 2.51124ZM5.23205 2.99423C5.64626 2.9954 5.98299 2.66057 5.98417 2.24636C5.98534 1.83216 5.65051 1.49542 5.2363 1.49425L5.23205 2.99423ZM5.94663 10.7502C6.31391 10.9417 6.76689 10.7992 6.95841 10.4319C7.14992 10.0646 7.00743 9.61164 6.64016 9.42013L5.94663 10.7502ZM5.80585 8.9851C5.62888 8.89284 5.43225 8.84467 5.23268 8.84467V10.3447C5.19083 10.3447 5.1496 10.3346 5.11249 10.3152L5.80585 8.9851ZM5.23268 8.84467C5.0331 8.84467 4.83647 8.89284 4.6595 8.9851L5.35286 10.3152C5.31575 10.3346 5.27452 10.3447 5.23268 10.3447V8.84467ZM4.6596 8.98505L2.64462 10.035L3.33778 11.3653L5.35276 10.3153L4.6596 8.98505ZM2.64429 10.0352C2.68646 10.0132 2.73386 10.0032 2.78132 10.0064L2.68154 11.5031C2.90892 11.5182 3.13608 11.4705 3.33811 11.3651L2.64429 10.0352ZM2.78132 10.0064C2.82877 10.0096 2.87444 10.0257 2.91331 10.0531L2.0491 11.2791C2.23536 11.4104 2.45417 11.4879 2.68154 11.5031L2.78132 10.0064ZM2.91522 10.0545C2.95759 10.0846 2.99062 10.126 3.0105 10.174L1.62467 10.7479C1.71283 10.9608 1.85929 11.1445 2.0472 11.2778L2.91522 10.0545ZM3.0105 10.174C3.03038 10.222 3.0363 10.2746 3.0276 10.3258L1.54882 10.0745C1.51021 10.3016 1.5365 10.5351 1.62467 10.7479L3.0105 10.174ZM3.02731 10.3275L3.41431 8.08153L1.93611 7.82682L1.54911 10.0728L3.02731 10.3275ZM3.41426 8.08178C3.44815 7.8855 3.43351 7.6839 3.3716 7.49458L1.9459 7.96074C1.93175 7.91748 1.92841 7.87141 1.93615 7.82656L3.41426 8.08178ZM3.3716 7.49458C3.3097 7.30525 3.20242 7.13395 3.05911 6.9956L2.0173 8.07476C1.98456 8.04314 1.96004 8.004 1.9459 7.96074L3.3716 7.49458ZM3.05977 6.99624L1.41579 5.40526L0.372661 6.48314L2.01664 8.07412L3.05977 6.99624ZM1.41581 5.40527C1.45335 5.44161 1.4799 5.48779 1.4924 5.53852L0.0359774 5.89739C0.0909264 6.12039 0.207609 6.3234 0.372646 6.48312L1.41581 5.40527ZM1.4924 5.53852C1.5049 5.58925 1.50285 5.64248 1.48648 5.6921L0.0619714 5.2223C-0.0099628 5.44042 -0.0189717 5.67439 0.0359774 5.89739L1.4924 5.53852ZM1.4851 5.69627C1.46918 5.74361 1.44039 5.78558 1.40197 5.81748L0.443751 4.66346C0.267923 4.80945 0.136209 5.00152 0.0633593 5.21813L1.4851 5.69627ZM1.40197 5.81748C1.36355 5.84938 1.31701 5.86996 1.26755 5.87691L1.0589 4.39151C0.832578 4.4233 0.619578 4.51746 0.443751 4.66346L1.40197 5.81748ZM1.27048 5.87649L3.53346 5.54949L3.31894 4.06493L1.05596 4.39192L1.27048 5.87649ZM3.53165 5.54975C3.72907 5.52172 3.91674 5.44622 4.07858 5.32973L3.20231 4.11231C3.23736 4.08709 3.278 4.07074 3.32075 4.06467L3.53165 5.54975ZM4.07858 5.32973C4.24042 5.21324 4.37159 5.05924 4.46085 4.88093L3.11953 4.2095C3.13886 4.17089 3.16727 4.13754 3.20231 4.11231L4.07858 5.32973ZM4.46193 4.87877L5.47192 2.84479L4.12845 2.17768L3.11846 4.21166L4.46193 4.87877ZM5.47057 2.84749C5.44839 2.89171 5.41432 2.92887 5.37218 2.95479L4.58621 1.67721C4.39074 1.79747 4.23269 1.96985 4.12979 2.17498L5.47057 2.84749ZM5.37218 2.95479C5.33005 2.98071 5.28152 2.99437 5.23205 2.99423L5.2363 1.49425C5.00681 1.4936 4.78168 1.55696 4.58621 1.67721L5.37218 2.95479ZM6.64016 9.42013L5.80594 8.98514L5.11241 10.3152L5.94663 10.7502L6.64016 9.42013Z" fill="#767676"/>
<path d="M18.5409 9.64915L18.1942 8.9841L18.1935 8.98446L18.5409 9.64915ZM18.9939 9.64915L19.3407 8.98418L19.3405 8.9841L18.9939 9.64915ZM21.0088 10.7001L21.3557 10.0352L21.3557 10.0352L21.0088 10.7001ZM21.5188 10.6661L21.9509 11.2791L21.9528 11.2778L21.5188 10.6661ZM21.7118 10.2001L22.4512 10.0745L22.4509 10.0728L21.7118 10.2001ZM21.3248 7.95417L22.0639 7.82682L22.0639 7.82656L21.3248 7.95417ZM21.4618 7.53518L21.9827 8.07476L21.9841 8.07346L21.4618 7.53518ZM23.1058 5.9402L22.5842 5.40127L22.5836 5.40191L23.1058 5.9402ZM23.2258 5.4532L23.9381 5.2183L23.9367 5.21414L23.2258 5.4532ZM22.8368 5.13021L22.7296 5.87249L22.7325 5.87291L22.8368 5.13021ZM20.5738 4.80321L20.6811 4.06093L20.6793 4.06067L20.5738 4.80321ZM20.2098 4.54121L19.5384 4.8753L19.5392 4.87693L20.2098 4.54121ZM19.1999 2.51124L19.8713 2.17715L19.8702 2.17498L19.1999 2.51124ZM18.7637 1.49425C18.3495 1.49542 18.0147 1.83216 18.0159 2.24636C18.017 2.66057 18.3538 2.9954 18.768 2.99423L18.7637 1.49425ZM17.3497 9.42542C16.9826 9.61727 16.8405 10.0704 17.0324 10.4375C17.2242 10.8046 17.6773 10.9467 18.0444 10.7548L17.3497 9.42542ZM18.8875 10.3142C18.8504 10.3336 18.8092 10.3437 18.7674 10.3437V8.84367C18.5678 8.84367 18.3712 8.89185 18.1942 8.9841L18.8875 10.3142ZM18.7674 10.3437C18.7255 10.3437 18.6843 10.3336 18.6472 10.3142L19.3405 8.9841C19.1636 8.89185 18.9669 8.84367 18.7674 8.84367V10.3437ZM18.647 10.3141L20.662 11.3651L21.3557 10.0352L19.3407 8.98418L18.647 10.3141ZM20.6619 11.3651C20.864 11.4705 21.0911 11.5182 21.3185 11.5031L21.2187 10.0064C21.2662 10.0032 21.3136 10.0132 21.3557 10.0352L20.6619 11.3651ZM21.3185 11.5031C21.5459 11.4879 21.7647 11.4104 21.9509 11.2791L21.0867 10.0531C21.1256 10.0257 21.1713 10.0096 21.2187 10.0064L21.3185 11.5031ZM21.9528 11.2778C22.1407 11.1445 22.2872 10.9608 22.3754 10.7479L20.9895 10.174C21.0094 10.126 21.0424 10.0846 21.0848 10.0545L21.9528 11.2778ZM22.3754 10.7479C22.4635 10.5351 22.4898 10.3016 22.4512 10.0745L20.9724 10.3258C20.9637 10.2746 20.9697 10.222 20.9895 10.174L22.3754 10.7479ZM22.4509 10.0728L22.0639 7.82682L20.5857 8.08152L20.9727 10.3275L22.4509 10.0728ZM22.0639 7.82656C22.0716 7.87141 22.0683 7.91748 22.0541 7.96074L20.6284 7.49458C20.5665 7.6839 20.5519 7.8855 20.5858 8.08178L22.0639 7.82656ZM22.0541 7.96074C22.04 8.004 22.0155 8.04314 21.9827 8.07476L20.9409 6.9956C20.7976 7.13395 20.6903 7.30526 20.6284 7.49458L22.0541 7.96074ZM21.9841 8.07346L23.6281 6.47848L22.5836 5.40191L20.9396 6.99689L21.9841 8.07346ZM23.6274 6.47912C23.7924 6.31939 23.9091 6.11639 23.9641 5.89339L22.5076 5.53452C22.5201 5.4838 22.5467 5.43761 22.5842 5.40127L23.6274 6.47912ZM23.9641 5.89339C24.019 5.67039 24.01 5.43642 23.9381 5.2183L22.5136 5.6881C22.4972 5.63848 22.4951 5.58525 22.5076 5.53452L23.9641 5.89339ZM23.9367 5.21414C23.8638 4.99752 23.7321 4.80546 23.5563 4.65946L22.5981 5.81348C22.5596 5.78158 22.5309 5.73961 22.5149 5.69227L23.9367 5.21414ZM23.5563 4.65946C23.3805 4.51346 23.1675 4.4193 22.9411 4.38751L22.7325 5.87291C22.683 5.86596 22.6365 5.84538 22.5981 5.81348L23.5563 4.65946ZM22.9441 4.38792L20.6811 4.06093L20.4666 5.54549L22.7296 5.87249L22.9441 4.38792ZM20.6793 4.06067C20.722 4.06674 20.7627 4.08309 20.7977 4.10831L19.9215 5.32573C20.0833 5.44222 20.271 5.51772 20.4684 5.54575L20.6793 4.06067ZM20.7977 4.10831C20.8328 4.13354 20.8612 4.16688 20.8805 4.2055L19.5392 4.87693C19.6284 5.05524 19.7596 5.20924 19.9215 5.32573L20.7977 4.10831ZM20.8813 4.20713L19.8713 2.17715L18.5284 2.84532L19.5384 4.87529L20.8813 4.20713ZM19.8702 2.17498C19.7673 1.96984 19.6093 1.79746 19.4138 1.67721L18.6279 2.95479C18.5857 2.92887 18.5516 2.89171 18.5295 2.84749L19.8702 2.17498ZM19.4138 1.67721C19.2184 1.55696 18.9932 1.4936 18.7637 1.49425L18.768 2.99423C18.7185 2.99437 18.67 2.98071 18.6279 2.95479L19.4138 1.67721ZM18.0444 10.7548L18.8882 10.3139L18.1935 8.98446L17.3497 9.42542L18.0444 10.7548Z" fill="#767676"/>
<path d="M2.99997 13.2501C2.58576 13.2501 2.24997 13.5859 2.24997 14.0001C2.24997 14.4143 2.58576 14.7501 2.99997 14.7501V13.2501ZM20.9998 14.7501C21.414 14.7501 21.7498 14.4143 21.7498 14.0001C21.7498 13.5859 21.414 13.2501 20.9998 13.2501V14.7501ZM2.99997 14.7501H20.9998V13.2501H2.99997V14.7501Z" fill="#767676"/>
<path d="M2.99997 21.25C2.58576 21.25 2.24997 21.5858 2.24997 22C2.24997 22.4142 2.58576 22.75 2.99997 22.75V21.25ZM20.9998 22.75C21.414 22.75 21.7498 22.4142 21.7498 22C21.7498 21.5858 21.414 21.25 20.9998 21.25V22.75ZM2.99997 22.75H20.9998V21.25H2.99997V22.75Z" fill="#767676"/>
<path d="M2.99997 17.2501C2.58576 17.2501 2.24997 17.5859 2.24997 18.0001C2.24997 18.4143 2.58576 18.7501 2.99997 18.7501V17.2501ZM16.9998 18.7501C17.414 18.7501 17.7498 18.4143 17.7498 18.0001C17.7498 17.5859 17.414 17.2501 16.9998 17.2501V18.7501ZM2.99997 18.7501H16.9998V17.2501H2.99997V18.7501Z" fill="#767676"/>
</svg>
