<svg width="24" height="24" viewBox="0 0 24 24" fill="none" xmlns="http://www.w3.org/2000/svg">
<path d="M6.32224 10.1L5.45924 9.65C5.3893 9.61355 5.3116 9.59451 5.23274 9.59451C5.15387 9.59451 5.07617 9.61355 5.00624 9.65L2.99124 10.7C2.9113 10.7417 2.82142 10.7606 2.73146 10.7546C2.6415 10.7486 2.55493 10.7179 2.48124 10.666C2.40847 10.6144 2.35175 10.5432 2.31761 10.4608C2.28347 10.3784 2.27328 10.288 2.28824 10.2L2.67524 7.954C2.68831 7.87828 2.68266 7.80052 2.65878 7.72748C2.6349 7.65445 2.59352 7.58837 2.53824 7.535L0.894237 5.944C0.83049 5.88231 0.785421 5.8039 0.764196 5.71776C0.742972 5.63162 0.746452 5.54125 0.774237 5.457C0.802702 5.37236 0.854168 5.29731 0.922872 5.24027C0.991576 5.18322 1.0748 5.14642 1.16324 5.134L3.42624 4.807C3.50357 4.79602 3.57709 4.76644 3.64049 4.72081C3.70389 4.67518 3.75527 4.61485 3.79024 4.545L4.80024 2.511C4.84059 2.43054 4.90259 2.36293 4.97926 2.31576C5.05592 2.2686 5.14422 2.24375 5.23424 2.244M17.6782 10.1L18.5412 9.649C18.6112 9.61255 18.6889 9.59351 18.7677 9.59351C18.8466 9.59351 18.9243 9.61255 18.9942 9.649L21.0092 10.7C21.0892 10.7417 21.179 10.7606 21.269 10.7546C21.359 10.7486 21.4455 10.7179 21.5192 10.666C21.592 10.6144 21.6487 10.5432 21.6829 10.4608C21.717 10.3784 21.7272 10.288 21.7122 10.2L21.3252 7.954C21.3122 7.87828 21.3178 7.80052 21.3417 7.72748C21.3656 7.65445 21.407 7.58837 21.4622 7.535L23.1062 5.94C23.17 5.87831 23.2151 5.7999 23.2363 5.71376C23.2575 5.62762 23.254 5.53725 23.2262 5.453C23.1978 5.36836 23.1463 5.29331 23.0776 5.23627C23.0089 5.17922 22.9257 5.14242 22.8372 5.13L20.5742 4.803C20.4969 4.79202 20.4234 4.76244 20.36 4.71681C20.2966 4.67118 20.2452 4.61085 20.2102 4.541L19.2002 2.511C19.1599 2.43054 19.0979 2.36293 19.0212 2.31576C18.9446 2.2686 18.8563 2.24375 18.7662 2.244M3.00024 14H21.0002M3.00024 22H21.0002M3.00024 18H17.0002M11.5662 1.017C11.6067 0.936637 11.6688 0.869096 11.7454 0.821904C11.822 0.774713 11.9102 0.749725 12.0002 0.749725C12.0902 0.749725 12.1785 0.774713 12.2551 0.821904C12.3317 0.869096 12.3937 0.936637 12.4342 1.017L13.4432 3.051C13.4781 3.12073 13.5293 3.18097 13.5925 3.2266C13.6558 3.27222 13.7291 3.30187 13.8062 3.313L16.0702 3.64C16.1587 3.65242 16.2419 3.68922 16.3106 3.74627C16.3793 3.80331 16.4308 3.87836 16.4592 3.963C16.4871 4.04732 16.4906 4.13781 16.4692 4.224C16.4478 4.31019 16.4024 4.38855 16.3382 4.45L14.7002 6.044C14.6449 6.09737 14.6034 6.16342 14.5794 6.23643C14.5554 6.30944 14.5495 6.3872 14.5622 6.463L14.9502 8.71C14.9649 8.79791 14.9545 8.88817 14.9201 8.97041C14.8858 9.05266 14.829 9.12357 14.7562 9.175C14.6829 9.22734 14.5965 9.25831 14.5067 9.26449C14.4168 9.27067 14.327 9.25181 14.2472 9.21L12.2262 8.156C12.1566 8.11905 12.079 8.09973 12.0002 8.09973C11.9214 8.09973 11.8438 8.11905 11.7742 8.156L9.75824 9.21C9.67846 9.25181 9.58864 9.27067 9.49879 9.26449C9.40893 9.25831 9.32254 9.22734 9.24924 9.175C9.17646 9.12357 9.11965 9.05266 9.08534 8.97041C9.05102 8.88817 9.04059 8.79791 9.05524 8.71L9.44324 6.463C9.45601 6.3872 9.45012 6.30944 9.42607 6.23643C9.40203 6.16342 9.36055 6.09737 9.30524 6.044L7.66224 4.45C7.59812 4.38855 7.55272 4.31019 7.5313 4.224C7.50989 4.13781 7.51333 4.04732 7.54124 3.963C7.5697 3.87836 7.62117 3.80331 7.68987 3.74627C7.75858 3.68922 7.8418 3.65242 7.93024 3.64L10.1942 3.313C10.2714 3.30187 10.3447 3.27222 10.4079 3.2266C10.4711 3.18097 10.5224 3.12073 10.5572 3.051L11.5662 1.017Z" stroke="#474445" stroke-width="1.5" stroke-linecap="round" stroke-linejoin="round"/>
</svg>
