<svg width="24" height="24" viewBox="0 0 24 24" fill="none" xmlns="http://www.w3.org/2000/svg">
<path fill-rule="evenodd" clip-rule="evenodd" d="M23.3146 1.53033C23.6075 1.23744 23.6075 0.762563 23.3146 0.46967C23.0217 0.176777 22.5468 0.176777 22.2539 0.46967L21.004 1.71958L16.1545 1.53482C16.1397 1.53425 16.1249 1.53413 16.11 1.53444C15.2218 1.55337 14.3519 1.79044 13.5769 2.22475C12.8019 2.65906 12.1455 3.27729 11.6657 4.02498L11.655 4.04218L8.69513 8.94072L8.03639 8.70717C7.52444 8.51141 6.96746 8.46452 6.42985 8.57204C5.88849 8.68032 5.38922 8.94067 4.99056 9.3226L4.97976 9.33315L2.79885 11.5084L2.78527 11.5223C2.61844 11.6975 2.50443 11.9163 2.45633 12.1534C2.40886 12.3875 2.4275 12.6301 2.51008 12.854C2.58681 13.0692 2.71521 13.2624 2.88404 13.4164C3.05506 13.5725 3.26221 13.6835 3.48684 13.7396L3.48988 13.7404L6.29136 14.4275L9.35611 17.4964L10.0435 20.299L10.0443 20.3023C10.1003 20.5263 10.211 20.733 10.3665 20.9038C10.5199 21.0724 10.7123 21.2009 10.9267 21.2781C11.1512 21.3616 11.3948 21.3808 11.6297 21.3332C11.8678 21.285 12.0873 21.1704 12.2628 21.0025L12.2758 20.9898L14.4545 18.8032L14.4667 18.7906C14.8468 18.3908 15.1052 17.891 15.2116 17.3497C15.3179 16.8084 15.2679 16.248 15.0673 15.7341L15.0666 15.7323L14.8169 15.0975L19.7329 12.1295L19.7484 12.1198C20.4986 11.6416 21.1193 10.9858 21.5556 10.2105C21.9801 9.45613 22.2501 8.69976 22.2501 7.65834C22.2501 7.64882 22.2499 7.6393 22.2495 7.62979L22.0647 2.78017L23.3146 1.53033ZM11.4415 19.7019L10.8932 17.4664L13.5144 15.8839L13.67 16.2795L13.6703 16.2803C13.767 16.5285 13.7911 16.7991 13.7397 17.0605C13.6888 17.3196 13.5658 17.5591 13.385 17.7514L11.4415 19.7019ZM6.31022 12.8877L7.90316 10.2514L7.52584 10.1176C7.52247 10.1164 7.51911 10.1152 7.51575 10.114C7.51244 10.1128 7.50913 10.1115 7.50583 10.1102C7.25693 10.0139 6.98573 9.99057 6.72402 10.0429C6.46453 10.0948 6.22503 10.219 6.03313 10.4011L4.08681 12.3423L6.31022 12.8877ZM9.62942 10.295L7.61446 13.6297L10.1464 16.1651L18.9494 10.8503C19.4884 10.505 19.9344 10.0327 20.2484 9.47481C20.5735 8.89703 20.7479 8.39495 20.75 7.67206L20.5798 3.2045L16.1207 3.03461C15.4858 3.0516 14.8644 3.22269 14.3102 3.53329C13.7525 3.84577 13.2799 4.28993 12.9334 4.82696L9.69587 10.185C9.67667 10.224 9.65438 10.2607 9.62942 10.295ZM3.04008 18.366C3.23805 18.2873 3.45113 18.2538 3.6637 18.2681C3.87628 18.2823 4.08298 18.3439 4.26867 18.4484C4.45436 18.5529 4.61432 18.6976 4.73686 18.8719C4.78652 18.9425 4.848 19.004 4.9186 19.0537C5.09271 19.1763 5.23722 19.3363 5.34154 19.522C5.44586 19.7076 5.50736 19.9142 5.52154 20.1267C5.53572 20.3392 5.50222 20.5521 5.42349 20.75C5.34476 20.9479 5.2228 21.1256 5.06652 21.2703C4.50408 21.7909 3.62319 21.9868 2.76193 22.0147C2.39405 22.0267 2.05792 22.0071 1.79782 21.9814C1.76764 21.7171 1.74296 21.375 1.75183 21.0021C1.77243 20.1356 1.96974 19.2738 2.49941 18.7441C2.50626 18.7373 2.51298 18.7303 2.51956 18.7232C2.66426 18.5668 2.84211 18.4448 3.04008 18.366ZM0.41017 22.8078C0.410221 22.808 0.410269 22.8083 1.14274 22.647L0.410269 22.8083C0.474083 23.0982 0.702916 23.3232 0.99389 23.3821L1.14274 22.647C0.99389 23.3821 0.994106 23.3822 0.994333 23.3822L0.994844 23.3823L0.996068 23.3826L0.999318 23.3832L1.00899 23.3851L1.04069 23.391C1.06718 23.3959 1.10426 23.4024 1.15087 23.4099C1.244 23.425 1.3757 23.4442 1.53737 23.4622C1.85934 23.4981 2.3073 23.5303 2.81058 23.5139C3.78387 23.4824 5.1196 23.2651 6.08544 22.3711C6.4058 22.0746 6.65583 21.7102 6.81721 21.3046C6.9786 20.899 7.04728 20.4624 7.01821 20.0268C6.98914 19.5913 6.86307 19.1677 6.64922 18.7871C6.45662 18.4444 6.19722 18.1443 5.88683 17.9045C5.64708 17.5937 5.34702 17.334 5.00419 17.1411C4.62355 16.927 4.19983 16.8006 3.76405 16.7714C3.32827 16.7422 2.89148 16.8108 2.48565 16.9723C2.08437 17.1319 1.72342 17.3783 1.42861 17.6937C0.489889 18.6405 0.275488 19.9891 0.252251 20.9665C0.240158 21.4751 0.278808 21.9294 0.320064 22.256C0.340788 22.4201 0.362422 22.5539 0.379278 22.6486C0.387715 22.696 0.394979 22.7337 0.400371 22.7606L0.406977 22.7929L0.409069 22.8027L0.409785 22.806L0.410056 22.8073L0.41017 22.8078ZM15.2207 7.61302C15.2207 7.08818 15.6462 6.66272 16.171 6.66272C16.6958 6.66272 17.1213 7.08818 17.1213 7.61302C17.1213 8.13785 16.6958 8.56331 16.171 8.56331C15.6462 8.56331 15.2207 8.13785 15.2207 7.61302ZM16.171 5.16272C14.8177 5.16272 13.7207 6.25975 13.7207 7.61302C13.7207 8.96628 14.8177 10.0633 16.171 10.0633C17.5243 10.0633 18.6213 8.96628 18.6213 7.61302C18.6213 6.25976 17.5243 5.16272 16.171 5.16272Z" fill="#767676"/>
</svg>
