<svg width="24" height="24" viewBox="0 0 24 24" fill="none" xmlns="http://www.w3.org/2000/svg">
<path d="M11.5664 1.017L10.8966 0.679459L10.8945 0.683707L11.5664 1.017ZM12.0004 0.749725V-0.000274658V0.749725ZM12.4344 1.017L13.1063 0.683701L13.1041 0.679465L12.4344 1.017ZM13.4434 3.051L12.7715 3.3843L12.7726 3.38648L13.4434 3.051ZM13.8064 3.313L13.9136 2.5707L13.9135 2.57069L13.8064 3.313ZM16.0704 3.64L15.9632 4.3823L15.9661 4.38271L16.0704 3.64ZM16.4594 3.963L17.1714 3.72736L17.1703 3.72393L16.4594 3.963ZM16.3384 4.45L15.8194 3.9085L15.8153 3.9125L16.3384 4.45ZM14.7004 6.044L15.2211 6.58374L15.2234 6.5815L14.7004 6.044ZM14.5624 6.463L13.8228 6.58764L13.8233 6.59062L14.5624 6.463ZM14.9504 8.71L15.6902 8.58674L15.6894 8.58238L14.9504 8.71ZM14.7564 9.175L14.3235 8.5625L14.3206 8.56459L14.7564 9.175ZM14.2474 9.21L14.5955 8.54568L14.5942 8.545L14.2474 9.21ZM12.2264 8.156L11.8747 8.81847L11.8796 8.821L12.2264 8.156ZM11.7744 8.156L12.1219 8.82066L12.126 8.81845L11.7744 8.156ZM9.75838 9.21L9.41089 8.54536L9.41027 8.54569L9.75838 9.21ZM9.24938 9.175L9.68515 8.56458L9.68222 8.56251L9.24938 9.175ZM9.05538 8.71L8.3163 8.58238L8.31558 8.58674L9.05538 8.71ZM9.44338 6.463L10.1824 6.59062L10.1829 6.58764L9.44338 6.463ZM9.30538 6.044L8.78313 6.5823L8.78462 6.58374L9.30538 6.044ZM7.66238 4.45L8.18463 3.9117L8.18131 3.90852L7.66238 4.45ZM7.54138 3.963L6.83049 3.72393L6.82936 3.72736L7.54138 3.963ZM7.93038 3.64L8.03471 4.38272L8.03759 4.3823L7.93038 3.64ZM10.1944 3.313L10.0873 2.57069L10.0872 2.5707L10.1944 3.313ZM10.5574 3.051L11.2282 3.38648L11.2293 3.3843L10.5574 3.051ZM12.2361 1.35454C12.2141 1.39819 12.1804 1.43488 12.1388 1.46052L11.3522 0.183292C11.1574 0.303309 10.9996 0.47508 10.8966 0.679465L12.2361 1.35454ZM12.1388 1.46052C12.0972 1.48615 12.0493 1.49973 12.0004 1.49973V-0.000274658C11.7715 -0.000274658 11.5471 0.0632745 11.3522 0.183292L12.1388 1.46052ZM12.0004 1.49973C11.9515 1.49973 11.9036 1.48615 11.8619 1.46052L12.6485 0.183292C12.4536 0.0632745 12.2293 -0.000274658 12.0004 -0.000274658V1.49973ZM11.8619 1.46052C11.8203 1.43488 11.7866 1.39819 11.7646 1.35454L13.1041 0.679465C13.0011 0.47508 12.8434 0.303309 12.6485 0.183292L11.8619 1.46052ZM11.7625 1.3503L12.7715 3.3843L14.1153 2.71771L13.1063 0.683707L11.7625 1.3503ZM12.7726 3.38648C12.8616 3.56447 12.9924 3.71827 13.1538 3.83474L14.0316 2.61846C14.0666 2.64368 14.0949 2.67698 14.1142 2.71552L12.7726 3.38648ZM13.1538 3.83474C13.3151 3.95121 13.5023 4.02689 13.6993 4.05531L13.9135 2.57069C13.9562 2.57685 13.9967 2.59323 14.0316 2.61846L13.1538 3.83474ZM13.6992 4.0553L15.9632 4.3823L16.1776 2.8977L13.9136 2.5707L13.6992 4.0553ZM15.9661 4.38271C15.9166 4.37576 15.87 4.35518 15.8316 4.32328L16.7899 3.16925C16.614 3.02325 16.401 2.92908 16.1747 2.89729L15.9661 4.38271ZM15.8316 4.32328C15.7932 4.29138 15.7644 4.24941 15.7485 4.20207L17.1703 3.72393C17.0974 3.50731 16.9657 3.31525 16.7899 3.16925L15.8316 4.32328ZM15.7474 4.19864C15.7307 4.14842 15.7287 4.09451 15.7414 4.04315L17.1972 4.40485C17.2528 4.18111 17.2438 3.94621 17.1714 3.72736L15.7474 4.19864ZM15.7414 4.04315C15.7542 3.9918 15.7812 3.94512 15.8194 3.90852L16.8573 4.99149C17.0237 4.83198 17.1416 4.62858 17.1972 4.40485L15.7414 4.04315ZM15.8153 3.9125L14.1773 5.5065L15.2234 6.5815L16.8614 4.9875L15.8153 3.9125ZM14.1796 5.50427C14.0366 5.64226 13.9294 5.81304 13.8672 6.00181L15.2919 6.47105C15.2778 6.51381 15.2535 6.55248 15.2211 6.58374L14.1796 5.50427ZM13.8672 6.00181C13.805 6.19059 13.7898 6.39166 13.8228 6.58764L15.3019 6.33836C15.3094 6.38274 15.306 6.42829 15.2919 6.47105L13.8672 6.00181ZM13.8233 6.59062L14.2113 8.83762L15.6894 8.58238L15.3014 6.33538L13.8233 6.59062ZM14.2106 8.83327C14.202 8.78208 14.2081 8.72953 14.2281 8.68163L15.6125 9.25919C15.7011 9.0468 15.728 8.81374 15.6902 8.58674L14.2106 8.83327ZM14.2281 8.68163C14.2481 8.63374 14.2812 8.59245 14.3235 8.56251L15.1892 9.7875C15.3772 9.65469 15.5238 9.47158 15.6125 9.25919L14.2281 8.68163ZM14.3206 8.56459C14.3602 8.53633 14.4068 8.5196 14.4554 8.51626L14.5583 10.0127C14.7865 9.99703 15.0059 9.91834 15.1921 9.78542L14.3206 8.56459ZM14.4554 8.51626C14.5039 8.51292 14.5524 8.52311 14.5955 8.54569L13.8993 9.87432C14.1019 9.98051 14.33 10.0284 14.5583 10.0127L14.4554 8.51626ZM14.5942 8.545L12.5732 7.491L11.8796 8.821L13.9006 9.875L14.5942 8.545ZM12.578 7.49356C12.4001 7.39912 12.2018 7.34973 12.0004 7.34973V8.84973C11.9566 8.84973 11.9134 8.83899 11.8747 8.81845L12.578 7.49356ZM12.0004 7.34973C11.799 7.34973 11.6006 7.39912 11.4227 7.49356L12.126 8.81845C12.0873 8.83899 12.0442 8.84973 12.0004 8.84973V7.34973ZM11.4269 7.49136L9.41089 8.54536L10.1059 9.87465L12.1219 8.82065L11.4269 7.49136ZM9.41027 8.54569C9.45335 8.52311 9.50185 8.51292 9.55038 8.51626L9.44748 10.0127C9.67572 10.0284 9.90385 9.98051 10.1065 9.87432L9.41027 8.54569ZM9.55038 8.51626C9.59891 8.5196 9.64556 8.53633 9.68515 8.56459L8.81361 9.78542C8.99981 9.91834 9.21923 9.99703 9.44748 10.0127L9.55038 8.51626ZM9.68222 8.56251C9.7246 8.59246 9.75767 8.63374 9.77765 8.68163L8.3933 9.25919C8.48191 9.47158 8.6286 9.65468 8.81654 9.7875L9.68222 8.56251ZM9.77765 8.68163C9.79764 8.72953 9.80371 8.78208 9.79518 8.83327L8.31558 8.58674C8.27776 8.81374 8.30469 9.0468 8.3933 9.25919L9.77765 8.68163ZM9.79444 8.83762L10.1824 6.59062L8.70432 6.33538L8.31632 8.58238L9.79444 8.83762ZM10.1829 6.58764C10.216 6.39166 10.2007 6.19058 10.1386 6.00181L8.71386 6.47105C8.69978 6.42829 8.69633 6.38275 8.70381 6.33836L10.1829 6.58764ZM10.1386 6.00181C10.0764 5.81304 9.96916 5.64227 9.82613 5.50427L8.78462 6.58374C8.75223 6.55248 8.72794 6.5138 8.71386 6.47105L10.1386 6.00181ZM9.82762 5.50571L8.18462 3.91171L7.14014 4.9883L8.78314 6.5823L9.82762 5.50571ZM8.18131 3.90852C8.21951 3.94512 8.24656 3.99181 8.25932 4.04315L6.80358 4.40485C6.85916 4.62858 6.97701 4.83198 7.14344 4.99149L8.18131 3.90852ZM8.25932 4.04315C8.27207 4.0945 8.27002 4.14841 8.2534 4.19864L6.82936 3.72736C6.75693 3.94622 6.74799 4.18112 6.80358 4.40485L8.25932 4.04315ZM8.25226 4.20207C8.23634 4.24941 8.20755 4.29138 8.16913 4.32328L7.2109 3.16925C7.03507 3.31525 6.90335 3.50731 6.8305 3.72393L8.25226 4.20207ZM8.16913 4.32328C8.13071 4.35518 8.08416 4.37576 8.03471 4.38271L7.82605 2.89729C7.59973 2.92908 7.38673 3.02325 7.2109 3.16925L8.16913 4.32328ZM8.03759 4.3823L10.3016 4.0553L10.0872 2.5707L7.82317 2.8977L8.03759 4.3823ZM10.3015 4.05531C10.4985 4.02689 10.6856 3.95121 10.847 3.83474L9.96913 2.61846C10.0041 2.59323 10.0446 2.57685 10.0873 2.57069L10.3015 4.05531ZM10.847 3.83474C11.0084 3.71827 11.1391 3.56447 11.2282 3.38648L9.88659 2.71552C9.90587 2.67698 9.93419 2.64368 9.96913 2.61846L10.847 3.83474ZM11.2293 3.3843L12.2383 1.3503L10.8945 0.683707L9.88551 2.71771L11.2293 3.3843Z" fill="#767676"/>
<path d="M5.45924 9.64999L5.806 8.98497L5.80592 8.98493L5.45924 9.64999ZM5.23274 9.5945V8.8445V9.5945ZM5.00624 9.64999L5.35282 10.3151L5.35292 10.3151L5.00624 9.64999ZM2.99124 10.7L2.64465 10.0349L2.64432 10.035L2.99124 10.7ZM2.48124 10.666L2.04722 11.2777L2.04913 11.279L2.48124 10.666ZM2.28824 10.2L1.54913 10.0726L1.54884 10.0743L2.28824 10.2ZM2.67524 7.95399L1.93617 7.82638L1.93613 7.82664L2.67524 7.95399ZM2.53824 7.53499L2.01666 8.07394L2.01733 8.07457L2.53824 7.53499ZM0.894237 5.94399L0.37265 6.48292L0.372665 6.48294L0.894237 5.94399ZM0.774237 5.45699L0.0633478 5.21792L0.0619721 5.22209L0.774237 5.45699ZM1.16324 5.13399L1.26757 5.8767L1.2705 5.87628L1.16324 5.13399ZM3.42624 4.80699L3.32079 4.06444L3.31898 4.0647L3.42624 4.80699ZM3.79024 4.54499L4.46091 4.88071L4.46198 4.87855L3.79024 4.54499ZM4.80024 2.51099L4.12984 2.17473L4.12849 2.17743L4.80024 2.51099ZM5.23211 2.99399C5.64632 2.99516 5.98306 2.66033 5.98423 2.24611C5.98541 1.8319 5.65057 1.49517 5.23636 1.49399L5.23211 2.99399ZM5.9467 10.75C6.31398 10.9415 6.76697 10.799 6.95849 10.4318C7.15 10.0645 7.00751 9.61148 6.64023 9.41997L5.9467 10.75ZM5.80592 8.98493C5.62894 8.89267 5.43231 8.8445 5.23274 8.8445V10.3445C5.19089 10.3445 5.14966 10.3344 5.11255 10.3151L5.80592 8.98493ZM5.23274 8.8445C5.03316 8.8445 4.83653 8.89267 4.65955 8.98493L5.35292 10.3151C5.31581 10.3344 5.27458 10.3445 5.23274 10.3445V8.8445ZM4.65965 8.98487L2.64465 10.0349L3.33782 11.3651L5.35282 10.3151L4.65965 8.98487ZM2.64432 10.035C2.68649 10.013 2.7339 10.0031 2.78135 10.0062L2.68157 11.5029C2.90895 11.5181 3.13611 11.4703 3.33815 11.3649L2.64432 10.035ZM2.78135 10.0062C2.82881 10.0094 2.87447 10.0256 2.91335 10.053L2.04913 11.279C2.23538 11.4103 2.4542 11.4878 2.68157 11.5029L2.78135 10.0062ZM2.91525 10.0543C2.95763 10.0844 2.99065 10.1258 3.01053 10.1738L1.62469 10.7478C1.71285 10.9606 1.85931 11.1443 2.04722 11.2777L2.91525 10.0543ZM3.01053 10.1738C3.03041 10.2218 3.03634 10.2744 3.02763 10.3257L1.54884 10.0743C1.51023 10.3015 1.53652 10.5349 1.62469 10.7478L3.01053 10.1738ZM3.02734 10.3273L3.41434 8.08134L1.93613 7.82664L1.54913 10.0726L3.02734 10.3273ZM3.4143 8.0816C3.44819 7.88532 3.43355 7.68372 3.37164 7.49439L1.94592 7.96056C1.93177 7.91729 1.92843 7.87123 1.93617 7.82638L3.4143 8.0816ZM3.37164 7.49439C3.30974 7.30506 3.20246 7.13375 3.05915 6.9954L2.01733 8.07457C1.98458 8.04296 1.96006 8.00382 1.94592 7.96056L3.37164 7.49439ZM3.05981 6.99604L1.41581 5.40504L0.372665 6.48294L2.01667 8.07394L3.05981 6.99604ZM1.41582 5.40506C1.45337 5.4414 1.47991 5.48758 1.49241 5.53831L0.0359778 5.89719C0.0909275 6.12019 0.207611 6.32319 0.37265 6.48292L1.41582 5.40506ZM1.49241 5.53831C1.50492 5.58904 1.50287 5.64227 1.4865 5.69189L0.0619721 5.22209C-0.00996292 5.44021 -0.0189719 5.67418 0.0359778 5.89719L1.49241 5.53831ZM1.48511 5.69606C1.46919 5.7434 1.44041 5.78537 1.40199 5.81727L0.443756 4.66324C0.267926 4.80924 0.13621 5.0013 0.06336 5.21792L1.48511 5.69606ZM1.40199 5.81727C1.36357 5.84917 1.31702 5.86975 1.26756 5.8767L1.05891 4.39128C0.832587 4.42307 0.619585 4.51724 0.443756 4.66324L1.40199 5.81727ZM1.2705 5.87628L3.5335 5.54928L3.31898 4.0647L1.05598 4.3917L1.2705 5.87628ZM3.53169 5.54954C3.72911 5.5215 3.91679 5.446 4.07863 5.32951L3.20235 4.11209C3.23739 4.08686 3.27804 4.07051 3.32079 4.06444L3.53169 5.54954ZM4.07863 5.32951C4.24047 5.21302 4.37164 5.05902 4.4609 4.88071L3.11957 4.20927C3.1389 4.17066 3.1673 4.13731 3.20235 4.11209L4.07863 5.32951ZM4.46198 4.87855L5.47198 2.84455L4.12849 2.17743L3.11849 4.21143L4.46198 4.87855ZM5.47063 2.84725C5.44845 2.89147 5.41438 2.92862 5.37225 2.95455L4.58626 1.67696C4.39079 1.79721 4.23273 1.96959 4.12984 2.17473L5.47063 2.84725ZM5.37225 2.95455C5.33011 2.98047 5.28158 2.99413 5.23211 2.99399L5.23636 1.49399C5.00687 1.49334 4.78173 1.5567 4.58626 1.67696L5.37225 2.95455ZM6.64023 9.41997L5.806 8.98497L5.11247 10.315L5.9467 10.75L6.64023 9.41997Z" fill="#767676"/>
<path d="M18.5411 9.64899L18.1944 8.98393L18.1937 8.98428L18.5411 9.64899ZM18.9941 9.64899L19.3409 8.98401L19.3408 8.98393L18.9941 9.64899ZM21.0091 10.7L21.356 10.035L21.3559 10.035L21.0091 10.7ZM21.5191 10.666L21.9512 11.279L21.9531 11.2777L21.5191 10.666ZM21.7121 10.2L22.4515 10.0743L22.4512 10.0726L21.7121 10.2ZM21.3251 7.95399L22.0642 7.82664L22.0641 7.82638L21.3251 7.95399ZM21.4621 7.53499L21.983 8.07458L21.9843 8.07328L21.4621 7.53499ZM23.1061 5.93999L22.5845 5.40106L22.5838 5.4017L23.1061 5.93999ZM23.2261 5.45299L23.9384 5.21808L23.937 5.21392L23.2261 5.45299ZM22.8371 5.12999L22.7298 5.87229L22.7327 5.8727L22.8371 5.12999ZM20.5741 4.80299L20.6813 4.0607L20.6795 4.06044L20.5741 4.80299ZM20.2101 4.54099L19.5386 4.87508L19.5394 4.87671L20.2101 4.54099ZM19.2001 2.51099L19.8716 2.1769L19.8705 2.17473L19.2001 2.51099ZM18.7639 1.49399C18.3497 1.49517 18.0149 1.8319 18.0161 2.24611C18.0173 2.66033 18.354 2.99516 18.7682 2.99399L18.7639 1.49399ZM17.3499 9.42526C16.9828 9.6171 16.8407 10.0702 17.0326 10.4373C17.2244 10.8044 17.6775 10.9465 18.0446 10.7547L17.3499 9.42526ZM18.8878 10.3141C18.8507 10.3334 18.8094 10.3435 18.7676 10.3435V8.8435C18.568 8.8435 18.3714 8.89167 18.1944 8.98393L18.8878 10.3141ZM18.7676 10.3435C18.7257 10.3435 18.6845 10.3334 18.6474 10.3141L19.3408 8.98393C19.1638 8.89167 18.9672 8.8435 18.7676 8.8435V10.3435ZM18.6472 10.314L20.6622 11.365L21.3559 10.035L19.3409 8.98401L18.6472 10.314ZM20.6622 11.3649C20.8642 11.4703 21.0914 11.5181 21.3187 11.5029L21.219 10.0062C21.2664 10.0031 21.3138 10.013 21.356 10.035L20.6622 11.3649ZM21.3187 11.5029C21.5461 11.4878 21.7649 11.4103 21.9512 11.279L21.087 10.053C21.1258 10.0256 21.1715 10.0094 21.219 10.0062L21.3187 11.5029ZM21.9531 11.2777C22.141 11.1443 22.2875 10.9606 22.3756 10.7478L20.9898 10.1738C21.0097 10.1258 21.0427 10.0844 21.0851 10.0543L21.9531 11.2777ZM22.3756 10.7478C22.4638 10.5349 22.4901 10.3015 22.4515 10.0743L20.9727 10.3257C20.964 10.2744 20.9699 10.2218 20.9898 10.1738L22.3756 10.7478ZM22.4512 10.0726L22.0642 7.82664L20.586 8.08134L20.973 10.3273L22.4512 10.0726ZM22.0641 7.82638C22.0719 7.87123 22.0685 7.91729 22.0544 7.96056L20.6287 7.49439C20.5668 7.68372 20.5521 7.88532 20.586 8.0816L22.0641 7.82638ZM22.0544 7.96056C22.0402 8.00381 22.0157 8.04296 21.983 8.07457L20.9412 6.9954C20.7979 7.13376 20.6906 7.30507 20.6287 7.49439L22.0544 7.96056ZM21.9843 8.07328L23.6283 6.47828L22.5838 5.4017L20.9398 6.9967L21.9843 8.07328ZM23.6277 6.47892C23.7927 6.31919 23.9094 6.11619 23.9643 5.89319L22.5079 5.53431C22.5204 5.48358 22.5469 5.4374 22.5845 5.40106L23.6277 6.47892ZM23.9643 5.89319C24.0193 5.67018 24.0103 5.43621 23.9383 5.21809L22.5138 5.68789C22.4974 5.63827 22.4954 5.58504 22.5079 5.53431L23.9643 5.89319ZM23.937 5.21392C23.8641 4.9973 23.7324 4.80524 23.5566 4.65924L22.5983 5.81327C22.5599 5.78137 22.5311 5.7394 22.5152 5.69206L23.937 5.21392ZM23.5566 4.65924C23.3807 4.51324 23.1677 4.41907 22.9414 4.38728L22.7327 5.8727C22.6833 5.86575 22.6367 5.84517 22.5983 5.81327L23.5566 4.65924ZM22.9443 4.3877L20.6813 4.0607L20.4668 5.54528L22.7298 5.87228L22.9443 4.3877ZM20.6795 4.06044C20.7223 4.06651 20.7629 4.08286 20.798 4.10809L19.9217 5.32551C20.0835 5.442 20.2712 5.5175 20.4686 5.54554L20.6795 4.06044ZM20.798 4.10809C20.833 4.13331 20.8614 4.16666 20.8807 4.20527L19.5394 4.87671C19.6287 5.05502 19.7598 5.20903 19.9217 5.32551L20.798 4.10809ZM20.8816 4.2069L19.8716 2.1769L18.5286 2.84508L19.5386 4.87508L20.8816 4.2069ZM19.8705 2.17473C19.7676 1.96959 19.6095 1.79721 19.414 1.67696L18.6281 2.95455C18.5859 2.92863 18.5519 2.89147 18.5297 2.84725L19.8705 2.17473ZM19.414 1.67696C19.2186 1.55671 18.9934 1.49334 18.7639 1.49399L18.7682 2.99399C18.7187 2.99413 18.6702 2.98047 18.6281 2.95455L19.414 1.67696ZM18.0446 10.7547L18.8884 10.3137L18.1937 8.98428L17.3499 9.42526L18.0446 10.7547Z" fill="#767676"/>
<path d="M3 13.25C2.58579 13.25 2.25 13.5858 2.25 14C2.25 14.4142 2.58579 14.75 3 14.75V13.25ZM21 14.75C21.4142 14.75 21.75 14.4142 21.75 14C21.75 13.5858 21.4142 13.25 21 13.25V14.75ZM3 14.75H21V13.25H3V14.75Z" fill="#767676"/>
<path d="M3 21.25C2.58579 21.25 2.25 21.5858 2.25 22C2.25 22.4142 2.58579 22.75 3 22.75V21.25ZM21 22.75C21.4142 22.75 21.75 22.4142 21.75 22C21.75 21.5858 21.4142 21.25 21 21.25V22.75ZM3 22.75H21V21.25H3V22.75Z" fill="#767676"/>
<path d="M3 17.25C2.58579 17.25 2.25 17.5858 2.25 18C2.25 18.4142 2.58579 18.75 3 18.75V17.25ZM17 18.75C17.4142 18.75 17.75 18.4142 17.75 18C17.75 17.5858 17.4142 17.25 17 17.25V18.75ZM3 18.75H17V17.25H3V18.75Z" fill="#767676"/>
</svg>
