<svg width="24" height="24" viewBox="0 0 24 24" fill="none" xmlns="http://www.w3.org/2000/svg">
<g clip-path="url(#clip0_148_211)">
<path d="M12.3852 15.925C13.4765 15.925 14.3612 15.0403 14.3612 13.949C14.3612 12.8577 13.4765 11.973 12.3852 11.973C11.2939 11.973 10.4092 12.8577 10.4092 13.949C10.4092 15.0403 11.2939 15.925 12.3852 15.925Z" stroke="#767676" stroke-width="1.5" stroke-linecap="round" stroke-linejoin="round"/>
<path d="M17.6514 6.78601C18.6066 7.48761 19.4117 8.37328 20.0193 9.39086C20.6173 10.3922 21.012 11.5013 21.1813 12.6549" stroke="#767676" stroke-width="1.5" stroke-linecap="round" stroke-linejoin="round"/>
<path d="M3.58105 12.711C3.74587 11.5374 4.14378 10.4086 4.75139 9.39103C5.35509 8.38003 6.15367 7.49916 7.10066 6.79956" stroke="#767676" stroke-width="1.5" stroke-linecap="round" stroke-linejoin="round"/>
<path d="M8.25293 21.821C9.47577 22.4634 10.8315 22.8119 12.2126 22.8388C13.5843 22.8656 14.9434 22.5743 16.1835 21.9881" stroke="#767676" stroke-width="1.5" stroke-linecap="round" stroke-linejoin="round"/>
<path d="M11.7134 12.091L10.5434 11.091C10.086 10.6981 9.76251 10.1724 9.61787 9.58699C9.47324 9.00163 9.51465 8.38574 9.73637 7.82501L12.1004 1.87201C12.1925 1.61627 12.3743 1.40267 12.6121 1.27091C12.8499 1.13915 13.1274 1.09818 13.393 1.15562C13.6587 1.21306 13.8945 1.365 14.0566 1.58321C14.2187 1.80142 14.2961 2.07105 14.2744 2.34201L13.5004 12.319" stroke="#767676" stroke-width="1.5" stroke-linecap="round" stroke-linejoin="round"/>
<path d="M11.1119 15.46L10.8279 16.975C10.7171 17.5684 10.4235 18.1124 9.98808 18.5305C9.55268 18.9487 8.99737 19.2202 8.39994 19.307L2.06594 20.235C1.79885 20.2818 1.52384 20.2304 1.29169 20.0903C1.05954 19.9502 0.88593 19.7308 0.802927 19.4726C0.719925 19.2145 0.733132 18.935 0.84011 18.6858C0.947087 18.4367 1.14061 18.2346 1.38494 18.117L10.4119 13.797" stroke="#767676" stroke-width="1.5" stroke-linecap="round" stroke-linejoin="round"/>
<path d="M14.3303 14.3L15.7843 13.788C16.3532 13.5874 16.9705 13.5697 17.5499 13.7371C18.1294 13.9046 18.6421 14.2489 19.0163 14.722L22.9873 19.744C23.1609 19.952 23.2535 20.2157 23.2479 20.4866C23.2424 20.7574 23.1391 21.0172 22.9572 21.2179C22.7752 21.4186 22.5268 21.5468 22.2578 21.5788C21.9888 21.6108 21.7172 21.5444 21.4933 21.392L13.2383 15.735" stroke="#767676" stroke-width="1.5" stroke-linecap="round" stroke-linejoin="round"/>
</g>
<defs>
<clipPath id="clip0_148_211">
<rect width="24" height="24" fill="white"/>
</clipPath>
</defs>
</svg>
