<svg width="24" height="24" viewBox="0 0 24 24" fill="none" xmlns="http://www.w3.org/2000/svg">
<g clip-path="url(#clip0)">
<path fill-rule="evenodd" clip-rule="evenodd" d="M12.9756 1.92691C13.0545 1.88322 13.1465 1.86964 13.2346 1.88868C13.3227 1.90773 13.4008 1.9581 13.4546 2.03045C13.5083 2.1028 13.534 2.1922 13.5268 2.28203L13.5266 2.284L12.8303 11.2592C12.6855 11.2354 12.5368 11.223 12.3852 11.223C12.2203 11.223 12.0589 11.2376 11.9021 11.2657L11.0321 10.5221L11.0315 10.5216C10.6927 10.2303 10.4531 9.84079 10.346 9.40708C10.2388 8.97326 10.2694 8.51683 10.4336 8.10123L10.4338 8.10079L12.7974 2.14882C12.8004 2.14133 12.8032 2.13379 12.806 2.1262C12.8365 2.04141 12.8968 1.97059 12.9756 1.92691ZM11.9438 12.8048C11.9606 12.7994 11.9772 12.7935 11.9936 12.7869C12.1165 12.7454 12.2482 12.723 12.3852 12.723C12.6297 12.723 12.8575 12.7946 13.0488 12.918C13.0671 12.9318 13.0861 12.9448 13.1057 12.957C13.412 13.1798 13.6112 13.5412 13.6112 13.949C13.6112 14.6261 13.0623 15.175 12.3852 15.175C12.0894 15.175 11.8182 15.0703 11.6064 14.8959C11.599 14.8894 11.5914 14.883 11.5837 14.8768C11.3237 14.652 11.1592 14.3197 11.1592 13.949C11.1592 13.4275 11.4848 12.982 11.9438 12.8048ZM12.3852 16.675C12.136 16.675 11.8946 16.6416 11.6653 16.5789L11.5652 17.1126C11.4257 17.8599 11.0559 18.5449 10.5076 19.0715C9.95947 19.5979 9.26041 19.9398 8.50833 20.0491L8.50775 20.0492L2.18375 20.9757C1.74196 21.0503 1.28791 20.9641 0.904105 20.7324C0.516913 20.4987 0.227363 20.1327 0.088927 19.7022C-0.0495092 19.2716 -0.0274817 18.8055 0.150942 18.3899C0.329366 17.9744 0.652135 17.6374 1.05964 17.4412L1.06118 17.4405L9.7401 13.2871C9.86264 12.7958 10.1184 12.3574 10.4668 12.0122L10.0561 11.6611L10.0546 11.6599C9.47898 11.1653 9.07182 10.5036 8.88977 9.7669C8.70773 9.03015 8.75986 8.25498 9.03891 7.54924L9.03932 7.54821L11.3994 1.60502C11.5546 1.18401 11.8558 0.832552 12.2485 0.614913C12.6452 0.395072 13.1082 0.326719 13.5515 0.422554C13.9948 0.51839 14.3882 0.771897 14.6587 1.13597C14.9289 1.49974 15.058 1.94917 15.0221 2.40087L15.022 2.40199L14.2783 11.9876C14.6333 12.3303 14.8955 12.7685 15.0236 13.2607L15.5349 13.0807L15.5352 13.0806C16.2514 12.8281 17.0286 12.8058 17.7582 13.0166C18.4878 13.2275 19.1333 13.661 19.6045 14.2567L19.6046 14.2568L23.5702 19.272C23.8552 19.6175 24.0069 20.0539 23.9978 20.5019C23.9885 20.9537 23.8163 21.3869 23.5128 21.7216C23.2093 22.0564 22.7951 22.2702 22.3464 22.3235C21.8977 22.3769 21.4448 22.2663 21.0713 22.012L21.0693 22.0107L13.1321 16.5714C12.8947 16.6389 12.6442 16.675 12.3852 16.675ZM14.4889 15.6828L21.9153 20.772L21.916 20.7725C21.9903 20.8228 22.0802 20.8446 22.1692 20.834C22.2586 20.8234 22.3411 20.7808 22.4015 20.7142C22.4619 20.6475 22.4962 20.5612 22.4981 20.4713C22.4999 20.3813 22.4692 20.2937 22.4115 20.2246L22.399 20.2092L18.4281 15.1873C18.1508 14.8368 17.771 14.5817 17.3417 14.4576C16.9124 14.3336 16.4551 14.3468 16.0336 14.4953L16.0334 14.4954L14.9491 14.8772C14.842 15.1729 14.6852 15.4448 14.4889 15.6828ZM9.83191 14.906C9.94251 15.201 10.1027 15.4716 10.3024 15.7078L10.0908 16.8368L10.0907 16.8374C10.0086 17.2769 9.79107 17.6799 9.46855 17.9896C9.14603 18.2994 8.73468 18.5005 8.29213 18.5648L8.29122 18.5649L1.95722 19.4929L1.93643 19.4963C1.84772 19.5118 1.75638 19.4947 1.67927 19.4482C1.60216 19.4017 1.5445 19.3288 1.51693 19.243C1.48936 19.1573 1.49375 19.0645 1.52928 18.9817C1.56473 18.8991 1.62881 18.8321 1.70972 18.793L1.71024 18.7928L9.83191 14.906ZM7.56315 7.39039C7.89694 7.14513 7.9687 6.67571 7.72344 6.34192C7.47817 6.00812 7.00875 5.93636 6.67496 6.18163C5.63931 6.94262 4.76635 7.90309 4.10746 9.00652C3.44857 10.1099 3.01706 11.334 2.83834 12.6067C2.78074 13.0169 3.06657 13.3961 3.47676 13.4537C3.88695 13.5113 4.26617 13.2255 4.32377 12.8153C4.47467 11.7407 4.839 10.7072 5.39532 9.77554C5.95165 8.84388 6.68872 8.03292 7.56315 7.39039ZM17.0469 6.34203C17.2921 6.00819 17.7615 5.93634 18.0953 6.18155C19.1312 6.94239 20.0043 7.90285 20.6633 9.00634C21.3222 10.1098 21.7536 11.3341 21.9321 12.6069C21.9896 13.0171 21.7037 13.3962 21.2935 13.4537C20.8833 13.5113 20.5042 13.2254 20.4466 12.8152C20.2959 11.7406 19.9317 10.707 19.3754 9.77537C18.8191 8.84372 18.0819 8.03284 17.2074 7.39048C16.8735 7.14527 16.8017 6.67587 17.0469 6.34203ZM7.58898 21.4722C7.78163 21.1055 8.23506 20.9644 8.60175 21.157C9.72138 21.7453 10.9627 22.0643 12.2272 22.089C13.4917 22.1136 14.7445 21.8431 15.8862 21.299C16.2602 21.1207 16.7077 21.2794 16.886 21.6533C17.0642 22.0272 16.9055 22.4748 16.5316 22.653C15.1794 23.2975 13.6956 23.6179 12.198 23.5887C10.7004 23.5595 9.23016 23.1816 7.90411 22.4849C7.53743 22.2923 7.39634 21.8389 7.58898 21.4722Z" fill="#474445"/>
</g>
<defs>
<clipPath id="clip0">
<rect width="24" height="24" fill="white"/>
</clipPath>
</defs>
</svg>
