<svg width="24" height="24" viewBox="0 0 24 24" fill="none" xmlns="http://www.w3.org/2000/svg">
<path d="M12.3857 15.9243C13.4769 15.9243 14.3616 15.0397 14.3616 13.9484C14.3616 12.8572 13.4769 11.9725 12.3857 11.9725C11.2944 11.9725 10.4097 12.8572 10.4097 13.9484C10.4097 15.0397 11.2944 15.9243 12.3857 15.9243Z" stroke="#71717A" stroke-width="1.5" stroke-linecap="round" stroke-linejoin="round"/>
<path d="M17.6516 6.78573C18.6068 7.48731 19.4119 8.37294 20.0195 9.39047C20.6174 10.3918 21.0121 11.5008 21.1814 12.6543" stroke="#71717A" stroke-width="1.5" stroke-linecap="round" stroke-linejoin="round"/>
<path d="M3.58189 12.7105C3.74669 11.5369 4.14459 10.4081 4.75217 9.39065C5.35585 8.37968 6.1544 7.49885 7.10135 6.79928" stroke="#71717A" stroke-width="1.5" stroke-linecap="round" stroke-linejoin="round"/>
<path d="M8.25357 21.8201C9.47636 22.4625 10.8321 22.811 12.2131 22.8379C13.5847 22.8646 14.9438 22.5734 16.1838 21.9872" stroke="#71717A" stroke-width="1.5" stroke-linecap="round" stroke-linejoin="round"/>
<path d="M11.7139 12.0905L10.5439 11.0906C10.0866 10.6976 9.76309 10.1719 9.61846 9.5866C9.47383 9.00126 9.51524 8.3854 9.73695 7.82469L12.1009 1.87193C12.193 1.6162 12.3748 1.40262 12.6126 1.27086C12.8503 1.1391 13.1278 1.09813 13.3935 1.15557C13.6592 1.21301 13.895 1.36494 14.057 1.58314C14.2191 1.80134 14.2965 2.07097 14.2748 2.34192L13.5008 12.3185" stroke="#71717A" stroke-width="1.5" stroke-linecap="round" stroke-linejoin="round"/>
<path d="M11.1125 15.4594L10.8285 16.9743C10.7177 17.5677 10.424 18.1116 9.98865 18.5298C9.55327 18.9479 8.99798 19.2194 8.40058 19.3062L2.06683 20.2342C1.79975 20.281 1.52475 20.2296 1.29261 20.0895C1.06047 19.9493 0.88687 19.73 0.803871 19.4718C0.720872 19.2137 0.734078 18.9342 0.841052 18.6851C0.948025 18.4359 1.14154 18.2339 1.38586 18.1163L10.4125 13.7964" stroke="#71717A" stroke-width="1.5" stroke-linecap="round" stroke-linejoin="round"/>
<path d="M14.3307 14.2994L15.7846 13.7874C16.3535 13.5869 16.9708 13.5691 17.5502 13.7366C18.1297 13.904 18.6423 14.2483 19.0165 14.7214L22.9873 19.7432C23.1609 19.9512 23.2535 20.2149 23.248 20.4857C23.2424 20.7566 23.1392 21.0163 22.9572 21.217C22.7753 21.4177 22.5269 21.5459 22.2579 21.5779C21.9889 21.6099 21.7173 21.5436 21.4934 21.3911L13.2387 15.7344" stroke="#71717A" stroke-width="1.5" stroke-linecap="round" stroke-linejoin="round"/>
</svg>
