<svg width="24" height="24" viewBox="0 0 24 24" fill="none" xmlns="http://www.w3.org/2000/svg">
<path fill-rule="evenodd" clip-rule="evenodd" d="M1.5 12C1.5 6.20101 6.20101 1.5 12 1.5C17.799 1.5 22.5 6.20101 22.5 12C22.5 17.799 17.799 22.5 12 22.5C6.20101 22.5 1.5 17.799 1.5 12ZM12 0C5.37258 0 0 5.37258 0 12C0 18.6274 5.37258 24 12 24C18.6274 24 24 18.6274 24 12C24 5.37258 18.6274 0 12 0ZM12.1552 6.75594C11.7437 6.72749 11.3323 6.8127 10.966 7.00227C10.5996 7.19183 10.2924 7.47845 10.078 7.8308C9.86354 8.18315 9.75008 8.58767 9.75 9.00015C9.74992 9.41436 9.41407 9.75009 8.99986 9.75001C8.58564 9.74993 8.24992 9.41408 8.25 8.99986C8.25013 8.3124 8.43924 7.6382 8.79665 7.05095C9.15407 6.4637 9.66603 5.986 10.2766 5.67006C10.8872 5.35412 11.5728 5.21209 12.2587 5.25951C12.9445 5.30693 13.6041 5.54196 14.1654 5.93893C14.7266 6.33589 15.168 6.8795 15.4412 7.51035C15.7144 8.1412 15.8089 8.83501 15.7144 9.51595C15.6199 10.1969 15.3401 10.8388 14.9055 11.3714C14.4708 11.904 13.8981 12.307 13.25 12.5361C13.1037 12.5878 12.9771 12.6837 12.8875 12.8104C12.798 12.9371 12.7499 13.0885 12.75 13.2436V13.244V14.25C12.75 14.6642 12.4142 15 12 15C11.5858 15 11.25 14.6642 11.25 14.25V13.2444V13.244C11.2498 12.7787 11.394 12.3247 11.6625 11.9447C11.9312 11.5645 12.3111 11.2771 12.75 11.1219C13.1389 10.9844 13.4825 10.7427 13.7433 10.4231C14.0041 10.1035 14.172 9.71837 14.2286 9.3098C14.2853 8.90124 14.2286 8.48495 14.0647 8.10644C13.9008 7.72793 13.636 7.40176 13.2992 7.16359C12.9624 6.92541 12.5667 6.78439 12.1552 6.75594ZM12 17C11.8022 17 11.6089 17.0586 11.4444 17.1685C11.28 17.2784 11.1518 17.4346 11.0761 17.6173C11.0004 17.8 10.9806 18.0011 11.0192 18.1951C11.0578 18.3891 11.153 18.5673 11.2929 18.7071C11.4327 18.847 11.6109 18.9422 11.8049 18.9808C11.9989 19.0194 12.2 18.9996 12.3827 18.9239C12.5654 18.8482 12.7216 18.72 12.8315 18.5556C12.9414 18.3911 13 18.1978 13 18C13 17.7348 12.8946 17.4804 12.7071 17.2929C12.5196 17.1054 12.2652 17 12 17Z" fill="#474445"/>
</svg>
