<svg width="24" height="24" viewBox="0 0 24 24" fill="none" xmlns="http://www.w3.org/2000/svg">
<path d="M20.5073 0.999995L20.5073 4.67576L16.5232 4.67576" stroke="#767676" stroke-width="1.5" stroke-linecap="round" stroke-linejoin="round"/>
<path d="M19.4354 4.54536C19.7366 4.82971 20.2113 4.81606 20.4956 4.51486C20.78 4.21367 20.7663 3.73899 20.4651 3.45464L19.4354 4.54536ZM23.3491 16.2728C23.4998 15.887 23.3092 15.4521 22.9233 15.3014C22.5375 15.1507 22.1026 15.3413 21.9519 15.7272L23.3491 16.2728ZM12.4004 22.25C6.73947 22.25 2.15039 17.6609 2.15039 12H0.650391C0.650391 18.4893 5.91104 23.75 12.4004 23.75V22.25ZM2.15039 12C2.15039 6.33908 6.73947 1.75 12.4004 1.75V0.25C5.91104 0.25 0.650391 5.51065 0.650391 12H2.15039ZM12.4004 1.75C15.1245 1.75 17.599 2.8117 19.4354 4.54536L20.4651 3.45464C18.3614 1.46861 15.5224 0.25 12.4004 0.25V1.75ZM21.9519 15.7272C20.4604 19.5464 16.7452 22.25 12.4004 22.25V23.75C17.3835 23.75 21.6404 20.6483 23.3491 16.2728L21.9519 15.7272Z" fill="#767676"/>
</svg>
