<svg width="24" height="24" viewBox="0 0 24 24" fill="none" xmlns="http://www.w3.org/2000/svg">
<g clip-path="url(#clip0_1312:540)">
<path fill-rule="evenodd" clip-rule="evenodd" d="M13.5 0.754028C13.5 0.339815 13.1642 0.00402832 12.75 0.00402832C12.3358 0.00402832 12 0.339815 12 0.754028V1.53289C9.68853 1.71114 7.50659 2.70886 5.85571 4.35974C4.20483 6.01062 3.20711 8.19256 3.02887 10.504H2.25C1.83579 10.504 1.5 10.8398 1.5 11.254C1.5 11.6682 1.83579 12.004 2.25 12.004H3.75H20.5381L20.4087 12.2635L20.4083 12.2643C20.2212 12.6366 19.9345 12.9496 19.5799 13.1685C19.2252 13.3875 18.8166 13.5037 18.3998 13.504H18.3995H11.25C10.8358 13.504 10.5 13.8398 10.5 14.254C10.5 14.6682 10.8358 15.004 11.25 15.004H18.4H18.4005C19.0955 15.0035 19.7766 14.81 20.3679 14.4449C20.9592 14.0798 21.4375 13.5576 21.7493 12.9365L21.7502 12.9346L22.2141 12.004H23.25C23.6642 12.004 24 11.6682 24 11.254C24 10.8398 23.6642 10.504 23.25 10.504H22.4711C22.2929 8.19256 21.2952 6.01062 19.6443 4.35974C17.9934 2.70886 15.8115 1.71114 13.5 1.53289V0.754028ZM18.5836 5.4204C19.953 6.78979 20.7913 8.59103 20.9659 10.504H4.53414C4.7087 8.59103 5.54697 6.78979 6.91637 5.4204C8.46354 3.87322 10.562 3.00403 12.75 3.00403C14.938 3.00403 17.0365 3.87322 18.5836 5.4204ZM0.75 13.504C1.16421 13.504 1.5 13.8398 1.5 14.254V15.004H6C6.99456 15.004 7.94839 15.3991 8.65165 16.1024C9.17544 16.6262 9.52827 17.2889 9.67425 18.004H12.75C13.7446 18.004 14.6984 18.3991 15.4017 19.1024C16.1049 19.8056 16.5 20.7595 16.5 21.754C16.5 22.1682 16.1642 22.504 15.75 22.504H1.5V23.254C1.5 23.6682 1.16421 24.004 0.75 24.004C0.335786 24.004 0 23.6682 0 23.254V21.754V15.754V14.254C0 13.8398 0.335786 13.504 0.75 13.504ZM1.5 21.004V16.504H6C6.59674 16.504 7.16903 16.7411 7.59099 17.163C7.83054 17.4026 8.0105 17.6906 8.12132 18.004H6C5.58579 18.004 5.25 18.3398 5.25 18.754C5.25 19.1682 5.58579 19.504 6 19.504H9H12.75C13.3467 19.504 13.919 19.7411 14.341 20.163C14.5805 20.4026 14.7605 20.6906 14.8713 21.004H1.5Z" fill="#767676"/>
</g>
<defs>
<clipPath id="clip0_1312:540">
<rect width="24" height="24" fill="white"/>
</clipPath>
</defs>
</svg>
