<svg width="24" height="24" viewBox="0 0 24 24" fill="none" xmlns="http://www.w3.org/2000/svg">
<g clip-path="url(#clip0_964_3)">
<path d="M0.749886 23.263C1.56432 23.3638 2.39099 23.2814 3.16953 23.0219C3.94806 22.7624 4.65882 22.3323 5.24989 21.763C5.67621 22.2352 6.19688 22.6127 6.77824 22.8711C7.3596 23.1294 7.9887 23.2629 8.62489 23.2629C9.26107 23.2629 9.89018 23.1294 10.4715 22.8711C11.0529 22.6127 11.5736 22.2352 11.9999 21.763C12.4262 22.2352 12.9469 22.6127 13.5282 22.8711C14.1096 23.1294 14.7387 23.2629 15.3749 23.2629C16.0111 23.2629 16.6402 23.1294 17.2215 22.8711C17.8029 22.6127 18.3236 22.2352 18.7499 21.763C19.341 22.3323 20.0517 22.7624 20.8302 23.0219C21.6088 23.2814 22.4354 23.3638 23.2499 23.263M21.7569 20.271C22.3564 19.7194 22.8419 19.0555 23.1859 18.317C23.2365 18.2028 23.2578 18.0777 23.2479 17.9532C23.2379 17.8287 23.197 17.7086 23.1288 17.6039C23.0607 17.4992 22.9675 17.4131 22.8576 17.3536C22.7478 17.2941 22.6248 17.2629 22.4999 17.263H1.49989C1.37495 17.2629 1.25198 17.2941 1.14214 17.3536C1.0323 17.4131 0.939075 17.4992 0.870925 17.6039C0.802774 17.7086 0.761861 17.8287 0.7519 17.9532C0.741938 18.0777 0.763245 18.2028 0.813885 18.317C1.2296 19.2003 1.84025 19.9778 2.59988 20.591M11.2499 17.263V2.02999C11.25 1.76355 11.166 1.50387 11.0101 1.28787C10.8541 1.07187 10.634 0.910536 10.381 0.826813C10.1281 0.74309 9.85519 0.741237 9.60113 0.821517C9.34708 0.901797 9.1248 1.06012 8.96589 1.27399L2.27089 11.6C2.19671 11.7132 2.15455 11.8444 2.1489 11.9797C2.14326 12.115 2.17432 12.2492 2.23881 12.3683C2.3033 12.4873 2.3988 12.5866 2.51519 12.6558C2.63158 12.7249 2.76452 12.7613 2.89989 12.761L11.2479 12.749M15.6309 5.91099C15.5433 5.7746 15.4138 5.67028 15.2619 5.61364C15.11 5.557 14.9439 5.5511 14.7883 5.59683C14.6328 5.64255 14.4963 5.73743 14.3992 5.86726C14.3021 5.99709 14.2498 6.15488 14.2499 6.31699V14.263H19.6259C19.7605 14.2627 19.8926 14.2263 20.0083 14.1575C20.124 14.0886 20.2191 13.99 20.2836 13.8718C20.3481 13.7536 20.3797 13.6203 20.375 13.4857C20.3703 13.3512 20.3295 13.2204 20.2569 13.107L15.6309 5.91099Z" stroke="#767676" stroke-width="1.5" stroke-linecap="round" stroke-linejoin="round"/>
</g>
<defs>
<clipPath id="clip0_964_3">
<rect width="24" height="24" fill="white"/>
</clipPath>
</defs>
</svg>
