<svg width="24" height="24" viewBox="0 0 24 24" fill="none" xmlns="http://www.w3.org/2000/svg">
<g clip-path="url(#clip0)">
<path d="M0.75 23.263C1.56444 23.3638 2.3911 23.2814 3.16964 23.0219C3.94818 22.7624 4.65893 22.3323 5.25 21.763C5.67632 22.2352 6.19699 22.6127 6.77835 22.8711C7.35971 23.1294 7.98881 23.2629 8.625 23.2629C9.26119 23.2629 9.89029 23.1294 10.4716 22.8711C11.053 22.6127 11.5737 22.2352 12 21.763C12.4263 22.2352 12.947 22.6127 13.5284 22.8711C14.1097 23.1294 14.7388 23.2629 15.375 23.2629C16.0112 23.2629 16.6403 23.1294 17.2216 22.8711C17.803 22.6127 18.3237 22.2352 18.75 21.763C19.3411 22.3323 20.0518 22.7624 20.8304 23.0219C21.6089 23.2814 22.4356 23.3638 23.25 23.263" stroke="#474445" stroke-width="1.5" stroke-linecap="round" stroke-linejoin="round"/>
<path d="M21.7569 20.271C22.3564 19.7194 22.8419 19.0555 23.1859 18.317C23.2365 18.2028 23.2578 18.0777 23.2479 17.9532C23.2379 17.8287 23.197 17.7086 23.1288 17.6039C23.0607 17.4992 22.9675 17.4131 22.8576 17.3536C22.7478 17.2941 22.6248 17.2629 22.4999 17.263H1.49989C1.37495 17.2629 1.25198 17.2941 1.14214 17.3536C1.0323 17.4131 0.939075 17.4992 0.870925 17.6039C0.802774 17.7086 0.761861 17.8287 0.7519 17.9532C0.741938 18.0777 0.763245 18.2028 0.813885 18.317C1.2296 19.2003 1.84025 19.9778 2.59988 20.591" stroke="#474445" stroke-width="1.5" stroke-linecap="round" stroke-linejoin="round"/>
<path d="M11.2501 17.263V2.02999C11.2502 1.76355 11.1662 1.50387 11.0102 1.28787C10.8543 1.07187 10.6342 0.910536 10.3812 0.826813C10.1283 0.74309 9.85537 0.741237 9.60132 0.821517C9.34726 0.901797 9.12498 1.06012 8.96608 1.27399L2.27108 11.6C2.19689 11.7132 2.15474 11.8444 2.14909 11.9797C2.14344 12.115 2.17451 12.2492 2.239 12.3683C2.30349 12.4873 2.39899 12.5866 2.51538 12.6558C2.63177 12.7249 2.7647 12.7613 2.90008 12.761L11.2481 12.749" stroke="#474445" stroke-width="1.5" stroke-linecap="round" stroke-linejoin="round"/>
<path d="M15.631 5.91102C15.5434 5.77463 15.4139 5.67031 15.262 5.61367C15.1101 5.55703 14.944 5.55113 14.7885 5.59686C14.6329 5.64258 14.4964 5.73746 14.3993 5.86729C14.3023 5.99712 14.2499 6.15491 14.25 6.31702V14.263H19.626C19.7606 14.2628 19.8927 14.2263 20.0084 14.1575C20.1242 14.0887 20.2192 13.99 20.2838 13.8718C20.3483 13.7537 20.3798 13.6203 20.3751 13.4858C20.3704 13.3512 20.3296 13.2204 20.257 13.107L15.631 5.91102Z" stroke="#474445" stroke-width="1.5" stroke-linecap="round" stroke-linejoin="round"/>
</g>
<defs>
<clipPath id="clip0">
<rect width="24" height="24" fill="white"/>
</clipPath>
</defs>
</svg>
