<svg width="24" height="24" viewBox="0 0 24 24" fill="none" xmlns="http://www.w3.org/2000/svg">
<g clip-path="url(#clip0_964_3)">
<path d="M0.842122 22.5187C0.431044 22.4678 0.0565564 22.7598 0.00567907 23.1709C-0.0451983 23.582 0.246801 23.9564 0.657878 24.0073L0.842122 22.5187ZM5.25 21.763L5.80669 21.2604C5.67058 21.1096 5.47915 21.0205 5.27616 21.0135C5.07318 21.0064 4.876 21.0819 4.72971 21.2228L5.25 21.763ZM12 21.763L12.5567 21.2604C12.4145 21.1029 12.2122 21.013 12 21.013C11.7878 21.013 11.5855 21.1029 11.4433 21.2604L12 21.763ZM18.75 21.763L19.2703 21.2228C19.124 21.0819 18.9268 21.0064 18.7238 21.0135C18.5209 21.0205 18.3294 21.1096 18.1933 21.2604L18.75 21.763ZM20.8304 23.0219L20.5932 23.7334L20.8304 23.0219ZM23.298 24.0126C23.7094 23.9647 24.0041 23.5923 23.9561 23.1808C23.9082 22.7694 23.5358 22.4747 23.1243 22.5227L23.298 24.0126ZM0.657878 24.0073C1.58315 24.1218 2.52232 24.0283 3.40681 23.7334L2.93247 22.3104C2.25988 22.5346 1.54572 22.6058 0.842122 22.5187L0.657878 24.0073ZM3.40681 23.7334C4.2913 23.4386 5.09878 22.95 5.77029 22.3032L4.72971 21.2228C4.21908 21.7146 3.60506 22.0862 2.93247 22.3104L3.40681 23.7334ZM4.69331 22.2656C5.18996 22.8157 5.79651 23.2554 6.47376 23.5564L7.08294 22.1857C6.59748 21.9699 6.16269 21.6547 5.80669 21.2604L4.69331 22.2656ZM6.47376 23.5564C7.15101 23.8574 7.88388 24.0129 8.625 24.0129V22.5129C8.09375 22.5129 7.56841 22.4015 7.08294 22.1857L6.47376 23.5564ZM8.625 24.0129C9.36612 24.0129 10.099 23.8574 10.7762 23.5564L10.1671 22.1857C9.68159 22.4015 9.15625 22.5129 8.625 22.5129V24.0129ZM10.7762 23.5564C11.4535 23.2554 12.06 22.8157 12.5567 22.2656L11.4433 21.2604C11.0873 21.6547 10.6525 21.9699 10.1671 22.1857L10.7762 23.5564ZM11.4433 22.2656C11.94 22.8157 12.5465 23.2554 13.2238 23.5564L13.8329 22.1857C13.3475 21.9699 12.9127 21.6547 12.5567 21.2604L11.4433 22.2656ZM13.2238 23.5564C13.901 23.8574 14.6339 24.0129 15.375 24.0129V22.5129C14.8438 22.5129 14.3184 22.4015 13.8329 22.1857L13.2238 23.5564ZM15.375 24.0129C16.1161 24.0129 16.849 23.8574 17.5262 23.5564L16.9171 22.1857C16.4316 22.4015 15.9063 22.5129 15.375 22.5129V24.0129ZM17.5262 23.5564C18.2035 23.2554 18.81 22.8157 19.3067 22.2656L18.1933 21.2604C17.8373 21.6547 17.4025 21.9699 16.9171 22.1857L17.5262 23.5564ZM18.2297 22.3032C18.9012 22.95 19.7087 23.4386 20.5932 23.7334L21.0675 22.3104C20.3949 22.0862 19.7809 21.7146 19.2703 21.2228L18.2297 22.3032ZM20.5932 23.7334C21.4636 24.0236 22.387 24.1188 23.298 24.0126L23.1243 22.5227C22.4316 22.6035 21.7294 22.531 21.0675 22.3104L20.5932 23.7334Z" fill="#767676"/>
<path d="M21.2491 19.7191C20.9443 19.9995 20.9245 20.474 21.2049 20.7788C21.4854 21.0836 21.9599 21.1034 22.2647 20.8229L21.2491 19.7191ZM23.1859 18.317L23.8659 18.6337L23.8715 18.621L23.1859 18.317ZM22.4999 17.263V18.013L22.5003 18.013L22.4999 17.263ZM1.49989 17.263L1.49951 18.013H1.49989V17.263ZM0.813885 18.317L0.128259 18.621C0.130543 18.6262 0.132885 18.6313 0.135284 18.6364L0.813885 18.317ZM2.09761 21.1493C2.41846 21.4112 2.89093 21.3635 3.1529 21.0426C3.41486 20.7218 3.36713 20.2493 3.04628 19.9874L2.09761 21.1493ZM22.2647 20.8229C22.9364 20.2049 23.4804 19.4611 23.8658 18.6336L22.506 18.0004C22.2035 18.65 21.7764 19.2339 21.2491 19.7191L22.2647 20.8229ZM23.8715 18.621C23.9728 18.3926 24.0154 18.1425 23.9955 17.8934L22.5003 18.013V18.013L23.8715 18.621ZM23.9955 17.8934C23.9756 17.6443 23.8937 17.4042 23.7574 17.1948L22.5003 18.013V18.013L23.9955 17.8934ZM23.7574 17.1948C23.6211 16.9853 23.4347 16.8133 23.215 16.6942L22.5003 18.013L22.5003 18.013L23.7574 17.1948ZM23.215 16.6942C22.9953 16.5752 22.7494 16.5129 22.4995 16.513L22.5003 18.013L22.5003 18.013L23.215 16.6942ZM22.4999 16.513H1.49989V18.013H22.4999V16.513ZM1.50026 16.513C1.25039 16.5129 1.00445 16.5752 0.784772 16.6942L1.49951 18.013V18.013L1.50026 16.513ZM0.784772 16.6942C0.565094 16.8133 0.378638 16.9853 0.242337 17.1948L1.49951 18.013L1.49951 18.013L0.784772 16.6942ZM0.242337 17.1948C0.106037 17.4042 0.0242096 17.6443 0.0042873 17.8934L1.49951 18.013V18.013L0.242337 17.1948ZM0.0042873 17.8934C-0.015635 18.1425 0.0269789 18.3926 0.128259 18.621L1.49951 18.013V18.013L0.0042873 17.8934ZM0.135284 18.6364C0.593599 19.6102 1.26418 20.4688 2.09761 21.1493L3.04628 19.9874C2.38636 19.4486 1.85538 18.7687 1.49249 17.9976L0.135284 18.6364Z" fill="#767676"/>
<path d="M10.5 17.263C10.5 17.6772 10.8358 18.013 11.25 18.013C11.6642 18.013 12 17.6772 12 17.263H10.5ZM12 12.6875C12 12.2733 11.6642 11.9375 11.25 11.9375C10.8358 11.9375 10.5 12.2733 10.5 12.6875H12ZM12 17.263V12.6875H10.5V17.263H12Z" fill="#767676"/>
<path d="M11.2501 2.02999L10.5001 2.02978V2.02985L11.2501 2.02999ZM8.96608 1.27399L8.36407 0.826685C8.35455 0.839487 8.34545 0.85259 8.33678 0.865972L8.96608 1.27399ZM2.27108 11.6L2.89844 12.011L2.90038 12.008L2.27108 11.6ZM2.90008 12.761L2.899 12.011L2.89844 12.011L2.90008 12.761ZM11.2481 12.749L11.2492 13.499C11.6629 13.4984 11.998 13.1629 11.9981 12.7491L11.2481 12.749ZM12.0001 2.0302C12.0002 1.60604 11.8666 1.19265 11.6183 0.848783L10.4022 1.72696C10.4659 1.8151 10.5001 1.92106 10.5001 2.02978L12.0001 2.0302ZM11.6183 0.848783C11.37 0.504918 11.0196 0.248086 10.6169 0.114803L10.1455 1.53882C10.2488 1.57299 10.3386 1.63882 10.4022 1.72696L11.6183 0.848783ZM10.6169 0.114803C10.2142 -0.0184798 9.77978 -0.0214298 9.37534 0.106372L9.8273 1.53666C9.93097 1.5039 10.0423 1.50466 10.1455 1.53882L10.6169 0.114803ZM9.37534 0.106372C8.97089 0.234174 8.61703 0.486224 8.36407 0.826685L9.56809 1.72129C9.63293 1.63403 9.72364 1.56942 9.8273 1.53666L9.37534 0.106372ZM8.33678 0.865972L1.64178 11.192L2.90038 12.008L9.59538 1.68201L8.33678 0.865972ZM1.64372 11.189C1.49535 11.4155 1.41104 11.6779 1.39974 11.9484L2.89844 12.011H2.89844L1.64372 11.189ZM1.39974 11.9484C1.38845 12.2189 1.45058 12.4875 1.57956 12.7255L2.89844 12.011L2.89844 12.011L1.39974 11.9484ZM1.57956 12.7255C1.70853 12.9636 1.89954 13.1623 2.13232 13.3006L2.89844 12.011L2.89844 12.011L1.57956 12.7255ZM2.13232 13.3006C2.3651 13.4389 2.63097 13.5116 2.90172 13.511L2.89844 12.011L2.89844 12.011L2.13232 13.3006ZM2.90116 13.511L11.2492 13.499L11.247 11.999L2.899 12.011L2.90116 13.511ZM11.9981 12.7491L12.0001 2.03013L10.5001 2.02985L10.4981 12.7488L11.9981 12.7491Z" fill="#767676"/>
<path d="M15.631 5.91099L15 6.31638L15.0001 6.31656L15.631 5.91099ZM14.25 6.31699H15L15 6.31638L14.25 6.31699ZM14.25 14.263H13.5C13.5 14.6772 13.8358 15.013 14.25 15.013V14.263ZM19.626 14.263V15.013L19.6274 15.013L19.626 14.263ZM20.257 13.107L20.8886 12.7025L20.8879 12.7014L20.257 13.107ZM16.262 5.5056C16.0868 5.23283 15.8279 5.02418 15.5241 4.9109L15 6.31638L15 6.31638L16.262 5.5056ZM15.5241 4.9109C15.2203 4.79763 14.888 4.78583 14.5769 4.87728L15 6.31638H15L15.5241 4.9109ZM14.5769 4.87728C14.2659 4.96872 13.9928 5.15849 13.7987 5.41815L15 6.31638L15 6.31638L14.5769 4.87728ZM13.7987 5.41815C13.6045 5.67781 13.4997 5.99339 13.5 6.3176L15 6.31638L15 6.31638L13.7987 5.41815ZM13.5 6.31699V14.263H15V6.31699H13.5ZM14.25 15.013H19.626V13.513H14.25V15.013ZM19.6274 15.013C19.8965 15.0125 20.1605 14.9396 20.3918 14.8021L19.6251 13.5128L19.6246 13.513L19.6274 15.013ZM20.3918 14.8021C20.6231 14.6645 20.8131 14.4673 20.9421 14.2311L19.6254 13.5125L19.6251 13.5128L20.3918 14.8021ZM20.9421 14.2311C21.071 13.995 21.1341 13.7284 21.1246 13.4595L19.6256 13.512L19.6254 13.5125L20.9421 14.2311ZM21.1246 13.4595C21.1152 13.1906 21.0337 12.9291 20.8886 12.7025L19.6254 13.5115L19.6256 13.512L21.1246 13.4595ZM20.8879 12.7014L16.2619 5.50542L15.0001 6.31656L19.6261 13.5126L20.8879 12.7014Z" fill="#767676"/>
</g>
<defs>
<clipPath id="clip0_964_3">
<rect width="24" height="24" fill="white"/>
</clipPath>
</defs>
</svg>
