<svg width="24" height="25" viewBox="0 0 24 25" fill="none" xmlns="http://www.w3.org/2000/svg">
<path d="M0.842576 22.5178C0.431515 22.4669 0.0570424 22.7589 0.0061671 23.1699C-0.0447082 23.581 0.24728 23.9555 0.65834 24.0063L0.842576 22.5178ZM5.25027 21.7621L5.80694 21.2595C5.67084 21.1088 5.47941 21.0197 5.27643 21.0126C5.07346 21.0055 4.87629 21.0811 4.73001 21.222L5.25027 21.7621ZM12 21.7621L12.5567 21.2595C12.4145 21.102 12.2122 21.0121 12 21.0121C11.7878 21.0121 11.5855 21.102 11.4433 21.2595L12 21.7621ZM18.7497 21.7621L19.27 21.222C19.1237 21.0811 18.9265 21.0055 18.7236 21.0126C18.5206 21.0197 18.3292 21.1088 18.1931 21.2595L18.7497 21.7621ZM20.83 23.021L20.5928 23.7325L20.83 23.021ZM23.2976 24.0116C23.709 23.9637 24.0036 23.5913 23.9556 23.1799C23.9077 22.7685 23.5353 22.4738 23.1239 22.5218L23.2976 24.0116ZM0.65834 24.0063C1.58358 24.1209 2.52271 24.0273 3.40716 23.7325L2.93284 22.3095C2.26028 22.5337 1.54614 22.6048 0.842576 22.5178L0.65834 24.0063ZM3.40716 23.7325C4.29161 23.4377 5.09906 22.949 5.77054 22.3023L4.73001 21.222C4.2194 21.7138 3.6054 22.0853 2.93284 22.3095L3.40716 23.7325ZM4.69361 22.2647C5.19024 22.8148 5.79676 23.2545 6.47398 23.5555L7.08314 22.1848C6.5977 21.9691 6.16293 21.6538 5.80694 21.2595L4.69361 22.2647ZM6.47398 23.5555C7.1512 23.8564 7.88405 24.012 8.62514 24.012V22.512C8.09391 22.512 7.56859 22.4005 7.08314 22.1848L6.47398 23.5555ZM8.62514 24.012C9.36623 24.012 10.0991 23.8564 10.7763 23.5555L10.1671 22.1848C9.68168 22.4005 9.15637 22.512 8.62514 22.512V24.012ZM10.7763 23.5555C11.4535 23.2545 12.06 22.8148 12.5567 22.2647L11.4433 21.2595C11.0873 21.6538 10.6526 21.9691 10.1671 22.1848L10.7763 23.5555ZM11.4433 22.2647C11.94 22.8148 12.5465 23.2545 13.2237 23.5555L13.8329 22.1848C13.3474 21.9691 12.9127 21.6538 12.5567 21.2595L11.4433 22.2647ZM13.2237 23.5555C13.9009 23.8564 14.6338 24.012 15.3749 24.012V22.512C14.8436 22.512 14.3183 22.4005 13.8329 22.1848L13.2237 23.5555ZM15.3749 24.012C16.116 24.012 16.8488 23.8564 17.526 23.5555L16.9169 22.1848C16.4314 22.4005 15.9061 22.512 15.3749 22.512V24.012ZM17.526 23.5555C18.2032 23.2545 18.8098 22.8148 19.3064 22.2647L18.1931 21.2595C17.8371 21.6538 17.4023 21.9691 16.9169 22.1848L17.526 23.5555ZM18.2295 22.3023C18.9009 22.949 19.7084 23.4377 20.5928 23.7325L21.0672 22.3095C20.3946 22.0853 19.7806 21.7138 19.27 21.222L18.2295 22.3023ZM20.5928 23.7325C21.4632 24.0226 22.3866 24.1178 23.2976 24.0116L23.1239 22.5218C22.4312 22.6025 21.729 22.5301 21.0672 22.3095L20.5928 23.7325Z" fill="#71717A"/>
<path d="M21.2487 19.7183C20.9439 19.9987 20.9241 20.4731 21.2046 20.778C21.485 21.0828 21.9594 21.1025 22.2643 20.8221L21.2487 19.7183ZM23.1854 18.3163L23.8654 18.6329L23.871 18.6202L23.1854 18.3163ZM22.4995 17.2623V18.0123L22.4998 18.0123L22.4995 17.2623ZM1.50031 17.2623L1.49994 18.0123H1.50031V17.2623ZM0.81434 18.3163L0.128742 18.6202C0.131026 18.6254 0.133368 18.6305 0.135767 18.6356L0.81434 18.3163ZM2.09801 21.1484C2.41885 21.4104 2.8913 21.3626 3.15326 21.0418C3.41521 20.721 3.36748 20.2485 3.04664 19.9865L2.09801 21.1484ZM22.2643 20.8221C22.936 20.2041 23.4799 19.4603 23.8653 18.6329L22.5056 17.9996C22.2031 18.6492 21.776 19.2331 21.2487 19.7183L22.2643 20.8221ZM23.871 18.6202C23.9723 18.3918 24.0149 18.1417 23.995 17.8927L22.4998 18.0123V18.0123L23.871 18.6202ZM23.995 17.8927C23.9751 17.6436 23.8933 17.4035 23.757 17.1941L22.4998 18.0123V18.0123L23.995 17.8927ZM23.757 17.1941C23.6207 16.9846 23.4342 16.8126 23.2145 16.6936L22.4998 18.0123L22.4998 18.0123L23.757 17.1941ZM23.2145 16.6936C22.9949 16.5745 22.7489 16.5122 22.4991 16.5123L22.4998 18.0123L22.4998 18.0123L23.2145 16.6936ZM22.4995 16.5123H1.50031V18.0123H22.4995V16.5123ZM1.50069 16.5123C1.25083 16.5122 1.0049 16.5745 0.785228 16.6936L1.49994 18.0123V18.0123L1.50069 16.5123ZM0.785228 16.6936C0.565559 16.8126 0.379111 16.9847 0.242816 17.1941L1.49994 18.0123L1.49994 18.0123L0.785228 16.6936ZM0.242816 17.1941C0.106521 17.4035 0.0246969 17.6436 0.00477539 17.8927L1.49994 18.0123V18.0123L0.242816 17.1941ZM0.00477539 17.8927C-0.0151461 18.1417 0.027466 18.3918 0.128742 18.6202L1.49994 18.0123V18.0123L0.00477539 17.8927ZM0.135767 18.6356C0.594063 19.6094 1.26462 20.468 2.09801 21.1484L3.04664 19.9865C2.38675 19.4478 1.8558 18.7679 1.49291 17.9969L0.135767 18.6356Z" fill="#71717A"/>
<path d="M10.5001 17.2623C10.5001 17.6765 10.8358 18.0123 11.25 18.0123C11.6642 18.0123 12 17.6765 12 17.2623H10.5001ZM12 12.687C12 12.2728 11.6642 11.937 11.25 11.937C10.8358 11.937 10.5001 12.2728 10.5001 12.687H12ZM12 17.2623V12.687H10.5001V17.2623H12Z" fill="#71717A"/>
<path d="M11.2501 2.02991L10.5001 2.0297V2.02977L11.2501 2.02991ZM8.9662 1.27394L8.36422 0.826651C8.3547 0.839453 8.3456 0.852555 8.33693 0.865937L8.9662 1.27394ZM2.27148 11.5995L2.89881 12.0105L2.90075 12.0075L2.27148 11.5995ZM2.90045 12.7605L2.89937 12.0105L2.89881 12.0105L2.90045 12.7605ZM11.2481 12.7485L11.2492 13.4984C11.6629 13.4978 11.998 13.1623 11.9981 12.7486L11.2481 12.7485ZM12.0001 2.03012C12.0002 1.60598 11.8666 1.1926 11.6183 0.848748L10.4023 1.72689C10.4659 1.81502 10.5002 1.92098 10.5001 2.0297L12.0001 2.03012ZM11.6183 0.848748C11.37 0.504897 11.0196 0.248076 10.6169 0.114798L10.1456 1.53876C10.2488 1.57292 10.3386 1.63875 10.4023 1.72689L11.6183 0.848748ZM10.6169 0.114798C10.2143 -0.0184791 9.77987 -0.021429 9.37544 0.106368L9.82739 1.5366C9.93105 1.50384 10.0424 1.5046 10.1456 1.53876L10.6169 0.114798ZM9.37544 0.106368C8.97102 0.234165 8.61717 0.486204 8.36422 0.826651L9.56819 1.72122C9.63303 1.63396 9.72373 1.56936 9.82739 1.5366L9.37544 0.106368ZM8.33693 0.865937L1.6422 11.1915L2.90075 12.0075L9.59548 1.68194L8.33693 0.865937ZM1.64414 11.1885C1.49577 11.415 1.41147 11.6774 1.40018 11.9479L2.89881 12.0105H2.89881L1.64414 11.1885ZM1.40018 11.9479C1.38888 12.2184 1.45101 12.487 1.57998 12.725L2.89881 12.0105L2.89881 12.0105L1.40018 11.9479ZM1.57998 12.725C1.70895 12.9631 1.89995 13.1618 2.13272 13.3L2.89881 12.0105L2.89881 12.0105L1.57998 12.725ZM2.13272 13.3C2.36549 13.4383 2.63135 13.511 2.90209 13.5104L2.89881 12.0105L2.89881 12.0105L2.13272 13.3ZM2.90153 13.5104L11.2492 13.4984L11.247 11.9985L2.89937 12.0105L2.90153 13.5104ZM11.9981 12.7486L12.0001 2.03005L10.5001 2.02977L10.4981 12.7483L11.9981 12.7486Z" fill="#71717A"/>
<path d="M15.6309 5.91075L14.9999 6.31612L15 6.3163L15.6309 5.91075ZM14.2499 6.31673H14.9999L14.9999 6.31612L14.2499 6.31673ZM14.2499 14.2624H13.4999C13.4999 14.6766 13.8357 15.0124 14.2499 15.0124V14.2624ZM19.6257 14.2624V15.0124L19.6271 15.0124L19.6257 14.2624ZM20.2567 13.1065L20.8882 12.702L20.8875 12.7009L20.2567 13.1065ZM16.2618 5.50538C16.0866 5.23262 15.8277 5.02397 15.5239 4.9107L14.9999 6.31612L14.9999 6.31612L16.2618 5.50538ZM15.5239 4.9107C15.2201 4.79743 14.8879 4.78564 14.5768 4.87708L14.9999 6.31612H14.9999L15.5239 4.9107ZM14.5768 4.87708C14.2658 4.96852 13.9927 5.15828 13.7986 5.41793L14.9999 6.31612L14.9999 6.31612L14.5768 4.87708ZM13.7986 5.41793C13.6045 5.67758 13.4997 5.99314 13.4999 6.31734L14.9999 6.31612L14.9999 6.31612L13.7986 5.41793ZM13.4999 6.31673V14.2624H14.9999V6.31673H13.4999ZM14.2499 15.0124H19.6257V13.5124H14.2499V15.0124ZM19.6271 15.0124C19.8962 15.0119 20.1602 14.939 20.3915 14.8015L19.6248 13.5123L19.6243 13.5124L19.6271 15.0124ZM20.3915 14.8015C20.6227 14.6639 20.8128 14.4668 20.9417 14.2306L19.6251 13.5119L19.6248 13.5123L20.3915 14.8015ZM20.9417 14.2306C21.0706 13.9944 21.1337 13.7279 21.1243 13.459L19.6253 13.5114L19.6251 13.5119L20.9417 14.2306ZM21.1243 13.459C21.1149 13.1901 21.0333 12.9286 20.8882 12.702L19.6251 13.5109L19.6253 13.5114L21.1243 13.459ZM20.8875 12.7009L16.2617 5.5052L15 6.3163L19.6258 13.512L20.8875 12.7009Z" fill="#71717A"/>
</svg>
