<svg width="24" height="24" viewBox="0 0 24 24" fill="none" xmlns="http://www.w3.org/2000/svg">
<path d="M11.1867 1.24497L10.7723 0.619877L10.7722 0.619912L11.1867 1.24497ZM12.8137 1.24497L13.2282 0.619912L13.2282 0.619877L12.8137 1.24497ZM0.629449 7.34595C0.284241 7.57487 0.189971 8.0403 0.418891 8.38551C0.647811 8.73071 1.11323 8.82498 1.45844 8.59606L0.629449 7.34595ZM22.542 8.59606C22.8872 8.82498 23.3526 8.73071 23.5816 8.38551C23.8105 8.0403 23.7162 7.57487 23.371 7.34595L22.542 8.59606ZM11.6012 1.87005C11.719 1.79193 11.8579 1.75 12.0002 1.75V0.25C11.5635 0.25 11.1363 0.378538 10.7723 0.619877L11.6012 1.87005ZM12.0002 1.75C12.1426 1.75 12.2815 1.79193 12.3993 1.87005L13.2282 0.619877C12.8642 0.378538 12.4369 0.25 12.0002 0.25V1.75ZM1.45844 8.59606L11.6012 1.87002L10.7722 0.619912L0.629449 7.34595L1.45844 8.59606ZM12.3992 1.87002L22.542 8.59606L23.371 7.34595L13.2282 0.619912L12.3992 1.87002Z" fill="#71717A"/>
<path d="M8.75 12.231L8.00114 12.1896C8.00038 12.2034 8 12.2172 8 12.231H8.75ZM9.573 16.239L10.3218 16.2809C10.3226 16.2669 10.323 16.253 10.323 16.239H9.573ZM8.16634 17.906C7.90622 18.2283 7.95665 18.7005 8.27899 18.9606C8.60134 19.2208 9.07353 19.1703 9.33366 18.848L8.16634 17.906ZM10.1447 10.5798C10.4032 10.2562 10.3504 9.78425 10.0267 9.52575C9.70309 9.26726 9.23116 9.32008 8.97266 9.64374L10.1447 10.5798ZM8 12.231C8 13.0325 8.24596 13.8112 8.44473 14.4565C8.65753 15.1474 8.823 15.7046 8.823 16.239H10.323C10.323 15.4384 10.077 14.6601 9.87827 14.015C9.66554 13.3243 9.5 12.7665 9.5 12.231H8ZM8.82417 16.1971C8.78922 16.8215 8.55912 17.4193 8.16634 17.906L9.33366 18.848C9.92368 18.1169 10.2693 17.219 10.3218 16.2809L8.82417 16.1971ZM8.97266 9.64374C8.39218 10.3706 8.05246 11.2604 8.00114 12.1896L9.49886 12.2723C9.53298 11.6546 9.75882 11.063 10.1447 10.5798L8.97266 9.64374Z" fill="#71717A"/>
<path d="M14 12.231L13.2511 12.1896C13.2504 12.2034 13.25 12.2172 13.25 12.231H14ZM14.823 16.239L15.5718 16.2809C15.5726 16.267 15.573 16.253 15.573 16.239H14.823ZM13.4163 17.906C13.1562 18.2283 13.2067 18.7005 13.529 18.9607C13.8513 19.2208 14.3235 19.1704 14.5837 18.848L13.4163 17.906ZM15.3905 10.5852C15.6482 10.2609 15.5943 9.78912 15.2701 9.53137C14.9458 9.27361 14.474 9.32752 14.2163 9.65177L15.3905 10.5852ZM13.25 12.231C13.25 13.0325 13.496 13.8112 13.6947 14.4565C13.9075 15.1474 14.073 15.7046 14.073 16.239H15.573C15.573 15.4384 15.327 14.6601 15.1283 14.015C14.9155 13.3243 14.75 12.7665 14.75 12.231H13.25ZM14.0742 16.1971C14.0392 16.8215 13.8091 17.4193 13.4163 17.906L14.5837 18.848C15.1737 18.1169 15.5193 17.219 15.5718 16.2809L14.0742 16.1971ZM14.2163 9.65177C13.6397 10.3771 13.3023 11.2638 13.2511 12.1896L14.7489 12.2724C14.7829 11.6569 15.0072 11.0674 15.3905 10.5852L14.2163 9.65177Z" fill="#71717A"/>
<path d="M3.5 23H2.75C2.75 23.4142 3.08579 23.75 3.5 23.75V23ZM20.5 23V23.75C20.9142 23.75 21.25 23.4142 21.25 23H20.5ZM21.25 6.5C21.25 6.08579 20.9142 5.75 20.5 5.75C20.0858 5.75 19.75 6.08579 19.75 6.5H21.25ZM2.75 6.5V23H4.25V6.5H2.75ZM3.5 23.75H20.5V22.25H3.5V23.75ZM21.25 23V6.5H19.75V23H21.25Z" fill="#71717A"/>
</svg>
