<svg width="24" height="24" viewBox="0 0 24 24" fill="none" xmlns="http://www.w3.org/2000/svg">
<path fill-rule="evenodd" clip-rule="evenodd" d="M11.601 1.87002C11.601 1.87003 11.601 1.87004 11.6009 1.87005L4.25 6.74473V22.25H19.75V6.74473L12.3991 1.87005C12.399 1.87004 12.399 1.87003 12.399 1.87002C12.2812 1.79192 12.1424 1.75 12 1.75C11.8576 1.75 11.7188 1.79192 11.601 1.87002ZM21.25 7.73943L22.5855 8.62505C22.9307 8.85397 23.3961 8.7597 23.6251 8.4145C23.854 8.06929 23.7597 7.60387 23.4145 7.37495L13.228 0.619912L13.228 0.619877C12.864 0.378538 12.4367 0.25 12 0.25C11.5633 0.25 11.136 0.378538 10.772 0.619877L10.772 0.619912L0.585504 7.37495C0.240296 7.60387 0.146026 8.06929 0.374946 8.4145C0.603866 8.7597 1.06929 8.85397 1.4145 8.62505L2.75 7.73943V23C2.75 23.4142 3.08579 23.75 3.5 23.75H20.5C20.9142 23.75 21.25 23.4142 21.25 23V7.73943ZM10.0446 9.51084C10.3667 9.77131 10.4166 10.2436 10.1562 10.5656C9.76765 11.046 9.53845 11.6353 9.50008 12.2515C9.50424 12.7808 9.66826 13.3332 9.87827 14.015C9.88307 14.0306 9.8879 14.0462 9.89275 14.062C10.0887 14.6977 10.323 15.4578 10.323 16.239C10.323 16.253 10.3226 16.267 10.3218 16.2809C10.2693 17.219 9.92368 18.1169 9.33365 18.848C9.07353 19.1703 8.60134 19.2208 8.27899 18.9606C7.95665 18.7005 7.90622 18.2283 8.16634 17.906C8.5547 17.4248 8.78401 16.835 8.82292 16.2182C8.8187 15.6901 8.65477 15.1384 8.44473 14.4565C8.44006 14.4414 8.43537 14.4261 8.43065 14.4108C8.23454 13.7746 8 13.0137 8 12.231C8 12.2172 8.00038 12.2034 8.00114 12.1896C8.05296 11.2513 8.39888 10.3531 8.98985 9.62237C9.25032 9.3003 9.72256 9.25037 10.0446 9.51084ZM15.2946 9.51084C15.6167 9.77131 15.6666 10.2436 15.4062 10.5656C15.0177 11.046 14.7884 11.6353 14.7501 12.2515C14.7542 12.7808 14.9183 13.3332 15.1283 14.015C15.1331 14.0306 15.1379 14.0462 15.1428 14.062C15.3387 14.6977 15.573 15.4578 15.573 16.239C15.573 16.253 15.5726 16.267 15.5718 16.2809C15.5193 17.219 15.1737 18.1169 14.5837 18.848C14.3235 19.1703 13.8513 19.2208 13.529 18.9606C13.2066 18.7005 13.1562 18.2283 13.4163 17.906C13.8047 17.4248 14.034 16.835 14.0729 16.2182C14.0687 15.6901 13.9048 15.1384 13.6947 14.4565C13.6901 14.4414 13.6854 14.4261 13.6807 14.4108C13.4845 13.7746 13.25 13.0137 13.25 12.231C13.25 12.2172 13.2504 12.2034 13.2511 12.1896C13.303 11.2513 13.6489 10.3531 14.2398 9.62237C14.5003 9.3003 14.9726 9.25037 15.2946 9.51084Z" fill="#767676"/>
</svg>
