<svg width="24" height="24" viewBox="0 0 24 24" fill="none" xmlns="http://www.w3.org/2000/svg">
<path d="M1 8L11.1865 1.24497C11.4274 1.08524 11.7105 1 12 1C12.2895 1 12.5726 1.08524 12.8135 1.24497L23 8" stroke="#474445" stroke-width="1.5" stroke-linecap="round" stroke-linejoin="round"/>
<path d="M14.823 10.094C14.3311 10.7022 14.0431 11.4499 14 12.231C14 13.568 14.823 14.904 14.823 16.239C14.7793 17.0202 14.4914 17.7681 14 18.377" stroke="#474445" stroke-width="1.5" stroke-linecap="round" stroke-linejoin="round"/>
<path d="M9.573 10.094C9.08108 10.7022 8.79314 11.4499 8.75 12.231C8.75 13.568 9.573 14.904 9.573 16.239C9.52927 17.0202 9.2414 17.7681 8.75 18.377" stroke="#474445" stroke-width="1.5" stroke-linecap="round" stroke-linejoin="round"/>
<path d="M3.5 23H2.75C2.75 23.4142 3.08579 23.75 3.5 23.75V23ZM20.5 23V23.75C20.9142 23.75 21.25 23.4142 21.25 23H20.5ZM21.25 6.5C21.25 6.08579 20.9142 5.75 20.5 5.75C20.0858 5.75 19.75 6.08579 19.75 6.5H21.25ZM2.75 6.5V23H4.25V6.5H2.75ZM3.5 23.75H20.5V22.25H3.5V23.75ZM21.25 23V6.5H19.75V23H21.25Z" fill="#474445"/>
</svg>
