<svg width="24" height="24" viewBox="0 0 24 24" fill="none" xmlns="http://www.w3.org/2000/svg">
<path d="M17.4345 18.5365C19.5855 16.7109 20.95 13.9907 20.95 10.9524C20.95 5.45583 16.484 1 10.975 1C5.46596 1 1 5.45583 1 10.9524C1 16.4489 5.46596 20.9048 10.975 20.9048C13.4389 20.9048 15.6941 20.0135 17.4345 18.5365ZM17.4345 18.5365L22 23M15.3667 8.65071C15.1695 8.44508 14.9324 8.28138 14.6697 8.16953C14.407 8.05767 14.1241 8 13.8383 8C13.5525 8 13.2697 8.05767 13.007 8.16953C12.7443 8.28138 12.5072 8.44508 12.31 8.65071L11 9.99681L9.69 8.65071C9.49284 8.44508 9.25572 8.28138 8.99301 8.16953C8.7303 8.05767 8.44747 8 8.16167 8C7.87587 8 7.59304 8.05767 7.33033 8.16953C7.06762 8.28138 6.8305 8.44508 6.63334 8.65071C6.22682 9.07389 6 9.63646 6 10.2215C6 10.8066 6.22682 11.3692 6.63334 11.7923L10.5344 15.8019C10.5945 15.8645 10.6668 15.9143 10.7468 15.9484C10.8268 15.9824 10.913 16 11 16C11.087 16 11.1732 15.9824 11.2532 15.9484C11.3332 15.9143 11.4055 15.8645 11.4656 15.8019L15.3667 11.7923C15.7732 11.3692 16 10.8066 16 10.2215C16 9.63646 15.7732 9.07389 15.3667 8.65071Z" stroke="#767676" stroke-width="1.5" stroke-linecap="round" stroke-linejoin="round"/>
</svg>
