<svg width="24" height="24" viewBox="0 0 24 24" fill="none" xmlns="http://www.w3.org/2000/svg">
<path d="M10.975 20.1548C5.87857 20.1548 1.75 16.0331 1.75 10.9524H0.25C0.25 16.8647 5.05335 21.6548 10.975 21.6548V20.1548ZM1.75 10.9524C1.75 5.87165 5.87857 1.75 10.975 1.75V0.25C5.05335 0.25 0.25 5.04001 0.25 10.9524H1.75ZM10.975 1.75C16.0714 1.75 20.2 5.87165 20.2 10.9524H21.7C21.7 5.04001 16.8966 0.25 10.975 0.25V1.75ZM20.2 10.9524C20.2 16.0331 16.0714 20.1548 10.975 20.1548V21.6548C16.8966 21.6548 21.7 16.8647 21.7 10.9524H20.2Z" fill="#767676"/>
<path d="M15.3667 8.65071L14.8253 9.16978L14.8258 9.17029L15.3667 8.65071ZM12.31 8.65071L12.8475 9.1738L12.8514 9.16978L12.31 8.65071ZM11 9.99681L10.4625 10.5199C10.6037 10.665 10.7976 10.7468 11 10.7468C11.2024 10.7468 11.3963 10.665 11.5375 10.5199L11 9.99681ZM9.69 8.65071L9.14863 9.16979L9.15251 9.17379L9.69 8.65071ZM6.63334 8.65071L7.17421 9.17029L7.1747 9.16978L6.63334 8.65071ZM6 10.2215H5.25H6ZM6.63334 11.7923L6.09245 12.3119L6.09579 12.3153L6.63334 11.7923ZM10.5344 15.8019L11.0756 15.2826L11.072 15.2789L10.5344 15.8019ZM11.4656 15.8019L10.928 15.2789L10.9244 15.2826L11.4656 15.8019ZM15.3667 11.7923L15.9042 12.3154L15.9075 12.3119L15.3667 11.7923ZM16 10.2215H16.75H16ZM15.908 8.13165C15.6406 7.85271 15.3192 7.63092 14.9635 7.47947L14.3759 8.85958C14.5456 8.93184 14.6984 9.03745 14.8253 9.16978L15.908 8.13165ZM14.9635 7.47947C14.6078 7.32802 14.225 7.25 13.8383 7.25V8.75C14.0233 8.75 14.2062 8.78733 14.3759 8.85958L14.9635 7.47947ZM13.8383 7.25C13.4517 7.25 13.0689 7.32802 12.7132 7.47947L13.3008 8.85958C13.4705 8.78732 13.6534 8.75 13.8383 8.75V7.25ZM12.7132 7.47947C12.3575 7.63092 12.0361 7.85271 11.7686 8.13165L12.8514 9.16978C12.9782 9.03745 13.1311 8.93184 13.3008 8.85958L12.7132 7.47947ZM11.7725 8.12764L10.4625 9.47373L11.5375 10.5199L12.8475 9.17379L11.7725 8.12764ZM11.5375 9.47373L10.2275 8.12764L9.15251 9.17379L10.4625 10.5199L11.5375 9.47373ZM10.2314 8.13165C9.96391 7.85271 9.64252 7.63092 9.28681 7.47947L8.6992 8.85958C8.86891 8.93184 9.02176 9.03745 9.14864 9.16978L10.2314 8.13165ZM9.28681 7.47947C8.93111 7.32802 8.54834 7.25 8.16167 7.25V8.75C8.3466 8.75 8.52949 8.78732 8.6992 8.85958L9.28681 7.47947ZM8.16167 7.25C7.77499 7.25 7.39223 7.32802 7.03653 7.47947L7.62413 8.85958C7.79385 8.78732 7.97674 8.75 8.16167 8.75V7.25ZM7.03653 7.47947C6.68081 7.63092 6.35942 7.85271 6.09198 8.13165L7.1747 9.16978C7.30157 9.03745 7.45443 8.93184 7.62413 8.85958L7.03653 7.47947ZM6.09246 8.13114C5.55221 8.69354 5.25 9.44212 5.25 10.2215H6.75C6.75 9.8308 6.90144 9.45424 7.17421 9.17029L6.09246 8.13114ZM5.25 10.2215C5.25 11.0009 5.55221 11.7495 6.09246 12.3119L7.17421 11.2728C6.90144 10.9888 6.75 10.6122 6.75 10.2215H5.25ZM6.09579 12.3153L9.9969 16.3249L11.072 15.2789L7.17089 11.2693L6.09579 12.3153ZM9.9933 16.3212C10.1237 16.457 10.2801 16.5649 10.4531 16.6385L11.0404 15.2583C11.0534 15.2638 11.0654 15.272 11.0756 15.2826L9.9933 16.3212ZM10.4531 16.6385C10.6261 16.7121 10.8121 16.75 11 16.75V15.25C11.0138 15.25 11.0275 15.2528 11.0404 15.2583L10.4531 16.6385ZM11 16.75C11.1879 16.75 11.3739 16.7121 11.5469 16.6385L10.9596 15.2583C10.9725 15.2528 10.9862 15.25 11 15.25V16.75ZM11.5469 16.6385C11.7199 16.5649 11.8763 16.457 12.0067 16.3212L10.9244 15.2826C10.9346 15.272 10.9466 15.2638 10.9596 15.2583L11.5469 16.6385ZM12.0031 16.3249L15.9042 12.3153L14.8291 11.2693L10.928 15.2789L12.0031 16.3249ZM15.9075 12.3119C16.4478 11.7495 16.75 11.0009 16.75 10.2215H15.25C15.25 10.6122 15.0986 10.9888 14.8258 11.2728L15.9075 12.3119ZM16.75 10.2215C16.75 9.44212 16.4478 8.69354 15.9075 8.13114L14.8258 9.17029C15.0986 9.45424 15.25 9.8308 15.25 10.2215H16.75Z" fill="#767676"/>
<path d="M17.9589 18.0002C17.6627 17.7106 17.1878 17.716 16.8983 18.0122C16.6087 18.3083 16.6141 18.7832 16.9103 19.0728L17.9589 18.0002ZM21.4758 23.5363C21.772 23.8259 22.2468 23.8205 22.5364 23.5243C22.826 23.2281 22.8206 22.7533 22.5244 22.4637L21.4758 23.5363ZM16.9103 19.0728L21.4758 23.5363L22.5244 22.4637L17.9589 18.0002L16.9103 19.0728Z" fill="#767676"/>
</svg>
