<svg width="24" height="24" viewBox="0 0 24 24" fill="none" xmlns="http://www.w3.org/2000/svg">
<g clip-path="url(#clip0)">
<path fill-rule="evenodd" clip-rule="evenodd" d="M2.16235 13.0636C0.366603 8.83824 2.33622 3.95715 6.5616 2.1614C10.787 0.365657 15.6681 2.33527 17.4638 6.56066C18.8204 9.75268 18.0281 13.3189 15.7378 15.6465C15.7217 15.6601 15.7061 15.6745 15.6909 15.6896C15.6756 15.7049 15.6611 15.7207 15.6474 15.737C14.9237 16.45 14.0563 17.0414 13.0646 17.4629C8.83919 19.2586 3.9581 17.289 2.16235 13.0636ZM16.2033 17.2628C15.4578 17.9018 14.603 18.4389 13.6513 18.8434C8.66346 20.9632 2.90162 18.6381 0.781848 13.6503C-1.33792 8.66251 0.987086 2.90067 5.9749 0.780903C10.9627 -1.33887 16.7246 0.986141 18.8443 5.97396C20.3519 9.52125 19.6113 13.46 17.2636 16.2018L23.7806 22.7197C24.0734 23.0126 24.0734 23.4875 23.7805 23.7804C23.4876 24.0732 23.0127 24.0732 22.7198 23.7803L16.2033 17.2628Z" fill="#474445"/>
</g>
<defs>
<clipPath id="clip0">
<rect width="24" height="24" fill="white"/>
</clipPath>
</defs>
</svg>
