<svg width="24" height="24" viewBox="0 0 24 24" fill="none" xmlns="http://www.w3.org/2000/svg">
<path d="M9.625 14.375L10.5 18H20.5C21.6046 18 22.5 18.8954 22.5 20V22C22.5 22.5523 22.0523 23 21.5 23H7.59646C6.66266 23 5.85314 22.3538 5.64619 21.4432L1.27764 2.22162C1.13542 1.59586 1.61105 1 2.25277 1H5.70671C6.17135 1 6.57477 1.32003 6.68049 1.77248L6.96729 3M9.625 14.375H13.5M9.625 14.375H7.5M9.625 14.375L8 7.5M6.96729 3H9C9.55228 3 10 3.44772 10 4V6L8 7.5M6.96729 3L8 7.5" stroke="#474445" stroke-width="1.5" stroke-linecap="round" stroke-linejoin="round"/>
</svg>
