<svg width="24" height="24" viewBox="0 0 24 24" fill="none" xmlns="http://www.w3.org/2000/svg">
<path d="M1.3996 3.74301C1.24347 3.46365 1.18078 3.14168 1.2207 2.82415C1.26061 2.50662 1.40104 2.21018 1.62145 1.97815C1.84186 1.74612 2.1307 1.59067 2.44576 1.53451C2.76083 1.47835 3.08559 1.52443 3.3726 1.66601L22.3866 11.325C22.51 11.3878 22.6136 11.4834 22.6859 11.6014C22.7583 11.7194 22.7966 11.8551 22.7966 11.9935C22.7966 12.1319 22.7583 12.2676 22.6859 12.3856C22.6136 12.5036 22.51 12.5993 22.3866 12.662L3.3726 22.334C3.08559 22.4756 2.76083 22.5217 2.44576 22.4655C2.1307 22.4094 1.84186 22.2539 1.62145 22.0219C1.40104 21.7898 1.26061 21.4934 1.2207 21.1759C1.18078 20.8583 1.24347 20.5364 1.3996 20.257L6.4576 11.993L1.3996 3.74301Z" stroke="#767676" stroke-width="1.5" stroke-linecap="round" stroke-linejoin="round"/>
<path d="M22.7971 11.993H6.45312" stroke="#767676" stroke-width="1.5" stroke-linecap="round" stroke-linejoin="round"/>
</svg>
