<svg width="24" height="24" viewBox="0 0 24 24" fill="none" xmlns="http://www.w3.org/2000/svg">
<g clip-path="url(#clip0_964:15)">
<path fill-rule="evenodd" clip-rule="evenodd" d="M18.2415 3.94682C16.2897 2.61658 13.9215 2.04004 11.5767 2.32433C9.23196 2.60861 7.07011 3.73439 5.49284 5.4925C4.25624 6.87087 3.44489 8.56443 3.13806 10.3699L4.05583 9.75113C4.39929 9.51959 4.86541 9.61031 5.09696 9.95377C5.3285 10.2972 5.23778 10.7633 4.89432 10.9949L2.70761 12.4691C2.57874 12.5681 2.41691 12.6261 2.24181 12.624C2.03516 12.6214 1.84906 12.5355 1.71508 12.3986C1.68315 12.3661 1.65403 12.3306 1.6282 12.2923L0.128197 10.0673C-0.103346 9.7238 -0.0126228 9.25768 0.330832 9.02613C0.674286 8.79459 1.14041 8.88531 1.37196 9.22877L1.72709 9.75556C2.12412 7.80874 3.03266 5.98852 4.37631 4.49082C6.19624 2.46223 8.69069 1.16325 11.3962 0.83523C14.1017 0.507207 16.8343 1.17244 19.0863 2.70734C21.3382 4.24223 22.9565 6.54243 23.6403 9.18054C24.3242 11.8187 24.0271 14.6153 22.8044 17.0509C21.5816 19.4865 19.5163 21.3955 16.9921 22.4231C14.468 23.4507 11.6566 23.5271 9.08039 22.638C6.50416 21.749 4.33824 19.955 2.98504 17.5894C2.77937 17.2299 2.90411 16.7717 3.26365 16.566C3.6232 16.3603 4.0814 16.4851 4.28707 16.8446C5.45984 18.8948 7.33698 20.4496 9.56971 21.2201C11.8024 21.9906 14.239 21.9244 16.4266 21.0338C18.6142 20.1432 20.4041 18.4888 21.4638 16.3779C22.5235 14.2671 22.781 11.8433 22.1883 9.55693C21.5957 7.27056 20.1932 5.27706 18.2415 3.94682ZM9.59107 10.909C9.83062 11.1486 10.0106 11.4366 10.1214 11.75H15.3788C15.4896 11.4366 15.6695 11.1486 15.9091 10.909C16.331 10.4871 16.9033 10.25 17.5001 10.25C17.9143 10.25 18.2501 10.5858 18.2501 11C18.2501 11.4142 17.9143 11.75 17.5001 11.75C17.3012 11.75 17.1104 11.829 16.9697 11.9697C16.8291 12.1103 16.7501 12.3011 16.7501 12.5C16.7501 12.6989 16.8291 12.8897 16.9697 13.0303C17.1104 13.171 17.3012 13.25 17.5001 13.25C17.9143 13.25 18.2501 13.5858 18.2501 14C18.2501 14.4142 17.9143 14.75 17.5001 14.75C16.9033 14.75 16.331 14.5129 15.9091 14.091C15.6695 13.8514 15.4896 13.5634 15.3788 13.25H10.1214C10.0106 13.5634 9.83062 13.8514 9.59107 14.091C9.16911 14.5129 8.59681 14.75 8.00008 14.75C7.58586 14.75 7.25008 14.4142 7.25008 14C7.25008 13.5858 7.58586 13.25 8.00008 13.25C8.19899 13.25 8.38975 13.171 8.53041 13.0303C8.67106 12.8897 8.75008 12.6989 8.75008 12.5C8.75008 12.3011 8.67106 12.1103 8.53041 11.9697C8.38975 11.829 8.19899 11.75 8.00008 11.75C7.58586 11.75 7.25008 11.4142 7.25008 11C7.25008 10.5858 7.58586 10.25 8.00008 10.25C8.59681 10.25 9.16911 10.4871 9.59107 10.909Z" fill="#767676"/>
</g>
<defs>
<clipPath id="clip0_964:15">
<rect width="24" height="24" fill="white"/>
</clipPath>
</defs>
</svg>
