<svg width="24" height="24" viewBox="0 0 24 24" fill="none" xmlns="http://www.w3.org/2000/svg">
<path fill-rule="evenodd" clip-rule="evenodd" d="M23.3106 6.74828C23.5631 6.46412 23.5631 6.0359 23.3106 5.75174L19.3106 1.25174C19.0354 0.942148 18.5613 0.914263 18.2517 1.18945C17.9421 1.46464 17.9143 1.93869 18.1894 2.24828L21.0799 5.50001H13.75C12.2312 5.50001 11 6.73123 11 8.25001L11 13.25C11 13.6642 11.3358 14 11.75 14C12.1642 14 12.5 13.6642 12.5 13.25L12.5 8.25001C12.5 7.55965 13.0596 7.00001 13.75 7.00001H21.0799L18.1894 10.2517C17.9143 10.5613 17.9421 11.0354 18.2517 11.3106C18.5613 11.5858 19.0354 11.5579 19.3106 11.2483L23.3106 6.74828ZM2.5 4.75001C2.5 4.05965 3.05964 3.50001 3.75 3.50001H8.75C9.16421 3.50001 9.5 3.16422 9.5 2.75001C9.5 2.33579 9.16421 2.00001 8.75 2.00001H3.75C2.23122 2.00001 1 3.23123 1 4.75001V20C1 21.5188 2.23122 22.75 3.75 22.75H19.75C21.2688 22.75 22.5 21.5188 22.5 20V13.75C22.5 13.3358 22.1642 13 21.75 13C21.3358 13 21 13.3358 21 13.75V20C21 20.6904 20.4404 21.25 19.75 21.25H3.75C3.05964 21.25 2.5 20.6904 2.5 20V4.75001Z" fill="#767676"/>
</svg>
