<svg width="24" height="24" viewBox="0 0 24 24" fill="none" xmlns="http://www.w3.org/2000/svg">
<path fill-rule="evenodd" clip-rule="evenodd" d="M23.5606 5.99828C23.8131 5.71412 23.8131 5.2859 23.5606 5.00174L19.5606 0.501735C19.2854 0.192148 18.8113 0.164263 18.5017 0.439451C18.1921 0.71464 18.1643 1.18869 18.4394 1.49828L21.3299 4.75001H14C12.4812 4.75001 11.25 5.98123 11.25 7.50001L11.25 12.5C11.25 12.9142 11.5858 13.25 12 13.25C12.4142 13.25 12.75 12.9142 12.75 12.5L12.75 7.50001C12.75 6.80965 13.3096 6.25001 14 6.25001H21.3299L18.4394 9.50173C18.1643 9.81132 18.1921 10.2854 18.5017 10.5606C18.8113 10.8358 19.2854 10.8079 19.5606 10.4983L23.5606 5.99828ZM1.75 3.00001C1.75 2.30965 2.30964 1.75001 3 1.75001H9C9.41421 1.75001 9.75 1.41422 9.75 1.00001C9.75 0.585795 9.41421 0.250008 9 0.250008H3C1.48122 0.250008 0.25 1.48123 0.25 3.00001V21C0.25 22.5188 1.48122 23.75 3 23.75H21C22.5188 23.75 23.75 22.5188 23.75 21V13C23.75 12.5858 23.4142 12.25 23 12.25C22.5858 12.25 22.25 12.5858 22.25 13V21C22.25 21.6904 21.6904 22.25 21 22.25H3C2.30964 22.25 1.75 21.6904 1.75 21V3.00001Z" fill="#767676"/>
</svg>
