<svg width="24" height="24" viewBox="0 0 24 24" fill="none" xmlns="http://www.w3.org/2000/svg">
<path d="M21.375 23.2498V6.74994C21.375 5.15866 20.7429 3.63255 19.6177 2.50734C18.4925 1.38213 16.9663 0.749993 15.3751 0.749993C13.7838 0.749993 12.2577 1.38213 11.1325 2.50734C10.0416 3.59822 9.41414 5.06592 9.37687 6.6045" stroke="#71717A" stroke-width="1.5" stroke-linecap="round" stroke-linejoin="round"/>
<path d="M4.87496 11.2499C4.87496 10.0564 5.34906 8.91185 6.19296 8.06795C7.03687 7.22404 8.18145 6.74994 9.37492 6.74994C10.5684 6.74994 11.713 7.22404 12.5569 8.06795C13.4008 8.91185 13.8749 10.0564 13.8749 11.2499H4.87496Z" stroke="#71717A" stroke-width="1.5" stroke-linecap="round" stroke-linejoin="round"/>
<path d="M5.62495 14.2499L4.87496 16.4999" stroke="#71717A" stroke-width="1.5" stroke-linecap="round" stroke-linejoin="round"/>
<path d="M3.37497 20.9998L2.62498 23.2498" stroke="#71717A" stroke-width="1.5" stroke-linecap="round" stroke-linejoin="round"/>
<path d="M13.1249 14.2499L13.8749 16.4999" stroke="#71717A" stroke-width="1.5" stroke-linecap="round" stroke-linejoin="round"/>
<path d="M15.3749 20.9998L16.1249 23.2498" stroke="#71717A" stroke-width="1.5" stroke-linecap="round" stroke-linejoin="round"/>
<path d="M9.37492 14.2499V16.4999" stroke="#71717A" stroke-width="1.5" stroke-linecap="round" stroke-linejoin="round"/>
<path d="M9.37492 23.2498V20.9998" stroke="#71717A" stroke-width="1.5" stroke-linecap="round" stroke-linejoin="round"/>
</svg>
