<svg width="24" height="24" viewBox="0 0 24 24" fill="none" xmlns="http://www.w3.org/2000/svg">
<g clip-path="url(#clip0_1312_184)">
<path fill-rule="evenodd" clip-rule="evenodd" d="M11.6629 3.03769C12.6475 2.05312 13.9828 1.5 15.3752 1.5C16.7676 1.5 18.1029 2.05312 19.0875 3.03769C20.0721 4.02225 20.6252 5.35761 20.6252 6.75V23.25C20.6252 23.6642 20.961 24 21.3752 24C21.7894 24 22.1252 23.6642 22.1252 23.25V6.75C22.1252 4.95979 21.414 3.2429 20.1482 1.97703C18.8823 0.711159 17.1654 0 15.3752 0C13.585 0 11.8681 0.711159 10.6022 1.97703C9.50276 3.0765 8.82175 4.51621 8.66171 6.04869C7.53285 6.20352 6.47773 6.72285 5.66289 7.53769C4.67833 8.52226 4.1252 9.85761 4.1252 11.25C4.1252 11.4489 4.20422 11.6397 4.34487 11.7803C4.48553 11.921 4.67629 12 4.8752 12H13.8752C14.0741 12 14.2649 11.921 14.4055 11.7803C14.5462 11.6397 14.6252 11.4489 14.6252 11.25C14.6252 9.85761 14.0721 8.52226 13.0875 7.53769C12.2924 6.7426 11.2686 6.22887 10.1706 6.06059C10.3214 4.92266 10.8423 3.85832 11.6629 3.03769ZM6.72355 8.59835C7.42681 7.89509 8.38064 7.5 9.3752 7.5C10.3698 7.5 11.3236 7.89509 12.0269 8.59835C12.5506 9.12214 12.9035 9.78492 13.0495 10.5H5.70095C5.84693 9.78492 6.19977 9.12214 6.72355 8.59835ZM5.86237 13.5385C6.25533 13.6695 6.4677 14.0942 6.33672 14.4872L5.58672 16.7372C5.45573 17.1301 5.03099 17.3425 4.63803 17.2115C4.24507 17.0805 4.03271 16.6558 4.16369 16.2628L4.91369 14.0128C5.04468 13.6199 5.46942 13.4075 5.86237 13.5385ZM4.08672 21.2372C4.2177 20.8442 4.00533 20.4195 3.61237 20.2885C3.21942 20.1575 2.79468 20.3699 2.66369 20.7628L1.91369 23.0128C1.78271 23.4058 1.99508 23.8305 2.38803 23.9615C2.78099 24.0925 3.20573 23.8801 3.33672 23.4872L4.08672 21.2372ZM12.888 13.5385C13.281 13.4075 13.7057 13.6199 13.8367 14.0128L14.5867 16.2628C14.7177 16.6558 14.5053 17.0805 14.1124 17.2115C13.7194 17.3425 13.2947 17.1301 13.1637 16.7372L12.4137 14.4872C12.2827 14.0942 12.4951 13.6695 12.888 13.5385ZM16.0867 20.7628C15.9557 20.3699 15.531 20.1575 15.138 20.2885C14.7451 20.4195 14.5327 20.8442 14.6637 21.2372L15.4137 23.4872C15.5447 23.8801 15.9694 24.0925 16.3624 23.9615C16.7553 23.8305 16.9677 23.4058 16.8367 23.0128L16.0867 20.7628ZM9.3752 13.5C9.78942 13.5 10.1252 13.8358 10.1252 14.25V16.5C10.1252 16.9142 9.78942 17.25 9.3752 17.25C8.96099 17.25 8.6252 16.9142 8.6252 16.5V14.25C8.6252 13.8358 8.96099 13.5 9.3752 13.5ZM10.1252 21C10.1252 20.5858 9.78942 20.25 9.3752 20.25C8.96099 20.25 8.6252 20.5858 8.6252 21V23.25C8.6252 23.6642 8.96099 24 9.3752 24C9.78942 24 10.1252 23.6642 10.1252 23.25V21Z" fill="#767676"/>
</g>
<defs>
<clipPath id="clip0_1312_184">
<rect width="24" height="24" fill="white"/>
</clipPath>
</defs>
</svg>
