<svg width="24" height="24" viewBox="0 0 24 24" fill="none" xmlns="http://www.w3.org/2000/svg">
<path d="M21.3752 23.25V6.75C21.3752 5.1587 20.7431 3.63258 19.6178 2.50736C18.4926 1.38214 16.9665 0.75 15.3752 0.75C13.7839 0.75 12.2578 1.38214 11.1326 2.50736C10.0417 3.59825 9.41422 5.06596 9.37695 6.60456" stroke="#767676" stroke-width="1.5" stroke-linecap="round" stroke-linejoin="round"/>
<path d="M4.875 11.25C4.875 10.0565 5.34911 8.91193 6.19302 8.06802C7.03693 7.22411 8.18153 6.75 9.375 6.75C10.5685 6.75 11.7131 7.22411 12.557 8.06802C13.4009 8.91193 13.875 10.0565 13.875 11.25H4.875Z" stroke="#767676" stroke-width="1.5" stroke-linecap="round" stroke-linejoin="round"/>
<path d="M5.625 14.25L4.875 16.5" stroke="#767676" stroke-width="1.5" stroke-linecap="round" stroke-linejoin="round"/>
<path d="M3.375 21L2.625 23.25" stroke="#767676" stroke-width="1.5" stroke-linecap="round" stroke-linejoin="round"/>
<path d="M13.125 14.25L13.875 16.5" stroke="#767676" stroke-width="1.5" stroke-linecap="round" stroke-linejoin="round"/>
<path d="M15.375 21L16.125 23.25" stroke="#767676" stroke-width="1.5" stroke-linecap="round" stroke-linejoin="round"/>
<path d="M9.375 14.25V16.5" stroke="#767676" stroke-width="1.5" stroke-linecap="round" stroke-linejoin="round"/>
<path d="M9.375 23.25V21" stroke="#767676" stroke-width="1.5" stroke-linecap="round" stroke-linejoin="round"/>
</svg>
