<svg width="24" height="24" viewBox="0 0 24 24" fill="none" xmlns="http://www.w3.org/2000/svg">
<path d="M12 23.25C18.2132 23.25 23.25 18.2132 23.25 12C23.25 5.7868 18.2132 0.75 12 0.75C5.7868 0.75 0.75 5.7868 0.75 12C0.75 18.2132 5.7868 23.25 12 23.25Z" stroke="#71717A" stroke-width="1.5" stroke-linecap="round" stroke-linejoin="round"/>
<path d="M11.9982 18.7542C13.2563 18.7542 14.4893 18.4027 15.5583 17.7394C16.6202 17.0804 17.4782 16.1399 18.0371 15.0224L5.94824 15C6.50681 16.1273 7.3692 17.076 8.43818 17.7394C9.50715 18.4027 10.7402 18.7542 11.9982 18.7542Z" stroke="#71717A" stroke-width="1.5" stroke-linecap="round" stroke-linejoin="round"/>
<path d="M18.75 10.5005C18.595 10.0617 18.3077 9.68178 17.9278 9.41305C17.5478 9.14432 17.0939 9.00001 16.6285 9.00001C16.1631 9.00001 15.7092 9.14432 15.3292 9.41305C14.9572 9.67617 14.6741 10.0459 14.5169 10.4731" stroke="#71717A" stroke-width="1.5" stroke-linecap="round" stroke-linejoin="round"/>
<path d="M5.25004 10.5005C5.40506 10.0617 5.69233 9.68178 6.07228 9.41305C6.45223 9.14432 6.90616 9.00001 7.37154 9.00001C7.83692 9.00001 8.29085 9.14432 8.6708 9.41305C9.04416 9.67713 9.32804 10.0486 9.48486 10.4778" stroke="#71717A" stroke-width="1.5" stroke-linecap="round" stroke-linejoin="round"/>
</svg>
