<svg width="24" height="24" viewBox="0 0 24 24" fill="none" xmlns="http://www.w3.org/2000/svg">
<path d="M12 23.25C18.2132 23.25 23.25 18.2132 23.25 12C23.25 5.7868 18.2132 0.75 12 0.75C5.7868 0.75 0.75 5.7868 0.75 12C0.75 18.2132 5.7868 23.25 12 23.25Z" stroke="#71717A" stroke-width="1.5" stroke-linecap="round" stroke-linejoin="round"/>
<path d="M7.5 15.75H16.5" stroke="#71717A" stroke-width="1.5" stroke-linecap="round" stroke-linejoin="round"/>
<path d="M18.7498 9C18.5948 9.4388 18.3075 9.81874 17.9276 10.0875C17.5476 10.3562 17.0937 10.5005 16.6283 10.5005C16.163 10.5005 15.709 10.3562 15.3291 10.0875C14.9491 9.81874 14.6619 9.4388 14.5068 9" stroke="#71717A" stroke-width="1.5" stroke-linecap="round" stroke-linejoin="round"/>
<path d="M9.493 9C9.33798 9.4388 9.05071 9.81874 8.67076 10.0875C8.29081 10.3562 7.83688 10.5005 7.3715 10.5005C6.90612 10.5005 6.45219 10.3562 6.07224 10.0875C5.69229 9.81874 5.40502 9.4388 5.25 9" stroke="#71717A" stroke-width="1.5" stroke-linecap="round" stroke-linejoin="round"/>
<path d="M14.5176 9.02963C14.6749 9.4559 14.9577 9.82481 15.3291 10.0875C15.7091 10.3562 16.163 10.5005 16.6284 10.5005C17.0938 10.5005 17.5477 10.3562 17.9276 10.0875C18.299 9.82481 18.5818 9.4559 18.7392 9.02963" stroke="#71717A" stroke-width="1.5" stroke-linecap="round" stroke-linejoin="round"/>
<path d="M5.26709 9.0463C5.4256 9.46551 5.70588 9.82823 6.0724 10.0875C6.45235 10.3562 6.90628 10.5005 7.37166 10.5005C7.83704 10.5005 8.29097 10.3562 8.67092 10.0875C9.03744 9.82823 9.31772 9.46551 9.47623 9.0463" stroke="#71717A" stroke-width="1.5" stroke-linecap="round" stroke-linejoin="round"/>
</svg>
