<svg width="24" height="24" viewBox="0 0 24 24" fill="none" xmlns="http://www.w3.org/2000/svg">
<path d="M12 23.25C18.2132 23.25 23.25 18.2132 23.25 12C23.25 5.7868 18.2132 0.75 12 0.75C5.7868 0.75 0.75 5.7868 0.75 12C0.75 18.2132 5.7868 23.25 12 23.25Z" stroke="#474445" stroke-width="1.5" stroke-linecap="round" stroke-linejoin="round"/>
<path d="M18.0482 15C17.4897 16.1273 16.6273 17.076 15.5583 17.7394C14.4893 18.4027 13.2563 18.7542 11.9982 18.7542C10.7402 18.7542 9.50715 18.4027 8.43818 17.7394C7.3692 17.076 6.50681 16.1273 5.94824 15" stroke="#474445" stroke-width="1.5" stroke-linecap="round" stroke-linejoin="round"/>
<path d="M14.507 10.5005C14.662 10.0617 14.9493 9.68178 15.3292 9.41305C15.7092 9.14432 16.1631 9.00001 16.6285 9.00001C17.0939 9.00001 17.5478 9.14432 17.9278 9.41305C18.3077 9.68178 18.595 10.0617 18.75 10.5005" stroke="#474445" stroke-width="1.5" stroke-linecap="round" stroke-linejoin="round"/>
<path d="M5.25016 10.5005C5.40519 10.0617 5.69246 9.68178 6.07241 9.41305C6.45235 9.14432 6.90628 9.00001 7.37166 9.00001C7.83704 9.00001 8.29097 9.14432 8.67092 9.41305C9.05087 9.68178 9.33814 10.0617 9.49316 10.5005" stroke="#474445" stroke-width="1.5" stroke-linecap="round" stroke-linejoin="round"/>
</svg>
