<svg width="24" height="24" viewBox="0 0 24 24" fill="none" xmlns="http://www.w3.org/2000/svg">
<path d="M12 23.25C18.2132 23.25 23.25 18.2132 23.25 12C23.25 5.7868 18.2132 0.75 12 0.75C5.7868 0.75 0.75 5.7868 0.75 12C0.75 18.2132 5.7868 23.25 12 23.25Z" stroke="#474445" stroke-width="1.5" stroke-linecap="round" stroke-linejoin="round"/>
<path d="M18.7498 9C18.5948 9.4388 18.3075 9.81874 17.9276 10.0875C17.5476 10.3562 17.0937 10.5005 16.6283 10.5005C16.163 10.5005 15.709 10.3562 15.3291 10.0875C14.9491 9.81874 14.6619 9.4388 14.5068 9" stroke="#474445" stroke-width="1.5" stroke-linecap="round" stroke-linejoin="round"/>
<path d="M9.493 9C9.33798 9.4388 9.05071 9.81874 8.67076 10.0875C8.29081 10.3562 7.83688 10.5005 7.3715 10.5005C6.90612 10.5005 6.45219 10.3562 6.07224 10.0875C5.69229 9.81874 5.40502 9.4388 5.25 9" stroke="#474445" stroke-width="1.5" stroke-linecap="round" stroke-linejoin="round"/>
<path d="M18.0482 17.7542C17.4897 16.6269 16.6273 15.6781 15.5583 15.0148C14.4893 14.3515 13.2563 14 11.9982 14C10.7402 14 9.50715 14.3515 8.43818 15.0148C7.3692 15.6781 6.50681 16.6269 5.94824 17.7542" stroke="#474445" stroke-width="1.5" stroke-linecap="round" stroke-linejoin="round"/>
</svg>
