<svg width="24" height="24" viewBox="0 0 24 24" fill="none" xmlns="http://www.w3.org/2000/svg">
<g clip-path="url(#clip0_1979_1166)">
<path d="M12 23.25C18.2132 23.25 23.25 18.2132 23.25 12C23.25 5.7868 18.2132 0.75 12 0.75C5.7868 0.75 0.75 5.7868 0.75 12C0.75 18.2132 5.7868 23.25 12 23.25Z" stroke="#767676" stroke-width="1.5" stroke-linecap="round" stroke-linejoin="round"/>
<path d="M12 18.75C13.2573 18.7502 14.4897 18.3993 15.5583 17.7367C16.6188 17.0792 17.4762 16.1406 18.0353 15.0255" stroke="#767676" stroke-width="1.5" stroke-linecap="round" stroke-linejoin="round"/>
<path d="M18.75 10.5005C18.595 10.0617 18.3077 9.68178 17.9278 9.41305C17.5478 9.14432 17.0939 9.00001 16.6285 9.00001C16.1631 9.00001 15.7092 9.14432 15.3292 9.41305C14.9551 9.67765 14.6709 10.0501 14.5142 10.4803" stroke="#767676" stroke-width="1.5" stroke-linecap="round" stroke-linejoin="round"/>
<path d="M5.25018 10.5005C5.4052 10.0617 5.69247 9.68178 6.07242 9.41305C6.45237 9.14432 6.9063 9.00001 7.37168 9.00001C7.83706 9.00001 8.29099 9.14432 8.67094 9.41305C9.03808 9.67272 9.31868 10.0362 9.47705 10.4563" stroke="#767676" stroke-width="1.5" stroke-linecap="round" stroke-linejoin="round"/>
</g>
<defs>
<clipPath id="clip0_1979_1166">
<rect width="24" height="24" fill="white"/>
</clipPath>
</defs>
</svg>
