<svg width="25" height="24" viewBox="0 0 25 24" fill="none" xmlns="http://www.w3.org/2000/svg">
<path d="M12.1003 13.3768C12.5123 13.3332 12.8108 12.964 12.7673 12.5521C12.7237 12.1401 12.3544 11.8416 11.9425 11.8851L12.1003 13.3768ZM3.45253 4.84401L4.20221 4.86593C4.20237 4.86029 4.20247 4.85465 4.20251 4.84902L3.45253 4.84401ZM4.20153 4.10001L4.20151 4.85005L4.20984 4.84996L4.20153 4.10001ZM8.54107 6.11895C8.88729 6.34633 9.35229 6.24999 9.57968 5.90377C9.80706 5.55755 9.71072 5.09255 9.3645 4.86517L8.54107 6.11895ZM4.20154 3.35001C3.80571 3.35 3.42594 3.50656 3.14511 3.78551L4.20222 4.84972L4.20151 4.85001L4.20154 3.35001ZM3.14511 3.78551C2.86428 4.06447 2.70519 4.44318 2.70255 4.839L4.20251 4.84902L4.20222 4.84972L3.14511 3.78551ZM2.70285 4.82209C2.55149 9.99895 7.12453 13.9034 12.1003 13.3768L11.9425 11.8851C7.814 12.322 4.07902 9.07924 4.20221 4.86593L2.70285 4.82209ZM9.3645 4.86517C7.83097 3.85802 6.03072 3.32969 4.19322 3.35005L4.20984 4.84996C5.74885 4.83291 7.25667 5.27541 8.54107 6.11895L9.3645 4.86517Z" fill="#71717A"/>
<path d="M14.5202 4.96084C14.1777 5.19379 14.0889 5.66029 14.3219 6.00279C14.5548 6.34529 15.0213 6.4341 15.3638 6.20114L14.5202 4.96084ZM19.802 4.09999L19.7978 4.84999L19.801 4.84999L19.802 4.09999ZM20.549 4.84399L19.799 4.848C19.7991 4.85378 19.7992 4.85956 19.7993 4.86534L20.549 4.84399ZM18.385 10.507L18.8955 11.0565C18.9072 11.0456 18.9185 11.0344 18.9294 11.0229L18.385 10.507ZM15.4329 12.2573L15.1958 11.5457L15.4329 12.2573ZM12.2128 11.8932C11.8002 11.856 11.4357 12.1604 11.3985 12.5729C11.3614 12.9855 11.6657 13.35 12.0783 13.3871L12.2128 11.8932ZM15.3638 6.20114C16.6709 5.31215 18.2171 4.84098 19.7978 4.84998L19.8063 3.35C17.9218 3.33927 16.0785 3.901 14.5202 4.96084L15.3638 6.20114ZM19.801 4.84999C19.8005 4.84999 19.8 4.84978 19.7996 4.84941L20.8582 3.78662C20.5779 3.50747 20.1986 3.35052 19.803 3.34999L19.801 4.84999ZM19.7996 4.84941C19.7993 4.84904 19.799 4.84853 19.799 4.848L21.299 4.83998C21.2969 4.44442 21.1384 4.06576 20.8582 3.78662L19.7996 4.84941ZM19.7993 4.86534C19.8261 5.80658 19.6669 6.74385 19.3308 7.62344L20.732 8.15887C21.1386 7.09491 21.3311 5.96117 21.2987 4.82264L19.7993 4.86534ZM19.3308 7.62344C18.9947 8.50302 18.4883 9.30762 17.8406 9.99113L18.9294 11.0229C19.7129 10.1961 20.3254 9.22283 20.732 8.15887L19.3308 7.62344ZM17.8745 9.95753C17.1053 10.6722 16.1919 11.2137 15.1958 11.5457L15.67 12.9688C16.8695 12.569 17.9693 11.917 18.8955 11.0565L17.8745 9.95753ZM15.1958 11.5457C14.2356 11.8658 13.22 11.9839 12.2128 11.8932L12.0783 13.3871C13.2911 13.4963 14.5139 13.3541 15.67 12.9688L15.1958 11.5457Z" fill="#71717A"/>
<path d="M20.2513 14.6686C20.2581 14.2544 19.9279 13.9132 19.5137 13.9064C19.0996 13.8996 18.7583 14.2299 18.7515 14.644L20.2513 14.6686ZM5.25185 14.6441C5.2451 14.2299 4.90389 13.8997 4.48973 13.9064C4.07557 13.9132 3.7453 14.2544 3.75205 14.6685L5.25185 14.6441ZM18.7515 14.644C18.7418 15.2412 18.2275 15.9817 16.951 16.615C15.7191 17.2262 13.9714 17.625 12.0017 17.625V19.125C14.1531 19.125 16.1384 18.6927 17.6177 17.9587C19.0524 17.2469 20.2275 16.128 20.2513 14.6686L18.7515 14.644ZM12.0017 17.625C10.0317 17.625 8.28392 17.2271 7.05214 16.6164C5.77616 15.9838 5.26162 15.2434 5.25185 14.6441L3.75205 14.6685C3.77586 16.1298 4.95062 17.2487 6.38583 17.9603C7.86525 18.6938 9.85051 19.125 12.0017 19.125V17.625Z" fill="#71717A"/>
<path d="M23.25 14.622H24L24 14.6147L23.25 14.622ZM0.75 14.625L0 14.618V14.625H0.75ZM2.3069 12.0457C2.53924 11.7028 2.44961 11.2364 2.10669 11.0041C1.76378 10.7718 1.29744 10.8614 1.0651 11.2043L2.3069 12.0457ZM22.9503 11.2271C22.7195 10.8832 22.2535 10.7916 21.9096 11.0224C21.5657 11.2533 21.474 11.7192 21.7049 12.0631L22.9503 11.2271ZM22.5 14.622C22.5 16.3642 21.4407 18.0333 19.5388 19.3012C17.6423 20.5656 14.9791 21.372 12 21.372V22.872C15.2339 22.872 18.1957 21.9994 20.3709 20.5493C22.5408 19.1027 24 17.0218 24 14.622H22.5ZM12 21.372C9.02079 21.372 6.35752 20.5663 4.46099 19.3026C2.55925 18.0355 1.5 16.3671 1.5 14.625H0C0 17.0249 1.45925 19.105 3.62926 20.5509C5.80448 22.0002 8.76621 22.872 12 22.872V21.372ZM1.49997 14.632C1.5086 13.7093 1.7893 12.8096 2.3069 12.0457L1.0651 11.2043C0.381916 12.2126 0.0114259 13.4001 3.28422e-05 14.618L1.49997 14.632ZM21.7049 12.0631C22.2146 12.8225 22.4911 13.7145 22.5 14.6293L24 14.6147C23.9881 13.407 23.6231 12.2295 22.9503 11.2271L21.7049 12.0631Z" fill="#71717A"/>
<path d="M12.0215 12.631L11.5498 13.2141C11.8249 13.4366 12.2181 13.4366 12.4932 13.2141L12.0215 12.631ZM9.02148 6.63098L8.27176 6.61056C8.27133 6.62654 8.2714 6.64253 8.27199 6.65851L9.02148 6.63098ZM11.5075 1.08498L12.0216 1.63106C12.0253 1.62761 12.0289 1.62412 12.0325 1.62059L11.5075 1.08498ZM12.022 0.874878V1.62488V0.874878ZM12.5365 1.08498L12.0115 1.62059C12.015 1.62405 12.0186 1.62747 12.0222 1.63086L12.5365 1.08498ZM15.0215 6.63098L15.771 6.65851C15.7716 6.64251 15.7716 6.62649 15.7712 6.61049L15.0215 6.63098ZM12.0325 1.62059C12.0297 1.62334 12.0259 1.62488 12.022 1.62488V0.124878C11.6333 0.124878 11.2601 0.277284 10.9825 0.549376L12.0325 1.62059ZM12.022 1.62488C12.0181 1.62488 12.0143 1.62334 12.0115 1.62059L13.0615 0.549376C12.7839 0.277284 12.4107 0.124878 12.022 0.124878V1.62488ZM9.77121 6.65141C9.82258 4.7657 10.6481 2.92412 12.0216 1.63106L10.9934 0.538902C9.32912 2.1057 8.33402 4.32566 8.27176 6.61056L9.77121 6.65141ZM12.4932 12.0479C10.8556 10.7231 9.84828 8.70843 9.77098 6.60346L8.27199 6.65851C8.36521 9.19673 9.57512 11.6166 11.5498 13.2141L12.4932 12.0479ZM14.272 6.60346C14.1947 8.70843 13.1874 10.7231 11.5498 12.0479L12.4932 13.2141C14.4678 11.6166 15.6778 9.19673 15.771 6.65851L14.272 6.60346ZM12.0222 1.63086C13.3951 2.9244 14.2202 4.76586 14.2718 6.65148L15.7712 6.61049C15.7088 4.32593 14.7142 2.10631 13.0508 0.539102L12.0222 1.63086Z" fill="#71717A"/>
</svg>
