<svg width="24" height="24" viewBox="0 0 24 24" fill="none" xmlns="http://www.w3.org/2000/svg">
<g clip-path="url(#clip0_1312_537)">
<path d="M12.0195 12.631C11.1199 11.9032 10.3867 10.9911 9.86921 9.95614C9.35173 8.92117 9.062 7.78734 9.01953 6.63098C9.04794 5.58833 9.2822 4.56158 9.70884 3.60979C10.1355 2.658 10.7461 1.79995 11.5055 1.08498C11.6429 0.950311 11.8276 0.874878 12.02 0.874878C12.2124 0.874878 12.3971 0.950311 12.5345 1.08498C13.2936 1.80017 13.9039 2.65829 14.3304 3.61004C14.7568 4.5618 14.991 5.58844 15.0195 6.63098C14.9771 7.78734 14.6873 8.92117 14.1698 9.95614C13.6524 10.9911 12.9191 11.9032 12.0195 12.631ZM12.0195 12.631C10.8622 12.7535 9.69112 12.6276 8.58627 12.2619C7.48142 11.8961 6.46731 11.2989 5.61164 10.51C4.89627 9.75427 4.33714 8.86474 3.9663 7.89244C3.59547 6.92013 3.42023 5.88419 3.45064 4.84401C3.45196 4.64623 3.53146 4.457 3.67178 4.31762C3.8121 4.17823 4.00186 4.1 4.19964 4.10001C5.94768 4.08064 7.65903 4.60172 9.09964 5.59201M14.9405 5.58099C16.3732 4.60657 18.0679 4.09013 19.8005 4.09999C19.998 4.10025 20.1874 4.17863 20.3274 4.31801C20.4673 4.4574 20.5465 4.64648 20.5475 4.84399C20.5771 5.88388 20.4012 6.91938 20.0299 7.89115C19.6586 8.86293 19.0991 9.75186 18.3835 10.507C17.5358 11.2946 16.5292 11.8914 15.4314 12.2573C14.3337 12.6231 13.1703 12.7495 12.0195 12.628M19.5 14.625C19.5 16.696 16.142 18.375 12 18.375C7.858 18.375 4.5 16.7 4.5 14.625M22.31 11.622C22.9113 12.5078 23.2376 13.5515 23.248 14.622C23.248 18.764 18.211 22.122 11.998 22.122C5.78505 22.122 0.748047 18.767 0.748047 14.625C0.758059 13.5547 1.08365 12.5111 1.68405 11.625" stroke="#767676" stroke-width="1.5" stroke-linecap="round" stroke-linejoin="round"/>
</g>
<defs>
<clipPath id="clip0_1312_537">
<rect width="24" height="24" fill="white"/>
</clipPath>
</defs>
</svg>
