<svg width="24" height="24" viewBox="0 0 24 24" fill="none" xmlns="http://www.w3.org/2000/svg">
<g clip-path="url(#clip0_1312_537)">
<path d="M12.0984 13.3768C12.5103 13.3332 12.8089 12.964 12.7653 12.5521C12.7217 12.1401 12.3525 11.8416 11.9405 11.8851L12.0984 13.3768ZM3.45058 4.84401L4.20025 4.86593C4.20042 4.86029 4.20052 4.85465 4.20056 4.84902L3.45058 4.84401ZM4.19958 4.10001L4.19956 4.85005L4.20789 4.84996L4.19958 4.10001ZM8.53912 6.11895C8.88534 6.34633 9.35034 6.24999 9.57772 5.90377C9.80511 5.55755 9.70877 5.09255 9.36254 4.86517L8.53912 6.11895ZM4.19959 3.35001C3.80376 3.35 3.42399 3.50656 3.14316 3.78551L4.20026 4.84972L4.19956 4.85001L4.19959 3.35001ZM3.14316 3.78551C2.86233 4.06447 2.70323 4.44318 2.70059 4.839L4.20056 4.84902L4.20026 4.84972L3.14316 3.78551ZM2.7009 4.82209C2.54953 9.99895 7.12258 13.9034 12.0984 13.3768L11.9405 11.8851C7.81205 12.322 4.07707 9.07924 4.20025 4.86593L2.7009 4.82209ZM9.36254 4.86517C7.82902 3.85802 6.02877 3.32969 4.19126 3.35005L4.20789 4.84996C5.7469 4.83291 7.25472 5.27541 8.53912 6.11895L9.36254 4.86517Z" fill="#767676"/>
<path d="M14.5183 4.96084C14.1758 5.19379 14.087 5.66029 14.3199 6.00279C14.5529 6.34529 15.0194 6.4341 15.3619 6.20114L14.5183 4.96084ZM19.8001 4.09999L19.7958 4.84999L19.7991 4.84999L19.8001 4.09999ZM20.5471 4.84399L19.7971 4.848C19.7971 4.85378 19.7972 4.85956 19.7974 4.86534L20.5471 4.84399ZM18.3831 10.507L18.8936 11.0565C18.9052 11.0456 18.9165 11.0344 18.9275 11.0229L18.3831 10.507ZM15.431 12.2573L15.1938 11.5457L15.431 12.2573ZM12.2108 11.8932C11.7983 11.856 11.4337 12.1604 11.3966 12.5729C11.3594 12.9855 11.6638 13.35 12.0763 13.3871L12.2108 11.8932ZM15.3619 6.20114C16.6689 5.31215 18.2151 4.84098 19.7958 4.84998L19.8043 3.35C17.9199 3.33927 16.0765 3.901 14.5183 4.96084L15.3619 6.20114ZM19.7991 4.84999C19.7986 4.84999 19.798 4.84978 19.7977 4.84941L20.8562 3.78662C20.5759 3.50747 20.1966 3.35052 19.8011 3.34999L19.7991 4.84999ZM19.7977 4.84941C19.7973 4.84904 19.7971 4.84853 19.7971 4.848L21.2971 4.83998C21.2949 4.44442 21.1365 4.06576 20.8562 3.78662L19.7977 4.84941ZM19.7974 4.86534C19.8242 5.80658 19.665 6.74385 19.3289 7.62344L20.73 8.15887C21.1366 7.09491 21.3292 5.96117 21.2968 4.82264L19.7974 4.86534ZM19.3289 7.62344C18.9927 8.50302 18.4863 9.30762 17.8387 9.99113L18.9275 11.0229C19.7109 10.1961 20.3235 9.22283 20.73 8.15887L19.3289 7.62344ZM17.8726 9.95753C17.1034 10.6722 16.1899 11.2137 15.1938 11.5457L15.6681 12.9688C16.8675 12.569 17.9673 11.917 18.8936 11.0565L17.8726 9.95753ZM15.1938 11.5457C14.2336 11.8658 13.2181 11.9839 12.2108 11.8932L12.0763 13.3871C13.2891 13.4963 14.5119 13.3541 15.6681 12.9688L15.1938 11.5457Z" fill="#767676"/>
<path d="M20.2494 14.6686C20.2562 14.2544 19.9259 13.9132 19.5118 13.9064C19.0976 13.8996 18.7564 14.2299 18.7496 14.644L20.2494 14.6686ZM5.2499 14.6441C5.24315 14.2299 4.90194 13.8997 4.48778 13.9064C4.07362 13.9132 3.74335 14.2544 3.7501 14.6685L5.2499 14.6441ZM18.7496 14.644C18.7398 15.2412 18.2256 15.9817 16.9491 16.615C15.7172 17.2262 13.9694 17.625 11.9997 17.625V19.125C14.1512 19.125 16.1365 18.6927 17.6158 17.9587C19.0505 17.2469 20.2255 16.128 20.2494 14.6686L18.7496 14.644ZM11.9997 17.625C10.0298 17.625 8.28196 17.2271 7.05019 16.6164C5.77421 15.9838 5.25967 15.2434 5.2499 14.6441L3.7501 14.6685C3.77391 16.1298 4.94867 17.2487 6.38388 17.9603C7.86329 18.6938 9.84856 19.125 11.9997 19.125V17.625Z" fill="#767676"/>
<path d="M23.248 14.622H23.9981L23.998 14.6147L23.248 14.622ZM0.748047 14.625L-0.00195312 14.618V14.625H0.748047ZM2.30495 12.0457C2.53729 11.7028 2.44765 11.2364 2.10474 11.0041C1.76183 10.7718 1.29549 10.8614 1.06315 11.2043L2.30495 12.0457ZM22.9484 11.2271C22.7175 10.8832 22.2516 10.7916 21.9077 11.0224C21.5637 11.2533 21.4721 11.7192 21.7029 12.0631L22.9484 11.2271ZM22.498 14.622C22.498 16.3642 21.4387 18.0333 19.5369 19.3012C17.6403 20.5656 14.9771 21.372 11.998 21.372V22.872C15.232 22.872 18.1937 21.9994 20.3689 20.5493C22.5389 19.1027 23.998 17.0218 23.998 14.622H22.498ZM11.998 21.372C9.01884 21.372 6.35557 20.5663 4.45904 19.3026C2.55729 18.0355 1.49805 16.3671 1.49805 14.625H-0.00195312C-0.00195312 17.0249 1.4573 19.105 3.62731 20.5509C5.80253 22.0002 8.76426 22.872 11.998 22.872V21.372ZM1.49801 14.632C1.50665 13.7093 1.78734 12.8096 2.30495 12.0457L1.06315 11.2043C0.379963 12.2126 0.00947279 13.4001 -0.00192028 14.618L1.49801 14.632ZM21.7029 12.0631C22.2126 12.8225 22.4891 13.7145 22.4981 14.6293L23.998 14.6147C23.9862 13.407 23.6212 12.2295 22.9484 11.2271L21.7029 12.0631Z" fill="#767676"/>
<path d="M12.0195 12.631L11.5478 13.2141C11.8229 13.4366 12.2161 13.4366 12.4912 13.2141L12.0195 12.631ZM9.01953 6.63098L8.26981 6.61056C8.26937 6.62654 8.26945 6.64253 8.27004 6.65851L9.01953 6.63098ZM11.5055 1.08498L12.0196 1.63106C12.0233 1.62761 12.0269 1.62412 12.0305 1.62059L11.5055 1.08498ZM12.02 0.874878V1.62488V0.874878ZM12.5345 1.08498L12.0095 1.62059C12.0131 1.62405 12.0166 1.62747 12.0202 1.63086L12.5345 1.08498ZM15.0195 6.63098L15.769 6.65851C15.7696 6.64251 15.7697 6.62649 15.7693 6.61049L15.0195 6.63098ZM12.0305 1.62059C12.0277 1.62334 12.024 1.62488 12.02 1.62488V0.124878C11.6313 0.124878 11.2581 0.277284 10.9805 0.549376L12.0305 1.62059ZM12.02 1.62488C12.0161 1.62488 12.0123 1.62334 12.0095 1.62059L13.0595 0.549376C12.7819 0.277284 12.4087 0.124878 12.02 0.124878V1.62488ZM9.76925 6.65141C9.82063 4.7657 10.6461 2.92412 12.0196 1.63106L10.9914 0.538902C9.32716 2.1057 8.33206 4.32566 8.26981 6.61056L9.76925 6.65141ZM12.4912 12.0479C10.8537 10.7231 9.84633 8.70843 9.76903 6.60346L8.27004 6.65851C8.36325 9.19673 9.57317 11.6166 11.5478 13.2141L12.4912 12.0479ZM14.27 6.60346C14.1927 8.70843 13.1854 10.7231 11.5478 12.0479L12.4912 13.2141C14.4659 11.6166 15.6758 9.19673 15.769 6.65851L14.27 6.60346ZM12.0202 1.63086C13.3932 2.9244 14.2183 4.76586 14.2698 6.65148L15.7693 6.61049C15.7068 4.32593 14.7123 2.10631 13.0488 0.539102L12.0202 1.63086Z" fill="#767676"/>
</g>
<defs>
<clipPath id="clip0_1312_537">
<rect width="24" height="24" fill="white"/>
</clipPath>
</defs>
</svg>
