<svg width="24" height="24" viewBox="0 0 24 24" fill="none" xmlns="http://www.w3.org/2000/svg">
<path fill-rule="evenodd" clip-rule="evenodd" d="M12 1.75C6.33908 1.75 1.75 6.33908 1.75 12C1.75 17.6609 6.33908 22.25 12 22.25C17.6609 22.25 22.25 17.6609 22.25 12C22.25 6.33908 17.6609 1.75 12 1.75ZM0.25 12C0.25 5.51065 5.51065 0.25 12 0.25C18.4893 0.25 23.75 5.51065 23.75 12C23.75 18.4893 18.4893 23.75 12 23.75C5.51065 23.75 0.25 18.4893 0.25 12ZM12 3.25C12.4142 3.25 12.75 3.58579 12.75 4V5.5C12.75 5.91421 12.4142 6.25 12 6.25C11.5858 6.25 11.25 5.91421 11.25 5.5V4C11.25 3.58579 11.5858 3.25 12 3.25ZM6.53033 5.46967C6.23744 5.17678 5.76256 5.17678 5.46967 5.46967C5.17678 5.76256 5.17678 6.23744 5.46967 6.53033L6.53033 7.59099C6.82322 7.88388 7.2981 7.88388 7.59099 7.59099C7.88388 7.2981 7.88388 6.82322 7.59099 6.53033L6.53033 5.46967ZM2.75 12C2.75 12.4142 3.08579 12.75 3.5 12.75H5C5.41421 12.75 5.75 12.4142 5.75 12C5.75 11.5858 5.41421 11.25 5 11.25H3.5C3.08579 11.25 2.75 11.5858 2.75 12ZM10.5 18.75C10.0858 18.75 9.75 18.4142 9.75 18C9.75 17.5858 10.0858 17.25 10.5 17.25H13.5C13.9142 17.25 14.25 17.5858 14.25 18C14.25 18.4142 13.9142 18.75 13.5 18.75H10.5ZM18.25 12C18.25 12.4142 18.5858 12.75 19 12.75H20.5C20.9142 12.75 21.25 12.4142 21.25 12C21.25 11.5858 20.9142 11.25 20.5 11.25H19C18.5858 11.25 18.25 11.5858 18.25 12ZM6.53033 18.591C6.23744 18.8839 5.76256 18.8839 5.46967 18.591C5.17678 18.2981 5.17678 17.8232 5.46967 17.5303L6.53033 16.4697C6.82322 16.1768 7.2981 16.1768 7.59099 16.4697C7.88388 16.7626 7.88388 17.2374 7.59099 17.5303L6.53033 18.591ZM18.5303 18.591C18.2374 18.8839 17.7626 18.8839 17.4697 18.591L16.409 17.5303C16.1161 17.2374 16.1161 16.7626 16.409 16.4697C16.7019 16.1768 17.1768 16.1768 17.4697 16.4697L18.5303 17.5303C18.8232 17.8232 18.8232 18.2981 18.5303 18.591ZM16.7327 7.30848L17.023 8C16.7327 7.30848 16.7326 7.3085 16.7325 7.30853L16.7323 7.30863L16.7314 7.30899L16.7283 7.31034L16.716 7.31549L16.669 7.33532C16.628 7.35267 16.568 7.37813 16.4914 7.41078C16.3383 7.47608 16.1189 7.57019 15.8531 7.68582C15.3218 7.91692 14.6031 8.23474 13.8556 8.58076C13.1097 8.92601 12.3274 9.30295 11.6718 9.65194C11.3443 9.82626 11.0408 9.99765 10.7858 10.1579C10.5424 10.3108 10.3009 10.4794 10.1287 10.6517C9.56607 11.2143 9.25 11.9773 9.25 12.773C9.25 13.5687 9.56607 14.3317 10.1287 14.8943C10.6913 15.4569 11.4544 15.773 12.25 15.773C13.0457 15.773 13.8087 15.4569 14.3713 14.8943L14.3716 14.894C14.5436 14.7218 14.7121 14.4804 14.865 14.2371C15.0251 13.9821 15.1964 13.6786 15.3707 13.3512C15.7196 12.6956 16.0965 11.9133 16.4419 11.1675C16.7879 10.42 17.1058 9.7013 17.337 9.17C17.4527 8.90416 17.5468 8.68481 17.6121 8.53169C17.6448 8.45513 17.6703 8.3951 17.6876 8.35408L17.7075 8.30709L17.7126 8.29487L17.714 8.29167L17.7143 8.29081L17.7144 8.29057C17.7145 8.2905 17.7145 8.29046 17.023 8L17.7145 8.29046C17.8325 8.00955 17.7688 7.68517 17.5534 7.46971C17.338 7.25425 17.0136 7.19053 16.7327 7.30848ZM14.4857 9.94199C14.8631 9.76727 15.2336 9.59964 15.5759 9.44697C15.4231 9.78924 15.2554 10.1598 15.0807 10.5373C14.7402 11.2726 14.3766 12.0263 14.0465 12.6464C13.8814 12.9568 13.7286 13.226 13.5947 13.4393C13.4535 13.6641 13.3579 13.7864 13.3104 13.834C13.0291 14.1151 12.6477 14.273 12.25 14.273C11.8522 14.273 11.4707 14.115 11.1893 13.8337C10.908 13.5524 10.75 13.1708 10.75 12.773C10.75 12.3752 10.908 11.9936 11.1893 11.7123C11.2369 11.6648 11.3591 11.5692 11.5839 11.4279C11.7971 11.294 12.0663 11.1412 12.3766 10.976C12.9967 10.646 13.7504 10.2824 14.4857 9.94199ZM13.3104 13.834C13.3105 13.8339 13.3106 13.8338 13.3107 13.8337L13.8409 14.3639L13.3104 13.834Z" fill="#767676"/>
</svg>
