<svg width="24" height="24" viewBox="0 0 24 24" fill="none" xmlns="http://www.w3.org/2000/svg">
<g clip-path="url(#clip0)">
<path d="M9 15.292V15.007C9 14.2114 9.31607 13.4483 9.87868 12.8857C10.4413 12.3231 11.2044 12.007 12 12.007C12.7956 12.007 13.5587 12.3231 14.1213 12.8857C14.6839 13.4483 15 14.2114 15 15.007V15.292" stroke="#474445" stroke-width="1.5" stroke-linecap="round" stroke-linejoin="round"/>
<path d="M14.252 5.257L12.002 12.007" stroke="#474445" stroke-width="1.5" stroke-linecap="round" stroke-linejoin="round"/>
<path d="M6.37695 7.507C6.30279 7.507 6.23028 7.529 6.16861 7.5702C6.10695 7.61141 6.05888 7.66998 6.0305 7.7385C6.00212 7.80702 5.99469 7.88242 6.00916 7.95516C6.02363 8.02791 6.05934 8.09472 6.11179 8.14717C6.16423 8.19961 6.23105 8.23533 6.30379 8.2498C6.37654 8.26427 6.45194 8.25684 6.52046 8.22846C6.58898 8.20008 6.64755 8.15201 6.68875 8.09034C6.72996 8.02867 6.75195 7.95617 6.75195 7.882C6.75195 7.78255 6.71244 7.68717 6.64212 7.61684C6.57179 7.54651 6.47641 7.507 6.37695 7.507Z" fill="#474445" stroke="#474445" stroke-width="1.5" stroke-linecap="round" stroke-linejoin="round"/>
<path d="M19.127 11.257C19.0528 11.257 18.9803 11.279 18.9186 11.3202C18.8569 11.3614 18.8089 11.42 18.7805 11.4885C18.7521 11.557 18.7447 11.6324 18.7592 11.7052C18.7736 11.7779 18.8093 11.8447 18.8618 11.8972C18.9142 11.9496 18.9811 11.9853 19.0538 11.9998C19.1265 12.0143 19.2019 12.0068 19.2705 11.9785C19.339 11.9501 19.3975 11.902 19.4388 11.8403C19.48 11.7787 19.502 11.7062 19.502 11.632C19.502 11.5325 19.4624 11.4372 19.3921 11.3668C19.3218 11.2965 19.2264 11.257 19.127 11.257Z" fill="#474445" stroke="#474445" stroke-width="1.5" stroke-linecap="round" stroke-linejoin="round"/>
<path d="M17.627 7.507C17.5527 7.50661 17.4801 7.52826 17.4181 7.56923C17.3562 7.61019 17.3078 7.66862 17.2791 7.7371C17.2504 7.80559 17.2427 7.88105 17.257 7.95393C17.2712 8.0268 17.3068 8.09381 17.3591 8.14645C17.4115 8.1991 17.4783 8.23501 17.5511 8.24964C17.6239 8.26428 17.6994 8.25697 17.768 8.22864C17.8367 8.20032 17.8954 8.15226 17.9367 8.09055C17.978 8.02884 18 7.95625 18 7.882C18 7.78255 17.9605 7.68716 17.8902 7.61684C17.8198 7.54651 17.7245 7.507 17.625 7.507" fill="#474445"/>
<path d="M17.627 7.507C17.5527 7.50661 17.4801 7.52826 17.4181 7.56923C17.3562 7.61019 17.3078 7.66862 17.2791 7.7371C17.2504 7.80559 17.2427 7.88105 17.257 7.95393C17.2712 8.0268 17.3068 8.09381 17.3591 8.14645C17.4115 8.1991 17.4783 8.23501 17.5511 8.24964C17.6239 8.26428 17.6994 8.25697 17.768 8.22864C17.8367 8.20032 17.8954 8.15226 17.9367 8.09055C17.978 8.02884 18 7.95625 18 7.882C18 7.78255 17.9605 7.68716 17.8902 7.61684C17.8198 7.54651 17.7245 7.507 17.625 7.507" stroke="#474445" stroke-width="1.5" stroke-linecap="round" stroke-linejoin="round"/>
<path d="M9.37695 4.507C9.30278 4.507 9.23028 4.529 9.16861 4.5702C9.10695 4.61141 9.05888 4.66998 9.0305 4.7385C9.00212 4.80702 8.99469 4.88242 9.00916 4.95516C9.02363 5.02791 9.05934 5.09472 9.11179 5.14717C9.16423 5.19961 9.23105 5.23533 9.30379 5.2498C9.37654 5.26427 9.45194 5.25684 9.52046 5.22846C9.58898 5.20008 9.64755 5.15201 9.68875 5.09034C9.72996 5.02867 9.75195 4.95617 9.75195 4.882C9.75195 4.78255 9.71244 4.68717 9.64212 4.61684C9.57179 4.54651 9.47641 4.507 9.37695 4.507Z" fill="#474445" stroke="#474445" stroke-width="1.5" stroke-linecap="round" stroke-linejoin="round"/>
<path d="M21.4308 18.142C18.7078 16.1067 15.3994 15.007 11.9998 15.007C8.60026 15.007 5.29188 16.1067 2.56885 18.142" stroke="#474445" stroke-width="1.5" stroke-linecap="round" stroke-linejoin="round"/>
<path d="M12 23.257C18.2132 23.257 23.25 18.2202 23.25 12.007C23.25 5.7938 18.2132 0.757004 12 0.757004C5.7868 0.757004 0.75 5.7938 0.75 12.007C0.75 18.2202 5.7868 23.257 12 23.257Z" stroke="#474445" stroke-width="1.5" stroke-linecap="round" stroke-linejoin="round"/>
<path d="M4.87695 11.257C4.80279 11.257 4.73028 11.279 4.66861 11.3202C4.60695 11.3614 4.55888 11.42 4.5305 11.4885C4.50212 11.557 4.49469 11.6324 4.50916 11.7052C4.52363 11.7779 4.55934 11.8447 4.61179 11.8972C4.66423 11.9496 4.73105 11.9853 4.80379 11.9998C4.87654 12.0143 4.95194 12.0068 5.02046 11.9785C5.08898 11.9501 5.14755 11.902 5.18875 11.8403C5.22996 11.7787 5.25195 11.7062 5.25195 11.632C5.25195 11.5325 5.21244 11.4372 5.14212 11.3668C5.07179 11.2965 4.97641 11.257 4.87695 11.257Z" fill="#474445" stroke="#474445" stroke-width="1.5" stroke-linecap="round" stroke-linejoin="round"/>
</g>
<defs>
<clipPath id="clip0">
<rect width="24" height="24" fill="white"/>
</clipPath>
</defs>
</svg>
