<svg width="24" height="24" viewBox="0 0 24 24" fill="none" xmlns="http://www.w3.org/2000/svg">
<g clip-path="url(#clip0)">
<path fill-rule="evenodd" clip-rule="evenodd" d="M19.5 0.75C19.5 0.335786 19.1642 0 18.75 0C18.3358 0 18 0.335786 18 0.75V4.5H12.75C12.3358 4.5 12 4.83579 12 5.25V10.5H6.75C6.33579 10.5 6 10.8358 6 11.25V16.5H0.75C0.335786 16.5 0 16.8358 0 17.25V23.25C0 23.6642 0.335786 24 0.75 24C1.16421 24 1.5 23.6642 1.5 23.25V18H6.75C7.16421 18 7.5 17.6642 7.5 17.25V12H12.75C13.1642 12 13.5 11.6642 13.5 11.25V6H18.75C19.1642 6 19.5 5.66421 19.5 5.25V0.75ZM23.78 12.22C23.9327 12.3723 24.006 12.574 24 12.7738V18.75C24 19.1642 23.6642 19.5 23.25 19.5C22.8358 19.5 22.5 19.1642 22.5 18.75V14.5652L13.3083 23.7797C13.0158 24.0729 12.5409 24.0735 12.2477 23.781C11.9544 23.4885 11.9538 23.0136 12.2464 22.7203L21.4429 13.501H17.25C16.8358 13.501 16.5 13.1652 16.5 12.751C16.5 12.3368 16.8358 12.001 17.25 12.001H23.25C23.2978 12.001 23.3456 12.0055 23.3927 12.0146C23.5345 12.0418 23.67 12.1103 23.78 12.22Z" fill="#474445"/>
</g>
<defs>
<clipPath id="clip0">
<rect width="24" height="24" fill="white"/>
</clipPath>
</defs>
</svg>
