<svg width="24" height="24" viewBox="0 0 24 24" fill="none" xmlns="http://www.w3.org/2000/svg">
<g clip-path="url(#clip0_1199_109)">
<path d="M22.7324 10.112L23.0104 9.837C23.1197 9.72871 23.1956 9.59137 23.2293 9.44125C23.2629 9.29114 23.2528 9.13452 23.2002 8.98996C23.1476 8.84539 23.0547 8.71893 22.9324 8.62554C22.8102 8.53215 22.6637 8.47574 22.5104 8.463L16.0704 7.825L12.7294 1.2C12.6607 1.0658 12.5563 0.953173 12.4276 0.874523C12.299 0.795874 12.1512 0.754257 12.0004 0.754257C11.8496 0.754257 11.7018 0.795874 11.5732 0.874523C11.4445 0.953173 11.3401 1.0658 11.2714 1.2L7.92541 7.825L1.48541 8.463C1.33209 8.47574 1.18564 8.53215 1.06339 8.62554C0.94114 8.71893 0.848209 8.84539 0.795601 8.98996C0.742993 9.13452 0.732912 9.29114 0.76655 9.44125C0.800188 9.59137 0.876137 9.72871 0.985405 9.837L6.28541 15.09L4.32941 22.228C4.2892 22.3794 4.29359 22.5392 4.34205 22.6882C4.39051 22.8371 4.48098 22.9689 4.60256 23.0677C4.72415 23.1665 4.87168 23.228 5.02742 23.2449C5.18315 23.2618 5.34045 23.2334 5.48041 23.163L9.1333 21.3537" stroke="#767676" stroke-width="1.5" stroke-linecap="round" stroke-linejoin="round"/>
<path d="M17.25 23.25C20.5637 23.25 23.25 20.5637 23.25 17.25C23.25 13.9363 20.5637 11.25 17.25 11.25C13.9363 11.25 11.25 13.9363 11.25 17.25C11.25 20.5637 13.9363 23.25 17.25 23.25Z" stroke="#767676" stroke-width="1.5" stroke-linecap="round" stroke-linejoin="round"/>
<path d="M14.3877 17.96L15.8877 19.46C15.9639 19.5358 16.0554 19.5943 16.1562 19.6317C16.2569 19.6691 16.3645 19.6845 16.4716 19.6768C16.5788 19.6691 16.6831 19.6386 16.7774 19.5872C16.8718 19.5358 16.9541 19.4648 17.0187 19.379L19.8614 15.589" stroke="#767676" stroke-width="1.5" stroke-linecap="round" stroke-linejoin="round"/>
</g>
<defs>
<clipPath id="clip0_1199_109">
<rect width="24" height="24" fill="white"/>
</clipPath>
</defs>
</svg>
