<svg width="24" height="24" viewBox="0 0 24 24" fill="none" xmlns="http://www.w3.org/2000/svg">
<g clip-path="url(#clip0_1199:109)">
<path fill-rule="evenodd" clip-rule="evenodd" d="M11.1819 0.234657C11.4283 0.0839853 11.7116 0.0042572 12.0004 0.0042572C12.2892 0.0042572 12.5725 0.0839853 12.8189 0.234657C13.0653 0.385329 13.2654 0.601098 13.397 0.858192L13.3991 0.862282L13.3991 0.862288L16.5545 7.11929L22.5794 7.71617C22.8731 7.74189 23.1534 7.85054 23.3877 8.02954C23.6239 8.20994 23.8034 8.45423 23.905 8.73348C24.0066 9.01274 24.0261 9.31527 23.9611 9.60525C23.8961 9.89522 23.7494 10.1605 23.5384 10.3697L23.5379 10.3702L23.2599 10.6452C22.9654 10.9365 22.4905 10.9339 22.1992 10.6394C21.9079 10.345 21.9105 9.8701 22.205 9.5788L22.4825 9.3043L22.4827 9.30409C22.49 9.29672 22.4951 9.28742 22.4974 9.27726C22.4997 9.267 22.499 9.2563 22.4954 9.24643C22.4918 9.23655 22.4855 9.22791 22.4771 9.22153C22.4688 9.21515 22.4588 9.2113 22.4483 9.21043L22.4365 9.20944L22.4365 9.20935L15.9965 8.57135C15.7411 8.54604 15.5163 8.39189 15.4007 8.16271L12.0618 1.54181L12.0613 1.54089C12.0556 1.52999 12.0469 1.52084 12.0364 1.51439C12.0256 1.50776 12.0131 1.50426 12.0004 1.50426C11.9877 1.50426 11.9752 1.50776 11.9644 1.51439C11.9538 1.52085 11.9452 1.53004 11.9394 1.54097L11.939 1.54181L8.59487 8.16312C8.47923 8.39208 8.2546 8.54606 7.99934 8.57135L1.55934 9.20935L1.54752 9.21052L1.54752 9.21043C1.53704 9.2113 1.52703 9.21515 1.51868 9.22153C1.51033 9.22791 1.50398 9.23655 1.50039 9.24643C1.49679 9.2563 1.4961 9.26701 1.4984 9.27726C1.5007 9.28752 1.50589 9.2969 1.51335 9.3043L1.51337 9.30431L6.81337 14.5573C7.00561 14.7478 7.08027 15.0272 7.00874 15.2882L5.05428 22.4205L5.05397 22.4217C5.0512 22.4331 5.05164 22.445 5.05526 22.4561C5.05902 22.4677 5.06603 22.4779 5.07545 22.4856C5.08487 22.4932 5.09631 22.498 5.10837 22.4993C5.12044 22.5006 5.13263 22.4984 5.14348 22.4929L5.14752 22.4909L8.88452 20.6399C9.25569 20.4561 9.70563 20.6079 9.88948 20.9791C10.0733 21.3503 9.92147 21.8002 9.55029 21.9841L5.81734 23.8331L5.815 23.8342C5.54653 23.9687 5.245 24.0229 4.94646 23.9905C4.64706 23.958 4.36343 23.8397 4.12968 23.6498C3.89592 23.4599 3.72201 23.2066 3.62884 22.9202C3.53568 22.6338 3.52723 22.3266 3.60453 22.0355L3.60605 22.0298L3.60607 22.0298L5.44629 15.3143L0.457456 10.3697L0.457442 10.3697C0.246379 10.1605 0.0996751 9.89522 0.0346983 9.60525C-0.0302797 9.31527 -0.0108052 9.01274 0.0908161 8.73348C0.192438 8.45423 0.37195 8.20994 0.608099 8.02954C0.842416 7.85054 1.12276 7.74188 1.4164 7.71617L7.44162 7.11926L10.6019 0.861886L10.6038 0.858192C10.7355 0.601098 10.9355 0.385329 11.1819 0.234657ZM17.25 12C14.3505 12 12 14.3505 12 17.25C12 20.1495 14.3505 22.5 17.25 22.5C20.1495 22.5 22.5 20.1495 22.5 17.25C22.5 14.3505 20.1495 12 17.25 12ZM10.5 17.25C10.5 13.5221 13.5221 10.5 17.25 10.5C20.9779 10.5 24 13.5221 24 17.25C24 20.9779 20.9779 24 17.25 24C13.5221 24 10.5 20.9779 10.5 17.25ZM20.5237 15.956C20.7722 15.6247 20.7051 15.1546 20.3737 14.906C20.0424 14.6575 19.5723 14.7246 19.3237 15.056L16.4195 18.9279L16.4189 18.9285L16.418 18.9287L16.4172 18.9286L16.4165 18.9281L14.918 17.4297C14.6251 17.1368 14.1503 17.1368 13.8574 17.4297C13.5645 17.7226 13.5645 18.1974 13.8574 18.4903L15.3574 19.9903L15.3589 19.9919C15.5111 20.1432 15.6939 20.2601 15.8951 20.3348C16.0963 20.4095 16.3111 20.4402 16.5252 20.4249C16.7393 20.4096 16.9475 20.3485 17.136 20.2459C17.3245 20.1433 17.4888 20.0015 17.6179 19.8301L17.6187 19.829L20.5237 15.956Z" fill="#767676"/>
</g>
<defs>
<clipPath id="clip0_1199:109">
<rect width="24" height="24" fill="white"/>
</clipPath>
</defs>
</svg>
