<svg width="24" height="24" viewBox="0 0 24 24" fill="none" xmlns="http://www.w3.org/2000/svg">
<path fill-rule="evenodd" clip-rule="evenodd" d="M0.25 2.5C0.25 1.25736 1.25736 0.25 2.5 0.25H21.5C22.7426 0.25 23.75 1.25736 23.75 2.5V21.5C23.75 22.7426 22.7426 23.75 21.5 23.75H2.5C1.25736 23.75 0.25 22.7426 0.25 21.5V2.5ZM2.5 1.75C2.08579 1.75 1.75 2.08579 1.75 2.5V21.5C1.75 21.9142 2.08579 22.25 2.5 22.25H21.5C21.9142 22.25 22.25 21.9142 22.25 21.5V2.5C22.25 2.08579 21.9142 1.75 21.5 1.75H2.5ZM7 4.75C5.75736 4.75 4.75 5.75736 4.75 7C4.75 8.24264 5.75736 9.25 7 9.25C8.24264 9.25 9.25 8.24264 9.25 7C9.25 5.75736 8.24264 4.75 7 4.75ZM3.25 7C3.25 4.92893 4.92893 3.25 7 3.25C9.07107 3.25 10.75 4.92893 10.75 7C10.75 9.07107 9.07107 10.75 7 10.75C4.92893 10.75 3.25 9.07107 3.25 7ZM7 14.75C5.75736 14.75 4.75 15.7574 4.75 17C4.75 18.2426 5.75736 19.25 7 19.25C8.24264 19.25 9.25 18.2426 9.25 17C9.25 15.7574 8.24264 14.75 7 14.75ZM3.25 17C3.25 14.9289 4.92893 13.25 7 13.25C9.07107 13.25 10.75 14.9289 10.75 17C10.75 19.0711 9.07107 20.75 7 20.75C4.92893 20.75 3.25 19.0711 3.25 17ZM14.75 7C14.75 5.75736 15.7574 4.75 17 4.75C18.2426 4.75 19.25 5.75736 19.25 7C19.25 8.24264 18.2426 9.25 17 9.25C15.7574 9.25 14.75 8.24264 14.75 7ZM17 3.25C14.9289 3.25 13.25 4.92893 13.25 7C13.25 9.07107 14.9289 10.75 17 10.75C19.0711 10.75 20.75 9.07107 20.75 7C20.75 4.92893 19.0711 3.25 17 3.25ZM14.75 19C14.75 18.5858 14.4142 18.25 14 18.25C13.5858 18.25 13.25 18.5858 13.25 19V20C13.25 20.4142 13.5858 20.75 14 20.75C14.4142 20.75 14.75 20.4142 14.75 20V19ZM17 18.25C17.4142 18.25 17.75 18.5858 17.75 19V20C17.75 20.4142 17.4142 20.75 17 20.75C16.5858 20.75 16.25 20.4142 16.25 20V19C16.25 18.5858 16.5858 18.25 17 18.25ZM20.75 19C20.75 18.5858 20.4142 18.25 20 18.25C19.5858 18.25 19.25 18.5858 19.25 19V20C19.25 20.4142 19.5858 20.75 20 20.75C20.4142 20.75 20.75 20.4142 20.75 20V19Z" fill="#767676"/>
</svg>
