<svg width="24" height="24" viewBox="0 0 24 24" fill="none" xmlns="http://www.w3.org/2000/svg">
<path d="M6.75 22.5C6.75 22.9142 7.08579 23.25 7.5 23.25C7.91421 23.25 8.25 22.9142 8.25 22.5H6.75ZM15.75 22.5C15.75 22.9142 16.0858 23.25 16.5 23.25C16.9142 23.25 17.25 22.9142 17.25 22.5H15.75ZM4.3 8.25H19.7V6.75H4.3V8.25ZM19.7 8.25C20.7843 8.25 21.75 9.20778 21.75 10.5H23.25C23.25 8.47851 21.7085 6.75 19.7 6.75V8.25ZM21.75 10.5V19.5H23.25V10.5H21.75ZM21.75 19.5C21.75 20.7922 20.7843 21.75 19.7 21.75V23.25C21.7085 23.25 23.25 21.5215 23.25 19.5H21.75ZM19.7 21.75H4.3V23.25H19.7V21.75ZM4.3 21.75C3.21571 21.75 2.25 20.7922 2.25 19.5H0.75C0.75 21.5215 2.29149 23.25 4.3 23.25V21.75ZM2.25 19.5V10.5H0.75V19.5H2.25ZM2.25 10.5C2.25 9.20778 3.21571 8.25 4.3 8.25V6.75C2.29149 6.75 0.75 8.47851 0.75 10.5H2.25ZM9 2.25H15V0.75H9V2.25ZM15 2.25C15.4142 2.25 15.75 2.58579 15.75 3H17.25C17.25 1.75736 16.2426 0.75 15 0.75V2.25ZM8.25 3C8.25 2.58579 8.58579 2.25 9 2.25V0.75C7.75736 0.75 6.75 1.75736 6.75 3H8.25ZM6.75 3V22.5H8.25V3H6.75ZM15.75 3V22.5H17.25V3H15.75Z" fill="#767676"/>
</svg>
