<svg width="24" height="24" viewBox="0 0 24 24" fill="none" xmlns="http://www.w3.org/2000/svg">
<g clip-path="url(#clip0)">
<path fill-rule="evenodd" clip-rule="evenodd" d="M9.90871 1.98566C10.5818 1.64363 11.3301 1.47641 12.0848 1.49941C12.8395 1.52241 13.5762 1.73488 14.2273 2.11727C14.8783 2.49965 15.4227 3.03966 15.8103 3.68759C16.0226 4.0424 16.1841 4.42332 16.2915 4.81924C15.4592 5.10487 14.5839 5.25088 13.7012 5.25L13.7 5.25C12.6326 5.25058 11.576 5.03648 10.593 4.62043C9.78899 4.28011 9.04764 3.81035 8.39794 3.23099C8.80334 2.71096 9.31883 2.2854 9.90871 1.98566ZM7.67404 4.58598C7.57089 4.89812 7.50184 5.22181 7.46895 5.55146C7.42783 5.96363 7.06036 6.26442 6.6482 6.2233C6.23603 6.18217 5.93524 5.81471 5.97636 5.40254C6.0763 4.40088 6.42661 3.44044 6.99504 2.60966C7.56348 1.77887 8.33176 1.10442 9.22919 0.648405C10.1266 0.192385 11.1243 -0.0305551 12.1305 0.00010705C13.1367 0.0307692 14.119 0.314048 14.987 0.823867C15.8549 1.33369 16.5807 2.05366 17.0975 2.91752C17.6143 3.78138 17.9055 4.76136 17.9443 5.76725C17.983 6.77315 17.7681 7.77263 17.3193 8.67369C16.8706 9.57476 16.2023 10.3485 15.3761 10.9236C15.0362 11.1602 14.5687 11.0764 14.3321 10.7365C14.0955 10.3965 14.1792 9.9291 14.5192 9.69245C15.1388 9.2611 15.6401 8.6808 15.9767 8.00496C16.2352 7.48595 16.3902 6.9234 16.4351 6.34858C15.5497 6.61512 14.6281 6.75093 13.6997 6.75L13.7005 6L13.7009 6.75L13.6997 6.75C12.4316 6.75054 11.1762 6.49609 10.0084 6.00179C9.1642 5.64449 8.37818 5.16713 7.67404 4.58598ZM9.57321 9.37919C9.94322 9.13196 10.3782 9 10.8232 9C11.42 9 11.9923 9.23705 12.4142 9.65901C12.8362 10.081 13.0732 10.6533 13.0732 11.25C13.0732 11.695 12.9413 12.13 12.694 12.5C12.4468 12.87 12.0954 13.1584 11.6843 13.3287C11.2731 13.499 10.8207 13.5436 10.3843 13.4568C9.94783 13.37 9.54692 13.1557 9.23225 12.841C8.99402 12.6028 8.81332 12.3151 8.70192 12H7.82324C6.82868 12 5.87485 11.6049 5.17159 10.9016C4.46833 10.1984 4.07324 9.24456 4.07324 8.25V7.172C4.07324 6.75778 4.40903 6.422 4.82324 6.422C5.23746 6.422 5.57324 6.75778 5.57324 7.172V8.25C5.57324 8.84673 5.8103 9.41903 6.23225 9.84099C6.65421 10.2629 7.2265 10.5 7.82324 10.5H8.70192C8.71512 10.4627 8.72931 10.4257 8.74451 10.389C8.91481 9.97783 9.2032 9.62643 9.57321 9.37919ZM10.8232 10.5C10.6749 10.5 10.5299 10.544 10.4066 10.6264C10.2832 10.7088 10.1871 10.8259 10.1303 10.963C10.0736 11.1 10.0587 11.2508 10.0877 11.3963C10.1166 11.5418 10.188 11.6754 10.2929 11.7803C10.3978 11.8852 10.5314 11.9566 10.6769 11.9856C10.8224 12.0145 10.9732 11.9997 11.1103 11.9429C11.2473 11.8861 11.3644 11.79 11.4468 11.6667C11.5293 11.5433 11.5732 11.3983 11.5732 11.25C11.5732 11.0511 11.4942 10.8603 11.3536 10.7197C11.2129 10.579 11.0222 10.5 10.8232 10.5ZM15.7847 14.2602C15.9756 13.8927 16.4284 13.7495 16.796 13.9405C18.5003 14.826 19.9289 16.1624 20.9259 17.804C21.923 19.4455 22.4502 21.3293 22.4502 23.25C22.4502 23.6642 22.1144 24 21.7002 24C21.286 24 20.9502 23.6642 20.9502 23.25C20.9502 21.604 20.4983 19.9895 19.6439 18.5826C18.7894 17.1757 17.5651 16.0304 16.1044 15.2715C15.7369 15.0806 15.5937 14.6278 15.7847 14.2602ZM7.79413 15.2715C8.16165 15.0804 8.3047 14.6276 8.11365 14.2601C7.9226 13.8925 7.46978 13.7495 7.10226 13.9405C5.39831 14.8263 3.9702 16.1629 2.97355 17.8044C1.97691 19.446 1.44998 21.3297 1.4502 23.2501C1.45024 23.6643 1.78607 24 2.20028 24C2.61449 24 2.95024 23.6641 2.9502 23.2499C2.95001 21.6041 3.4016 19.9897 4.25574 18.5829C5.10989 17.176 6.33381 16.0306 7.79413 15.2715Z" fill="#474445"/>
</g>
<defs>
<clipPath id="clip0">
<rect width="24" height="24" fill="white"/>
</clipPath>
</defs>
</svg>
