<svg width="24" height="24" viewBox="0 0 24 24" fill="none" xmlns="http://www.w3.org/2000/svg">
<g clip-path="url(#clip0_1199_143)">
<path d="M6.72266 5.477C6.81011 4.60052 7.11663 3.76013 7.61402 3.03317C8.11141 2.30621 8.78368 1.71606 9.56895 1.31703C10.3542 0.918006 11.2272 0.722929 12.1077 0.749759C12.9881 0.776589 13.8476 1.02446 14.6071 1.47057C15.3666 1.91667 16.0017 2.54666 16.4539 3.30256C16.9061 4.05845 17.1609 4.91595 17.1948 5.79613C17.2287 6.67631 17.0407 7.55088 16.648 8.33933C16.2627 9.11295 15.6925 9.77927 14.9883 10.2794" stroke="#767676" stroke-width="1.5" stroke-linecap="round" stroke-linejoin="round"/>
<path d="M7.43945 3.35C8.25207 4.18893 9.22512 4.85586 10.3007 5.31111C11.3763 5.76636 12.5325 6.00064 13.7005 6C14.8492 6.00115 15.9865 5.77494 17.0469 5.33475" stroke="#767676" stroke-width="1.5" stroke-linecap="round" stroke-linejoin="round"/>
<path d="M10.8232 9.75C10.5266 9.75 10.2366 9.83797 9.98989 10.0028C9.74321 10.1676 9.55096 10.4019 9.43742 10.676C9.32389 10.9501 9.29419 11.2517 9.35206 11.5426C9.40994 11.8336 9.5528 12.1009 9.76258 12.3107C9.97236 12.5204 10.2396 12.6633 10.5306 12.7212C10.8216 12.7791 11.1232 12.7494 11.3973 12.6358C11.6714 12.5223 11.9056 12.33 12.0704 12.0834C12.2353 11.8367 12.3232 11.5467 12.3232 11.25C12.3232 10.8522 12.1652 10.4706 11.8839 10.1893C11.6026 9.90804 11.2211 9.75 10.8232 9.75Z" stroke="#767676" stroke-width="1.5" stroke-linecap="round" stroke-linejoin="round"/>
<path d="M4.82324 7.172V8.25C4.82324 9.04565 5.13931 9.80871 5.70192 10.3713C6.26453 10.9339 7.02759 11.25 7.82324 11.25H9.24649" stroke="#767676" stroke-width="1.5" stroke-linecap="round" stroke-linejoin="round"/>
<path d="M21.7005 23.25C21.7006 21.4667 21.211 19.7175 20.2852 18.1933C19.3632 16.6752 18.0438 15.4382 16.4697 14.616" stroke="#767676" stroke-width="1.5" stroke-linecap="round" stroke-linejoin="round"/>
<path d="M2.2002 23.25C2.2 21.4669 2.68926 19.7179 3.61465 18.1937C4.53542 16.677 5.85284 15.4409 7.42453 14.6183" stroke="#767676" stroke-width="1.5" stroke-linecap="round" stroke-linejoin="round"/>
</g>
<defs>
<clipPath id="clip0_1199_143">
<rect width="24" height="24" fill="white"/>
</clipPath>
</defs>
</svg>
