<svg width="24" height="24" viewBox="0 0 24 24" fill="none" xmlns="http://www.w3.org/2000/svg">
<g clip-path="url(#clip0)">
<path d="M6.72266 5.477C6.81011 4.60052 7.11663 3.76013 7.61402 3.03317C8.11141 2.30621 8.78368 1.71606 9.56895 1.31703C10.3542 0.918006 11.2272 0.722929 12.1077 0.749759C12.9881 0.776589 13.8476 1.02446 14.6071 1.47057C15.3666 1.91667 16.0017 2.54666 16.4539 3.30256C16.9061 4.05845 17.1609 4.91595 17.1948 5.79613C17.2287 6.67631 17.0407 7.55088 16.648 8.33933C16.2553 9.12778 15.6706 9.80478 14.9477 10.308" stroke="#474445" stroke-width="1.5" stroke-linecap="round" stroke-linejoin="round"/>
<path d="M7.43945 3.35C8.25207 4.18893 9.22512 4.85586 10.3007 5.31111C11.3763 5.76636 12.5325 6.00064 13.7005 6C14.8791 6.00118 16.0456 5.76303 17.1295 5.3" stroke="#474445" stroke-width="1.5" stroke-linecap="round" stroke-linejoin="round"/>
<path d="M10.8232 9.75C10.5266 9.75 10.2366 9.83797 9.98989 10.0028C9.74321 10.1676 9.55096 10.4019 9.43742 10.676C9.32389 10.9501 9.29419 11.2517 9.35206 11.5426C9.40994 11.8336 9.5528 12.1009 9.76258 12.3107C9.97236 12.5204 10.2396 12.6633 10.5306 12.7212C10.8216 12.7791 11.1232 12.7494 11.3973 12.6358C11.6714 12.5223 11.9056 12.33 12.0704 12.0834C12.2353 11.8367 12.3232 11.5467 12.3232 11.25C12.3232 10.8522 12.1652 10.4706 11.8839 10.1893C11.6026 9.90804 11.2211 9.75 10.8232 9.75Z" stroke="#474445" stroke-width="1.5" stroke-linecap="round" stroke-linejoin="round"/>
<path d="M9.32324 11.25H7.82324C7.02759 11.25 6.26453 10.9339 5.70192 10.3713C5.13931 9.80871 4.82324 9.04565 4.82324 8.25V7.172" stroke="#474445" stroke-width="1.5" stroke-linecap="round" stroke-linejoin="round"/>
<path d="M21.7002 23.25C21.7002 21.4667 21.2106 19.7175 20.2849 18.1933C19.3591 16.669 18.0327 15.4282 16.4502 14.606" stroke="#474445" stroke-width="1.5" stroke-linecap="round" stroke-linejoin="round"/>
<path d="M7.4482 14.606C5.86606 15.4285 4.54004 16.6694 3.61465 18.1937C2.68926 19.7179 2.2 21.4669 2.2002 23.25" stroke="#474445" stroke-width="1.5" stroke-linecap="round" stroke-linejoin="round"/>
</g>
<defs>
<clipPath id="clip0">
<rect width="24" height="24" fill="white"/>
</clipPath>
</defs>
</svg>
