<svg width="24" height="24" viewBox="0 0 24 24" fill="none" xmlns="http://www.w3.org/2000/svg">
<path fill-rule="evenodd" clip-rule="evenodd" d="M14.2027 2.1885C14.3014 2.18089 14.4006 2.19289 14.4947 2.22381C14.5887 2.25473 14.6757 2.30396 14.7506 2.36866C14.8255 2.43336 14.8869 2.51224 14.9311 2.60077C14.9754 2.6893 15.0017 2.78571 15.0086 2.88446C15.0154 2.9832 15.0026 3.08233 14.971 3.17612C14.9393 3.26991 14.8894 3.3565 14.8241 3.4309C14.7589 3.50531 14.6795 3.56606 14.5906 3.60965L14.5906 3.60963L14.5855 3.61219L11.1855 5.31219L11.1855 5.31216L11.1796 5.31518C10.9758 5.41935 10.7985 5.56875 10.6613 5.75196C10.5241 5.93516 10.4306 6.14733 10.3879 6.37221C10.3453 6.5971 10.3547 6.82876 10.4153 7.04947C10.4758 7.26949 10.5856 7.47281 10.7364 7.64399L10.7379 7.64563L16.1125 13.7879C16.3852 14.0996 16.8591 14.1312 17.1708 13.8584C17.4825 13.5857 17.5141 13.1118 17.2413 12.8001L11.8643 6.65513L11.8643 6.65512L11.8619 6.6524L11.8617 6.652L11.8617 6.65155L11.8619 6.65113L11.8621 6.65092L15.254 4.95498C15.5195 4.82432 15.7566 4.64257 15.9517 4.42014C16.1475 4.19692 16.2973 3.93714 16.3922 3.65579C16.4872 3.37444 16.5255 3.07706 16.505 2.78082C16.4845 2.48458 16.4055 2.19533 16.2727 1.92975C16.1398 1.66417 15.9557 1.42751 15.731 1.23342C15.5063 1.03933 15.2453 0.891643 14.9632 0.79888C14.6811 0.706117 14.3835 0.67011 14.0874 0.692937C13.7923 0.715685 13.5047 0.796419 13.2409 0.930503L8.98051 3.06418L8.98027 3.0643L8.98006 3.06441C8.46761 3.32071 8.0207 3.69102 7.67365 4.14693C7.3265 4.60297 7.08849 5.13252 6.97793 5.69489C6.86736 6.25726 6.88717 6.8375 7.03583 7.39102C7.1845 7.94455 7.45806 8.45663 7.83551 8.88793L7.83589 8.88836L10.0654 11.432L6.98074 13.3644C6.62972 13.5843 6.52342 14.0472 6.74333 14.3982C6.96323 14.7492 7.42606 14.8555 7.77708 14.6356L11.6081 12.2356C11.7943 12.1189 11.92 11.9264 11.952 11.7089C11.9839 11.4915 11.9188 11.2709 11.7739 11.1057L8.9643 7.90009L8.96424 7.90002C8.7378 7.64125 8.57368 7.33403 8.48449 7.00194C8.3953 6.66983 8.38341 6.32169 8.44975 5.98426C8.51609 5.64684 8.65889 5.32911 8.86718 5.05549C9.07548 4.78186 9.34372 4.55962 9.6513 4.40584L9.65176 4.40561L13.9148 2.27061L13.9148 2.27063L13.9196 2.26815C14.0078 2.22318 14.104 2.19611 14.2027 2.1885ZM17.625 8.57001C17.625 7.53447 18.4645 6.69501 19.5 6.69501C20.5355 6.69501 21.375 7.53447 21.375 8.57001C21.375 9.60554 20.5355 10.445 19.5 10.445C18.4645 10.445 17.625 9.60554 17.625 8.57001ZM19.5 5.19501C17.636 5.19501 16.125 6.70605 16.125 8.57001C16.125 10.434 17.636 11.945 19.5 11.945C21.364 11.945 22.875 10.434 22.875 8.57001C22.875 6.70605 21.364 5.19501 19.5 5.19501ZM0 17C0 16.5858 0.335786 16.25 0.75 16.25C1.72935 16.25 2.45847 16.7369 2.99268 17.0937L3.04103 17.126C3.62772 17.5171 4.00922 17.75 4.5 17.75C4.99078 17.75 5.37228 17.5171 5.95897 17.126L6.00732 17.0937C6.54153 16.7369 7.27065 16.25 8.25 16.25C9.22935 16.25 9.95847 16.7369 10.4927 17.0937L10.541 17.126C11.1277 17.5171 11.5092 17.75 12 17.75C12.4908 17.75 12.8723 17.5171 13.459 17.126L13.5073 17.0937C14.0415 16.7369 14.7707 16.25 15.75 16.25C16.7293 16.25 17.4585 16.7369 17.9927 17.0937L18.041 17.126C18.6277 17.5171 19.0092 17.75 19.5 17.75C19.9908 17.75 20.3723 17.5171 20.959 17.126L21.0073 17.0937C21.5415 16.7369 22.2707 16.25 23.25 16.25C23.6642 16.25 24 16.5858 24 17C24 17.4142 23.6642 17.75 23.25 17.75C22.7592 17.75 22.3777 17.9829 21.791 18.374L21.7427 18.4063L21.7427 18.4063L21.7426 18.4063C21.2084 18.7631 20.4793 19.25 19.5 19.25C18.5207 19.25 17.7915 18.7631 17.2573 18.4063L17.209 18.374C16.6223 17.9829 16.2408 17.75 15.75 17.75C15.2592 17.75 14.8777 17.9829 14.291 18.374L14.2427 18.4063C13.7085 18.7631 12.9793 19.25 12 19.25C11.0207 19.25 10.2915 18.7631 9.75732 18.4063L9.70897 18.374C9.12228 17.9829 8.74078 17.75 8.25 17.75C7.75922 17.75 7.37772 17.9829 6.79103 18.374L6.74268 18.4063C6.20847 18.7631 5.47935 19.25 4.5 19.25C3.52065 19.25 2.79153 18.7631 2.25732 18.4063L2.20897 18.374C1.62228 17.9829 1.24078 17.75 0.75 17.75C0.335786 17.75 0 17.4142 0 17ZM0.75 20.25C0.335786 20.25 0 20.5858 0 21C0 21.4142 0.335786 21.75 0.75 21.75C1.24078 21.75 1.62228 21.9829 2.20897 22.374L2.25732 22.4063C2.79153 22.7631 3.52065 23.25 4.5 23.25C5.47935 23.25 6.20847 22.7631 6.74268 22.4063L6.79103 22.374C7.37772 21.9829 7.75922 21.75 8.25 21.75C8.74078 21.75 9.12228 21.9829 9.70897 22.374L9.75732 22.4063C10.2915 22.7631 11.0207 23.25 12 23.25C12.9793 23.25 13.7085 22.7631 14.2427 22.4063L14.291 22.374C14.8777 21.9829 15.2592 21.75 15.75 21.75C16.2408 21.75 16.6223 21.9829 17.209 22.374L17.2573 22.4063C17.7915 22.7631 18.5207 23.25 19.5 23.25C20.4793 23.25 21.2085 22.7631 21.7427 22.4063L21.7427 22.4063L21.791 22.374C22.3777 21.9829 22.7592 21.75 23.25 21.75C23.6642 21.75 24 21.4142 24 21C24 20.5858 23.6642 20.25 23.25 20.25C22.2707 20.25 21.5415 20.7369 21.0073 21.0937L20.959 21.126C20.3723 21.5171 19.9908 21.75 19.5 21.75C19.0092 21.75 18.6277 21.5171 18.041 21.126L17.9927 21.0937C17.4585 20.7369 16.7293 20.25 15.75 20.25C14.7707 20.25 14.0415 20.7369 13.5073 21.0937L13.459 21.126C12.8723 21.5171 12.4908 21.75 12 21.75C11.5092 21.75 11.1277 21.5171 10.541 21.126L10.4927 21.0937C9.95847 20.7369 9.22935 20.25 8.25 20.25C7.27065 20.25 6.54153 20.7369 6.00732 21.0937L5.95897 21.126C5.37228 21.5171 4.99078 21.75 4.5 21.75C4.00922 21.75 3.62772 21.5171 3.04103 21.126L2.99268 21.0937C2.45847 20.7369 1.72935 20.25 0.75 20.25Z" fill="#767676"/>
</svg>
