<svg width="24" height="24" viewBox="0 0 24 24" fill="none" xmlns="http://www.w3.org/2000/svg">
<path d="M1.13477 2.634V8.892C1.13494 9.68759 1.45112 10.4505 2.01377 11.013L13.6438 22.643C13.7397 22.7391 13.86 22.8073 13.9917 22.8403C14.1233 22.8734 14.2615 22.8701 14.3915 22.8308C14.5215 22.7915 14.6383 22.7176 14.7296 22.6171C14.8209 22.5166 14.8831 22.3931 14.9098 22.26L16.1348 16.134L22.2608 14.909C22.3939 14.8824 22.5173 14.8201 22.6178 14.7288C22.7184 14.6376 22.7922 14.5207 22.8315 14.3907C22.8709 14.2608 22.8742 14.1226 22.8411 13.9909C22.808 13.8592 22.7398 13.739 22.6438 13.643L11.0138 2.013C10.4513 1.45035 9.68835 1.13417 8.89276 1.134H2.63477C2.23694 1.134 1.85541 1.29204 1.57411 1.57334C1.2928 1.85465 1.13477 2.23618 1.13477 2.634V2.634Z" stroke="#474445" stroke-width="1.5" stroke-linecap="round" stroke-linejoin="round"/>
<path d="M6.38477 7.884C7.21319 7.884 7.88477 7.21243 7.88477 6.384C7.88477 5.55558 7.21319 4.884 6.38477 4.884C5.55634 4.884 4.88477 5.55558 4.88477 6.384C4.88477 7.21243 5.55634 7.884 6.38477 7.884Z" stroke="#474445" stroke-width="1.5" stroke-linecap="round" stroke-linejoin="round"/>
</svg>
