<svg width="24" height="24" viewBox="0 0 24 24" fill="none" xmlns="http://www.w3.org/2000/svg">
<path fill-rule="evenodd" clip-rule="evenodd" d="M1.04378 1.04301C1.46573 0.621056 2.03803 0.384003 2.63477 0.384003H8.89277C9.88721 0.384215 10.841 0.779413 11.5441 1.48267L23.1741 13.1127C23.3661 13.3046 23.5024 13.545 23.5685 13.8082C23.6346 14.0716 23.628 14.348 23.5494 14.6079C23.4708 14.8678 23.3231 15.1015 23.122 15.2841C22.921 15.4666 22.6741 15.5912 22.4079 15.6444L16.7722 16.7714L15.6452 22.4071C15.5919 22.6733 15.4674 22.9202 15.2848 23.1213C15.1023 23.3223 14.8686 23.47 14.6087 23.5486C14.3488 23.6273 14.0724 23.6339 13.809 23.5677C13.5457 23.5016 13.3053 23.3653 13.1134 23.1733L1.48352 11.5434C0.780256 10.8403 0.384978 9.88661 0.384766 8.89216V2.634C0.384766 2.03727 0.621819 1.46497 1.04378 1.04301ZM2.10444 2.10367C2.24509 1.96302 2.43585 1.884 2.63477 1.884H8.89277C9.4894 1.88417 10.0616 2.12138 10.4834 2.54333L22.1137 14.1736L15.9877 15.3986C15.6908 15.4579 15.4587 15.69 15.3993 15.9869L14.1741 22.1127L2.54402 10.4826C2.12207 10.0608 1.88494 9.48847 1.88477 8.89184V2.634C1.88477 2.43509 1.96378 2.24432 2.10444 2.10367ZM5.63477 6.384C5.63477 5.96979 5.97055 5.634 6.38477 5.634C6.79898 5.634 7.13477 5.96979 7.13477 6.384C7.13477 6.79822 6.79898 7.134 6.38477 7.134C5.97055 7.134 5.63477 6.79822 5.63477 6.384ZM6.38477 4.134C5.14212 4.134 4.13477 5.14136 4.13477 6.384C4.13477 7.62664 5.14212 8.634 6.38477 8.634C7.62741 8.634 8.63477 7.62664 8.63477 6.384C8.63477 5.14136 7.62741 4.134 6.38477 4.134Z" fill="#474445"/>
</svg>
