<svg width="24" height="24" viewBox="0 0 24 24" fill="none" xmlns="http://www.w3.org/2000/svg">
<g clip-path="url(#clip0_1312_564)">
<path d="M8.65521 5.77098C8.43252 5.70937 8.19861 5.70003 7.97172 5.7437C7.74483 5.78736 7.53109 5.88286 7.34718 6.02272C7.16327 6.16259 7.01416 6.34305 6.91148 6.55004C6.80879 6.75702 6.75531 6.98493 6.75521 7.21598V14.377C6.73831 16.1404 7.3847 17.8458 8.56621 19.155C10.1963 20.9376 12.2258 22.3085 14.4882 23.155C14.8217 23.2773 15.1877 23.2773 15.5212 23.155C17.7842 22.3091 19.8142 20.9382 21.4442 19.155C22.6257 17.8458 23.2721 16.1404 23.2552 14.377V7.21598C23.2553 6.98437 23.2018 6.75588 23.0988 6.54842C22.9959 6.34095 22.8462 6.16015 22.6617 6.02018C22.4772 5.88021 22.2628 5.78487 22.0352 5.74164C21.8077 5.6984 21.5732 5.70845 21.3502 5.77098C17.2014 6.95494 12.8041 6.95494 8.65521 5.77098V5.77098Z" stroke="#767676" stroke-width="1.5" stroke-linecap="round" stroke-linejoin="round"/>
<path d="M3.10532 14.753C2.91432 14.564 2.73232 14.376 2.56132 14.19C1.37981 12.8808 0.733423 11.1754 0.750323 9.41198V2.24999C0.749995 2.01782 0.803563 1.78874 0.906811 1.5808C1.01006 1.37285 1.16017 1.19171 1.34532 1.05163C1.53047 0.911557 1.74561 0.816372 1.9738 0.773573C2.20199 0.730773 2.437 0.741526 2.66032 0.804985C6.80747 1.989 11.2032 1.989 15.3503 0.804985C15.573 0.743371 15.8069 0.734033 16.0338 0.7777C16.2607 0.821368 16.4744 0.91686 16.6583 1.05673C16.8423 1.1966 16.9914 1.37706 17.0941 1.58404C17.1967 1.79102 17.2502 2.01893 17.2503 2.24999V4" stroke="#767676" stroke-width="1.5" stroke-linecap="round" stroke-linejoin="round"/>
<path d="M12.001 15.8048C12.0151 16.5806 12.3295 17.3216 12.8792 17.8713C13.4418 18.4339 14.2048 18.75 15.0005 18.75C15.7961 18.75 16.5592 18.4339 17.1218 17.8713C17.6715 17.3216 17.9858 16.5806 18 15.8048" stroke="#767676" stroke-width="1.5" stroke-linecap="round" stroke-linejoin="round"/>
<path d="M9.75 11.2265C9.75609 10.8372 9.91339 10.4651 10.1892 10.1893C10.4705 9.90804 10.852 9.75 11.2498 9.75C11.6476 9.75 12.0292 9.90804 12.3105 10.1893C12.5862 10.4651 12.7435 10.8372 12.7496 11.2265" stroke="#767676" stroke-width="1.5" stroke-linecap="round" stroke-linejoin="round"/>
<path d="M17.25 11.2125C17.2596 10.8282 17.4164 10.4618 17.6889 10.1893C17.9702 9.90804 18.3517 9.75 18.7495 9.75C19.1474 9.75 19.5289 9.90804 19.8102 10.1893C20.0826 10.4618 20.2395 10.8282 20.2491 11.2125" stroke="#767676" stroke-width="1.5" stroke-linecap="round" stroke-linejoin="round"/>
</g>
<defs>
<clipPath id="clip0_1312_564">
<rect width="24" height="24" fill="white"/>
</clipPath>
</defs>
</svg>
