<svg width="24" height="24" viewBox="0 0 24 24" fill="none" xmlns="http://www.w3.org/2000/svg">
<g clip-path="url(#clip0_1312:564)">
<path fill-rule="evenodd" clip-rule="evenodd" d="M1.83554 0.036427C2.17782 -0.027773 2.53033 -0.0116433 2.86532 0.0835459L2.86622 0.0838014C6.87879 1.2294 11.1319 1.2294 15.1444 0.0838019L15.1503 0.0821195L15.1503 0.0821437C15.4844 -0.0102779 15.8352 -0.0242845 16.1756 0.0412166C16.5159 0.106717 16.8365 0.249954 17.1124 0.459758C17.3882 0.669562 17.6119 0.940259 17.7659 1.25073C17.9199 1.5612 18.0002 1.90306 18.0003 2.24964V2.24999V4.03499C18.0003 4.4492 17.6645 4.78499 17.2503 4.78499C16.8361 4.78499 16.5003 4.4492 16.5003 4.03499V2.25033C16.5003 2.1348 16.4735 2.02085 16.4222 1.91736C16.3708 1.81386 16.2963 1.72363 16.2043 1.6537C16.1124 1.58376 16.0055 1.53602 15.8921 1.51418C15.7794 1.49251 15.6634 1.49695 15.5527 1.52716C11.2722 2.74856 6.73537 2.74828 2.45496 1.52632C2.34341 1.49468 2.22603 1.48934 2.11206 1.51072C1.99797 1.53212 1.8904 1.57971 1.79782 1.64975C1.70524 1.71979 1.63019 1.81036 1.57857 1.91433C1.52694 2.0183 1.50016 2.13284 1.50032 2.24892L1.50032 2.24999L1.50032 9.41198V9.41917H1.50029C1.4852 10.9934 2.0618 12.5158 3.11583 13.685C3.27721 13.8604 3.4501 14.039 3.63285 14.2199C3.92729 14.5112 3.92978 14.9861 3.63844 15.2805C3.34709 15.5749 2.87222 15.5774 2.57779 15.2861C2.37945 15.0898 2.18914 14.8933 2.0092 14.6976L2.00451 14.6925L2.00454 14.6925C0.697819 13.2445 -0.0174446 11.3587 0.000323236 9.40848V2.25049L1.83554 0.036427ZM21.1477 5.04884C21.4822 4.95503 21.8339 4.93997 22.1752 5.00482C22.5165 5.06967 22.8382 5.21268 23.115 5.42264C23.3918 5.63259 23.6162 5.9038 23.7706 6.21499C23.925 6.52608 24.0053 6.86869 24.0052 7.21598V7.21634V14.3735C24.023 16.3237 23.3077 18.2095 22.001 19.6575L21.9978 19.661C20.2877 21.5318 18.158 22.97 15.7838 23.8575L15.7795 23.8591C15.2792 24.0426 14.7302 24.0426 14.23 23.8591L14.2254 23.8574C11.8519 22.9694 9.72282 21.5313 8.01272 19.6611L8.00941 19.6575L8.00942 19.6575C6.7027 18.2095 5.98744 16.3237 6.00521 14.3735V7.21598V7.21564C6.00536 6.86906 6.08558 6.5272 6.23961 6.21672C6.39364 5.90625 6.61731 5.63556 6.89317 5.42575C7.16904 5.21595 7.48964 5.07271 7.82997 5.00721C8.17031 4.94171 8.52117 4.95572 8.85521 5.04814L8.65521 5.77097L8.86102 5.04977C12.8753 6.19534 17.1301 6.19534 21.1444 5.04977L21.1477 5.04884ZM8.45281 6.49316C8.34219 6.46295 8.2261 6.4585 8.11346 6.48018C8.00002 6.50201 7.89315 6.54976 7.80119 6.61969C7.70924 6.68963 7.63468 6.77986 7.58334 6.88335C7.53205 6.98674 7.50531 7.10057 7.50521 7.21598V7.21621V7.21632V14.377V14.3842H7.50517C7.49008 15.9587 8.06693 17.4814 9.12139 18.6507C10.6705 20.3443 12.5988 21.6468 14.7483 22.4515C14.914 22.5118 15.0956 22.5118 15.2612 22.4515C17.4112 21.6473 19.3399 20.3448 20.889 18.6508C21.9435 17.4815 22.5203 15.9587 22.5052 14.3842L22.5052 14.377H22.5052V7.21598V7.21563C22.5053 7.09982 22.4785 6.98557 22.427 6.88184C22.3755 6.77811 22.3007 6.68771 22.2085 6.61773C22.1162 6.54774 22.009 6.50007 21.8952 6.47845C21.782 6.45694 21.6654 6.46181 21.5544 6.49266C17.2726 7.71421 12.7346 7.71438 8.45281 6.49316ZM12.75 15.75C12.75 15.3358 12.4142 15 12 15C11.5858 15 11.25 15.3358 11.25 15.75C11.25 16.7446 11.6451 17.6984 12.3483 18.4017C13.0516 19.1049 14.0054 19.5 15 19.5C15.9946 19.5 16.9484 19.1049 17.6517 18.4017C18.3549 17.6984 18.75 16.7446 18.75 15.75C18.75 15.3358 18.4142 15 18 15C17.5858 15 17.25 15.3358 17.25 15.75C17.25 16.3467 17.0129 16.919 16.591 17.341C16.169 17.7629 15.5967 18 15 18C14.4033 18 13.831 17.7629 13.409 17.341C12.9871 16.919 12.75 16.3467 12.75 15.75ZM11.25 10.5C11.0511 10.5 10.8603 10.579 10.7197 10.7197C10.579 10.8603 10.5 11.0511 10.5 11.25C10.5 11.6642 10.1642 12 9.75 12C9.33579 12 9 11.6642 9 11.25C9 10.6533 9.23705 10.081 9.65901 9.65901C10.081 9.23705 10.6533 9 11.25 9C11.8467 9 12.419 9.23705 12.841 9.65901C13.2629 10.081 13.5 10.6533 13.5 11.25C13.5 11.6642 13.1642 12 12.75 12C12.3358 12 12 11.6642 12 11.25C12 11.0511 11.921 10.8603 11.7803 10.7197C11.6397 10.579 11.4489 10.5 11.25 10.5ZM18.2197 10.7197C18.3603 10.579 18.5511 10.5 18.75 10.5C18.9489 10.5 19.1397 10.579 19.2803 10.7197C19.421 10.8603 19.5 11.0511 19.5 11.25C19.5 11.6642 19.8358 12 20.25 12C20.6642 12 21 11.6642 21 11.25C21 10.6533 20.7629 10.081 20.341 9.65901C19.919 9.23705 19.3467 9 18.75 9C18.1533 9 17.581 9.23705 17.159 9.65901C16.7371 10.081 16.5 10.6533 16.5 11.25C16.5 11.6642 16.8358 12 17.25 12C17.6642 12 18 11.6642 18 11.25C18 11.0511 18.079 10.8603 18.2197 10.7197Z" fill="#767676"/>
</g>
<defs>
<clipPath id="clip0_1312:564">
<rect width="24" height="24" fill="white"/>
</clipPath>
</defs>
</svg>
