<svg width="24" height="24" viewBox="0 0 24 24" fill="none" xmlns="http://www.w3.org/2000/svg">
<g clip-path="url(#clip0)">
<path d="M8.65521 5.77098C8.43252 5.70937 8.19861 5.70003 7.97172 5.7437C7.74483 5.78736 7.53109 5.88286 7.34718 6.02272C7.16327 6.16259 7.01416 6.34305 6.91148 6.55004C6.80879 6.75702 6.75531 6.98493 6.75521 7.21598V14.377C6.73831 16.1404 7.3847 17.8458 8.56621 19.155C10.1963 20.9376 12.2258 22.3085 14.4882 23.155C14.8217 23.2773 15.1877 23.2773 15.5212 23.155C17.7842 22.3091 19.8142 20.9382 21.4442 19.155C22.6257 17.8458 23.2721 16.1404 23.2552 14.377V7.21598C23.2553 6.98437 23.2018 6.75588 23.0988 6.54842C22.9959 6.34095 22.8462 6.16015 22.6617 6.02018C22.4772 5.88021 22.2628 5.78487 22.0352 5.74164C21.8077 5.6984 21.5732 5.70845 21.3502 5.77098C17.2014 6.95494 12.8041 6.95494 8.65521 5.77098V5.77098Z" stroke="#474445" stroke-width="1.5" stroke-linecap="round" stroke-linejoin="round"/>
<path d="M17.2503 4.03499V2.24999C17.2502 2.01893 17.1967 1.79102 17.0941 1.58404C16.9914 1.37706 16.8423 1.1966 16.6583 1.05673C16.4744 0.91686 16.2607 0.821368 16.0338 0.7777C15.8069 0.734033 15.573 0.743371 15.3503 0.804985C11.2032 1.989 6.80747 1.989 2.66032 0.804985C2.437 0.741526 2.20199 0.730773 1.9738 0.773573C1.74561 0.816372 1.53047 0.911557 1.34532 1.05163C1.16017 1.19171 1.01006 1.37285 0.906811 1.5808C0.803563 1.78874 0.749995 2.01782 0.750323 2.24999V9.41198C0.733423 11.1754 1.37981 12.8808 2.56132 14.19C2.73232 14.376 2.91432 14.564 3.10532 14.753" stroke="#474445" stroke-width="1.5" stroke-linecap="round" stroke-linejoin="round"/>
<path d="M18 15.75C18 16.5456 17.6839 17.3087 17.1213 17.8713C16.5587 18.4339 15.7956 18.75 15 18.75C14.2044 18.75 13.4413 18.4339 12.8787 17.8713C12.3161 17.3087 12 16.5456 12 15.75" stroke="#474445" stroke-width="1.5" stroke-linecap="round" stroke-linejoin="round"/>
<path d="M9.75 11.25C9.75 10.8522 9.90804 10.4706 10.1893 10.1893C10.4706 9.90804 10.8522 9.75 11.25 9.75C11.6478 9.75 12.0294 9.90804 12.3107 10.1893C12.592 10.4706 12.75 10.8522 12.75 11.25" stroke="#474445" stroke-width="1.5" stroke-linecap="round" stroke-linejoin="round"/>
<path d="M17.25 11.25C17.25 10.8522 17.408 10.4706 17.6893 10.1893C17.9706 9.90804 18.3522 9.75 18.75 9.75C19.1478 9.75 19.5294 9.90804 19.8107 10.1893C20.092 10.4706 20.25 10.8522 20.25 11.25" stroke="#474445" stroke-width="1.5" stroke-linecap="round" stroke-linejoin="round"/>
</g>
<defs>
<clipPath id="clip0">
<rect width="24" height="24" fill="white"/>
</clipPath>
</defs>
</svg>
