<svg width="25" height="25" viewBox="0 0 25 25" fill="none" xmlns="http://www.w3.org/2000/svg">
<path d="M9.01364 6.0122C8.78173 5.94803 8.53813 5.93831 8.30185 5.98378C8.06556 6.02926 7.84297 6.1287 7.65145 6.27436C7.45992 6.42002 7.30463 6.60796 7.1977 6.82352C7.09076 7.03907 7.03507 7.27641 7.03496 7.51704V14.9746C7.01736 16.811 7.69051 18.5871 8.92095 19.9505C10.6186 21.8069 12.7321 23.2345 15.0882 24.1161C15.4355 24.2435 15.8167 24.2435 16.164 24.1161C18.5207 23.2352 20.6347 21.8075 22.3323 19.9505C23.5627 18.5871 24.2359 16.811 24.2183 14.9746V7.51704C24.2184 7.27584 24.1626 7.03788 24.0554 6.82183C23.9482 6.60577 23.7924 6.41749 23.6002 6.27172C23.408 6.12595 23.1847 6.02666 22.9477 5.98164C22.7108 5.93661 22.4666 5.94707 22.2344 6.0122C17.9137 7.24519 13.3343 7.24519 9.01364 6.0122V6.0122Z" stroke="#71717A" stroke-width="1.5" stroke-linecap="round" stroke-linejoin="round"/>
<path d="M3.23392 15.3662C3.03501 15.1693 2.84548 14.9736 2.66739 14.7799C1.43695 13.4164 0.763796 11.6404 0.781396 9.80398V2.34539C0.781054 2.1036 0.836841 1.86504 0.944365 1.64848C1.05189 1.43193 1.20821 1.24328 1.40103 1.09741C1.59385 0.951531 1.8179 0.852405 2.05554 0.807833C2.29318 0.76326 2.53792 0.774459 2.77049 0.840546C7.08938 2.0736 11.6671 2.0736 15.986 0.840546C16.2179 0.77638 16.4615 0.766656 16.6978 0.812132C16.9341 0.857607 17.1567 0.957054 17.3482 1.10271C17.5397 1.24837 17.695 1.43631 17.802 1.65187C17.9089 1.86742 17.9646 2.10476 17.9647 2.34539V4.16787" stroke="#71717A" stroke-width="1.5" stroke-linecap="round" stroke-linejoin="round"/>
<path d="M12.498 16.4615C12.5127 17.2695 12.8401 18.0412 13.4125 18.6136C13.9984 19.1996 14.7931 19.5287 15.6217 19.5287C16.4503 19.5287 17.2449 19.1996 17.8309 18.6136C18.4033 18.0412 18.7307 17.2695 18.7454 16.4615" stroke="#71717A" stroke-width="1.5" stroke-linecap="round" stroke-linejoin="round"/>
<path d="M10.1538 11.6936C10.1601 11.2882 10.3239 10.9007 10.6111 10.6135C10.9041 10.3206 11.3014 10.156 11.7157 10.156C12.13 10.156 12.5273 10.3206 12.8203 10.6135C13.1075 10.9007 13.2713 11.2882 13.2776 11.6936" stroke="#71717A" stroke-width="1.5" stroke-linecap="round" stroke-linejoin="round"/>
<path d="M17.9644 11.679C17.9744 11.2789 18.1377 10.8973 18.4214 10.6135C18.7144 10.3206 19.1117 10.156 19.526 10.156C19.9403 10.156 20.3376 10.3206 20.6306 10.6135C20.9143 10.8973 21.0776 11.2789 21.0876 11.679" stroke="#71717A" stroke-width="1.5" stroke-linecap="round" stroke-linejoin="round"/>
</svg>
