<svg width="24" height="24" viewBox="0 0 24 24" fill="none" xmlns="http://www.w3.org/2000/svg">
<path d="M22.0366 6.30713C22.2504 6.66192 22.1361 7.12283 21.7813 7.33661C21.4265 7.55038 20.9656 7.43607 20.7519 7.08129L22.0366 6.30713ZM21.4121 15.8197C21.57 15.4367 22.0084 15.2543 22.3914 15.4122C22.7743 15.5701 22.9567 16.0086 22.7988 16.3915L21.4121 15.8197ZM12.3942 2.35559C7.00947 2.35559 2.64424 6.72082 2.64424 12.1056L1.14424 12.1056C1.14424 5.89239 6.18104 0.855592 12.3942 0.855592L12.3942 2.35559ZM2.64424 12.1056C2.64424 17.4904 7.00947 21.8556 12.3942 21.8556L12.3942 23.3556C6.18104 23.3556 1.14424 18.3188 1.14424 12.1056L2.64424 12.1056ZM20.7519 7.08129C19.0446 4.24789 15.94 2.35559 12.3942 2.35559L12.3942 0.855592C16.4874 0.855591 20.0692 3.04204 22.0366 6.30713L20.7519 7.08129ZM12.3942 21.8556C16.4627 21.8556 19.9508 19.3635 21.4121 15.8197L22.7988 16.3915C21.114 20.4774 17.0911 23.3556 12.3942 23.3556L12.3942 21.8556Z" fill="#71717A"/>
<path d="M21.8947 4.10559L21.8947 7.10559L18.9961 6.62248" stroke="#71717A" stroke-width="1.5" stroke-linecap="round" stroke-linejoin="round"/>
<path d="M16 9.5V17H9V14.2346V9.5" stroke="#71717A" stroke-width="1.5" stroke-linecap="round" stroke-linejoin="round"/>
<path d="M7 10.5L12.5 7.5L18 10.5" stroke="#71717A" stroke-width="1.5" stroke-linecap="round" stroke-linejoin="round"/>
</svg>
