<svg width="24" height="25" viewBox="0 0 24 25" fill="none" xmlns="http://www.w3.org/2000/svg">
<path d="M3.93429 23.1325C3.46042 22.2348 0.767401 16.9197 0.750073 12.0406C0.739332 9.05689 1.91429 6.19114 4.01648 4.07376C6.11867 1.95638 8.97589 0.760814 11.9596 0.750073C14.9433 0.739332 17.809 1.91429 19.9264 4.01648C22.0438 6.11867 23.2393 8.97589 23.2501 11.9596C23.2678 16.9549 20.4832 22.4318 20.1159 23.1325" stroke="#71717A" stroke-width="1.5" stroke-linecap="round" stroke-linejoin="round"/>
<path d="M6.08592 14.3084L4.47358 14.9888C3.96474 15.2035 3.7263 15.79 3.94102 16.2989L6.37083 22.0572C6.58554 22.566 7.1721 22.8045 7.68093 22.5898L9.29327 21.9094C9.80211 21.6947 10.0405 21.1082 9.82584 20.5993L7.39602 14.841C7.18131 14.3321 6.59476 14.0937 6.08592 14.3084Z" stroke="#71717A" stroke-width="1.5" stroke-linecap="round" stroke-linejoin="round"/>
<path d="M14.7066 21.9109L16.3189 22.5913C16.8277 22.806 17.4143 22.5675 17.629 22.0587L20.0588 16.3004C20.2735 15.7915 20.0351 15.205 19.5263 14.9903L17.9139 14.3099C17.4051 14.0952 16.8185 14.3336 16.6038 14.8425L14.174 20.6008C13.9593 21.1097 14.1977 21.6962 14.7066 21.9109Z" stroke="#71717A" stroke-width="1.5" stroke-linecap="round" stroke-linejoin="round"/>
</svg>
