<svg width="24" height="24" viewBox="0 0 24 24" fill="none" xmlns="http://www.w3.org/2000/svg">
<path d="M12 1V23" stroke="#71717A" stroke-width="1.5" stroke-linecap="round" stroke-linejoin="round"/>
<path d="M6 23H18" stroke="#71717A" stroke-width="1.5" stroke-linecap="round" stroke-linejoin="round"/>
<path d="M5.01577 13.977L1.02577 9.98702C0.918982 9.8805 0.839639 9.74965 0.794557 9.60571C0.749475 9.46178 0.74 9.30905 0.766948 9.16064C0.793895 9.01224 0.856458 8.87259 0.949265 8.75369C1.04207 8.63479 1.16235 8.54019 1.29977 8.47802L4.97677 6.83702C5.14892 6.76032 5.34026 6.73762 5.52558 6.77189C5.71089 6.80617 5.88145 6.89582 6.01477 7.02902L7.91477 8.92902C8.04576 9.05987 8.13475 9.22682 8.17037 9.40851C8.206 9.5902 8.18664 9.77838 8.11477 9.94902L6.53177 13.681C6.47241 13.8216 6.37942 13.9454 6.26098 14.0415C6.14254 14.1377 6.00229 14.2033 5.85255 14.2325C5.70282 14.2617 5.54819 14.2537 5.40228 14.2092C5.25637 14.1646 5.12364 14.0849 5.01577 13.977V13.977Z" stroke="#71717A" stroke-width="1.5" stroke-linecap="round" stroke-linejoin="round"/>
<path d="M22.7242 7.179L18.7792 11.124C18.6727 11.2307 18.5417 11.3097 18.3976 11.354C18.2535 11.3983 18.1008 11.4066 17.9527 11.3782C17.8047 11.3497 17.6659 11.2854 17.5485 11.1909C17.431 11.0964 17.3386 10.9745 17.2792 10.836L15.7262 7.219C15.6537 7.04914 15.634 6.86139 15.6697 6.68019C15.7053 6.49898 15.7947 6.33271 15.9262 6.203L17.8082 4.321C17.9383 4.18981 18.1047 4.10062 18.286 4.06497C18.4673 4.02932 18.6551 4.04884 18.8252 4.121L22.4362 5.68C22.5745 5.73945 22.6962 5.83189 22.7906 5.94923C22.885 6.06658 22.9492 6.20525 22.9776 6.35314C23.006 6.50103 22.9978 6.65362 22.9536 6.79759C22.9094 6.94155 22.8307 7.07251 22.7242 7.179V7.179Z" stroke="#71717A" stroke-width="1.5" stroke-linecap="round" stroke-linejoin="round"/>
<path d="M11 3H14.129C14.5265 3.00008 14.9078 3.15798 15.189 3.439L16.8131 5.21295" stroke="#71717A" stroke-width="1.5" stroke-linecap="round" stroke-linejoin="round"/>
<path d="M12.9999 6H9.6239C9.22635 6.00008 8.8451 6.15798 8.5639 6.439L7.01904 7.99571" stroke="#71717A" stroke-width="1.5" stroke-linecap="round" stroke-linejoin="round"/>
</svg>
