<svg width="24" height="24" viewBox="0 0 24 24" fill="none" xmlns="http://www.w3.org/2000/svg">
<path d="M19 20L22 23" stroke="#71717A" stroke-width="1.5" stroke-linecap="round" stroke-linejoin="round"/>
<path d="M15 16L17.651 22.895L19 20L21.894 18.652L15 16Z" stroke="#71717A" stroke-width="1.5" stroke-linecap="round" stroke-linejoin="round"/>
<path d="M12.2187 19H7.625V13.4444H5L6.01587 9.94669C6.08621 9.67419 6.24385 9.43324 6.46391 9.26183C6.68397 9.09042 6.95395 8.99831 7.23125 9.00002H10.0076C10.0076 9.50688 10.2058 9.99298 10.5586 10.3514C10.9114 10.7098 11.3899 10.9111 11.8889 10.9111C12.3878 10.9111 12.8663 10.7098 13.2191 10.3514C13.5719 9.99298 13.7701 9.50688 13.7701 9.00002H16.55C16.8273 8.99831 17.0973 9.09042 17.3173 9.26183C17.5374 9.43324 17.695 9.67419 17.7654 9.94669L19 13.4444H16.4102" stroke="#71717A" stroke-width="1.5" stroke-linecap="round" stroke-linejoin="round"/>
<path d="M14 22H3.42845C3.24032 21.9995 3.05413 21.962 2.88051 21.8896C2.70689 21.8171 2.54925 21.7111 2.4166 21.5778C2.28394 21.4444 2.17887 21.2861 2.10739 21.1121C2.03591 20.9381 1.99942 20.7517 2.00001 20.5636V3.43556C1.99954 3.2475 2.03612 3.0612 2.10765 2.88728C2.17918 2.71336 2.28427 2.55524 2.41691 2.42194C2.54956 2.28863 2.70716 2.18276 2.88072 2.11036C3.05428 2.03797 3.2404 2.00047 3.42845 2H20.5716C20.7596 2.00047 20.9457 2.03797 21.1193 2.11036C21.2928 2.18276 21.4504 2.28863 21.5831 2.42194C21.7157 2.55524 21.8208 2.71336 21.8924 2.88728C21.9639 3.0612 22.0005 3.2475 22 3.43556V14.5" stroke="#71717A" stroke-width="1.5" stroke-linecap="round" stroke-linejoin="round"/>
<path d="M2 5H22" stroke="#71717A" stroke-width="1.5" stroke-linecap="round" stroke-linejoin="round"/>
</svg>
