<svg width="24" height="24" viewBox="0 0 24 24" fill="none" xmlns="http://www.w3.org/2000/svg">
<g clip-path="url(#clip0)">
<path d="M20.0761 23.193C20.0761 23.193 23.2691 17.293 23.2501 11.945C23.2393 8.9613 22.0438 6.10409 19.9264 4.0019C17.809 1.89971 14.9433 0.724744 11.9596 0.735486C8.97589 0.746227 6.11867 1.94179 4.01648 4.05917C1.91429 6.17655 0.739332 9.0423 0.750073 12.026C0.769073 17.376 4.00507 23.25 4.00507 23.25" stroke="#474445" stroke-width="1.5" stroke-linecap="round" stroke-linejoin="round"/>
<path d="M6.08592 14.2938L4.47358 14.9742C3.96474 15.1889 3.7263 15.7754 3.94102 16.2843L6.37083 22.0426C6.58554 22.5515 7.1721 22.7899 7.68093 22.5752L9.29327 21.8948C9.80211 21.6801 10.0405 21.0936 9.82584 20.5847L7.39602 14.8264C7.18131 14.3176 6.59476 14.0791 6.08592 14.2938Z" stroke="#474445" stroke-width="1.5" stroke-linecap="round" stroke-linejoin="round"/>
<path d="M14.7066 21.8963L16.3189 22.5767C16.8277 22.7914 17.4143 22.553 17.629 22.0441L20.0588 16.2858C20.2735 15.7769 20.0351 15.1904 19.5263 14.9757L17.9139 14.2953C17.4051 14.0806 16.8185 14.3191 16.6038 14.8279L14.174 20.5862C13.9593 21.0951 14.1977 21.6816 14.7066 21.8963Z" stroke="#474445" stroke-width="1.5" stroke-linecap="round" stroke-linejoin="round"/>
</g>
<defs>
<clipPath id="clip0">
<rect width="24" height="24" fill="white"/>
</clipPath>
</defs>
</svg>
