<svg width="24" height="24" viewBox="0 0 24 24" fill="none" xmlns="http://www.w3.org/2000/svg">
<path d="M19 20L17.651 22.895L15 16L21.894 18.652L19 20ZM19 20L22 23" stroke="#767676" stroke-width="1.5" stroke-linecap="round" stroke-linejoin="round"/>
<path d="M16.375 13.4444H19L17.7654 9.94669C17.695 9.67419 17.5374 9.43324 17.3173 9.26183C17.0973 9.09042 16.8273 8.99831 16.55 9.00002H13.7701C13.7701 9.50688 13.5719 9.99298 13.2191 10.3514C12.8663 10.7098 12.3878 10.9111 11.8889 10.9111C11.3899 10.9111 10.9114 10.7098 10.5586 10.3514C10.2058 9.99298 10.0076 9.50688 10.0076 9.00002H7.23125C6.95395 8.99831 6.68397 9.09042 6.46391 9.26183C6.24385 9.43324 6.08621 9.67419 6.01587 9.94669L5 13.4444H7.625V19H12.2187" stroke="#767676" stroke-width="1.5" stroke-linecap="round" stroke-linejoin="round"/>
<path d="M22 14.6667V3.43556C22.0005 3.2475 21.9639 3.0612 21.8924 2.88728C21.8208 2.71336 21.7157 2.55524 21.5831 2.42194C21.4504 2.28863 21.2928 2.18276 21.1193 2.11036C20.9457 2.03797 20.7596 2.00047 20.5716 2H3.42845C3.2404 2.00047 3.05428 2.03797 2.88072 2.11036C2.70716 2.18276 2.54956 2.28863 2.41691 2.42194C2.28427 2.55524 2.17918 2.71336 2.10765 2.88728C2.03612 3.0612 1.99954 3.2475 2.00001 3.43556V20.5636C1.99942 20.7517 2.03591 20.9381 2.10739 21.1121C2.17887 21.2861 2.28394 21.4444 2.4166 21.5778C2.54925 21.7111 2.70689 21.8171 2.88051 21.8896C3.05413 21.962 3.24032 21.9995 3.42845 22H14" stroke="#767676" stroke-width="1.5" stroke-linecap="round" stroke-linejoin="round"/>
<path d="M2 5H22" stroke="#767676" stroke-width="1.5" stroke-linecap="round" stroke-linejoin="round"/>
</svg>
