<svg width="24" height="24" viewBox="0 0 24 24" fill="none" xmlns="http://www.w3.org/2000/svg">
<path d="M20 8V2.5C20 2.10218 19.846 1.72064 19.5719 1.43934C19.2978 1.15804 18.9261 1 18.5385 1H2.46154C2.07391 1 1.70217 1.15804 1.42807 1.43934C1.15398 1.72064 1 2.10218 1 2.5V14.5C1 14.8978 1.15398 15.2794 1.42807 15.5607C1.70217 15.842 2.07391 16 2.46154 16H7.96094" stroke="#71717A" stroke-width="1.5" stroke-linecap="round" stroke-linejoin="round"/>
<path d="M1 5H20" stroke="#71717A" stroke-width="1.5" stroke-linecap="round" stroke-linejoin="round"/>
<path d="M4 9H9" stroke="#71717A" stroke-width="1.5" stroke-linecap="round" stroke-linejoin="round"/>
<path d="M4 12H7" stroke="#71717A" stroke-width="1.5" stroke-linecap="round" stroke-linejoin="round"/>
<path d="M19.5 15L17 18.5L15.5 17" stroke="#71717A" stroke-width="1.5" stroke-linecap="round" stroke-linejoin="round"/>
<path d="M23 16.5V12C23 11.4477 22.5523 11 22 11H17H12C11.4477 11 11 11.4477 11 12V16.5C11 18.9222 12.4564 21.1068 14.6923 22.0385L16.6154 22.8397C16.8615 22.9423 17.1385 22.9423 17.3846 22.8397L19.3077 22.0385C21.5436 21.1068 23 18.9222 23 16.5Z" stroke="#71717A" stroke-width="1.5" stroke-linejoin="round"/>
</svg>
