<svg width="24" height="24" viewBox="0 0 24 24" fill="none" xmlns="http://www.w3.org/2000/svg">
<path d="M18 21C16.8954 21 16 20.1046 16 19C16 17.8954 16.8954 17 18 17C19.1046 17 20 17.8954 20 19C20 20.1046 19.1046 21 18 21Z" stroke="#71717A" stroke-width="1.5" stroke-linecap="round" stroke-linejoin="round"/>
<path d="M7 21C5.89543 21 5 20.1046 5 19C5 17.8954 5.89543 17 7 17C8.10457 17 9 17.8954 9 19C9 20.1046 8.10457 21 7 21Z" stroke="#71717A" stroke-width="1.5" stroke-linecap="round" stroke-linejoin="round"/>
<path d="M16 18H9" stroke="#71717A" stroke-width="1.5" stroke-linecap="round" stroke-linejoin="round"/>
<path d="M15.75 18C15.75 18.4142 15.4142 18.75 15 18.75C14.5858 18.75 14.25 18.4142 14.25 18H15.75ZM2.75 5C2.75 5.41421 2.41421 5.75 2 5.75C1.58579 5.75 1.25 5.41421 1.25 5H2.75ZM14.25 18V7H15.75V18H14.25ZM11 3.75H3V2.25H11V3.75ZM2.75 4V5H1.25V4H2.75ZM3 3.75C2.86193 3.75 2.75 3.86193 2.75 4H1.25C1.25 3.0335 2.0335 2.25 3 2.25V3.75ZM14.25 7C14.25 5.20507 12.7949 3.75 11 3.75V2.25C13.6234 2.25 15.75 4.37665 15.75 7H14.25Z" fill="#71717A"/>
<path d="M9 8.25C9.41421 8.25 9.75 8.58579 9.75 9C9.75 9.41421 9.41421 9.75 9 9.75V8.25ZM1 9.75C0.585787 9.75 0.25 9.41421 0.25 9C0.25 8.58579 0.585787 8.25 1 8.25V9.75ZM9 9.75H1V8.25H9V9.75Z" fill="#71717A"/>
<path d="M9 11.25C9.41421 11.25 9.75 11.5858 9.75 12C9.75 12.4142 9.41421 12.75 9 12.75V11.25ZM4 12.75C3.58579 12.75 3.25 12.4142 3.25 12C3.25 11.5858 3.58579 11.25 4 11.25V12.75ZM9 12.75H4V11.25H9V12.75Z" fill="#71717A"/>
<path d="M20 11.25C20.4142 11.25 20.75 11.5858 20.75 12C20.75 12.4142 20.4142 12.75 20 12.75V11.25ZM15 12.75C14.5858 12.75 14.25 12.4142 14.25 12C14.25 11.5858 14.5858 11.25 15 11.25V12.75ZM20 12.75H15V11.25H20V12.75Z" fill="#71717A"/>
<path d="M2 16V17C2 17.5523 2.44772 18 3 18H5" stroke="#71717A" stroke-width="1.5" stroke-linecap="round"/>
<path d="M15 8L17.7112 8C18.0084 7.99991 18.2997 8.08603 18.5526 8.24873C18.8054 8.41142 19.0097 8.64425 19.1427 8.92111L20 12L21.9743 12.6581C22.5869 12.8623 23 13.4355 23 14.0811V16.5C23 17.3284 22.3284 18 21.5 18H20" stroke="#71717A" stroke-width="1.5" stroke-linecap="round" stroke-linejoin="round"/>
</svg>
