<svg width="24" height="24" viewBox="0 0 24 24" fill="none" xmlns="http://www.w3.org/2000/svg">
<path d="M19.25 23C18.1454 23 17.25 22.1046 17.25 21C17.25 19.8954 18.1454 19 19.25 19C20.3546 19 21.25 19.8954 21.25 21C21.25 22.1046 20.3546 23 19.25 23Z" stroke="#474445" stroke-width="1.5" stroke-linecap="round" stroke-linejoin="round"/>
<path d="M9.25 23C8.14543 23 7.25 22.1046 7.25 21C7.25 19.8954 8.14543 19 9.25 19C10.3546 19 11.25 19.8954 11.25 21C11.25 22.1046 10.3546 23 9.25 23Z" stroke="#474445" stroke-width="1.5" stroke-linecap="round" stroke-linejoin="round"/>
<path d="M23 7L21.2 14.887C21.1147 15.2064 20.9263 15.4886 20.6641 15.6899C20.4019 15.8912 20.0806 16.0002 19.75 16H8.932C8.60093 16.0008 8.27889 15.8921 8.01607 15.6908C7.75325 15.4895 7.56441 15.2069 7.479 14.887L4.212 2.82601C4.08437 2.34695 3.80202 1.92349 3.40886 1.62148C3.0157 1.31947 2.53377 1.15583 2.038 1.15601H1" stroke="#474445" stroke-width="1.5" stroke-linecap="round" stroke-linejoin="round"/>
<path d="M23 7H5.75" stroke="#474445" stroke-width="1.5" stroke-linecap="round" stroke-linejoin="round"/>
</svg>
