<svg width="24" height="24" viewBox="0 0 24 24" fill="none" xmlns="http://www.w3.org/2000/svg">
<path d="M10 16.6875L2.67563 16.0048C2.40086 15.9831 2.12525 16.0348 1.8771 16.1548C1.62894 16.2748 1.41719 16.4586 1.26357 16.6875C1.10995 16.9163 1.02001 17.1819 1.00297 17.457C0.985934 17.7321 1.04242 18.0068 1.16663 18.2528C1.34159 18.6039 1.64322 18.8755 2.01063 19.0128L12.4446 22.9258C13.0874 23.1666 13.7934 23.1797 14.4446 22.9629L22.4376 20.2989" stroke="#767676" stroke-width="1.5" stroke-linecap="round" stroke-linejoin="round"/>
<path d="M17.1228 17.4012H11.3338C11.0539 17.4014 10.781 17.3134 10.5539 17.1497C10.3268 16.986 10.1571 16.7549 10.0688 16.4892V16.4892C10.0113 16.3172 9.98946 16.1352 10.0047 15.9544C10.02 15.7736 10.072 15.5978 10.1575 15.4378C10.2431 15.2778 10.3604 15.1369 10.5024 15.0239C10.6443 14.9108 10.8078 14.8279 10.9828 14.7802L16.9208 13.1602C17.5474 12.9884 18.2038 12.9543 18.8448 13.0602L22.3728 13.6482" stroke="#767676" stroke-width="1.5" stroke-linecap="round" stroke-linejoin="round"/>
<path d="M3 13V2.48351C3.01106 2.07974 3.18875 1.69672 3.49401 1.41863C3.79926 1.14054 4.20711 0.99014 4.62788 1.0005H18.3732C18.7937 0.990407 19.2013 1.14092 19.5064 1.41898C19.8114 1.69705 19.9889 2.07992 20 2.48351V10.034" stroke="#767676" stroke-width="1.5" stroke-linecap="round" stroke-linejoin="round"/>
<path d="M9.22021 1V6.091H13.7202V1" stroke="#767676" stroke-width="1.5" stroke-linecap="round" stroke-linejoin="round"/>
</svg>
