<svg width="24" height="24" viewBox="0 0 24 24" fill="none" xmlns="http://www.w3.org/2000/svg">
<path d="M13 23V10C13 8.89543 12.1046 8 11 8H2V3C2 1.89543 2.89543 1 4 1H21.5C21.8978 1 22.2794 1.15452 22.5607 1.42958C22.842 1.70463 23 2.07768 23 2.46667V21.5333C23 21.9223 22.842 22.2954 22.5607 22.5704C22.2794 22.8455 21.8978 23 21.5 23H13Z" stroke="#71717A" stroke-width="1.5" stroke-linecap="round" stroke-linejoin="round"/>
<path d="M7 8V19.5" stroke="#71717A" stroke-width="1.5" stroke-linecap="round" stroke-linejoin="round"/>
<path d="M8.191 11H5.809C4.80992 11 4 11.8099 4 12.809V16.691C4 17.6901 4.80992 18.5 5.809 18.5H8.191C9.19008 18.5 10 17.6901 10 16.691V12.809C10 11.8099 9.19008 11 8.191 11Z" stroke="#71717A" stroke-width="1.5" stroke-linecap="round" stroke-linejoin="round"/>
<path d="M1 23H13" stroke="#71717A" stroke-width="1.5" stroke-linecap="round" stroke-linejoin="round"/>
<path d="M18 19C19.1046 19 20 18.1046 20 17C20 15.8954 19.1046 15 18 15C16.8954 15 16 15.8954 16 17C16 18.1046 16.8954 19 18 19Z" stroke="#71717A" stroke-width="1.5" stroke-linecap="round" stroke-linejoin="round"/>
<path d="M5 4V5" stroke="#71717A" stroke-width="1.5" stroke-linecap="round" stroke-linejoin="round"/>
<path d="M17 4V5" stroke="#71717A" stroke-width="1.5" stroke-linecap="round" stroke-linejoin="round"/>
<path d="M14 4V5" stroke="#71717A" stroke-width="1.5" stroke-linecap="round" stroke-linejoin="round"/>
<path d="M20 4V5" stroke="#71717A" stroke-width="1.5" stroke-linecap="round" stroke-linejoin="round"/>
</svg>
