<svg width="24" height="24" viewBox="0 0 24 24" fill="none" xmlns="http://www.w3.org/2000/svg">
<path d="M1 7L5.93967 2.23031C6.01323 2.1573 6.10059 2.09938 6.19673 2.05986C6.29287 2.02034 6.39593 2 6.5 2C6.60407 2 6.70713 2.02034 6.80327 2.05986C6.89941 2.09938 6.98677 2.1573 7.06033 2.23031L12 7" stroke="#71717A" stroke-width="1.5" stroke-linecap="round" stroke-linejoin="round"/>
<path d="M12 9L16.9397 4.23031C17.0132 4.1573 17.1006 4.09938 17.1967 4.05986C17.2929 4.02034 17.3959 4 17.5 4C17.6041 4 17.7071 4.02034 17.8033 4.05986C17.8994 4.09938 17.9868 4.1573 18.0603 4.23031L23 9" stroke="#71717A" stroke-width="1.5" stroke-linecap="round" stroke-linejoin="round"/>
<path d="M1 7V23H12V7" stroke="#71717A" stroke-width="1.5" stroke-linecap="round" stroke-linejoin="round"/>
<path d="M12 23H23V9" stroke="#71717A" stroke-width="1.5" stroke-linecap="round" stroke-linejoin="round"/>
<path d="M4.25 23C4.25 23.4142 4.58579 23.75 5 23.75C5.41421 23.75 5.75 23.4142 5.75 23H4.25ZM7.25 23C7.25 23.4142 7.58579 23.75 8 23.75C8.41421 23.75 8.75 23.4142 8.75 23H7.25ZM5.5 19.75H7.5V18.25H5.5V19.75ZM4.25 19.5V23H5.75V19.5H4.25ZM8.75 23V19.5H7.25V23H8.75ZM7.5 19.75C7.36193 19.75 7.25 19.6381 7.25 19.5H8.75C8.75 18.8096 8.19036 18.25 7.5 18.25V19.75ZM5.5 18.25C4.80964 18.25 4.25 18.8096 4.25 19.5H5.75C5.75 19.6381 5.63807 19.75 5.5 19.75V18.25Z" fill="#71717A"/>
<path d="M15.25 23C15.25 23.4142 15.5858 23.75 16 23.75C16.4142 23.75 16.75 23.4142 16.75 23H15.25ZM18.25 23C18.25 23.4142 18.5858 23.75 19 23.75C19.4142 23.75 19.75 23.4142 19.75 23H18.25ZM16.5 19.75H18.5V18.25H16.5V19.75ZM15.25 19.5V23H16.75V19.5H15.25ZM19.75 23V19.5H18.25V23H19.75ZM18.5 19.75C18.3619 19.75 18.25 19.6381 18.25 19.5H19.75C19.75 18.8096 19.1904 18.25 18.5 18.25V19.75ZM16.5 18.25C15.8096 18.25 15.25 18.8096 15.25 19.5H16.75C16.75 19.6381 16.6381 19.75 16.5 19.75V18.25Z" fill="#71717A"/>
<path d="M15.5 11.25C15.0858 11.25 14.75 11.5858 14.75 12C14.75 12.4142 15.0858 12.75 15.5 12.75V11.25ZM19.5 12.75C19.9142 12.75 20.25 12.4142 20.25 12C20.25 11.5858 19.9142 11.25 19.5 11.25V12.75ZM15.5 12.75H19.5V11.25H15.5V12.75Z" fill="#71717A"/>
<path d="M4.5 9.25C4.08579 9.25 3.75 9.58579 3.75 10C3.75 10.4142 4.08579 10.75 4.5 10.75V9.25ZM8.5 10.75C8.91421 10.75 9.25 10.4142 9.25 10C9.25 9.58579 8.91421 9.25 8.5 9.25V10.75ZM4.5 10.75H8.5V9.25H4.5V10.75Z" fill="#71717A"/>
<path d="M16.5 8.25C16.0858 8.25 15.75 8.58579 15.75 9C15.75 9.41421 16.0858 9.75 16.5 9.75V8.25ZM18.5 9.75C18.9142 9.75 19.25 9.41421 19.25 9C19.25 8.58579 18.9142 8.25 18.5 8.25V9.75ZM16.5 9.75H18.5V8.25H16.5V9.75Z" fill="#71717A"/>
<path d="M5.5 6.25C5.08579 6.25 4.75 6.58579 4.75 7C4.75 7.41421 5.08579 7.75 5.5 7.75V6.25ZM7.5 7.75C7.91421 7.75 8.25 7.41421 8.25 7C8.25 6.58579 7.91421 6.25 7.5 6.25V7.75ZM5.5 7.75H7.5V6.25H5.5V7.75Z" fill="#71717A"/>
<path d="M11.25 7C11.25 7.41421 11.5858 7.75 12 7.75C12.4142 7.75 12.75 7.41421 12.75 7H11.25ZM12.75 4C12.75 3.58579 12.4142 3.25 12 3.25C11.5858 3.25 11.25 3.58579 11.25 4H12.75ZM12.75 7V4H11.25V7H12.75Z" fill="#71717A"/>
<path d="M22.25 9C22.25 9.41421 22.5858 9.75 23 9.75C23.4142 9.75 23.75 9.41421 23.75 9H22.25ZM23.75 6C23.75 5.58579 23.4142 5.25 23 5.25C22.5858 5.25 22.25 5.58579 22.25 6H23.75ZM23.75 9V6H22.25V9H23.75Z" fill="#71717A"/>
</svg>
