<svg width="24" height="24" viewBox="0 0 24 24" fill="none" xmlns="http://www.w3.org/2000/svg">
<g clip-path="url(#clip0_963_178)">
<path fill-rule="evenodd" clip-rule="evenodd" d="M12.4627 1.92258C12.1805 1.37002 11.3877 1.37946 11.1188 1.93858L1.74437 21.4303C1.5049 21.9282 1.86775 22.5053 2.42026 22.5053H11.7545H21.7474C22.3078 22.5053 22.6702 21.9133 22.4154 21.4143L12.4627 1.92258ZM9.76702 1.28844C10.5737 -0.388916 12.9522 -0.417229 13.7986 1.24044L23.7513 20.7321C24.5157 22.2292 23.4284 24.0053 21.7474 24.0053H11.7545H2.42026C0.762719 24.0053 -0.325835 22.2739 0.392582 20.7801L9.76702 1.28844ZM12.1164 7.78247C12.5306 7.78247 12.8664 8.11826 12.8664 8.53247V16.0209C12.8664 16.4351 12.5306 16.7709 12.1164 16.7709C11.7022 16.7709 11.3664 16.4351 11.3664 16.0209V8.53247C11.3664 8.11826 11.7022 7.78247 12.1164 7.78247ZM12.1164 20.2092C12.6724 20.2092 13.1232 19.7546 13.1232 19.1938C13.1232 18.6331 12.6724 18.1785 12.1164 18.1785C11.5603 18.1785 11.1096 18.6331 11.1096 19.1938C11.1096 19.7546 11.5603 20.2092 12.1164 20.2092Z" fill="#767676"/>
</g>
<defs>
<clipPath id="clip0_963_178">
<rect width="24" height="24" fill="white"/>
</clipPath>
</defs>
</svg>
