<svg width="24" height="24" viewBox="0 0 24 24" fill="none" xmlns="http://www.w3.org/2000/svg">
<path d="M12 18.75C11.9258 18.75 11.8533 18.772 11.7917 18.8132C11.73 18.8544 11.6819 18.913 11.6535 18.9815C11.6252 19.05 11.6177 19.1254 11.6322 19.1982C11.6467 19.2709 11.6824 19.3377 11.7348 19.3902C11.7873 19.4426 11.8541 19.4783 11.9268 19.4928C11.9996 19.5073 12.075 19.4998 12.1435 19.4715C12.212 19.4431 12.2706 19.395 12.3118 19.3333C12.353 19.2717 12.375 19.1992 12.375 19.125C12.375 19.0255 12.3355 18.9302 12.2652 18.8598C12.1948 18.7895 12.0995 18.75 12 18.75Z" fill="#474445" stroke="#474445" stroke-width="1.5" stroke-linecap="round" stroke-linejoin="round"/>
<path d="M12 15.75V8.25" stroke="#474445" stroke-width="1.5" stroke-miterlimit="10" stroke-linecap="round"/>
<path d="M13.621 1.76001C13.4722 1.45702 13.2414 1.20181 12.9549 1.02333C12.6684 0.844851 12.3376 0.750244 12 0.750244C11.6624 0.750244 11.3316 0.844851 11.0451 1.02333C10.7586 1.20181 10.5278 1.45702 10.379 1.76001L0.90601 21.058C0.79198 21.29 0.738946 21.5472 0.751916 21.8053C0.764886 22.0635 0.843432 22.3141 0.980137 22.5334C1.11684 22.7528 1.3072 22.9337 1.53324 23.0591C1.75927 23.1845 2.01353 23.2502 2.27201 23.25H21.728C21.9865 23.2502 22.2407 23.1845 22.4668 23.0591C22.6928 22.9337 22.8832 22.7528 23.0199 22.5334C23.1566 22.3141 23.2351 22.0635 23.2481 21.8053C23.2611 21.5472 23.208 21.29 23.094 21.058L13.621 1.76001Z" stroke="#474445" stroke-width="1.5" stroke-linecap="round" stroke-linejoin="round"/>
</svg>
