<svg width="24" height="24" viewBox="0 0 24 24" fill="none" xmlns="http://www.w3.org/2000/svg">
<path fill-rule="evenodd" clip-rule="evenodd" d="M1.5 3.625C1.5 3.48693 1.61193 3.375 1.75 3.375H22.25C22.3881 3.375 22.5 3.48693 22.5 3.625V16.625C22.5 16.7631 22.3881 16.875 22.25 16.875H12H1.75C1.61193 16.875 1.5 16.7631 1.5 16.625V3.625ZM12.75 18.375V20.625H16.5C16.9142 20.625 17.25 20.9608 17.25 21.375C17.25 21.7892 16.9142 22.125 16.5 22.125H12H7.5C7.08579 22.125 6.75 21.7892 6.75 21.375C6.75 20.9608 7.08579 20.625 7.5 20.625H11.25V18.375H1.75C0.783502 18.375 0 17.5915 0 16.625V3.625C0 2.6585 0.783502 1.875 1.75 1.875H22.25C23.2165 1.875 24 2.6585 24 3.625V16.625C24 17.5915 23.2165 18.375 22.25 18.375H12.75Z" fill="#474445"/>
</svg>
