<svg width="24" height="24" viewBox="0 0 24 24" fill="none" xmlns="http://www.w3.org/2000/svg">
<path d="M22.25 2.625H1.75C1.19772 2.625 0.75 3.07272 0.75 3.625V16.625C0.75 17.1773 1.19772 17.625 1.75 17.625H22.25C22.8023 17.625 23.25 17.1773 23.25 16.625V3.625C23.25 3.07272 22.8023 2.625 22.25 2.625Z" stroke="#71717A" stroke-width="1.5" stroke-linecap="round" stroke-linejoin="round"/>
<path d="M7.5 21.375H16.5" stroke="#71717A" stroke-width="1.5" stroke-linecap="round" stroke-linejoin="round"/>
<path d="M12 17.625V21.375" stroke="#71717A" stroke-width="1.5" stroke-linecap="round" stroke-linejoin="round"/>
<path d="M22.25 2.625H1.75C1.19772 2.625 0.75 3.07272 0.75 3.625V16.625C0.75 17.1773 1.19772 17.625 1.75 17.625H22.25C22.8023 17.625 23.25 17.1773 23.25 16.625V3.625C23.25 3.07272 22.8023 2.625 22.25 2.625Z" stroke="#71717A" stroke-width="1.5" stroke-linecap="round" stroke-linejoin="round"/>
<path d="M7.5 21.375H16.5" stroke="#71717A" stroke-width="1.5" stroke-linecap="round" stroke-linejoin="round"/>
<path d="M12 17.625V21.375" stroke="#71717A" stroke-width="1.5" stroke-linecap="round" stroke-linejoin="round"/>
</svg>
