<svg width="24" height="24" viewBox="0 0 24 24" fill="none" xmlns="http://www.w3.org/2000/svg">
<path fill-rule="evenodd" clip-rule="evenodd" d="M11.25 23C11.25 23.4142 11.5858 23.75 12 23.75C12.4142 23.75 12.75 23.4142 12.75 23L12.75 6.58268L15.5251 8.85319C15.8457 9.11549 16.3182 9.06824 16.5805 8.74766C16.8428 8.42707 16.7955 7.95455 16.4749 7.69226L12.4749 4.41953C12.1987 4.19349 11.8013 4.19349 11.5251 4.41953L7.52507 7.69226C7.20449 7.95455 7.15724 8.42707 7.41953 8.74765C7.68183 9.06824 8.15434 9.11549 8.47493 8.85319L11.25 6.58268L11.25 23ZM23 1.75C23.4142 1.75 23.75 1.41421 23.75 1C23.75 0.585787 23.4142 0.25 23 0.25L1 0.249998C0.585787 0.249998 0.25 0.585785 0.25 0.999998C0.25 1.41421 0.585787 1.75 1 1.75L23 1.75Z" fill="#767676"/>
</svg>
