<svg width="24" height="24" viewBox="0 0 24 24" fill="none" xmlns="http://www.w3.org/2000/svg">
<path d="M2.01557 21.4673L2.75667 21.5824L2.01557 21.4673ZM21.9844 21.4673L21.2433 21.5824L21.9844 21.4673ZM2.75667 21.5824C3.44504 17.1525 7.31691 13.75 12 13.75V12.25C6.57737 12.25 2.07637 16.1915 1.27446 21.3521L2.75667 21.5824ZM12 13.75C16.6831 13.75 20.555 17.1525 21.2433 21.5824L22.7255 21.3521C21.9236 16.1915 17.4226 12.25 12 12.25V13.75ZM20.5481 22.25H3.45185V23.75H20.5481V22.25ZM1.27446 21.3521C1.05985 22.7332 2.22557 23.75 3.45185 23.75V22.25C2.96139 22.25 2.71029 21.8809 2.75667 21.5824L1.27446 21.3521ZM21.2433 21.5824C21.2897 21.8809 21.0386 22.25 20.5481 22.25V23.75C21.7744 23.75 22.9402 22.7332 22.7255 21.3521L21.2433 21.5824Z" fill="#71717A"/>
<path d="M16.25 6C16.25 8.34721 14.3472 10.25 12 10.25V11.75C15.1756 11.75 17.75 9.17564 17.75 6H16.25ZM12 10.25C9.65279 10.25 7.75 8.34721 7.75 6H6.25C6.25 9.17564 8.82436 11.75 12 11.75V10.25ZM7.75 6C7.75 3.65279 9.65279 1.75 12 1.75V0.25C8.82436 0.25 6.25 2.82436 6.25 6H7.75ZM12 1.75C14.3472 1.75 16.25 3.65279 16.25 6H17.75C17.75 2.82436 15.1756 0.25 12 0.25V1.75Z" fill="#71717A"/>
<path d="M6.90014 4.80875C7.75812 5.46874 9.25809 6.27245 11.0481 6.61187C12.8523 6.954 14.9861 6.8289 17.0362 5.56732L16.2501 4.28983C14.5859 5.31396 12.8506 5.42696 11.3275 5.13813C9.79009 4.8466 8.50434 4.15031 7.8147 3.61982L6.90014 4.80875Z" fill="#71717A"/>
</svg>
