<svg width="24" height="24" viewBox="0 0 24 24" fill="none" xmlns="http://www.w3.org/2000/svg">
<path d="M7.35714 4.21429C8.90476 5.40476 12.9286 7.21429 16.6429 4.92857M2.01557 21.4673C2.7607 16.672 6.94714 13 12 13C17.0529 13 21.2393 16.672 21.9844 21.4673C22.1149 22.3071 21.4065 23 20.5481 23H3.45185C2.59348 23 1.88507 22.3071 2.01557 21.4673ZM17 6C17 8.76142 14.7614 11 12 11C9.23858 11 7 8.76142 7 6C7 3.23858 9.23858 1 12 1C14.7614 1 17 3.23858 17 6Z" stroke="#767676" stroke-width="1.5"/>
</svg>
