<svg width="24" height="24" viewBox="0 0 24 24" fill="none" xmlns="http://www.w3.org/2000/svg">
<g clip-path="url(#clip0)">
<path fill-rule="evenodd" clip-rule="evenodd" d="M4.125 7.875C4.125 6.01104 5.63604 4.5 7.5 4.5C9.36396 4.5 10.875 6.01104 10.875 7.875C10.875 9.73896 9.36396 11.25 7.5 11.25C5.63604 11.25 4.125 9.73896 4.125 7.875ZM7.5 3C4.80761 3 2.625 5.18261 2.625 7.875C2.625 10.5674 4.80761 12.75 7.5 12.75C5.51088 12.75 3.60322 13.5402 2.1967 14.9467C0.790176 16.3532 0 18.2609 0 20.25C0 20.6642 0.335786 21 0.75 21C1.16421 21 1.5 20.6642 1.5 20.25C1.5 18.6587 2.13214 17.1326 3.25736 16.0074C4.38258 14.8821 5.9087 14.25 7.5 14.25C9.0913 14.25 10.6174 14.8821 11.7426 16.0074C12.8679 17.1326 13.5 18.6587 13.5 20.25C13.5 20.6642 13.8358 21 14.25 21C14.6642 21 15 20.6642 15 20.25C15 18.2609 14.2098 16.3532 12.8033 14.9467C11.3968 13.5402 9.48912 12.75 7.5 12.75C10.1924 12.75 12.375 10.5674 12.375 7.875C12.375 5.18261 10.1924 3 7.5 3ZM17.7266 7.5C16.2768 7.5 15.1016 8.67525 15.1016 10.125C15.1016 11.5747 16.2768 12.75 17.7266 12.75C19.1763 12.75 20.3516 11.5747 20.3516 10.125C20.3516 8.67525 19.1763 7.5 17.7266 7.5ZM13.6016 10.125C13.6016 7.84683 15.4484 6 17.7266 6C20.0047 6 21.8516 7.84683 21.8516 10.125C21.8516 12.0011 20.5991 13.5847 18.8846 14.0852C19.7555 14.249 20.5832 14.5957 21.3124 15.1038C22.1417 15.6817 22.8192 16.4513 23.2872 17.3472C23.7552 18.2431 23.9999 19.2388 24.0005 20.2496C24.0007 20.6638 23.6651 20.9998 23.2509 21C22.8367 21.0002 22.5007 20.6646 22.5005 20.2504C22.5001 19.4812 22.3138 18.7235 21.9577 18.0417C21.6015 17.3599 21.086 16.7742 20.4549 16.3345C19.8238 15.8947 19.0958 15.6139 18.3328 15.516C17.5699 15.418 16.7946 15.5057 16.0728 15.7717C15.6842 15.915 15.253 15.716 15.1098 15.3274C14.9665 14.9387 15.1655 14.5075 15.5541 14.3643C15.8844 14.2426 16.2232 14.1492 16.5668 14.0847C14.8533 13.5837 13.6016 12.0005 13.6016 10.125Z" fill="#474445"/>
</g>
<defs>
<clipPath id="clip0">
<rect width="24" height="24" fill="white"/>
</clipPath>
</defs>
</svg>
