<svg width="24" height="24" viewBox="0 0 24 24" fill="none" xmlns="http://www.w3.org/2000/svg">
<path d="M21.75 18V21C21.75 21.3978 21.592 21.7794 21.3107 22.0607C21.0294 22.342 20.6478 22.5 20.25 22.5H3C2.40326 22.5 1.83097 22.2629 1.40901 21.841C0.987053 21.419 0.75 20.8467 0.75 20.25V3.75C0.75 3.15326 0.987053 2.58097 1.40901 2.15901C1.83097 1.73705 2.40326 1.5 3 1.5H18.75C19.1478 1.5 19.5294 1.65804 19.8107 1.93934C20.092 2.22064 20.25 2.60218 20.25 3V5" stroke="#71717A" stroke-width="1.5" stroke-linecap="round" stroke-linejoin="round"/>
<path d="M21.75 18C22.1478 18 22.5294 17.842 22.8107 17.5607C23.092 17.2794 23.25 16.8978 23.25 16.5V12C23.25 11.6022 23.092 11.2206 22.8107 10.9393C22.5294 10.658 22.1478 10.5 21.75 10.5H18C17.0054 10.5 16.0516 10.8951 15.3483 11.5983C14.6451 12.3016 14.25 13.2554 14.25 14.25C14.25 15.2446 14.6451 16.1984 15.3483 16.9017C16.0516 17.6049 17.0054 18 18 18H21.75Z" stroke="#71717A" stroke-width="1.5" stroke-linecap="round" stroke-linejoin="round"/>
<path d="M4.01074 4.355C4.1702 4.63927 4.40563 4.87356 4.69068 5.03163C4.97574 5.18969 5.29916 5.26531 5.62474 5.25H20.2497C20.6476 5.25 21.0291 5.40803 21.3104 5.68934C21.5917 5.97064 21.7497 6.35217 21.7497 6.75V10.3164" stroke="#71717A" stroke-width="1.5" stroke-linecap="round" stroke-linejoin="round"/>
<path d="M14.25 14.25H17" stroke="#71717A" stroke-width="1.5" stroke-linecap="round" stroke-linejoin="round"/>
</svg>
