<svg width="24" height="24" viewBox="0 0 24 24" fill="none" xmlns="http://www.w3.org/2000/svg">
<path fill-rule="evenodd" clip-rule="evenodd" d="M3 2.25C2.60218 2.25 2.22064 2.40804 1.93934 2.68934C1.65804 2.97064 1.5 3.35218 1.5 3.75V20.25C1.5 20.6478 1.65804 21.0294 1.93934 21.3107C2.22064 21.592 2.60218 21.75 3 21.75H20.25C20.4489 21.75 20.6397 21.671 20.7803 21.5303C20.921 21.3897 21 21.1989 21 21V18.75H18C16.8065 18.75 15.6619 18.2759 14.818 17.432C13.9741 16.5881 13.5 15.4435 13.5 14.25C13.5 13.0565 13.9741 11.9119 14.818 11.068C15.6619 10.2241 16.8065 9.75 18 9.75H20.9997V6.75C20.9997 6.55108 20.9207 6.36032 20.7801 6.21967C20.6399 6.07947 20.4499 6.00051 20.2517 6C20.2511 6 20.2506 6 20.25 6C20.2491 6 20.2483 6 20.2474 6H5.6408C5.18264 6.01803 4.72817 5.91001 4.32697 5.68753C3.92017 5.46195 3.58418 5.1276 3.35662 4.72191C3.15398 4.36065 3.28257 3.90351 3.64383 3.70087C4.00509 3.49823 4.46222 3.62682 4.66486 3.98808C4.75622 4.15094 4.89109 4.28517 5.0544 4.37572C5.2177 4.46628 5.40299 4.50959 5.58951 4.50082C5.60125 4.50027 5.61299 4.5 5.62474 4.5H19.5V3C19.5 2.80109 19.421 2.61032 19.2803 2.46967C19.1397 2.32902 18.9489 2.25 18.75 2.25H3ZM21 4.62877V3C21 2.40326 20.7629 1.83097 20.341 1.40901C19.919 0.987053 19.3467 0.75 18.75 0.75H3C2.20435 0.75 1.44129 1.06607 0.87868 1.62868C0.31607 2.19129 0 2.95435 0 3.75V20.25C0 21.0456 0.31607 21.8087 0.87868 22.3713C1.44129 22.9339 2.20435 23.25 3 23.25H20.25C20.8467 23.25 21.419 23.0129 21.841 22.591C22.2629 22.169 22.5 21.5967 22.5 21V18.6213C22.8134 18.5105 23.1014 18.3305 23.341 18.091C23.7629 17.669 24 17.0967 24 16.5V12C24 11.4033 23.7629 10.831 23.341 10.409C23.1014 10.1694 22.8133 9.9894 22.4997 9.87859V6.75C22.4997 6.15326 22.2627 5.58096 21.8407 5.15901C21.6012 4.91952 21.3133 4.73959 21 4.62877ZM22.2803 17.0303C22.1397 17.171 21.9489 17.25 21.75 17.25H18C17.2043 17.25 16.4413 16.9339 15.8787 16.3713C15.4965 15.9892 15.2281 15.5145 15.0953 15H17C17.4142 15 17.75 14.6642 17.75 14.25C17.75 13.8358 17.4142 13.5 17 13.5H15.0953C15.2281 12.9855 15.4965 12.5108 15.8787 12.1287C16.4413 11.5661 17.2043 11.25 18 11.25H21.75C21.9489 11.25 22.1397 11.329 22.2803 11.4697C22.421 11.6103 22.5 11.8011 22.5 12V16.5C22.5 16.6989 22.421 16.8897 22.2803 17.0303Z" fill="#474445"/>
</svg>
