<svg width="24" height="24" viewBox="0 0 24 24" fill="none" xmlns="http://www.w3.org/2000/svg">
<g clip-path="url(#clip0_964:9)">
<path fill-rule="evenodd" clip-rule="evenodd" d="M14.0827 1.02963C12.9828 -0.301626 10.9425 -0.301626 9.84258 1.02963L8.64256 2.4821C8.37808 2.80223 7.97188 2.97012 7.55855 2.93013L5.68042 2.74845C3.95731 2.58176 2.51061 4.02954 2.6786 5.75253L2.85913 7.60408C2.89962 8.0194 2.7302 8.42754 2.40748 8.69209L0.966576 9.87325C-0.375576 10.9735 -0.375578 13.0266 0.966575 14.1268L2.40748 15.3079C2.7302 15.5725 2.89962 15.9806 2.85913 16.3959L2.6786 18.2475C2.51061 19.9705 3.95731 21.4183 5.68042 21.2516L7.55855 21.0699C7.97188 21.0299 8.37808 21.1978 8.64256 21.5179L9.84258 22.9704C10.9425 24.3016 12.9828 24.3016 14.0827 22.9704L15.2827 21.5179C15.5472 21.1978 15.9534 21.0299 16.3667 21.0699L18.2448 21.2516C19.9679 21.4183 21.4146 19.9705 21.2466 18.2475L21.0661 16.3959C21.0256 15.9806 21.195 15.5725 21.5178 15.3079L22.9587 14.1268C24.3008 13.0266 24.3008 10.9735 22.9587 9.87325L21.5178 8.69209C21.195 8.42754 21.0256 8.0194 21.0661 7.60408L21.2466 5.75253C21.4146 4.02954 19.9679 2.58176 18.2448 2.74845L16.3667 2.93013C15.9534 2.97012 15.5472 2.80223 15.2827 2.4821L14.0827 1.02963ZM10.999 1.98503C11.4989 1.37991 12.4263 1.37991 12.9263 1.98503L14.1263 3.4375C14.7082 4.14178 15.6018 4.51113 16.5111 4.42316L18.3892 4.24148C19.1725 4.16571 19.8301 4.82379 19.7537 5.60697L19.5732 7.45852C19.4841 8.37223 19.8568 9.27014 20.5668 9.85214L22.0077 11.0333C22.6178 11.5334 22.6178 12.4666 22.0077 12.9667L20.5668 14.1479C19.8568 14.7299 19.4841 15.6278 19.5732 16.5415L19.7537 18.393C19.8301 19.1762 19.1725 19.8343 18.3892 19.7585L16.5111 19.5769C15.6018 19.4889 14.7082 19.8582 14.1263 20.5625L12.9263 22.015C12.4263 22.6201 11.4989 22.6201 10.999 22.015L9.79895 20.5625C9.21707 19.8582 8.32343 19.4889 7.41412 19.5769L5.53599 19.7585C4.75275 19.8343 4.09517 19.1762 4.17153 18.393L4.35205 16.5415C4.44114 15.6278 4.0684 14.7299 3.35841 14.1479L1.91751 12.9667C1.30744 12.4666 1.30744 11.5334 1.91751 11.0333L3.35842 9.85214C4.0684 9.27013 4.44114 8.37223 4.35205 7.45852L4.17153 5.60697C4.09517 4.82379 4.75275 4.16571 5.53599 4.24148L7.41412 4.42316C8.32343 4.51113 9.21707 4.14178 9.79895 3.4375L10.999 1.98503ZM16.4393 10.1339C16.6884 9.80295 16.6221 9.33273 16.2912 9.08357C15.9603 8.83442 15.4901 8.90069 15.241 9.2316L11.279 14.4935C11.1877 14.6147 11.0104 14.6273 10.9029 14.5203L8.61474 12.2411C8.32128 11.9488 7.8464 11.9497 7.55409 12.2432C7.26177 12.5366 7.2627 13.0115 7.55616 13.3038L9.84429 15.583C10.5969 16.3326 11.8384 16.2444 12.4773 15.3958L16.4393 10.1339Z" fill="#767676"/>
</g>
<defs>
<clipPath id="clip0_964:9">
<rect width="24" height="24" fill="white"/>
</clipPath>
</defs>
</svg>
