<svg width="24" height="24" viewBox="0 0 24 24" fill="none" xmlns="http://www.w3.org/2000/svg">
<g clip-path="url(#clip0_964_9)">
<path d="M10.4208 1.50732C11.2207 0.539132 12.7045 0.539132 13.5045 1.50732L14.7045 2.95979C15.1277 3.472 15.7776 3.74061 16.4389 3.67664L18.317 3.49495C19.5702 3.37372 20.6223 4.42666 20.5002 5.67974L20.3196 7.53129C20.2549 8.1958 20.5259 8.84883 21.0423 9.2721L22.4832 10.4533C23.4593 11.2534 23.4593 12.7466 22.4832 13.5467L21.0423 14.7279C20.5259 15.1512 20.2549 15.8042 20.3196 16.4687L20.5002 18.3203C20.6223 19.5733 19.5702 20.6263 18.317 20.505L16.4389 20.3234C15.7776 20.2594 15.1277 20.528 14.7045 21.0402L13.5045 22.4927C12.7045 23.4609 11.2207 23.4609 10.4208 22.4927L9.22075 21.0402C8.79757 20.528 8.14765 20.2594 7.48633 20.3234L5.6082 20.505C4.35503 20.6263 3.30289 19.5733 3.42506 18.3203L3.60559 16.4687C3.67038 15.8042 3.39929 15.1512 2.88294 14.7279L1.44204 13.5467C0.465928 12.7466 0.465929 11.2534 1.44204 10.4533L2.88294 9.2721C3.39929 8.84883 3.67038 8.1958 3.60559 7.53129L3.42506 5.67974C3.30289 4.42666 4.35503 3.37372 5.6082 3.49495L7.48633 3.67664C8.14765 3.74061 8.79757 3.472 9.22075 2.95979L10.4208 1.50732Z" stroke="#767676" stroke-width="1.5"/>
<path d="M8.08545 12.7725L10.3736 15.0516C10.8036 15.48 11.513 15.4296 11.8782 14.9446L15.8401 9.68274" stroke="#767676" stroke-width="1.5" stroke-linecap="round"/>
</g>
<defs>
<clipPath id="clip0_964_9">
<rect width="24" height="24" fill="white"/>
</clipPath>
</defs>
</svg>
