<svg width="24" height="24" viewBox="0 0 24 24" fill="none" xmlns="http://www.w3.org/2000/svg">
<g clip-path="url(#clip0)">
<path d="M15.75 9.74899L11.769 15.057C11.7045 15.1429 11.6223 15.2139 11.528 15.2653C11.4336 15.3166 11.3294 15.3472 11.2222 15.3547C11.1151 15.3623 11.0076 15.3468 10.907 15.3092C10.8063 15.2717 10.715 15.2129 10.639 15.137L8.25 12.749" stroke="#474445" stroke-width="1.5" stroke-linecap="round" stroke-linejoin="round"/>
<path d="M10.73 1.35699C10.8827 1.16712 11.0761 1.01391 11.2959 0.908651C11.5157 0.80339 11.7563 0.748749 12 0.748749C12.2437 0.748749 12.4843 0.80339 12.704 0.908651C12.9238 1.01391 13.1172 1.16712 13.27 1.35699L14.782 3.23799C14.9532 3.45139 15.1755 3.61822 15.4282 3.72308C15.6809 3.82794 15.956 3.86746 16.228 3.83799L18.628 3.57699C18.8709 3.55 19.1168 3.578 19.3475 3.65891C19.5782 3.73983 19.7877 3.87159 19.9605 4.04444C20.1334 4.21729 20.2651 4.4268 20.346 4.65746C20.427 4.88813 20.455 5.13404 20.428 5.37699L20.167 7.77699C20.1375 8.04901 20.177 8.32407 20.2819 8.57679C20.3867 8.82951 20.5536 9.05174 20.767 9.22299L22.648 10.735C22.8378 10.8877 22.991 11.0811 23.0963 11.3009C23.2016 11.5207 23.2562 11.7613 23.2562 12.005C23.2562 12.2487 23.2016 12.4893 23.0963 12.7091C22.991 12.9288 22.8378 13.1222 22.648 13.275L20.761 14.78C20.5476 14.9515 20.3809 15.1739 20.276 15.4268C20.1712 15.6797 20.1316 15.9548 20.161 16.227L20.422 18.627C20.4492 18.87 20.4213 19.116 20.3404 19.3467C20.2596 19.5775 20.1278 19.7871 19.9549 19.96C19.7821 20.1329 19.5725 20.2646 19.3417 20.3455C19.111 20.4263 18.865 20.4542 18.622 20.427L16.222 20.166C15.9499 20.1364 15.6749 20.1759 15.4221 20.2808C15.1694 20.3856 14.9472 20.5525 14.776 20.766L13.27 22.64C13.1173 22.83 12.924 22.9834 12.7042 23.0887C12.4844 23.1941 12.2437 23.2488 12 23.2488C11.7562 23.2488 11.5156 23.1941 11.2958 23.0887C11.076 22.9834 10.8826 22.83 10.73 22.64L9.21897 20.76C9.04751 20.5466 8.8251 20.3798 8.57222 20.2749C8.31934 20.17 8.04414 20.1305 7.77197 20.16L5.37197 20.421C5.12894 20.4484 4.88287 20.4206 4.65203 20.3399C4.42118 20.2591 4.21151 20.1273 4.03857 19.9544C3.86564 19.7815 3.73389 19.5718 3.65311 19.3409C3.57233 19.1101 3.5446 18.864 3.57197 18.621L3.83297 16.221C3.86243 15.9488 3.82292 15.6736 3.71806 15.4207C3.6132 15.1679 3.44638 14.9454 3.23297 14.774L1.35297 13.263C1.16294 13.1103 1.00958 12.917 0.904214 12.6972C0.798842 12.4774 0.744141 12.2367 0.744141 11.993C0.744141 11.7492 0.798842 11.5086 0.904214 11.2888C1.00958 11.069 1.16294 10.8756 1.35297 10.723L3.23297 9.21099C3.44645 9.03981 3.61333 8.81758 3.7182 8.56484C3.82307 8.31211 3.86254 8.03701 3.83297 7.76499L3.57197 5.36499C3.54479 5.122 3.57266 4.876 3.6535 4.64525C3.73435 4.4145 3.86611 4.2049 4.039 4.03201C4.21189 3.85912 4.42148 3.72736 4.65224 3.64652C4.88299 3.56567 5.12898 3.5378 5.37197 3.56499L7.77197 3.82599C8.04413 3.85535 8.3193 3.81579 8.57217 3.71094C8.82503 3.60609 9.04745 3.43933 9.21897 3.22599L10.73 1.35699Z" stroke="#474445" stroke-width="1.5" stroke-linecap="round" stroke-linejoin="round"/>
</g>
<defs>
<clipPath id="clip0">
<rect width="24" height="24" fill="white"/>
</clipPath>
</defs>
</svg>
