<svg width="24" height="24" viewBox="0 0 24 24" fill="none" xmlns="http://www.w3.org/2000/svg">
<g clip-path="url(#clip0_1312:520)">
<path fill-rule="evenodd" clip-rule="evenodd" d="M9.75 1.5C8.50736 1.5 7.5 2.50736 7.5 3.75C7.5 4.99264 8.50736 6 9.75 6C10.9926 6 12 4.99264 12 3.75C12 2.50736 10.9926 1.5 9.75 1.5ZM6 3.75C6 1.67893 7.67893 0 9.75 0C11.8211 0 13.5 1.67893 13.5 3.75C13.5 5.56422 12.2117 7.07753 10.5 7.42499V10.5H15.75C16.1642 10.5 16.5 10.8358 16.5 11.25C16.5 11.6642 16.1642 12 15.75 12H10.5V14.25C10.5 14.4489 10.579 14.6397 10.7197 14.7803C10.8603 14.921 11.0511 15 11.25 15H15.75C16.7446 15 17.6984 15.3951 18.4017 16.0984C19.1049 16.8016 19.5 17.7554 19.5 18.75V22.5H20.25C20.6642 22.5 21 22.8358 21 23.25C21 23.6642 20.6642 24 20.25 24H18.75C18.3358 24 18 23.6642 18 23.25V18.75C18 18.1533 17.7629 17.581 17.341 17.159C17.1014 16.9195 16.8134 16.7395 16.5 16.6287V17.25C16.5 18.585 16.1041 19.8901 15.3624 21.0001C14.6207 22.1101 13.5665 22.9753 12.3331 23.4862C11.0997 23.9971 9.74252 24.1308 8.43314 23.8703C7.12377 23.6099 5.92104 22.967 4.97703 22.023C4.03303 21.079 3.39015 19.8762 3.1297 18.5669C2.86925 17.2575 3.00292 15.9003 3.51382 14.6669C4.02471 13.4335 4.88987 12.3793 5.9999 11.6376C6.90088 11.0356 7.93033 10.6614 9 10.5418V7.42499C7.28832 7.07753 6 5.56422 6 3.75ZM9 12.0538C8.22793 12.1653 7.4871 12.4479 6.83326 12.8848C5.9699 13.4617 5.297 14.2816 4.89964 15.2409C4.50228 16.2002 4.39831 17.2558 4.60088 18.2742C4.80345 19.2926 5.30347 20.2281 6.03769 20.9623C6.77192 21.6965 7.70738 22.1966 8.72578 22.3991C9.74418 22.6017 10.7998 22.4977 11.7591 22.1004C12.7184 21.703 13.5383 21.0301 14.1152 20.1667C14.6921 19.3034 15 18.2884 15 17.25V16.5H11.25C10.6533 16.5 10.081 16.2629 9.65901 15.841C9.23705 15.419 9 14.8467 9 14.25V12.0538Z" fill="#767676"/>
</g>
<defs>
<clipPath id="clip0_1312:520">
<rect width="24" height="24" fill="white"/>
</clipPath>
</defs>
</svg>
