<svg width="24" height="24" viewBox="0 0 24 24" fill="none" xmlns="http://www.w3.org/2000/svg">
<path d="M9.75 6.75C11.4069 6.75 12.75 5.40685 12.75 3.75C12.75 2.09315 11.4069 0.75 9.75 0.75C8.09315 0.75 6.75 2.09315 6.75 3.75C6.75 5.40685 8.09315 6.75 9.75 6.75Z" stroke="#71717A" stroke-width="1.5" stroke-linecap="round" stroke-linejoin="round"/>
<path d="M20.25 23.25H18.75V18.75C18.75 17.9544 18.4339 17.1913 17.8713 16.6287C17.3087 16.0661 16.5456 15.75 15.75 15.75H11.25C10.8522 15.75 10.4706 15.592 10.1893 15.3107C9.90804 15.0294 9.75 14.6478 9.75 14.25V7.09375" stroke="#71717A" stroke-width="1.5" stroke-linecap="round" stroke-linejoin="round"/>
<path d="M15.75 11.25H9.75C8.56331 11.25 7.40328 11.6019 6.41658 12.2612C5.42989 12.9205 4.66085 13.8575 4.20673 14.9539C3.7526 16.0503 3.63378 17.2567 3.86529 18.4205C4.0968 19.5844 4.66825 20.6535 5.50736 21.4926C6.34648 22.3318 7.41558 22.9032 8.57946 23.1347C9.74335 23.3662 10.9497 23.2474 12.0461 22.7933C13.1425 22.3392 14.0795 21.5701 14.7388 20.5834C15.3981 19.5967 15.75 18.4367 15.75 17.25V16.1562" stroke="#71717A" stroke-width="1.5" stroke-linecap="round" stroke-linejoin="round"/>
</svg>
