<svg width="24" height="24" viewBox="0 0 24 24" fill="none" xmlns="http://www.w3.org/2000/svg">
<g clip-path="url(#clip0)">
<path fill-rule="evenodd" clip-rule="evenodd" d="M12 1.5011C7.63478 1.5011 3.43189 3.15606 0.238639 6.13235C-0.0643669 6.41477 -0.0810567 6.88935 0.201362 7.19235C0.48378 7.49536 0.95836 7.51205 1.26137 7.22963C4.17694 4.51215 8.01437 3.0011 12 3.0011C15.9856 3.0011 19.8231 4.51215 22.7386 7.22963C23.0416 7.51205 23.5162 7.49536 23.7986 7.19235C24.0811 6.88935 24.0644 6.41477 23.7614 6.13235C20.5681 3.15606 16.3652 1.5011 12 1.5011ZM2.98434 9.73464C5.3754 7.34373 8.61829 6.00055 11.9997 6.00055C15.381 6.00055 18.6239 7.34373 21.015 9.73464C21.3079 10.0275 21.3079 10.5024 21.015 10.7953C20.7221 11.0882 20.2472 11.0882 19.9543 10.7953C17.8446 8.68571 14.9832 7.50055 11.9997 7.50055C9.01609 7.50055 6.15473 8.68571 4.04496 10.7953C3.75206 11.0882 3.27719 11.0882 2.9843 10.7953C2.69142 10.5024 2.69144 10.0275 2.98434 9.73464ZM11.9973 10.5006C9.80947 10.5006 7.71119 11.3697 6.16404 12.9166C5.87113 13.2095 5.8711 13.6844 6.16398 13.9773C6.45686 14.2702 6.93173 14.2702 7.22464 13.9774C8.49049 12.7117 10.2073 12.0006 11.9973 12.0006C13.7874 12.0006 15.5042 12.7117 16.77 13.9774C17.0629 14.2702 17.5378 14.2702 17.8307 13.9773C18.1236 13.6844 18.1235 13.2095 17.8306 12.9166C16.2835 11.3697 14.1852 10.5006 11.9973 10.5006ZM9.75 18.75C9.75 17.5074 10.7574 16.5 12 16.5C13.2426 16.5 14.25 17.5074 14.25 18.75C14.25 19.9926 13.2426 21 12 21C10.7574 21 9.75 19.9926 9.75 18.75ZM12 15C9.92894 15 8.25 16.6789 8.25 18.75C8.25 20.8211 9.92894 22.5 12 22.5C14.0711 22.5 15.75 20.8211 15.75 18.75C15.75 16.6789 14.0711 15 12 15Z" fill="#474445"/>
</g>
<defs>
<clipPath id="clip0">
<rect width="24" height="24" fill="white"/>
</clipPath>
</defs>
</svg>
