<svg width="24" height="24" viewBox="0 0 24 24" fill="none" xmlns="http://www.w3.org/2000/svg">
<path d="M12 21.75C13.6569 21.75 15 20.4069 15 18.75C15 17.0931 13.6569 15.75 12 15.75C10.3431 15.75 9 17.0931 9 18.75C9 20.4069 10.3431 21.75 12 21.75Z" stroke="#474445" stroke-width="1.5" stroke-linecap="round" stroke-linejoin="round"/>
<path d="M17.3003 13.447C15.8938 12.0407 13.9863 11.2506 11.9973 11.2506C10.0084 11.2506 8.10083 12.0407 6.69434 13.447" stroke="#474445" stroke-width="1.5" stroke-linecap="round" stroke-linejoin="round"/>
<path d="M20.4846 10.265C18.2342 8.01472 15.1821 6.75055 11.9996 6.75055C8.81719 6.75055 5.76506 8.01472 3.51465 10.265" stroke="#474445" stroke-width="1.5" stroke-linecap="round" stroke-linejoin="round"/>
<path d="M23.25 6.68099C20.1956 3.83411 16.1754 2.2511 12 2.2511C7.82457 2.2511 3.80442 3.83411 0.75 6.68099" stroke="#474445" stroke-width="1.5" stroke-linecap="round" stroke-linejoin="round"/>
</svg>
