<svg width="24" height="24" viewBox="0 0 24 24" fill="none" xmlns="http://www.w3.org/2000/svg">
<g clip-path="url(#clip0)">
<path d="M6.75018 12.75V17.332M18.7512 10.5V14.535M0.805176 18C3.63075 17.0181 6.70222 17.0012 9.53841 17.952C12.3746 18.9027 14.8153 20.7674 16.4782 23.254M10.9692 18.518C13.8866 15.7718 17.7436 14.2449 21.7502 14.25C22.2562 14.25 22.7562 14.2733 23.2502 14.32M7.37416 1.08398C7.30567 0.981261 7.21288 0.897039 7.10403 0.838789C6.99517 0.780539 6.87362 0.750061 6.75016 0.750061C6.6267 0.750061 6.50515 0.780539 6.3963 0.838789C6.28745 0.897039 6.19466 0.981261 6.12616 1.08398L2.25016 7.49998H4.50016L1.60016 11.628C1.53506 11.742 1.50101 11.871 1.50141 12.0023C1.50181 12.1335 1.53665 12.2624 1.60244 12.3759C1.66824 12.4895 1.76268 12.5838 1.87635 12.6495C1.99001 12.7151 2.11891 12.7498 2.25016 12.75H11.2502C11.3815 12.7499 11.5105 12.7154 11.6243 12.6498C11.7381 12.5843 11.8327 12.49 11.8986 12.3764C11.9645 12.2628 11.9995 12.1339 11.9999 12.0025C12.0004 11.8712 11.9663 11.742 11.9012 11.628L9.00016 7.49998H11.2502L7.37416 1.08398ZM19.2622 1.02298C19.2061 0.939033 19.1301 0.870216 19.0411 0.822624C18.952 0.775032 18.8526 0.750133 18.7517 0.750133C18.6507 0.750133 18.5513 0.775032 18.4622 0.822624C18.3732 0.870216 18.2973 0.939033 18.2412 1.02298L15.0692 5.99998H16.9102L14.3322 9.58198C14.2786 9.67529 14.2506 9.78103 14.2509 9.88859C14.2512 9.99616 14.2798 10.1018 14.3338 10.1948C14.3878 10.2878 14.4653 10.365 14.5586 10.4185C14.6519 10.4721 14.7576 10.5002 14.8652 10.5H22.6352C22.7427 10.5002 22.8485 10.4721 22.9417 10.4185C23.035 10.365 23.1125 10.2878 23.1665 10.1948C23.2206 10.1018 23.2491 9.99616 23.2494 9.88859C23.2497 9.78103 23.2217 9.67529 23.1682 9.58198L20.5922 5.99998H22.4332L19.2622 1.02298Z" stroke="#474445" stroke-width="1.5" stroke-linecap="round" stroke-linejoin="round"/>
</g>
<defs>
<clipPath id="clip0">
<rect width="24" height="24" fill="white"/>
</clipPath>
</defs>
</svg>
