<svg width="24" height="24" viewBox="0 0 24 24" fill="none" xmlns="http://www.w3.org/2000/svg">
<g clip-path="url(#clip0)">
<path d="M7.37422 1.08398C7.30573 0.981261 7.21294 0.897039 7.10409 0.838789C6.99523 0.780539 6.87368 0.750061 6.75022 0.750061C6.62676 0.750061 6.50521 0.780539 6.39636 0.838789C6.28751 0.897039 6.19472 0.981261 6.12622 1.08398L2.25022 7.49998H4.50022L1.60022 11.628C1.53512 11.742 1.50107 11.871 1.50147 12.0023C1.50187 12.1335 1.53671 12.2624 1.6025 12.3759C1.6683 12.4895 1.76274 12.5838 1.87641 12.6495C1.99007 12.7151 2.11897 12.7498 2.25022 12.75H11.2502C11.3816 12.7499 11.5106 12.7154 11.6244 12.6498C11.7382 12.5843 11.8328 12.49 11.8987 12.3764C11.9646 12.2628 11.9995 12.1339 12 12.0025C12.0004 11.8712 11.9664 11.742 11.9012 11.628L9.00022 7.49998H11.2502L7.37422 1.08398Z" stroke="#474445" stroke-width="1.5" stroke-linecap="round" stroke-linejoin="round"/>
<path d="M6.75 12.75V17.332" stroke="#474445" stroke-width="1.5" stroke-linecap="round" stroke-linejoin="round"/>
<path d="M19.2618 1.02303C19.2057 0.939083 19.1297 0.870266 19.0407 0.822674C18.9516 0.775082 18.8522 0.750183 18.7513 0.750183C18.6503 0.750183 18.5509 0.775082 18.4618 0.822674C18.3728 0.870266 18.2969 0.939083 18.2408 1.02303L15.0688 6.00003H16.9098L14.3318 9.58203C14.2782 9.67534 14.2502 9.78108 14.2505 9.88864C14.2508 9.99621 14.2794 10.1018 14.3334 10.1948C14.3874 10.2878 14.4649 10.365 14.5582 10.4186C14.6515 10.4722 14.7572 10.5003 14.8648 10.5H22.6348C22.7423 10.5003 22.848 10.4722 22.9413 10.4186C23.0346 10.365 23.1121 10.2878 23.1661 10.1948C23.2201 10.1018 23.2487 9.99621 23.249 9.88864C23.2493 9.78108 23.2213 9.67534 23.1678 9.58203L20.5918 6.00003H22.4328L19.2618 1.02303Z" stroke="#474445" stroke-width="1.5" stroke-linecap="round" stroke-linejoin="round"/>
<path d="M18.751 10.5V14.535" stroke="#474445" stroke-width="1.5" stroke-linecap="round" stroke-linejoin="round"/>
<path d="M0.805176 18C3.63075 17.0181 6.70222 17.0012 9.53842 17.952C12.3746 18.9027 14.8153 20.7675 16.4782 23.254" stroke="#474445" stroke-width="1.5" stroke-linecap="round" stroke-linejoin="round"/>
<path d="M10.9688 18.518C13.8862 15.7718 17.7431 14.2449 21.7498 14.25C22.2558 14.25 22.7558 14.2733 23.2498 14.32" stroke="#474445" stroke-width="1.5" stroke-linecap="round" stroke-linejoin="round"/>
</g>
<defs>
<clipPath id="clip0">
<rect width="24" height="24" fill="white"/>
</clipPath>
</defs>
</svg>
