<svg width="24" height="24" viewBox="0 0 24 24" fill="none" xmlns="http://www.w3.org/2000/svg">
<g clip-path="url(#clip0)">
<path d="M7.37422 1.08401C7.30573 0.981292 7.21294 0.89707 7.10409 0.83882C6.99523 0.780569 6.87368 0.750092 6.75022 0.750092C6.62676 0.750092 6.50521 0.780569 6.39636 0.83882C6.28751 0.89707 6.19472 0.981292 6.12622 1.08401L2.25022 7.50001H4.50022L1.60022 11.628C1.53512 11.742 1.50107 11.871 1.50147 12.0023C1.50187 12.1335 1.53671 12.2624 1.6025 12.376C1.6683 12.4895 1.76274 12.5839 1.87641 12.6495C1.99007 12.7151 2.11897 12.7498 2.25022 12.75H11.2502C11.3816 12.75 11.5106 12.7154 11.6244 12.6499C11.7382 12.5843 11.8328 12.49 11.8987 12.3764C11.9646 12.2628 11.9995 12.1339 12 12.0025C12.0004 11.8712 11.9664 11.7421 11.9012 11.628L9.00022 7.50001H11.2502L7.37422 1.08401Z" stroke="#474445" stroke-width="1.5" stroke-linecap="round" stroke-linejoin="round"/>
<path d="M6.75 12.75V17.332" stroke="#474445" stroke-width="1.5" stroke-linecap="round" stroke-linejoin="round"/>
<path d="M19.2618 1.023C19.2057 0.939052 19.1297 0.870236 19.0407 0.822643C18.9516 0.775051 18.8522 0.750153 18.7513 0.750153C18.6503 0.750153 18.5509 0.775051 18.4618 0.822643C18.3728 0.870236 18.2969 0.939052 18.2408 1.023L15.0688 6H16.9098L14.3318 9.582C14.2782 9.6753 14.2502 9.78105 14.2505 9.88861C14.2508 9.99618 14.2794 10.1018 14.3334 10.1948C14.3874 10.2878 14.4649 10.365 14.5582 10.4186C14.6515 10.4721 14.7572 10.5002 14.8648 10.5H22.6348C22.7423 10.5002 22.848 10.4721 22.9413 10.4186C23.0346 10.365 23.1121 10.2878 23.1661 10.1948C23.2201 10.1018 23.2487 9.99618 23.249 9.88861C23.2493 9.78105 23.2213 9.6753 23.1678 9.582L20.5918 6H22.4328L19.2618 1.023Z" stroke="#474445" stroke-width="1.5" stroke-linecap="round" stroke-linejoin="round"/>
<path d="M18.751 10.5V14.535" stroke="#474445" stroke-width="1.5" stroke-linecap="round" stroke-linejoin="round"/>
<path d="M0.805176 18C3.63075 17.0181 6.70222 17.0012 9.53842 17.952C12.3746 18.9027 14.8153 20.7675 16.4782 23.254" stroke="#474445" stroke-width="1.5" stroke-linecap="round" stroke-linejoin="round"/>
<path d="M10.9688 18.518C13.8862 15.7718 17.7431 14.2449 21.7498 14.25C22.2558 14.25 22.7558 14.2733 23.2498 14.32" stroke="#474445" stroke-width="1.5" stroke-linecap="round" stroke-linejoin="round"/>
</g>
<defs>
<clipPath id="clip0">
<rect width="24" height="24" fill="white"/>
</clipPath>
</defs>
</svg>
