<svg width="24" height="24" viewBox="0 0 24 24" fill="none" xmlns="http://www.w3.org/2000/svg">
<path fill-rule="evenodd" clip-rule="evenodd" d="M11.7489 4C10.755 4.00335 6.95329 4.03145 4.29761 4.23019C3.86729 4.28305 2.92964 4.28706 2.09295 5.19376C1.43291 5.88365 1.21872 7.45214 1.21872 7.45214C1.21872 7.45214 1.01747 9.13906 1 10.8982V13.0957C1.01747 14.8549 1.21872 16.5418 1.21872 16.5418C1.21872 16.5418 1.43291 18.1097 2.09295 18.8002C2.92964 19.7069 4.02971 19.6781 4.51956 19.7725C6.12954 19.9324 11.0533 19.9913 11.8803 20H12.2893C13.3485 19.994 17.0829 19.9599 19.7011 19.7638C20.1314 19.7109 21.0691 19.7069 21.9058 18.8002C22.5658 18.1097 22.78 16.5418 22.78 16.5418C22.78 16.5418 23 14.701 23 12.8602V11.1338C23 9.29229 22.78 7.45214 22.78 7.45214C22.78 7.45214 22.5658 5.88365 21.9058 5.19376C21.0691 4.28706 20.1314 4.28305 19.7011 4.23019C17.0454 4.03145 13.2437 4.00335 12.2491 4H11.7489ZM9.72675 8.56008L15.6723 11.7681L9.72804 14.9548L9.72675 8.56008Z" fill="#464646"/>
<mask id="mask0_2844_2715" style="mask-type:alpha" maskUnits="userSpaceOnUse" x="1" y="4" width="22" height="16">
<path fill-rule="evenodd" clip-rule="evenodd" d="M4.29761 4.23019C6.95329 4.03145 10.755 4.00335 11.7489 4H12.2491C13.2437 4.00335 17.0454 4.03145 19.7011 4.23019C19.7434 4.23539 19.7907 4.24012 19.8423 4.24528C20.315 4.29258 21.1514 4.37628 21.9058 5.19376C22.5658 5.88365 22.78 7.45214 22.78 7.45214C22.78 7.45214 23 9.29229 23 11.1338V12.8602C23 14.701 22.78 16.5418 22.78 16.5418C22.78 16.5418 22.5658 18.1097 21.9058 18.8002C21.1514 19.6177 20.315 19.7014 19.8423 19.7487C19.7907 19.7539 19.7434 19.7586 19.7011 19.7638C17.0829 19.9599 13.3485 19.994 12.2893 20H11.8803C11.0533 19.9913 6.12954 19.9324 4.51956 19.7725C4.43619 19.7564 4.33513 19.7439 4.22071 19.7298C3.66287 19.6608 2.78723 19.5526 2.09295 18.8002C1.43291 18.1097 1.21872 16.5418 1.21872 16.5418C1.21872 16.5418 1.01747 14.8549 1 13.0957V10.8982C1.01747 9.13906 1.21872 7.45214 1.21872 7.45214C1.21872 7.45214 1.43291 5.88365 2.09295 5.19376C2.84732 4.37628 3.68375 4.29258 4.15643 4.24528C4.20801 4.24012 4.25526 4.23539 4.29761 4.23019ZM15.6721 11.7681L9.72656 8.56006L9.72786 14.9547L15.6721 11.7681Z" fill="white"/>
</mask>
<g mask="url(#mask0_2844_2715)">
</g>
</svg>
