<svg width="16" height="16" viewBox="0 0 16 16" fill="none" xmlns="http://www.w3.org/2000/svg">
<path fill-rule="evenodd" clip-rule="evenodd" d="M2 0.25C1.0335 0.25 0.25 1.0335 0.25 2V14C0.25 14.9665 1.0335 15.75 2 15.75H9C9.41421 15.75 9.75 15.4142 9.75 15C9.75 14.5858 9.41421 14.25 9 14.25H2C1.86193 14.25 1.75 14.1381 1.75 14V2C1.75 1.86193 1.86193 1.75 2 1.75H14C14.1381 1.75 14.25 1.86193 14.25 2V9C14.25 9.41421 14.5858 9.75 15 9.75C15.4142 9.75 15.75 9.41421 15.75 9V2C15.75 1.0335 14.9665 0.25 14 0.25H2ZM4 3.25C3.58579 3.25 3.25 3.58579 3.25 4V7C3.25 7.41421 3.58579 7.75 4 7.75H12C12.4142 7.75 12.75 7.41421 12.75 7V4C12.75 3.58579 12.4142 3.25 12 3.25H4ZM4.75 6.25V4.75H11.25V6.25H4.75ZM13 10.25C13.4142 10.25 13.75 10.5858 13.75 11V12.25H15C15.4142 12.25 15.75 12.5858 15.75 13C15.75 13.4142 15.4142 13.75 15 13.75H13.75V15C13.75 15.4142 13.4142 15.75 13 15.75C12.5858 15.75 12.25 15.4142 12.25 15V13.75H11C10.5858 13.75 10.25 13.4142 10.25 13C10.25 12.5858 10.5858 12.25 11 12.25H12.25V11C12.25 10.5858 12.5858 10.25 13 10.25ZM3.25 11C3.25 10.5858 3.58579 10.25 4 10.25H9C9.41421 10.25 9.75 10.5858 9.75 11C9.75 11.4142 9.41421 11.75 9 11.75H4C3.58579 11.75 3.25 11.4142 3.25 11Z" fill="#474445"/>
</svg>
