<svg width="16" height="16" viewBox="0 0 16 16" fill="none" xmlns="http://www.w3.org/2000/svg">
<path d="M9.81999 3.91145L4.21006 9.6739C3.95508 9.94507 3.81402 10.3082 3.81727 10.6852C3.82052 11.0621 3.96781 11.4226 4.22742 11.6891C4.48703 11.9556 4.83819 12.1068 5.20527 12.11C5.57234 12.1132 5.92596 11.9682 6.18996 11.7063L11.7993 5.94323C12.0667 5.678 12.28 5.36074 12.4268 5.00996C12.5735 4.65918 12.6507 4.2819 12.654 3.90014C12.6572 3.51838 12.5864 3.13978 12.4456 2.78643C12.3048 2.43309 12.0969 2.11207 11.834 1.84211C11.5711 1.57216 11.2585 1.35867 10.9143 1.2141C10.5702 1.06954 10.2015 0.996791 9.82976 1.00011C9.45798 1.00343 9.09056 1.08274 8.74895 1.23342C8.40734 1.38411 8.09838 1.60314 7.84009 1.87775L2.23015 7.63765C1.4425 8.44645 1 9.54342 1 10.6872C1 11.8311 1.4425 12.928 2.23015 13.7368C3.01781 14.5456 4.0861 15 5.20001 15C6.31392 15 7.38221 14.5456 8.16986 13.7368L15 6.75903" stroke="#71717A" stroke-width="1.5" stroke-linecap="round" stroke-linejoin="round"/>
</svg>
