<svg width="16" height="16" viewBox="0 0 16 16" fill="none" xmlns="http://www.w3.org/2000/svg">
<path fill-rule="evenodd" clip-rule="evenodd" d="M10.6239 1.90556C10.3734 1.80035 10.1058 1.74768 9.83647 1.75008C9.5671 1.75248 9.30037 1.80993 9.05165 1.91963C8.80289 2.02936 8.57655 2.18946 8.38641 2.3916L8.37746 2.40112L2.76746 8.16091C2.76745 8.16092 2.76747 8.1609 2.76746 8.16091C2.1182 8.82762 1.75 9.73603 1.75 10.6872C1.75 11.6385 2.11818 12.5468 2.76746 13.2136C3.41609 13.8796 4.29152 14.25 5.20002 14.25C6.1085 14.25 6.98392 13.8796 7.63255 13.2136C7.63256 13.2136 7.63254 13.2136 7.63255 13.2136L14.4627 6.19948C14.7516 5.90272 15.2265 5.89641 15.5232 6.18538C15.82 6.47436 15.8263 6.94919 15.5373 7.24595L8.70721 14.2601C7.78052 15.2116 6.51935 15.75 5.20002 15.75C3.88068 15.75 2.61953 15.2116 1.69285 14.2601C0.766822 13.3092 0.25 12.0236 0.25 10.6872C0.25 9.35082 0.766822 8.06528 1.69285 7.11439L7.29853 1.35887C7.62402 1.01415 8.01392 0.73793 8.44628 0.547217C8.88079 0.355556 9.34888 0.25437 9.82308 0.250138C10.2973 0.245907 10.7671 0.338726 11.2049 0.522645C11.6426 0.706544 12.0389 0.977561 12.3713 1.31885C12.7036 1.6601 12.9654 2.0648 13.1423 2.50883C13.3192 2.95283 13.408 3.42789 13.404 3.90649C13.3999 4.38509 13.3031 4.85855 13.1187 5.29941C12.9351 5.73814 12.6682 6.13646 12.3324 6.47081L6.71827 12.2388C6.31426 12.6396 5.76884 12.8649 5.1987 12.8599C4.62858 12.8549 4.08728 12.6201 3.6902 12.2125C3.29375 11.8055 3.07219 11.259 3.0673 10.6916C3.06242 10.1243 3.27451 9.57401 3.66367 9.16014L3.67259 9.15065L9.28262 3.38828C9.57156 3.09148 10.0464 3.08511 10.3432 3.37405C10.64 3.66299 10.6463 4.13782 10.3574 4.43462L4.75283 10.1916C4.63426 10.3197 4.56566 10.4941 4.56725 10.6787C4.56885 10.8652 4.64187 11.0397 4.76465 11.1658C4.8868 11.2912 5.04782 11.3586 5.21184 11.36C5.37418 11.3614 5.53446 11.2982 5.65795 11.1776L11.2711 5.41062C11.4678 5.21554 11.6258 4.98118 11.7349 4.72052C11.8439 4.45982 11.9016 4.17872 11.904 3.89379C11.9064 3.60887 11.8535 3.32674 11.7489 3.06404C11.6442 2.80137 11.4902 2.56404 11.2967 2.36537C11.1033 2.16676 10.8744 2.01079 10.6239 1.90556Z" fill="#474445"/>
</svg>
