<svg width="16" height="16" viewBox="0 0 16 16" fill="none" xmlns="http://www.w3.org/2000/svg">
<path fill-rule="evenodd" clip-rule="evenodd" d="M5.74981 3C5.74981 2.30964 6.30945 1.75 6.99981 1.75H8.99981C9.69017 1.75 10.2498 2.30964 10.2498 3V5.25H5.74981V3ZM4.24981 5.25V3C4.24981 1.48122 5.48103 0.25 6.99981 0.25H8.99981C10.5186 0.25 11.7498 1.48122 11.7498 3V5.25H12.2213C13.6158 5.25 14.7895 6.29375 14.9525 7.67869L15.4819 12.1787C15.6742 13.8135 14.3969 15.25 12.7507 15.25H10.9998H4.99981H3.2489C1.60277 15.25 0.325397 13.8135 0.517733 12.1787L1.04715 7.67869C1.21008 6.29375 2.38382 5.25 3.77831 5.25H4.24981ZM4.24981 13.75H3.2489C2.50066 13.75 1.92003 13.0971 2.00746 12.3539L2.53687 7.85395C2.61093 7.22443 3.14445 6.75 3.77831 6.75H4.24981V13.75ZM5.74981 13.75V6.75H10.2498V13.75H5.74981ZM11.7498 13.75H12.7507C13.499 13.75 14.0796 13.0971 13.9922 12.3539L13.4627 7.85395C13.3887 7.22443 12.8552 6.75 12.2213 6.75H11.7498V13.75Z" fill="#767676"/>
</svg>
