<svg width="16" height="16" viewBox="0 0 16 16" fill="none" xmlns="http://www.w3.org/2000/svg">
<path d="M5 15V3.5C5 2.83696 5.31607 2.20107 5.87868 1.73223C6.44129 1.26339 7.20435 1 8 1C8.79565 1 9.55871 1.26339 10.1213 1.73223C10.6839 2.20107 11 2.83696 11 3.5V15M14.0431 8.43348C13.9594 8.02946 13.731 7.66565 13.3968 7.40421C13.0627 7.14276 12.6437 6.99989 12.2113 7H3.78872C3.3563 6.99989 2.93725 7.14276 2.60315 7.40421C2.26905 7.66565 2.04061 8.02946 1.95687 8.43348L1.03534 12.8779C0.981932 13.1356 0.989134 13.4013 1.05643 13.656C1.12373 13.9107 1.24944 14.1481 1.42454 14.351C1.59964 14.5539 1.81977 14.7173 2.06911 14.8296C2.31845 14.9418 2.5908 15 2.86657 15H13.1334C13.4092 15 13.6816 14.9418 13.9309 14.8296C14.1802 14.7173 14.4004 14.5539 14.5755 14.351C14.7506 14.1481 14.8763 13.9107 14.9436 13.656C15.0109 13.4013 15.0181 13.1356 14.9647 12.8779L14.0431 8.43348Z" stroke="#474445" stroke-width="1.5" stroke-linecap="round" stroke-linejoin="round"/>
</svg>
