<svg width="16" height="16" viewBox="0 0 16 16" fill="none" xmlns="http://www.w3.org/2000/svg">
<path fill-rule="evenodd" clip-rule="evenodd" d="M6 1.75C5.86193 1.75 5.75 1.86193 5.75 2V2.75H10.25V2C10.25 1.86193 10.1381 1.75 10 1.75H6ZM11.75 2.75V2C11.75 1.0335 10.9665 0.25 10 0.25H6C5.0335 0.25 4.25 1.0335 4.25 2V2.75H2.50907C2.5036 2.74994 2.49813 2.74994 2.49264 2.75H1C0.585786 2.75 0.25 3.08579 0.25 3.5C0.25 3.91421 0.585786 4.25 1 4.25H1.81239L2.25282 9.31497L2.71311 14.6083C2.76928 15.2542 3.31002 15.75 3.95841 15.75H12.0416C12.69 15.75 13.2307 15.2542 13.2869 14.6083L14.1876 4.25H15C15.4142 4.25 15.75 3.91421 15.75 3.5C15.75 3.08579 15.4142 2.75 15 2.75H13.5074C13.5019 2.74994 13.4964 2.74994 13.4909 2.75H11.75ZM11 4.25H5H3.31805L3.74718 9.18503L4.18761 14.25H11.8124L12.682 4.25H11ZM9.5 6.25C9.91421 6.25 10.25 6.58579 10.25 7V11.5C10.25 11.9142 9.91421 12.25 9.5 12.25C9.08579 12.25 8.75 11.9142 8.75 11.5V7C8.75 6.58579 9.08579 6.25 9.5 6.25ZM7.25 7C7.25 6.58579 6.91421 6.25 6.5 6.25C6.08579 6.25 5.75 6.58579 5.75 7V11.5C5.75 11.9142 6.08579 12.25 6.5 12.25C6.91421 12.25 7.25 11.9142 7.25 11.5V7Z" fill="#767676"/>
</svg>
