<svg width="16" height="16" viewBox="0 0 16 16" fill="none" xmlns="http://www.w3.org/2000/svg">
<path d="M12.5767 14.0827C12.5559 14.3327 12.4419 14.5659 12.2573 14.7358C12.0727 14.9057 11.8309 15 11.58 15H4.42067C4.16975 15 3.92798 14.9057 3.74336 14.7358C3.55874 14.5659 3.44474 14.3327 3.424 14.0827L2.5 3H13.5L12.5767 14.0827Z" stroke="#474445" stroke-width="1.5" stroke-linecap="round" stroke-linejoin="round"/>
<path d="M6.5 11.5V6.5" stroke="#474445" stroke-width="1.5" stroke-linecap="round" stroke-linejoin="round"/>
<path d="M9.5 11.5V6.5" stroke="#474445" stroke-width="1.5" stroke-linecap="round" stroke-linejoin="round"/>
<path d="M1 3H15M5.5 3H10.5M2.5 3H13.5" stroke="#474445" stroke-width="1.5" stroke-linecap="round" stroke-linejoin="round"/>
<path d="M5.5 3V2C5.5 1.73478 5.60536 1.48043 5.79289 1.29289C5.98043 1.10536 6.23478 1 6.5 1H9.5C9.76522 1 10.0196 1.10536 10.2071 1.29289C10.3946 1.48043 10.5 1.73478 10.5 2V3" stroke="#474445" stroke-width="1.5" stroke-linecap="round" stroke-linejoin="round"/>
</svg>
