<svg width="16" height="16" viewBox="0 0 16 16" fill="none" xmlns="http://www.w3.org/2000/svg">
<path fill-rule="evenodd" clip-rule="evenodd" d="M4 0.25C4.41421 0.25 4.75 0.585786 4.75 1V1.25H11.25V1C11.25 0.585786 11.5858 0.25 12 0.25C12.4142 0.25 12.75 0.585786 12.75 1V1.25H14.0667C15.0442 1.25 15.75 2.08308 15.75 3L15.75 6L15.75 14C15.75 14.9169 15.0442 15.75 14.0667 15.75H1.93333C0.955757 15.75 0.25 14.9169 0.25 14V6V3C0.25 2.08308 0.955757 1.25 1.93333 1.25H3.25V1C3.25 0.585786 3.58579 0.25 4 0.25ZM11.25 2.75V3.5C11.25 3.91421 11.5858 4.25 12 4.25C12.4142 4.25 12.75 3.91421 12.75 3.5V2.75H14.0667C14.0999 2.75 14.1395 2.76302 14.1783 2.80463C14.218 2.84713 14.25 2.91439 14.25 3V5.25H1.75V3C1.75 2.91439 1.78199 2.84713 1.82166 2.80463C1.8605 2.76302 1.90015 2.75 1.93333 2.75H3.25V3.5C3.25 3.91421 3.58579 4.25 4 4.25C4.41421 4.25 4.75 3.91421 4.75 3.5V2.75H11.25ZM14.25 6.75V14C14.25 14.0856 14.218 14.1529 14.1783 14.1954C14.1395 14.237 14.0999 14.25 14.0667 14.25H1.93333C1.90015 14.25 1.8605 14.237 1.82166 14.1954C1.78199 14.1529 1.75 14.0856 1.75 14V6.75H14.25ZM3.66665 9.25279C3.91332 9.08797 4.20334 9 4.5 9C4.89782 9 5.27935 9.15803 5.56066 9.43934C5.84197 9.72065 6 10.1022 6 10.5C6 10.7967 5.91203 11.0867 5.7472 11.3334C5.58238 11.58 5.34811 11.7723 5.07403 11.8858C4.79993 11.9994 4.49833 12.0291 4.20736 11.9712C3.9164 11.9133 3.64912 11.7704 3.43934 11.5607C3.22955 11.3509 3.0867 11.0836 3.02882 10.7926C2.97095 10.5017 3.00065 10.2001 3.11418 9.92597C3.22771 9.65189 3.41997 9.41762 3.66665 9.25279ZM11.5 9C11.2033 9 10.9133 9.08797 10.6666 9.25279C10.42 9.41762 10.2277 9.65189 10.1142 9.92597C10.0006 10.2001 9.97095 10.5017 10.0288 10.7926C10.0867 11.0836 10.2296 11.3509 10.4393 11.5607C10.6491 11.7704 10.9164 11.9133 11.2074 11.9712C11.4983 12.0291 11.7999 11.9994 12.074 11.8858C12.3481 11.7723 12.5824 11.58 12.7472 11.3334C12.912 11.0867 13 10.7967 13 10.5C13 10.1022 12.842 9.72065 12.5607 9.43934C12.2794 9.15803 11.8978 9 11.5 9Z" fill="#767676"/>
</svg>
