<svg width="16" height="16" viewBox="0 0 16 16" fill="none" xmlns="http://www.w3.org/2000/svg">
<g clip-path="url(#clip0)">
<path d="M14.0667 2H1.93333C1.41787 2 1 2.44772 1 3V14C1 14.5523 1.41787 15 1.93333 15H14.0667C14.5821 15 15 14.5523 15 14V3C15 2.44772 14.5821 2 14.0667 2Z" stroke="#474445" stroke-width="1.5" stroke-linecap="round" stroke-linejoin="round"/>
<path d="M1 6H15" stroke="#474445" stroke-width="1.5" stroke-linecap="round" stroke-linejoin="round"/>
<path d="M3.25 3.5C3.25 3.91421 3.58579 4.25 4 4.25C4.41421 4.25 4.75 3.91421 4.75 3.5H3.25ZM4.75 1C4.75 0.585786 4.41421 0.25 4 0.25C3.58579 0.25 3.25 0.585786 3.25 1H4.75ZM4.75 3.5V1H3.25V3.5H4.75Z" fill="#474445"/>
<path d="M11.25 3.5C11.25 3.91421 11.5858 4.25 12 4.25C12.4142 4.25 12.75 3.91421 12.75 3.5H11.25ZM12.75 1C12.75 0.585786 12.4142 0.25 12 0.25C11.5858 0.25 11.25 0.585786 11.25 1H12.75ZM12.75 3.5V1H11.25V3.5H12.75Z" fill="#474445"/>
<path fill-rule="evenodd" clip-rule="evenodd" d="M3.66664 9.25279C3.91332 9.08797 4.20334 9 4.5 9C4.89782 9 5.27935 9.15803 5.56066 9.43934C5.84197 9.72065 6 10.1022 6 10.5C6 10.7967 5.91203 11.0867 5.7472 11.3334C5.58238 11.58 5.34811 11.7723 5.07403 11.8858C4.79993 11.9994 4.49833 12.0291 4.20736 11.9712C3.9164 11.9133 3.64912 11.7704 3.43934 11.5607C3.22955 11.3509 3.0867 11.0836 3.02882 10.7926C2.97095 10.5017 3.00065 10.2001 3.11418 9.92597C3.22771 9.65189 3.41997 9.41762 3.66664 9.25279Z" fill="#474445"/>
<path fill-rule="evenodd" clip-rule="evenodd" d="M10.6666 9.25279C10.9133 9.08797 11.2033 9 11.5 9C11.8978 9 12.2794 9.15803 12.5607 9.43934C12.842 9.72065 13 10.1022 13 10.5C13 10.7967 12.912 11.0867 12.7472 11.3334C12.5824 11.58 12.3481 11.7723 12.074 11.8858C11.7999 11.9994 11.4983 12.0291 11.2074 11.9712C10.9164 11.9133 10.6491 11.7704 10.4393 11.5607C10.2296 11.3509 10.0867 11.0836 10.0288 10.7926C9.97095 10.5017 10.0006 10.2001 10.1142 9.92597C10.2277 9.65189 10.42 9.41762 10.6666 9.25279Z" fill="#474445"/>
</g>
<defs>
<clipPath id="clip0">
<rect width="16" height="16" fill="white"/>
</clipPath>
</defs>
</svg>
