<svg width="16" height="16" viewBox="0 0 16 16" fill="none" xmlns="http://www.w3.org/2000/svg">
<path fill-rule="evenodd" clip-rule="evenodd" d="M4 0.25C4.41421 0.25 4.75 0.585786 4.75 1V1.25H11.25V1C11.25 0.585786 11.5858 0.25 12 0.25C12.4142 0.25 12.75 0.585786 12.75 1V1.25H14.0667C15.0442 1.25 15.75 2.08308 15.75 3L15.75 6L15.75 14C15.75 14.9169 15.0442 15.75 14.0667 15.75H1.93333C0.955757 15.75 0.25 14.9169 0.25 14V6V3C0.25 2.08308 0.955757 1.25 1.93333 1.25H3.25V1C3.25 0.585786 3.58579 0.25 4 0.25ZM11.25 2.75V3.5C11.25 3.91421 11.5858 4.25 12 4.25C12.4142 4.25 12.75 3.91421 12.75 3.5V2.75H14.0667C14.0999 2.75 14.1395 2.76302 14.1783 2.80463C14.218 2.84713 14.25 2.91439 14.25 3V5.25H1.75V3C1.75 2.91439 1.78199 2.84713 1.82166 2.80463C1.8605 2.76302 1.90015 2.75 1.93333 2.75H3.25V3.5C3.25 3.91421 3.58579 4.25 4 4.25C4.41421 4.25 4.75 3.91421 4.75 3.5V2.75H11.25ZM14.25 6.75V14C14.25 14.0856 14.218 14.1529 14.1783 14.1954C14.1395 14.237 14.0999 14.25 14.0667 14.25H1.93333C1.90015 14.25 1.8605 14.237 1.82166 14.1954C1.78199 14.1529 1.75 14.0856 1.75 14V6.75H14.25Z" fill="#71717A"/>
<path d="M8 12V9" stroke="#71717A" stroke-width="1.5" stroke-linecap="round" stroke-linejoin="round"/>
<path d="M9 12H7" stroke="#71717A" stroke-width="1.5" stroke-linecap="round" stroke-linejoin="round"/>
<path d="M8 9H7" stroke="#71717A" stroke-width="1.5" stroke-linecap="round" stroke-linejoin="round"/>
</svg>
