<svg width="16" height="16" viewBox="0 0 16 16" fill="none" xmlns="http://www.w3.org/2000/svg">
<path fill-rule="evenodd" clip-rule="evenodd" d="M1.46967 3.53033C1.17678 3.23744 1.17678 2.76256 1.46967 2.46967C1.76256 2.17678 2.23744 2.17678 2.53033 2.46967L7.53033 7.46967C7.82322 7.76256 7.82322 8.23744 7.53033 8.53033L2.53033 13.5303C2.23744 13.8232 1.76256 13.8232 1.46967 13.5303C1.17678 13.2374 1.17678 12.7626 1.46967 12.4697L5.93934 8L1.46967 3.53033ZM8.46967 3.53033C8.17678 3.23744 8.17678 2.76256 8.46967 2.46967C8.76256 2.17678 9.23744 2.17678 9.53033 2.46967L14.5303 7.46967C14.8232 7.76256 14.8232 8.23744 14.5303 8.53033L9.53033 13.5303C9.23744 13.8232 8.76256 13.8232 8.46967 13.5303C8.17678 13.2374 8.17678 12.7626 8.46967 12.4697L12.9393 8L8.46967 3.53033Z" fill="#474445"/>
</svg>
