<svg width="16" height="16" viewBox="0 0 16 16" fill="none" xmlns="http://www.w3.org/2000/svg">
<path fill-rule="evenodd" clip-rule="evenodd" d="M14.5303 3.53033C14.8232 3.23744 14.8232 2.76256 14.5303 2.46967C14.2374 2.17678 13.7626 2.17678 13.4697 2.46967L8.46967 7.46967C8.17678 7.76256 8.17678 8.23744 8.46967 8.53033L13.4697 13.5303C13.7626 13.8232 14.2374 13.8232 14.5303 13.5303C14.8232 13.2374 14.8232 12.7626 14.5303 12.4697L10.0607 8L14.5303 3.53033ZM7.53033 3.53033C7.82322 3.23744 7.82322 2.76256 7.53033 2.46967C7.23744 2.17678 6.76256 2.17678 6.46967 2.46967L1.46967 7.46967C1.17678 7.76256 1.17678 8.23744 1.46967 8.53033L6.46967 13.5303C6.76256 13.8232 7.23744 13.8232 7.53033 13.5303C7.82322 13.2374 7.82322 12.7626 7.53033 12.4697L3.06066 8L7.53033 3.53033Z" fill="#767676"/>
</svg>
