<svg width="16" height="16" viewBox="0 0 16 16" fill="none" xmlns="http://www.w3.org/2000/svg">
<path fill-rule="evenodd" clip-rule="evenodd" d="M1.6998 7.99999C1.6998 4.52059 4.52041 1.69999 7.9998 1.69999C11.4792 1.69999 14.2998 4.52059 14.2998 7.99999C14.2998 11.4794 11.4792 14.3 7.9998 14.3C4.52041 14.3 1.6998 11.4794 1.6998 7.99999ZM7.9998 0.299988C3.74721 0.299988 0.299805 3.7474 0.299805 7.99999C0.299805 12.2526 3.74721 15.7 7.9998 15.7C12.2524 15.7 15.6998 12.2526 15.6998 7.99999C15.6998 3.7474 12.2524 0.299988 7.9998 0.299988ZM8.6998 4.26665C8.6998 3.88005 8.3864 3.56665 7.9998 3.56665C7.6132 3.56665 7.2998 3.88005 7.2998 4.26665V8.93332C7.2998 9.19846 7.44961 9.44084 7.68676 9.55942L10.7979 11.115C11.1437 11.2879 11.5641 11.1477 11.737 10.8019C11.9099 10.4561 11.7697 10.0357 11.424 9.86277L8.6998 8.50069V4.26665Z" fill="#474445"/>
</svg>
