<svg width="16" height="16" viewBox="0 0 16 16" fill="none" xmlns="http://www.w3.org/2000/svg">
<path fill-rule="evenodd" clip-rule="evenodd" d="M9.64134 1.2891C9.17208 -0.429698 6.73416 -0.429699 6.26491 1.2891L5.92397 2.53791C5.88093 2.69554 5.70071 2.77019 5.55882 2.68916L4.43469 2.0472C2.88751 1.16364 1.16364 2.88751 2.0472 4.43469L2.68916 5.55882C2.77019 5.70071 2.69554 5.88093 2.53791 5.92397L1.2891 6.26491C-0.429698 6.73416 -0.429699 9.17208 1.2891 9.64134L2.53791 9.98228C2.69554 10.0253 2.77019 10.2055 2.68916 10.3474L2.0472 11.4716C1.16364 13.0187 2.88751 14.7426 4.43469 13.8591L5.55882 13.2171C5.70071 13.1361 5.88093 13.2107 5.92397 13.3683L6.26491 14.6172C6.73416 16.3359 9.17208 16.3359 9.64134 14.6172L9.98228 13.3683C10.0253 13.2107 10.2055 13.1361 10.3474 13.2171L11.4716 13.8591C13.0187 14.7426 14.7426 13.0187 13.8591 11.4716L13.2171 10.3474C13.1361 10.2055 13.2107 10.0253 13.3683 9.98228L14.6172 9.64134C16.3359 9.17208 16.3359 6.73416 14.6172 6.26491L13.3683 5.92397C13.2107 5.88093 13.1361 5.70071 13.2171 5.55882L13.8591 4.43469C14.7426 2.88751 13.0187 1.16364 11.4716 2.0472L10.3474 2.68916C10.2055 2.77019 10.0253 2.69554 9.98228 2.53791L9.64134 1.2891ZM7.71195 1.68416C7.73337 1.60569 7.76871 1.56761 7.8002 1.5452C7.83738 1.51873 7.89082 1.5 7.95312 1.5C8.01542 1.5 8.06886 1.51873 8.10605 1.5452C8.13754 1.56761 8.17287 1.60569 8.1943 1.68416L8.53524 2.93297C8.83649 4.03642 10.098 4.55896 11.0913 3.99172L12.2154 3.34976C12.286 3.30942 12.338 3.30748 12.3761 3.3139C12.4211 3.32148 12.4721 3.34602 12.5162 3.39008C12.5602 3.43413 12.5848 3.48516 12.5923 3.53017C12.5988 3.56829 12.5968 3.6202 12.5565 3.69083L11.9145 4.81496C11.3473 5.80823 11.8698 7.06975 12.9733 7.37101L14.2221 7.71195C14.3006 7.73337 14.3386 7.76871 14.361 7.8002C14.3875 7.83738 14.4062 7.89082 14.4062 7.95312C14.4062 8.01542 14.3875 8.06886 14.361 8.10605C14.3386 8.13754 14.3006 8.17287 14.2221 8.1943L12.9733 8.53524C11.8698 8.83649 11.3473 10.098 11.9145 11.0913L12.5565 12.2154C12.5968 12.286 12.5988 12.338 12.5923 12.3761C12.5848 12.4211 12.5602 12.4721 12.5162 12.5162C12.4721 12.5602 12.4211 12.5848 12.3761 12.5923C12.338 12.5988 12.286 12.5968 12.2154 12.5565L11.0913 11.9145C10.098 11.3473 8.83649 11.8698 8.53524 12.9733L8.1943 14.2221C8.17287 14.3006 8.13754 14.3386 8.10605 14.361C8.06886 14.3875 8.01542 14.4062 7.95312 14.4062C7.89082 14.4062 7.83738 14.3875 7.8002 14.361C7.76871 14.3386 7.73337 14.3006 7.71195 14.2221L7.37101 12.9733C7.06975 11.8698 5.80823 11.3473 4.81496 11.9145L3.69083 12.5565C3.6202 12.5968 3.56829 12.5988 3.53017 12.5923C3.48516 12.5848 3.43413 12.5602 3.39008 12.5162C3.34602 12.4721 3.32148 12.4211 3.3139 12.3761C3.30748 12.338 3.30942 12.286 3.34976 12.2154L3.99172 11.0913C4.55896 10.098 4.03642 8.83649 2.93297 8.53524L1.68416 8.1943C1.60569 8.17287 1.56761 8.13754 1.5452 8.10605C1.51873 8.06886 1.5 8.01542 1.5 7.95312C1.5 7.89082 1.51873 7.83738 1.5452 7.8002C1.56761 7.76871 1.60569 7.73337 1.68416 7.71195L2.93297 7.37101C4.03642 7.06975 4.55896 5.80823 3.99172 4.81496L3.34976 3.69083C3.30942 3.6202 3.30748 3.56829 3.3139 3.53017C3.32148 3.48516 3.34602 3.43413 3.39008 3.39008C3.43413 3.34602 3.48516 3.32148 3.53017 3.3139C3.56829 3.30748 3.6202 3.30942 3.69083 3.34976L4.81496 3.99172C5.80823 4.55896 7.06975 4.03642 7.37101 2.93297L7.71195 1.68416ZM6.70312 7.95312C6.70312 7.26277 7.26277 6.70312 7.95312 6.70312C8.64348 6.70312 9.20312 7.26277 9.20312 7.95312C9.20312 8.64348 8.64348 9.20312 7.95312 9.20312C7.26277 9.20312 6.70312 8.64348 6.70312 7.95312ZM7.95312 5.20312C6.43434 5.20312 5.20312 6.43434 5.20312 7.95312C5.20312 9.47191 6.43434 10.7031 7.95312 10.7031C9.47191 10.7031 10.7031 9.47191 10.7031 7.95312C10.7031 6.43434 9.47191 5.20312 7.95312 5.20312Z" fill="#767676"/>
</svg>
