<svg width="16" height="16" viewBox="0 0 16 16" fill="none" xmlns="http://www.w3.org/2000/svg">
<path d="M7.09438 2.04823C7.20862 2.17506 7.34822 2.27646 7.50414 2.34587C7.66007 2.41528 7.82884 2.45114 7.99951 2.45114C8.17018 2.45114 8.33895 2.41528 8.49487 2.34587C8.6508 2.27646 8.7904 2.17506 8.90463 2.04823L9.49352 1.40198C9.6623 1.21516 9.88475 1.08516 10.1303 1.02982C10.3759 0.974486 10.6326 0.996521 10.8652 1.0929C11.0978 1.18929 11.2948 1.3553 11.4293 1.56815C11.5638 1.781 11.6291 2.03025 11.6163 2.28171L11.5721 3.15335C11.5635 3.32339 11.5907 3.49333 11.6518 3.65223C11.7129 3.81113 11.8066 3.95547 11.9269 4.07594C12.0472 4.19641 12.1914 4.29035 12.3502 4.35171C12.5089 4.41306 12.6788 4.44047 12.8488 4.43217L13.7203 4.38797C13.9716 4.37558 14.2205 4.44121 14.4331 4.57586C14.6456 4.71051 14.8112 4.9076 14.9073 5.14011C15.0035 5.37262 15.0254 5.62917 14.97 5.8746C14.9146 6.12003 14.7847 6.34233 14.5981 6.51103L13.9494 7.09628C13.8228 7.21069 13.7215 7.3504 13.6523 7.50639C13.583 7.66237 13.5472 7.83116 13.5472 8.00185C13.5472 8.17254 13.583 8.34133 13.6523 8.49731C13.7215 8.6533 13.8228 8.79301 13.9494 8.90742L14.5981 9.49267C14.7849 9.66147 14.9149 9.88395 14.9702 10.1296C15.0255 10.3752 15.0035 10.6319 14.9071 10.8645C14.8107 11.0971 14.6448 11.2942 14.4319 11.4287C14.2191 11.5632 13.9699 11.6285 13.7185 11.6157L12.847 11.5715C12.6766 11.5628 12.5063 11.5899 12.347 11.6511C12.1877 11.7123 12.0431 11.8063 11.9225 11.927C11.8018 12.0476 11.7079 12.1923 11.6467 12.3516C11.5854 12.5108 11.5583 12.6812 11.5671 12.8516L11.6113 13.7232C11.6224 13.9734 11.5563 14.221 11.4219 14.4323C11.2875 14.6436 11.0913 14.8084 10.8599 14.9043C10.6286 15.0001 10.3734 15.0225 10.1289 14.9682C9.88445 14.914 9.66261 14.7858 9.49352 14.6011L8.90775 13.953C8.79341 13.8263 8.65377 13.7251 8.49786 13.6558C8.34195 13.5865 8.17323 13.5507 8.00262 13.5507C7.83201 13.5507 7.66329 13.5865 7.50738 13.6558C7.35147 13.7251 7.21183 13.8263 7.09749 13.953L6.50923 14.6011C6.34041 14.7867 6.11847 14.9157 5.87367 14.9705C5.62888 15.0253 5.37313 15.0033 5.14129 14.9075C4.90946 14.8116 4.71282 14.6466 4.57819 14.4349C4.44356 14.2232 4.37748 13.9751 4.38897 13.7245L4.43379 12.8528C4.44255 12.6824 4.41545 12.5121 4.35423 12.3528C4.29301 12.1935 4.19904 12.0489 4.0784 11.9282C3.95776 11.8076 3.81313 11.7136 3.65388 11.6523C3.49463 11.5911 3.3243 11.564 3.15391 11.5728L2.2824 11.617C2.03109 11.6301 1.78187 11.5651 1.56897 11.4309C1.35607 11.2967 1.18992 11.0999 1.09334 10.8674C0.996757 10.635 0.974472 10.3784 1.02955 10.1328C1.08462 9.88721 1.21435 9.66468 1.40093 9.49578L2.04896 8.91054C2.17561 8.79612 2.27685 8.65641 2.34614 8.50043C2.41543 8.34444 2.45124 8.17565 2.45124 8.00496C2.45124 7.83428 2.41543 7.66549 2.34614 7.5095C2.27685 7.35351 2.17561 7.2138 2.04896 7.09939L1.40093 6.51103C1.21496 6.34231 1.08562 6.12026 1.0306 5.87524C0.975585 5.63021 0.997569 5.37417 1.09355 5.14212C1.18953 4.91006 1.35483 4.71332 1.56684 4.57878C1.77886 4.44424 2.02724 4.37847 2.27804 4.39046L3.14955 4.43466C3.32026 4.44364 3.49095 4.4166 3.65053 4.3553C3.81011 4.29401 3.95502 4.19983 4.07584 4.07887C4.19666 3.95792 4.29068 3.8129 4.35182 3.65324C4.41295 3.49357 4.43981 3.32283 4.43067 3.15211L4.38897 2.27984C4.3772 2.0291 4.44308 1.78083 4.57761 1.56892C4.71214 1.35701 4.90877 1.19177 5.14067 1.09576C5.37256 0.999744 5.62843 0.97763 5.87336 1.03243C6.11829 1.08724 6.34034 1.21629 6.50923 1.40198L7.09438 2.04823Z" stroke="#474445" stroke-width="1.5" stroke-linecap="round" stroke-linejoin="round"/>
<path d="M8 10C9.10457 10 10 9.10457 10 8C10 6.89543 9.10457 6 8 6C6.89543 6 6 6.89543 6 8C6 9.10457 6.89543 10 8 10Z" stroke="#474445" stroke-width="1.5" stroke-linecap="round" stroke-linejoin="round"/>
</svg>
