<svg width="16" height="16" viewBox="0 0 16 16" fill="none" xmlns="http://www.w3.org/2000/svg">
<path fill-rule="evenodd" clip-rule="evenodd" d="M9.68821 1.33597C9.21896 -0.382823 6.78104 -0.382824 6.31178 1.33597L5.97084 2.58478C5.9278 2.74242 5.74759 2.81706 5.60569 2.73603L4.48157 2.09407C2.93438 1.21051 1.21051 2.93438 2.09407 4.48157L2.73603 5.60569C2.81706 5.74759 2.74242 5.9278 2.58478 5.97084L1.33597 6.31178C-0.382823 6.78104 -0.382824 9.21896 1.33597 9.68821L2.58478 10.0292C2.74242 10.0722 2.81706 10.2524 2.73603 10.3943L2.09407 11.5184C1.21051 13.0656 2.93438 14.7895 4.48157 13.9059L5.60569 13.264C5.74759 13.1829 5.9278 13.2576 5.97084 13.4152L6.31178 14.664C6.78104 16.3828 9.21896 16.3828 9.68821 14.664L10.0292 13.4152C10.0722 13.2576 10.2524 13.1829 10.3943 13.264L11.5184 13.9059C13.0656 14.7895 14.7895 13.0656 13.9059 11.5184L13.264 10.3943C13.1829 10.2524 13.2576 10.0722 13.4152 10.0292L14.664 9.68821C16.3828 9.21896 16.3828 6.78104 14.664 6.31178L13.4152 5.97084C13.2576 5.9278 13.1829 5.74759 13.264 5.60569L13.9059 4.48157C14.7895 2.93438 13.0656 1.21051 11.5184 2.09407L10.3943 2.73603C10.2524 2.81706 10.0722 2.74242 10.0292 2.58478L9.68821 1.33597ZM7.75882 1.73103C7.78025 1.65257 7.81558 1.61449 7.84707 1.59207C7.88426 1.56561 7.9377 1.54688 8 1.54688C8.0623 1.54688 8.11574 1.56561 8.15292 1.59207C8.18441 1.61449 8.21975 1.65257 8.24117 1.73103L8.58211 2.97984C8.88337 4.08329 10.1449 4.60583 11.1382 4.03859L12.2623 3.39663C12.3329 3.3563 12.3848 3.35436 12.423 3.36078C12.468 3.36836 12.519 3.3929 12.563 3.43695C12.6071 3.481 12.6316 3.53204 12.6392 3.57704C12.6456 3.61516 12.6437 3.66707 12.6034 3.7377L11.9614 4.86183C11.3942 5.85511 11.9167 7.11663 13.0202 7.41788L14.269 7.75882C14.3474 7.78025 14.3855 7.81558 14.4079 7.84707C14.4344 7.88426 14.4531 7.9377 14.4531 8C14.4531 8.0623 14.4344 8.11574 14.4079 8.15292C14.3855 8.18441 14.3474 8.21975 14.269 8.24117L13.0202 8.58211C11.9167 8.88337 11.3942 10.1449 11.9614 11.1382L12.6034 12.2623C12.6437 12.3329 12.6456 12.3848 12.6392 12.423C12.6316 12.468 12.6071 12.519 12.563 12.563C12.519 12.6071 12.468 12.6316 12.423 12.6392C12.3848 12.6456 12.3329 12.6437 12.2623 12.6034L11.1382 11.9614C10.1449 11.3942 8.88337 11.9167 8.58211 13.0202L8.24117 14.269C8.21975 14.3474 8.18441 14.3855 8.15292 14.4079C8.11574 14.4344 8.0623 14.4531 8 14.4531C7.9377 14.4531 7.88426 14.4344 7.84707 14.4079C7.81558 14.3855 7.78025 14.3474 7.75882 14.269L7.41788 13.0202C7.11663 11.9167 5.85511 11.3942 4.86183 11.9614L3.7377 12.6034C3.66707 12.6437 3.61516 12.6456 3.57704 12.6392C3.53204 12.6316 3.481 12.6071 3.43695 12.563C3.3929 12.519 3.36836 12.468 3.36078 12.423C3.35436 12.3848 3.3563 12.3329 3.39663 12.2623L4.03859 11.1382C4.60583 10.1449 4.08329 8.88337 2.97984 8.58211L1.73103 8.24117C1.65257 8.21975 1.61449 8.18441 1.59207 8.15292C1.56561 8.11574 1.54688 8.0623 1.54688 8C1.54688 7.9377 1.56561 7.88426 1.59207 7.84707C1.61449 7.81558 1.65257 7.78025 1.73103 7.75882L2.97984 7.41788C4.08329 7.11663 4.60583 5.85511 4.03859 4.86183L3.39663 3.7377C3.3563 3.66707 3.35436 3.61516 3.36078 3.57704C3.36836 3.53204 3.3929 3.481 3.43695 3.43695C3.481 3.3929 3.53204 3.36836 3.57704 3.36078C3.61516 3.35436 3.66707 3.3563 3.7377 3.39663L4.86183 4.03859C5.85511 4.60583 7.11663 4.08329 7.41788 2.97984L7.75882 1.73103ZM6.70312 7.95312C6.70312 7.26276 7.26276 6.70312 7.95312 6.70312C8.64348 6.70312 9.20312 7.26276 9.20312 7.95312C9.20312 8.64348 8.64348 9.20312 7.95312 9.20312C7.26276 9.20312 6.70312 8.64348 6.70312 7.95312ZM7.95312 5.20312C6.43434 5.20312 5.20312 6.43434 5.20312 7.95312C5.20312 9.4719 6.43434 10.7031 7.95312 10.7031C9.4719 10.7031 10.7031 9.4719 10.7031 7.95312C10.7031 6.43434 9.4719 5.20312 7.95312 5.20312Z" fill="#767676"/>
</svg>
