<svg width="16" height="16" viewBox="0 0 16 16" fill="none" xmlns="http://www.w3.org/2000/svg">
<circle cx="7.95312" cy="7.95312" r="2" stroke="#71717A" stroke-width="1.5"/>
<path d="M7.03531 1.5335C7.30345 0.551336 8.69655 0.551336 8.96469 1.5335L9.30564 2.78231C9.47778 3.41286 10.1986 3.71145 10.7662 3.38731L11.8904 2.74535C12.7745 2.24046 13.7595 3.22553 13.2546 4.10964L12.6127 5.23376C12.2885 5.80135 12.5871 6.52222 13.2177 6.69436L14.4665 7.03531C15.4487 7.30345 15.4487 8.69655 14.4665 8.96469L13.2177 9.30564C12.5871 9.47778 12.2885 10.1986 12.6127 10.7662L13.2546 11.8904C13.7595 12.7745 12.7745 13.7595 11.8904 13.2546L10.7662 12.6127C10.1986 12.2885 9.47778 12.5871 9.30564 13.2177L8.96469 14.4665C8.69655 15.4487 7.30345 15.4487 7.03531 14.4665L6.69436 13.2177C6.52222 12.5871 5.80135 12.2885 5.23376 12.6127L4.10964 13.2546C3.22553 13.7595 2.24046 12.7745 2.74535 11.8904L3.38731 10.7662C3.71145 10.1986 3.41286 9.47778 2.78231 9.30564L1.5335 8.96469C0.551336 8.69655 0.551336 7.30345 1.5335 7.03531L2.78231 6.69436C3.41286 6.52222 3.71145 5.80135 3.38731 5.23376L2.74535 4.10964C2.24046 3.22553 3.22553 2.24046 4.10964 2.74535L5.23376 3.38731C5.80135 3.71145 6.52222 3.41286 6.69436 2.78231L7.03531 1.5335Z" stroke="#71717A" stroke-width="1.5"/>
</svg>
