<svg width="16" height="16" viewBox="0 0 16 16" fill="none" xmlns="http://www.w3.org/2000/svg">
<path fill-rule="evenodd" clip-rule="evenodd" d="M12.4444 7.77778C12.4444 8.75556 13.2444 9.55556 14.2222 9.55556C14.6937 9.55556 15.1459 9.36825 15.4793 9.03486C15.8127 8.70146 16 8.24927 16 7.77778C16 7.30628 15.8127 6.8541 15.4793 6.5207C15.1459 6.1873 14.6937 6 14.2222 6C13.7507 6 13.2985 6.1873 12.9651 6.5207C12.6317 6.8541 12.4444 7.30628 12.4444 7.77778ZM9.77778 7.77778C9.77778 7.30628 9.59048 6.8541 9.25708 6.5207C8.92368 6.1873 8.4715 6 8 6C7.5285 6 7.07632 6.1873 6.74292 6.5207C6.40952 6.8541 6.22222 7.30628 6.22222 7.77778C6.22222 8.75556 7.02222 9.55556 8 9.55556C8.4715 9.55556 8.92368 9.36825 9.25708 9.03486C9.59048 8.70146 9.77778 8.24927 9.77778 7.77778ZM3.55556 7.77778C3.55556 7.30628 3.36825 6.8541 3.03486 6.5207C2.70146 6.1873 2.24927 6 1.77778 6C1.30628 6 0.854097 6.1873 0.520699 6.5207C0.187301 6.8541 0 7.30628 0 7.77778C0 8.75556 0.8 9.55556 1.77778 9.55556C2.24927 9.55556 2.70146 9.36825 3.03486 9.03486C3.36825 8.70146 3.55556 8.24927 3.55556 7.77778Z" fill="#474445"/>
</svg>
