<svg width="16" height="16" viewBox="0 0 16 16" fill="none" xmlns="http://www.w3.org/2000/svg">
<path fill-rule="evenodd" clip-rule="evenodd" d="M8.75 1C8.75 0.585786 8.41421 0.25 8 0.25C7.58579 0.25 7.25 0.585786 7.25 1V10.4395L5.96852 9.41435C5.64507 9.15559 5.17311 9.20803 4.91435 9.53148C4.65559 9.85493 4.70803 10.3269 5.03148 10.5857L7.53148 12.5857C7.80539 12.8048 8.19461 12.8048 8.46852 12.5857L10.9685 10.5857C11.292 10.3269 11.3444 9.85493 11.0857 9.53148C10.8269 9.20803 10.3549 9.15559 10.0315 9.41435L8.75 10.4395V1ZM1 14.25C0.585786 14.25 0.25 14.5858 0.25 15C0.25 15.4142 0.585786 15.75 1 15.75H15C15.4142 15.75 15.75 15.4142 15.75 15C15.75 14.5858 15.4142 14.25 15 14.25H1Z" fill="#767676"/>
</svg>
