<svg width="16" height="16" viewBox="0 0 16 16" fill="none" xmlns="http://www.w3.org/2000/svg">
<path d="M14.34 1.65976C14.1281 1.44871 13.8764 1.28175 13.5996 1.16852C13.3227 1.05528 13.0262 0.998027 12.7271 1.00005C12.428 1.00208 12.1323 1.06334 11.857 1.18031C11.5817 1.29728 11.3323 1.46764 11.1232 1.68154L2.1013 10.7036L1 15L5.29631 13.8981L14.3183 4.87598C14.5322 4.667 14.7026 4.41768 14.8196 4.14244C14.9366 3.8672 14.9979 3.57149 14.9999 3.27241C15.002 2.97334 14.9447 2.67683 14.8314 2.40003C14.7182 2.12322 14.5511 1.87162 14.34 1.65976V1.65976Z" stroke="#71717A" stroke-width="1.5" stroke-linecap="round" stroke-linejoin="round"/>
</svg>
