<svg width="16" height="16" viewBox="0 0 16 16" fill="none" xmlns="http://www.w3.org/2000/svg">
<path fill-rule="evenodd" clip-rule="evenodd" d="M12.722 0.250069C13.1202 0.247373 13.515 0.323597 13.8835 0.474338C14.2521 0.625078 14.5871 0.847348 14.8693 1.12831L14.8713 1.13038C15.1524 1.41245 15.3748 1.74744 15.5256 2.11598C15.6764 2.48452 15.7526 2.8793 15.7499 3.27749C15.7473 3.67569 15.6656 4.06939 15.5099 4.43586C15.3547 4.80087 15.129 5.13164 14.8457 5.4092L5.82666 14.4284C5.73164 14.5234 5.61283 14.5912 5.48266 14.6245L1.18635 15.7265C0.929601 15.7923 0.657162 15.7178 0.469724 15.5304C0.282287 15.343 0.20769 15.0705 0.273505 14.8138L1.3748 10.5174C1.40818 10.3872 1.47594 10.2683 1.57098 10.1733L10.5901 1.154C10.8678 0.870793 11.1986 0.645158 11.5637 0.490043C11.9302 0.334326 12.3239 0.252765 12.722 0.250069ZM13.3157 1.8627C13.1305 1.78697 12.9322 1.74868 12.7322 1.75003C12.5322 1.75139 12.3344 1.79236 12.1503 1.87059C11.9662 1.94881 11.7994 2.06274 11.6596 2.20578L11.6536 2.2119L2.77684 11.0888L2.04119 13.9587L4.91115 13.2226L13.7942 4.33941C13.9372 4.19969 14.0512 4.03304 14.1294 3.84902C14.2077 3.665 14.2486 3.46729 14.25 3.26734C14.2513 3.06738 14.213 2.86914 14.1373 2.68407C14.0618 2.49945 13.9505 2.3316 13.8098 2.19018C13.6683 2.04953 13.5003 1.93823 13.3157 1.8627Z" fill="#767676"/>
</svg>
