<svg width="16" height="16" viewBox="0 0 16 16" fill="none" xmlns="http://www.w3.org/2000/svg">
<path fill-rule="evenodd" clip-rule="evenodd" d="M0.80025 3.59338C2.18056 1.25683 4.36203 1.25 4.85597 1.25C5.56342 1.25 6.53621 1.47219 7.77461 2.47026L7.79168 2.48402L8.00619 2.67864L8.24264 2.46997L8.26931 2.45033C9.32781 1.67074 10.0771 1.25 11.1449 1.25C12.1293 1.25 13.9421 1.61173 15.1385 3.5862C16.1253 5.21488 15.9206 7.3385 14.5053 8.84036C14.2153 9.14813 13.8479 9.51318 13.2133 10.1437C12.8458 10.5089 12.3888 10.963 11.8052 11.5466C11.5553 11.7966 11.263 12.0837 10.9482 12.393C10.9167 12.4239 10.8851 12.455 10.8532 12.4863C10.501 12.8323 10.1217 13.2054 9.73598 13.5913C9.6472 13.6801 9.55768 13.7725 9.47018 13.8628C9.29751 14.0411 9.13275 14.2112 8.9972 14.3292C8.75085 14.5437 8.43006 14.75 7.98049 14.75C7.63196 14.75 7.3393 14.561 7.19517 14.4608C7.01225 14.3336 6.83058 14.173 6.67164 14.0215C6.4511 13.8114 6.21328 13.5572 6.05063 13.3834C5.9883 13.3167 5.93701 13.2619 5.90196 13.2259C5.58092 12.896 5.23518 12.5474 4.89202 12.2014C4.57538 11.8821 4.26093 11.5651 3.9701 11.267C3.09087 10.3657 2.43511 9.70577 2.02741 9.29546C1.80064 9.06725 1.65062 8.91627 1.58157 8.84396C0.325761 7.52885 -0.262437 5.39227 0.80025 3.59338ZM4.85162 2.75C4.47216 2.74998 3.04073 2.74988 2.09173 4.35632C1.45217 5.43896 1.75352 6.85204 2.66641 7.80804C2.7353 7.88018 2.87626 8.02195 3.09181 8.23873C3.4868 8.63599 4.13228 9.28516 5.0438 10.2195C5.28593 10.4677 5.60886 10.7936 5.93991 11.1278C6.30908 11.5004 6.68837 11.8832 6.97701 12.1798C7.0457 12.2504 7.11853 12.3284 7.19585 12.4112C7.34756 12.5737 7.51671 12.7548 7.70649 12.9357C7.82346 13.0472 7.92638 13.1365 8.0104 13.1995L8.01219 13.1979C8.0761 13.1423 8.15402 13.065 8.26836 12.9473C8.29473 12.9201 8.32286 12.891 8.35265 12.8602C8.44525 12.7645 8.55383 12.6521 8.67518 12.5307C9.06614 12.1397 9.44966 11.7624 9.80198 11.4163C9.8337 11.3851 9.86514 11.3542 9.89631 11.3236C10.2125 11.013 10.4997 10.7309 10.7445 10.4861C11.3528 9.87771 11.8188 9.41465 12.1869 9.04893C12.799 8.44082 13.1402 8.10185 13.4137 7.81163C14.3793 6.78688 14.4836 5.39987 13.8556 4.36351C13.0162 2.97818 11.7931 2.75 11.1449 2.75C10.5853 2.75 10.1695 2.91619 9.18528 3.63867L7.99237 4.69143L6.81668 3.62478C5.82791 2.83273 5.18657 2.75 4.85597 2.75L4.85162 2.75Z" fill="#474445"/>
</svg>
