<svg width="16" height="16" viewBox="0 0 16 16" fill="none" xmlns="http://www.w3.org/2000/svg">
<path d="M8.00192 14.5L2.03453 7.89202C1.50834 7.32482 1.16331 6.60745 1.04523 5.83511C0.927142 5.06277 1.04159 4.27198 1.37337 3.56769V3.56769C1.60856 3.04197 1.96611 2.58313 2.41478 2.23127C2.86344 1.87941 3.38958 1.64523 3.9472 1.54919C4.50483 1.45315 5.07697 1.49819 5.61365 1.68035C6.15032 1.86251 6.63519 2.17627 7.02588 2.59419L8.00192 3.62929L8.97625 2.59506C9.36682 2.17747 9.85146 1.86399 10.3878 1.68198C10.9242 1.49997 11.496 1.45497 12.0533 1.55091C12.6106 1.64685 13.1365 1.88081 13.585 2.23236C14.0335 2.58392 14.391 3.04237 14.6262 3.56769V3.56769C14.9583 4.27177 15.0729 5.0625 14.9548 5.83477C14.8367 6.60704 14.4915 7.32428 13.9651 7.89116L8.00192 14.5Z" stroke="#71717A" stroke-width="1.5" stroke-linecap="round" stroke-linejoin="round"/>
</svg>
