<svg width="16" height="16" viewBox="0 0 16 16" fill="none" xmlns="http://www.w3.org/2000/svg">
<path fill-rule="evenodd" clip-rule="evenodd" d="M7.9805 14C8.36628 14 8.58423 13.6825 9.20559 13.061C9.9823 12.2841 10.7311 11.5602 11.2749 11.0163C12.8803 9.41065 13.5115 8.80137 13.9595 8.326C15.15 7.06269 15.3044 5.30737 14.4971 3.97485C13.4792 2.29495 11.9612 2 11.1449 2C10.3287 2 9.74499 2.29495 8.71408 3.05422L7.99929 3.68504L7.30399 3.05422C6.18567 2.15293 5.37593 2 4.85598 2C4.42263 2 2.61249 2.00026 1.446 3.97485C0.594872 5.41562 1.03965 7.19044 2.124 8.326C2.31816 8.52933 3.11836 9.31987 4.50696 10.7432C5.06604 11.3163 5.85713 12.1044 6.43952 12.7029C6.76947 13.042 7.59471 14 7.9805 14Z" stroke="#474445" stroke-width="1.5"/>
</svg>
