<svg width="16" height="16" viewBox="0 0 16 16" fill="none" xmlns="http://www.w3.org/2000/svg">
<path d="M8 7.5C8.82843 7.5 9.5 6.82843 9.5 6C9.5 5.17157 8.82843 4.5 8 4.5C7.17157 4.5 6.5 5.17157 6.5 6C6.5 6.82843 7.17157 7.5 8 7.5Z" stroke="#71717A" stroke-width="1.5" stroke-linecap="round" stroke-linejoin="round"/>
<path d="M8.00033 9C7.44779 9 6.91789 9.21949 6.52719 9.61019C6.13649 10.0009 6 10.5308 6 11.0833V11.5H6.75033L7.16699 15H8.83366L9.25033 11.5H10V11.0833C10 10.5308 9.86417 10.0009 9.47346 9.61019C9.08276 9.21949 8.55286 9 8.00033 9Z" stroke="#71717A" stroke-width="1.5" stroke-linecap="round" stroke-linejoin="round"/>
<path d="M15 6L8.58124 1.41517C8.23354 1.16681 7.76646 1.16681 7.41876 1.41517L1 6" stroke="#71717A" stroke-width="1.5" stroke-linecap="round" stroke-linejoin="round"/>
<path d="M4 15H3C2.44772 15 2 14.5523 2 14V8.5" stroke="#71717A" stroke-width="1.5" stroke-linecap="round" stroke-linejoin="round"/>
<path d="M12 15H13C13.5523 15 14 14.5523 14 14V8.5" stroke="#71717A" stroke-width="1.5" stroke-linecap="round" stroke-linejoin="round"/>
</svg>
