<svg width="16" height="16" viewBox="0 0 16 16" fill="none" xmlns="http://www.w3.org/2000/svg">
<g clip-path="url(#clip0_148_294)">
<path fill-rule="evenodd" clip-rule="evenodd" d="M8 14.25C11.4518 14.25 14.25 11.4518 14.25 8C14.25 4.54822 11.4518 1.75 8 1.75C4.54822 1.75 1.75 4.54822 1.75 8C1.75 11.4518 4.54822 14.25 8 14.25ZM15.75 8C15.75 12.2802 12.2802 15.75 8 15.75C3.71979 15.75 0.249999 12.2802 0.25 8C0.25 3.71979 3.71979 0.249998 8 0.249998C12.2802 0.249999 15.75 3.71979 15.75 8ZM8 12.75C7.58579 12.75 7.25 12.4142 7.25 12L7.25 8C7.25 7.58579 7.58579 7.25 8 7.25C8.41421 7.25 8.75 7.58579 8.75 8L8.75 12C8.75 12.4142 8.41421 12.75 8 12.75ZM8 4C7.44771 4 7 4.44772 7 5C7 5.55229 7.44771 6 8 6C8.55228 6 9 5.55229 9 5C9 4.44772 8.55228 4 8 4Z" fill="#767676"/>
</g>
<defs>
<clipPath id="clip0_148_294">
<rect width="16" height="16" fill="white" transform="translate(16 16) rotate(-180)"/>
</clipPath>
</defs>
</svg>
