<svg width="16" height="16" viewBox="0 0 16 16" fill="none" xmlns="http://www.w3.org/2000/svg">
<path d="M8.90721 13.062C10.1217 13.0618 11.2864 12.5792 12.1452 11.7204C13.0039 10.8615 13.4863 9.69677 13.4863 8.48225C13.4863 1.84067 5.4943 5.24993 1.64665 2.05653C1.60536 2.02561 1.55641 2.00656 1.50508 2.00141C1.45376 1.99627 1.402 2.00523 1.3554 2.02734C1.30807 2.04715 1.26652 2.07861 1.23463 2.1188C1.20273 2.15898 1.18153 2.20659 1.17299 2.25718C-0.00173771 9.13589 5.06199 13.062 8.90721 13.062Z" stroke="#474445" stroke-width="1.36808" stroke-linecap="round" stroke-linejoin="round"/>
<path d="M7.07474 7.25766C8.97191 7.77916 10.9404 8.30053 12.5 9.5L15 12" stroke="#474445" stroke-width="1.36808" stroke-linecap="round" stroke-linejoin="round"/>
</svg>
