<svg width="16" height="16" viewBox="0 0 16 16" fill="none" xmlns="http://www.w3.org/2000/svg">
<path d="M8.90694 13.062V13.746H8.90703L8.90694 13.062ZM13.4861 8.48225H12.802H13.4861ZM1.64638 2.05653L2.08325 1.53016C2.07446 1.52287 2.06549 1.51579 2.05635 1.50895L1.64638 2.05653ZM1.35513 2.02734L1.6192 2.65835C1.629 2.65426 1.6387 2.64993 1.64829 2.64538L1.35513 2.02734ZM1.17272 2.25718L1.847 2.37233L1.84722 2.37106L1.17272 2.25718ZM8.90703 13.746C10.3029 13.7458 11.6416 13.1912 12.6286 12.2041L11.6612 11.2367C10.9307 11.9673 9.93996 12.3778 8.90685 12.3779L8.90703 13.746ZM12.6286 12.2041C13.6156 11.2169 14.1701 9.87817 14.1701 8.48225H12.802C12.802 9.51536 12.3917 10.5062 11.6612 11.2367L12.6286 12.2041ZM14.1701 8.48225C14.1701 6.67121 13.6164 5.42165 12.6111 4.59662C11.6498 3.80767 10.3703 3.49147 9.11195 3.30006C8.47486 3.20316 7.8069 3.13397 7.15894 3.06197C6.50349 2.98913 5.86135 2.91275 5.24123 2.80066C3.99439 2.57529 2.91099 2.21716 2.08325 1.53016L1.20952 2.58289C2.3056 3.4926 3.66407 3.90584 4.99789 4.14693C5.6681 4.26807 6.35099 4.34869 7.00785 4.42168C7.6722 4.4955 8.30385 4.56096 8.90623 4.65259C10.1268 4.83824 11.0858 5.1146 11.7432 5.65415C12.3567 6.15763 12.802 6.9725 12.802 8.48225H14.1701ZM2.05635 1.50895C1.91537 1.4034 1.74826 1.33834 1.57302 1.32078L1.43661 2.68204C1.36403 2.67477 1.29481 2.64782 1.23642 2.6041L2.05635 1.50895ZM1.57302 1.32078C1.39779 1.30322 1.22109 1.33383 1.06197 1.4093L1.64829 2.64538C1.58239 2.67664 1.5092 2.68932 1.43661 2.68204L1.57302 1.32078ZM1.09106 1.39633C0.937249 1.4607 0.802221 1.56294 0.69856 1.69356L1.77016 2.54404C1.73029 2.59427 1.67836 2.6336 1.6192 2.65835L1.09106 1.39633ZM0.69856 1.69356C0.594894 1.82418 0.525984 1.97889 0.498227 2.1433L1.84722 2.37106C1.83654 2.43428 1.81004 2.49379 1.77016 2.54404L0.69856 1.69356ZM0.498443 2.14203C-0.751051 9.45855 4.65851 13.746 8.90694 13.746L8.90694 12.3779C5.46493 12.3779 0.747042 8.81323 1.847 2.37233L0.498443 2.14203Z" fill="#767676"/>
<path d="M12.5001 9.5L12.9838 9.01631C12.9629 8.99537 12.9406 8.97582 12.9171 8.95777L12.5001 9.5ZM14.5164 12.4837C14.7836 12.7508 15.2167 12.7508 15.4838 12.4837C15.7509 12.2166 15.7509 11.7834 15.4838 11.5163L14.5164 12.4837ZM7.29598 6.60903C6.93169 6.50894 6.55524 6.72311 6.45515 7.08739C6.35506 7.45168 6.56923 7.82813 6.93352 7.92822L7.29598 6.60903ZM12.0164 9.98369L14.5164 12.4837L15.4838 11.5163L12.9838 9.01631L12.0164 9.98369ZM6.93352 7.92822C8.849 8.45452 10.6604 8.94809 12.0831 10.0422L12.9171 8.95777C11.2424 7.66978 9.15016 7.11848 7.29598 6.60903L6.93352 7.92822Z" fill="#767676"/>
</svg>
