<svg width="16" height="16" viewBox="0 0 16 16" fill="none" xmlns="http://www.w3.org/2000/svg">
<path d="M7.07472 7.25766C8.97188 7.77916 10.9403 8.30053 12.5 9.5L15 12M8.90694 13.062C10.1215 13.0618 11.2862 12.5792 12.1449 11.7204C13.0036 10.8615 13.4861 9.69677 13.4861 8.48225C13.4861 1.84067 5.49403 5.24993 1.64638 2.05653C1.60509 2.02561 1.55614 2.00656 1.50482 2.00141C1.45349 1.99627 1.40174 2.00523 1.35513 2.02734C1.3078 2.04715 1.26626 2.07861 1.23436 2.1188C1.20247 2.15898 1.18126 2.20659 1.17272 2.25718C-0.00200434 9.13589 5.06172 13.062 8.90694 13.062Z" stroke="#767676" stroke-width="1.36808" stroke-linecap="round" stroke-linejoin="round"/>
</svg>
