<svg width="16" height="16" viewBox="0 0 16 16" fill="none" xmlns="http://www.w3.org/2000/svg">
<path fill-rule="evenodd" clip-rule="evenodd" d="M5.33333 1.44444H15.1111C15.3469 1.44444 15.573 1.5381 15.7397 1.70479C15.9064 1.87149 16 2.09759 16 2.33333C16 2.56908 15.9064 2.79517 15.7397 2.96187C15.573 3.12857 15.3469 3.22222 15.1111 3.22222H5.33333C5.09759 3.22222 4.87149 3.12857 4.70479 2.96187C4.5381 2.79517 4.44444 2.56908 4.44444 2.33333C4.44444 2.09759 4.5381 1.87149 4.70479 1.70479C4.87149 1.5381 5.09759 1.44444 5.33333 1.44444ZM5.33333 6.77778H15.1111C15.3469 6.77778 15.573 6.87143 15.7397 7.03813C15.9064 7.20483 16 7.43092 16 7.66667C16 7.90241 15.9064 8.12851 15.7397 8.29521C15.573 8.46191 15.3469 8.55556 15.1111 8.55556H5.33333C5.09759 8.55556 4.87149 8.46191 4.70479 8.29521C4.5381 8.12851 4.44444 7.90241 4.44444 7.66667C4.44444 7.43092 4.5381 7.20483 4.70479 7.03813C4.87149 6.87143 5.09759 6.77778 5.33333 6.77778ZM5.33333 12.1111H15.1111C15.3469 12.1111 15.573 12.2048 15.7397 12.3715C15.9064 12.5382 16 12.7643 16 13C16 13.2357 15.9064 13.4618 15.7397 13.6285C15.573 13.7952 15.3469 13.8889 15.1111 13.8889H5.33333C5.09759 13.8889 4.87149 13.7952 4.70479 13.6285C4.5381 13.4618 4.44444 13.2357 4.44444 13C4.44444 12.7643 4.5381 12.5382 4.70479 12.3715C4.87149 12.2048 5.09759 12.1111 5.33333 12.1111ZM1.33333 6.33333C1.68696 6.33333 2.02609 6.47381 2.27614 6.72386C2.52619 6.97391 2.66667 7.31304 2.66667 7.66667C2.66667 8.02029 2.52619 8.35943 2.27614 8.60948C2.02609 8.85952 1.68696 9 1.33333 9C0.979711 9 0.640573 8.85952 0.390524 8.60948C0.140476 8.35943 0 8.02029 0 7.66667C0 7.31304 0.140476 6.97391 0.390524 6.72386C0.640573 6.47381 0.979711 6.33333 1.33333 6.33333ZM1.33333 11.6667C1.68696 11.6667 2.02609 11.8071 2.27614 12.0572C2.52619 12.3072 2.66667 12.6464 2.66667 13C2.66667 13.3536 2.52619 13.6928 2.27614 13.9428C2.02609 14.1929 1.68696 14.3333 1.33333 14.3333C0.979711 14.3333 0.640573 14.1929 0.390524 13.9428C0.140476 13.6928 0 13.3536 0 13C0 12.6464 0.140476 12.3072 0.390524 12.0572C0.640573 11.8071 0.979711 11.6667 1.33333 11.6667ZM1.33333 1C1.68696 1 2.02609 1.14048 2.27614 1.39052C2.52619 1.64057 2.66667 1.97971 2.66667 2.33333C2.66667 2.68696 2.52619 3.02609 2.27614 3.27614C2.02609 3.52619 1.68696 3.66667 1.33333 3.66667C0.979711 3.66667 0.640573 3.52619 0.390524 3.27614C0.140476 3.02609 0 2.68696 0 2.33333C0 1.97971 0.140476 1.64057 0.390524 1.39052C0.640573 1.14048 0.979711 1 1.33333 1Z" fill="#474445"/>
</svg>
