<svg width="16" height="16" viewBox="0 0 16 16" fill="none" xmlns="http://www.w3.org/2000/svg">
<path d="M8 1C9.06087 1 10.0783 1.40657 10.8284 2.13026C11.5786 2.85395 12 3.83549 12 4.85894C12 6.71752 8.95881 10.8772 8.18015 11.9119C8.1594 11.9392 8.13227 11.9614 8.10098 11.9767C8.06968 11.992 8.03509 12 8 12C7.96491 12 7.93032 11.992 7.89902 11.9767C7.86773 11.9614 7.8406 11.9392 7.81985 11.9119C7.04119 10.8772 4 6.71752 4 4.85894C4 3.83549 4.42143 2.85395 5.17157 2.13026C5.92172 1.40657 6.93913 1 8 1V1Z" stroke="#71717A" stroke-width="1.5" stroke-linecap="round" stroke-linejoin="round"/>
<path d="M2.57852 10.6259C1.59189 11.0876 1 11.6778 1 12.3208C1 13.8005 4.13401 15 8 15C11.866 15 15 13.8005 15 12.3208C15 11.6778 14.4081 11.0876 13.4215 10.6259" stroke="#71717A" stroke-width="1.5" stroke-linecap="round" stroke-linejoin="round"/>
</svg>
