<svg width="16" height="16" viewBox="0 0 16 16" fill="none" xmlns="http://www.w3.org/2000/svg">
<path fill-rule="evenodd" clip-rule="evenodd" d="M8.22222 16C6.88889 16 2 10.6667 2 6.22222C2 5.40511 2.16094 4.596 2.47364 3.84108C2.78633 3.08617 3.24466 2.40023 3.82245 1.82245C4.40023 1.24466 5.08617 0.786334 5.84108 0.473638C6.596 0.160942 7.40511 0 8.22222 0C9.03934 0 9.84845 0.160942 10.6034 0.473638C11.3583 0.786334 12.0442 1.24466 12.622 1.82245C13.1998 2.40023 13.6581 3.08617 13.9708 3.84108C14.2835 4.596 14.4444 5.40511 14.4444 6.22222C14.4444 10.6667 9.55556 16 8.22222 16ZM8.22222 8.44444C8.81159 8.44444 9.37682 8.21032 9.79357 7.79357C10.2103 7.37682 10.4444 6.81159 10.4444 6.22222C10.4444 5.63285 10.2103 5.06762 9.79357 4.65087C9.37682 4.23413 8.81159 4 8.22222 4C7.63285 4 7.06762 4.23413 6.65087 4.65087C6.23413 5.06762 6 5.63285 6 6.22222C6 6.81159 6.23413 7.37682 6.65087 7.79357C7.06762 8.21032 7.63285 8.44444 8.22222 8.44444Z" fill="#71717A"/>
</svg>
