<svg width="16" height="16" viewBox="0 0 16 16" fill="none" xmlns="http://www.w3.org/2000/svg">
<path fill-rule="evenodd" clip-rule="evenodd" d="M8 1.75C4.54822 1.75 1.75 4.54822 1.75 8C1.75 11.4518 4.54822 14.25 8 14.25C11.4518 14.25 14.25 11.4518 14.25 8C14.25 4.54822 11.4518 1.75 8 1.75ZM0.25 8C0.25 3.71979 3.71979 0.25 8 0.25C12.2802 0.25 15.75 3.71979 15.75 8C15.75 12.2802 12.2802 15.75 8 15.75C3.71979 15.75 0.25 12.2802 0.25 8ZM8.0909 4.75325C7.84874 4.73803 7.6093 4.78404 7.40012 4.88244C7.1912 4.98073 7.02581 5.12474 6.91479 5.29058C6.80433 5.45559 6.75004 5.63803 6.75 5.81852C6.74991 6.23273 6.41406 6.56845 5.99984 6.56836C5.58563 6.56827 5.24991 6.23241 5.25 5.8182C5.2501 5.33201 5.39753 4.86063 5.66831 4.45614C5.93853 4.0525 6.31924 3.73324 6.76158 3.52514C7.20367 3.31716 7.69561 3.22544 8.185 3.25621C8.67441 3.28697 9.15031 3.43957 9.56049 3.70332C9.97106 3.96732 10.3036 4.33518 10.5124 4.77359C10.7217 5.21291 10.7958 5.70092 10.7224 6.18175C10.6491 6.66212 10.4331 7.10677 10.1077 7.46923C9.783 7.83104 9.36224 8.09723 8.89618 8.24704C8.83671 8.26616 8.79723 8.2978 8.77549 8.32577C8.75471 8.35251 8.74999 8.37507 8.75 8.39022V8.39066V9.50003C8.75 9.91424 8.41421 10.25 8 10.25C7.58579 10.25 7.25 9.91424 7.25 9.50003V8.39109V8.39085V8.39066C7.24989 8.02979 7.37328 7.68553 7.59121 7.40518C7.80828 7.12594 8.10652 6.92528 8.43716 6.819C8.66245 6.74658 8.85255 6.62204 8.99142 6.46731C9.12971 6.31324 9.21214 6.13544 9.23961 5.95545C9.267 5.77593 9.24033 5.5911 9.15819 5.41865C9.07561 5.24528 8.93734 5.08597 8.74922 4.96501C8.56071 4.84379 8.33304 4.76847 8.0909 4.75325ZM8.0002 13.1C8.44202 13.1 8.8002 12.7418 8.8002 12.3C8.8002 11.8582 8.44202 11.5 8.0002 11.5C7.55837 11.5 7.2002 11.8582 7.2002 12.3C7.2002 12.7418 7.55837 13.1 8.0002 13.1Z" fill="#474445"/>
</svg>
