<svg width="16" height="16" viewBox="0 0 16 16" fill="none" xmlns="http://www.w3.org/2000/svg">
<path d="M6 5.76449C6.00007 5.44095 6.10093 5.12366 6.29155 4.84729C6.48217 4.57092 6.75522 4.3461 7.08085 4.19741C7.40649 4.04873 7.77218 3.98189 8.13795 4.0042C8.50372 4.02652 8.85551 4.13713 9.15486 4.32395C9.4542 4.51077 9.68959 4.7666 9.83529 5.06349C9.981 5.36039 10.0314 5.68691 9.98102 6.00737C9.93063 6.32784 9.78138 6.62991 9.54958 6.88058C9.31778 7.13126 9.01235 7.32088 8.66667 7.42872C8.47161 7.48957 8.30275 7.60231 8.18335 7.7514C8.06395 7.90048 7.99989 8.07857 8 8.26113V9" stroke="#71717A" stroke-width="1.5" stroke-linecap="round" stroke-linejoin="round"/>
<path d="M8 12V12.5001" stroke="#71717A" stroke-width="1.5" stroke-linecap="round" stroke-linejoin="round"/>
<path d="M8 15C11.866 15 15 11.866 15 8C15 4.13401 11.866 1 8 1C4.13401 1 1 4.13401 1 8C1 11.866 4.13401 15 8 15Z" stroke="#71717A" stroke-width="1.5" stroke-miterlimit="10"/>
</svg>
