<svg width="16" height="16" viewBox="0 0 16 16" fill="none" xmlns="http://www.w3.org/2000/svg">
<path d="M6 5.81836C6.00007 5.48502 6.10093 5.15811 6.29155 4.87336C6.48217 4.58862 6.75522 4.35699 7.08085 4.20379C7.40649 4.0506 7.77218 3.98174 8.13795 4.00473C8.50372 4.02772 8.85551 4.14168 9.15486 4.33416C9.4542 4.52664 9.68959 4.79023 9.83529 5.09612C9.981 5.40201 10.0314 5.73842 9.98102 6.0686C9.93063 6.39878 9.78138 6.71001 9.54958 6.96827C9.31778 7.22654 9.01235 7.42191 8.66667 7.53302C8.47161 7.59572 8.30275 7.71187 8.18335 7.86547C8.06395 8.01908 7.99989 8.20257 8 8.39066V9.50003" stroke="#474445" stroke-width="1.5" stroke-linecap="round" stroke-linejoin="round"/>
<path d="M8 15C11.866 15 15 11.866 15 8C15 4.13401 11.866 1 8 1C4.13401 1 1 4.13401 1 8C1 11.866 4.13401 15 8 15Z" stroke="#474445" stroke-width="1.5" stroke-miterlimit="10"/>
<circle cx="8.0002" cy="12.3" r="0.8" fill="#474445"/>
</svg>
