<svg width="16" height="16" viewBox="0 0 16 16" fill="none" xmlns="http://www.w3.org/2000/svg">
<path fill-rule="evenodd" clip-rule="evenodd" d="M3.88076 15.4126C3.32242 15.7005 2.66986 15.2355 2.7765 14.6256L3.5632 10.1262L0.230663 6.93969C-0.221039 6.50778 0.0282156 5.75528 0.652452 5.6663L5.25791 5.00985L7.31753 0.916153C7.5967 0.361282 8.4033 0.361282 8.68247 0.916153L10.7421 5.00985L15.3475 5.6663C15.9718 5.75528 16.221 6.50778 15.7693 6.93969L12.4368 10.1262L13.2235 14.6256C13.3301 15.2355 12.6776 15.7005 12.1192 15.4126L8 13.2883L3.88076 15.4126ZM8 11.6005L11.4862 13.3984L10.8213 9.59556L13.6057 6.93318L9.75442 6.38423L8 2.89715L6.24558 6.38423L2.39433 6.93318L5.17874 9.59556L4.51382 13.3984L8 11.6005Z" fill="#0063FB"/>
</svg>
