<svg width="16" height="16" viewBox="0 0 16 16" fill="none" xmlns="http://www.w3.org/2000/svg">
<path fill-rule="evenodd" clip-rule="evenodd" d="M2.7765 14.6256C2.66986 15.2355 3.32242 15.7005 3.88076 15.4126L8 13.2883L12.1192 15.4126C12.6776 15.7005 13.3301 15.2355 13.2235 14.6256L12.4368 10.1262L15.7693 6.93969C16.221 6.50778 15.9718 5.75528 15.3475 5.6663L10.7421 5.00985L8.68247 0.916153C8.54289 0.638718 8.27144 0.5 8 0.5C7.72856 0.5 7.45711 0.638718 7.31753 0.916153L5.25791 5.00985L0.652452 5.6663C0.0282156 5.75528 -0.221039 6.50778 0.230663 6.93969L3.5632 10.1262L2.7765 14.6256ZM8 11.6005L11.4862 13.3984L10.8213 9.59556L13.6057 6.93318L9.75442 6.38423L8 2.89715V11.6005Z" fill="#0063FB"/>
</svg>
