<svg width="16" height="16" viewBox="0 0 16 16" fill="none" xmlns="http://www.w3.org/2000/svg">
<path fill-rule="evenodd" clip-rule="evenodd" d="M2.03146 8.50197C0.965605 5.99402 2.13465 3.09688 4.6426 2.03103C7.15055 0.965178 10.0477 2.13423 11.1135 4.64218C12.1794 7.15013 11.0104 10.0473 8.5024 11.1131C5.99445 12.179 3.09731 11.0099 2.03146 8.50197ZM4.05591 0.65053C0.785526 2.04041 -0.738921 5.81829 0.650957 9.08867C2.04084 12.3591 5.81872 13.8835 9.0891 12.4936C9.62932 12.264 10.1219 11.9693 10.5616 11.6224L14.4695 15.5303C14.7624 15.8232 15.2372 15.8232 15.5301 15.5303C15.823 15.2374 15.823 14.7626 15.5301 14.4697L11.622 10.5616C13.0304 8.77563 13.4464 6.29641 12.494 4.05548C11.1042 0.7851 7.32629 -0.739349 4.05591 0.65053Z" fill="#474445"/>
</svg>
