<svg width="16" height="16" viewBox="0 0 16 16" fill="none" xmlns="http://www.w3.org/2000/svg">
<path fill-rule="evenodd" clip-rule="evenodd" d="M15.5762 4.48013C15.8079 4.20199 15.8079 3.79798 15.5762 3.51985L13.0762 0.51985C12.811 0.201642 12.3381 0.158649 12.0199 0.423822C11.7017 0.688995 11.6587 1.16192 11.9238 1.48013L13.3987 3.24999H10C8.48122 3.24999 7.25 4.4812 7.25 5.99999L7.25 8.66665C7.25 9.08087 7.58579 9.41665 8 9.41665C8.41421 9.41666 8.75 9.08087 8.75 8.66666V5.99999C8.75 5.30963 9.30964 4.74999 10 4.74999L13.3987 4.74999L11.9238 6.51985C11.6587 6.83806 11.7017 7.31098 12.0199 7.57615C12.3381 7.84133 12.811 7.79833 13.0762 7.48013L15.5762 4.48013ZM1.75 2.99999C1.75 2.30963 2.30964 1.74999 3 1.74999H6.00008C6.41429 1.74999 6.75008 1.4142 6.75008 0.999988C6.75008 0.585775 6.41429 0.249988 6.00008 0.249988H3C1.48122 0.249988 0.25 1.48121 0.25 2.99999V13C0.25 14.5188 1.48122 15.75 3 15.75H13C14.5188 15.75 15.75 14.5188 15.75 13V8.99999C15.75 8.58577 15.4142 8.24999 15 8.24999C14.5858 8.24999 14.25 8.58577 14.25 8.99999V13C14.25 13.6903 13.6904 14.25 13 14.25H3C2.30964 14.25 1.75 13.6903 1.75 13V2.99999Z" fill="#474445"/>
</svg>
