<svg width="16" height="16" viewBox="0 0 16 16" fill="none" xmlns="http://www.w3.org/2000/svg">
<path d="M11 15.75C11.4142 15.75 11.75 15.4142 11.75 15C11.75 14.5858 11.4142 14.25 11 14.25V15.75ZM13.1333 5.75C13.7022 5.75 14.25 6.26007 14.25 7H15.75C15.75 5.53079 14.6264 4.25 13.1333 4.25V5.75ZM14.25 7V13H15.75V7H14.25ZM14.25 13C14.25 13.7399 13.7022 14.25 13.1333 14.25V15.75C14.6264 15.75 15.75 14.4692 15.75 13H14.25ZM13.1333 14.25H2.86667V15.75H13.1333V14.25ZM2.86667 14.25C2.29785 14.25 1.75 13.7399 1.75 13H0.25C0.25 14.4692 1.37362 15.75 2.86667 15.75V14.25ZM1.75 13V7H0.25V13H1.75ZM1.75 7C1.75 6.26007 2.29785 5.75 2.86667 5.75V4.25C1.37362 4.25 0.25 5.53079 0.25 7H1.75ZM5 4.25H2.86667V5.75H5V4.25ZM2.86667 15.75H5V14.25H2.86667V15.75ZM5 15.75H11V14.25H5V15.75ZM11 4.25H5V5.75H11V4.25ZM11 5.75H13.1333V4.25H11V5.75Z" fill="#474445"/>
<path d="M4.25 15C4.25 15.4142 4.58579 15.75 5 15.75C5.41421 15.75 5.75 15.4142 5.75 15H4.25ZM10.25 15C10.25 15.4142 10.5858 15.75 11 15.75C11.4142 15.75 11.75 15.4142 11.75 15H10.25ZM6.5 1.75H9.5V0.25H6.5V1.75ZM9.5 1.75C9.91421 1.75 10.25 2.08579 10.25 2.5H11.75C11.75 1.25736 10.7426 0.25 9.5 0.25V1.75ZM5.75 2.5C5.75 2.08579 6.08579 1.75 6.5 1.75V0.25C5.25736 0.25 4.25 1.25736 4.25 2.5H5.75ZM5.75 15V5H4.25V15H5.75ZM4.25 2.5V5H5.75V2.5H4.25ZM11.75 15V5H10.25V15H11.75ZM10.25 2.5V5H11.75V2.5H10.25Z" fill="#474445"/>
</svg>
