<svg width="16" height="16" viewBox="0 0 16 16" fill="none" xmlns="http://www.w3.org/2000/svg">
<path fill-rule="evenodd" clip-rule="evenodd" d="M5.75 2.5C5.75 2.08579 6.08579 1.75 6.5 1.75H9.5C9.91421 1.75 10.25 2.08579 10.25 2.5V4.25H5.75V2.5ZM4.25 4.25V2.5C4.25 1.25736 5.25736 0.25 6.5 0.25H9.5C10.7426 0.25 11.75 1.25736 11.75 2.5V4.25H13.1333C14.6264 4.25 15.75 5.53079 15.75 7V13C15.75 14.4692 14.6264 15.75 13.1333 15.75H11H5H2.86667C1.37362 15.75 0.25 14.4692 0.25 13V7C0.25 5.53079 1.37362 4.25 2.86667 4.25H4.25ZM4.25 14.25H2.86667C2.29785 14.25 1.75 13.7399 1.75 13V7C1.75 6.26007 2.29785 5.75 2.86667 5.75H4.25V14.25ZM5.75 14.25V5.75H10.25V14.25H5.75ZM11.75 14.25H13.1333C13.7022 14.25 14.25 13.7399 14.25 13V7C14.25 6.26007 13.7022 5.75 13.1333 5.75H11.75V14.25Z" fill="#474445"/>
</svg>
