<svg width="16" height="16" viewBox="0 0 16 16" fill="none" xmlns="http://www.w3.org/2000/svg">
<path d="M8 10.7778V4.11108" stroke="#0063FB" stroke-width="1.5" stroke-linecap="round"/>
<path d="M8 11.8889L7.50173 12.4494C7.78589 12.702 8.21411 12.702 8.49827 12.4494L8 11.8889ZM4.74827 7.99498C4.43869 7.7198 3.96463 7.74768 3.68944 8.05727C3.41425 8.36686 3.44214 8.84091 3.75173 9.1161L4.74827 7.99498ZM12.2483 9.1161C12.5579 8.84091 12.5857 8.36686 12.3106 8.05727C12.0354 7.74768 11.5613 7.7198 11.2517 7.99499L12.2483 9.1161ZM8.49827 11.3283L4.74827 7.99498L3.75173 9.1161L7.50173 12.4494L8.49827 11.3283ZM8.49827 12.4494L12.2483 9.1161L11.2517 7.99499L7.50173 11.3283L8.49827 12.4494Z" fill="#0063FB"/>
</svg>
