<svg width="16" height="16" viewBox="0 0 16 16" fill="none" xmlns="http://www.w3.org/2000/svg">
<path d="M8 5.22219V11.8889" stroke="#0063FB" stroke-width="1.5" stroke-linecap="round"/>
<path d="M8 4.11106L7.50173 3.55051C7.78589 3.29792 8.21411 3.29792 8.49827 3.55051L8 4.11106ZM4.74827 8.00495C4.43869 8.28014 3.96463 8.25226 3.68944 7.94267C3.41425 7.63308 3.44214 7.15903 3.75173 6.88384L4.74827 8.00495ZM12.2483 6.88384C12.5579 7.15903 12.5857 7.63308 12.3106 7.94267C12.0354 8.25226 11.5613 8.28014 11.2517 8.00495L12.2483 6.88384ZM8.49827 4.67162L4.74827 8.00495L3.75173 6.88384L7.50173 3.55051L8.49827 4.67162ZM8.49827 3.55051L12.2483 6.88384L11.2517 8.00495L7.50173 4.67162L8.49827 3.55051Z" fill="#0063FB"/>
</svg>
