<svg width="16" height="16" viewBox="0 0 16 16" fill="none" xmlns="http://www.w3.org/2000/svg">
<path d="M11.5 14C10.6716 14 10 13.3284 10 12.5C10 11.6716 10.6716 11 11.5 11C12.3284 11 13 11.6716 13 12.5C13 13.3284 12.3284 14 11.5 14Z" stroke="#767676" stroke-width="1.5" stroke-linecap="round" stroke-linejoin="round"/>
<path d="M4.5 14C3.67157 14 3 13.3284 3 12.5C3 11.6716 3.67157 11 4.5 11C5.32843 11 6 11.6716 6 12.5C6 13.3284 5.32843 14 4.5 14Z" stroke="#767676" stroke-width="1.5" stroke-linecap="round" stroke-linejoin="round"/>
<path d="M10 12H6" stroke="#767676" stroke-width="1.5" stroke-linecap="round" stroke-linejoin="round"/>
<path d="M3 12H1.5" stroke="#767676" stroke-width="1.5" stroke-linecap="round" stroke-linejoin="round"/>
<path d="M10.75 12C10.75 12.4142 10.4142 12.75 10 12.75C9.58579 12.75 9.25 12.4142 9.25 12H10.75ZM1.5 2.75C1.08579 2.75 0.75 2.41421 0.75 2C0.75 1.58579 1.08579 1.25 1.5 1.25V2.75ZM9.25 12V4H10.75V12H9.25ZM8 2.75H1.5V1.25H8V2.75ZM9.25 4C9.25 3.30964 8.69036 2.75 8 2.75V1.25C9.51878 1.25 10.75 2.48122 10.75 4H9.25Z" fill="#767676"/>
<path d="M7 4.25C7.41421 4.25 7.75 4.58579 7.75 5C7.75 5.41421 7.41421 5.75 7 5.75V4.25ZM1 5.75C0.585786 5.75 0.25 5.41421 0.25 5C0.25 4.58579 0.585786 4.25 1 4.25V5.75ZM7 5.75H1V4.25H7V5.75Z" fill="#767676"/>
<path d="M7 7.25C7.41421 7.25 7.75 7.58579 7.75 8C7.75 8.41421 7.41421 8.75 7 8.75V7.25ZM4.00016 8.75C3.58595 8.75 3.25016 8.41421 3.25016 8C3.25016 7.58579 3.58595 7.25 4.00016 7.25V8.75ZM7 8.75H4.00016V7.25H7V8.75Z" fill="#767676"/>
<path d="M13.1251 11.7916H14.5C14.7761 11.7916 15 11.5677 15 11.2916V8.99162C15 8.79403 14.8836 8.61497 14.7031 8.53471L13.5 8.00001L12.614 5.34189C12.5459 5.13772 12.3548 5 12.1396 5H10" stroke="#767676" stroke-width="1.5" stroke-linecap="round" stroke-linejoin="round"/>
</svg>
