<svg width="16" height="16" viewBox="0 0 16 16" fill="none" xmlns="http://www.w3.org/2000/svg">
<path d="M8 10V6" stroke="#474445" stroke-width="1.5" stroke-miterlimit="10" stroke-linecap="round"/>
<path d="M9.00862 1.6283C8.91602 1.43978 8.77243 1.28098 8.59415 1.16992C8.41587 1.05887 8.21004 1 8 1C7.78996 1 7.58413 1.05887 7.40585 1.16992C7.22757 1.28098 7.08398 1.43978 6.99138 1.6283L1.09707 13.6361C1.02612 13.7804 0.993122 13.9404 1.00119 14.1011C1.00926 14.2617 1.05814 14.4176 1.1432 14.5541C1.22826 14.6906 1.3467 14.8032 1.48735 14.8812C1.62799 14.9592 1.7862 15.0001 1.94703 15H14.053C14.2138 15.0001 14.372 14.9592 14.5127 14.8812C14.6533 14.8032 14.7717 14.6906 14.8568 14.5541C14.9419 14.4176 14.9907 14.2617 14.9988 14.1011C15.0069 13.9404 14.9739 13.7804 14.9029 13.6361L9.00862 1.6283Z" stroke="#474445" stroke-width="1.5" stroke-linecap="round" stroke-linejoin="round"/>
<circle cx="8.0002" cy="12.3" r="0.8" fill="#474445"/>
</svg>
