<svg width="16" height="16" viewBox="0 0 16 16" fill="none" xmlns="http://www.w3.org/2000/svg">
<g clip-path="url(#clip0_148:296)">
<path fill-rule="evenodd" clip-rule="evenodd" d="M8.49028 1.93716C8.20703 1.38871 7.41949 1.39815 7.14947 1.95323L1.57057 13.4218C1.32824 13.9199 1.69103 14.4998 2.245 14.4998H7.78378H13.747C14.3088 14.4998 14.6712 13.9049 14.4133 13.4057L8.49028 1.93716ZM5.8006 1.29707C6.61067 -0.368186 8.97326 -0.396513 9.82303 1.24884L15.7461 12.7174C16.5195 14.2149 15.4325 15.9998 13.747 15.9998H7.78378H2.245C0.583086 15.9998 -0.505291 14.2601 0.221699 12.7656L5.8006 1.29707ZM8.0289 4.64283C8.44311 4.64283 8.7789 4.97861 8.7789 5.39283V9.00001C8.7789 9.41422 8.44311 9.75001 8.0289 9.75001C7.61469 9.75001 7.2789 9.41422 7.2789 9.00001V5.39283C7.2789 4.97861 7.61469 4.64283 8.0289 4.64283ZM8 13C8.55228 13 9 12.5523 9 12C9 11.4477 8.55228 11 8 11C7.44772 11 7 11.4477 7 12C7 12.5523 7.44772 13 8 13Z" fill="#767676"/>
</g>
<defs>
<clipPath id="clip0_148:296">
<rect width="16" height="16" fill="white"/>
</clipPath>
</defs>
</svg>
