<svg width="16" height="16" viewBox="0 0 16 16" fill="none" xmlns="http://www.w3.org/2000/svg">
<path fill-rule="evenodd" clip-rule="evenodd" d="M7.25 15C7.25 15.4142 7.58579 15.75 8 15.75C8.41421 15.75 8.75 15.4142 8.75 15L8.75 5.56047L10.0315 6.58565C10.3549 6.84441 10.8269 6.79197 11.0857 6.46852C11.3444 6.14507 11.292 5.6731 10.9685 5.41435L8.46852 3.41435C8.19461 3.19522 7.80539 3.19522 7.53148 3.41435L5.03148 5.41435C4.70803 5.6731 4.65559 6.14507 4.91435 6.46852C5.17311 6.79197 5.64508 6.84441 5.96852 6.58565L7.25 5.56047L7.25 15ZM15 1.75C15.4142 1.75 15.75 1.41421 15.75 1C15.75 0.585787 15.4142 0.25 15 0.25L0.999999 0.249999C0.585786 0.249999 0.249999 0.585785 0.249999 0.999999C0.249999 1.41421 0.585786 1.75 0.999999 1.75L15 1.75Z" fill="#767676"/>
</svg>
