<svg width="16" height="16" viewBox="0 0 16 16" fill="none" xmlns="http://www.w3.org/2000/svg">
<path d="M5.5 7C6.88071 7 8 5.88071 8 4.5C8 3.11929 6.88071 2 5.5 2C4.11929 2 3 3.11929 3 4.5C3 5.88071 4.11929 7 5.5 7Z" stroke="#767676" stroke-width="1.5" stroke-linecap="round" stroke-linejoin="round"/>
<path d="M11.5 7.5C12.3284 7.5 13 6.82843 13 6C13 5.17157 12.3284 4.5 11.5 4.5C10.6716 4.5 10 5.17157 10 6C10 6.82843 10.6716 7.5 11.5 7.5Z" stroke="#767676" stroke-width="1.5" stroke-linecap="round" stroke-linejoin="round"/>
<path d="M1 14C1 12.8065 1.47411 11.6619 2.31802 10.818C3.16193 9.97411 4.30653 9.5 5.5 9.5C6.69347 9.5 7.83807 9.97411 8.68198 10.818C9.52589 11.6619 10 12.8065 10 14" stroke="#767676" stroke-width="1.5" stroke-linecap="round" stroke-linejoin="round"/>
<path d="M14.9576 14V13.682C14.9573 13.0886 14.8137 12.5042 14.539 11.9783C14.2642 11.4524 13.8666 11.0006 13.3798 10.6614C12.8929 10.3222 12.3314 10.1056 11.7429 10.03C11.4617 9.9939 11.1784 9.99049 10.8984 10.0192" stroke="#767676" stroke-width="1.5" stroke-linecap="round" stroke-linejoin="round"/>
</svg>
