<svg width="16" height="16" viewBox="0 0 16 16" fill="none" xmlns="http://www.w3.org/2000/svg">
<path d="M2.92836 10.8409C1.79861 8.85457 1.14521 6.61087 1.0206 4.3042C1.00033 3.929 1.20918 3.58197 1.54153 3.40667L7.53345 0.246091C7.82542 0.0920859 8.17458 0.0920859 8.46655 0.246091L14.4585 3.40667C14.7908 3.58197 14.9997 3.929 14.9794 4.3042C14.8548 6.61087 14.2014 8.85457 13.0716 10.8409C11.9407 12.8293 10.3696 14.4948 8.4964 15.6965C8.19367 15.8907 7.80633 15.8907 7.5036 15.6965C5.63044 14.4948 4.05926 12.8293 2.92836 10.8409Z" fill="#0063FB"/>
<path d="M5.5 8.5L7.5 10L11.5 6" stroke="white" stroke-width="1.5" stroke-linecap="round" stroke-linejoin="round"/>
</svg>
