<svg width="48" height="48" viewBox="0 0 48 48" fill="none" xmlns="http://www.w3.org/2000/svg">
<path d="M15 19C18.3137 19 21 16.3137 21 13C21 9.68629 18.3137 7 15 7C11.6863 7 9 9.68629 9 13C9 16.3137 11.6863 19 15 19Z" stroke="#71717A" stroke-width="2" stroke-linecap="round" stroke-linejoin="round"/>
<path d="M43 41L32.0924 23.2012C31.8505 22.8361 31.5234 22.5358 31.1394 22.3265C30.7555 22.1172 30.3264 22.0052 29.8895 22.0002C29.4525 21.9952 29.021 22.0974 28.6324 22.2979C28.2438 22.4984 27.91 22.7911 27.6599 23.1506L20.5218 33.3834L16.0972 29.8225C15.8068 29.589 15.4711 29.4187 15.1115 29.3225C14.7519 29.2262 14.3763 29.2061 14.0085 29.2634C13.6407 29.3208 13.2889 29.4543 12.9753 29.6554C12.6618 29.8566 12.3934 30.1211 12.1873 30.432L5 41" stroke="#71717A" stroke-width="2" stroke-linecap="round" stroke-linejoin="round"/>
</svg>
