<svg width="16" height="16" viewBox="0 0 16 16" fill="none" xmlns="http://www.w3.org/2000/svg">
<path d="M15 6.72271L8.16988 13.7368C7.38222 14.5456 6.31393 15 5.20002 15C4.0861 15 3.01781 14.5456 2.23016 13.7368C1.4425 12.928 1 11.8311 1 10.6872C1 9.54342 1.4425 8.44645 2.23016 7.63765L7.8401 1.87775C8.09839 1.60314 8.40736 1.38411 8.74897 1.23342C9.09058 1.08274 9.45799 1.00343 9.82977 1.00011C10.2016 0.996791 10.5703 1.06954 10.9144 1.2141C11.2585 1.35867 11.5711 1.57216 11.834 1.84211C12.0969 2.11207 12.3048 2.43309 12.4456 2.78643C12.5864 3.13978 12.6572 3.51838 12.654 3.90014C12.6508 4.2819 12.5735 4.65918 12.4268 5.00996C12.28 5.36074 12.0667 5.678 11.7993 5.94323L6.18997 11.7063C5.92597 11.9682 5.57235 12.1132 5.20527 12.11C4.8382 12.1068 4.48704 11.9556 4.22743 11.6891C3.96781 11.4226 3.82052 11.0621 3.81728 10.6852C3.81403 10.3082 3.95508 9.94507 4.21006 9.6739L9.82001 3.91145" stroke="black" stroke-width="1.5" stroke-linecap="round" stroke-linejoin="round"/>
</svg>
