<svg width="16" height="16" viewBox="0 0 16 16" fill="none" xmlns="http://www.w3.org/2000/svg">
<path d="M6 5.81834C6.00007 5.485 6.10093 5.1581 6.29155 4.87335C6.48217 4.5886 6.75522 4.35697 7.08085 4.20378C7.40649 4.05058 7.77218 3.98172 8.13795 4.00471C8.50372 4.0277 8.85551 4.14167 9.15486 4.33415C9.4542 4.52663 9.68959 4.79022 9.83529 5.0961C9.981 5.40199 10.0314 5.73841 9.98102 6.06859C9.93063 6.39876 9.78138 6.70999 9.54958 6.96826C9.31778 7.22653 9.01235 7.42189 8.66667 7.53301C8.47161 7.5957 8.30275 7.71186 8.18335 7.86546C8.06395 8.01906 7.99989 8.20255 8 8.39064V9.50002" stroke="black" stroke-width="1.5" stroke-linecap="round" stroke-linejoin="round"/>
<path d="M8 15C11.866 15 15 11.866 15 8C15 4.13401 11.866 1 8 1C4.13401 1 1 4.13401 1 8C1 11.866 4.13401 15 8 15Z" stroke="black" stroke-width="1.5" stroke-miterlimit="10"/>
<circle cx="7.99995" cy="12.3" r="0.8" fill="black"/>
</svg>
