<svg width="42" height="28" viewBox="0 0 42 28" fill="none" xmlns="http://www.w3.org/2000/svg">
<path d="M4.89898 1L5.49006 0.193387C5.31859 0.0677397 5.11155 4.76837e-07 4.89898 4.76837e-07V1ZM1 1V4.76837e-07C0.641735 4.76837e-07 0.310844 0.191658 0.13258 0.502425C-0.0456842 0.813191 -0.0440797 1.19558 0.136786 1.50484L1 1ZM6.89838 11.0856L6.03516 11.5904C6.03876 11.5965 6.04241 11.6026 6.04614 11.6087L6.89838 11.0856ZM10.3576 13V12C10.3483 12 10.3391 12.0001 10.3298 12.0004L10.3576 13ZM15.5 14C16.0523 14 16.5 13.5523 16.5 13C16.5 12.4477 16.0523 12 15.5 12V14ZM10.3576 5L9.76648 5.80661C9.93794 5.93226 10.145 6 10.3576 6V5ZM27 12C26.4477 12 26 12.4477 26 13C26 13.5523 26.4477 14 27 14V12ZM4.89898 4.76837e-07H1V2H4.89898V4.76837e-07ZM0.136786 1.50484L6.03516 11.5904L7.76159 10.5807L1.86321 0.495163L0.136786 1.50484ZM6.04614 11.6087C6.50467 12.3557 7.14305 12.9715 7.90346 13.3924L8.87191 11.6425C8.42035 11.3926 8.03279 11.0221 7.75062 10.5624L6.04614 11.6087ZM7.90346 13.3924C8.66422 13.8134 9.51928 14.0237 10.3853 13.9996L10.3298 12.0004C9.82505 12.0144 9.32312 11.8922 8.87191 11.6425L7.90346 13.3924ZM10.3576 14H15.5V12H10.3576V14ZM37 12H27V14H37V12ZM10.9486 4.19339L5.49006 0.193387L4.3079 1.80661L9.76648 5.80661L10.9486 4.19339ZM40 9C40 10.6569 38.6569 12 37 12V14C39.7614 14 42 11.7614 42 9H40ZM37 6C38.6569 6 40 7.34315 40 9H42C42 6.23858 39.7614 4 37 4V6ZM37 4H10.3576V6H37V4Z" fill="#6F7D90"/>
<path d="M15 13L14.3861 12.2106C14.1425 12.4001 14 12.6914 14 13C14 13.3086 14.1425 13.5999 14.3861 13.7894L15 13ZM17.5714 11V10C17.3491 10 17.133 10.0741 16.9575 10.2106L17.5714 11ZM27 11H28C28 10.4477 27.5523 10 27 10V11ZM27 15V16C27.5523 16 28 15.5523 28 15H27ZM17.5714 15L16.9575 15.7894C17.133 15.9259 17.3491 16 17.5714 16V15ZM15.6139 13.7894L18.1854 11.7894L16.9575 10.2106L14.3861 12.2106L15.6139 13.7894ZM17.5714 12H27V10H17.5714V12ZM26 11V15H28V11H26ZM27 14H17.5714V16H27V14ZM18.1854 14.2106L15.6139 12.2106L14.3861 13.7894L16.9575 15.7894L18.1854 14.2106Z" fill="#6F7D90"/>
<path d="M9 10C9.55228 10 10 9.55228 10 9C10 8.44772 9.55228 8 9 8V10ZM2 8C1.44772 8 1 8.44772 1 9C1 9.55228 1.44772 10 2 10V8ZM9 8H2V10H9V8Z" fill="#6F7D90"/>
<path d="M31.0005 27V26H31.0002L31.0005 27ZM33.1522 21.9107L32.4345 22.6071C32.6835 22.8636 33.0504 22.9677 33.397 22.8802C33.7435 22.7927 34.0171 22.5269 34.1144 22.183L33.1522 21.9107ZM36.9997 27L36.9999 26H36.9997V27ZM31.0002 26C30.6701 26.0001 30.3451 25.9184 30.0542 25.7623L29.1084 27.5246C29.6903 27.8368 30.3404 28.0002 31.0007 28L31.0002 26ZM30.0542 25.7623C29.7633 25.6062 29.5156 25.3805 29.3331 25.1053L27.6662 26.2105C28.0311 26.7608 28.5266 27.2123 29.1084 27.5246L30.0542 25.7623ZM29.3331 25.1053C29.1507 24.8301 29.0392 24.514 29.0086 24.1852L27.0172 24.3704C27.0783 25.0279 27.3013 25.6601 27.6662 26.2105L29.3331 25.1053ZM29.0086 24.1852C28.978 23.8564 29.0293 23.5252 29.1579 23.221L27.3158 22.4422C27.0586 23.0504 26.956 23.7129 27.0172 24.3704L29.0086 24.1852ZM29.1579 23.221C29.2865 22.9169 29.4884 22.6494 29.7455 22.4423L28.491 20.8847C27.9767 21.2989 27.5729 21.834 27.3158 22.4422L29.1579 23.221ZM29.7455 22.4423C30.0026 22.2352 30.307 22.095 30.6314 22.0342L30.2631 20.0684C29.6141 20.19 29.0052 20.4704 28.491 20.8847L29.7455 22.4423ZM30.6314 22.0342C30.9559 21.9734 31.2904 21.9939 31.605 22.0939L32.2106 20.1877C31.5812 19.9878 30.9122 19.9468 30.2631 20.0684L30.6314 22.0342ZM31.605 22.0939C31.9196 22.1938 32.2046 22.3701 32.4345 22.6071L33.8698 21.2143C33.41 20.7404 32.8399 20.3877 32.2106 20.1877L31.605 22.0939ZM34.1144 22.183C34.2664 21.6459 34.5652 21.1618 34.9772 20.7853L33.628 19.309C32.9413 19.9365 32.4433 20.7432 32.19 21.6384L34.1144 22.183ZM34.9772 20.7853C35.3892 20.4088 35.898 20.1547 36.4465 20.0516L36.077 18.086C35.1628 18.2579 34.3146 18.6814 33.628 19.309L34.9772 20.7853ZM36.4465 20.0516C36.9949 19.9485 37.5613 20.0005 38.0818 20.2017L38.8029 18.3362C37.9352 18.0008 36.9912 17.9142 36.077 18.086L36.4465 20.0516ZM38.0818 20.2017C38.6023 20.4029 39.0565 20.7454 39.393 21.1906L40.9884 19.9845C40.4274 19.2425 39.6706 18.6716 38.8029 18.3362L38.0818 20.2017ZM39.393 21.1906C39.7296 21.6359 39.9354 22.1662 39.9871 22.722L41.9785 22.5367C41.8923 21.6105 41.5494 20.7266 40.9884 19.9845L39.393 21.1906ZM39.9871 22.722C40.0388 23.2778 39.9345 23.837 39.6858 24.3367L41.4763 25.2278C41.8908 24.3949 42.0647 23.463 41.9785 22.5367L39.9871 22.722ZM39.6858 24.3367C39.4371 24.8365 39.054 25.2569 38.5795 25.5507L39.6324 27.2511C40.4233 26.7613 41.0619 26.0606 41.4763 25.2278L39.6858 24.3367ZM38.5795 25.5507C38.105 25.8445 37.558 26.0001 36.9999 26L36.9995 28C37.9297 28.0002 38.8415 27.7408 39.6324 27.2511L38.5795 25.5507ZM36.9997 26H31.0005V28H36.9997V26Z" fill="#6F7D90"/>
<path d="M7 18L6.99855 19H7V18ZM4.06667 20.356L3.48909 21.1723C3.76276 21.366 4.11524 21.4096 4.42784 21.2885C4.74044 21.1674 4.97158 20.8978 5.04343 20.5703L4.06667 20.356ZM3 20L3.0285 19.0004C3.019 19.0001 3.0095 19 3 19V20ZM3 24V25V24ZM7 24V25V24ZM7.00145 17C6.08882 16.9987 5.2032 17.3096 4.49166 17.8811L5.74408 19.4404C6.09973 19.1547 6.54239 18.9993 6.99855 19L7.00145 17ZM4.49166 17.8811C3.78013 18.4526 3.28549 19.2503 3.0899 20.1417L5.04343 20.5703C5.14119 20.1248 5.38843 19.726 5.74408 19.4404L4.49166 17.8811ZM4.64424 19.5397C4.1706 19.2046 3.60846 19.0169 3.0285 19.0004L2.9715 20.9996C3.15729 21.0049 3.33737 21.065 3.48909 21.1723L4.64424 19.5397ZM3 19C2.20435 19 1.44129 19.3161 0.87868 19.8787L2.29289 21.2929C2.48043 21.1054 2.73478 21 3 21V19ZM0.87868 19.8787C0.316071 20.4413 4.76837e-07 21.2044 4.76837e-07 22H2C2 21.7348 2.10536 21.4804 2.29289 21.2929L0.87868 19.8787ZM4.76837e-07 22C4.76837e-07 22.7957 0.316071 23.5587 0.87868 24.1213L2.29289 22.7071C2.10536 22.5196 2 22.2652 2 22H4.76837e-07ZM0.87868 24.1213C1.44129 24.6839 2.20435 25 3 25V23C2.73478 23 2.48043 22.8946 2.29289 22.7071L0.87868 24.1213ZM3 25H7V23H3V25ZM7 25C8.06086 25 9.07828 24.5786 9.82842 23.8284L8.41421 22.4142C8.03914 22.7893 7.53043 23 7 23V25ZM9.82842 23.8284C10.5786 23.0783 11 22.0609 11 21H9C9 21.5304 8.78928 22.0391 8.41421 22.4142L9.82842 23.8284ZM11 21C11 19.9391 10.5786 18.9217 9.82842 18.1716L8.41421 19.5858C8.78928 19.9609 9 20.4696 9 21H11ZM9.82842 18.1716C9.07828 17.4214 8.06086 17 7 17V19C7.53043 19 8.03914 19.2107 8.41421 19.5858L9.82842 18.1716Z" fill="#6F7D90"/>
</svg>
