<svg width="42" height="28" viewBox="0 0 42 28" fill="none" xmlns="http://www.w3.org/2000/svg">
<path d="M15.5 13H10.3576C9.67216 13.019 8.99367 12.8528 8.38768 12.5174C7.7817 12.1821 7.26873 11.6889 6.89838 11.0856L1 1H4.89898L10.3576 5H37C39.2091 5 41 6.79086 41 9C41 11.2091 39.2091 13 37 13H27M9 9H2M15 13L17.5714 11H27V15H17.5714L15 13ZM31.0005 27C30.5052 27.0001 30.0177 26.8776 29.5813 26.6435C29.1449 26.4093 28.7733 26.0707 28.4997 25.6579C28.226 25.2451 28.0587 24.771 28.0129 24.2778C27.967 23.7846 28.044 23.2878 28.2368 22.8316C28.4297 22.3754 28.7325 21.9741 29.1182 21.6635C29.5039 21.3528 29.9605 21.1425 30.4473 21.0513C30.934 20.9601 31.4358 20.9908 31.9078 21.1408C32.3798 21.2908 32.8073 21.5552 33.1522 21.9107C33.3548 21.1946 33.7532 20.5492 34.3026 20.0472C34.8519 19.5451 35.5304 19.2063 36.2617 19.0688C36.9931 18.9314 37.7482 19.0007 38.4423 19.269C39.1365 19.5373 39.7419 19.9939 40.1907 20.5876C40.6395 21.1812 40.9138 21.8883 40.9828 22.6294C41.0517 23.3704 40.9126 24.116 40.581 24.7823C40.2495 25.4485 39.7386 26.0091 39.1059 26.4009C38.4733 26.7927 37.7438 27.0002 36.9997 27H31.0005ZM7 18C6.3156 17.999 5.65146 18.2322 5.11787 18.6607C4.58428 19.0893 4.21334 19.6875 4.06667 20.356C3.75398 20.1348 3.38288 20.0109 3 20C2.46957 20 1.96086 20.2107 1.58579 20.5858C1.21071 20.9609 1 21.4696 1 22C1 22.5304 1.21071 23.0391 1.58579 23.4142C1.96086 23.7893 2.46957 24 3 24H7C7.79565 24 8.55871 23.6839 9.12132 23.1213C9.68392 22.5587 10 21.7957 10 21C10 20.2044 9.68392 19.4413 9.12132 18.8787C8.55871 18.3161 7.79565 18 7 18Z" stroke="#6F7D90" stroke-width="2" stroke-linecap="round" stroke-linejoin="round"/>
</svg>
