<svg width="42" height="28" viewBox="0 0 42 28" fill="none" xmlns="http://www.w3.org/2000/svg">
<path d="M23.3183 2L23.9299 1.20881C23.7548 1.07344 23.5397 1 23.3183 1V2ZM21 2V1C20.6547 1 20.3338 1.17816 20.1512 1.47127C19.9686 1.76437 19.9502 2.13094 20.1024 2.44088L21 2ZM24.1053 8.32188L23.2077 8.76276C23.2193 8.78633 23.2318 8.80943 23.2452 8.83202L24.1053 8.32188ZM24.9908 9.20304L25.4879 8.33531L25.4879 8.3353L24.9908 9.20304ZM26.1621 9.5V8.5C26.1525 8.5 26.143 8.50014 26.1334 8.50041L26.1621 9.5ZM28.0002 10.5C28.5524 10.5 29.0002 10.0523 29.0002 9.5C29.0002 8.94772 28.5524 8.5 28.0002 8.5V10.5ZM26.564 4.5088L25.9524 5.29999C26.1275 5.43536 26.3426 5.5088 26.564 5.5088V4.5088ZM40.9862 6.99052L39.9862 6.99608L40.9862 6.99052ZM35.0002 8.5C34.4479 8.5 34.0002 8.94772 34.0002 9.5C34.0002 10.0523 34.4479 10.5 35.0002 10.5V8.5ZM23.3183 1H21V3H23.3183V1ZM20.1024 2.44088L23.2077 8.76276L25.0029 7.88099L21.8976 1.55912L20.1024 2.44088ZM23.2452 8.83202C23.5499 9.34572 23.9776 9.77507 24.4938 10.0708L25.4879 8.3353C25.2835 8.21823 25.1011 8.04058 24.9654 7.81174L23.2452 8.83202ZM24.4938 10.0708C25.0108 10.3669 25.5957 10.5167 26.1908 10.4996L26.1334 8.50041C25.9135 8.50673 25.6915 8.45196 25.4879 8.33531L24.4938 10.0708ZM26.1621 10.5H28.0002V8.5H26.1621V10.5ZM27.1755 3.71762L23.9299 1.20881L22.7067 2.79119L25.9524 5.29999L27.1755 3.71762ZM39.9862 6.99608C39.9908 7.82531 39.3199 8.5 38.4906 8.5V10.5C40.4288 10.5 41.997 8.92309 41.9862 6.98495L39.9862 6.99608ZM38.4906 5.5088C39.3134 5.5088 39.9816 6.17335 39.9862 6.99608L41.9862 6.98495C41.9755 5.06201 40.4136 3.5088 38.4906 3.5088V5.5088ZM38.4906 3.5088H26.564V5.5088H38.4906V3.5088ZM38.4906 8.5H35.0002V10.5H38.4906V8.5Z" fill="#6F7D90"/>
<path d="M28 9.5L27.2929 8.79289C26.9024 9.18342 26.9024 9.81658 27.2929 10.2071L28 9.5ZM29.5 8V7C29.2348 7 28.9804 7.10536 28.7929 7.29289L29.5 8ZM35 8H36C36 7.44772 35.5523 7 35 7V8ZM35 11V12C35.5523 12 36 11.5523 36 11H35ZM29.5 11L28.7929 11.7071C28.9804 11.8946 29.2348 12 29.5 12V11ZM28.7071 10.2071L30.2071 8.70711L28.7929 7.29289L27.2929 8.79289L28.7071 10.2071ZM29.5 9H35V7H29.5V9ZM34 8V11H36V8H34ZM35 10H29.5V12H35V10ZM30.2071 10.2929L28.7071 8.79289L27.2929 10.2071L28.7929 11.7071L30.2071 10.2929Z" fill="#6F7D90"/>
<path d="M41 28C41.5523 28 42 27.5523 42 27C42 26.4477 41.5523 26 41 26V28ZM1 26C0.447715 26 0 26.4477 0 27C5.96046e-08 27.5523 0.447715 28 1 28L1 26ZM41 26L1 26L1 28L41 28V26Z" fill="#6F7D90"/>
<path d="M3.00001 4L4.00001 4V4H3.00001ZM2 27C2 27.5523 2.44771 28 3 28C3.55228 28 4 27.5523 4 27H2ZM16 27C16 27.5523 16.4477 28 17 28C17.5523 28 18 27.5523 18 27H16ZM17 4L16 4V4H17ZM15 2V1V2ZM5.00001 2V3H5.00001L5.00001 2ZM2.00001 4L2 27H4L4.00001 4L2.00001 4ZM15 1L5.00001 1L5.00001 3L15 3V1ZM16 4V27H18V4H16ZM4.00001 4C4.00001 3.44772 4.44772 3 5.00001 3V1C3.34316 1 2.00001 2.34315 2.00001 4H4.00001ZM15 3C15.5523 3 16 3.44772 16 4L18 4C18 2.34315 16.6569 1 15 1V3Z" fill="#6F7D90"/>
<path d="M23 16V17V16ZM17 15C16.4477 15 16 15.4477 16 16C16 16.5523 16.4477 17 17 17L17 15ZM25 18L24 18V18H25ZM24 27C24 27.5523 24.4477 28 25 28C25.5523 28 26 27.5523 26 27H24ZM23 15L17 15L17 17L23 17V15ZM24 18V27H26V18H24ZM23 17C23.5523 17 24 17.4477 24 18L26 18C26 16.3431 24.6569 15 23 15V17Z" fill="#6F7D90"/>
<path d="M8 21C7.44772 21 7 21.4477 7 22C7 22.5523 7.44772 23 8 23V21ZM12 23C12.5523 23 13 22.5523 13 22C13 21.4477 12.5523 21 12 21V23ZM8 23H12V21H8V23Z" fill="#6F7D90"/>
<path d="M8 16C7.44772 16 7 16.4477 7 17C7 17.5523 7.44772 18 8 18V16ZM12 18C12.5523 18 13 17.5523 13 17C13 16.4477 12.5523 16 12 16V18ZM8 18H12V16H8V18Z" fill="#6F7D90"/>
<path d="M8 11C7.44772 11 7 11.4477 7 12C7 12.5523 7.44772 13 8 13V11ZM12 13C12.5523 13 13 12.5523 13 12C13 11.4477 12.5523 11 12 11V13ZM8 13H12V11H8V13Z" fill="#6F7D90"/>
<path d="M8 6C7.44772 6 7 6.44772 7 7C7 7.55228 7.44772 8 8 8V6ZM12 8C12.5523 8 13 7.55228 13 7C13 6.44772 12.5523 6 12 6V8ZM8 8H12V6H8V8Z" fill="#6F7D90"/>
<path d="M22.5 21C21.9477 21 21.5 21.4477 21.5 22C21.5 22.5523 21.9477 23 22.5 23V21ZM25 23C25.5523 23 26 22.5523 26 22C26 21.4477 25.5523 21 25 21V23ZM22.5 23H25V21H22.5V23Z" fill="#6F7D90"/>
<path d="M37.5003 20L36.8756 20.7808C37.2408 21.073 37.7598 21.073 38.125 20.7808L37.5003 20ZM35.6599 17.247C35.2286 16.902 34.5993 16.9719 34.2543 17.4031C33.9093 17.8344 33.9792 18.4637 34.4105 18.8087L35.6599 17.247ZM40.5902 18.8087C41.0214 18.4637 41.0914 17.8344 40.7463 17.4031C40.4013 16.9719 39.772 16.902 39.3408 17.247L40.5902 18.8087ZM34.4105 18.8087L36.8756 20.7808L38.125 19.2191L35.6599 17.247L34.4105 18.8087ZM38.125 20.7808L40.5902 18.8087L39.3408 17.247L36.8756 19.2191L38.125 20.7808Z" fill="#6F7D90"/>
<path d="M37.5002 24L36.8755 24.7809C37.2407 25.073 37.7596 25.073 38.1249 24.7809L37.5002 24ZM35.6765 21.2604C35.2452 20.9154 34.6159 20.9853 34.2709 21.4166C33.9259 21.8478 33.9958 22.4771 34.4271 22.8221L35.6765 21.2604ZM40.5733 22.8221C41.0045 22.4771 41.0745 21.8478 40.7294 21.4166C40.3844 20.9853 39.7551 20.9154 39.3239 21.2604L40.5733 22.8221ZM34.4271 22.8221L36.8755 24.7809L38.1249 23.2191L35.6765 21.2604L34.4271 22.8221ZM38.1249 24.7809L40.5733 22.8221L39.3239 21.2604L36.8755 23.2191L38.1249 24.7809Z" fill="#6F7D90"/>
<path d="M36.5 26.5C36.5 27.0523 36.9477 27.5 37.5 27.5C38.0523 27.5 38.5 27.0523 38.5 26.5H36.5ZM38.5 16C38.5 15.4477 38.0523 15 37.5 15C36.9477 15 36.5 15.4477 36.5 16L38.5 16ZM38.5 26.5L38.5 16L36.5 16L36.5 26.5H38.5Z" fill="#6F7D90"/>
</svg>
