<svg width="42" height="28" viewBox="0 0 42 28" fill="none" xmlns="http://www.w3.org/2000/svg">
<path d="M28.0001 9.5H26.1621C25.7546 9.51171 25.3511 9.40942 24.9908 9.20304C24.6305 8.99665 24.3255 8.69315 24.1053 8.32188L21 2H23.3183L26.5639 4.5088H38.4906C39.8635 4.5088 40.9785 5.61768 40.9862 6.99052C40.9939 8.3742 39.8743 9.5 38.4906 9.5H35.0001M28.0001 9.5L29.5001 8H35.0001V11H29.5001L28.0001 9.5ZM2.99999 27L3 4C3 2.89543 3.89543 2 5 2L15 2C16.1046 2 17 2.89543 17 4V27M2.99999 27H17M2.99999 27L1 27M17 27H41M17 16L23 16C24.1046 16 25 16.8954 25 18V27M8 22H12M8 17H12M8 12H12M8 7H12M22.5 22H25M35 18L37.5 20L40 18M35 22L37.5 24L40 22M37.5 26.5L37.5 16" stroke="#9CA3AF" stroke-width="2" stroke-linecap="round" stroke-linejoin="round"/>
</svg>
