<svg width="42" height="28" viewBox="0 0 42 28" fill="none" xmlns="http://www.w3.org/2000/svg">
<path d="M2 23C2 20.7909 3.79086 19 6 19H26" stroke="#9CA3AF" stroke-width="2" stroke-linecap="round" stroke-linejoin="round"/>
<path d="M25 12L34 1H40V15M40 15V19.5H35L33 15H40Z" stroke="#9CA3AF" stroke-width="2" stroke-linecap="round" stroke-linejoin="round"/>
<path d="M9 12V4C9 3.44772 9.44772 3 10 3H17.0227H20.7882C21.1917 3 21.5557 3.24257 21.7111 3.61503L25 11.5V19" stroke="#9CA3AF" stroke-width="2" stroke-linecap="round"/>
<path d="M12 12H4.5C4.22386 12 4 12.2239 4 12.5V15.1437C4 15.3741 4.0796 15.5975 4.22534 15.776L6.85714 19" stroke="#9CA3AF" stroke-width="2" stroke-linecap="round"/>
<path d="M25 12H18.5L17 9.5" stroke="#9CA3AF" stroke-width="2" stroke-linecap="round"/>
</svg>
