<svg width="42" height="28" viewBox="0 0 42 28" fill="none" xmlns="http://www.w3.org/2000/svg">
<path d="M19.9998 5.00006L19.2927 5.70717C19.6832 6.09769 20.3164 6.09769 20.7069 5.70717L19.9998 5.00006ZM18.752 2.33806C18.3615 1.94753 17.7283 1.94753 17.3378 2.33806C16.9473 2.72858 16.9473 3.36175 17.3378 3.75227L18.752 2.33806ZM22.6618 3.75227C23.0523 3.36175 23.0523 2.72858 22.6618 2.33806C22.2713 1.94753 21.6381 1.94753 21.2476 2.33806L22.6618 3.75227ZM20.7069 4.29295L18.752 2.33806L17.3378 3.75227L19.2927 5.70717L20.7069 4.29295ZM21.2476 2.33806L19.2927 4.29295L20.7069 5.70717L22.6618 3.75227L21.2476 2.33806Z" fill="#6F7D90"/>
<path d="M1 26C0.447715 26 0 26.4477 0 27C0 27.5523 0.447715 28 1 28V26ZM41 28C41.5523 28 42 27.5523 42 27C42 26.4477 41.5523 26 41 26V28ZM1 28H41V26H1V28Z" fill="#6F7D90"/>
<path d="M5 14C5 13.4477 4.55228 13 4 13C3.44772 13 3 13.4477 3 14H5ZM3 27C3 27.5523 3.44772 28 4 28C4.55228 28 5 27.5523 5 27H3ZM3 14V27H5V14H3Z" fill="#6F7D90"/>
<path d="M21 14C21 13.4477 20.5523 13 20 13C19.4477 13 19 13.4477 19 14H21ZM19 27C19 27.5523 19.4477 28 20 28C20.5523 28 21 27.5523 21 27H19ZM19 14V27H21V14H19Z" fill="#6F7D90"/>
<path d="M14 27C14 27.5523 14.4477 28 15 28C15.5523 28 16 27.5523 16 27H14ZM15 20L16 20L15 20ZM14 19V18V19ZM10 19L10 20H10V19ZM9 20L10 20L9 20ZM8 27C8 27.5523 8.44772 28 9 28C9.55228 28 10 27.5523 10 27H8ZM16 27L16 20L14 20L14 27H16ZM14 18H10V20H14V18ZM8 20L8 27H10L10 20L8 20ZM10 18C8.89543 18 8 18.8954 8 20L10 20L10 20L10 18ZM16 20C16 18.8954 15.1046 18 14 18V20V20L16 20Z" fill="#6F7D90"/>
<path d="M12 7L12.6332 6.22604C12.2649 5.92465 11.7351 5.92465 11.3668 6.22604L12 7ZM0.366762 15.226C-0.0606827 15.5758 -0.123685 16.2058 0.226043 16.6332C0.57577 17.0607 1.20579 17.1237 1.63324 16.774L0.366762 15.226ZM22.3668 16.774C22.7942 17.1237 23.4242 17.0607 23.774 16.6332C24.1237 16.2058 24.0607 15.5758 23.6332 15.226L22.3668 16.774ZM11.3668 6.22604L0.366762 15.226L1.63324 16.774L12.6332 7.77396L11.3668 6.22604ZM11.3668 7.77396L22.3668 16.774L23.6332 15.226L12.6332 6.22604L11.3668 7.77396Z" fill="#6F7D90"/>
<path d="M39 20V21C39.3529 21 39.6797 20.814 39.8599 20.5105C40.0401 20.207 40.0469 19.831 39.8779 19.5211L39 20ZM36 14.5V13.5C35.6471 13.5 35.3203 13.686 35.1401 13.9895C34.9599 14.293 34.9531 14.669 35.1221 14.9789L36 14.5ZM39 14.5V15.5C39.3581 15.5 39.6888 15.3086 39.8671 14.9981C40.0455 14.6876 40.0442 14.3054 39.8638 13.9961L39 14.5ZM35.5 8.5V7.5C35.1419 7.5 34.8112 7.69145 34.6329 8.00194C34.4545 8.31243 34.4558 8.69458 34.6362 9.00387L35.5 8.5ZM38.5 8.5V9.5C38.8768 9.5 39.2217 9.28816 39.392 8.95202C39.5623 8.61587 39.5293 8.21252 39.3064 7.90864L38.5 8.5ZM33 1L33.8064 0.408636C33.6162 0.149265 33.3128 -0.0027858 32.9912 3.85642e-05C32.6696 0.00286293 32.369 0.160217 32.1833 0.422889L33 1ZM27.7 8.5L26.8833 7.92289C26.6677 8.22806 26.6402 8.628 26.812 8.95983C26.9838 9.29166 27.3263 9.5 27.7 9.5V8.5ZM30.7 8.5L31.5512 9.02489C31.7414 8.71638 31.7498 8.32909 31.5732 8.0126C31.3965 7.69612 31.0624 7.5 30.7 7.5V8.5ZM27 14.5L26.1488 13.9751C25.9586 14.2836 25.9502 14.6709 26.1268 14.9874C26.3035 15.3039 26.6376 15.5 27 15.5V14.5ZM30 14.5L30.8779 14.9789C31.0469 14.669 31.0401 14.293 30.8599 13.9895C30.6797 13.686 30.3529 13.5 30 13.5V14.5ZM27 20L26.1221 19.5211C25.9531 19.831 25.9599 20.207 26.1401 20.5105C26.3203 20.814 26.6471 21 27 21V20ZM39.8779 19.5211L36.8779 14.0211L35.1221 14.9789L38.1221 20.4789L39.8779 19.5211ZM36 15.5H39V13.5H36V15.5ZM39.8638 13.9961L36.3638 7.99613L34.6362 9.00387L38.1362 15.0039L39.8638 13.9961ZM35.5 9.5H38.5V7.5H35.5V9.5ZM39.3064 7.90864L33.8064 0.408636L32.1936 1.59136L37.6936 9.09136L39.3064 7.90864ZM29.8488 7.97511L26.1488 13.9751L27.8512 15.0249L31.5512 9.02489L29.8488 7.97511ZM27 15.5H30V13.5H27V15.5ZM29.1221 14.0211L26.1221 19.5211L27.8779 20.4789L30.8779 14.9789L29.1221 14.0211ZM27.7 9.5H30.7V7.5H27.7V9.5ZM32.1833 0.422889L26.8833 7.92289L28.5167 9.07711L33.8167 1.57711L32.1833 0.422889ZM39 19H27V21H39V19Z" fill="#6F7D90"/>
<path d="M34 20C34 19.4477 33.5523 19 33 19C32.4477 19 32 19.4477 32 20H34ZM32 27C32 27.5523 32.4477 28 33 28C33.5523 28 34 27.5523 34 27H32ZM32 20V27H34V20H32Z" fill="#6F7D90"/>
</svg>
