<svg width="42" height="28" viewBox="0 0 42 28" fill="none" xmlns="http://www.w3.org/2000/svg">
<path d="M7 7V6C6.44772 6 6 6.44772 6 7H7ZM14 7H15C15 6.44772 14.5523 6 14 6V7ZM40 25C40 25.5523 40.4477 26 41 26C41.5523 26 42 25.5523 42 25H40ZM42 21.5C42 20.9477 41.5523 20.5 41 20.5C40.4477 20.5 40 20.9477 40 21.5H42ZM19 22H14V24H19V22ZM14 22H7V24H14V22ZM7 22H3V24H7V22ZM2 21V8H0V21H2ZM7 3H33V1H7V3ZM8 23V7H6V23H8ZM7 8H14V6H7V8ZM13 7V23H15V7H13ZM20.5 8.5V11.5H22.5V8.5H20.5ZM33 11.5V8.5H31V11.5H33ZM37 22H27V24H37V22ZM37 24H41V22H37V24ZM40 23V25H42V23H40ZM38 23V6H36V23H38ZM42 23V21.5H40V23H42ZM33 8.5C33 7.11929 31.8807 6 30.5 6V8C30.7761 8 31 8.22386 31 8.5H33ZM31 11.5C31 11.7761 30.7761 12 30.5 12V14C31.8807 14 33 12.8807 33 11.5H31ZM20.5 11.5C20.5 12.8807 21.6193 14 23 14V12C22.7239 12 22.5 11.7761 22.5 11.5H20.5ZM22.5 8.5C22.5 8.22386 22.7239 8 23 8V6C21.6193 6 20.5 7.11929 20.5 8.5H22.5ZM33 3C34.6569 3 36 4.34315 36 6H38C38 3.23858 35.7614 1 33 1V3ZM2 8C2 5.23858 4.23858 3 7 3V1C3.13401 1 0 4.13401 0 8H2ZM3 22C2.44772 22 2 21.5523 2 21H0C0 22.6569 1.34315 24 3 24V22ZM26 23C26 24.6569 24.6569 26 23 26V28C25.7614 28 28 25.7614 28 23H26ZM23 26C21.3431 26 20 24.6569 20 23H18C18 25.7614 20.2386 28 23 28V26ZM20 23C20 21.3431 21.3431 20 23 20V18C20.2386 18 18 20.2386 18 23H20ZM23 20C24.6569 20 26 21.3431 26 23H28C28 20.2386 25.7614 18 23 18V20ZM30.5 6H23V8H30.5V6ZM23 14H30.5V12H23V14Z" fill="#6F7D90"/>
</svg>
