<svg width="42" height="28" viewBox="0 0 42 28" fill="none" xmlns="http://www.w3.org/2000/svg">
<path d="M31.4 7.2L30.6 7.8H30.6L31.4 7.2ZM41 16H42V15.4648L41.5547 15.1679L41 16ZM41 23V24C41.5523 24 42 23.5523 42 23H41ZM5 24C5.55228 24 6 23.5523 6 23C6 22.4477 5.55228 22 5 22V24ZM36 22C35.4477 22 35 22.4477 35 23C35 23.5523 35.4477 24 36 24V22ZM2 4V3C1.63973 3 1.30731 3.19379 1.1298 3.5073C0.952294 3.82081 0.957149 4.20556 1.14251 4.5145L2 4ZM29 11C28.4477 11 28 11.4477 28 12C28 12.5523 28.4477 13 29 13V11ZM3.5 6.5L4.43335 6.85898C4.54385 6.57167 4.51587 6.24947 4.35749 5.9855L3.5 6.5ZM1 13L0.0666544 12.641C0.0225947 12.7556 0 12.8773 0 13H1ZM27 24C27.5523 24 28 23.5523 28 23C28 22.4477 27.5523 22 27 22V24ZM14 22C13.4477 22 13 22.4477 13 23C13 23.5523 13.4477 24 14 24V22ZM23 3C22.4477 3 22 3.44772 22 4C22 4.55228 22.4477 5 23 5V3ZM5 5C5.55228 5 6 4.55228 6 4C6 3.44772 5.55228 3 5 3V5ZM18.5 7C18.5 7.55228 18.9477 8 19.5 8C20.0523 8 20.5 7.55228 20.5 7H18.5ZM13 14C13.5523 14 14 13.5523 14 13C14 12.4477 13.5523 12 13 12V14ZM16 6C16.5523 6 17 5.55228 17 5C17 4.44772 16.5523 4 16 4V6ZM12 4C11.4477 4 11 4.44772 11 5C11 5.55228 11.4477 6 12 6V4ZM14 10C14.5523 10 15 9.55229 15 9C15 8.44772 14.5523 8 14 8V10ZM12 8C11.4477 8 11 8.44772 11 9C11 9.55229 11.4477 10 12 10V8ZM17.5 14L16.7929 14.7071C16.9886 14.9028 17.2567 15.0087 17.5333 14.9994C17.8099 14.9902 18.0703 14.8668 18.2526 14.6585L17.5 14ZM16.7071 11.7929C16.3166 11.4024 15.6834 11.4024 15.2929 11.7929C14.9024 12.1834 14.9024 12.8166 15.2929 13.2071L16.7071 11.7929ZM21.7526 10.6585C22.1163 10.2429 22.0741 9.6111 21.6585 9.24742C21.2429 8.88374 20.6111 8.92586 20.2474 9.3415L21.7526 10.6585ZM30.6 7.8L34.2 12.6L35.8 11.4L32.2 6.6L30.6 7.8ZM40 16V23H42V16H40ZM3 24H5V22H3V24ZM35 11H29V13H35V11ZM41.5547 15.1679L35.5547 11.1679L34.4453 12.8321L40.4453 16.8321L41.5547 15.1679ZM1.14251 4.5145L2.64251 7.0145L4.35749 5.9855L2.85749 3.4855L1.14251 4.5145ZM2.56665 6.14102L0.0666544 12.641L1.93335 13.359L4.43335 6.85898L2.56665 6.14102ZM0 21C0 22.6569 1.34315 24 3 24V22C2.44772 22 2 21.5523 2 21H0ZM32.2 6.6C30.5003 4.33375 27.8328 3 25 3V5C27.2033 5 29.278 6.03736 30.6 7.8L32.2 6.6ZM35 22.5C35 24.433 33.433 26 31.5 26V28C34.5376 28 37 25.5376 37 22.5H35ZM31.5 26C29.567 26 28 24.433 28 22.5H26C26 25.5376 28.4624 28 31.5 28V26ZM28 22.5C28 20.567 29.567 19 31.5 19V17C28.4624 17 26 19.4624 26 22.5H28ZM31.5 19C33.433 19 35 20.567 35 22.5H37C37 19.4624 34.5376 17 31.5 17V19ZM13 22.5C13 24.433 11.433 26 9.5 26V28C12.5376 28 15 25.5376 15 22.5H13ZM9.5 26C7.567 26 6 24.433 6 22.5H4C4 25.5376 6.46243 28 9.5 28V26ZM6 22.5C6 20.567 7.567 19 9.5 19V17C6.46243 17 4 19.4624 4 22.5H6ZM9.5 19C11.433 19 13 20.567 13 22.5H15C15 19.4624 12.5376 17 9.5 17V19ZM27 22H14V24H27V22ZM0 13V21H2V13H0ZM41 22H36V24H41V22ZM25 3H23V5H25V3ZM5 3H2V5H5V3ZM7.5 2V12H9.5V2H7.5ZM20.5 7V2H18.5V7H20.5ZM18.5 0H9.5V2H18.5V0ZM9.5 14H13V12H9.5V14ZM20.5 2C20.5 0.89543 19.6046 0 18.5 0V2V2H20.5ZM7.5 12C7.5 13.1046 8.39543 14 9.5 14V12H7.5ZM9.5 2V0C8.39543 0 7.5 0.895431 7.5 2H9.5ZM16 4H12V6H16V4ZM14 8H12V10H14V8ZM18.2071 13.2929L16.7071 11.7929L15.2929 13.2071L16.7929 14.7071L18.2071 13.2929ZM18.2526 14.6585L21.7526 10.6585L20.2474 9.3415L16.7474 13.3415L18.2526 14.6585Z" fill="#6F7D90"/>
</svg>
