<svg width="42" height="28" viewBox="0 0 42 28" fill="none" xmlns="http://www.w3.org/2000/svg">
<path d="M31.4 7.2L30.6 7.8H30.6L31.4 7.2ZM41 23V24C41.5523 24 42 23.5523 42 23H41ZM5 24C5.55228 24 6 23.5523 6 23C6 22.4477 5.55228 22 5 22V24ZM36 22C35.4477 22 35 22.4477 35 23C35 23.5523 35.4477 24 36 24V22ZM2 4V3C1.63973 3 1.30731 3.19379 1.1298 3.5073C0.952294 3.82081 0.957149 4.20556 1.14251 4.5145L2 4ZM29 11C28.4477 11 28 11.4477 28 12C28 12.5523 28.4477 13 29 13V11ZM3.5 6.5L4.43335 6.85898C4.54385 6.57167 4.51587 6.24947 4.35749 5.9855L3.5 6.5ZM1 13L0.0666544 12.641C0.0225947 12.7556 0 12.8773 0 13H1ZM27 24C27.5523 24 28 23.5523 28 23C28 22.4477 27.5523 22 27 22V24ZM14 22C13.4477 22 13 22.4477 13 23C13 23.5523 13.4477 24 14 24V22ZM23 3C22.4477 3 22 3.44772 22 4C22 4.55228 22.4477 5 23 5V3ZM5 5C5.55228 5 6 4.55228 6 4C6 3.44772 5.55228 3 5 3V5ZM40.5547 15.7031L40 16.5352L40.5547 15.7031ZM15 5C15 4.44772 14.5523 4 14 4C13.4477 4 13 4.44772 13 5H15ZM14 7.85714H13C13 8.09937 13.0879 8.33336 13.2474 8.51565L14 7.85714ZM14.2474 9.6585C14.6111 10.0741 15.2429 10.1163 15.6585 9.75258C16.0741 9.3889 16.1163 8.75713 15.7526 8.3415L14.2474 9.6585ZM19 7C19 9.76142 16.7614 12 14 12V14C17.866 14 21 10.866 21 7H19ZM14 12C11.2386 12 9 9.76142 9 7H7C7 10.866 10.134 14 14 14V12ZM9 7C9 4.23858 11.2386 2 14 2V0C10.134 0 7 3.13401 7 7H9ZM14 2C16.7614 2 19 4.23858 19 7H21C21 3.13401 17.866 0 14 0V2ZM30.6 7.8L34.2 12.6L35.8 11.4L32.2 6.6L30.6 7.8ZM40 16.5352V23H42V16.5352H40ZM3 24H5V22H3V24ZM35 11H29V13H35V11ZM41.1094 14.8711L35.5547 11.1679L34.4453 12.8321L40 16.5352L41.1094 14.8711ZM1.14251 4.5145L2.64251 7.0145L4.35749 5.9855L2.85749 3.4855L1.14251 4.5145ZM2.56665 6.14102L0.0666544 12.641L1.93335 13.359L4.43335 6.85898L2.56665 6.14102ZM0 21C0 22.6569 1.34315 24 3 24V22C2.44772 22 2 21.5523 2 21H0ZM32.2 6.6C30.5003 4.33375 27.8328 3 25 3V5C27.2033 5 29.278 6.03736 30.6 7.8L32.2 6.6ZM35 22.5C35 24.433 33.433 26 31.5 26V28C34.5376 28 37 25.5376 37 22.5H35ZM31.5 26C29.567 26 28 24.433 28 22.5H26C26 25.5376 28.4624 28 31.5 28V26ZM28 22.5C28 20.567 29.567 19 31.5 19V17C28.4624 17 26 19.4624 26 22.5H28ZM31.5 19C33.433 19 35 20.567 35 22.5H37C37 19.4624 34.5376 17 31.5 17V19ZM13 22.5C13 24.433 11.433 26 9.5 26V28C12.5376 28 15 25.5376 15 22.5H13ZM9.5 26C7.567 26 6 24.433 6 22.5H4C4 25.5376 6.46243 28 9.5 28V26ZM6 22.5C6 20.567 7.567 19 9.5 19V17C6.46243 17 4 19.4624 4 22.5H6ZM9.5 19C11.433 19 13 20.567 13 22.5H15C15 19.4624 12.5376 17 9.5 17V19ZM27 22H14V24H27V22ZM0 13V21H2V13H0ZM41 22H36V24H41V22ZM25 3H23V5H25V3ZM5 3H2V5H5V3ZM42 16.5352C42 15.8665 41.6658 15.242 41.1094 14.8711L40 16.5352H42ZM13 5V7.85714H15V5H13ZM13.2474 8.51565L14.2474 9.6585L15.7526 8.3415L14.7526 7.19864L13.2474 8.51565Z" fill="#6F7D90"/>
</svg>
