<svg width="42" height="28" viewBox="0 0 42 28" fill="none" xmlns="http://www.w3.org/2000/svg">
<path d="M14 23H27.1875" stroke="#6F7D90" stroke-width="2"/>
<path d="M1 12C0.447715 12 0 12.4477 0 13C0 13.5523 0.447715 14 1 14V12ZM5 14C5.55228 14 6 13.5523 6 13C6 12.4477 5.55228 12 5 12V14ZM1 14H5V12H1V14Z" fill="#6F7D90"/>
<path d="M35 13C35.5523 13 36 12.5523 36 12C36 11.4477 35.5523 11 35 11V13ZM26 12L25.2 12.6L25.5 13H26V12ZM23 8L23.8 7.4C23.6111 7.14819 23.3148 7 23 7V8ZM15 7C14.4477 7 14 7.44772 14 8C14 8.55228 14.4477 9 15 9V7ZM35 11H26V13H35V11ZM26.8 11.4L23.8 7.4L22.2 8.6L25.2 12.6L26.8 11.4ZM23 7H15V9H23V7Z" fill="#6F7D90"/>
<path d="M31.4 7.2L30.6 7.8L30.6 7.8L31.4 7.2ZM35 12L34.2 12.6C34.268 12.6907 34.351 12.7692 34.4453 12.8321L35 12ZM41 16H42V15.4648L41.5547 15.1679L41 16ZM41 23V24C41.5523 24 42 23.5523 42 23H41ZM5 24C5.55228 24 6 23.5523 6 23C6 22.4477 5.55228 22 5 22V24ZM36 22C35.4477 22 35 22.4477 35 23C35 23.5523 35.4477 24 36 24V22ZM2 4V3C1.63973 3 1.30731 3.19379 1.1298 3.5073C0.952294 3.82081 0.957149 4.20557 1.14251 4.5145L2 4ZM3.5 6.5L4.43335 6.85898C4.54385 6.57167 4.51587 6.24947 4.35749 5.9855L3.5 6.5ZM1 13L0.0666544 12.641C0.0225947 12.7556 0 12.8773 0 13H1ZM30.6 7.8L34.2 12.6L35.8 11.4L32.2 6.6L30.6 7.8ZM40 16V23H42V16H40ZM3 24H5V22H3V24ZM41.5547 15.1679L35.5547 11.1679L34.4453 12.8321L40.4453 16.8321L41.5547 15.1679ZM1.14251 4.5145L2.64251 7.0145L4.35749 5.9855L2.85749 3.4855L1.14251 4.5145ZM2.56665 6.14102L0.0666544 12.641L1.93335 13.359L4.43335 6.85898L2.56665 6.14102ZM0 21C0 22.6569 1.34315 24 3 24V22C2.44772 22 2 21.5523 2 21H0ZM32.2 6.6C30.5003 4.33375 27.8328 3 25 3V5C27.2033 5 29.278 6.03736 30.6 7.8L32.2 6.6ZM0 13V21H2V13H0ZM41 22H36V24H41V22ZM25 3H2V5H25V3Z" fill="#6F7D90"/>
<path d="M36 22.5C36 24.9853 33.9853 27 31.5 27C29.0147 27 27 24.9853 27 22.5C27 20.0147 29.0147 18 31.5 18C33.9853 18 36 20.0147 36 22.5Z" stroke="#6F7D90" stroke-width="2"/>
<path d="M14 22.5C14 24.9853 11.9853 27 9.5 27C7.01472 27 5 24.9853 5 22.5C5 20.0147 7.01472 18 9.5 18C11.9853 18 14 20.0147 14 22.5Z" stroke="#6F7D90" stroke-width="2"/>
</svg>
