<svg width="42" height="28" viewBox="0 0 42 28" fill="none" xmlns="http://www.w3.org/2000/svg">
<path d="M9 23.5C9 24.8807 10.1193 26 11.5 26V28C9.01472 28 7 25.9853 7 23.5H9ZM11.5 26C12.8807 26 14 24.8807 14 23.5H16C16 25.9853 13.9853 28 11.5 28V26ZM14 23.5C14 22.1193 12.8807 21 11.5 21V19C13.9853 19 16 21.0147 16 23.5H14ZM11.5 21C10.1193 21 9 22.1193 9 23.5H7C7 21.0147 9.01472 19 11.5 19V21Z" fill="#6F7D90"/>
<path d="M28 23.5C28 24.8807 29.1193 26 30.5 26V28C28.0147 28 26 25.9853 26 23.5H28ZM30.5 26C31.8807 26 33 24.8807 33 23.5H35C35 25.9853 32.9853 28 30.5 28V26ZM33 23.5C33 22.1193 31.8807 21 30.5 21V19C32.9853 19 35 21.0147 35 23.5H33ZM30.5 21C29.1193 21 28 22.1193 28 23.5H26C26 21.0147 28.0147 19 30.5 19V21Z" fill="#6F7D90"/>
<path d="M9 6C8.44772 6 8 5.55228 8 5C8 4.44772 8.44772 4 9 4V6ZM13.5 17C12.9477 17 12.5 16.5523 12.5 16C12.5 15.4477 12.9477 15 13.5 15V17ZM37.3162 6H9V4H37.3162V6ZM38.7456 5.95481L36.3398 13.516L34.4339 12.9096L36.8397 5.3484L38.7456 5.95481ZM31.5751 17H13.5V15H31.5751V17ZM36.3398 13.516C35.6796 15.5909 33.7525 17 31.5751 17V15C32.8816 15 34.0378 14.1545 34.4339 12.9096L36.3398 13.516ZM37.3162 4C38.3314 4 39.0534 4.98739 38.7456 5.95481L36.8397 5.3484C36.7371 5.67087 36.9778 6 37.3162 6V4Z" fill="#6F7D90"/>
<path d="M13.4701 20.2425C13.3362 20.7783 12.7933 21.1041 12.2575 20.9701C11.7217 20.8362 11.3959 20.2933 11.5299 19.7575L13.4701 20.2425ZM4 2C3.44771 2 3 1.55228 3 1C3 0.447715 3.44771 0 4 0V2ZM13.5 16L14.4176 15.6024C14.505 15.8042 14.5235 16.0292 14.4701 16.2425L13.5 16ZM6.34348 2H4V0H6.34348V2ZM8.17859 1.20479L14.4176 15.6024L12.5824 16.3976L6.34348 2L8.17859 1.20479ZM14.4701 16.2425L13.4701 20.2425L11.5299 19.7575L12.5299 15.7575L14.4701 16.2425ZM6.34348 0C7.14062 0 7.86164 0.473366 8.17859 1.20479L6.34348 2V2V0Z" fill="#6F7D90"/>
<path d="M27 21C27.5523 21 28 21.4477 28 22C28 22.5523 27.5523 23 27 23V21ZM15 23C14.4477 23 14 22.5523 14 22C14 21.4477 14.4477 21 15 21V23ZM27 23H15V21H27V23Z" fill="#6F7D90"/>
</svg>
