<svg width="42" height="28" viewBox="0 0 42 28" fill="none" xmlns="http://www.w3.org/2000/svg">
<path d="M15.8945 21.435L15.1668 20.7491L15.1668 20.7491L15.8945 21.435ZM19.1462 18.0272L18.4186 17.3413L19.1462 18.0272ZM23.3649 13.5433L22.6174 12.8791L23.3649 13.5433ZM24.2097 6.29142L25.078 5.79537L24.2097 6.29142ZM15.1221 4.75703L14.5065 3.96897C14.4831 3.98728 14.4605 4.00662 14.4388 4.02695L15.1221 4.75703ZM13.9989 5.80839L13.3055 6.52897C13.6888 6.89783 14.2939 6.90201 14.6822 6.53848L13.9989 5.80839ZM12.9063 4.75703L13.5996 4.03645C13.5855 4.02284 13.5709 4.00965 13.556 3.99689L12.9063 4.75703ZM3.70085 6.29142L2.82723 5.80482L3.70085 6.29142ZM4.76628 13.5433L5.50945 12.8742L4.76628 13.5433ZM8.51094 17.572L9.24694 16.895L9.24693 16.895L8.51094 17.572ZM11.5478 20.8382L12.2847 20.1621L12.2846 20.1621L11.5478 20.8382ZM22.3468 19.5836C21.8288 19.392 21.2536 19.6566 21.0621 20.1746C20.8705 20.6926 21.1352 21.2678 21.6532 21.4594L22.3468 19.5836ZM6.34775 21.4594C6.86575 21.2678 7.13037 20.6926 6.93879 20.1746C6.74722 19.6566 6.172 19.392 5.65401 19.5836L6.34775 21.4594ZM33.9996 23L33.2679 23.6817C33.4571 23.8847 33.7221 24 33.9995 24C34.277 24 34.542 23.8847 34.7311 23.6818L33.9996 23ZM29.7386 18.4268L30.4702 17.7451C30.4654 17.7399 30.4605 17.7348 30.4555 17.7297L29.7386 18.4268ZM29.2661 15.4335L30.1655 15.8706V15.8706L29.2661 15.4335ZM33.3037 14.7597L32.5866 15.4567L32.5867 15.4568L33.3037 14.7597ZM33.9996 15.4755L33.2826 16.1726C33.4708 16.3662 33.7293 16.4754 33.9993 16.4755C34.2693 16.4756 34.5278 16.3665 34.7162 16.173L33.9996 15.4755ZM34.6963 14.7597L35.4129 15.4572L35.4134 15.4567L34.6963 14.7597ZM38.7339 15.4335L37.8345 15.8706V15.8706L38.7339 15.4335ZM38.2614 18.4268L37.5445 17.7297C37.5395 17.7347 37.5346 17.7399 37.5298 17.7451L38.2614 18.4268ZM13.9694 24C14.6353 24 15.1058 23.6784 15.4715 23.3406C15.7861 23.0501 16.1944 22.5748 16.6222 22.1209L15.1668 20.7491C14.6182 21.3311 14.367 21.6382 14.1147 21.8713C14.0081 21.9697 13.9576 21.9987 13.9442 22.0053C13.9403 22.0073 13.9445 22.0048 13.9545 22.0024C13.9647 22 13.971 22 13.9694 22V24ZM16.6222 22.1209C17.2291 21.4771 17.8256 20.8546 18.3791 20.2779C18.9311 19.7027 19.4428 19.1705 19.8739 18.7132L18.4186 17.3413C17.9952 17.7904 17.4913 18.3146 16.9362 18.893C16.3825 19.4699 15.7805 20.0981 15.1668 20.7491L16.6222 22.1209ZM19.8739 18.7132C22.3784 16.0564 23.3957 15.0143 24.1125 14.2075L22.6174 12.8791C21.9263 13.6569 20.9597 14.6457 18.4186 17.3413L19.8739 18.7132ZM24.1125 14.2075C26.2652 11.7846 26.5618 8.39275 25.078 5.79537L23.3414 6.78747C24.395 8.63182 24.2061 11.091 22.6174 12.8791L24.1125 14.2075ZM25.078 5.79537C23.2523 2.59972 20.4748 2 18.9421 2V4C19.9747 4 21.968 4.38345 23.3414 6.78747L25.078 5.79537ZM18.9421 2C17.3047 2 16.1585 2.67857 14.5065 3.96897L15.7377 5.5451C17.3258 4.30461 18.014 4 18.9421 4V2ZM14.4388 4.02695L13.3155 5.07831L14.6822 6.53848L15.8055 5.48712L14.4388 4.02695ZM14.6922 5.08781L13.5996 4.03645L12.2129 5.47761L13.3055 6.52897L14.6922 5.08781ZM13.556 3.99689C11.6407 2.35971 10.1435 2 9.05939 2V4C9.60945 4 10.6571 4.15004 12.2565 5.51718L13.556 3.99689ZM9.05939 2C8.27569 2 4.93471 2.02113 2.82723 5.80482L4.57448 6.77802C6.1331 3.97972 8.48115 4 9.05939 4V2ZM2.82723 5.80482C1.23683 8.66017 2.10005 12.0765 4.02311 14.2124L5.50945 12.8742C4.02455 11.225 3.48991 8.72521 4.57448 6.77802L2.82723 5.80482ZM4.02311 14.2124C4.32696 14.5499 5.61907 15.9053 7.77495 18.249L9.24693 16.895C7.03861 14.4943 5.81582 13.2145 5.50945 12.8742L4.02311 14.2124ZM7.77494 18.249C8.71401 19.27 9.85078 20.4677 10.811 21.5142L12.2846 20.1621C11.4145 19.2137 10.065 17.7844 9.24694 16.895L7.77494 18.249ZM10.8109 21.5142C11.0206 21.7427 11.538 22.3524 12.0148 22.8343C12.2613 23.0835 12.5385 23.3428 12.8146 23.5465C12.953 23.6485 13.1122 23.7524 13.2844 23.834C13.4475 23.9113 13.6872 24 13.9694 24V22C14.1 22 14.1665 22.0388 14.1406 22.0266C14.1239 22.0186 14.0783 21.9934 14.0017 21.9369C13.848 21.8235 13.6549 21.6484 13.4366 21.4277C12.9838 20.9701 12.5935 20.4988 12.2847 20.1621L10.8109 21.5142ZM24 23.1576C24 23.2705 23.9368 23.5206 23.4987 23.8824C23.0672 24.2388 22.3825 24.6044 21.4484 24.9307C19.5893 25.58 16.9559 26 14 26V28C17.119 28 19.9857 27.5601 22.1078 26.8188C23.1643 26.4498 24.0906 25.9875 24.7723 25.4245C25.4476 24.8668 26 24.1059 26 23.1576H24ZM14 26C11.0441 26 8.41073 25.58 6.55164 24.9307C5.61745 24.6044 4.93278 24.2388 4.50125 23.8824C4.0632 23.5206 4 23.2705 4 23.1576H2C2 24.1059 2.55243 24.8668 3.22768 25.4245C3.90943 25.9875 4.83571 26.4498 5.89216 26.8188C8.01433 27.5601 10.881 28 14 28V26ZM21.6532 21.4594C22.5214 21.7805 23.151 22.1334 23.545 22.4726C23.9426 22.8147 24 23.0492 24 23.1576H26C26 22.2453 25.4873 21.5055 24.8498 20.9568C24.2087 20.405 23.3383 19.9502 22.3468 19.5836L21.6532 21.4594ZM4 23.1576C4 23.0495 4.05731 22.8152 4.45506 22.4729C4.84929 22.1336 5.47912 21.7806 6.34775 21.4594L5.65401 19.5836C4.66226 19.9504 3.79166 20.4052 3.15053 20.9569C2.51294 21.5056 2 22.2452 2 23.1576H4ZM34.7312 22.3183L30.4702 17.7451L29.007 19.1085L33.2679 23.6817L34.7312 22.3183ZM30.4555 17.7297C30.2274 17.4951 30.0734 17.1888 30.0204 16.8527L28.0448 17.1645C28.1614 17.9029 28.5014 18.589 29.0217 19.124L30.4555 17.7297ZM30.0204 16.8527C29.9673 16.5165 30.0188 16.1725 30.1655 15.8706L28.3667 14.9964C28.0402 15.6681 27.9283 16.4263 28.0448 17.1645L30.0204 16.8527ZM30.1655 15.8706C30.2761 15.643 30.4363 15.4486 30.6308 15.3015L29.4244 13.7064C28.9751 14.0461 28.6133 14.4889 28.3667 14.9964L30.1655 15.8706ZM30.6308 15.3015C30.8251 15.1546 31.0483 15.0588 31.2818 15.0198L30.9526 13.0471C30.3974 13.1397 29.8738 13.3665 29.4244 13.7064L30.6308 15.3015ZM31.2818 15.0198C31.5152 14.9809 31.7544 14.9994 31.9804 15.0745L32.6108 13.1765C32.0765 12.999 31.5079 12.9544 30.9526 13.0471L31.2818 15.0198ZM31.9804 15.0745C32.2064 15.1496 32.4146 15.2797 32.5866 15.4567L34.0208 14.0628C33.6279 13.6585 33.145 13.3539 32.6108 13.1765L31.9804 15.0745ZM32.5867 15.4568L33.2826 16.1726L34.7166 14.7784L34.0207 14.0627L32.5867 15.4568ZM34.7162 16.173L35.4129 15.4572L33.9797 14.0622L33.283 14.778L34.7162 16.173ZM35.4134 15.4567C35.5854 15.2797 35.7935 15.1496 36.0196 15.0745L35.3892 13.1765C34.8549 13.3539 34.372 13.6585 33.9792 14.0628L35.4134 15.4567ZM36.0196 15.0745C36.2456 14.9994 36.4848 14.9809 36.7182 15.0198L37.0473 13.0471C36.4921 12.9544 35.9235 12.999 35.3892 13.1765L36.0196 15.0745ZM36.7182 15.0198C36.9516 15.0588 37.1749 15.1546 37.3692 15.3015L38.5756 13.7064C38.1262 13.3665 37.6025 13.1397 37.0473 13.0471L36.7182 15.0198ZM37.3692 15.3015C37.5636 15.4486 37.7239 15.643 37.8345 15.8706L39.6333 14.9964C39.3866 14.4889 39.0249 14.0461 38.5756 13.7064L37.3692 15.3015ZM37.8345 15.8706C37.9812 16.1725 38.0327 16.5165 37.9796 16.8527L39.9552 17.1645C40.0717 16.4263 39.9598 15.6681 39.6333 14.9964L37.8345 15.8706ZM37.9796 16.8527C37.9266 17.1888 37.7726 17.4951 37.5445 17.7297L38.9783 19.124C39.4986 18.589 39.8386 17.9029 39.9552 17.1645L37.9796 16.8527ZM37.5298 17.7451L33.268 22.3182L34.7311 23.6818L38.993 19.1086L37.5298 17.7451Z" fill="#9CA3AF"/>
</svg>
