<svg width="42" height="28" viewBox="0 0 42 28" fill="none" xmlns="http://www.w3.org/2000/svg">
<path d="M39 10.5C39 14.0899 36.0899 17 32.5 17V19C37.1944 19 41 15.1944 41 10.5H39ZM32.5 17C28.9101 17 26 14.0899 26 10.5H24C24 15.1944 27.8056 19 32.5 19V17ZM26 10.5C26 6.91015 28.9101 4 32.5 4V2C27.8056 2 24 5.80558 24 10.5H26ZM32.5 4C36.0899 4 39 6.91015 39 10.5H41C41 5.80558 37.1944 2 32.5 2V4Z" fill="#6F7D90"/>
<path d="M28 11C28 11.5523 28.4477 12 29 12C29.5523 12 30 11.5523 30 11H28ZM33 8C33.5523 8 34 7.55228 34 7C34 6.44772 33.5523 6 33 6V8ZM30 11C30 9.34315 31.3431 8 33 8V6C30.2386 6 28 8.23858 28 11H30Z" fill="#6F7D90"/>
<path d="M25.0657 10.9978C25.6168 10.9616 26.0341 10.4854 25.9978 9.93432C25.9616 9.38323 25.4854 8.96589 24.9343 9.00216L25.0657 10.9978ZM33.9527 18.3851C34.0107 17.8359 33.6124 17.3436 33.0632 17.2857C32.514 17.2277 32.0217 17.6259 31.9637 18.1752L33.9527 18.3851ZM25.5 23.9836C21.9101 23.9836 19 21.0734 19 17.4836H17C17 22.178 20.8056 25.9836 25.5 25.9836V23.9836ZM19 17.4836C19 14.0398 21.6788 11.2208 25.0657 10.9978L24.9343 9.00216C20.5031 9.29382 17 12.9792 17 17.4836H19ZM31.9637 18.1752C31.6191 21.4394 28.856 23.9836 25.5 23.9836V25.9836C29.8901 25.9836 33.5018 22.6562 33.9527 18.3851L31.9637 18.1752Z" fill="#6F7D90"/>
<path d="M15.0001 25C15.5524 25 16.0001 24.5523 16.0001 24C16.0001 23.4477 15.5524 23 15.0001 23V25ZM3 24V23V24ZM2 23H1H2ZM2 5L3 5L2 5ZM3 4V3H3L3 4ZM23.0001 5C23.5524 5 24.0001 4.55229 24.0001 4C24.0001 3.44772 23.5524 3 23.0001 3V5ZM15.0001 23H3V25H15.0001V23ZM3 23L3 5L1 5L1 23H3ZM3 5L23.0001 5V3L3 3V5ZM3 5V5L3 3C1.89543 3 1 3.89543 1 5L3 5ZM3 23H3H1C1 24.1046 1.89543 25 3 25V23Z" fill="#6F7D90"/>
<path d="M7.00009 21C7.55238 21 8.00009 20.5523 8.00009 20C8.00009 19.4477 7.55238 19 7.00009 19V21ZM6 19C5.44772 19 5 19.4477 5 20C5 20.5523 5.44772 21 6 21V19ZM7.00009 19H6V21H7.00009V19Z" fill="#6F7D90"/>
<path d="M7.00009 9C7.55238 9 8.00009 8.55228 8.00009 8C8.00009 7.44772 7.55238 7 7.00009 7V9ZM6 7C5.44772 7 5 7.44772 5 8C5 8.55228 5.44772 9 6 9V7ZM7.00009 7H6V9H7.00009V7Z" fill="#6F7D90"/>
<path d="M14.3808 17.7108C14.8915 17.5005 15.135 16.9161 14.9247 16.4054C14.7144 15.8947 14.1299 15.6512 13.6192 15.8615L14.3808 17.7108ZM13.6192 12.1385C14.1299 12.3488 14.7144 12.1053 14.9247 11.5946C15.135 11.0839 14.8915 10.4995 14.3808 10.2892L13.6192 12.1385ZM9 14C9 16.1824 10.7271 18 12.9165 18V16C11.8845 16 11 15.1314 11 14H9ZM12.9165 10C10.7271 10 9 11.8176 9 14H11C11 12.8686 11.8845 12 12.9165 12V10ZM12.9165 18C13.4327 18 13.9276 17.8975 14.3808 17.7108L13.6192 15.8615C13.4025 15.9508 13.1661 16 12.9165 16V18ZM14.3808 10.2892C13.9276 10.1025 13.4327 10 12.9165 10V12C13.1661 12 13.4025 12.0492 13.6192 12.1385L14.3808 10.2892Z" fill="#6F7D90"/>
</svg>
