<svg width="42" height="28" viewBox="0 0 42 28" fill="none" xmlns="http://www.w3.org/2000/svg">
<path d="M29.0001 11C29.0001 8.79086 30.791 7 33.0001 7M25.0001 10C21.0911 10.2573 18.0001 13.5095 18.0001 17.4836C18.0001 21.6257 21.358 24.9836 25.5001 24.9836C29.3732 24.9836 32.5606 22.0478 32.9583 18.2801M15.0001 24H3C2.44772 24 2 23.5523 2 23L2 5.00001C2 4.44772 2.44772 4.00001 3 4.00001L23.0001 4.00001M7.00011 20H6.00001M7.00011 8H6.00001M14.0001 16.7862C13.6651 16.9241 13.2995 17 12.9166 17C11.3059 17 10.0001 15.6569 10.0001 14C10.0001 12.3431 11.3059 11 12.9166 11C13.2995 11 13.6651 11.0759 14.0001 11.2138M40.0001 10.5C40.0001 14.6421 36.6422 18 32.5001 18C28.358 18 25.0001 14.6421 25.0001 10.5C25.0001 6.35786 28.358 3 32.5001 3C36.6422 3 40.0001 6.35786 40.0001 10.5Z" stroke="#6F7D90" stroke-width="2" stroke-linecap="round" stroke-linejoin="round"/>
</svg>
