<svg width="42" height="28" viewBox="0 0 42 28" fill="none" xmlns="http://www.w3.org/2000/svg">
<path d="M36.5 26.5C36.5 27.0523 36.9477 27.5 37.5 27.5C38.0523 27.5 38.5 27.0523 38.5 26.5H36.5ZM38.5 16C38.5 15.4477 38.0523 15 37.5 15C36.9477 15 36.5 15.4477 36.5 16L38.5 16ZM38.5 26.5L38.5 16L36.5 16L36.5 26.5H38.5Z" fill="#6F7D90"/>
<path d="M8 21C7.44772 21 7 21.4477 7 22C7 22.5523 7.44772 23 8 23V21ZM12 23C12.5523 23 13 22.5523 13 22C13 21.4477 12.5523 21 12 21V23ZM8 23H12V21H8V23Z" fill="#6F7D90"/>
<path d="M8 16C7.44772 16 7 16.4477 7 17C7 17.5523 7.44772 18 8 18V16ZM12 18C12.5523 18 13 17.5523 13 17C13 16.4477 12.5523 16 12 16V18ZM8 18H12V16H8V18Z" fill="#6F7D90"/>
<path d="M8 11C7.44772 11 7 11.4477 7 12C7 12.5523 7.44772 13 8 13V11ZM12 13C12.5523 13 13 12.5523 13 12C13 11.4477 12.5523 11 12 11V13ZM8 13H12V11H8V13Z" fill="#6F7D90"/>
<path d="M8 6C7.44772 6 7 6.44772 7 7C7 7.55228 7.44772 8 8 8V6ZM12 8C12.5523 8 13 7.55228 13 7C13 6.44772 12.5523 6 12 6V8ZM8 8H12V6H8V8Z" fill="#6F7D90"/>
<path d="M22.5 21C21.9477 21 21.5 21.4477 21.5 22C21.5 22.5523 21.9477 23 22.5 23V21ZM25 23C25.5523 23 26 22.5523 26 22C26 21.4477 25.5523 21 25 21V23ZM22.5 23H25V21H22.5V23Z" fill="#6F7D90"/>
<path d="M29.2422 2C29.2422 1.44772 28.7945 1 28.2422 1C27.6899 1 27.2422 1.44772 27.2422 2H29.2422ZM27.2422 2.864C27.2422 3.41628 27.6899 3.864 28.2422 3.864C28.7945 3.864 29.2422 3.41628 29.2422 2.864H27.2422ZM27.2422 2V2.864H29.2422V2H27.2422Z" fill="#6F7D90"/>
<path d="M24.4571 2.97893C24.0666 2.5884 23.4334 2.5884 23.0429 2.97893C22.6524 3.36945 22.6524 4.00262 23.0429 4.39314L24.4571 2.97893ZM23.6539 5.00414C24.0444 5.39467 24.6776 5.39467 25.0681 5.00414C25.4586 4.61362 25.4586 3.98045 25.0681 3.58993L23.6539 5.00414ZM23.0429 4.39314L23.6539 5.00414L25.0681 3.58993L24.4571 2.97893L23.0429 4.39314Z" fill="#6F7D90"/>
<path d="M22 7.24207C21.4477 7.24207 21 7.68978 21 8.24207C21 8.79435 21.4477 9.24207 22 9.24207V7.24207ZM22.864 9.24207C23.4163 9.24207 23.864 8.79435 23.864 8.24207C23.864 7.68978 23.4163 7.24207 22.864 7.24207V9.24207ZM22 9.24207H22.864V7.24207H22V9.24207Z" fill="#6F7D90"/>
<path d="M32.0426 13.3932C32.4331 13.7837 33.0663 13.7837 33.4568 13.3932C33.8473 13.0027 33.8473 12.3695 33.4568 11.979L32.0426 13.3932ZM32.8458 11.368C32.4553 10.9774 31.8221 10.9774 31.4316 11.368C31.041 11.7585 31.041 12.3917 31.4316 12.7822L32.8458 11.368ZM33.4568 11.979L32.8458 11.368L31.4316 12.7822L32.0426 13.3932L33.4568 11.979Z" fill="#6F7D90"/>
<path d="M34.3718 9.24207C34.9241 9.24207 35.3718 8.79435 35.3718 8.24207C35.3718 7.68978 34.9241 7.24207 34.3718 7.24207V9.24207ZM33.5078 7.24207C32.9555 7.24207 32.5078 7.68978 32.5078 8.24207C32.5078 8.79435 32.9555 9.24207 33.5078 9.24207V7.24207ZM34.3718 7.24207H33.5078V9.24207H34.3718V7.24207Z" fill="#6F7D90"/>
<path d="M33.4568 4.39314C33.8473 4.00262 33.8473 3.36945 33.4568 2.97893C33.0663 2.5884 32.4331 2.5884 32.0426 2.97893L33.4568 4.39314ZM31.4316 3.58993C31.041 3.98045 31.041 4.61362 31.4316 5.00414C31.8221 5.39467 32.4553 5.39467 32.8458 5.00414L31.4316 3.58993ZM32.0426 2.97893L31.4316 3.58993L32.8458 5.00414L33.4568 4.39314L32.0426 2.97893Z" fill="#6F7D90"/>
<path d="M25 8.25C25 10.0449 26.4551 11.5 28.25 11.5V9.5C27.5596 9.5 27 8.94036 27 8.25H25ZM28.25 11.5C30.0449 11.5 31.5 10.0449 31.5 8.25H29.5C29.5 8.94036 28.9404 9.5 28.25 9.5V11.5ZM31.5 8.25C31.5 6.45507 30.0449 5 28.25 5V7C28.9404 7 29.5 7.55964 29.5 8.25H31.5ZM28.25 5C26.4551 5 25 6.45507 25 8.25H27C27 7.55964 27.5596 7 28.25 7V5Z" fill="#6F7D90"/>
<path d="M37.5003 20L36.8756 20.7808C37.2408 21.073 37.7598 21.073 38.125 20.7808L37.5003 20ZM35.6599 17.247C35.2286 16.902 34.5993 16.9719 34.2543 17.4031C33.9093 17.8344 33.9792 18.4637 34.4105 18.8087L35.6599 17.247ZM40.5902 18.8087C41.0214 18.4637 41.0914 17.8344 40.7463 17.4031C40.4013 16.9719 39.772 16.902 39.3408 17.247L40.5902 18.8087ZM34.4105 18.8087L36.8756 20.7808L38.125 19.2191L35.6599 17.247L34.4105 18.8087ZM38.125 20.7808L40.5902 18.8087L39.3408 17.247L36.8756 19.2191L38.125 20.7808Z" fill="#6F7D90"/>
<path d="M37.5002 24L36.8755 24.7809C37.2407 25.073 37.7596 25.073 38.1249 24.7809L37.5002 24ZM35.6765 21.2604C35.2452 20.9154 34.6159 20.9853 34.2709 21.4166C33.9259 21.8478 33.9958 22.4771 34.4271 22.8221L35.6765 21.2604ZM40.5733 22.8221C41.0045 22.4771 41.0745 21.8478 40.7294 21.4166C40.3844 20.9853 39.7551 20.9154 39.3239 21.2604L40.5733 22.8221ZM34.4271 22.8221L36.8755 24.7809L38.1249 23.2191L35.6765 21.2604L34.4271 22.8221ZM38.1249 24.7809L40.5733 22.8221L39.3239 21.2604L36.8755 23.2191L38.1249 24.7809Z" fill="#6F7D90"/>
<path d="M41 28C41.5523 28 42 27.5523 42 27C42 26.4477 41.5523 26 41 26V28ZM1 26C0.447715 26 0 26.4477 0 27C5.96046e-08 27.5523 0.447715 28 1 28L1 26ZM41 26L1 26L1 28L41 28V26Z" fill="#6F7D90"/>
<path d="M3.00001 4L4.00001 4V4H3.00001ZM2 27C2 27.5523 2.44771 28 3 28C3.55228 28 4 27.5523 4 27H2ZM16 27C16 27.5523 16.4477 28 17 28C17.5523 28 18 27.5523 18 27H16ZM17 4L16 4V4H17ZM15 2V1V2ZM5.00001 2V3H5.00001L5.00001 2ZM2.00001 4L2 27H4L4.00001 4L2.00001 4ZM15 1L5.00001 1L5.00001 3L15 3V1ZM16 4V27H18V4H16ZM4.00001 4C4.00001 3.44772 4.44772 3 5.00001 3V1C3.34316 1 2.00001 2.34315 2.00001 4H4.00001ZM15 3C15.5523 3 16 3.44772 16 4L18 4C18 2.34315 16.6569 1 15 1V3Z" fill="#6F7D90"/>
<path d="M23 16V17V16ZM17 15C16.4477 15 16 15.4477 16 16C16 16.5523 16.4477 17 17 17L17 15ZM25 18L24 18V18H25ZM24 27C24 27.5523 24.4477 28 25 28C25.5523 28 26 27.5523 26 27H24ZM23 15L17 15L17 17L23 17V15ZM24 18V27H26V18H24ZM23 17C23.5523 17 24 17.4477 24 18L26 18C26 16.3431 24.6569 15 23 15V17Z" fill="#6F7D90"/>
</svg>
