<svg width="42" height="28" viewBox="0 0 42 28" fill="none" xmlns="http://www.w3.org/2000/svg">
<path d="M35 18L37.5 20L40 18M35 22L37.5 24L40 22M37.5 26.5L37.5 16M2.99999 27L3 4C3 2.89543 3.89543 2 5 2L15 2C16.1046 2 17 2.89543 17 4V16M2.99999 27H17M2.99999 27L1 27M17 16V27M17 16L23 16C24.1046 16 25 16.8954 25 18V27M17 27L25 27M25 27L41 27M8 22H12M8 17H12M8 12H12M8 7H12M22.5 22H25M28.2419 2V2.864M23.75 3.68604L24.361 4.29704M22 8.24207H22.864M32.75 12.686L32.139 12.075M34.3719 8.24207H33.5079M32.75 3.68604L32.139 4.29704M26 8.25C26 9.49264 27.0073 10.5 28.25 10.5C29.4926 10.5 30.5 9.49264 30.5 8.25C30.5 7.00736 29.4926 6 28.25 6C27.0073 6 26 7.00736 26 8.25Z" stroke="#6F7D90" stroke-width="2" stroke-linecap="round" stroke-linejoin="round"/>
</svg>
