<svg width="42" height="28" viewBox="0 0 42 28" fill="none" xmlns="http://www.w3.org/2000/svg">
<path d="M39 12C39 11.4477 38.5523 11 38 11C37.4477 11 37 11.4477 37 12H39ZM5 12C5 11.4477 4.55228 11 4 11C3.44772 11 3 11.4477 3 12H5ZM6 6H15V4H6V6ZM16 5V3H14V5H16ZM17 2H25V0H17V2ZM15 6H27V4H15V6ZM27 6H36V4H27V6ZM26 3V5H28V3H26ZM25 2C25.5523 2 26 2.44772 26 3H28C28 1.34315 26.6569 0 25 0V2ZM3 24C3 25.6569 4.34315 27 6 27V25C5.44772 25 5 24.5523 5 24H3ZM37 24C37 24.5523 36.5523 25 36 25V27C37.6569 27 39 25.6569 39 24H37ZM36 6C36.5523 6 37 6.44772 37 7H39C39 5.34315 37.6569 4 36 4V6ZM16 3C16 2.44772 16.4477 2 17 2V0C15.3431 0 14 1.34315 14 3H16ZM6 4C4.34315 4 3 5.34315 3 7H5C5 6.44772 5.44772 6 6 6V4ZM32 19C35.866 19 39 15.866 39 12H37C37 14.7614 34.7614 17 32 17V19ZM10 17C7.23858 17 5 14.7614 5 12H3C3 15.866 6.13401 19 10 19V17ZM19 22H23V20H19V22ZM23 14H19V16H23V14ZM23 16H25C25 14.8954 24.1046 14 23 14V16ZM23 22C24.1046 22 25 21.1046 25 20H23V22ZM19 20H17C17 21.1046 17.8954 22 19 22V20ZM19 14C17.8954 14 17 14.8954 17 16H19V14ZM5 24V7H3V24H5ZM37 7V24H39V7H37ZM36 25H6V27H36V25ZM23 19H32V17H23V19ZM10 19H19V17H10V19ZM25 20V16H23V20H25ZM17 16V20H19V16H17Z" fill="#6F7D90"/>
</svg>
