<svg width="42" height="28" viewBox="0 0 42 28" fill="none" xmlns="http://www.w3.org/2000/svg">
<path d="M23 19H19C18.4477 19 18 18.5523 18 18V14C18 13.4477 18.4477 13 19 13H23C23.5523 13 24 13.4477 24 14V18C24 18.5523 23.5523 19 23 19Z" stroke="#6F7D90" stroke-width="2" stroke-linecap="round" stroke-linejoin="round"/>
<path d="M39 10V9H37V10H39ZM24.2812 15H23.2812V17H24.2812V15ZM32 17C35.866 17 39 13.866 39 10H37C37 12.7614 34.7614 15 32 15V17ZM24.2812 17H32V15H24.2812V17Z" fill="#6F7D90"/>
<path d="M5 10V9H3V10H5ZM17.75 17H18.75V15H17.75V17ZM10 15C7.23858 15 5 12.7614 5 10H3C3 13.866 6.13401 17 10 17V15ZM10 17H17.75V15H10V17Z" fill="#6F7D90"/>
<path d="M3 24C3 25.6569 4.34315 27 6 27V25C5.44772 25 5 24.5523 5 24H3ZM37 24C37 24.5523 36.5523 25 36 25V27C37.6569 27 39 25.6569 39 24H37ZM36 6C36.5523 6 37 6.44772 37 7H39C39 5.34315 37.6569 4 36 4V6ZM6 4C4.34315 4 3 5.34315 3 7H5C5 6.44772 5.44772 6 6 6V4ZM5 24V7H3V24H5ZM37 7V24H39V7H37ZM36 25H6V27H36V25ZM6 6H36V4H6V6Z" fill="#6F7D90"/>
<path d="M16 5V3H14V5H16ZM17 2H25V0H17V2ZM26 3V5H28V3H26ZM25 2C25.5523 2 26 2.44772 26 3H28C28 1.34315 26.6569 0 25 0V2ZM16 3C16 2.44772 16.4477 2 17 2V0C15.3431 0 14 1.34315 14 3H16Z" fill="#6F7D90"/>
</svg>
