<svg width="42" height="28" viewBox="0 0 42 28" fill="none" xmlns="http://www.w3.org/2000/svg">
<path d="M23 21H19C18.4477 21 18 20.5523 18 20V16C18 15.4477 18.4477 15 19 15H23C23.5523 15 24 15.4477 24 16V20C24 20.5523 23.5523 21 23 21Z" stroke="#6F7D90" stroke-width="2" stroke-linecap="round" stroke-linejoin="round"/>
<path d="M39 12V11H37V12H39ZM24.2812 17H23.2812V19H24.2812V17ZM32 19C35.866 19 39 15.866 39 12H37C37 14.7614 34.7614 17 32 17V19ZM24.2812 19H32V17H24.2812V19Z" fill="#6F7D90"/>
<path d="M5 12V11H3V12H5ZM17.75 19H18.75V17H17.75V19ZM10 17C7.23858 17 5 14.7614 5 12H3C3 15.866 6.13401 19 10 19V17ZM10 19H17.75V17H10V19Z" fill="#6F7D90"/>
<path d="M3 24C3 25.6569 4.34315 27 6 27V25C5.44772 25 5 24.5523 5 24H3ZM37 24C37 24.5523 36.5523 25 36 25V27C37.6569 27 39 25.6569 39 24H37ZM36 6C36.5523 6 37 6.44772 37 7H39C39 5.34315 37.6569 4 36 4V6ZM6 4C4.34315 4 3 5.34315 3 7H5C5 6.44772 5.44772 6 6 6V4ZM5 24V7H3V24H5ZM37 7V24H39V7H37ZM36 25H6V27H36V25ZM6 6H36V4H6V6Z" fill="#6F7D90"/>
<path d="M16 5V3H14V5H16ZM17 2H25V0H17V2ZM26 3V5H28V3H26ZM25 2C25.5523 2 26 2.44772 26 3H28C28 1.34315 26.6569 0 25 0V2ZM16 3C16 2.44772 16.4477 2 17 2V0C15.3431 0 14 1.34315 14 3H16Z" fill="#6F7D90"/>
</svg>
