<svg width="42" height="28" viewBox="0 0 42 28" fill="none" xmlns="http://www.w3.org/2000/svg">
<path d="M32 24V27" stroke="#6F7D90" stroke-width="2" stroke-linecap="round" stroke-linejoin="round"/>
<path d="M10 24V27" stroke="#6F7D90" stroke-width="2" stroke-linecap="round" stroke-linejoin="round"/>
<path d="M33 13V18H9V13C9 11.8954 8.10457 11 7 11H5C3.89543 11 3 11.8954 3 13V18C3 21.3137 5.68629 24 9 24H33C36.3137 24 39 21.3137 39 18V13C39 11.8954 38.1046 11 37 11H35C33.8954 11 33 11.8954 33 13Z" stroke="#6F7D90" stroke-width="2" stroke-linecap="round" stroke-linejoin="round"/>
<path d="M21 18V2" stroke="#6F7D90" stroke-width="2" stroke-linecap="round" stroke-linejoin="round"/>
<path d="M6 11V9C6 5.13401 9.13401 2 13 2H29C32.866 2 36 5.13401 36 9V11" stroke="#6F7D90" stroke-width="2" stroke-linecap="round" stroke-linejoin="round"/>
</svg>
