<svg width="42" height="28" viewBox="0 0 42 28" fill="none" xmlns="http://www.w3.org/2000/svg">
<path d="M6 11V9C6 5.13401 9.13401 2 13 2H21M36 11V9C36 5.13401 32.866 2 29 2H21M36 11H35C33.8954 11 33 11.8954 33 13V18H21M36 11H37C38.1046 11 39 11.8954 39 13V18C39 21.3137 36.3137 24 33 24H32M32 24H10M32 24V27M10 24H9C5.68629 24 3 21.3137 3 18V13C3 11.8954 3.89543 11 5 11H7C8.10457 11 9 11.8954 9 13V18H21M10 24V27M21 18V2" stroke="#6F7D90" stroke-width="2" stroke-linecap="round" stroke-linejoin="round"/>
</svg>
