<svg width="42" height="28" viewBox="0 0 42 28" fill="none" xmlns="http://www.w3.org/2000/svg">
<path d="M37 7.5C37 6.94772 36.5523 6.5 36 6.5C35.4477 6.5 35 6.94772 35 7.5H37ZM35 10C35 10.5523 35.4477 11 36 11C36.5523 11 37 10.5523 37 10H35ZM35 7.5V10H37V7.5H35Z" fill="#6F7D90"/>
<path d="M40 21C40 23.7614 37.7614 26 35 26V28C38.866 28 42 24.866 42 21H40ZM35 26C32.2386 26 30 23.7614 30 21H28C28 24.866 31.134 28 35 28V26ZM30 21C30 18.2386 32.2386 16 35 16V14C31.134 14 28 17.134 28 21H30ZM35 16C37.7614 16 40 18.2386 40 21H42C42 17.134 38.866 14 35 14V16Z" fill="#6F7D90"/>
<path d="M12 21C12 23.7614 9.76142 26 7 26V28C10.866 28 14 24.866 14 21H12ZM7 26C4.23858 26 2 23.7614 2 21H0C0 24.866 3.13401 28 7 28V26ZM2 21C2 18.2386 4.23858 16 7 16V14C3.13401 14 0 17.134 0 21H2ZM7 16C9.76142 16 12 18.2386 12 21H14C14 17.134 10.866 14 7 14V16Z" fill="#6F7D90"/>
<path d="M13 10C12.4477 10 12 10.4477 12 11C12 11.5523 12.4477 12 13 12V10ZM33 8C33.5523 8 34 7.55228 34 7C34 6.44772 33.5523 6 33 6V8ZM21.4472 8.10557L22.3416 8.55279V8.55279L21.4472 8.10557ZM20 11V12C20.3788 12 20.725 11.786 20.8944 11.4472L20 11ZM13 12H20V10H13V12ZM20.8944 11.4472L22.3416 8.55279L20.5528 7.65836L19.1056 10.5528L20.8944 11.4472ZM23.2361 8H33V6H23.2361V8ZM22.3416 8.55279C22.511 8.214 22.8573 8 23.2361 8V6C22.0998 6 21.061 6.64201 20.5528 7.65836L22.3416 8.55279Z" fill="#6F7D90"/>
<path d="M5 7C4.44772 7 4 7.44772 4 8C4 8.55228 4.44772 9 5 9V7ZM10.5 8L11.2682 7.35982C11.0782 7.13182 10.7968 7 10.5 7V8ZM13 11L13.7809 10.3753C13.7767 10.3701 13.7725 10.3649 13.7682 10.3598L13 11ZM17 16H18C18 15.7729 17.9227 15.5526 17.7809 15.3753L17 16ZM17 21H16C16 21.5523 16.4477 22 17 22V21ZM23 21V22C23.3788 22 23.725 21.786 23.8944 21.4472L23 21ZM27 13L26.6154 12.0769C26.3939 12.1692 26.2129 12.3381 26.1056 12.5528L27 13ZM33 10.5L33.3846 11.4231C33.7573 11.2678 34 10.9037 34 10.5H33ZM34 7C34 6.44772 33.5523 6 33 6C32.4477 6 32 6.44772 32 7H34ZM5 9H10.5V7H5V9ZM16 16V21H18V16H16ZM17 22H23V20H17V22ZM23.8944 21.4472L27.8944 13.4472L26.1056 12.5528L22.1056 20.5528L23.8944 21.4472ZM9.73178 8.64018L12.2318 11.6402L13.7682 10.3598L11.2682 7.35982L9.73178 8.64018ZM12.2191 11.6247L16.2191 16.6247L17.7809 15.3753L13.7809 10.3753L12.2191 11.6247ZM34 10.5V7H32V10.5H34ZM27.3846 13.9231L33.3846 11.4231L32.6154 9.57692L26.6154 12.0769L27.3846 13.9231Z" fill="#6F7D90"/>
<path d="M17.4061 16.9138C17.9108 16.6895 18.1381 16.0985 17.9138 15.5939C17.6895 15.0892 17.0985 14.8619 16.5939 15.0862L17.4061 16.9138ZM12.0939 17.0862C11.5892 17.3105 11.3619 17.9015 11.5862 18.4061C11.8105 18.9108 12.4015 19.1381 12.9061 18.9138L12.0939 17.0862ZM12.9061 18.9138L17.4061 16.9138L16.5939 15.0862L12.0939 17.0862L12.9061 18.9138Z" fill="#6F7D90"/>
<path d="M32.4188 7.81373C32.8682 8.13474 33.4927 8.03065 33.8137 7.58124C34.1347 7.13183 34.0307 6.50728 33.5812 6.18627L32.4188 7.81373ZM26.5812 1.18627C26.1318 0.865258 25.5073 0.969349 25.1863 1.41876C24.8653 1.86817 24.9693 2.49272 25.4188 2.81373L26.5812 1.18627ZM33.5812 6.18627L26.5812 1.18627L25.4188 2.81373L32.4188 7.81373L33.5812 6.18627Z" fill="#6F7D90"/>
<path d="M31.1318 15.9961C31.4058 16.4757 32.0166 16.6423 32.4961 16.3682C32.9757 16.0942 33.1423 15.4834 32.8682 15.0039L31.1318 15.9961ZM30.8682 11.5039C30.5942 11.0243 29.9834 10.8577 29.5039 11.1318C29.0243 11.4058 28.8577 12.0166 29.1318 12.4961L30.8682 11.5039ZM32.8682 15.0039L30.8682 11.5039L29.1318 12.4961L31.1318 15.9961L32.8682 15.0039Z" fill="#6F7D90"/>
</svg>
