<svg width="42" height="28" viewBox="0 0 42 28" fill="none" xmlns="http://www.w3.org/2000/svg">
<path d="M36 7.5V10M5 8H10.5L13 11M17 16V21H23L27 13L33 10.5V7M17 16L13 11M17 16L12.5 18M13 11H20L21.4472 8.10557C21.786 7.428 22.4785 7 23.2361 7H33M33 7L26 2M32 15.5L30 12M41 21C41 24.3137 38.3137 27 35 27C31.6863 27 29 24.3137 29 21C29 17.6863 31.6863 15 35 15C38.3137 15 41 17.6863 41 21ZM13 21C13 24.3137 10.3137 27 7 27C3.68629 27 1 24.3137 1 21C1 17.6863 3.68629 15 7 15C10.3137 15 13 17.6863 13 21Z" stroke="#9CA3AF" stroke-width="2" stroke-linecap="round" stroke-linejoin="round"/>
</svg>
