<svg width="42" height="28" viewBox="0 0 42 28" fill="none" xmlns="http://www.w3.org/2000/svg">
<g clip-path="url(#clip0_1883_1207)">
<path fill-rule="evenodd" clip-rule="evenodd" d="M2.83712 12.6667C0.2457 15.2581 0.2457 19.462 2.83712 22.0534C5.42854 24.6448 9.6324 24.6448 12.2238 22.0534C14.8152 19.462 14.8152 15.2581 12.2238 12.6667C9.6324 10.0753 5.42854 10.0753 2.83712 12.6667ZM29.5451 12.6667C26.9537 15.2581 26.9537 19.462 29.5451 22.0534C32.1366 24.6448 36.3404 24.6448 38.9318 22.0534C41.5233 19.462 41.5233 15.2581 38.9318 12.6667C36.3404 10.0753 32.1366 10.0753 29.5451 12.6667Z" fill="#004046"/>
<path d="M34.2391 17.3602C34.2391 9.99481 28.25 4 20.8846 4C13.5192 4 7.52441 9.99481 7.52441 17.3602H34.2391Z" fill="#FF8752"/>
</g>
<defs>
<clipPath id="clip0_1883_1207">
<rect width="39.9885" height="20" fill="white" transform="translate(0.890625 4)"/>
</clipPath>
</defs>
</svg>
