<svg width="42" height="28" viewBox="0 0 42 28" fill="none" xmlns="http://www.w3.org/2000/svg">
<path d="M2.83712 22.0534C0.2457 19.462 0.2457 15.2581 2.83712 12.6667C5.42854 10.0753 9.6324 10.0753 12.2238 12.6667C14.8152 15.2581 14.8152 19.462 12.2238 22.0534C9.6324 24.6448 5.42854 24.6448 2.83712 22.0534Z" fill="#004046"/>
<path d="M29.5451 22.0534C26.9537 19.462 26.9537 15.2581 29.5451 12.6667C32.1366 10.0753 36.3404 10.0753 38.9318 12.6667C41.5233 15.2581 41.5233 19.462 38.9318 22.0534C36.3404 24.6448 32.1366 24.6448 29.5451 22.0534Z" fill="#004046"/>
<path d="M34.2391 17.3602C34.2391 9.99481 28.25 4 20.8846 4C13.5192 4 7.52441 9.99481 7.52441 17.3602H34.2391Z" fill="#FF8752"/>
</svg>
