<svg width="42" height="28" viewBox="0 0 42 28" fill="none" xmlns="http://www.w3.org/2000/svg">
<path d="M6 7C6 6.44772 5.55228 6 5 6C4.44772 6 4 6.44772 4 7H6ZM4 24C4 24.5523 4.44772 25 5 25C5.55228 25 6 24.5523 6 24H4ZM11 15C11 14.4477 10.5523 14 10 14C9.44772 14 9 14.4477 9 15H11ZM9 24C9 24.5523 9.44772 25 10 25C10.5523 25 11 24.5523 11 24H9ZM24 25H25H24ZM24 18H23H24ZM20 18H19H20ZM20 25H21H20ZM13 2H31V0H13V2ZM32 3V5H34V3H32ZM31 6H13V8H31V6ZM12 5V3H10V5H12ZM13 6C12.4477 6 12 5.55229 12 5H10C10 6.65685 11.3431 8 13 8V6ZM32 5C32 5.55228 31.5523 6 31 6V8C32.6569 8 34 6.65685 34 5H32ZM31 2C31.5523 2 32 2.44772 32 3H34C34 1.34315 32.6569 0 31 0V2ZM13 0C11.3431 0 10 1.34315 10 3H12C12 2.44772 12.4477 2 13 2V0ZM4 7V24H6V7H4ZM9 15V24H11V15H9ZM21 25V18H19V25H21ZM23 18V25H25V18H23ZM23 25C23 25.5523 22.5523 26 22 26V28C23.6569 28 25 26.6569 25 25H23ZM22 17C22.5523 17 23 17.4477 23 18H25C25 16.3431 23.6569 15 22 15V17ZM21 18C21 17.4477 21.4477 17 22 17V15C20.3431 15 19 16.3431 19 18H21ZM19 25C19 26.6569 20.3431 28 22 28V26C21.4477 26 21 25.5523 21 25H19ZM33 5H35V3H33V5ZM36 6V10H38V6H36ZM35 11H24V13H35V11ZM21 14V16H23V14H21ZM24 11C22.3431 11 21 12.3431 21 14H23C23 13.4477 23.4477 13 24 13V11ZM36 10C36 10.5523 35.5523 11 35 11V13C36.6569 13 38 11.6569 38 10H36ZM35 5C35.5523 5 36 5.44772 36 6H38C38 4.34315 36.6569 3 35 3V5Z" fill="#6F7D90"/>
</svg>
