<svg width="42" height="28" viewBox="0 0 42 28" fill="none" xmlns="http://www.w3.org/2000/svg">
<path d="M24 1L24.6247 0.219131C24.2595 -0.0730437 23.7405 -0.0730437 23.3753 0.219131L24 1ZM8.3753 12.2191C7.94404 12.5641 7.87412 13.1934 8.21913 13.6247C8.56414 14.056 9.19343 14.1259 9.6247 13.7809L8.3753 12.2191ZM38.3753 13.7809C38.8066 14.1259 39.4359 14.056 39.7809 13.6247C40.1259 13.1934 40.056 12.5641 39.6247 12.2191L38.3753 13.7809ZM23.3753 0.219131L8.3753 12.2191L9.6247 13.7809L24.6247 1.78087L23.3753 0.219131ZM39.6247 12.2191L24.6247 0.219131L23.3753 1.78087L38.3753 13.7809L39.6247 12.2191Z" fill="#6F7D90"/>
<path d="M11 27C11 27.5523 11.4477 28 12 28C12.5523 28 13 27.5523 13 27H11ZM13 10.6C13 10.0477 12.5523 9.59998 12 9.59998C11.4477 9.59998 11 10.0477 11 10.6H13ZM13 27V10.6H11V27H13Z" fill="#6F7D90"/>
<path d="M9 23H8C8 23.5523 8.44772 24 9 24V23ZM11 25C11 25.5523 11.4477 26 12 26C12.5523 26 13 25.5523 13 25H11ZM41 28C41.5523 28 42 27.5523 42 27C42 26.4477 41.5523 26 41 26V28ZM5 26C3.34315 26 2 24.6569 2 23H0C0 25.7614 2.23858 28 5 28V26ZM2 23C2 21.3431 3.34315 20 5 20V18C2.23858 18 0 20.2386 0 23H2ZM5 20C6.65685 20 8 21.3431 8 23H10C10 20.2386 7.76142 18 5 18V20ZM9 24H10V22H9V24ZM10 24C10.5523 24 11 24.4477 11 25H13C13 23.3431 11.6569 22 10 22V24ZM41 26H5V28H41V26Z" fill="#6F7D90"/>
<path d="M35 27C35 27.5523 35.4477 28 36 28C36.5523 28 37 27.5523 37 27H35ZM36 5H37C37 4.44772 36.5523 4 36 4V5ZM32 5V4C31.4477 4 31 4.44772 31 5H32ZM31 7.4C31 7.95228 31.4477 8.4 32 8.4C32.5523 8.4 33 7.95228 33 7.4H31ZM36 4H32V6H36V4ZM31 5V7.4H33V5H31ZM37 27V5H35V27H37Z" fill="#6F7D90"/>
<path d="M26 26C26 26.5523 26.4477 27 27 27C27.5523 27 28 26.5523 28 26H26ZM27 20L26 20V20H27ZM26 19V18V19ZM22 19L22 20H22V19ZM21 20L20 20V20H21ZM20 26C20 26.5523 20.4477 27 21 27C21.5523 27 22 26.5523 22 26H20ZM28 26V20H26V26H28ZM26 18H22V20H26V18ZM20 20V26H22V20H20ZM22 18C20.8954 18 20 18.8954 20 20L22 20L22 20L22 18ZM28 20C28 18.8954 27.1046 18 26 18V20V20L28 20Z" fill="#6F7D90"/>
<path d="M20 10.25V12.75H22V10.25H20ZM22.2857 15H25.7143V13H22.2857V15ZM28 12.75V10.25H26V12.75H28ZM25.7143 8H22.2857V10H25.7143V8ZM28 10.25C28 8.98099 26.9499 8 25.7143 8V10C25.8988 10 26 10.1383 26 10.25H28ZM25.7143 15C26.9499 15 28 14.019 28 12.75H26C26 12.8617 25.8988 13 25.7143 13V15ZM20 12.75C20 14.019 21.0501 15 22.2857 15V13C22.1012 13 22 12.8617 22 12.75H20ZM22 10.25C22 10.1383 22.1012 10 22.2857 10V8C21.0501 8 20 8.98099 20 10.25H22Z" fill="#6F7D90"/>
</svg>
