<svg width="42" height="28" viewBox="0 0 42 28" fill="none" xmlns="http://www.w3.org/2000/svg">
<path d="M9 13L24 1L39 13M36 27H12M36 27H41M36 27V5H32V7.4M12 27V10.6M12 27H5C2.79086 27 1 25.2091 1 23C1 20.7909 2.79086 19 5 19C7.20914 19 9 20.7909 9 23H10C11.1046 23 12 23.8954 12 25V27ZM27 26V20C27 19.4477 26.5523 19 26 19H22C21.4477 19 21 19.4477 21 20V26M21 10.25V12.75C21 13.4404 21.5756 14 22.2857 14H25.7143C26.4244 14 27 13.4404 27 12.75V10.25C27 9.55964 26.4244 9 25.7143 9H22.2857C21.5756 9 21 9.55964 21 10.25Z" stroke="#9CA3AF" stroke-width="2" stroke-linecap="round" stroke-linejoin="round"/>
</svg>
