<svg width="42" height="28" viewBox="0 0 42 28" fill="none" xmlns="http://www.w3.org/2000/svg">
<path d="M34.9998 24.9999L38.638 17.7235C38.8042 17.3911 38.5625 16.9999 38.1908 16.9999H3.809C3.43731 16.9999 3.19556 17.3911 3.36178 17.7235L6.99996 24.9999M0.999994 26.9186C2.44787 27.1148 3.9175 26.9545 5.30155 26.4495C6.68561 25.9446 7.94917 25.1076 8.99995 23.9999C9.75785 24.9187 10.6835 25.6533 11.717 26.156C12.7505 26.6588 13.8689 26.9185 14.9999 26.9185C16.1309 26.9185 17.2493 26.6588 18.2828 26.156C19.3163 25.6533 20.242 24.9187 20.9999 23.9999C21.7578 24.9187 22.6834 25.6533 23.7169 26.156C24.7505 26.6588 25.8689 26.9185 26.9998 26.9185C28.1308 26.9185 29.2492 26.6588 30.2828 26.156C31.3163 25.6533 32.2419 24.9187 32.9998 23.9999C34.0506 25.1076 35.3141 25.9446 36.6982 26.4495C38.0823 26.9545 39.5519 27.1148 40.9998 26.9186M12.9999 1.99999L10.9999 3.99998L8.99995 1.99999M6.99996 7.99995L4.99997 9.99994L2.99998 7.99995M20.9999 16.9999V12.9999M20.9999 12.9999H34.9998L20.9999 0.999994V12.9999Z" stroke="#9CA3AF" stroke-width="2" stroke-linecap="round" stroke-linejoin="round"/>
</svg>
