<svg width="42" height="28" viewBox="0 0 42 28" fill="none" xmlns="http://www.w3.org/2000/svg">
<path d="M38.6384 17.7236L37.744 17.2764V17.2764L38.6384 17.7236ZM34.1058 24.5528C33.8588 25.0468 34.059 25.6474 34.553 25.8944C35.047 26.1414 35.6477 25.9412 35.8946 25.4472L34.1058 24.5528ZM3.36203 17.7236L4.25645 17.2764L4.25645 17.2764L3.36203 17.7236ZM6.10579 25.4472C6.35278 25.9412 6.95346 26.1414 7.44744 25.8944C7.94141 25.6474 8.14164 25.0468 7.89465 24.5528L6.10579 25.4472ZM3.80924 18H38.1912V16H3.80924V18ZM37.744 17.2764L34.1058 24.5528L35.8946 25.4472L39.5328 18.1708L37.744 17.2764ZM2.4676 18.1708L6.10579 25.4472L7.89465 24.5528L4.25645 17.2764L2.4676 18.1708ZM38.1912 18C37.8195 18 37.5778 17.6088 37.744 17.2764L39.5328 18.1708C40.0315 17.1735 39.3063 16 38.1912 16V18ZM3.80924 16C2.69417 16 1.96892 17.1735 2.4676 18.1708L4.25645 17.2764C4.42268 17.6088 4.18093 18 3.80924 18V16Z" fill="#6F7D90"/>
<path d="M1.13424 25.9278C0.586956 25.8537 0.0831911 26.2373 0.00905138 26.7846C-0.0650883 27.3318 0.318472 27.8356 0.865758 27.9097L1.13424 25.9278ZM9 24L9.77143 23.3637C9.58917 23.1427 9.3209 23.0105 9.03464 23.0006C8.74838 22.9907 8.4716 23.104 8.27448 23.3118L9 24ZM21 24L21.7714 23.3637C21.5815 23.1334 21.2985 23 21 23C20.7015 23 20.4185 23.1334 20.2286 23.3637L21 24ZM33 24L33.7255 23.3118C33.5284 23.104 33.2516 22.9907 32.9654 23.0006C32.6791 23.0105 32.4108 23.1427 32.2286 23.3637L33 24ZM36.6984 26.4497L36.3557 27.3891L36.6984 26.4497ZM41.073 27.9179C41.6207 27.8471 42.0074 27.3457 41.9366 26.798C41.8659 26.2503 41.3645 25.8636 40.8167 25.9343L41.073 27.9179ZM0.865758 27.9097C2.47586 28.1279 4.10913 27.9492 5.64433 27.3891L4.95884 25.5103C3.7259 25.9601 2.41991 26.102 1.13424 25.9278L0.865758 27.9097ZM5.64433 27.3891C7.17906 26.8292 8.57228 25.904 9.72552 24.6882L8.27448 23.3118C7.32614 24.3116 6.19224 25.0603 4.95884 25.5103L5.64433 27.3891ZM8.22857 24.6363C9.07428 25.6616 10.1125 26.4877 11.2796 27.0554L12.1545 25.2569C11.2546 24.8191 10.4415 24.1761 9.77143 23.3637L8.22857 24.6363ZM11.2796 27.0554C12.4472 27.6233 13.7149 27.9187 15 27.9187V25.9187C14.0231 25.9187 13.054 25.6945 12.1545 25.2569L11.2796 27.0554ZM15 27.9187C16.2851 27.9187 17.5528 27.6233 18.7204 27.0554L17.8455 25.2569C16.946 25.6945 15.9769 25.9187 15 25.9187V27.9187ZM18.7204 27.0554C19.8875 26.4877 20.9257 25.6616 21.7714 24.6363L20.2286 23.3637C19.5585 24.1761 18.7454 24.8191 17.8455 25.2569L18.7204 27.0554ZM20.2286 24.6363C21.0743 25.6616 22.1125 26.4877 23.2796 27.0554L24.1545 25.2569C23.2546 24.8191 22.4415 24.1761 21.7714 23.3637L20.2286 24.6363ZM23.2796 27.0554C24.4472 27.6233 25.7149 27.9187 27 27.9187V25.9187C26.0231 25.9187 25.054 25.6945 24.1545 25.2569L23.2796 27.0554ZM27 27.9187C28.2851 27.9187 29.5528 27.6233 30.7204 27.0554L29.8455 25.2569C28.946 25.6945 27.9769 25.9187 27 25.9187V27.9187ZM30.7204 27.0554C31.8875 26.4877 32.9257 25.6616 33.7714 24.6363L32.2286 23.3637C31.5585 24.1761 30.7454 24.8191 29.8455 25.2569L30.7204 27.0554ZM32.2745 24.6882C33.4277 25.904 34.8209 26.8292 36.3557 27.3891L37.0412 25.5103C35.8078 25.0603 34.6739 24.3116 33.7255 23.3118L32.2745 24.6882ZM36.3557 27.3891C37.8713 27.9421 39.4827 28.1233 41.073 27.9179L40.8167 25.9343C39.547 26.0984 38.2585 25.9544 37.0412 25.5103L36.3557 27.3891Z" fill="#6F7D90"/>
<path d="M11 4.00004L10.2929 4.70714C10.6835 5.09767 11.3166 5.09767 11.7071 4.70714L11 4.00004ZM9.72859 1.31438C9.33807 0.923853 8.7049 0.923853 8.31438 1.31438C7.92385 1.7049 7.92385 2.33807 8.31438 2.72859L9.72859 1.31438ZM13.6857 2.72859C14.0762 2.33807 14.0762 1.7049 13.6857 1.31438C13.2952 0.923853 12.662 0.923853 12.2715 1.31438L13.6857 2.72859ZM11.7071 3.29293L9.72859 1.31438L8.31438 2.72859L10.2929 4.70714L11.7071 3.29293ZM12.2715 1.31438L10.2929 3.29293L11.7071 4.70714L13.6857 2.72859L12.2715 1.31438Z" fill="#6F7D90"/>
<path d="M5.00019 9.99994L4.29308 10.707C4.6836 11.0976 5.31677 11.0976 5.70729 10.707L5.00019 9.99994ZM3.73152 7.31706C3.341 6.92654 2.70783 6.92654 2.31731 7.31706C1.92678 7.70759 1.92678 8.34075 2.31731 8.73128L3.73152 7.31706ZM7.68306 8.73128C8.07359 8.34075 8.07359 7.70759 7.68306 7.31706C7.29254 6.92654 6.65938 6.92654 6.26885 7.31706L7.68306 8.73128ZM5.70729 9.29283L3.73152 7.31706L2.31731 8.73128L4.29308 10.707L5.70729 9.29283ZM6.26885 7.31706L4.29308 9.29283L5.70729 10.707L7.68306 8.73128L6.26885 7.31706Z" fill="#6F7D90"/>
<path d="M21 13H20C20 13.5523 20.4477 14 21 14V13ZM35 13V14C35.4185 14 35.7927 13.7394 35.9379 13.3469C36.0831 12.9545 35.9685 12.5131 35.6508 12.2407L35 13ZM21 1L21.6508 0.240743C21.3543 -0.01341 20.9369 -0.0716984 20.5821 0.0914871C20.2273 0.254673 20 0.60947 20 1L21 1ZM35.6508 12.2407L21.6508 0.240743L20.3492 1.75926L34.3492 13.7593L35.6508 12.2407ZM22 13V1H20V13H22ZM35 12H21V14H35V12Z" fill="#6F7D90"/>
<path d="M20 17C20 17.5523 20.4477 18 21 18C21.5523 18 22 17.5523 22 17H20ZM22 13C22 12.4477 21.5523 12 21 12C20.4477 12 20 12.4477 20 13H22ZM22 17V13H20V17H22Z" fill="#6F7D90"/>
</svg>
