<svg width="42" height="28" viewBox="0 0 42 28" fill="none" xmlns="http://www.w3.org/2000/svg">
<path d="M17 22H29" stroke="#9CA3AF" stroke-width="2" stroke-linecap="round" stroke-linejoin="round"/>
<path d="M17 19.5C17 20.4849 16.806 21.4602 16.4291 22.3701C16.0522 23.2801 15.4997 24.1069 14.8033 24.8033C14.1069 25.4997 13.2801 26.0522 12.3701 26.4291C11.4602 26.806 10.4849 27 9.5 27C8.51509 27 7.53982 26.806 6.62987 26.4291C5.71993 26.0522 4.89314 25.4997 4.1967 24.8033C3.50026 24.1069 2.94781 23.2801 2.5709 22.3701C2.19399 21.4602 2 20.4849 2 19.5C2 18.5151 2.19399 17.5398 2.5709 16.6299C2.94781 15.7199 3.50026 14.8931 4.1967 14.1967C4.89314 13.5003 5.71993 12.9478 6.62987 12.5709C7.53982 12.194 8.51509 12 9.5 12C10.4849 12 11.4602 12.194 12.3701 12.5709C13.2801 12.9478 14.1069 13.5003 14.8033 14.1967C15.4997 14.8931 16.0522 15.7199 16.4291 16.6299C16.806 17.5398 17 18.5151 17 19.5V19.5Z" stroke="#9CA3AF" stroke-width="2" stroke-linecap="round" stroke-linejoin="round"/>
<path d="M40 21.5C40 22.2223 39.8577 22.9375 39.5813 23.6048C39.3049 24.272 38.8998 24.8784 38.3891 25.3891C37.8784 25.8998 37.272 26.3049 36.6048 26.5813C35.9375 26.8577 35.2223 27 34.5 27C33.7777 27 33.0625 26.8577 32.3952 26.5813C31.728 26.3049 31.1216 25.8998 30.6109 25.3891C30.1002 24.8784 29.6951 24.272 29.4187 23.6048C29.1423 22.9375 29 22.2223 29 21.5C29 20.7777 29.1423 20.0625 29.4187 19.3952C29.6951 18.728 30.1002 18.1216 30.6109 17.6109C31.1216 17.1002 31.728 16.6951 32.3952 16.4187C33.0625 16.1423 33.7777 16 34.5 16C35.2223 16 35.9375 16.1423 36.6048 16.4187C37.272 16.6951 37.8784 17.1002 38.3891 17.6109C38.8998 18.1216 39.3049 18.728 39.5813 19.3952C39.8577 20.0625 40 20.7777 40 21.5V21.5Z" stroke="#9CA3AF" stroke-width="2" stroke-linecap="round" stroke-linejoin="round"/>
<path d="M32 2H29.5V7.5" stroke="#9CA3AF" stroke-width="2" stroke-linecap="round" stroke-linejoin="round"/>
<path d="M6 12.5V4C6 2.89543 6.89543 2 8 2H12.25H19.0585C19.9193 2 20.6836 2.55086 20.9558 3.36754L23.5 11" stroke="#9CA3AF" stroke-width="2" stroke-linecap="round"/>
<path d="M37.5 16.5L36.6608 12.3039C36.5673 11.8365 36.1569 11.5 35.6802 11.5H18.5L17 7.5" stroke="#9CA3AF" stroke-width="2" stroke-linecap="round"/>
<path d="M27 11V7.5H32V11" stroke="#9CA3AF" stroke-width="2" stroke-linecap="round" stroke-linejoin="round"/>
</svg>
