<svg width="42" height="28" viewBox="0 0 42 28" fill="none" xmlns="http://www.w3.org/2000/svg">
<path d="M38 7V8C38.5523 8 39 7.55228 39 7H38ZM41 16H42C42 15.6487 41.8157 15.3232 41.5145 15.1425L41 16ZM41 23V24C41.5523 24 42 23.5523 42 23H41ZM29 7V6C28.4477 6 28 6.44772 28 7H29ZM29 13H28C28 13.5523 28.4477 14 29 14V13ZM5.5 22H3V24H5.5V22ZM2 21V8H0V21H2ZM7 3H36V1H7V3ZM37 4V7H39V4H37ZM38 6H33.5V8H38V6ZM32.5769 7.38462L35.0769 13.3846L36.9231 12.6154L34.4231 6.61538L32.5769 7.38462ZM35.4855 13.8575L40.4855 16.8575L41.5145 15.1425L36.5145 12.1425L35.4855 13.8575ZM40 16V23H42V16H40ZM41 22H37V24H41V22ZM33.5 6H29V8H33.5V6ZM28 7V13H30V7H28ZM29 14H36V12H29V14ZM5 8.5V11.5H7V8.5H5ZM7.5 14H11.5V12H7.5V14ZM14 11.5V8.5H12V11.5H14ZM11.5 6H7.5V8H11.5V6ZM14 8.5C14 7.11929 12.8807 6 11.5 6V8C11.7761 8 12 8.22386 12 8.5H14ZM2 8C2 5.23858 4.23858 3 7 3V1C3.13401 1 0 4.13401 0 8H2ZM5 11.5C5 12.8807 6.11929 14 7.5 14V12C7.22386 12 7 11.7761 7 11.5H5ZM11.5 14C12.8807 14 14 12.8807 14 11.5H12C12 11.7761 11.7761 12 11.5 12V14ZM36 3C36.5523 3 37 3.44772 37 4H39C39 2.34315 37.6569 1 36 1V3ZM7 8.5C7 8.22386 7.22386 8 7.5 8V6C6.11929 6 5 7.11929 5 8.5H7ZM3 22C2.44772 22 2 21.5523 2 21H0C0 22.6569 1.34315 24 3 24V22ZM36 23C36 24.6569 34.6569 26 33 26V28C35.7614 28 38 25.7614 38 23H36ZM33 26C31.3431 26 30 24.6569 30 23H28C28 25.7614 30.2386 28 33 28V26ZM30 23C30 21.3431 31.3431 20 33 20V18C30.2386 18 28 20.2386 28 23H30ZM33 20C34.6569 20 36 21.3431 36 23H38C38 20.2386 35.7614 18 33 18V20ZM13 23C13 24.6569 11.6569 26 10 26V28C12.7614 28 15 25.7614 15 23H13ZM10 26C8.34315 26 7 24.6569 7 23H5C5 25.7614 7.23858 28 10 28V26ZM7 23C7 21.3431 8.34315 20 10 20V18C7.23858 18 5 20.2386 5 23H7ZM10 20C11.6569 20 13 21.3431 13 23H15C15 20.2386 12.7614 18 10 18V20ZM14 24H30V22H14V24Z" fill="#9CA3AF"/>
</svg>
