<svg width="32" height="32" viewBox="0 0 32 32" fill="none" xmlns="http://www.w3.org/2000/svg">
<path d="M8.42949 14.4667L7.27882 13.8667C7.18557 13.8181 7.08197 13.7927 6.97682 13.7927C6.87167 13.7927 6.76806 13.8181 6.67482 13.8667L3.98815 15.2667C3.88157 15.3223 3.76174 15.3475 3.64179 15.3395C3.52184 15.3315 3.40641 15.2906 3.30815 15.2213C3.21113 15.1525 3.1355 15.0577 3.08998 14.9477C3.04446 14.8378 3.03088 14.7173 3.05082 14.6L3.56682 11.6053C3.58425 11.5044 3.57672 11.4007 3.54488 11.3033C3.51304 11.2059 3.45786 11.1178 3.38415 11.0467L1.19215 8.92534C1.10716 8.84308 1.04706 8.73853 1.01877 8.62368C0.990466 8.50884 0.995106 8.38834 1.03215 8.27601C1.07011 8.16315 1.13873 8.06309 1.23033 7.98703C1.32194 7.91096 1.43291 7.8619 1.55082 7.84534L4.56815 7.40934C4.67127 7.3947 4.76929 7.35526 4.85382 7.29442C4.93835 7.23358 5.00687 7.15314 5.05349 7.06001L6.40015 4.34801C6.45396 4.24073 6.53662 4.15058 6.63884 4.08769C6.74107 4.0248 6.8588 3.99167 6.97882 3.99201M23.5708 14.4667L24.7215 13.8653C24.8147 13.8167 24.9183 13.7914 25.0235 13.7914C25.1286 13.7914 25.2322 13.8167 25.3255 13.8653L28.0121 15.2667C28.1187 15.3223 28.2385 15.3475 28.3585 15.3395C28.4784 15.3315 28.5939 15.2906 28.6921 15.2213C28.7892 15.1525 28.8648 15.0577 28.9103 14.9477C28.9558 14.8378 28.9694 14.7173 28.9495 14.6L28.4335 11.6053C28.416 11.5044 28.4236 11.4007 28.4554 11.3033C28.4872 11.2059 28.5424 11.1178 28.6161 11.0467L30.8081 8.92001C30.8931 8.83775 30.9532 8.7332 30.9815 8.61835C31.0098 8.5035 31.0052 8.38301 30.9681 8.27067C30.9302 8.15782 30.8616 8.05776 30.77 7.98169C30.6783 7.90563 30.5674 7.85657 30.4495 7.84001L27.4321 7.40401C27.329 7.38936 27.231 7.34993 27.1465 7.28909C27.0619 7.22824 26.9934 7.14781 26.9468 7.05467L25.6001 4.34801C25.5463 4.24073 25.4637 4.15058 25.3614 4.08769C25.2592 4.0248 25.1415 3.99167 25.0215 3.99201M4 20H28M4 30H28M4 25H22.6667M15.4214 2.356C15.4754 2.24885 15.558 2.15879 15.6602 2.09587C15.7624 2.03295 15.88 1.99963 16 1.99963C16.12 1.99963 16.2376 2.03295 16.3398 2.09587C16.442 2.15879 16.5247 2.24885 16.5787 2.356L17.924 5.068C17.9705 5.16097 18.0388 5.2413 18.1231 5.30213C18.2074 5.36296 18.3051 5.40249 18.408 5.41734L21.4267 5.85334C21.5446 5.8699 21.6556 5.91896 21.7472 5.99502C21.8388 6.07108 21.9074 6.17115 21.9454 6.284C21.9826 6.39642 21.9871 6.51708 21.9586 6.632C21.93 6.74692 21.8695 6.8514 21.784 6.93334L19.6 9.05867C19.5263 9.12983 19.471 9.21789 19.4389 9.31524C19.4068 9.41258 19.399 9.51627 19.416 9.61734L19.9333 12.6133C19.9529 12.7305 19.939 12.8509 19.8932 12.9606C19.8475 13.0702 19.7717 13.1648 19.6747 13.2333C19.5769 13.3031 19.4618 13.3444 19.3419 13.3527C19.2221 13.3609 19.1024 13.3357 18.996 13.28L16.3014 11.8747C16.2085 11.8254 16.1051 11.7996 16 11.7996C15.895 11.7996 15.7915 11.8254 15.6987 11.8747L13.0107 13.28C12.9043 13.3357 12.7846 13.3609 12.6648 13.3527C12.5449 13.3444 12.4298 13.3031 12.332 13.2333C12.235 13.1648 12.1592 13.0702 12.1135 12.9606C12.0677 12.8509 12.0538 12.7305 12.0734 12.6133L12.5907 9.61734C12.6077 9.51627 12.5999 9.41258 12.5678 9.31524C12.5357 9.21789 12.4804 9.12983 12.4067 9.05867L10.216 6.93334C10.1305 6.8514 10.07 6.74692 10.0414 6.632C10.0129 6.51708 10.0175 6.39642 10.0547 6.284C10.0926 6.17115 10.1613 6.07108 10.2529 5.99502C10.3445 5.91896 10.4554 5.8699 10.5733 5.85334L13.592 5.41734C13.6949 5.40249 13.7926 5.36296 13.8769 5.30213C13.9612 5.2413 14.0295 5.16097 14.076 5.068L15.4214 2.356Z" stroke="#474445" stroke-width="1.5" stroke-linecap="round" stroke-linejoin="round"/>
</svg>
