<svg width="32" height="32" viewBox="0 0 32 32" fill="none" xmlns="http://www.w3.org/2000/svg">
<path d="M27 1H5C2.79086 1 1 2.79086 1 5V11C1 13.2091 2.79086 15 5 15H27C29.2091 15 31 13.2091 31 11V5C31 2.79086 29.2091 1 27 1Z" stroke="#71717A" stroke-width="1.5" stroke-linecap="round" stroke-linejoin="round"/>
<path d="M7 5H25" stroke="#71717A" stroke-width="1.5" stroke-linecap="round" stroke-linejoin="round"/>
<path d="M5 15V13C5 12.4696 5.21071 11.9609 5.58579 11.5858C5.96086 11.2107 6.46957 11 7 11H25C25.5304 11 26.0391 11.2107 26.4142 11.5858C26.7893 11.9609 27 12.4696 27 13V15" stroke="#71717A" stroke-width="1.5" stroke-linecap="round" stroke-linejoin="round"/>
<path d="M5.17181 29.98C5.9217 29.2299 6.34296 28.2127 6.34296 27.152C6.34296 26.0914 5.9217 25.0741 5.17181 24.324C4.80031 23.9526 4.50561 23.5116 4.30455 23.0262C4.10349 22.5409 4 22.0207 4 21.4953C4 20.97 4.10349 20.4498 4.30455 19.9645C4.50162 19.4887 4.78866 19.0556 5.14981 18.6888" stroke="#71717A" stroke-width="1.5" stroke-linecap="round" stroke-linejoin="round"/>
<path d="M15.8388 29.98C16.5887 29.2299 17.0099 28.2127 17.0099 27.152C17.0099 26.0913 16.5887 25.0741 15.8388 24.324C15.4673 23.9526 15.1726 23.5116 14.9715 23.0262C14.7705 22.5409 14.667 22.0207 14.667 21.4953C14.667 20.97 14.7705 20.4498 14.9715 19.9644C15.1683 19.4894 15.4549 19.0568 15.8153 18.6904" stroke="#71717A" stroke-width="1.5" stroke-linecap="round" stroke-linejoin="round"/>
<path d="M26.5048 29.98C27.2547 29.2299 27.676 28.2127 27.676 27.152C27.676 26.0914 27.2547 25.0741 26.5048 24.324C26.1333 23.9526 25.8386 23.5116 25.6376 23.0262C25.4365 22.5409 25.333 22.0207 25.333 21.4953C25.333 20.97 25.4365 20.4498 25.6376 19.9645C25.8349 19.4881 26.1224 19.0545 26.4843 18.6874" stroke="#71717A" stroke-width="1.5" stroke-linecap="round" stroke-linejoin="round"/>
</svg>
