<svg width="32" height="32" viewBox="0 0 32 32" fill="none" xmlns="http://www.w3.org/2000/svg">
<path fill-rule="evenodd" clip-rule="evenodd" d="M1.75 5C1.75 3.20507 3.20507 1.75 5 1.75H27C28.7949 1.75 30.25 3.20507 30.25 5V11C30.25 12.5368 29.1833 13.8245 27.75 14.163V13C27.75 12.2707 27.4603 11.5712 26.9445 11.0555C26.4288 10.5397 25.7293 10.25 25 10.25H7C6.27066 10.25 5.57118 10.5397 5.05546 11.0555C4.53973 11.5712 4.25 12.2707 4.25 13V14.163C2.81665 13.8245 1.75 12.5368 1.75 11V5ZM5 15.75H27C29.6234 15.75 31.75 13.6234 31.75 11V5C31.75 2.37665 29.6234 0.25 27 0.25H5C2.37665 0.25 0.25 2.37665 0.25 5V11C0.25 13.6234 2.37665 15.75 5 15.75ZM26.25 13V14.25H5.75V13C5.75 12.6685 5.8817 12.3505 6.11612 12.1161C6.35054 11.8817 6.66848 11.75 7 11.75H25C25.3315 11.75 25.6495 11.8817 25.8839 12.1161C26.1183 12.3505 26.25 12.6685 26.25 13ZM7 4.25C6.58579 4.25 6.25 4.58579 6.25 5C6.25 5.41421 6.58579 5.75 7 5.75H25C25.4142 5.75 25.75 5.41421 25.75 5C25.75 4.58579 25.4142 4.25 25 4.25H7ZM5.7021 19.1971C5.99502 18.9042 5.99506 18.4293 5.70219 18.1364C5.40932 17.8435 4.93445 17.8434 4.64153 18.1363C4.20036 18.5774 3.85041 19.1011 3.61165 19.6774C3.37289 20.2538 3.25 20.8715 3.25 21.4954C3.25 22.1192 3.37289 22.7369 3.61165 23.3133C3.85039 23.8896 4.2003 24.4132 4.6414 24.8543L4.64153 24.8544C5.25073 25.4638 5.59296 26.2903 5.59296 27.152C5.59296 28.0138 5.25068 28.8403 4.6414 29.4498C4.34855 29.7427 4.34863 30.2176 4.64156 30.5104C4.9345 30.8033 5.40937 30.8032 5.70222 30.5103C6.59271 29.6195 7.09296 28.4115 7.09296 27.152C7.09296 25.8925 6.59271 24.6845 5.70222 23.7938L5.7021 23.7936C5.40025 23.4918 5.16081 23.1335 4.99744 22.7392L4.98155 22.7001C4.82863 22.317 4.75 21.9081 4.75 21.4954C4.75 21.0685 4.83408 20.6458 4.99744 20.2515C5.12238 19.9499 5.29182 19.6694 5.49964 19.4191C5.56355 19.3422 5.6311 19.268 5.7021 19.1971ZM16.3692 18.1364C16.662 18.4293 16.662 18.9042 16.3691 19.1971C16.2981 19.268 16.2305 19.3422 16.1666 19.4191C15.9588 19.6694 15.7894 19.9499 15.6644 20.2515C15.5011 20.6458 15.417 21.0685 15.417 21.4954C15.417 21.9081 15.4956 22.317 15.6485 22.7001L15.6644 22.7392C15.8278 23.1335 16.0672 23.4918 16.3691 23.7936L16.3692 23.7938C17.2597 24.6845 17.7599 25.8925 17.7599 27.152C17.7599 28.4115 17.2597 29.6195 16.3692 30.5103C16.0764 30.8032 15.6015 30.8033 15.3086 30.5104C15.0156 30.2176 15.0155 29.7427 15.3084 29.4498C15.9177 28.8403 16.2599 28.0138 16.2599 27.152C16.2599 26.2903 15.9177 25.4638 15.3085 24.8544L15.3084 24.8543C14.8673 24.4132 14.5174 23.8896 14.2786 23.3133C14.0399 22.7369 13.917 22.1192 13.917 21.4954C13.917 20.8715 14.0399 20.2538 14.2786 19.6774C14.5174 19.1011 14.8674 18.5774 15.3085 18.1363C15.6014 17.8434 16.0763 17.8435 16.3692 18.1364ZM27.0351 19.1971C27.328 18.9042 27.3281 18.4293 27.0352 18.1364C26.7423 17.8435 26.2675 17.8434 25.9745 18.1363C25.5334 18.5774 25.1834 19.1011 24.9447 19.6774C24.7059 20.2538 24.583 20.8715 24.583 21.4954C24.583 22.1192 24.7059 22.7369 24.9447 23.3133C25.1834 23.8896 25.5334 24.4133 25.9745 24.8544C26.5837 25.4638 26.926 26.2903 26.926 27.152C26.926 28.0138 26.5837 28.8403 25.9744 29.4498C25.6816 29.7427 25.6816 30.2176 25.9746 30.5104C26.2675 30.8033 26.7424 30.8032 27.0352 30.5103C27.9257 29.6195 28.426 28.4115 28.426 27.152C28.426 25.8925 27.9257 24.6845 27.0352 23.7938L27.0351 23.7936C26.7333 23.4918 26.4938 23.1335 26.3305 22.7392C26.1671 22.3449 26.083 21.9222 26.083 21.4954C26.083 21.0685 26.1671 20.6458 26.3305 20.2515C26.4938 19.8572 26.7333 19.4989 27.0351 19.1971Z" fill="#767676"/>
</svg>
