<svg width="32" height="32" viewBox="0 0 32 32" fill="none" xmlns="http://www.w3.org/2000/svg">
<path d="M27 1H5C2.79086 1 1 2.79086 1 5V11C1 13.2091 2.79086 15 5 15H27C29.2091 15 31 13.2091 31 11V5C31 2.79086 29.2091 1 27 1Z" stroke="#474445" stroke-width="1.5" stroke-linecap="round" stroke-linejoin="round"/>
<path d="M7 5H25" stroke="#474445" stroke-width="1.5" stroke-linecap="round" stroke-linejoin="round"/>
<path d="M25 11H7C6.46957 11 5.96086 11.2107 5.58579 11.5858C5.21071 11.9609 5 12.4696 5 13V15H27V13C27 12.4696 26.7893 11.9609 26.4142 11.5858C26.0391 11.2107 25.5304 11 25 11Z" stroke="#474445" stroke-width="1.5" stroke-linecap="round" stroke-linejoin="round"/>
<path d="M5.17181 18.6667C4.80031 19.0381 4.50561 19.4791 4.30455 19.9645C4.10349 20.4498 4 20.97 4 21.4954C4 22.0207 4.10349 22.5409 4.30455 23.0262C4.50561 23.5116 4.80031 23.9526 5.17181 24.324C5.9217 25.0741 6.34296 26.0914 6.34296 27.152C6.34296 28.2127 5.9217 29.2299 5.17181 29.98" stroke="#474445" stroke-width="1.5" stroke-linecap="round" stroke-linejoin="round"/>
<path d="M15.8388 18.6667C15.4673 19.0381 15.1726 19.4791 14.9715 19.9645C14.7705 20.4498 14.667 20.97 14.667 21.4954C14.667 22.0207 14.7705 22.5409 14.9715 23.0262C15.1726 23.5116 15.4673 23.9526 15.8388 24.324C16.5887 25.0741 17.0099 26.0914 17.0099 27.152C17.0099 28.2127 16.5887 29.2299 15.8388 29.98" stroke="#474445" stroke-width="1.5" stroke-linecap="round" stroke-linejoin="round"/>
<path d="M26.5048 18.6667C26.1333 19.0381 25.8386 19.4791 25.6376 19.9645C25.4365 20.4498 25.333 20.97 25.333 21.4954C25.333 22.0207 25.4365 22.5409 25.6376 23.0262C25.8386 23.5116 26.1333 23.9526 26.5048 24.324C27.2547 25.0741 27.676 26.0914 27.676 27.152C27.676 28.2127 27.2547 29.2299 26.5048 29.98" stroke="#474445" stroke-width="1.5" stroke-linecap="round" stroke-linejoin="round"/>
</svg>
