<svg width="32" height="32" viewBox="0 0 32 32" fill="none" xmlns="http://www.w3.org/2000/svg">
<path d="M16 22C15.9011 22 15.8044 22.0293 15.7222 22.0843C15.64 22.1392 15.5759 22.2173 15.5381 22.3087C15.5002 22.4 15.4903 22.5006 15.5096 22.5975C15.5289 22.6945 15.5765 22.7836 15.6464 22.8536C15.7164 22.9235 15.8055 22.9711 15.9025 22.9904C15.9994 23.0097 16.1 22.9998 16.1913 22.9619C16.2827 22.9241 16.3608 22.86 16.4157 22.7778C16.4707 22.6956 16.5 22.5989 16.5 22.5C16.5 22.3674 16.4473 22.2402 16.3536 22.1464C16.2598 22.0527 16.1326 22 16 22Z" fill="#474445" stroke="#474445" stroke-width="1.5" stroke-linecap="round" stroke-linejoin="round"/>
<path d="M16 18L16 8" stroke="#474445" stroke-width="1.5" stroke-miterlimit="10" stroke-linecap="round"/>
<path d="M16 31C24.2843 31 31 24.2843 31 16C31 7.71573 24.2843 1 16 1C7.71573 1 1 7.71573 1 16C1 24.2843 7.71573 31 16 31Z" stroke="#474445" stroke-width="1.5" stroke-miterlimit="10"/>
</svg>
