<svg width="32" height="32" viewBox="0 0 32 32" fill="none" xmlns="http://www.w3.org/2000/svg">
<path fill-rule="evenodd" clip-rule="evenodd" d="M1.75 16C1.75 8.12994 8.12994 1.75 16 1.75C23.8701 1.75 30.25 8.12994 30.25 16C30.25 23.8701 23.8701 30.25 16 30.25C8.12994 30.25 1.75 23.8701 1.75 16ZM16 0.25C7.30152 0.25 0.25 7.30152 0.25 16C0.25 24.6985 7.30152 31.75 16 31.75C24.6985 31.75 31.75 24.6985 31.75 16C31.75 7.30152 24.6985 0.25 16 0.25ZM16 7.25C16.4142 7.25 16.75 7.58579 16.75 8V18C16.75 18.4142 16.4142 18.75 16 18.75C15.5858 18.75 15.25 18.4142 15.25 18V8C15.25 7.58579 15.5858 7.25 16 7.25ZM16 21C15.8022 21 15.6089 21.0586 15.4444 21.1685C15.28 21.2784 15.1518 21.4346 15.0761 21.6173C15.0004 21.8 14.9806 22.0011 15.0192 22.1951C15.0578 22.3891 15.153 22.5673 15.2929 22.7071C15.4327 22.847 15.6109 22.9422 15.8049 22.9808C15.9989 23.0194 16.2 22.9996 16.3827 22.9239C16.5654 22.8482 16.7216 22.72 16.8315 22.5556C16.9414 22.3911 17 22.1978 17 22C17 21.7348 16.8946 21.4804 16.7071 21.2929C16.5196 21.1054 16.2652 21 16 21Z" fill="#767676"/>
</svg>
