<svg width="32" height="32" viewBox="0 0 32 32" fill="none" xmlns="http://www.w3.org/2000/svg">
<path d="M2.66683 2.08334H5.3335V0.583336H2.66683V2.08334ZM5.91683 2.66667V9.33334H7.41683V2.66667H5.91683ZM5.3335 9.91667H2.66683V11.4167H5.3335V9.91667ZM2.0835 9.33334V2.66667H0.583496V9.33334H2.0835ZM2.66683 9.91667C2.34466 9.91667 2.0835 9.6555 2.0835 9.33334H0.583496C0.583496 10.4839 1.51624 11.4167 2.66683 11.4167V9.91667ZM5.91683 9.33334C5.91683 9.6555 5.65566 9.91667 5.3335 9.91667V11.4167C6.48409 11.4167 7.41683 10.4839 7.41683 9.33334H5.91683ZM5.3335 2.08334C5.65566 2.08334 5.91683 2.3445 5.91683 2.66667H7.41683C7.41683 1.51608 6.48409 0.583336 5.3335 0.583336V2.08334ZM2.66683 0.583336C1.51624 0.583336 0.583496 1.51608 0.583496 2.66667H2.0835C2.0835 2.3445 2.34466 2.08334 2.66683 2.08334V0.583336Z" fill="#767676"/>
<path d="M2.66683 22.0833H5.3335V20.5833H2.66683V22.0833ZM5.91683 22.6667V29.3333H7.41683V22.6667H5.91683ZM5.3335 29.9167H2.66683V31.4167H5.3335V29.9167ZM2.0835 29.3333V22.6667H0.583496V29.3333H2.0835ZM2.66683 29.9167C2.34466 29.9167 2.0835 29.6555 2.0835 29.3333H0.583496C0.583496 30.4839 1.51624 31.4167 2.66683 31.4167V29.9167ZM5.91683 29.3333C5.91683 29.6555 5.65566 29.9167 5.3335 29.9167V31.4167C6.48409 31.4167 7.41683 30.4839 7.41683 29.3333H5.91683ZM5.3335 22.0833C5.65566 22.0833 5.91683 22.3445 5.91683 22.6667H7.41683C7.41683 21.5161 6.48409 20.5833 5.3335 20.5833V22.0833ZM2.66683 20.5833C1.51624 20.5833 0.583496 21.5161 0.583496 22.6667H2.0835C2.0835 22.3445 2.34466 22.0833 2.66683 22.0833V20.5833Z" fill="#767676"/>
<path d="M26.6668 2.08334H29.3335V0.583336H26.6668V2.08334ZM29.9168 2.66667V9.33334H31.4168V2.66667H29.9168ZM29.3335 9.91667H26.6668V11.4167H29.3335V9.91667ZM26.0835 9.33334V2.66667H24.5835V9.33334H26.0835ZM26.6668 9.91667C26.3447 9.91667 26.0835 9.6555 26.0835 9.33334H24.5835C24.5835 10.4839 25.5162 11.4167 26.6668 11.4167V9.91667ZM29.9168 9.33334C29.9168 9.6555 29.6557 9.91667 29.3335 9.91667V11.4167C30.4841 11.4167 31.4168 10.4839 31.4168 9.33334H29.9168ZM29.3335 2.08334C29.6557 2.08334 29.9168 2.3445 29.9168 2.66667H31.4168C31.4168 1.51608 30.4841 0.583336 29.3335 0.583336V2.08334ZM26.6668 0.583336C25.5162 0.583336 24.5835 1.51608 24.5835 2.66667H26.0835C26.0835 2.3445 26.3447 2.08334 26.6668 2.08334V0.583336Z" fill="#767676"/>
<path d="M26.6668 22.0833H29.3335V20.5833H26.6668V22.0833ZM29.9168 22.6667V29.3333H31.4168V22.6667H29.9168ZM29.3335 29.9167H26.6668V31.4167H29.3335V29.9167ZM26.0835 29.3333V22.6667H24.5835V29.3333H26.0835ZM26.6668 29.9167C26.3447 29.9167 26.0835 29.6555 26.0835 29.3333H24.5835C24.5835 30.4839 25.5162 31.4167 26.6668 31.4167V29.9167ZM29.9168 29.3333C29.9168 29.6555 29.6557 29.9167 29.3335 29.9167V31.4167C30.4841 31.4167 31.4168 30.4839 31.4168 29.3333H29.9168ZM29.3335 22.0833C29.6557 22.0833 29.9168 22.3445 29.9168 22.6667H31.4168C31.4168 21.5161 30.4841 20.5833 29.3335 20.5833V22.0833ZM26.6668 20.5833C25.5162 20.5833 24.5835 21.5161 24.5835 22.6667H26.0835C26.0835 22.3445 26.3447 22.0833 26.6668 22.0833V20.5833Z" fill="#767676"/>
<path d="M25.3337 26.75C25.7479 26.75 26.0837 26.4142 26.0837 26C26.0837 25.5858 25.7479 25.25 25.3337 25.25V26.75ZM6.66699 25.25C6.25278 25.25 5.91699 25.5858 5.91699 26C5.91699 26.4142 6.25278 26.75 6.66699 26.75V25.25ZM6.66699 26.75H25.3337V25.25H6.66699V26.75Z" fill="#767676"/>
<path d="M13.3335 1.91667C12.9193 1.91667 12.5835 2.25246 12.5835 2.66667C12.5835 3.08089 12.9193 3.41667 13.3335 3.41667L13.3335 1.91667ZM18.6668 3.41667C19.081 3.41667 19.4168 3.08089 19.4168 2.66667C19.4168 2.25246 19.081 1.91667 18.6668 1.91667V3.41667ZM13.3335 3.41667L18.6668 3.41667V1.91667L13.3335 1.91667L13.3335 3.41667Z" fill="#767676"/>
<path d="M13.3335 28.5833C12.9193 28.5833 12.5835 28.9191 12.5835 29.3333C12.5835 29.7475 12.9193 30.0833 13.3335 30.0833V28.5833ZM18.6668 30.0833C19.081 30.0833 19.4168 29.7475 19.4168 29.3333C19.4168 28.9191 19.081 28.5833 18.6668 28.5833V30.0833ZM13.3335 30.0833H18.6668V28.5833H13.3335V30.0833Z" fill="#767676"/>
<path d="M16.7505 6C16.7505 5.58579 16.4147 5.25 16.0005 5.25C15.5863 5.25 15.2505 5.58579 15.2505 6H16.7505ZM15.2505 26C15.2505 26.4142 15.5863 26.75 16.0005 26.75C16.4147 26.75 16.7505 26.4142 16.7505 26H15.2505ZM15.2505 6V26H16.7505V6H15.2505Z" fill="#767676"/>
<path d="M25.3337 6.75C25.7479 6.75 26.0837 6.41421 26.0837 6C26.0837 5.58579 25.7479 5.25 25.3337 5.25V6.75ZM6.66699 5.25C6.25278 5.25 5.91699 5.58579 5.91699 6C5.91699 6.41421 6.25278 6.75 6.66699 6.75L6.66699 5.25ZM6.66699 6.75L25.3337 6.75V5.25L6.66699 5.25L6.66699 6.75Z" fill="#767676"/>
</svg>
