<svg width="32" height="32" viewBox="0 0 32 32" fill="none" xmlns="http://www.w3.org/2000/svg">
<path d="M16.0002 6V26M16.0002 6L25.3335 6M16.0002 6H6.66683M16.0002 26H25.3335M16.0002 26H6.66683M13.3335 2.66667L18.6668 2.66667M13.3335 29.3333H18.6668M2.66683 10.6667H5.3335C6.06988 10.6667 6.66683 10.0697 6.66683 9.33334V2.66667C6.66683 1.93029 6.06988 1.33334 5.3335 1.33334H2.66683C1.93045 1.33334 1.3335 1.93029 1.3335 2.66667V9.33334C1.3335 10.0697 1.93045 10.6667 2.66683 10.6667ZM2.66683 30.6667H5.3335C6.06988 30.6667 6.66683 30.0697 6.66683 29.3333V22.6667C6.66683 21.9303 6.06988 21.3333 5.3335 21.3333H2.66683C1.93045 21.3333 1.3335 21.9303 1.3335 22.6667V29.3333C1.3335 30.0697 1.93045 30.6667 2.66683 30.6667ZM26.6668 10.6667H29.3335C30.0699 10.6667 30.6668 10.0697 30.6668 9.33334V2.66667C30.6668 1.93029 30.0699 1.33334 29.3335 1.33334H26.6668C25.9305 1.33334 25.3335 1.93029 25.3335 2.66667V9.33334C25.3335 10.0697 25.9305 10.6667 26.6668 10.6667ZM26.6668 30.6667H29.3335C30.0699 30.6667 30.6668 30.0697 30.6668 29.3333V22.6667C30.6668 21.9303 30.0699 21.3333 29.3335 21.3333H26.6668C25.9305 21.3333 25.3335 21.9303 25.3335 22.6667V29.3333C25.3335 30.0697 25.9305 30.6667 26.6668 30.6667Z" stroke="#474445" stroke-width="1.5" stroke-linecap="round" stroke-linejoin="round"/>
</svg>
