<svg width="32" height="32" viewBox="0 0 32 32" fill="none" xmlns="http://www.w3.org/2000/svg">
<path fill-rule="evenodd" clip-rule="evenodd" d="M1.75 5.25V2.75H30.25V5.25H29H3H1.75ZM2.25 6.75H1.66667C0.884263 6.75 0.25 6.11574 0.25 5.33333V2.66667C0.25 1.88426 0.884263 1.25 1.66667 1.25H30.3333C31.1157 1.25 31.75 1.88426 31.75 2.66667V5.33333C31.75 6.11574 31.1157 6.75 30.3333 6.75H29.75V9.25H31C31.4142 9.25 31.75 9.58579 31.75 10C31.75 10.4142 31.4142 10.75 31 10.75H29.75V19.25H31C31.4142 19.25 31.75 19.5858 31.75 20C31.75 20.4142 31.4142 20.75 31 20.75H29.75V28C29.75 28.7293 29.4603 29.4288 28.9445 29.9445C28.4288 30.4603 27.7293 30.75 27 30.75H23C22.2707 30.75 21.5712 30.4603 21.0555 29.9445C20.5397 29.4288 20.25 28.7293 20.25 28V20.75H19C18.5858 20.75 18.25 20.4142 18.25 20C18.25 19.5858 18.5858 19.25 19 19.25H20.25V19C20.25 17.8728 19.8022 16.7918 19.0052 15.9948C18.2082 15.1978 17.1272 14.75 16 14.75C14.8728 14.75 13.7918 15.1978 12.9948 15.9948C12.1978 16.7918 11.75 17.8728 11.75 19V19.25H13C13.4142 19.25 13.75 19.5858 13.75 20C13.75 20.4142 13.4142 20.75 13 20.75H11.75V28C11.75 28.7293 11.4603 29.4288 10.9445 29.9445C10.4288 30.4603 9.72935 30.75 9 30.75H5C4.27065 30.75 3.57118 30.4603 3.05546 29.9445C2.53973 29.4288 2.25 28.7293 2.25 28V20.75H1C0.585786 20.75 0.25 20.4142 0.25 20C0.25 19.5858 0.585786 19.25 1 19.25H2.25V10.75H1C0.585786 10.75 0.25 10.4142 0.25 10C0.25 9.58579 0.585786 9.25 1 9.25H2.25V6.75ZM28.25 6.75V9.25H3.75V6.75H28.25ZM28.25 10.75V19.25H21.75V19C21.75 17.475 21.1442 16.0125 20.0659 14.9341C18.9875 13.8558 17.525 13.25 16 13.25C14.475 13.25 13.0125 13.8558 11.9341 14.9341C10.8558 16.0125 10.25 17.475 10.25 19V19.25H3.75V10.75H28.25ZM21.75 28V20.75H28.25V28C28.25 28.3315 28.1183 28.6495 27.8839 28.8839C27.6495 29.1183 27.3315 29.25 27 29.25H23C22.6685 29.25 22.3505 29.1183 22.1161 28.8839C21.8817 28.6495 21.75 28.3315 21.75 28ZM3.75 20.75V28C3.75 28.3315 3.8817 28.6495 4.11612 28.8839C4.35054 29.1183 4.66848 29.25 5 29.25H9C9.33152 29.25 9.64946 29.1183 9.88388 28.8839C10.1183 28.6495 10.25 28.3315 10.25 28V20.75H3.75Z" fill="#474445"/>
</svg>
