<svg width="32" height="32" viewBox="0 0 32 32" fill="none" xmlns="http://www.w3.org/2000/svg">
<path d="M19.9001 7.33333L7.87872 19.3587C7.33234 19.9246 7.03007 20.6824 7.03703 21.469C7.04399 22.2556 7.35961 23.008 7.91593 23.5641C8.47224 24.1203 9.22472 24.4356 10.0113 24.4424C10.7979 24.4491 11.5557 24.1466 12.1214 23.6L24.1414 11.5733C24.7145 11.0198 25.1715 10.3578 25.486 9.62576C25.8005 8.89373 25.966 8.10641 25.9729 7.30974C25.9798 6.51306 25.828 5.72298 25.5263 4.9856C25.2246 4.24823 24.7791 3.57831 24.2158 3.01496C23.6524 2.4516 22.9825 2.00608 22.2451 1.7044C21.5077 1.40271 20.7177 1.2509 19.921 1.25783C19.1243 1.26475 18.337 1.43027 17.605 1.74472C16.8729 2.05917 16.2109 2.51627 15.6574 3.08933L3.63605 15.1093C1.94822 16.7972 1 19.0864 1 21.4733C1 23.8603 1.94822 26.1495 3.63605 27.8373C5.32389 29.5252 7.61309 30.4734 10.0001 30.4734C12.387 30.4734 14.6762 29.5252 16.3641 27.8373L30.8309 13.3692" stroke="#71717A" stroke-width="1.5" stroke-linecap="round" stroke-linejoin="round"/>
</svg>
