<svg width="32" height="32" viewBox="0 0 32 32" fill="none" xmlns="http://www.w3.org/2000/svg">
<path d="M31.0001 13.2L16.3641 27.8373C14.6762 29.5252 12.387 30.4734 10.0001 30.4734C7.61309 30.4734 5.32389 29.5252 3.63605 27.8373C1.94822 26.1495 1 23.8603 1 21.4733C1 19.0864 1.94822 16.7972 3.63605 15.1093L15.6574 3.08933C16.2109 2.51627 16.8729 2.05917 17.605 1.74472C18.337 1.43027 19.1243 1.26475 19.921 1.25783C20.7177 1.2509 21.5077 1.40271 22.2451 1.7044C22.9825 2.00608 23.6524 2.4516 24.2158 3.01496C24.7791 3.57831 25.2246 4.24823 25.5263 4.9856C25.828 5.72298 25.9798 6.51306 25.9729 7.30974C25.966 8.10641 25.8005 8.89373 25.486 9.62576C25.1715 10.3578 24.7145 11.0198 24.1414 11.5733L12.1214 23.6C11.5557 24.1466 10.7979 24.4491 10.0113 24.4424C9.22472 24.4356 8.47224 24.1203 7.91593 23.5641C7.35961 23.008 7.04399 22.2556 7.03703 21.469C7.03007 20.6824 7.33234 19.9246 7.87872 19.3587L19.9001 7.33333" stroke="#474445" stroke-width="1.5" stroke-linecap="round" stroke-linejoin="round"/>
</svg>
