<svg width="32" height="32" viewBox="0 0 32 32" fill="none" xmlns="http://www.w3.org/2000/svg">
<path fill-rule="evenodd" clip-rule="evenodd" d="M3.41699 5C3.41699 3.20507 4.87207 1.75 6.66699 1.75C8.46192 1.75 9.91699 3.20507 9.91699 5C9.91699 6.79493 8.46192 8.25 6.66699 8.25C4.87207 8.25 3.41699 6.79493 3.41699 5ZM7.41699 9.69112C9.68398 9.33154 11.417 7.36815 11.417 5C11.417 2.37665 9.29035 0.25 6.66699 0.25C4.04364 0.25 1.91699 2.37665 1.91699 5C1.91699 7.36815 3.65 9.33154 5.91699 9.69112V15C5.91699 15.7293 6.20672 16.4288 6.72245 16.9445C7.23817 17.4603 7.93765 17.75 8.66699 17.75H10.667C10.9985 17.75 11.3165 17.8817 11.5509 18.1161C11.7853 18.3505 11.917 18.6685 11.917 19V25C11.917 25.7293 12.2067 26.4288 12.7224 26.9445C13.2382 27.4603 13.9376 27.75 14.667 27.75H18.667C19.0812 27.75 19.417 27.4142 19.417 27C19.417 26.5858 19.0812 26.25 18.667 26.25H14.667C14.3355 26.25 14.0175 26.1183 13.7831 25.8839C13.5487 25.6495 13.417 25.3315 13.417 25V19C13.417 18.2707 13.1273 17.5712 12.6115 17.0555C12.0958 16.5397 11.3963 16.25 10.667 16.25H8.66699C8.33547 16.25 8.01753 16.1183 7.78311 15.8839C7.54869 15.6495 7.41699 15.3315 7.41699 15V9.69112ZM24.667 0.25C24.2528 0.25 23.917 0.585786 23.917 1V5V9C23.917 9.41421 24.2528 9.75 24.667 9.75C25.0812 9.75 25.417 9.41421 25.417 9V5.75H26.667C27.3963 5.75 28.0958 5.46027 28.6115 4.94454C29.1273 4.42882 29.417 3.72935 29.417 3C29.417 2.27065 29.1273 1.57118 28.6115 1.05546C28.0958 0.539732 27.3963 0.25 26.667 0.25H24.667ZM26.667 4.25H25.417V1.75H26.667C26.9985 1.75 27.3165 1.8817 27.5509 2.11612C27.7853 2.35054 27.917 2.66848 27.917 3C27.917 3.33152 27.7853 3.64946 27.5509 3.88388C27.3165 4.1183 26.9985 4.25 26.667 4.25ZM24.4497 12.2822C24.766 12.1864 25.1077 12.309 25.291 12.584L27.917 16.5229V13C27.917 12.5858 28.2528 12.25 28.667 12.25C29.0812 12.25 29.417 12.5858 29.417 13V19C29.417 19.3305 29.2006 19.622 28.8843 19.7178C28.568 19.8136 28.2263 19.691 28.043 19.416L25.417 15.4771V19C25.417 19.4142 25.0812 19.75 24.667 19.75C24.2528 19.75 23.917 19.4142 23.917 19V13C23.917 12.6695 24.1333 12.378 24.4497 12.2822ZM24.1367 22.4697C24.2773 22.329 24.4681 22.25 24.667 22.25C25.9268 22.25 27.135 22.7504 28.0257 23.6412C28.9165 24.532 29.417 25.7402 29.417 27C29.417 28.2598 28.9165 29.468 28.0257 30.3588C27.135 31.2496 25.9268 31.75 24.667 31.75C24.4681 31.75 24.2773 31.671 24.1367 31.5303C23.996 31.3897 23.917 31.1989 23.917 31V23C23.917 22.8011 23.996 22.6103 24.1367 22.4697ZM25.417 30.1623C25.9984 30.0244 26.5357 29.7275 26.9651 29.2981C27.5746 28.6886 27.917 27.862 27.917 27C27.917 26.138 27.5746 25.3114 26.9651 24.7019C26.5357 24.2725 25.9984 23.9756 25.417 23.8377V30.1623Z" fill="#474445"/>
</svg>
