<svg width="32" height="32" viewBox="0 0 32 32" fill="none" xmlns="http://www.w3.org/2000/svg">
<path d="M25.0005 22.6667C25.0005 21.9303 25.5974 21.3333 26.3338 21.3333H29.0005C29.7369 21.3333 30.3338 21.9303 30.3338 22.6667V29.3333C30.3338 30.0697 29.7369 30.6667 29.0005 30.6667H26.3338C25.5974 30.6667 25.0005 30.0697 25.0005 29.3333V22.6667Z" stroke="#71717A" stroke-width="1.5" stroke-linecap="round" stroke-linejoin="round"/>
<path d="M1.6665 22.6667C1.6665 21.9303 2.26346 21.3333 2.99984 21.3333H5.6665C6.40288 21.3333 6.99984 21.9303 6.99984 22.6667V29.3333C6.99984 30.0697 6.40288 30.6667 5.6665 30.6667H2.99984C2.26346 30.6667 1.6665 30.0697 1.6665 29.3333V22.6667Z" stroke="#71717A" stroke-width="1.5" stroke-linecap="round" stroke-linejoin="round"/>
<path d="M25.0005 22.6667C25.0005 21.9303 25.5974 21.3333 26.3338 21.3333H29.0005C29.7369 21.3333 30.3338 21.9303 30.3338 22.6667V29.3333C30.3338 30.0697 29.7369 30.6667 29.0005 30.6667H26.3338C25.5974 30.6667 25.0005 30.0697 25.0005 29.3333V22.6667Z" stroke="#71717A" stroke-width="1.5" stroke-linecap="round" stroke-linejoin="round"/>
<path d="M13.3335 2.49999L18.6668 2.49999" stroke="#71717A" stroke-width="1.5" stroke-linecap="round" stroke-linejoin="round"/>
<path d="M25.3337 6H16.0003H6.66699" stroke="#71717A" stroke-width="1.5" stroke-linecap="round" stroke-linejoin="round"/>
<path d="M1.6665 22.6667C1.6665 21.9303 2.26346 21.3333 2.99984 21.3333H5.6665C6.40288 21.3333 6.99984 21.9303 6.99984 22.6667V29.3333C6.99984 30.0697 6.40288 30.6667 5.6665 30.6667H2.99984C2.26346 30.6667 1.6665 30.0697 1.6665 29.3333V22.6667Z" stroke="#71717A" stroke-width="1.5" stroke-linecap="round" stroke-linejoin="round"/>
<path d="M13.3335 29.5H18.6668" stroke="#71717A" stroke-width="1.5" stroke-linecap="round" stroke-linejoin="round"/>
<path d="M25.0003 26H7" stroke="#71717A" stroke-width="1.5" stroke-linecap="round" stroke-linejoin="round"/>
</svg>
