<svg width="32" height="32" viewBox="0 0 32 32" fill="none" xmlns="http://www.w3.org/2000/svg">
<path fill-rule="evenodd" clip-rule="evenodd" d="M13.3335 1.74999C12.9193 1.74999 12.5835 2.08578 12.5835 2.49999C12.5835 2.91421 12.9193 3.24999 13.3335 3.24999L18.6668 3.24999C19.081 3.24999 19.4168 2.91421 19.4168 2.49999C19.4168 2.08578 19.081 1.74999 18.6668 1.74999H13.3335ZM2.99984 20.5833C1.84924 20.5833 0.916504 21.5161 0.916504 22.6667V29.3333C0.916504 30.4839 1.84924 31.4167 2.99984 31.4167H5.6665C6.8171 31.4167 7.74984 30.4839 7.74984 29.3333V26.75H24.2505V29.3333C24.2505 30.4839 25.1832 31.4167 26.3338 31.4167H29.0005C30.1511 31.4167 31.0838 30.4839 31.0838 29.3333V22.6667C31.0838 21.5161 30.1511 20.5833 29.0005 20.5833H26.3338C25.2551 20.5833 24.3679 21.4031 24.2612 22.4537C24.2541 22.5237 24.2505 22.5948 24.2505 22.6667V25.25H7.74984V22.6667C7.74984 21.5161 6.8171 20.5833 5.6665 20.5833H2.99984ZM2.4165 22.6667C2.4165 22.3445 2.67767 22.0833 2.99984 22.0833H5.6665C5.98867 22.0833 6.24984 22.3445 6.24984 22.6667V29.3333C6.24984 29.6555 5.98867 29.9167 5.6665 29.9167H2.99984C2.67767 29.9167 2.4165 29.6555 2.4165 29.3333V22.6667ZM25.7505 22.6667C25.7505 22.3445 26.0117 22.0833 26.3338 22.0833H29.0005C29.3025 22.0833 29.5509 22.3129 29.5808 22.607C29.5828 22.6266 29.5838 22.6465 29.5838 22.6667V29.3333C29.5838 29.6555 29.3227 29.9167 29.0005 29.9167H26.3338C26.0117 29.9167 25.7505 29.6555 25.7505 29.3333V22.6667ZM5.91699 6C5.91699 5.58579 6.25278 5.25 6.66699 5.25H16.0003H25.3337C25.7479 5.25 26.0837 5.58579 26.0837 6C26.0837 6.41421 25.7479 6.75 25.3337 6.75H16.0003H6.66699C6.25278 6.75 5.91699 6.41421 5.91699 6ZM12.5835 29.5C12.5835 29.0858 12.9193 28.75 13.3335 28.75H18.6668C19.081 28.75 19.4168 29.0858 19.4168 29.5C19.4168 29.9142 19.081 30.25 18.6668 30.25H13.3335C12.9193 30.25 12.5835 29.9142 12.5835 29.5Z" fill="#767676"/>
</svg>
