<svg width="32" height="32" viewBox="0 0 32 32" fill="none" xmlns="http://www.w3.org/2000/svg">
<path d="M10 30V7C10 5.67392 10.6321 4.40215 11.7574 3.46447C12.8826 2.52678 14.4087 2 16 2C17.5913 2 19.1174 2.52678 20.2426 3.46447C21.3679 4.40215 22 5.67392 22 7V30M28.0863 16.867C27.9188 16.0589 27.4619 15.3313 26.7937 14.8084C26.1255 14.2855 25.2874 13.9998 24.4226 14H7.57745C6.71261 13.9998 5.87451 14.2855 5.2063 14.8084C4.53809 15.3313 4.08123 16.0589 3.91374 16.867L2.07068 25.7559C1.96386 26.2712 1.97827 26.8027 2.11286 27.3121C2.24745 27.8215 2.49888 28.2961 2.84908 28.702C3.19928 29.1078 3.63955 29.4347 4.13822 29.6591C4.6369 29.8835 5.18159 30 5.73315 30H26.2669C26.8184 30 27.3631 29.8835 27.8618 29.6591C28.3605 29.4347 28.8007 29.1078 29.1509 28.702C29.5011 28.2961 29.7526 27.8215 29.8871 27.3121C30.0217 26.8027 30.0361 26.2712 29.9293 25.7559L28.0863 16.867Z" stroke="#767676" stroke-width="1.5" stroke-linecap="round" stroke-linejoin="round"/>
</svg>
