<svg width="32" height="32" viewBox="0 0 32 32" fill="none" xmlns="http://www.w3.org/2000/svg">
<path d="M28.0863 16.867L27.3519 17.0192L27.3519 17.0192L28.0863 16.867ZM24.4226 14V14.75L24.4227 14.75L24.4226 14ZM7.57745 14L7.57726 14.75H7.57745V14ZM3.91374 16.867L4.64812 17.0192L4.64813 17.0192L3.91374 16.867ZM2.07068 25.7559L1.3363 25.6036L1.33629 25.6036L2.07068 25.7559ZM5.73315 30L5.7331 30.75H5.73315V30ZM26.2669 30V30.75H26.2669L26.2669 30ZM29.9293 25.7559L30.6637 25.6036L30.6637 25.6036L29.9293 25.7559ZM28.8207 16.7147C28.6161 15.7277 28.0595 14.8466 27.2559 14.2178L26.3315 15.3991C26.8643 15.816 27.2215 16.3901 27.3519 17.0192L28.8207 16.7147ZM27.2559 14.2178C26.453 13.5894 25.4513 13.2497 24.4224 13.25L24.4227 14.75C25.1235 14.7498 25.798 14.9816 26.3315 15.3991L27.2559 14.2178ZM24.4226 13.25H7.57745V14.75H24.4226V13.25ZM7.57764 13.25C6.54869 13.2497 5.54703 13.5894 4.7441 14.2178L5.6685 15.3991C6.20198 14.9816 6.87652 14.7498 7.57726 14.75L7.57764 13.25ZM4.7441 14.2178C3.94046 14.8466 3.38394 15.7277 3.17935 16.7147L4.64813 17.0192C4.77851 16.3901 5.13573 15.816 5.6685 15.3991L4.7441 14.2178ZM3.17936 16.7147L1.3363 25.6036L2.80506 25.9081L4.64812 17.0192L3.17936 16.7147ZM1.33629 25.6036C1.20586 26.2329 1.22351 26.882 1.38774 27.5037L2.83798 27.1205C2.73303 26.7233 2.72186 26.3095 2.80507 25.9081L1.33629 25.6036ZM1.38774 27.5037C1.55195 28.1251 1.858 28.7015 2.28127 29.192L3.41689 28.212C3.13977 27.8908 2.94295 27.5178 2.83798 27.1205L1.38774 27.5037ZM2.28127 29.192C2.70443 29.6823 3.23403 30.0746 3.83041 30.343L4.44603 28.9752C4.04506 28.7947 3.69414 28.5333 3.41689 28.212L2.28127 29.192ZM3.83041 30.343C4.4267 30.6114 5.07638 30.75 5.7331 30.75L5.7332 29.25C5.28681 29.25 4.84709 29.1557 4.44603 28.9752L3.83041 30.343ZM5.73315 30.75H26.2669V29.25H5.73315V30.75ZM26.2669 30.75C26.9236 30.75 27.5733 30.6114 28.1696 30.343L27.554 28.9752C27.1529 29.1557 26.7132 29.25 26.2668 29.25L26.2669 30.75ZM28.1696 30.343C28.766 30.0746 29.2956 29.6823 29.7187 29.192L28.5831 28.212C28.3059 28.5332 27.9549 28.7947 27.554 28.9752L28.1696 30.343ZM29.7187 29.192C30.142 28.7015 30.4481 28.1251 30.6123 27.5037L29.162 27.1205C29.057 27.5178 28.8602 27.8908 28.5831 28.212L29.7187 29.192ZM30.6123 27.5037C30.7765 26.882 30.7941 26.2329 30.6637 25.6036L29.1949 25.9081C29.2781 26.3095 29.267 26.7233 29.162 27.1205L30.6123 27.5037ZM30.6637 25.6036L28.8206 16.7147L27.3519 17.0192L29.1949 25.9081L30.6637 25.6036Z" fill="#71717A"/>
<path d="M16 2V1.25V2ZM22 7H22.75H22ZM21.25 30C21.25 30.4142 21.5858 30.75 22 30.75C22.4142 30.75 22.75 30.4142 22.75 30H21.25ZM9.25 30C9.25 30.4142 9.58579 30.75 10 30.75C10.4142 30.75 10.75 30.4142 10.75 30H9.25ZM10.75 7C10.75 5.92155 11.2631 4.85267 12.2375 4.04063L11.2772 2.8883C10.0012 3.95163 9.25 5.42629 9.25 7H10.75ZM12.2375 4.04063C13.2159 3.22527 14.5679 2.75 16 2.75V1.25C14.2495 1.25 12.5492 1.8283 11.2772 2.8883L12.2375 4.04063ZM16 2.75C17.4321 2.75 18.7841 3.22527 19.7625 4.04063L20.7228 2.8883C19.4508 1.8283 17.7505 1.25 16 1.25V2.75ZM19.7625 4.04063C20.7369 4.85267 21.25 5.92155 21.25 7H22.75C22.75 5.42629 21.9988 3.95163 20.7228 2.8883L19.7625 4.04063ZM10.75 30V7H9.25V30H10.75ZM21.25 7V30H22.75V7H21.25Z" fill="#71717A"/>
</svg>
