<svg width="32" height="32" viewBox="0 0 32 32" fill="none" xmlns="http://www.w3.org/2000/svg">
<path fill-rule="evenodd" clip-rule="evenodd" d="M15.683 1.77686C15.8811 1.67236 16.1181 1.67236 16.3162 1.77686L28.2094 8.05021C28.4392 8.17144 28.5689 8.40269 28.5587 8.63632C28.3667 13.0153 27.1477 17.2783 25.0079 21.0406C22.8667 24.8054 19.8762 27.9409 16.313 30.1728C16.121 30.2931 15.8782 30.2931 15.6862 30.1728C12.123 27.9409 9.1325 24.8054 6.99128 21.0406C4.8515 17.2783 3.63249 13.0153 3.44054 8.63632C3.43029 8.40269 3.55997 8.17144 3.78979 8.05021L15.683 1.77686ZM17.016 0.45012C16.3799 0.114609 15.6193 0.114609 14.9832 0.45012L3.08997 6.72347C2.37023 7.10311 1.9052 7.86311 1.94197 8.70201C2.14419 13.3149 3.42832 17.8101 5.68741 21.7821C7.94824 25.7572 11.1109 29.077 14.89 31.444C15.5689 31.8693 16.4303 31.8693 17.1092 31.444C20.8883 29.077 24.051 25.7572 26.3118 21.7821C28.5709 17.8101 29.855 13.3149 30.0572 8.70201C30.094 7.86311 29.629 7.10311 28.9092 6.72347L17.016 0.45012ZM22.5299 12.5303C22.8228 12.2374 22.8228 11.7626 22.5299 11.4697C22.237 11.1768 21.7622 11.1768 21.4693 11.4697L13.9996 18.9393L11.1966 16.1363C10.9037 15.8434 10.4288 15.8434 10.1359 16.1363C9.84305 16.4292 9.84305 16.9041 10.1359 17.197L13.4693 20.5303C13.6099 20.671 13.8007 20.75 13.9996 20.75C14.1985 20.75 14.3893 20.671 14.5299 20.5303L22.5299 12.5303Z" fill="#474445"/>
</svg>
