<svg width="32" height="32" viewBox="0 0 32 32" fill="none" xmlns="http://www.w3.org/2000/svg">
<path d="M6.33958 21.4114C4.14014 17.5442 2.88858 13.1651 2.69149 8.66917C2.66798 8.1329 2.96533 7.63727 3.44012 7.38684L15.3333 1.11349C15.7504 0.893484 16.2492 0.893484 16.6663 1.11349L28.5596 7.38684C29.0343 7.63727 29.3317 8.1329 29.3082 8.66917C29.1111 13.1651 27.8595 17.5442 25.6601 21.4114C23.4591 25.2813 20.3825 28.5089 16.7113 30.8084C16.2759 31.0812 15.7238 31.0812 15.2883 30.8084C11.6172 28.5089 8.5406 25.2813 6.33958 21.4114Z" stroke="#71717A" stroke-width="1.5" stroke-linecap="round" stroke-linejoin="round"/>
<path d="M10.6665 16.6667L13.9998 20L21.9998 12" stroke="#71717A" stroke-width="1.5" stroke-linecap="round" stroke-linejoin="round"/>
</svg>
