<svg width="32" height="32" viewBox="0 0 32 32" fill="none" xmlns="http://www.w3.org/2000/svg">
<rect x="5.33301" y="8" width="25.3333" height="16" rx="2.66667" stroke="#71717A" stroke-width="1.5"/>
<path d="M5.33301 12H2.66634C1.92996 12 1.33301 12.597 1.33301 13.3333V18.6667C1.33301 19.403 1.92996 20 2.66634 20H5.33301" stroke="#71717A" stroke-width="1.5"/>
<path d="M26.083 12C26.083 11.5858 25.7472 11.25 25.333 11.25C24.9188 11.25 24.583 11.5858 24.583 12H26.083ZM24.583 20C24.583 20.4142 24.9188 20.75 25.333 20.75C25.7472 20.75 26.083 20.4142 26.083 20H24.583ZM26.083 20V12H24.583V20H26.083Z" fill="#71717A"/>
</svg>
