<svg width="32" height="32" viewBox="0 0 32 32" fill="none" xmlns="http://www.w3.org/2000/svg">
<path d="M12 24.9614C13.796 23.5305 16.0098 22.7249 18.3053 22.6667H30.972" stroke="#474445" stroke-width="1.5" stroke-linecap="round" stroke-linejoin="round"/>
<path d="M29.3836 9.68C29.5805 9.61118 29.758 9.49618 29.9013 9.34463C30.0446 9.19308 30.1495 9.0094 30.2072 8.80898C30.265 8.60856 30.2738 8.39722 30.233 8.19267C30.1923 7.98813 30.1031 7.79633 29.973 7.63333C28.2872 5.52721 25.9902 3.99535 23.3979 3.24861C20.8056 2.50188 18.0456 2.57698 15.4978 3.46359C12.95 4.35019 10.7396 6.00471 9.17094 8.19939C7.60225 10.3941 6.75237 13.021 6.73829 15.7187C6.73741 15.9273 6.78657 16.1331 6.88163 16.3189C6.9767 16.5046 7.11491 16.6649 7.28467 16.7862C7.45444 16.9075 7.65081 16.9864 7.85733 17.0161C8.06385 17.0459 8.27451 17.0258 8.47163 16.9573L29.3836 9.68Z" stroke="#474445" stroke-width="1.5" stroke-linecap="round" stroke-linejoin="round"/>
<path d="M15.4989 3.464L14.6416 1" stroke="#474445" stroke-width="1.5" stroke-linecap="round" stroke-linejoin="round"/>
<path d="M18.9277 13.3187L22.6664 22.6666" stroke="#474445" stroke-width="1.5" stroke-linecap="round" stroke-linejoin="round"/>
<path d="M1 29.6667C2.08592 29.8011 3.18814 29.6913 4.22619 29.3453C5.26424 28.9992 6.21191 28.4258 7 27.6667C7.56843 28.2963 8.26266 28.7996 9.0378 29.1441C9.81295 29.4886 10.6518 29.6666 11.5 29.6666C12.3482 29.6666 13.1871 29.4886 13.9622 29.1441C14.7373 28.7996 15.4316 28.2963 16 27.6667C16.5684 28.2963 17.2627 28.7996 18.0378 29.1441C18.8129 29.4886 19.6518 29.6666 20.5 29.6666C21.3482 29.6666 22.1871 29.4886 22.9622 29.1441C23.7373 28.7996 24.4316 28.2963 25 27.6667C25.7881 28.4258 26.7358 28.9992 27.7738 29.3453C28.8119 29.6913 29.9141 29.8011 31 29.6667" stroke="#474445" stroke-width="1.5" stroke-linecap="round" stroke-linejoin="round"/>
</svg>
