<svg width="32" height="32" viewBox="0 0 32 32" fill="none" xmlns="http://www.w3.org/2000/svg">
<path d="M11.5327 24.3748C11.2087 24.6329 11.1553 25.1047 11.4134 25.4287C11.6715 25.7527 12.1434 25.8061 12.4673 25.548L11.5327 24.3748ZM18.3053 22.6667V21.9167C18.299 21.9167 18.2927 21.9168 18.2863 21.9169L18.3053 22.6667ZM30.9336 23.4167C31.3478 23.4167 31.6836 23.0809 31.6836 22.6667C31.6836 22.2525 31.3478 21.9167 30.9336 21.9167V23.4167ZM12.4673 25.548C14.1356 24.2189 16.192 23.4705 18.3243 23.4164L18.2863 21.9169C15.8276 21.9792 13.4563 22.8422 11.5327 24.3748L12.4673 25.548ZM18.3053 23.4167H30.9336V21.9167H18.3053V23.4167Z" fill="#767676"/>
<path d="M29.3836 9.68L29.6301 10.3883L29.6311 10.388L29.3836 9.68ZM29.973 7.63333L30.5591 7.16538L30.5585 7.16467L29.973 7.63333ZM6.73829 15.7187L5.9883 15.7148L5.9883 15.7155L6.73829 15.7187ZM8.47163 16.9573L8.71755 17.6659L8.71813 17.6657L8.47163 16.9573ZM29.6311 10.388C29.9411 10.2796 30.2207 10.0985 30.4463 9.85992L29.3564 8.82933C29.2954 8.89381 29.2199 8.94273 29.1361 8.97201L29.6311 10.388ZM30.4463 9.85992C30.6719 9.62131 30.8371 9.3321 30.928 9.01651L29.4865 8.60145C29.462 8.68671 29.4174 8.76486 29.3564 8.82933L30.4463 9.85992ZM30.928 9.01651C31.0188 8.70092 31.0328 8.36816 30.9686 8.04609L29.4975 8.33925C29.5148 8.42628 29.5111 8.51619 29.4865 8.60145L30.928 9.01651ZM30.9686 8.04609C30.9044 7.72402 30.764 7.42202 30.5591 7.16538L29.3869 8.10129C29.4422 8.17063 29.4802 8.25223 29.4975 8.33925L30.9686 8.04609ZM30.5585 7.16467C28.7759 4.93749 26.3468 3.31758 23.6055 2.52792L23.1903 3.96931C25.6335 4.67312 27.7986 6.11693 29.3874 8.10199L30.5585 7.16467ZM23.6055 2.52792C20.8642 1.73826 17.9456 1.81768 15.2513 2.75525L15.7443 4.17192C18.1457 3.33628 20.747 3.2655 23.1903 3.96931L23.6055 2.52792ZM15.2513 2.75525C12.5571 3.69281 10.2196 5.44243 8.56078 7.76327L9.7811 8.63551C11.2596 6.56698 13.3429 5.00757 15.7443 4.17192L15.2513 2.75525ZM8.56078 7.76327C6.90192 10.0841 6.00319 12.8621 5.9883 15.7148L7.48828 15.7226C7.50155 13.18 8.30258 10.704 9.7811 8.63551L8.56078 7.76327ZM5.9883 15.7155C5.98692 16.044 6.06431 16.3681 6.214 16.6606L7.54927 15.9772C7.50882 15.8982 7.48791 15.8106 7.48829 15.7218L5.9883 15.7155ZM6.214 16.6606C6.36369 16.9531 6.58131 17.2054 6.84861 17.3964L7.72074 16.176C7.64851 16.1244 7.58971 16.0562 7.54927 15.9772L6.214 16.6606ZM6.84861 17.3964C7.11592 17.5874 7.42512 17.7116 7.7503 17.7585L7.96436 16.2738C7.8765 16.2611 7.79296 16.2276 7.72074 16.176L6.84861 17.3964ZM7.7503 17.7585C8.07548 17.8054 8.40717 17.7736 8.71755 17.6659L8.22571 16.2488C8.14184 16.2779 8.05223 16.2865 7.96436 16.2738L7.7503 17.7585ZM8.71813 17.6657L29.6301 10.3883L29.1371 8.97167L8.22513 16.249L8.71813 17.6657Z" fill="#767676"/>
<path d="M19.6241 13.0402C19.4703 12.6556 19.0338 12.4685 18.6492 12.6223C18.2646 12.7761 18.0775 13.2126 18.2314 13.5972L19.6241 13.0402ZM21.97 22.9452C22.1238 23.3297 22.5603 23.5168 22.9449 23.363C23.3295 23.2092 23.5166 22.7727 23.3628 22.3881L21.97 22.9452ZM18.2314 13.5972L21.97 22.9452L23.3628 22.3881L19.6241 13.0402L18.2314 13.5972Z" fill="#767676"/>
<path d="M1.09212 28.9224C0.681045 28.8715 0.306556 29.1635 0.255679 29.5746C0.204802 29.9856 0.496801 30.3601 0.907878 30.411L1.09212 28.9224ZM7 27.6667L7.55669 27.1641C7.42058 27.0133 7.22915 26.9242 7.02616 26.9171C6.82318 26.9101 6.626 26.9856 6.47971 27.1265L7 27.6667ZM16 27.6667L16.5567 27.1641C16.4145 27.0066 16.2122 26.9167 16 26.9167C15.7878 26.9167 15.5855 27.0066 15.4433 27.1641L16 27.6667ZM25 27.6667L25.5203 27.1265C25.374 26.9856 25.1768 26.9101 24.9738 26.9171C24.7709 26.9242 24.5794 27.0133 24.4433 27.1641L25 27.6667ZM27.7738 29.3453L28.011 28.6337L27.7738 29.3453ZM31.066 30.4142C31.4772 30.3647 31.7704 29.9911 31.7209 29.5799C31.6714 29.1686 31.2978 28.8754 30.8866 28.925L31.066 30.4142ZM0.907878 30.411C2.10463 30.5591 3.31936 30.4381 4.46336 30.0568L3.98902 28.6337C3.05692 28.9444 2.0672 29.043 1.09212 28.9224L0.907878 30.411ZM4.46336 30.0568C5.60736 29.6754 6.65176 29.0434 7.52029 28.2069L6.47971 27.1265C5.77206 27.8081 4.92111 28.323 3.98902 28.6337L4.46336 30.0568ZM6.44331 28.1693C7.08207 28.8768 7.86217 29.4424 8.73321 29.8295L9.3424 28.4587C8.66314 28.1569 8.0548 27.7158 7.55669 27.1641L6.44331 28.1693ZM8.73321 29.8295C9.60424 30.2166 10.5468 30.4166 11.5 30.4166V28.9166C10.7567 28.9166 10.0216 28.7606 9.3424 28.4587L8.73321 29.8295ZM11.5 30.4166C12.4532 30.4166 13.3958 30.2166 14.2668 29.8295L13.6576 28.4587C12.9784 28.7606 12.2433 28.9166 11.5 28.9166V30.4166ZM14.2668 29.8295C15.1378 29.4424 15.9179 28.8768 16.5567 28.1693L15.4433 27.1641C14.9452 27.7158 14.3369 28.1569 13.6576 28.4587L14.2668 29.8295ZM15.4433 28.1693C16.0821 28.8768 16.8622 29.4424 17.7332 29.8295L18.3424 28.4587C17.6631 28.1569 17.0548 27.7158 16.5567 27.1641L15.4433 28.1693ZM17.7332 29.8295C18.6042 30.2166 19.5468 30.4166 20.5 30.4166V28.9166C19.7567 28.9166 19.0216 28.7606 18.3424 28.4587L17.7332 29.8295ZM20.5 30.4166C21.4532 30.4166 22.3958 30.2166 23.2668 29.8295L22.6576 28.4587C21.9784 28.7606 21.2433 28.9166 20.5 28.9166V30.4166ZM23.2668 29.8295C24.1378 29.4424 24.9179 28.8768 25.5567 28.1693L24.4433 27.1641C23.9452 27.7158 23.3369 28.1569 22.6576 28.4587L23.2668 29.8295ZM24.4797 28.2069C25.3482 29.0434 26.3926 29.6754 27.5366 30.0568L28.011 28.6337C27.0789 28.323 26.2279 27.8081 25.5203 27.1265L24.4797 28.2069ZM27.5366 30.0568C28.6723 30.4353 29.8777 30.5573 31.066 30.4142L30.8866 28.925C29.9184 29.0416 28.9363 28.9422 28.011 28.6337L27.5366 30.0568Z" fill="#767676"/>
<path d="M14.7898 3.7099C14.9259 4.10114 15.3533 4.30802 15.7445 4.17198C16.1358 4.03594 16.3427 3.6085 16.2066 3.21727L14.7898 3.7099ZM15.35 0.75368C15.214 0.362443 14.7865 0.155564 14.3953 0.291603C14.004 0.427641 13.7972 0.855083 13.9332 1.24632L15.35 0.75368ZM16.2066 3.21727L15.35 0.75368L13.9332 1.24632L14.7898 3.7099L16.2066 3.21727Z" fill="#767676"/>
</svg>
