<svg width="32" height="32" viewBox="0 0 32 32" fill="none" xmlns="http://www.w3.org/2000/svg">
<path d="M12 24.9613C13.796 23.5305 16.0098 22.7248 18.3053 22.6667H30.972M15.4981 3.46359C18.0459 2.57698 20.8059 2.50188 23.3982 3.24861C25.9904 3.99535 28.2875 5.52721 29.9732 7.63333C30.1034 7.79632 30.1926 7.98813 30.2333 8.19267C30.2741 8.39722 30.2652 8.60855 30.2075 8.80898C30.1498 9.0094 30.0449 9.19308 29.9016 9.34463C29.7583 9.49617 29.5808 9.61118 29.3839 9.68L8.47191 16.9573C8.27479 17.0258 8.06413 17.0459 7.85761 17.0161C7.65109 16.9864 7.45472 16.9075 7.28495 16.7862C7.11519 16.6649 6.97698 16.5046 6.88191 16.3189C6.78685 16.1331 6.73769 15.9273 6.73857 15.7187C6.75265 13.021 7.60253 10.3941 9.17122 8.19939C10.7399 6.0047 12.9503 4.35019 15.4981 3.46359ZM15.4981 3.46359L14.6415 1M18.9281 13.3187L22.6667 22.6667M1 29.6667C2.08592 29.8011 3.18814 29.6912 4.22619 29.3452C5.26424 28.9992 6.21191 28.4257 7 27.6667C7.56843 28.2963 8.26266 28.7996 9.0378 29.1441C9.81295 29.4886 10.6518 29.6666 11.5 29.6666C12.3482 29.6666 13.1871 29.4886 13.9622 29.1441C14.7373 28.7996 15.4316 28.2963 16 27.6667C16.5684 28.2963 17.2627 28.7996 18.0378 29.1441C18.8129 29.4886 19.6518 29.6666 20.5 29.6666C21.3482 29.6666 22.1871 29.4886 22.9622 29.1441C23.7373 28.7996 24.4316 28.2963 25 27.6667C25.7881 28.4257 26.7358 28.9992 27.7738 29.3452C28.8119 29.6912 29.9141 29.8011 31 29.6667" stroke="#767676" stroke-width="1.5" stroke-linecap="round" stroke-linejoin="round"/>
</svg>
