<svg width="32" height="32" viewBox="0 0 32 32" fill="none" xmlns="http://www.w3.org/2000/svg">
<path fill-rule="evenodd" clip-rule="evenodd" d="M4 1.75C3.30964 1.75 2.75 2.30964 2.75 3V10.25H5.54985C5.35814 9.87497 5.25 9.45011 5.25 9V7C5.25 5.48122 6.48122 4.25 8 4.25H12C13.5188 4.25 14.75 5.48122 14.75 7V9C14.75 9.45011 14.6419 9.87497 14.4501 10.25H17.5499C17.3581 9.87497 17.25 9.45011 17.25 9V7C17.25 5.48122 18.4812 4.25 20 4.25H24C25.5188 4.25 26.75 5.48122 26.75 7V9C26.75 9.45011 26.6419 9.87497 26.4501 10.25H29.25V3C29.25 2.30964 28.6904 1.75 28 1.75H4ZM1.25 3V11V17V29C1.25 30.5188 2.48122 31.75 4 31.75H28C29.5188 31.75 30.75 30.5188 30.75 29V17V11V3C30.75 1.48122 29.5188 0.25 28 0.25H4C2.48122 0.25 1.25 1.48122 1.25 3ZM29.25 16.25V11.75H24H20H12H8H2.75V16.25H29.25ZM2.75 17.75H29.25V29C29.25 29.6904 28.6904 30.25 28 30.25H4C3.30964 30.25 2.75 29.6904 2.75 29V17.75ZM12 10.25H8C7.30964 10.25 6.75 9.69036 6.75 9V7C6.75 6.30964 7.30964 5.75 8 5.75H12C12.6904 5.75 13.25 6.30964 13.25 7V9C13.25 9.69036 12.6904 10.25 12 10.25ZM24 10.25H20C19.3096 10.25 18.75 9.69036 18.75 9V7C18.75 6.30964 19.3096 5.75 20 5.75H24C24.6904 5.75 25.25 6.30964 25.25 7V9C25.25 9.69036 24.6904 10.25 24 10.25Z" fill="#474445"/>
</svg>
