<svg width="32" height="32" viewBox="0 0 32 32" fill="none" xmlns="http://www.w3.org/2000/svg">
<path fill-rule="evenodd" clip-rule="evenodd" d="M16.4161 0.375962C16.1642 0.208013 15.836 0.208013 15.5841 0.375962L0.584055 10.376C0.239408 10.6057 0.146278 11.0714 0.376042 11.416C0.605806 11.7607 1.07146 11.8538 1.4161 11.624L16.0001 1.90139L30.5841 11.624C30.9287 11.8538 31.3944 11.7607 31.6241 11.416C31.8539 11.0714 31.7608 10.6057 31.4161 10.376L16.4161 0.375962ZM3.75008 17C3.75008 16.5858 3.41429 16.25 3.00008 16.25C2.58587 16.25 2.25008 16.5858 2.25008 17V19V25V31C2.25008 31.4142 2.58587 31.75 3.00008 31.75H29.0001C29.4143 31.75 29.7501 31.4142 29.7501 31V25V23C29.7501 21.7402 29.2496 20.532 28.3588 19.6412C27.468 18.7504 26.2599 18.25 25.0001 18.25H18.7081H18.7081C17.4544 18.25 16.2255 18.5992 15.1592 19.2584C14.0928 19.9175 13.2311 20.8606 12.6706 21.9819L12.6706 21.982L11.7501 23.8229V23C11.7501 21.7402 11.2496 20.532 10.3588 19.6412C9.46804 18.7504 8.25986 18.25 7.00008 18.25H3.75008V17ZM13.2136 24.25H28.2501V23C28.2501 22.138 27.9077 21.3114 27.2982 20.7019C26.6887 20.0924 25.862 19.75 25.0001 19.75H18.7081H18.7081C17.733 19.75 16.7773 20.0216 15.9479 20.5343C15.1185 21.047 14.4482 21.7805 14.0123 22.6527L14.0122 22.6527L13.2136 24.25ZM12.0001 25.75H11.0001H3.75008V30.25H28.2501V25.75H12.0001ZM10.2501 23V24.25H3.75008V19.75H7.00008C7.86203 19.75 8.68868 20.0924 9.29818 20.7019C9.90767 21.3114 10.2501 22.138 10.2501 23Z" fill="#474445"/>
</svg>
