<svg width="32" height="32" viewBox="0 0 32 32" fill="none" xmlns="http://www.w3.org/2000/svg">
<path fill-rule="evenodd" clip-rule="evenodd" d="M16 0.25C16.4142 0.25 16.75 0.585786 16.75 1V3.27656C19.3305 3.45957 21.7677 4.58224 23.6056 6.44929C25.6202 8.49594 26.75 11.2693 26.75 14.1587C26.75 18.8841 27.2458 21.5965 27.7159 23.1013C27.9503 23.8517 28.1759 24.2942 28.3247 24.5338C28.399 24.6534 28.454 24.7224 28.4813 24.754C28.4853 24.7586 28.4887 24.7624 28.4915 24.7655C28.4931 24.7673 28.4945 24.7688 28.4957 24.7701L28.4982 24.7727C28.7259 24.9749 28.8094 25.2961 28.7066 25.5849C28.6002 25.8837 28.3172 26.0833 28 26.0833H4C3.71415 26.0833 3.45316 25.9208 3.327 25.6643C3.20209 25.4104 3.23086 25.108 3.4008 24.8823L3.40635 24.8744C3.41393 24.8635 3.42863 24.8417 3.44949 24.8083C3.4912 24.7414 3.55761 24.6276 3.64084 24.46C3.80727 24.1251 4.04144 23.5745 4.27977 22.7541C4.7566 21.1126 5.25 18.3911 5.25 14.1587C5.25 11.2693 6.37976 8.49594 8.39444 6.44929C10.2323 4.58224 12.6695 3.45957 15.25 3.27656V1C15.25 0.585786 15.5858 0.25 16 0.25ZM16 4.75C13.5506 4.75 11.1991 5.73836 9.46342 7.50156C7.72737 9.26517 6.75 11.6596 6.75 14.1587C6.75 18.5058 6.2434 21.3715 5.72023 23.1725C5.5535 23.7465 5.38509 24.2123 5.23087 24.5833H26.6662C26.541 24.2981 26.4116 23.9566 26.2841 23.5486C25.7542 21.8521 25.25 18.9772 25.25 14.1587C25.25 11.6596 24.2726 9.26517 22.5366 7.50156C20.8009 5.73836 18.4494 4.75 16 4.75ZM13.1218 28.2804C13.5192 28.1637 13.936 28.3913 14.0526 28.7887C14.1764 29.2102 14.4332 29.5802 14.7848 29.8434C15.1364 30.1066 15.5638 30.2489 16.003 30.2489C16.4422 30.2489 16.8696 30.1066 17.2212 29.8434C17.5728 29.5802 17.8297 29.2102 17.9534 28.7887C18.07 28.3913 18.4868 28.1637 18.8843 28.2804C19.2817 28.397 19.5093 28.8138 19.3926 29.2113C19.1776 29.9437 18.7312 30.5867 18.1201 31.0442C17.5091 31.5016 16.7663 31.7489 16.003 31.7489C15.2397 31.7489 14.4969 31.5016 13.8859 31.0442C13.2748 30.5867 12.8284 29.9437 12.6134 29.2113C12.4967 28.8138 12.7243 28.397 13.1218 28.2804Z" fill="#767676"/>
</svg>
