<svg width="32" height="32" viewBox="0 0 32 32" fill="none" xmlns="http://www.w3.org/2000/svg">
<path d="M13.333 29C13.5024 29.5769 13.854 30.0835 14.3353 30.4438C14.8167 30.8041 15.4018 30.9989 16.003 30.9989C16.6043 30.9989 17.1894 30.8041 17.6707 30.4438C18.152 30.0835 18.5037 29.5769 18.673 29" stroke="#71717A" stroke-width="1.5" stroke-linecap="round" stroke-linejoin="round"/>
<path d="M16 4V1" stroke="#71717A" stroke-width="1.5" stroke-linecap="round" stroke-linejoin="round"/>
<path d="M16 4C18.6522 4 21.1957 5.07029 23.0711 6.97542C24.9464 8.88055 26 11.4645 26 14.1587C26 23.7025 28 25.3333 28 25.3333H4C4 25.3333 6 22.7381 6 14.1587C6 11.4645 7.05357 8.88055 8.92893 6.97542C10.8043 5.07029 13.3478 4 16 4V4Z" stroke="#71717A" stroke-width="1.5" stroke-linecap="round" stroke-linejoin="round"/>
</svg>
