<svg width="32" height="32" viewBox="0 0 32 32" fill="none" xmlns="http://www.w3.org/2000/svg">
<path d="M2 6H30M13 23V13M19 23V13M19 2H13C12.4696 2 11.9609 2.21071 11.5858 2.58579C11.2107 2.96086 11 3.46957 11 4V6H21V4C21 3.46957 20.7893 2.96086 20.4142 2.58579C20.0391 2.21071 19.5304 2 19 2ZM25.1533 28.1653C25.1118 28.6655 24.8839 29.1317 24.5146 29.4716C24.1454 29.8114 23.6618 30 23.16 30H8.84133C8.33949 30 7.85597 29.8114 7.48672 29.4716C7.11747 29.1317 6.88949 28.6655 6.848 28.1653L5 6H27L25.1533 28.1653Z" stroke="#474445" stroke-width="1.5" stroke-linecap="round" stroke-linejoin="round"/>
</svg>
