<svg width="32" height="32" viewBox="0 0 32 32" fill="none" xmlns="http://www.w3.org/2000/svg">
<path d="M2 5.25C1.58579 5.25 1.25 5.58579 1.25 6C1.25 6.41421 1.58579 6.75 2 6.75V5.25ZM30 6.75C30.4142 6.75 30.75 6.41421 30.75 6C30.75 5.58579 30.4142 5.25 30 5.25V6.75ZM2 6.75H30V5.25H2V6.75Z" fill="#767676"/>
<path d="M13 2V1.25V2ZM11 4H10.25H11ZM10.25 6C10.25 6.41421 10.5858 6.75 11 6.75C11.4142 6.75 11.75 6.41421 11.75 6H10.25ZM20.25 6C20.25 6.41421 20.5858 6.75 21 6.75C21.4142 6.75 21.75 6.41421 21.75 6H20.25ZM21 4H21.75H21ZM19 1.25H13V2.75H19V1.25ZM13 1.25C12.2707 1.25 11.5712 1.53973 11.0555 2.05546L12.1161 3.11612C12.3505 2.8817 12.6685 2.75 13 2.75V1.25ZM11.0555 2.05546C10.5397 2.57118 10.25 3.27065 10.25 4H11.75C11.75 3.66848 11.8817 3.35054 12.1161 3.11612L11.0555 2.05546ZM10.25 4V6H11.75V4H10.25ZM21.75 6V4H20.25V6H21.75ZM21.75 4C21.75 3.27066 21.4603 2.57118 20.9445 2.05546L19.8839 3.11612C20.1183 3.35054 20.25 3.66848 20.25 4H21.75ZM20.9445 2.05546C20.4288 1.53973 19.7293 1.25 19 1.25V2.75C19.3315 2.75 19.6495 2.8817 19.8839 3.11612L20.9445 2.05546Z" fill="#767676"/>
<path d="M12.25 23C12.25 23.4142 12.5858 23.75 13 23.75C13.4142 23.75 13.75 23.4142 13.75 23H12.25ZM13.75 13C13.75 12.5858 13.4142 12.25 13 12.25C12.5858 12.25 12.25 12.5858 12.25 13H13.75ZM13.75 23V13H12.25V23H13.75Z" fill="#767676"/>
<path d="M18.25 23C18.25 23.4142 18.5858 23.75 19 23.75C19.4142 23.75 19.75 23.4142 19.75 23H18.25ZM19.75 13C19.75 12.5858 19.4142 12.25 19 12.25C18.5858 12.25 18.25 12.5858 18.25 13H19.75ZM19.75 23V13H18.25V23H19.75Z" fill="#767676"/>
<path d="M25.1533 28.1653L24.4059 28.1031L24.4059 28.1033L25.1533 28.1653ZM23.16 30L23.1601 29.25H23.16V30ZM8.84133 30V29.25H8.84127L8.84133 30ZM6.848 28.1653L7.59543 28.1033L7.59541 28.103L6.848 28.1653ZM5.74741 5.93769C5.71299 5.5249 5.35047 5.21818 4.93769 5.25259C4.5249 5.28701 4.21818 5.64953 4.25259 6.06231L5.74741 5.93769ZM27.7474 6.06227C27.7818 5.64949 27.4751 5.28698 27.0623 5.25259C26.6495 5.2182 26.287 5.52495 26.2526 5.93773L27.7474 6.06227ZM24.4059 28.1033C24.38 28.4159 24.2375 28.7073 24.0067 28.9197L25.0225 30.0234C25.5302 29.5561 25.8437 28.915 25.9008 28.2273L24.4059 28.1033ZM24.0067 28.9197C23.7759 29.1321 23.4737 29.25 23.1601 29.25L23.1599 30.75C23.85 30.7501 24.5148 30.4907 25.0225 30.0234L24.0067 28.9197ZM23.16 29.25H8.84133V30.75H23.16V29.25ZM8.84127 29.25C8.52762 29.25 8.22541 29.1321 7.99463 28.9197L6.97881 30.0234C7.48653 30.4907 8.15137 30.7501 8.8414 30.75L8.84127 29.25ZM7.99463 28.9197C7.76385 28.7073 7.62136 28.4159 7.59543 28.1033L6.10057 28.2273C6.15761 28.915 6.47109 29.5561 6.97881 30.0234L7.99463 28.9197ZM7.59541 28.103L5.74741 5.93769L4.25259 6.06231L6.10059 28.2276L7.59541 28.103ZM26.2526 5.93773L24.4059 28.1031L25.9007 28.2276L27.7474 6.06227L26.2526 5.93773Z" fill="#767676"/>
</svg>
