<svg width="32" height="32" viewBox="0 0 32 32" fill="none" xmlns="http://www.w3.org/2000/svg">
<path fill-rule="evenodd" clip-rule="evenodd" d="M14.5916 3.12712C14.8459 2.80016 14.787 2.32895 14.46 2.07465C14.133 1.82034 13.6618 1.87924 13.4075 2.20621L8.96606 7.91666H2.34481C1.40297 7.91666 0.777866 8.89227 1.17146 9.74792C3.41487 14.625 8.29206 17.75 13.6604 17.75H29.4996C29.9138 17.75 30.2496 17.4142 30.2496 17V10.6667C30.2496 10.2524 29.9138 9.91666 29.4996 9.91666H26.3102L24.5299 8.13633C24.3892 7.99568 24.1985 7.91666 23.9995 7.91666H10.8664L14.5916 3.12712ZM13.6604 16.25C8.98718 16.25 4.73174 13.5919 2.67495 9.41666H9.33287H23.6889L25.4692 11.197C25.6099 11.3376 25.8006 11.4167 25.9995 11.4167H28.7496V16.25H13.6604ZM5.15376 23.1922C5.44401 22.8967 5.43973 22.4218 5.14421 22.1316C4.84869 21.8413 4.37383 21.8456 4.08359 22.1411L1.46454 24.8078C1.17799 25.0996 1.17799 25.5671 1.46454 25.8589L4.08359 28.5255C4.37383 28.821 4.84869 28.8253 5.14421 28.5351C5.43973 28.2448 5.44401 27.77 5.15376 27.4745L3.78747 26.0833H28.2118L26.8455 27.4745C26.5553 27.77 26.5595 28.2448 26.855 28.5351C27.1506 28.8253 27.6254 28.821 27.9157 28.5255L30.5347 25.8589C30.8213 25.5671 30.8213 25.0996 30.5347 24.8078L27.9157 22.1411C27.6254 21.8456 27.1506 21.8413 26.855 22.1316C26.5595 22.4218 26.5553 22.8967 26.8455 23.1922L28.2118 24.5833H3.78747L5.15376 23.1922Z" fill="#474445"/>
</svg>
