<svg width="32" height="32" viewBox="0 0 32 32" fill="none" xmlns="http://www.w3.org/2000/svg">
<path fill-rule="evenodd" clip-rule="evenodd" d="M1.75 15.9973C1.75 8.12729 8.12994 1.74734 16 1.74734C23.8701 1.74734 30.25 8.12729 30.25 15.9973C30.25 23.8674 23.8701 30.2473 16 30.2473C8.12994 30.2473 1.75 23.8674 1.75 15.9973ZM16 0.247345C7.30152 0.247345 0.25 7.29886 0.25 15.9973C0.25 24.6958 7.30152 31.7473 16 31.7473C24.6985 31.7473 31.75 24.6958 31.75 15.9973C31.75 7.29886 24.6985 0.247345 16 0.247345ZM18.5285 8C18.5285 7.68628 18.3333 7.40571 18.0391 7.29672C17.7449 7.18773 17.414 7.27334 17.2096 7.51133L10.203 15.669L10.203 15.6689L10.199 15.6736C10.0522 15.8474 9.958 16.0596 9.92766 16.2852C9.89731 16.5108 9.93205 16.7403 10.0278 16.9468C10.1235 17.1533 10.2762 17.3281 10.468 17.4507C10.6597 17.5733 10.8825 17.6386 11.11 17.6389H11.1109H13.4725V24C13.4725 24.3137 13.6677 24.5943 13.9619 24.7033C14.2561 24.8123 14.587 24.7267 14.7914 24.4887L21.798 16.3323L21.798 16.3323L21.803 16.3263C21.9493 16.1524 22.043 15.9404 22.0731 15.7152C22.1032 15.4899 22.0685 15.2608 21.9731 15.0545C21.8776 14.8483 21.7254 14.6736 21.5342 14.5508C21.343 14.428 21.1208 14.3622 20.8936 14.3611H20.8901H18.5285V8ZM14.2225 16.1389H11.7767L17.0285 10.0243V15.1111C17.0285 15.5253 17.3643 15.8611 17.7785 15.8611H20.2253L14.9725 21.9759V16.8889C14.9725 16.4747 14.6367 16.1389 14.2225 16.1389Z" fill="#767676"/>
</svg>
