<svg width="32" height="32" viewBox="0 0 32 32" fill="none" xmlns="http://www.w3.org/2000/svg">
<path d="M16 30.9973C24.2843 30.9973 31 24.2816 31 15.9973C31 7.71307 24.2843 0.997345 16 0.997345C7.71573 0.997345 1 7.71307 1 15.9973C1 24.2816 7.71573 30.9973 16 30.9973Z" stroke="#71717A" stroke-width="1.5" stroke-linecap="round" stroke-linejoin="round"/>
<path d="M17.7785 8L10.7719 16.1576C10.7173 16.2223 10.6822 16.3013 10.671 16.3852C10.6597 16.4691 10.6726 16.5545 10.7082 16.6314C10.7438 16.7082 10.8007 16.7732 10.872 16.8189C10.9434 16.8645 11.0263 16.8888 11.1109 16.8889H14.2225V24L21.2291 15.8436C21.2836 15.7787 21.3185 15.6997 21.3297 15.6158C21.341 15.5318 21.328 15.4464 21.2924 15.3696C21.2569 15.2927 21.2001 15.2276 21.1289 15.1818C21.0576 15.136 20.9748 15.1115 20.8901 15.1111H17.7785V8Z" stroke="#71717A" stroke-width="1.5" stroke-linecap="round" stroke-linejoin="round"/>
</svg>
