<svg width="32" height="32" viewBox="0 0 32 32" fill="none" xmlns="http://www.w3.org/2000/svg">
<path fill-rule="evenodd" clip-rule="evenodd" d="M3.25 1.33333C3.25 0.919115 3.58579 0.583328 4 0.583328H28C28.4142 0.583328 28.75 0.919115 28.75 1.33333V29.9167H30.6668C31.081 29.9167 31.4168 30.2525 31.4168 30.6667C31.4168 31.0809 31.081 31.4167 30.6668 31.4167H1.3335C0.919283 31.4167 0.583496 31.0809 0.583496 30.6667C0.583496 30.2525 0.919283 29.9167 1.3335 29.9167H3.25V1.33333ZM4.75 29.9167H11.25V25C11.25 24.0335 12.0335 23.25 13 23.25H19C19.9665 23.25 20.75 24.0335 20.75 25V29.9167H27.25V2.08333H4.75V29.9167ZM19.25 29.9167V25C19.25 24.8619 19.1381 24.75 19 24.75H13C12.8619 24.75 12.75 24.8619 12.75 25V29.9167H19.25ZM8.5835 6.66667C8.5835 6.25246 8.91928 5.91667 9.3335 5.91667H13.3335C13.7477 5.91667 14.0835 6.25246 14.0835 6.66667C14.0835 7.08089 13.7477 7.41667 13.3335 7.41667H9.3335C8.91928 7.41667 8.5835 7.08089 8.5835 6.66667ZM9.3335 11.25C8.91928 11.25 8.5835 11.5858 8.5835 12C8.5835 12.4142 8.91928 12.75 9.3335 12.75H13.3335C13.7477 12.75 14.0835 12.4142 14.0835 12C14.0835 11.5858 13.7477 11.25 13.3335 11.25H9.3335ZM17.9165 12C17.9165 11.5858 18.2523 11.25 18.6665 11.25H22.6665C23.0807 11.25 23.4165 11.5858 23.4165 12C23.4165 12.4142 23.0807 12.75 22.6665 12.75H18.6665C18.2523 12.75 17.9165 12.4142 17.9165 12ZM18.6665 16.5833C18.2523 16.5833 17.9165 16.9191 17.9165 17.3333C17.9165 17.7475 18.2523 18.0833 18.6665 18.0833H22.6665C23.0807 18.0833 23.4165 17.7475 23.4165 17.3333C23.4165 16.9191 23.0807 16.5833 22.6665 16.5833H18.6665ZM8.5835 17.3333C8.5835 16.9191 8.91928 16.5833 9.3335 16.5833H13.3335C13.7477 16.5833 14.0835 16.9191 14.0835 17.3333C14.0835 17.7475 13.7477 18.0833 13.3335 18.0833H9.3335C8.91928 18.0833 8.5835 17.7475 8.5835 17.3333ZM18.6665 5.91667C18.2523 5.91667 17.9165 6.25246 17.9165 6.66667C17.9165 7.08089 18.2523 7.41667 18.6665 7.41667H22.6665C23.0807 7.41667 23.4165 7.08089 23.4165 6.66667C23.4165 6.25246 23.0807 5.91667 22.6665 5.91667H18.6665Z" fill="#767676"/>
</svg>
