<svg width="32" height="32" viewBox="0 0 32 32" fill="none" xmlns="http://www.w3.org/2000/svg">
<path fill-rule="evenodd" clip-rule="evenodd" d="M16.75 1C16.75 0.585786 16.4142 0.25 16 0.25C15.5858 0.25 15.25 0.585786 15.25 1V3C15.25 3.41421 15.5858 3.75 16 3.75C16.4142 3.75 16.75 3.41421 16.75 3V1ZM7.65114 20.0983C8.52986 21.5359 9.77214 22.7136 11.25 23.5143V26C11.25 26.7293 11.5397 27.4288 12.0555 27.9445C12.5712 28.4603 13.2707 28.75 14 28.75H15.25V31C15.25 31.4142 15.5858 31.75 16 31.75C16.4142 31.75 16.75 31.4142 16.75 31V28.75H18C18.7293 28.75 19.4288 28.4603 19.9445 27.9445C20.4603 27.4288 20.75 26.7293 20.75 26V23.5146C22.2289 22.7134 23.472 21.5347 24.3509 20.0958C25.2891 18.5597 25.7742 16.7898 25.7502 14.99L25.7501 14.9867C25.7045 12.4186 24.6641 9.96848 22.8479 8.1523C21.0317 6.33612 18.5816 5.29568 16.0135 5.25012C16.0047 5.24996 15.9958 5.24996 15.9869 5.25012C13.4179 5.29572 10.9669 6.33696 9.15055 8.15438C7.33421 9.97179 6.29442 12.4234 6.25034 14.9925L6.25029 14.9958C6.22733 16.7946 6.71292 18.5633 7.65114 20.0983ZM16 27.25H18C18.3315 27.25 18.6495 27.1183 18.8839 26.8839C19.1183 26.6495 19.25 26.3315 19.25 26V23.75H16H12.75V26C12.75 26.3315 12.8817 26.6495 13.1161 26.8839C13.3505 27.1183 13.6685 27.25 14 27.25H16ZM12.0669 22.25H15.25V18.3107L12.4697 15.5303C12.1768 15.2374 12.1768 14.7626 12.4697 14.4697C12.7626 14.1768 13.2374 14.1768 13.5303 14.4697L16 16.9393L18.4697 14.4697C18.7626 14.1768 19.2374 14.1768 19.5303 14.4697C19.8232 14.7626 19.8232 15.2374 19.5303 15.5303L16.75 18.3107V22.25H19.9335C21.225 21.5741 22.3098 20.5597 23.0708 19.3139C23.8614 18.0195 24.2703 16.5281 24.2503 15.0116C24.2112 12.8327 23.3282 10.7539 21.7873 9.21296C20.249 7.67471 18.1749 6.79215 16.0002 6.75013C13.8247 6.79219 11.7499 7.67543 10.2115 9.21472C8.67039 10.7568 7.78798 12.8368 7.75015 15.0166C7.73111 16.5323 8.14042 18.0226 8.93099 19.316C9.69189 20.5608 10.7762 21.5745 12.0669 22.25ZM1.25 15C1.25 14.5858 1.58579 14.25 2 14.25H4C4.41421 14.25 4.75 14.5858 4.75 15C4.75 15.4142 4.41421 15.75 4 15.75H2C1.58579 15.75 1.25 15.4142 1.25 15ZM5.51965 4.45921C5.22098 4.17221 4.7462 4.18167 4.45921 4.48035C4.17221 4.77902 4.18167 5.2538 4.48035 5.54079L5.94701 6.95013C6.24568 7.23713 6.72046 7.22766 7.00746 6.92899C7.29446 6.63032 7.28499 6.15554 6.98632 5.86854L5.51965 4.45921ZM27.25 15C27.25 14.5858 27.5858 14.25 28 14.25H30C30.4142 14.25 30.75 14.5858 30.75 15C30.75 15.4142 30.4142 15.75 30 15.75H28C27.5858 15.75 27.25 15.4142 27.25 15ZM27.5195 5.54079C27.8182 5.2538 27.8277 4.77902 27.5407 4.48035C27.2537 4.18167 26.7789 4.17221 26.4802 4.45921L25.0135 5.86854C24.7149 6.15554 24.7054 6.63032 24.9924 6.92899C25.2794 7.22766 25.7542 7.23713 26.0529 6.95013L27.5195 5.54079Z" fill="#474445"/>
</svg>
