<svg width="32" height="32" viewBox="0 0 32 32" fill="none" xmlns="http://www.w3.org/2000/svg">
<path fill-rule="evenodd" clip-rule="evenodd" d="M3 1.754C2.30964 1.754 1.75 2.31364 1.75 3.004V5.004C1.75 5.69435 2.30964 6.254 3 6.254H29C29.6904 6.254 30.25 5.69435 30.25 5.004V3.004C30.25 2.31364 29.6904 1.754 29 1.754H3ZM0.25 3.004C0.25 1.48521 1.48122 0.253998 3 0.253998H29C30.5188 0.253998 31.75 1.48521 31.75 3.004V5.004C31.75 6.52278 30.5188 7.754 29 7.754H3C1.48122 7.754 0.25 6.52278 0.25 5.004V3.004ZM3 13.754C2.30964 13.754 1.75 14.3136 1.75 15.004V17.004C1.75 17.6944 2.30964 18.254 3 18.254H29C29.6904 18.254 30.25 17.6944 30.25 17.004V15.004C30.25 14.3136 29.6904 13.754 29 13.754H3ZM0.25 15.004C0.25 13.4852 1.48122 12.254 3 12.254H29C30.5188 12.254 31.75 13.4852 31.75 15.004V17.004C31.75 18.5228 30.5188 19.754 29 19.754H3C1.48122 19.754 0.25 18.5228 0.25 17.004V15.004ZM1.75 27.004C1.75 26.3136 2.30964 25.754 3 25.754H29C29.6904 25.754 30.25 26.3136 30.25 27.004V29.004C30.25 29.6944 29.6904 30.254 29 30.254H3C2.30964 30.254 1.75 29.6944 1.75 29.004V27.004ZM3 24.254C1.48122 24.254 0.25 25.4852 0.25 27.004V29.004C0.25 30.5228 1.48122 31.754 3 31.754H29C30.5188 31.754 31.75 30.5228 31.75 29.004V27.004C31.75 25.4852 30.5188 24.254 29 24.254H3Z" fill="#474445"/>
</svg>
