<svg width="32" height="32" viewBox="0 0 32 32" fill="none" xmlns="http://www.w3.org/2000/svg">
<path d="M29 1.004H3C1.89543 1.004 1 1.89943 1 3.004V5.004C1 6.10857 1.89543 7.004 3 7.004H29C30.1046 7.004 31 6.10857 31 5.004V3.004C31 1.89943 30.1046 1.004 29 1.004Z" stroke="#474445" stroke-width="1.5" stroke-linecap="round" stroke-linejoin="round"/>
<path d="M29 13.004H3C1.89543 13.004 1 13.8994 1 15.004V17.004C1 18.1086 1.89543 19.004 3 19.004H29C30.1046 19.004 31 18.1086 31 17.004V15.004C31 13.8994 30.1046 13.004 29 13.004Z" stroke="#474445" stroke-width="1.5" stroke-linecap="round" stroke-linejoin="round"/>
<path d="M29 25.004H3C1.89543 25.004 1 25.8994 1 27.004V29.004C1 30.1086 1.89543 31.004 3 31.004H29C30.1046 31.004 31 30.1086 31 29.004V27.004C31 25.8994 30.1046 25.004 29 25.004Z" stroke="#474445" stroke-width="1.5" stroke-linecap="round" stroke-linejoin="round"/>
</svg>
