<svg width="32" height="32" viewBox="0 0 32 32" fill="none" xmlns="http://www.w3.org/2000/svg">
<path fill-rule="evenodd" clip-rule="evenodd" d="M5.75 3.61735C5.75 2.5588 6.60812 1.70068 7.66667 1.70068H24.3333C25.3919 1.70068 26.25 2.5588 26.25 3.61735V6.95068V18.2007H5.75V6.95068V3.61735ZM5.75 19.7007H26.25V24.284C26.25 25.1641 25.6568 25.9057 24.8484 26.1307C24.8241 26.1357 24.8002 26.1418 24.7769 26.1491C24.6345 26.1828 24.486 26.2007 24.3333 26.2007H7.66667C7.51398 26.2007 7.36547 26.1828 7.2231 26.1491C7.19975 26.1418 7.17589 26.1357 7.15163 26.1307C6.34322 25.9057 5.75 25.1641 5.75 24.284V19.7007ZM4.25 24.284V18.9507V7.70068H3C2.66848 7.70068 2.35054 7.83238 2.11612 8.0668C1.8817 8.30122 1.75 8.61916 1.75 8.95068V12.9507C1.75 13.3649 1.41421 13.7007 1 13.7007C0.585786 13.7007 0.25 13.3649 0.25 12.9507V8.95068C0.25 8.22134 0.539732 7.52186 1.05546 7.00614C1.57118 6.49042 2.27065 6.20068 3 6.20068H4.25V3.61735C4.25 1.73038 5.77969 0.200684 7.66667 0.200684H24.3333C26.2203 0.200684 27.75 1.73038 27.75 3.61735V6.20068H29C29.7293 6.20068 30.4288 6.49042 30.9445 7.00614C31.4603 7.52186 31.75 8.22134 31.75 8.95068V12.9507C31.75 13.3649 31.4142 13.7007 31 13.7007C30.5858 13.7007 30.25 13.3649 30.25 12.9507V8.95068C30.25 8.61916 30.1183 8.30122 29.8839 8.0668C29.6495 7.83238 29.3315 7.70068 29 7.70068H27.75V18.9507V24.284C27.75 25.6656 26.9299 26.8557 25.75 27.3941V28.9507C25.75 29.68 25.4603 30.3795 24.9445 30.8952C24.4288 31.411 23.7293 31.7007 23 31.7007C22.2707 31.7007 21.5712 31.411 21.0555 30.8952C20.5397 30.3795 20.25 29.68 20.25 28.9507V27.7007H11.75V28.9507C11.75 29.68 11.4603 30.3795 10.9445 30.8952C10.4288 31.411 9.72934 31.7007 9 31.7007C8.27066 31.7007 7.57118 31.411 7.05546 30.8952C6.53973 30.3795 6.25 29.68 6.25 28.9507V27.3941C5.07007 26.8557 4.25 25.6656 4.25 24.284ZM24.25 28.9507V27.7007H21.75V28.9507C21.75 29.2822 21.8817 29.6002 22.1161 29.8346C22.3505 30.069 22.6685 30.2007 23 30.2007C23.3315 30.2007 23.6495 30.069 23.8839 29.8346C24.1183 29.6002 24.25 29.2822 24.25 28.9507ZM10.25 27.7007H7.75V28.9507C7.75 29.2822 7.8817 29.6002 8.11612 29.8346C8.35054 30.069 8.66848 30.2007 9 30.2007C9.33152 30.2007 9.64946 30.069 9.88388 29.8346C10.1183 29.6002 10.25 29.2822 10.25 28.9507V27.7007ZM19 22.2007C18.5858 22.2007 18.25 22.5365 18.25 22.9507C18.25 23.3649 18.5858 23.7007 19 23.7007H23C23.4142 23.7007 23.75 23.3649 23.75 22.9507C23.75 22.5365 23.4142 22.2007 23 22.2007H19ZM8.25 22.9507C8.25 22.5365 8.58579 22.2007 9 22.2007H13C13.4142 22.2007 13.75 22.5365 13.75 22.9507C13.75 23.3649 13.4142 23.7007 13 23.7007H9C8.58579 23.7007 8.25 23.3649 8.25 22.9507ZM13 4.20068C12.5858 4.20068 12.25 4.53647 12.25 4.95068C12.25 5.3649 12.5858 5.70068 13 5.70068H19C19.4142 5.70068 19.75 5.3649 19.75 4.95068C19.75 4.53647 19.4142 4.20068 19 4.20068H13Z" fill="#767676"/>
</svg>
