<svg width="32" height="32" viewBox="0 0 32 32" fill="none" xmlns="http://www.w3.org/2000/svg">
<path d="M5 13L1 24H9L5 13Z" stroke="#767676" stroke-width="1.5" stroke-linecap="round" stroke-linejoin="round"/>
<path d="M5 24V30.6667" stroke="#767676" stroke-width="1.5" stroke-linecap="round" stroke-linejoin="round"/>
<path d="M29 31V16.5208" stroke="#767676" stroke-width="1.53127" stroke-linecap="round" stroke-linejoin="round"/>
<path d="M13 31V16.5208" stroke="#767676" stroke-width="1.53127" stroke-linecap="round" stroke-linejoin="round"/>
<path d="M17.25 31C17.25 31.4142 17.5858 31.75 18 31.75C18.4142 31.75 18.75 31.4142 18.75 31H17.25ZM23.25 31C23.25 31.4142 23.5858 31.75 24 31.75C24.4142 31.75 24.75 31.4142 24.75 31H23.25ZM18.6667 23.75H23.3333V22.25H18.6667V23.75ZM17.25 23.6667V31H18.75V23.6667H17.25ZM24.75 31V23.6667H23.25V31H24.75ZM23.3333 23.75C23.2873 23.75 23.25 23.7127 23.25 23.6667H24.75C24.75 22.8843 24.1157 22.25 23.3333 22.25V23.75ZM18.6667 22.25C17.8843 22.25 17.25 22.8843 17.25 23.6667H18.75C18.75 23.7127 18.7127 23.75 18.6667 23.75V22.25Z" fill="#767676"/>
<path d="M10.5315 17.4143C10.208 17.6731 10.1556 18.1451 10.4143 18.4685C10.6731 18.792 11.1451 18.8444 11.4685 18.5857L10.5315 17.4143ZM30.5315 18.5857C30.8549 18.8444 31.3269 18.792 31.5857 18.4685C31.8444 18.1451 31.792 17.6731 31.4685 17.4143L30.5315 18.5857ZM11.4685 18.5857L21.0521 10.9188L20.115 9.74752L10.5315 17.4143L11.4685 18.5857ZM20.9479 10.9188L30.5315 18.5857L31.4685 17.4143L21.885 9.74752L20.9479 10.9188ZM21.0521 10.9188C21.0216 10.9432 20.9784 10.9432 20.9479 10.9188L21.885 9.74752C21.3676 9.3336 20.6324 9.33361 20.115 9.74752L21.0521 10.9188Z" fill="#767676"/>
<path d="M19 15.25C18.5858 15.25 18.25 15.5858 18.25 16C18.25 16.4142 18.5858 16.75 19 16.75V15.25ZM23 16.75C23.4142 16.75 23.75 16.4142 23.75 16C23.75 15.5858 23.4142 15.25 23 15.25V16.75ZM19 16.75H23V15.25H19V16.75Z" fill="#767676"/>
<path d="M2 30.25C1.58579 30.25 1.25 30.5858 1.25 31C1.25 31.4142 1.58579 31.75 2 31.75V30.25ZM29 31.75C29.4142 31.75 29.75 31.4142 29.75 31C29.75 30.5858 29.4142 30.25 29 30.25V31.75ZM2 31.75H29V30.25H2V31.75Z" fill="#767676"/>
<path d="M13.5218 8.99922C14.4249 9.01899 15.2986 8.66138 15.9508 8.00498C16.603 7.34858 16.9804 6.44709 17 5.49863C16.9613 4.61315 16.6185 3.77237 16.035 3.13188C15.4514 2.4914 14.6668 2.09458 13.8261 2.01487C12.9855 1.93515 12.1458 2.17793 11.4625 2.69827C10.7792 3.21862 10.2985 3.98131 10.1093 4.84519C9.81656 4.70119 9.4975 4.6257 9.17422 4.62395C8.61006 4.61243 8.06452 4.8361 7.65703 5.24602C7.24954 5.65593 7.01329 6.2187 7 6.81112C7.01306 7.4037 7.24921 7.9667 7.65672 8.37682C8.06424 8.78694 8.60991 9.01074 9.17422 8.99922H13.5218Z" stroke="#767676" stroke-width="1.5" stroke-linecap="round" stroke-linejoin="round"/>
</svg>
