<svg width="32" height="32" viewBox="0 0 32 32" fill="none" xmlns="http://www.w3.org/2000/svg">
<path d="M25 1H7C5.89543 1 5 1.89543 5 3V29C5 30.1046 5.89543 31 7 31H25C26.1046 31 27 30.1046 27 29V3C27 1.89543 26.1046 1 25 1Z" stroke="#767676" stroke-width="1.5" stroke-linecap="round" stroke-linejoin="round"/>
<path d="M22 5H10C9.44772 5 9 5.44772 9 6V10C9 10.5523 9.44772 11 10 11H22C22.5523 11 23 10.5523 23 10V6C23 5.44772 22.5523 5 22 5Z" stroke="#767676" stroke-width="1.5" stroke-linecap="round" stroke-linejoin="round"/>
<path d="M10.5 16C10.5989 16 10.6956 16.0293 10.7778 16.0843C10.86 16.1392 10.9241 16.2173 10.9619 16.3087C10.9998 16.4 11.0097 16.5006 10.9904 16.5975C10.9711 16.6945 10.9235 16.7836 10.8536 16.8536C10.7836 16.9235 10.6945 16.9711 10.5975 16.9904C10.5006 17.0097 10.4 16.9998 10.3087 16.9619C10.2173 16.9241 10.1392 16.86 10.0843 16.7778C10.0293 16.6956 10 16.5989 10 16.5C10 16.3674 10.0527 16.2402 10.1464 16.1464C10.2402 16.0527 10.3674 16 10.5 16Z" fill="#767676" stroke="#767676" stroke-width="1.5" stroke-linecap="round" stroke-linejoin="round"/>
<path d="M16.208 16C16.3069 16 16.4036 16.0293 16.4858 16.0843C16.568 16.1392 16.6321 16.2173 16.6699 16.3087C16.7078 16.4 16.7177 16.5006 16.6984 16.5975C16.6791 16.6945 16.6315 16.7836 16.5616 16.8536C16.4916 16.9235 16.4025 16.9711 16.3056 16.9904C16.2086 17.0097 16.108 16.9998 16.0167 16.9619C15.9253 16.9241 15.8472 16.86 15.7923 16.7778C15.7373 16.6956 15.708 16.5989 15.708 16.5C15.708 16.3674 15.7607 16.2402 15.8545 16.1464C15.9482 16.0527 16.0754 16 16.208 16" stroke="#767676" stroke-width="1.5" stroke-linecap="round" stroke-linejoin="round"/>
<path d="M21.5 16C21.5989 16 21.6956 16.0293 21.7778 16.0843C21.86 16.1392 21.9241 16.2173 21.9619 16.3087C21.9998 16.4 22.0097 16.5006 21.9904 16.5975C21.9711 16.6945 21.9235 16.7836 21.8536 16.8536C21.7836 16.9235 21.6945 16.9711 21.5975 16.9904C21.5006 17.0097 21.4 16.9998 21.3087 16.9619C21.2173 16.9241 21.1392 16.86 21.0843 16.7778C21.0293 16.6956 21 16.5989 21 16.5C21 16.3674 21.0527 16.2402 21.1464 16.1464C21.2402 16.0527 21.3674 16 21.5 16Z" fill="#767676" stroke="#767676" stroke-width="1.5" stroke-linecap="round" stroke-linejoin="round"/>
<path d="M10.5 21C10.5989 21 10.6956 21.0293 10.7778 21.0843C10.86 21.1392 10.9241 21.2173 10.9619 21.3087C10.9998 21.4 11.0097 21.5006 10.9904 21.5975C10.9711 21.6945 10.9235 21.7836 10.8536 21.8536C10.7836 21.9235 10.6945 21.9711 10.5975 21.9904C10.5006 22.0097 10.4 21.9998 10.3087 21.9619C10.2173 21.9241 10.1392 21.86 10.0843 21.7778C10.0293 21.6956 10 21.5989 10 21.5C10 21.3674 10.0527 21.2402 10.1464 21.1464C10.2402 21.0527 10.3674 21 10.5 21Z" fill="#767676" stroke="#767676" stroke-width="1.5" stroke-linecap="round" stroke-linejoin="round"/>
<path d="M16.208 21C16.3069 21 16.4036 21.0293 16.4858 21.0843C16.568 21.1392 16.6321 21.2173 16.6699 21.3087C16.7078 21.4 16.7177 21.5006 16.6984 21.5975C16.6791 21.6945 16.6315 21.7836 16.5616 21.8536C16.4916 21.9235 16.4025 21.9711 16.3056 21.9904C16.2086 22.0097 16.108 21.9998 16.0167 21.9619C15.9253 21.9241 15.8472 21.86 15.7923 21.7778C15.7373 21.6956 15.708 21.5989 15.708 21.5C15.708 21.3674 15.7607 21.2402 15.8545 21.1464C15.9482 21.0527 16.0754 21 16.208 21" stroke="#767676" stroke-width="1.5" stroke-linecap="round" stroke-linejoin="round"/>
<path d="M21.5 21C21.5989 21 21.6956 21.0293 21.7778 21.0843C21.86 21.1392 21.9241 21.2173 21.9619 21.3087C21.9998 21.4 22.0097 21.5006 21.9904 21.5975C21.9711 21.6945 21.9235 21.7836 21.8536 21.8536C21.7836 21.9235 21.6945 21.9711 21.5975 21.9904C21.5006 22.0097 21.4 21.9998 21.3087 21.9619C21.2173 21.9241 21.1392 21.86 21.0843 21.7778C21.0293 21.6956 21 21.5989 21 21.5C21 21.3674 21.0527 21.2402 21.1464 21.1464C21.2402 21.0527 21.3674 21 21.5 21Z" fill="#767676" stroke="#767676" stroke-width="1.5" stroke-linecap="round" stroke-linejoin="round"/>
<path d="M10.5 26C10.5989 26 10.6956 26.0293 10.7778 26.0843C10.86 26.1392 10.9241 26.2173 10.9619 26.3087C10.9998 26.4 11.0097 26.5006 10.9904 26.5975C10.9711 26.6945 10.9235 26.7836 10.8536 26.8536C10.7836 26.9235 10.6945 26.9711 10.5975 26.9904C10.5006 27.0097 10.4 26.9998 10.3087 26.9619C10.2173 26.9241 10.1392 26.86 10.0843 26.7778C10.0293 26.6956 10 26.5989 10 26.5C10 26.3674 10.0527 26.2402 10.1464 26.1464C10.2402 26.0527 10.3674 26 10.5 26Z" fill="#767676" stroke="#767676" stroke-width="1.5" stroke-linecap="round" stroke-linejoin="round"/>
<path d="M16.208 26C16.3069 26 16.4036 26.0293 16.4858 26.0843C16.568 26.1392 16.6321 26.2173 16.6699 26.3087C16.7078 26.4 16.7177 26.5006 16.6984 26.5975C16.6791 26.6945 16.6315 26.7836 16.5616 26.8536C16.4916 26.9235 16.4025 26.9711 16.3056 26.9904C16.2086 27.0097 16.108 26.9998 16.0167 26.9619C15.9253 26.9241 15.8472 26.86 15.7923 26.7778C15.7373 26.6956 15.708 26.5989 15.708 26.5C15.708 26.3674 15.7607 26.2402 15.8545 26.1464C15.9482 26.0527 16.0754 26 16.208 26" stroke="#767676" stroke-width="1.5" stroke-linecap="round" stroke-linejoin="round"/>
<path d="M21.5 26C21.5989 26 21.6956 26.0293 21.7778 26.0843C21.86 26.1392 21.9241 26.2173 21.9619 26.3087C21.9998 26.4 22.0097 26.5006 21.9904 26.5975C21.9711 26.6945 21.9235 26.7836 21.8536 26.8536C21.7836 26.9235 21.6945 26.9711 21.5975 26.9904C21.5006 27.0097 21.4 26.9998 21.3087 26.9619C21.2173 26.9241 21.1392 26.86 21.0843 26.7778C21.0293 26.6956 21 26.5989 21 26.5C21 26.3674 21.0527 26.2402 21.1464 26.1464C21.2402 26.0527 21.3674 26 21.5 26Z" fill="#767676" stroke="#767676" stroke-width="1.5" stroke-linecap="round" stroke-linejoin="round"/>
</svg>
