<svg width="32" height="32" viewBox="0 0 32 32" fill="none" xmlns="http://www.w3.org/2000/svg">
<g clip-path="url(#clip0)">
<path d="M29 5H3C1.89543 5 1 5.89543 1 7V29C1 30.1046 1.89543 31 3 31H29C30.1046 31 31 30.1046 31 29V7C31 5.89543 30.1046 5 29 5Z" stroke="#474445" stroke-width="1.5" stroke-linecap="round" stroke-linejoin="round"/>
<path d="M1 13H31" stroke="#474445" stroke-width="1.5" stroke-linecap="round" stroke-linejoin="round"/>
<path d="M9 7V1" stroke="#474445" stroke-width="1.5" stroke-linecap="round" stroke-linejoin="round"/>
<path d="M23 7V1" stroke="#474445" stroke-width="1.5" stroke-linecap="round" stroke-linejoin="round"/>
<path fill-rule="evenodd" clip-rule="evenodd" d="M5.92558 24.2247C6.14485 24.0782 6.40264 24 6.66634 24C7.01996 24 7.3591 24.1405 7.60915 24.3905C7.8592 24.6406 7.99967 24.9797 7.99967 25.3333C7.99967 25.597 7.92148 25.8548 7.77497 26.0741C7.62845 26.2934 7.42021 26.4643 7.17659 26.5652C6.93295 26.6661 6.66486 26.6925 6.40622 26.641C6.14758 26.5896 5.91001 26.4626 5.72353 26.2761C5.53706 26.0897 5.41007 25.8521 5.35863 25.5935C5.30718 25.3348 5.33358 25.0667 5.4345 24.8231C5.53542 24.5795 5.70631 24.3712 5.92558 24.2247Z" fill="#474445"/>
<path fill-rule="evenodd" clip-rule="evenodd" d="M5.92558 17.558C6.14485 17.4115 6.40264 17.3333 6.66634 17.3333C7.01996 17.3333 7.3591 17.4738 7.60915 17.7239C7.8592 17.9739 7.99967 18.3131 7.99967 18.6667C7.99967 18.9304 7.92148 19.1882 7.77497 19.4074C7.62845 19.6267 7.42021 19.7976 7.17659 19.8985C6.93295 19.9994 6.66486 20.0258 6.40622 19.9744C6.14758 19.9229 5.91001 19.796 5.72353 19.6095C5.53706 19.423 5.41007 19.1854 5.35863 18.9268C5.30718 18.6682 5.33358 18.4001 5.4345 18.1564C5.53542 17.9128 5.70631 17.7046 5.92558 17.558Z" fill="#474445"/>
<path fill-rule="evenodd" clip-rule="evenodd" d="M15.5926 24.2247C15.8118 24.0782 16.0696 24 16.3333 24C16.687 24 17.0261 24.1405 17.2761 24.3905C17.5262 24.6406 17.6667 24.9797 17.6667 25.3333C17.6667 25.597 17.5885 25.8548 17.442 26.0741C17.2954 26.2934 17.0872 26.4643 16.8436 26.5652C16.5999 26.6661 16.3319 26.6925 16.0732 26.641C15.8146 26.5896 15.577 26.4626 15.3905 26.2761C15.204 26.0897 15.0771 25.8521 15.0256 25.5935C14.9742 25.3348 15.0006 25.0667 15.1015 24.8231C15.2024 24.5795 15.3733 24.3712 15.5926 24.2247Z" fill="#474445"/>
<path fill-rule="evenodd" clip-rule="evenodd" d="M15.5926 17.558C15.8118 17.4115 16.0696 17.3333 16.3333 17.3333C16.687 17.3333 17.0261 17.4738 17.2761 17.7239C17.5262 17.9739 17.6667 18.3131 17.6667 18.6667C17.6667 18.9304 17.5885 19.1882 17.442 19.4074C17.2954 19.6267 17.0872 19.7976 16.8436 19.8985C16.5999 19.9994 16.3319 20.0258 16.0732 19.9744C15.8146 19.9229 15.577 19.796 15.3905 19.6095C15.204 19.423 15.0771 19.1854 15.0256 18.9268C14.9742 18.6682 15.0006 18.4001 15.1015 18.1564C15.2024 17.9128 15.3733 17.7046 15.5926 17.558Z" fill="#474445"/>
<path fill-rule="evenodd" clip-rule="evenodd" d="M24.5926 24.2247C24.8118 24.0782 25.0696 24 25.3333 24C25.687 24 26.0261 24.1405 26.2761 24.3905C26.5262 24.6406 26.6667 24.9797 26.6667 25.3333C26.6667 25.597 26.5885 25.8548 26.442 26.0741C26.2954 26.2934 26.0872 26.4643 25.8436 26.5652C25.5999 26.6661 25.3319 26.6925 25.0732 26.641C24.8146 26.5896 24.577 26.4626 24.3905 26.2761C24.204 26.0897 24.0771 25.8521 24.0256 25.5935C23.9742 25.3348 24.0006 25.0667 24.1015 24.8231C24.2024 24.5795 24.3733 24.3712 24.5926 24.2247Z" fill="#474445"/>
<path fill-rule="evenodd" clip-rule="evenodd" d="M24.5926 17.558C24.8118 17.4115 25.0696 17.3333 25.3333 17.3333C25.687 17.3333 26.0261 17.4738 26.2761 17.7239C26.5262 17.9739 26.6667 18.3131 26.6667 18.6667C26.6667 18.9304 26.5885 19.1882 26.442 19.4074C26.2954 19.6267 26.0872 19.7976 25.8436 19.8985C25.5999 19.9994 25.3319 20.0258 25.0732 19.9744C24.8146 19.9229 24.577 19.796 24.3905 19.6095C24.204 19.423 24.0771 19.1854 24.0256 18.9268C23.9742 18.6682 24.0006 18.4001 24.1015 18.1564C24.2024 17.9128 24.3733 17.7046 24.5926 17.558Z" fill="#474445"/>
</g>
<defs>
<clipPath id="clip0">
<rect width="32" height="32" fill="white"/>
</clipPath>
</defs>
</svg>
