<svg width="32" height="32" viewBox="0 0 32 32" fill="none" xmlns="http://www.w3.org/2000/svg">
<path fill-rule="evenodd" clip-rule="evenodd" d="M21.0256 3.58703C20.6208 3.36571 20.1667 3.24981 19.7053 3.25H19.7051H12.2947H12.2946C11.8334 3.25004 11.3796 3.36609 10.9749 3.58747C10.5703 3.80884 10.2279 4.12844 9.9791 4.51683L9.97899 4.517L8.22959 7.25H6.08333V6C6.08333 5.58579 5.74755 5.25 5.33333 5.25C4.91912 5.25 4.58333 5.58579 4.58333 6V7.25H3C2.27065 7.25 1.57118 7.53973 1.05546 8.05546C0.539731 8.57118 0.25 9.27066 0.25 10V26C0.25 26.7293 0.539732 27.4288 1.05546 27.9445C1.57118 28.4603 2.27065 28.75 3 28.75H29C29.7293 28.75 30.4288 28.4603 30.9445 27.9445C31.4603 27.4288 31.75 26.7293 31.75 26V10C31.75 9.27065 31.4603 8.57118 30.9445 8.05546C30.4288 7.53973 29.7293 7.25 29 7.25H23.7706L22.0225 4.51719L22.0222 4.51683C21.7733 4.12818 21.4306 3.80842 21.0256 3.58703ZM19.7058 4.75C19.9156 4.74988 20.122 4.80256 20.3061 4.90319C20.4902 5.00383 20.646 5.14917 20.7591 5.32583L22.7282 8.40414C22.866 8.61963 23.1042 8.75 23.36 8.75H29C29.3315 8.75 29.6495 8.8817 29.8839 9.11612C30.1183 9.35054 30.25 9.66848 30.25 10V26C30.25 26.3315 30.1183 26.6495 29.8839 26.8839C29.6495 27.1183 29.3315 27.25 29 27.25H3C2.66848 27.25 2.35054 27.1183 2.11612 26.8839C1.8817 26.6495 1.75 26.3315 1.75 26V10C1.75 9.66848 1.8817 9.35054 2.11612 9.11612C2.35054 8.8817 2.66848 8.75 3 8.75H5.33333H8.64C8.89572 8.75 9.13381 8.61971 9.27167 8.40434L11.2422 5.32583L11.2423 5.32567C11.3554 5.1492 11.511 5.00399 11.6949 4.90339C11.8788 4.80278 12.085 4.75003 12.2947 4.75L12.2947 4.75L19.7053 4.75L19.7058 4.75ZM11.4165 17.3333C11.4165 14.802 13.4685 12.75 15.9998 12.75C18.5311 12.75 20.5832 14.802 20.5832 17.3333C20.5832 19.8646 18.5311 21.9167 15.9998 21.9167C13.4685 21.9167 11.4165 19.8646 11.4165 17.3333ZM15.9998 11.25C12.6401 11.25 9.9165 13.9736 9.9165 17.3333C9.9165 20.6931 12.6401 23.4167 15.9998 23.4167C19.3596 23.4167 22.0832 20.6931 22.0832 17.3333C22.0832 13.9736 19.3596 11.25 15.9998 11.25Z" fill="#767676"/>
</svg>
