<svg width="32" height="32" viewBox="0 0 32 32" fill="none" xmlns="http://www.w3.org/2000/svg">
<path d="M21.3907 4.92133L23.36 8H29C29.5304 8 30.0391 8.21071 30.4142 8.58579C30.7893 8.96086 31 9.46957 31 10V26C31 26.5304 30.7893 27.0391 30.4142 27.4142C30.0391 27.7893 29.5304 28 29 28H3C2.46957 28 1.96086 27.7893 1.58579 27.4142C1.21071 27.0391 1 26.5304 1 26V10C1 9.46957 1.21071 8.96086 1.58579 8.58579C1.96086 8.21071 2.46957 8 3 8H8.64L10.6107 4.92133C10.7916 4.63886 11.0406 4.40643 11.3349 4.24543C11.6292 4.08443 11.9592 4.00003 12.2947 4H19.7053C20.041 3.99981 20.3713 4.0841 20.6658 4.24511C20.9604 4.40612 21.2096 4.63867 21.3907 4.92133Z" stroke="#71717A" stroke-width="1.5" stroke-linecap="round" stroke-linejoin="round"/>
<path d="M15.9998 22.6667C18.9454 22.6667 21.3332 20.2789 21.3332 17.3333C21.3332 14.3878 18.9454 12 15.9998 12C13.0543 12 10.6665 14.3878 10.6665 17.3333C10.6665 20.2789 13.0543 22.6667 15.9998 22.6667Z" stroke="#71717A" stroke-width="1.5" stroke-linecap="round" stroke-linejoin="round"/>
<path d="M5.3335 8C5.3335 7.21895 5.3335 6.78105 5.3335 6" stroke="#71717A" stroke-width="1.5" stroke-linecap="round" stroke-linejoin="round"/>
</svg>
