<svg width="32" height="32" viewBox="0 0 32 32" fill="none" xmlns="http://www.w3.org/2000/svg">
<path fill-rule="evenodd" clip-rule="evenodd" d="M19.667 3.41667C20.9096 3.41667 21.917 4.42403 21.917 5.66667C21.917 6.90931 20.9096 7.91667 19.667 7.91667C18.4244 7.91667 17.417 6.90931 17.417 5.66667C17.417 4.42403 18.4244 3.41667 19.667 3.41667ZM23.417 5.66667C23.417 3.5956 21.7381 1.91667 19.667 1.91667C17.8528 1.91667 16.3396 3.20491 15.992 4.9165H12.3337L9.33366 4.9165C8.91945 4.9165 8.58366 5.25229 8.58366 5.6665V7.63711C8.58366 8.05132 8.91945 8.38711 9.33366 8.38711C9.74787 8.38711 10.0837 8.05132 10.0837 7.63711V6.4165H11.5837V7.80868C11.5837 8.22289 11.9194 8.55868 12.3337 8.55868C12.7479 8.55868 13.0837 8.22289 13.0837 7.80868V6.4165H15.992C16.3394 8.12827 17.8527 9.41667 19.667 9.41667C21.7381 9.41667 23.417 7.73774 23.417 5.66667ZM6.95771 9.97549C7.33947 10.1362 7.51863 10.576 7.35789 10.9578L5.12956 16.25H26.8704L24.6421 10.9578C24.4814 10.576 24.6605 10.1362 25.0423 9.97549C25.424 9.81475 25.8638 9.99392 26.0246 10.3757L28.4997 16.254C29.3453 16.2952 30.1479 16.6493 30.7493 17.2507C31.39 17.8915 31.75 18.7605 31.75 19.6667V21.5V24.6667C31.75 25.2192 31.5305 25.7491 31.1398 26.1398C31.0215 26.2581 30.8905 26.3606 30.75 26.4462V28C30.75 28.7294 30.4603 29.4288 29.9445 29.9446C29.4288 30.4603 28.7293 30.75 28 30.75C27.2707 30.75 26.5712 30.4603 26.0555 29.9446C25.5397 29.4288 25.25 28.7294 25.25 28V26.75H6.75V28C6.75 28.7294 6.46027 29.4288 5.94454 29.9446C5.42882 30.4603 4.72935 30.75 4 30.75C3.27065 30.75 2.57118 30.4603 2.05546 29.9446C1.53973 29.4288 1.25 28.7294 1.25 28V26.4462C1.10947 26.3606 0.978454 26.2581 0.860194 26.1398C0.469493 25.7491 0.25 25.2192 0.25 24.6667V21.5V19.6667C0.25 18.7605 0.609969 17.8915 1.25072 17.2507C1.85215 16.6493 2.65472 16.2952 3.50032 16.254L5.97544 10.3757C6.13618 9.99392 6.57596 9.81475 6.95771 9.97549ZM1.75 22.25H4.68964L5.46957 23.0302C5.7624 23.3232 6.23728 23.3233 6.53023 23.0304C6.82318 22.7376 6.82327 22.2627 6.53043 21.9698L5.53082 20.9698C5.39016 20.8291 5.19935 20.75 5.00039 20.75H1.75V19.6667C1.75 19.1583 1.95193 18.6708 2.31138 18.3114C2.67082 17.9519 3.15834 17.75 3.66667 17.75H3.98267C3.99403 17.7503 4.00537 17.7503 4.01669 17.75H27.9833C27.9946 17.7503 28.006 17.7503 28.0173 17.75H28.3333C28.8417 17.75 29.3292 17.9519 29.6886 18.3114C30.0481 18.6708 30.25 19.1583 30.25 19.6667V20.75H27C26.8011 20.75 26.6103 20.829 26.4697 20.9697L25.4697 21.9697C25.1768 22.2626 25.1768 22.7374 25.4697 23.0303C25.7626 23.3232 26.2374 23.3232 26.5303 23.0303L27.3107 22.25H30.25V24.6667C30.25 24.8214 30.1885 24.9698 30.0791 25.0791C30.0091 25.1492 29.923 25.1997 29.8295 25.2268C29.8179 25.2295 29.8064 25.2325 29.795 25.2357C29.7532 25.2451 29.7102 25.25 29.6667 25.25H2.33333C2.2898 25.25 2.24677 25.2451 2.20497 25.2357C2.1936 25.2325 2.18213 25.2295 2.17056 25.2268C2.07704 25.1997 1.99095 25.1492 1.92085 25.0791C1.81146 24.9698 1.75 24.8214 1.75 24.6667V22.25ZM2.75 28V26.75H5.25V28C5.25 28.3315 5.1183 28.6495 4.88388 28.8839C4.64946 29.1183 4.33152 29.25 4 29.25C3.66848 29.25 3.35054 29.1183 3.11612 28.8839C2.8817 28.6495 2.75 28.3315 2.75 28ZM26.75 26.75H29.25V28C29.25 28.3315 29.1183 28.6495 28.8839 28.8839C28.6495 29.1183 28.3315 29.25 28 29.25C27.6685 29.25 27.3505 29.1183 27.1161 28.8839C26.8817 28.6495 26.75 28.3315 26.75 28V26.75ZM13 21.25C12.5858 21.25 12.25 21.5858 12.25 22C12.25 22.4142 12.5858 22.75 13 22.75H19C19.4142 22.75 19.75 22.4142 19.75 22C19.75 21.5858 19.4142 21.25 19 21.25H13Z" fill="#474445"/>
</svg>
