<svg width="32" height="32" viewBox="0 0 32 32" fill="none" xmlns="http://www.w3.org/2000/svg">
<path d="M1 20C1 18.3431 2.34315 17 4 17H28C29.6569 17 31 18.3431 31 20V25C31 25.5523 30.5523 26 30 26H2C1.44772 26 1 25.5523 1 25V20Z" stroke="#71717A" stroke-width="1.5"/>
<path d="M5 21H8L7 23" stroke="#71717A" stroke-width="1.5" stroke-linecap="round" stroke-linejoin="round"/>
<path d="M27 21H24L25 23" stroke="#71717A" stroke-width="1.5" stroke-linecap="round" stroke-linejoin="round"/>
<path d="M2 26V28C2 29.1046 2.89543 30 4 30V30C5.10457 30 6 29.1046 6 28V26" stroke="#71717A" stroke-width="1.5"/>
<path d="M26 26V28C26 29.1046 26.8954 30 28 30V30C29.1046 30 30 29.1046 30 28V26" stroke="#71717A" stroke-width="1.5"/>
<path d="M4 17L6.5 10.5" stroke="#71717A" stroke-width="1.5" stroke-linecap="round"/>
<path d="M28 17L25.5 10.5" stroke="#71717A" stroke-width="1.5" stroke-linecap="round"/>
<path d="M15.1154 1.67811C15.4905 0.966541 16.5095 0.966542 16.8846 1.67811L18.0077 3.80856C18.1635 4.10417 18.4567 4.30241 18.7891 4.3369L21.2013 4.58715C22.0883 4.67917 22.4204 5.79826 21.7271 6.35919L20.1361 7.64664C19.8398 7.88641 19.7055 8.27377 19.7899 8.64547L20.2392 10.6237C20.4253 11.4432 19.5788 12.1129 18.8241 11.7432L16.4399 10.5754C16.1624 10.4395 15.8376 10.4395 15.5601 10.5754L13.1759 11.7432C12.4212 12.1129 11.5747 11.4432 11.7608 10.6237L12.2101 8.64547C12.2945 8.27377 12.1602 7.88641 11.8639 7.64664L10.2729 6.35919C9.57964 5.79826 9.91173 4.67917 10.7987 4.58715L13.2109 4.3369C13.5433 4.30241 13.8365 4.10417 13.9923 3.80856L15.1154 1.67811Z" stroke="#71717A" stroke-width="1.5"/>
</svg>
