<svg width="32" height="32" viewBox="0 0 32 32" fill="none" xmlns="http://www.w3.org/2000/svg">
<path fill-rule="evenodd" clip-rule="evenodd" d="M17.5481 1.32837C16.8916 0.0831298 15.1084 0.083127 14.4519 1.32837L13.3289 3.45882C13.2899 3.53273 13.2166 3.58228 13.1335 3.59091L10.7213 3.84116C9.16911 4.00219 8.58796 5.9606 9.80108 6.94223L11.3922 8.22968C11.4662 8.28962 11.4998 8.38646 11.4787 8.47939L11.0295 10.4576C10.7038 11.8918 12.185 13.0637 13.5058 12.4168L15.89 11.249C15.9594 11.215 16.0406 11.215 16.11 11.249L18.4942 12.4168C19.815 13.0637 21.2962 11.8918 20.9705 10.4576L20.5213 8.47939C20.5002 8.38646 20.5338 8.28962 20.6078 8.22968L22.1989 6.94223C23.412 5.9606 22.8309 4.00219 21.2787 3.84116L18.8665 3.59091C18.7834 3.58228 18.7101 3.53273 18.6711 3.45882L17.5481 1.32837ZM15.7788 2.02786C15.8726 1.84997 16.1274 1.84997 16.2212 2.02786L17.3442 4.15831C17.6169 4.67563 18.13 5.02255 18.7117 5.0829L21.1239 5.33315C21.3456 5.35616 21.4287 5.63593 21.2554 5.77616L19.6643 7.06362C19.1458 7.4832 18.9108 8.16108 19.0586 8.81156L19.5078 10.7898C19.5543 10.9947 19.3427 11.1621 19.154 11.0697L16.7698 9.90189C16.2841 9.66405 15.7159 9.66405 15.2302 9.90189L12.846 11.0697C12.6573 11.1621 12.4457 10.9947 12.4922 10.7898L12.9414 8.81156C13.0892 8.16108 12.8542 7.4832 12.3357 7.06361L10.7446 5.77616C10.5713 5.63593 10.6543 5.35616 10.8761 5.33315L13.2883 5.0829C13.87 5.02255 14.3831 4.67563 14.6558 4.15831L15.7788 2.02786ZM7.20001 10.7692C7.3487 10.3826 7.15584 9.94868 6.76923 9.79998C6.38263 9.65129 5.94868 9.84416 5.79999 10.2308L3.47064 16.2871C1.65024 16.5443 0.25 18.1086 0.25 20V25C0.25 25.6981 0.658764 26.3007 1.25 26.5816V28C1.25 29.5188 2.48122 30.75 4 30.75C5.51878 30.75 6.75 29.5188 6.75 28V26.75H25.25V28C25.25 29.5188 26.4812 30.75 28 30.75C29.5188 30.75 30.75 29.5188 30.75 28V26.5816C31.3412 26.3007 31.75 25.6981 31.75 25V20C31.75 18.1086 30.3498 16.5443 28.5294 16.2871L26.2 10.2308C26.0513 9.84416 25.6174 9.65129 25.2308 9.79998C24.8442 9.94868 24.6513 10.3826 24.8 10.7692L26.908 16.25H5.09202L7.20001 10.7692ZM28.0152 17.75C28.0044 17.7503 27.9936 17.7502 27.9828 17.75H4.01719C4.00642 17.7502 3.99562 17.7503 3.9848 17.75C2.74915 17.7582 1.75 18.7624 1.75 20V25C1.75 25.1381 1.86193 25.25 2 25.25H6H6.75H25.25H26H30C30.1381 25.25 30.25 25.1381 30.25 25V20C30.25 18.7624 29.2508 17.7582 28.0152 17.75ZM26.75 28V26.75H29.25V28C29.25 28.6903 28.6904 29.25 28 29.25C27.3096 29.25 26.75 28.6903 26.75 28ZM2.75 26.75V28C2.75 28.6903 3.30964 29.25 4 29.25C4.69036 29.25 5.25 28.6903 5.25 28V26.75H2.75ZM5.5 23C6.32843 23 7 22.3284 7 21.5C7 20.6716 6.32843 20 5.5 20C4.67157 20 4 20.6716 4 21.5C4 22.3284 4.67157 23 5.5 23ZM28 21.5C28 22.3284 27.3284 23 26.5 23C25.6716 23 25 22.3284 25 21.5C25 20.6716 25.6716 20 26.5 20C27.3284 20 28 20.6716 28 21.5Z" fill="#474445"/>
</svg>
