<svg width="32" height="32" viewBox="0 0 32 32" fill="none" xmlns="http://www.w3.org/2000/svg">
<path d="M28 17L25.3333 10.6667M6.66667 10.6667L4 17" stroke="#474445" stroke-width="1.5" stroke-linecap="round" stroke-linejoin="round"/>
<path d="M2 25.9574V28C2 28.5305 2.21071 29.0392 2.58579 29.4142C2.96086 29.7893 3.46957 30 4 30C4.53043 30 5.03914 29.7893 5.41421 29.4142C5.78929 29.0392 6 28.5305 6 28V26" stroke="#474445" stroke-width="1.5" stroke-linecap="round" stroke-linejoin="round"/>
<path d="M30 25.9574V28C30 28.5305 29.7893 29.0392 29.4142 29.4142C29.0391 29.7893 28.5304 30 28 30C27.4696 30 26.9609 29.7893 26.5858 29.4142C26.2107 29.0392 26 28.5305 26 28V26" stroke="#474445" stroke-width="1.5" stroke-linecap="round" stroke-linejoin="round"/>
<path d="M26.5 21C26.6326 21 26.7598 21.0527 26.8536 21.1464C26.9473 21.2402 27 21.3674 27 21.5" stroke="#474445" stroke-width="1.5" stroke-linecap="round" stroke-linejoin="round"/>
<path d="M26 21.5C26 21.3674 26.0527 21.2402 26.1464 21.1464C26.2402 21.0527 26.3674 21 26.5 21" stroke="#474445" stroke-width="1.5" stroke-linecap="round" stroke-linejoin="round"/>
<path d="M26.5 22C26.3674 22 26.2402 21.9473 26.1464 21.8536C26.0527 21.7598 26 21.6326 26 21.5" stroke="#474445" stroke-width="1.5" stroke-linecap="round" stroke-linejoin="round"/>
<path d="M27 21.5C27 21.6326 26.9473 21.7598 26.8536 21.8536C26.7598 21.9473 26.6326 22 26.5 22" stroke="#474445" stroke-width="1.5" stroke-linecap="round" stroke-linejoin="round"/>
<path d="M5.5 21C5.36739 21 5.24021 21.0527 5.14645 21.1464C5.05268 21.2402 5 21.3674 5 21.5" stroke="#474445" stroke-width="1.5" stroke-linecap="round" stroke-linejoin="round"/>
<path d="M6 21.5C6 21.3674 5.94732 21.2402 5.85355 21.1464C5.75978 21.0527 5.63261 21 5.5 21" stroke="#474445" stroke-width="1.5" stroke-linecap="round" stroke-linejoin="round"/>
<path d="M5.5 22C5.63261 22 5.75978 21.9473 5.85355 21.8536C5.94732 21.7598 6 21.6326 6 21.5" stroke="#474445" stroke-width="1.5" stroke-linecap="round" stroke-linejoin="round"/>
<path d="M5 21.5C5 21.6326 5.05268 21.7598 5.14645 21.8536C5.24021 21.9473 5.36739 22 5.5 22" stroke="#474445" stroke-width="1.5" stroke-linecap="round" stroke-linejoin="round"/>
<path d="M3.66667 17H28.3333C29.0406 17 29.7189 17.281 30.219 17.781C30.719 18.2811 31 18.9594 31 19.6667V24.6667C31 25.0203 30.8595 25.3594 30.6095 25.6095C30.3594 25.8595 30.0203 26 29.6667 26H2.33333C1.97971 26 1.64057 25.8595 1.39052 25.6095C1.14048 25.3594 1 25.0203 1 24.6667V19.6667C1 18.9594 1.28095 18.2811 1.78105 17.781C2.28115 17.281 2.95942 17 3.66667 17V17Z" stroke="#474445" stroke-width="1.5" stroke-linecap="round" stroke-linejoin="round"/>
<path d="M15.4188 1.34462C15.4731 1.24097 15.5562 1.15389 15.6587 1.09305C15.7612 1.03221 15.8792 1 15.9995 1C16.1199 1 16.2379 1.03221 16.3404 1.09305C16.4429 1.15389 16.5259 1.24097 16.5802 1.34462L17.9309 3.97225C17.9778 4.06234 18.0465 4.14016 18.1312 4.19908C18.216 4.25801 18.3142 4.2963 18.4176 4.31068L21.447 4.73275C21.5656 4.74878 21.6772 4.79642 21.7693 4.87029C21.8614 4.94417 21.9304 5.04136 21.9684 5.15096C22.0055 5.25987 22.01 5.37668 21.9815 5.48797C21.953 5.59927 21.8925 5.70055 21.807 5.7802L19.607 7.83907C19.5331 7.90821 19.4777 7.99365 19.4457 8.08802C19.4136 8.1824 19.4058 8.28288 19.423 8.38081L19.9417 11.2825C19.9619 11.3961 19.9483 11.5128 19.9025 11.6192C19.8567 11.7255 19.7806 11.8172 19.683 11.8835C19.5847 11.9508 19.4691 11.9906 19.3489 11.9985C19.2286 12.0065 19.1085 11.9822 19.0016 11.9285L16.3029 10.5658C16.2094 10.5189 16.1056 10.4944 16.0002 10.4944C15.8948 10.4944 15.791 10.5189 15.6975 10.5658L12.9988 11.9285C12.8919 11.9822 12.7717 12.0065 12.6515 11.9985C12.5313 11.9906 12.4157 11.9508 12.3174 11.8835C12.2198 11.8172 12.1437 11.7255 12.0979 11.6192C12.0521 11.5128 12.0385 11.3961 12.0587 11.2825L12.5761 8.38081C12.5935 8.28299 12.586 8.18254 12.5542 8.08815C12.5223 7.99376 12.4672 7.90827 12.3934 7.83907L10.1933 5.7802C10.1076 5.70072 10.047 5.59945 10.0184 5.48809C9.98987 5.37673 9.99458 5.25984 10.032 5.15096C10.0697 5.04138 10.1383 4.94415 10.2302 4.87025C10.3221 4.79635 10.4336 4.74872 10.552 4.73275L13.5815 4.31068C13.685 4.29628 13.7834 4.25801 13.8684 4.19909C13.9533 4.14018 14.0223 4.06237 14.0695 3.97225L15.4188 1.34462Z" stroke="#474445" stroke-width="1.5" stroke-linecap="round" stroke-linejoin="round"/>
</svg>
