<svg width="32" height="32" viewBox="0 0 32 32" fill="none" xmlns="http://www.w3.org/2000/svg">
<path fill-rule="evenodd" clip-rule="evenodd" d="M9.23209 4.75C8.23847 4.75 7.3625 5.40175 7.07698 6.35346L5.00801 13.25H16H26.992L24.923 6.35347C24.6375 5.40175 23.7615 4.75 22.7679 4.75H9.23209ZM2.46812 12.6133L2.84065 13.3583C2.22874 13.5215 1.67009 13.8632 1.22818 14.3453C0.595484 15.0355 0.25 15.9587 0.25 16.9091V19V24.5455C0.25 25.1101 0.455008 25.6633 0.837659 26.0808C0.960797 26.2151 1.09949 26.332 1.25 26.4289V28C1.25 28.7294 1.53973 29.4288 2.05546 29.9446C2.57118 30.4603 3.27065 30.75 4 30.75C4.72935 30.75 5.42882 30.4603 5.94454 29.9446C6.46027 29.4288 6.75 28.7294 6.75 28V26.75H25.25V28C25.25 28.7294 25.5397 29.4288 26.0555 29.9446C26.5712 30.4603 27.2707 30.75 28 30.75C28.7293 30.75 29.4288 30.4603 29.9445 29.9446C30.4603 29.4288 30.75 28.7294 30.75 28V26.4289C30.9005 26.332 31.0392 26.2151 31.1623 26.0808C31.545 25.6633 31.75 25.1101 31.75 24.5455V19V16.9091C31.75 15.9587 31.4045 15.0355 30.7718 14.3453C30.3299 13.8632 29.7713 13.5215 29.1593 13.3583L29.5319 12.6133L30.7372 12.2115C31.1301 12.0805 31.3425 11.6558 31.2115 11.2628C31.0805 10.8699 30.6558 10.6575 30.2628 10.7885L28.7628 11.2885C28.5741 11.3514 28.4181 11.4867 28.3292 11.6646L28.1749 11.973L26.3598 5.92244C25.8839 4.33626 24.4239 3.25 22.7679 3.25H9.23209C7.57606 3.25 6.1161 4.33625 5.64024 5.92244L3.82505 11.973L3.67082 11.6646C3.58186 11.4867 3.42587 11.3514 3.23717 11.2885L1.73717 10.7885C1.34421 10.6575 0.919473 10.8699 0.788488 11.2628C0.657502 11.6558 0.869872 12.0805 1.26283 12.2115L2.46812 12.6133ZM30.25 18.25H24.5C24.2159 18.25 23.9562 18.4105 23.8292 18.6646L22.3292 21.6646C22.1439 22.0351 22.2941 22.4856 22.6646 22.6708C23.0351 22.8561 23.4856 22.7059 23.6708 22.3354L24.9635 19.75H30.25V24.5455C30.25 24.7524 30.1741 24.9391 30.0566 25.0672C29.9412 25.1931 29.7993 25.25 29.6667 25.25H2.33333C2.20072 25.25 2.05883 25.1931 1.94339 25.0672C1.82594 24.9391 1.75 24.7524 1.75 24.5455V19.75H7.03647L8.32918 22.3354C8.51442 22.7059 8.96493 22.8561 9.33541 22.6708C9.70589 22.4856 9.85606 22.0351 9.67082 21.6646L8.17082 18.6646C8.04378 18.4105 7.78408 18.25 7.5 18.25H1.75V16.9091C1.75 16.3164 1.96642 15.7598 2.33391 15.3588C2.69941 14.9601 3.18044 14.75 3.66667 14.75H16H28.3333C28.8196 14.75 29.3006 14.9601 29.6661 15.3588C30.0336 15.7598 30.25 16.3164 30.25 16.9091V18.25ZM2.75 28V26.75H5.25V28C5.25 28.3315 5.1183 28.6495 4.88388 28.8839C4.64946 29.1183 4.33152 29.25 4 29.25C3.66848 29.25 3.35054 29.1183 3.11612 28.8839C2.8817 28.6495 2.75 28.3315 2.75 28ZM26.75 28V26.75H29.25V28C29.25 28.3315 29.1183 28.6495 28.8839 28.8839C28.6495 29.1183 28.3315 29.25 28 29.25C27.6685 29.25 27.3505 29.1183 27.1161 28.8839C26.8817 28.6495 26.75 28.3315 26.75 28ZM12.25 22C12.25 21.5858 12.5858 21.25 13 21.25H19C19.4142 21.25 19.75 21.5858 19.75 22C19.75 22.4142 19.4142 22.75 19 22.75H13C12.5858 22.75 12.25 22.4142 12.25 22Z" fill="#474445"/>
</svg>
