<svg width="32" height="32" viewBox="0 0 32 32" fill="none" xmlns="http://www.w3.org/2000/svg">
<path d="M12 26.9973H4.99463C3.93376 26.9973 2.91635 26.5759 2.1662 25.8258C1.41606 25.0756 0.994629 24.0582 0.994629 22.9973V10.9973C0.994629 9.93646 1.41606 8.91905 2.1662 8.1689C2.91635 7.41876 3.93376 6.99733 4.99463 6.99733H22.9946C24.0555 6.99733 25.0729 7.41876 25.8231 8.1689C26.5732 8.91905 26.9946 9.93646 26.9946 10.9973V12" stroke="#474445" stroke-width="1.5" stroke-linecap="round" stroke-linejoin="round"/>
<path d="M7.99463 6.99733V26.9973" stroke="#474445" stroke-width="1.5" stroke-linecap="round" stroke-linejoin="round"/>
<path d="M19.9946 6.99733V11.9987" stroke="#474445" stroke-width="1.5" stroke-linecap="round" stroke-linejoin="round"/>
<path d="M18 6.99733V2.99733C18 2.73469 17.9483 2.47461 17.8478 2.23196C17.7473 1.98931 17.5999 1.76883 17.4142 1.58312C17.2285 1.3974 17.008 1.25008 16.7654 1.14957C16.5227 1.04906 16.2626 0.99733 16 0.99733H12C11.4696 0.99733 10.9609 1.20804 10.5858 1.58312C10.2107 1.95819 10 2.4669 10 2.99733V6.99733" stroke="#474445" stroke-width="1.5" stroke-linecap="round" stroke-linejoin="round"/>
<path d="M22.9946 30.9973C27.4129 30.9973 30.9946 27.4156 30.9946 22.9973C30.9946 18.5791 27.4129 14.9973 22.9946 14.9973C18.5764 14.9973 14.9946 18.5791 14.9946 22.9973C14.9946 27.4156 18.5764 30.9973 22.9946 30.9973Z" stroke="#474445" stroke-width="1.5" stroke-linecap="round" stroke-linejoin="round"/>
<path d="M20.5398 15.3813L22.7998 18.4C22.9574 18.6101 23.0721 18.8492 23.1372 19.1036C23.2024 19.3581 23.2169 19.6228 23.1797 19.8828C23.1426 20.1428 23.0546 20.393 22.9208 20.619C22.7869 20.845 22.6099 21.0424 22.3998 21.2L19.9998 22.9973V24C19.9998 24.5304 19.7891 25.0391 19.414 25.4142C19.039 25.7893 18.5302 26 17.9998 26H15.5771" stroke="#474445" stroke-width="1.5" stroke-linecap="round" stroke-linejoin="round"/>
<path d="M30.9787 22.4947L27.4307 24.28C27.0234 24.4834 26.6976 24.8197 26.5073 25.2333C26.317 25.6469 26.2735 26.113 26.384 26.5547L27.212 29.796" stroke="#474445" stroke-width="1.5" stroke-linecap="round" stroke-linejoin="round"/>
</svg>
