<svg width="32" height="32" viewBox="0 0 32 32" fill="none" xmlns="http://www.w3.org/2000/svg">
<path fill-rule="evenodd" clip-rule="evenodd" d="M10.0555 1.05279C10.5712 0.537061 11.2707 0.24733 12 0.24733H16C16.3611 0.24733 16.7187 0.318461 17.0524 0.456661C17.386 0.594861 17.6892 0.797425 17.9445 1.05279C18.1999 1.30815 18.4025 1.61131 18.5407 1.94495C18.6789 2.2786 18.75 2.63619 18.75 2.99733V6.24733H19.9946H22.9946C24.2544 6.24733 25.4626 6.74777 26.3534 7.63857C27.2442 8.52937 27.7446 9.73755 27.7446 10.9973V12C27.7446 12.4142 27.4088 12.75 26.9946 12.75C26.5804 12.75 26.2446 12.4142 26.2446 12V10.9973C26.2446 10.1354 25.9022 9.30873 25.2927 8.69923C24.6832 8.08974 23.8566 7.74733 22.9946 7.74733H20.7446V11.9987C20.7446 12.4129 20.4088 12.7487 19.9946 12.7487C19.5804 12.7487 19.2446 12.4129 19.2446 11.9987V7.74733H18H10H8.74463V26.2473H12C12.4142 26.2473 12.75 26.5831 12.75 26.9973C12.75 27.4115 12.4142 27.7473 12 27.7473H7.99463H4.99463C3.73485 27.7473 2.52667 27.2469 1.63587 26.3561C0.745074 25.4653 0.244629 24.2571 0.244629 22.9973V10.9973C0.244629 9.73755 0.745074 8.52937 1.63587 7.63857C2.52667 6.74777 3.73485 6.24733 4.99463 6.24733H7.99463H9.25V2.99733C9.25 2.26798 9.53973 1.56851 10.0555 1.05279ZM17.25 2.99733V6.24733H10.75V2.99733C10.75 2.66581 10.8817 2.34787 11.1161 2.11345C11.3505 1.87903 11.6685 1.74733 12 1.74733H16C16.1642 1.74733 16.3267 1.77966 16.4784 1.84248C16.63 1.9053 16.7678 1.99737 16.8839 2.11345C17 2.22952 17.092 2.36732 17.1549 2.51898C17.2177 2.67063 17.25 2.83318 17.25 2.99733ZM4.99463 7.74733C4.13268 7.74733 3.30603 8.08974 2.69653 8.69923C2.08704 9.30873 1.74463 10.1354 1.74463 10.9973V22.9973C1.74463 23.8593 2.08704 24.6859 2.69653 25.2954C3.30603 25.9049 4.13268 26.2473 4.99463 26.2473H7.24463V7.74733H4.99463ZM15.7446 22.9973C15.7446 19.956 17.6173 17.3521 20.2725 16.2757L22.1994 18.8495L22.1998 18.85C22.2983 18.9813 22.37 19.1308 22.4107 19.2898C22.4514 19.4488 22.4605 19.6143 22.4373 19.7768C22.414 19.9393 22.359 20.0956 22.2754 20.2369C22.1918 20.378 22.0813 20.5013 21.9501 20.5998L21.9498 20.6L19.5502 22.397C19.3611 22.5386 19.2498 22.7611 19.2498 22.9973V24C19.2498 24.3315 19.1181 24.6495 18.8837 24.8839C18.6493 25.1183 18.3313 25.25 17.9998 25.25H16.1014C15.8698 24.5409 15.7446 23.7837 15.7446 22.9973ZM23.3998 17.95L21.8214 15.8418C22.2033 15.7796 22.5952 15.7473 22.9946 15.7473C26.6793 15.7473 29.722 18.4961 30.1839 22.055L27.0956 23.609L27.0945 23.6096C26.5349 23.8893 26.0875 24.3515 25.826 24.9198C25.5643 25.4884 25.5045 26.1294 25.6564 26.7367L25.6573 26.7403L26.3441 29.4289C25.3423 29.9517 24.203 30.2473 22.9946 30.2473C20.3642 30.2473 18.0609 28.8464 16.7902 26.75H17.9998C18.7292 26.75 19.4286 26.4603 19.9444 25.9445C20.4601 25.4288 20.7498 24.7293 20.7498 24V23.3727L22.8494 21.8003L22.8498 21.8C23.1387 21.5833 23.3821 21.3119 23.5661 21.0011C23.7501 20.6904 23.8711 20.3464 23.9222 19.9889C23.9732 19.6314 23.9534 19.2673 23.8638 18.9175C23.7742 18.5677 23.6166 18.239 23.3999 17.9502L23.3998 17.95ZM27.6658 28.5421C29.0695 27.3584 30.0175 25.6512 30.2089 23.7216L27.7678 24.95L27.7658 24.951C27.5112 25.0781 27.3076 25.2883 27.1887 25.5468C27.07 25.8048 27.0426 26.0955 27.1112 26.371L27.6658 28.5421ZM22.9946 31.7473C19.3275 31.7473 16.1872 29.4914 14.8859 26.2916C14.8831 26.2849 14.8804 26.2782 14.8778 26.2714C14.4694 25.26 14.2446 24.1549 14.2446 22.9973C14.2446 18.1648 18.1621 14.2473 22.9946 14.2473C27.8271 14.2473 31.7446 18.1648 31.7446 22.9973C31.7446 27.8298 27.8271 31.7473 22.9946 31.7473Z" fill="#474445"/>
</svg>
