<svg width="32" height="32" viewBox="0 0 32 32" fill="none" xmlns="http://www.w3.org/2000/svg">
<path d="M12.1022 24.9231L7.79455 28V21.8462H3.48685C2.91562 21.8462 2.36778 21.63 1.96385 21.2453C1.55993 20.8607 1.33301 20.3389 1.33301 19.7949V3.38462C1.33301 2.84058 1.55993 2.31883 1.96385 1.93414C2.36778 1.54945 2.91562 1.33334 3.48685 1.33334H28.5125C29.0837 1.33334 29.6316 1.54945 30.0355 1.93414C30.4394 2.31883 30.6663 2.84058 30.6663 3.38462V9.53846M7.99034 14.2667C9.25115 14.9339 10.6014 15.4162 11.9997 15.6987M10.6663 6.66667V8.66667M21.333 6.66667V8.66667M27.333 27.1111H29.333C30.0694 27.1111 30.6663 26.5142 30.6663 25.7778V18.6667C30.6663 17.9303 30.0694 17.3333 29.333 17.3333H18.6663C17.93 17.3333 17.333 17.9303 17.333 18.6667V25.7778C17.333 26.5142 17.93 27.1111 18.6663 27.1111H22.333L27.333 30.6667V27.1111Z" stroke="#767676" stroke-width="1.5" stroke-linecap="round" stroke-linejoin="round"/>
</svg>
