<svg width="32" height="32" viewBox="0 0 32 32" fill="none" xmlns="http://www.w3.org/2000/svg">
<path d="M12.5382 25.5334C12.8752 25.2926 12.9533 24.8242 12.7125 24.4872C12.4718 24.1501 12.0034 24.072 11.6663 24.3128L12.5382 25.5334ZM7.79455 28H7.04455C7.04455 28.2809 7.20156 28.5383 7.45136 28.6669C7.70116 28.7954 8.00186 28.7736 8.23048 28.6103L7.79455 28ZM7.79455 21.8462H8.54455C8.54455 21.4319 8.20876 21.0962 7.79455 21.0962V21.8462ZM3.48685 21.8462V22.5962V21.8462ZM1.33301 19.7949H0.583008H1.33301ZM1.33301 3.38462H0.583008H1.33301ZM3.48685 1.33334V0.583336V1.33334ZM28.5125 1.33334V0.583336V1.33334ZM29.9163 9.5C29.9163 9.91421 30.2521 10.25 30.6663 10.25C31.0806 10.25 31.4163 9.91421 31.4163 9.5H29.9163ZM11.6663 24.3128L7.35862 27.3897L8.23048 28.6103L12.5382 25.5334L11.6663 24.3128ZM8.54455 28V21.8462H7.04455V28H8.54455ZM7.79455 21.0962H3.48685V22.5962H7.79455V21.0962ZM3.48685 21.0962C3.10304 21.0962 2.74187 20.9506 2.4811 20.7022L1.44661 21.7885C1.99368 22.3095 2.72819 22.5962 3.48685 22.5962V21.0962ZM2.4811 20.7022C2.22156 20.4551 2.08301 20.1279 2.08301 19.7949H0.583008C0.583008 20.55 0.898299 21.2662 1.44661 21.7885L2.4811 20.7022ZM2.08301 19.7949V3.38462H0.583008V19.7949H2.08301ZM2.08301 3.38462C2.08301 3.05163 2.22156 2.72442 2.4811 2.47725L1.44661 1.39104C0.898299 1.91324 0.583008 2.62954 0.583008 3.38462H2.08301ZM2.4811 2.47725C2.74187 2.22889 3.10304 2.08334 3.48685 2.08334V0.583336C2.72819 0.583336 1.99368 0.870019 1.44661 1.39104L2.4811 2.47725ZM3.48685 2.08334H28.5125V0.583336H3.48685V2.08334ZM28.5125 2.08334C28.8963 2.08334 29.2575 2.22889 29.5183 2.47725L30.5527 1.39104C30.0057 0.87002 29.2712 0.583336 28.5125 0.583336V2.08334ZM29.5183 2.47725C29.7778 2.72442 29.9163 3.05163 29.9163 3.38462H31.4163C31.4163 2.62953 31.101 1.91324 30.5527 1.39104L29.5183 2.47725ZM29.9163 3.38462V9.5H31.4163V3.38462H29.9163Z" fill="#71717A"/>
<path d="M8.34105 13.6038C7.97495 13.41 7.52109 13.5497 7.32734 13.9159C7.13359 14.282 7.27331 14.7358 7.63942 14.9296L8.34105 13.6038ZM11.8511 16.4338C12.2571 16.5158 12.6527 16.2532 12.7347 15.8472C12.8167 15.4412 12.5541 15.0455 12.1481 14.9635L11.8511 16.4338ZM7.63942 14.9296C8.96384 15.6305 10.3823 16.1371 11.8511 16.4338L12.1481 14.9635C10.8204 14.6953 9.53824 14.2374 8.34105 13.6038L7.63942 14.9296Z" fill="#71717A"/>
<path d="M11.416 6.66667C11.416 6.25246 11.0802 5.91667 10.666 5.91667C10.2518 5.91667 9.91602 6.25246 9.91602 6.66667H11.416ZM9.91602 8.66667C9.91602 9.08089 10.2518 9.41667 10.666 9.41667C11.0802 9.41667 11.416 9.08089 11.416 8.66667H9.91602ZM9.91602 6.66667V8.66667H11.416V6.66667H9.91602Z" fill="#71717A"/>
<path d="M22.083 6.66667C22.083 6.25246 21.7472 5.91667 21.333 5.91667C20.9188 5.91667 20.583 6.25246 20.583 6.66667H22.083ZM20.583 8.66667C20.583 9.08089 20.9188 9.41667 21.333 9.41667C21.7472 9.41667 22.083 9.08089 22.083 8.66667H20.583ZM20.583 6.66667V8.66667H22.083V6.66667H20.583Z" fill="#71717A"/>
<path d="M27.333 27.1111V26.3611C26.9188 26.3611 26.583 26.6969 26.583 27.1111H27.333ZM27.333 30.6667L26.8984 31.2779C27.1271 31.4405 27.4275 31.4619 27.6769 31.3332C27.9263 31.2045 28.083 30.9473 28.083 30.6667H27.333ZM22.333 27.1111L22.7677 26.4999C22.6407 26.4096 22.4888 26.3611 22.333 26.3611V27.1111ZM29.333 26.3611H27.333V27.8611H29.333V26.3611ZM26.583 27.1111V30.6667H28.083V27.1111H26.583ZM27.7677 30.0555L22.7677 26.4999L21.8984 27.7223L26.8984 31.2779L27.7677 30.0555ZM22.333 26.3611H18.6663V27.8611H22.333V26.3611ZM18.083 25.7778V18.6667H16.583V25.7778H18.083ZM18.6663 18.0833H29.333V16.5833H18.6663V18.0833ZM29.9163 18.6667V25.7778H31.4163V18.6667H29.9163ZM29.333 18.0833C29.6552 18.0833 29.9163 18.3445 29.9163 18.6667H31.4163C31.4163 17.5161 30.4836 16.5833 29.333 16.5833V18.0833ZM18.6663 26.3611C18.3442 26.3611 18.083 26.0999 18.083 25.7778H16.583C16.583 26.9284 17.5157 27.8611 18.6663 27.8611V26.3611ZM18.083 18.6667C18.083 18.3445 18.3442 18.0833 18.6663 18.0833V16.5833C17.5157 16.5833 16.583 17.5161 16.583 18.6667H18.083ZM29.333 27.8611C30.4836 27.8611 31.4163 26.9284 31.4163 25.7778H29.9163C29.9163 26.0999 29.6552 26.3611 29.333 26.3611V27.8611Z" fill="#71717A"/>
</svg>
