<svg width="32" height="32" viewBox="0 0 32 32" fill="none" xmlns="http://www.w3.org/2000/svg">
<path d="M12.1027 24.9231L7.79504 28V21.8461H3.48734C2.91611 21.8461 2.36827 21.63 1.96434 21.2453C1.56042 20.8606 1.3335 20.3389 1.3335 19.7949V3.3846C1.3335 2.84056 1.56042 2.31881 1.96434 1.93412C2.36827 1.54943 2.91611 1.33331 3.48734 1.33331H28.513C29.0842 1.33331 29.6321 1.54943 30.036 1.93412C30.4399 2.31881 30.6668 2.84056 30.6668 3.3846V9.53844M7.99083 14.2666C9.25164 14.9339 10.6019 15.4162 12.0002 15.6986M10.6668 6.66665V8.66665M21.3335 6.66665V8.66665M27.3335 27.1111H29.3335C30.0699 27.1111 30.6668 26.5141 30.6668 25.7778V18.6666C30.6668 17.9303 30.0699 17.3333 29.3335 17.3333H18.6668C17.9305 17.3333 17.3335 17.9303 17.3335 18.6666V25.7778C17.3335 26.5141 17.9305 27.1111 18.6668 27.1111H22.3335L27.3335 30.6666V27.1111Z" stroke="#474445" stroke-width="1.5" stroke-linecap="round" stroke-linejoin="round"/>
</svg>
