<svg width="32" height="32" viewBox="0 0 32 32" fill="none" xmlns="http://www.w3.org/2000/svg">
<g clip-path="url(#clip0_1199_28)">
<path d="M22.25 10C22.25 10.4142 22.5858 10.75 23 10.75C23.4142 10.75 23.75 10.4142 23.75 10H22.25ZM10 27.75C10.4142 27.75 10.75 27.4142 10.75 27C10.75 26.5858 10.4142 26.25 10 26.25V27.75ZM18.8787 1.87868L19.409 1.34835L18.8787 1.87868ZM22.4142 5.41421L22.9445 4.88388L22.4142 5.41421ZM23.75 10V6.82843H22.25V10H23.75ZM22.9445 4.88388L19.409 1.34835L18.3483 2.40901L21.8839 5.94454L22.9445 4.88388ZM16.7574 0.25H3V1.75H16.7574V0.25ZM0.25 3V25H1.75V3H0.25ZM3 27.75H10V26.25H3V27.75ZM0.25 25C0.25 26.5188 1.48122 27.75 3 27.75V26.25C2.30964 26.25 1.75 25.6904 1.75 25H0.25ZM3 0.25C1.48122 0.25 0.25 1.48122 0.25 3H1.75C1.75 2.30964 2.30964 1.75 3 1.75V0.25ZM19.409 1.34835C18.7057 0.645087 17.7519 0.25 16.7574 0.25V1.75C17.3541 1.75 17.9264 1.98705 18.3483 2.40901L19.409 1.34835ZM23.75 6.82843C23.75 6.09908 23.4603 5.39961 22.9445 4.88388L21.8839 5.94454C22.1183 6.17896 22.25 6.49691 22.25 6.82843H23.75Z" fill="#767676"/>
<path d="M6.5 8H17.5" stroke="#767676" stroke-width="1.5" stroke-linecap="round"/>
<path d="M6.5 14.5H13.5" stroke="#767676" stroke-width="1.5" stroke-linecap="round"/>
<path d="M6.5 21H9.5" stroke="#767676" stroke-width="1.5" stroke-linecap="round"/>
<circle cx="23" cy="23" r="8" stroke="#767676" stroke-width="1.5"/>
<path d="M19.5 24L21.6138 25.6911C21.8278 25.8622 22.1397 25.8293 22.3132 25.6173L26.5 20.5" stroke="#767676" stroke-width="1.5" stroke-linecap="round" stroke-linejoin="round"/>
</g>
<defs>
<clipPath id="clip0_1199_28">
<rect width="32" height="32" fill="white"/>
</clipPath>
</defs>
</svg>
