<svg width="32" height="32" viewBox="0 0 32 32" fill="none" xmlns="http://www.w3.org/2000/svg">
<path d="M25.25 10C25.25 10.4142 25.5858 10.75 26 10.75C26.4142 10.75 26.75 10.4142 26.75 10H25.25ZM10.7826 27.75C11.1968 27.75 11.5326 27.4142 11.5326 27C11.5326 26.5858 11.1968 26.25 10.7826 26.25V27.75ZM21.1393 1.52814L20.6315 2.08009L21.1393 1.52814ZM25.5156 5.55434L26.0234 5.00239L25.5156 5.55434ZM26.75 10V6.65823H25.25V10H26.75ZM26.0234 5.00239L21.6471 0.97619L20.6315 2.08009L25.0078 6.10629L26.0234 5.00239ZM19.7852 0.25H2.5V1.75H19.7852V0.25ZM0.25 2.5V25.5H1.75V2.5H0.25ZM2.5 27.75H10.7826V26.25H2.5V27.75ZM0.25 25.5C0.25 26.7426 1.25736 27.75 2.5 27.75V26.25C2.08579 26.25 1.75 25.9142 1.75 25.5H0.25ZM2.5 0.25C1.25736 0.25 0.25 1.25736 0.25 2.5H1.75C1.75 2.08579 2.08579 1.75 2.5 1.75V0.25ZM21.6471 0.97619C21.1395 0.509195 20.4749 0.25 19.7852 0.25V1.75C20.0987 1.75 20.4008 1.86782 20.6315 2.08009L21.6471 0.97619ZM26.75 6.65823C26.75 6.02896 26.4865 5.42844 26.0234 5.00239L25.0078 6.10629C25.1622 6.2483 25.25 6.44848 25.25 6.65823H26.75Z" fill="#71717A"/>
<path d="M6 7H20" stroke="#71717A" stroke-width="1.5" stroke-linecap="round"/>
<path d="M6 14H13" stroke="#71717A" stroke-width="1.5" stroke-linecap="round"/>
<path d="M6 21H9" stroke="#71717A" stroke-width="1.5" stroke-linecap="round"/>
<circle cx="23" cy="23" r="8" stroke="#71717A" stroke-width="1.5"/>
<path d="M19.5 24L21.6138 25.6911C21.8278 25.8622 22.1397 25.8293 22.3132 25.6173L26.5 20.5" stroke="#71717A" stroke-width="1.5" stroke-linecap="round" stroke-linejoin="round"/>
</svg>
