<svg width="32" height="32" viewBox="0 0 32 32" fill="none" xmlns="http://www.w3.org/2000/svg">
<path d="M23 31C27.4183 31 31 27.4183 31 23C31 18.5817 27.4183 15 23 15C18.5817 15 15 18.5817 15 23C15 27.4183 18.5817 31 23 31Z" stroke="#474445" stroke-width="1.5" stroke-linecap="round" stroke-linejoin="round"/>
<path d="M26.5654 20.6747L22.6921 25.8387C22.6059 25.9531 22.4962 26.0478 22.3704 26.1163C22.2446 26.1848 22.1055 26.2255 21.9627 26.2357C21.8198 26.246 21.6763 26.2255 21.542 26.1756C21.4077 26.1257 21.2857 26.0477 21.1841 25.9467L19.1841 23.9467" stroke="#474445" stroke-width="1.5" stroke-linecap="round" stroke-linejoin="round"/>
<path d="M10 27H3C2.46957 27 1.96086 26.7893 1.58579 26.4142C1.21071 26.0391 1 25.5304 1 25V3C1 2.46957 1.21071 1.96086 1.58579 1.58579C1.96086 1.21071 2.46957 1 3 1H17.172C17.7023 1.00047 18.2106 1.21149 18.5853 1.58667L22.4147 5.41467C22.6004 5.60047 22.7476 5.82104 22.8481 6.06377C22.9485 6.30651 23.0001 6.56665 23 6.82933V10" stroke="#474445" stroke-width="1.5" stroke-linecap="round" stroke-linejoin="round"/>
<path d="M6.6665 8H17.3332" stroke="#474445" stroke-width="1.5" stroke-linecap="round" stroke-linejoin="round"/>
<path d="M6.6665 14.6667H13.3332" stroke="#474445" stroke-width="1.5" stroke-linecap="round" stroke-linejoin="round"/>
<path d="M6.6665 21.3333H9.33317" stroke="#474445" stroke-width="1.5" stroke-linecap="round" stroke-linejoin="round"/>
</svg>
