<svg width="32" height="32" viewBox="0 0 32 32" fill="none" xmlns="http://www.w3.org/2000/svg">
<path fill-rule="evenodd" clip-rule="evenodd" d="M0.25 3C0.25 1.48122 1.48122 0.25 3 0.25H16.7574C17.7519 0.25 18.7057 0.645087 19.409 1.34835L22.9445 4.88388C23.4603 5.39961 23.75 6.09908 23.75 6.82843V10C23.75 10.4142 23.4142 10.75 23 10.75C22.5858 10.75 22.25 10.4142 22.25 10V6.82843C22.25 6.49691 22.1183 6.17896 21.8839 5.94454L18.3483 2.40901C17.9264 1.98705 17.3541 1.75 16.7574 1.75H3C2.30964 1.75 1.75 2.30964 1.75 3V25C1.75 25.6904 2.30964 26.25 3 26.25H10C10.4142 26.25 10.75 26.5858 10.75 27C10.75 27.4142 10.4142 27.75 10 27.75H3C1.48122 27.75 0.25 26.5188 0.25 25V3ZM5.75 8C5.75 7.58579 6.08579 7.25 6.5 7.25H17.5C17.9142 7.25 18.25 7.58579 18.25 8C18.25 8.41421 17.9142 8.75 17.5 8.75H6.5C6.08579 8.75 5.75 8.41421 5.75 8ZM6.5 13.75C6.08579 13.75 5.75 14.0858 5.75 14.5C5.75 14.9142 6.08579 15.25 6.5 15.25H13.5C13.9142 15.25 14.25 14.9142 14.25 14.5C14.25 14.0858 13.9142 13.75 13.5 13.75H6.5ZM5.75 21C5.75 20.5858 6.08579 20.25 6.5 20.25H9.5C9.91421 20.25 10.25 20.5858 10.25 21C10.25 21.4142 9.91421 21.75 9.5 21.75H6.5C6.08579 21.75 5.75 21.4142 5.75 21ZM23 15.75C18.9959 15.75 15.75 18.9959 15.75 23C15.75 27.0041 18.9959 30.25 23 30.25C27.0041 30.25 30.25 27.0041 30.25 23C30.25 18.9959 27.0041 15.75 23 15.75ZM14.25 23C14.25 18.1675 18.1675 14.25 23 14.25C27.8325 14.25 31.75 18.1675 31.75 23C31.75 27.8325 27.8325 31.75 23 31.75C18.1675 31.75 14.25 27.8325 14.25 23ZM26.9269 19.8834C27.2675 20.1191 27.3524 20.5863 27.1166 20.9269L23.2987 26.4417C22.6772 27.3394 21.3944 27.4551 20.6224 26.6831L18.4697 24.5303C18.1768 24.2374 18.1768 23.7626 18.4697 23.4697C18.7626 23.1768 19.2374 23.1768 19.5303 23.4697L21.6831 25.6224C21.7934 25.7327 21.9766 25.7162 22.0654 25.5879L25.8834 20.0731C26.1191 19.7325 26.5863 19.6476 26.9269 19.8834Z" fill="#474445"/>
</svg>
