<svg width="32" height="32" viewBox="0 0 32 32" fill="none" xmlns="http://www.w3.org/2000/svg">
<path fill-rule="evenodd" clip-rule="evenodd" d="M1.75 16C1.75 8.12994 8.12994 1.75 16 1.75C23.8701 1.75 30.25 8.12994 30.25 16C30.25 20.3366 28.3129 24.2207 25.2568 26.8343C24.0879 25.7694 22.7428 24.913 21.2798 24.3043C19.6066 23.6082 17.8123 23.2498 16 23.2498C14.1878 23.2498 12.3935 23.6082 10.7203 24.3043C9.25728 24.913 7.91212 25.7694 6.74328 26.8344C3.68713 24.2207 1.75 20.3366 1.75 16ZM7.95509 27.7635C10.2445 29.3322 13.0151 30.25 16 30.25C18.9849 30.25 21.7555 29.3322 24.045 27.7635C23.0517 26.8978 21.9236 26.1968 20.7036 25.6892C19.213 25.0691 17.6145 24.7498 16 24.7498C14.3856 24.7498 12.7871 25.0691 11.2965 25.6892C10.0765 26.1968 8.94841 26.8978 7.95509 27.7635ZM25.6744 28.4294C23.0048 30.5103 19.6471 31.75 16 31.75C7.30152 31.75 0.25 24.6985 0.25 16C0.25 7.30152 7.30152 0.25 16 0.25C24.6985 0.25 31.75 7.30152 31.75 16C31.75 21.0482 29.375 25.5416 25.6814 28.424C25.6791 28.4258 25.6768 28.4276 25.6744 28.4294ZM9.75005 13C9.75005 12.1848 9.90614 11.406 10.1901 10.6919C11.1734 11.5521 12.2887 12.2525 13.4952 12.7652C15.0253 13.4154 16.6707 13.7503 18.3332 13.75L10.1901 10.6919L18.3335 13.75C19.6666 13.7503 20.9886 13.5355 22.249 13.1157C22.1873 16.5141 19.4132 19.25 16 19.25C12.5483 19.25 9.75005 16.4518 9.75005 13ZM18.3336 12.25C19.6163 12.2504 20.8875 12.024 22.0887 11.5828C21.4467 8.81372 18.9644 6.75 16 6.75C13.9145 6.75 12.0675 7.7715 10.9322 9.34147C11.8544 10.1991 12.92 10.891 14.0819 11.3847C15.4264 11.956 16.8723 12.2503 18.3332 12.25H18.3336ZM8.25005 13C8.25005 11.5729 8.63576 10.236 9.30862 9.08763C9.31715 9.07191 9.32629 9.05643 9.33602 9.04123C10.6875 6.77103 13.1662 5.25 16 5.25C20.2803 5.25 23.75 8.71979 23.75 13C23.75 17.2802 20.2803 20.75 16 20.75C11.7198 20.75 8.25005 17.2802 8.25005 13Z" fill="#474445"/>
</svg>
