<svg width="32" height="32" viewBox="0 0 32 32" fill="none" xmlns="http://www.w3.org/2000/svg">
<path d="M9.968 9.44533C11.0518 10.5698 12.3512 11.4642 13.7885 12.0749C15.2259 12.6857 16.7716 13.0003 18.3333 13C19.9151 13.0004 21.4803 12.6783 22.9333 12.0533M25.2173 27.8347C24.0096 26.6194 22.5735 25.6549 20.9916 24.9968C19.4097 24.3386 17.7133 23.9998 16 23.9998C14.2867 23.9998 12.5903 24.3386 11.0084 24.9968C9.42649 25.6549 7.99038 26.6194 6.78267 27.8347M23 13C23 16.866 19.866 20 16 20C12.134 20 9 16.866 9 13C9 9.13401 12.134 6 16 6C19.866 6 23 9.13401 23 13ZM31 16C31 24.2843 24.2843 31 16 31C7.71573 31 1 24.2843 1 16C1 7.71573 7.71573 1 16 1C24.2843 1 31 7.71573 31 16Z" stroke="#474445" stroke-width="1.5" stroke-linecap="round" stroke-linejoin="round"/>
</svg>
