<svg width="32" height="32" viewBox="0 0 32 32" fill="none" xmlns="http://www.w3.org/2000/svg">
<path d="M14.0612 3.25068L14.6185 2.74869L14.6171 2.74725L14.0612 3.25068ZM12.8079 1.86668L13.3638 1.36324L13.3627 1.36201L12.8079 1.86668ZM11.4459 1.07529L11.6097 0.343379L11.6097 0.343379L11.4459 1.07529ZM9.87661 1.2109L9.58974 0.517932L9.58974 0.517932L9.87661 1.2109ZM8.26656 3.74668L7.51738 3.78183L7.51741 3.78251L8.26656 3.74668ZM8.35589 5.61468L7.60674 5.65051L7.60696 5.65479L8.35589 5.61468ZM8.18699 6.68788L7.48658 6.41968L7.48658 6.41968L8.18699 6.68788ZM7.59588 7.59941L7.06529 7.06933L7.06529 7.06933L7.59588 7.59941ZM5.61189 8.36135L5.65127 7.61238L5.64988 7.61231L5.61189 8.36135ZM3.74522 8.26668L3.78321 7.51764L3.78103 7.51754L3.74522 8.26668ZM2.22192 8.66998L1.82011 8.0367L1.82011 8.0367L2.22192 8.66998ZM1.20819 9.87641L1.90123 10.1631L1.20819 9.87641ZM1.07336 11.4464L1.80513 11.2821L1.07336 11.4464ZM1.86656 12.808L2.37066 12.2527L2.37046 12.2525L1.86656 12.808ZM3.25456 14.068L2.75045 14.6233L2.75183 14.6246L3.25456 14.068ZM3.89108 14.9463L4.57648 14.6418H4.57648L3.89108 14.9463ZM3.89108 17.0684L4.57648 17.3729H4.57648L3.89108 17.0684ZM3.25456 17.9467L3.7572 18.5033L3.75728 18.5033L3.25456 17.9467ZM1.86656 19.2L1.36392 18.6434L1.36326 18.644L1.86656 19.2ZM1.0711 20.5642L0.339277 20.4001H0.339277L1.0711 20.5642ZM1.20773 22.1375L1.9003 21.8497L1.20773 22.1375ZM2.22648 23.3442L1.82658 23.9787H1.82658L2.22648 23.3442ZM3.75456 23.7427L3.71657 22.9936L3.71547 22.9937L3.75456 23.7427ZM5.62123 23.648L5.65921 24.3971L5.65975 24.397L5.62123 23.648ZM6.69209 23.8184L6.96121 23.1184L6.96121 23.1184L6.69209 23.8184ZM7.60136 24.4092L7.07103 24.9395L7.07103 24.9395L7.60136 24.4092ZM8.36256 26.3893L7.61355 26.3508L7.61355 26.3508L8.36256 26.3893ZM8.26656 28.256L7.51754 28.2175L7.51734 28.2217L8.26656 28.256ZM8.67185 29.7774L8.03901 30.1799H8.03901L8.67185 29.7774ZM9.87795 30.7895L10.1645 30.0964H10.1645L9.87795 30.7895ZM11.4466 30.9245L11.2827 30.1926H11.2827L11.4466 30.9245ZM12.8079 30.1333L13.3627 30.6381L13.3632 30.6375L12.8079 30.1333ZM14.0679 28.7453L14.6232 29.2495L14.6246 29.248L14.0679 28.7453ZM14.9458 28.1089L14.6412 27.4235L14.6412 27.4235L14.9458 28.1089ZM17.0673 28.1089L16.7627 28.7943L16.7627 28.7943L17.0673 28.1089ZM17.9452 28.7453L17.3886 29.248L17.3888 29.2483L17.9452 28.7453ZM19.1999 30.1333L18.6435 30.6363L18.6467 30.6398L19.1999 30.1333ZM22.1266 30.7826L21.8394 30.0897L21.8394 30.0897L22.1266 30.7826ZM23.3302 29.7718L22.6974 29.3692V29.3692L23.3302 29.7718ZM23.7359 28.2533L24.4852 28.22L24.4849 28.2154L23.7359 28.2533ZM23.6412 26.3867L24.3903 26.3487L24.3902 26.3482L23.6412 26.3867ZM23.8116 25.3158L23.1116 25.0467V25.0467L23.8116 25.3158ZM25.3117 23.8158L25.5808 24.5158L25.5808 24.5158L25.3117 23.8158ZM26.3826 23.6453L26.344 24.3944L26.3446 24.3944L26.3826 23.6453ZM28.2492 23.74L28.2874 22.991L28.2872 22.991L28.2492 23.74ZM29.7774 23.3395L30.178 23.9735L29.7774 23.3395ZM30.9302 20.5573L30.1985 20.7222L30.1986 20.7222L30.9302 20.5573ZM30.1332 19.1933L30.636 18.6369L30.6356 18.6365L30.1332 19.1933ZM28.7439 17.94L28.2412 18.4966L28.2415 18.4969L28.7439 17.94ZM28.1074 17.0617L27.422 17.3663V17.3663L28.1074 17.0617ZM28.1074 14.9396L27.422 14.6351V14.6351L28.1074 14.9396ZM28.7439 14.0613L28.2415 13.5045L28.2412 13.5048L28.7439 14.0613ZM30.1332 12.808L30.6356 13.3649L30.6361 13.3644L30.1332 12.808ZM30.9298 11.4451L30.1982 11.28V11.28L30.9298 11.4451ZM30.7956 9.8721L30.1025 10.1587V10.1587L30.7956 9.8721ZM29.7797 8.66373L29.3784 9.29728L29.3784 9.29729L29.7797 8.66373ZM28.2532 8.26135L28.2163 7.51226L28.2152 7.51231L28.2532 8.26135ZM26.3866 8.35602L26.4231 9.10513L26.4245 9.10505L26.3866 8.35602ZM24.4119 7.59313L23.8812 8.12307L23.8812 8.12307L24.4119 7.59313ZM23.8226 6.68573L23.1226 6.95499L23.1227 6.95499L23.8226 6.68573ZM23.6519 5.61735L22.9029 5.57936L22.9028 5.57968L23.6519 5.61735ZM23.7466 3.75068L22.9975 3.71254L22.9975 3.7127L23.7466 3.75068ZM23.346 2.22255L23.9801 1.82191L23.346 2.22255ZM22.1378 1.20479L21.8507 1.89766L21.8507 1.89766L22.1378 1.20479ZM20.5639 1.0697L20.399 0.338035L20.5639 1.0697ZM19.1999 1.86668L19.7542 2.37188L19.7564 2.3695L19.1999 1.86668ZM17.9386 3.25068L17.3842 2.74548L17.3813 2.74869L17.9386 3.25068ZM17.0609 3.88808L17.3659 4.57328L17.3659 4.57328L17.0609 3.88808ZM13.504 3.75267C13.819 4.10234 14.204 4.38191 14.6339 4.57328L15.2438 3.20288C15.0059 3.09697 14.7928 2.94223 14.6185 2.74869L13.504 3.75267ZM12.252 2.37012L13.5053 3.75412L14.6171 2.74725L13.3638 1.36325L12.252 2.37012ZM11.2822 1.80719C11.6562 1.89086 11.9952 2.08787 12.2531 2.37135L13.3627 1.36201C12.8971 0.850166 12.2849 0.494442 11.6097 0.343379L11.2822 1.80719ZM10.1635 1.90387C10.5176 1.75729 10.9082 1.72353 11.2822 1.80719L11.6097 0.343379C10.9345 0.192316 10.2291 0.253273 9.58974 0.517932L10.1635 1.90387ZM9.30377 2.62622C9.50918 2.3027 9.80941 2.05045 10.1635 1.90387L9.58974 0.517932C8.95043 0.782591 8.40834 1.23806 8.03746 1.82219L9.30377 2.62622ZM9.01573 3.71154C8.99778 3.32874 9.09836 2.94973 9.30377 2.62622L8.03746 1.82219C7.66658 2.40632 7.48496 3.09066 7.51738 3.78183L9.01573 3.71154ZM9.10504 5.57886L9.0157 3.71086L7.51741 3.78251L7.60675 5.65051L9.10504 5.57886ZM8.88739 6.95609C9.05594 6.51593 9.13002 6.04523 9.10482 5.57458L7.60696 5.65479C7.62092 5.91537 7.5799 6.17598 7.48658 6.41968L8.88739 6.95609ZM8.12646 8.12948C8.45958 7.79604 8.71884 7.39625 8.88739 6.95609L7.48658 6.41968C7.39326 6.66338 7.24972 6.88472 7.06529 7.06933L8.12646 8.12948ZM6.95381 8.89154C7.39381 8.72256 7.79334 8.46292 8.12646 8.12948L7.06529 7.06933C6.88085 7.25395 6.65965 7.3977 6.41604 7.49126L6.95381 8.89154ZM5.57251 9.11031C6.04319 9.13506 6.51382 9.06052 6.95381 8.89154L6.41604 7.49126C6.17243 7.58482 5.91187 7.62608 5.65127 7.61238L5.57251 9.11031ZM3.70724 9.01572L5.5739 9.11039L5.64988 7.61231L3.78321 7.51765L3.70724 9.01572ZM2.62373 9.30327C2.94738 9.09791 3.32655 8.99753 3.70942 9.01583L3.78103 7.51754C3.08952 7.48448 2.40467 7.6658 1.82011 8.0367L2.62373 9.30327ZM1.90123 10.1631C2.04775 9.80892 2.30008 9.50862 2.62373 9.30327L1.82011 8.0367C1.23554 8.4076 0.77979 8.94999 0.515148 9.58971L1.90123 10.1631ZM1.80513 11.2821C1.72115 10.9081 1.75471 10.5173 1.90123 10.1631L0.515148 9.58971C0.250506 10.2294 0.18989 10.9353 0.341587 11.6108L1.80513 11.2821ZM2.37046 12.2525C2.08656 11.995 1.88912 11.6561 1.80513 11.2821L0.341587 11.6108C0.493283 12.2862 0.849889 12.8984 1.36266 13.3635L2.37046 12.2525ZM3.75866 13.5127L2.37066 12.2527L1.36245 13.3633L2.75045 14.6233L3.75866 13.5127ZM4.57648 14.6418C4.38547 14.2119 4.10639 13.8268 3.75728 13.5114L2.75183 14.6246C2.94525 14.7993 3.09986 15.0126 3.20568 15.2508L4.57648 14.6418ZM4.86618 16.0073C4.86618 15.5369 4.76749 15.0717 4.57648 14.6418L3.20568 15.2508C3.3115 15.489 3.36618 15.7467 3.36618 16.0073H4.86618ZM4.57648 17.3729C4.76749 16.943 4.86618 16.4778 4.86618 16.0073H3.36618C3.36618 16.268 3.3115 16.5257 3.20568 16.7639L4.57648 17.3729ZM3.75728 18.5033C4.10639 18.1879 4.38547 17.8028 4.57648 17.3729L3.20568 16.7639C3.09986 17.0021 2.94525 17.2154 2.75184 17.3901L3.75728 18.5033ZM2.3692 19.7567L3.7572 18.5033L2.75192 17.39L1.36392 18.6434L2.3692 19.7567ZM1.80292 20.7284C1.88699 20.3535 2.08503 20.0139 2.36986 19.7561L1.36326 18.644C0.848824 19.1096 0.491127 19.723 0.339277 20.4001L1.80292 20.7284ZM1.9003 21.8497C1.75286 21.4949 1.71884 21.1032 1.80292 20.7284L0.339277 20.4001C0.187427 21.0772 0.24887 21.7846 0.515169 22.4253L1.9003 21.8497ZM2.62638 22.7097C2.30137 22.5048 2.04774 22.2044 1.9003 21.8497L0.515169 22.4253C0.781469 23.0661 1.23957 23.6087 1.82658 23.9787L2.62638 22.7097ZM3.71547 22.9937C3.33182 23.0137 2.95138 22.9145 2.62638 22.7097L1.82658 23.9787C2.41359 24.3486 3.10072 24.5278 3.79365 24.4917L3.71547 22.9937ZM5.58324 22.899L3.71657 22.9936L3.79254 24.4917L5.65921 24.3971L5.58324 22.899ZM6.96121 23.1184C6.52212 22.9496 6.05249 22.8748 5.5827 22.899L5.65975 24.397C5.91986 24.3836 6.17987 24.425 6.42298 24.5185L6.96121 23.1184ZM8.13169 23.8789C7.79906 23.5462 7.40029 23.2872 6.96121 23.1184L6.42298 24.5185C6.66609 24.6119 6.88686 24.7554 7.07103 24.9395L8.13169 23.8789ZM8.89221 25.0494C8.72342 24.6103 8.46432 24.2115 8.13169 23.8789L7.07103 24.9395C7.25519 25.1237 7.39864 25.3445 7.4921 25.5876L8.89221 25.0494ZM9.11157 26.4279C9.13573 25.9581 9.061 25.4885 8.89221 25.0494L7.4921 25.5876C7.58555 25.8307 7.62693 26.0907 7.61355 26.3508L9.11157 26.4279ZM9.01557 28.2945L9.11157 26.4279L7.61355 26.3508L7.51755 28.2175L9.01557 28.2945ZM9.30469 29.3749C9.09912 29.0517 8.99823 28.673 9.01577 28.2904L7.51734 28.2217C7.48568 28.9125 7.66785 29.5964 8.03901 30.1799L9.30469 29.3749ZM10.1645 30.0964C9.8105 29.95 9.51026 29.6981 9.30469 29.3749L8.03901 30.1799C8.41018 30.7635 8.95229 31.2184 9.59143 31.4826L10.1645 30.0964ZM11.2827 30.1926C10.9089 30.2763 10.5185 30.2427 10.1645 30.0964L9.59142 31.4826C10.2306 31.7468 10.9356 31.8075 11.6105 31.6563L11.2827 30.1926ZM12.2531 29.6286C11.9954 29.912 11.6565 30.1089 11.2827 30.1926L11.6105 31.6563C12.2854 31.5052 12.8973 31.1496 13.3627 30.6381L12.2531 29.6286ZM13.5126 28.2412L12.2526 29.6292L13.3632 30.6375L14.6232 29.2495L13.5126 28.2412ZM14.6412 27.4235C14.2114 27.6145 13.8264 27.8936 13.5112 28.2427L14.6246 29.248C14.7991 29.0546 15.0123 28.9001 15.2504 28.7943L14.6412 27.4235ZM16.0066 27.1338C15.5362 27.1338 15.0711 27.2325 14.6412 27.4235L15.2504 28.7943C15.4885 28.6885 15.7461 28.6338 16.0066 28.6338V27.1338ZM17.3719 27.4235C16.942 27.2325 16.4769 27.1338 16.0066 27.1338V28.6338C16.2671 28.6338 16.5247 28.6885 16.7627 28.7943L17.3719 27.4235ZM18.5019 28.2427C18.1867 27.8936 17.8017 27.6145 17.3719 27.4235L16.7627 28.7943C17.0008 28.9001 17.214 29.0546 17.3886 29.248L18.5019 28.2427ZM19.7563 29.6304L18.5016 28.2424L17.3888 29.2483L18.6435 30.6363L19.7563 29.6304ZM20.7232 30.1874C20.35 30.1046 20.0113 29.9089 19.7531 29.6269L18.6467 30.6398C19.1128 31.149 19.7244 31.5023 20.3984 31.6518L20.7232 30.1874ZM21.8394 30.0897C21.4862 30.2361 21.0965 30.2702 20.7232 30.1874L20.3984 31.6518C21.0723 31.8013 21.776 31.7397 22.4137 31.4754L21.8394 30.0897ZM22.6974 29.3692C22.4922 29.6918 22.1926 29.9433 21.8394 30.0897L22.4137 31.4754C23.0515 31.2111 23.5924 30.7569 23.963 30.1744L22.6974 29.3692ZM22.9866 28.2867C23.0037 28.6687 22.9027 29.0466 22.6974 29.3692L23.963 30.1744C24.3336 29.592 24.5159 28.9096 24.4851 28.22L22.9866 28.2867ZM22.8922 26.4247L22.9869 28.2913L24.4849 28.2154L24.3903 26.3487L22.8922 26.4247ZM23.1116 25.0467C22.9428 25.4858 22.8681 25.9554 22.8922 26.4252L24.3902 26.3482C24.3769 26.088 24.4182 25.828 24.5117 25.5849L23.1116 25.0467ZM23.8721 23.8762C23.5395 24.2089 23.2804 24.6076 23.1116 25.0467L24.5117 25.5849C24.6051 25.3418 24.7486 25.121 24.9328 24.9369L23.8721 23.8762ZM25.0426 23.1157C24.6035 23.2845 24.2047 23.5436 23.8721 23.8762L24.9328 24.9369C25.1169 24.7527 25.3377 24.6093 25.5808 24.5158L25.0426 23.1157ZM26.4211 22.8963C25.9513 22.8722 25.4817 22.9469 25.0426 23.1157L25.5808 24.5158C25.8239 24.4224 26.0839 24.381 26.344 24.3944L26.4211 22.8963ZM28.2872 22.991L26.4205 22.8963L26.3446 24.3944L28.2112 24.4891L28.2872 22.991ZM29.3767 22.7055C29.0518 22.9108 28.6713 23.0105 28.2874 22.991L28.2111 24.489C28.9042 24.5243 29.5913 24.3443 30.178 23.9735L29.3767 22.7055ZM30.1022 21.8442C29.9551 22.1993 29.7017 22.5001 29.3767 22.7055L30.178 23.9735C30.7647 23.6028 31.2223 23.0596 31.488 22.4184L30.1022 21.8442ZM30.1986 20.7222C30.283 21.0971 30.2494 21.4891 30.1022 21.8442L31.488 22.4184C31.7537 21.7772 31.8144 21.0695 31.6619 20.3925L30.1986 20.7222ZM29.6304 19.7498C29.9156 20.0075 30.1141 20.3472 30.1985 20.7222L31.6619 20.3925C31.5093 19.7154 31.151 19.1022 30.636 18.6369L29.6304 19.7498ZM28.2415 18.4969L29.6309 19.7502L30.6356 18.6365L29.2463 17.3831L28.2415 18.4969ZM27.422 17.3663C27.613 17.7962 27.8921 18.1812 28.2412 18.4966L29.2466 17.3834C29.0532 17.2087 28.8986 16.9954 28.7928 16.7572L27.422 17.3663ZM27.1323 16.0007C27.1323 16.4711 27.231 16.9363 27.422 17.3663L28.7928 16.7572C28.6869 16.519 28.6323 16.2613 28.6323 16.0007H27.1323ZM27.422 14.6351C27.231 15.065 27.1323 15.5302 27.1323 16.0007H28.6323C28.6323 15.74 28.6869 15.4823 28.7928 15.2441L27.422 14.6351ZM28.2412 13.5048C27.8921 13.8201 27.613 14.2052 27.422 14.6351L28.7928 15.2441C28.8986 15.006 29.0532 14.7926 29.2466 14.6179L28.2412 13.5048ZM29.6309 12.2511L28.2415 13.5045L29.2463 14.6182L30.6356 13.3649L29.6309 12.2511ZM30.1982 11.28C30.1136 11.6547 29.9153 11.994 29.6303 12.2516L30.6361 13.3644C31.1506 12.8994 31.5088 12.2866 31.6614 11.6101L30.1982 11.28ZM30.1025 10.1587C30.2493 10.5136 30.2827 10.9053 30.1982 11.28L31.6614 11.6101C31.814 10.9336 31.7537 10.2264 31.4887 9.58552L30.1025 10.1587ZM29.3784 9.29729C29.7028 9.50285 29.9558 9.80373 30.1025 10.1587L31.4887 9.58552C31.2237 8.94462 30.767 8.40135 30.1811 8.03018L29.3784 9.29729ZM28.2902 9.01044C28.6738 8.99153 29.0539 9.09172 29.3784 9.29728L30.1811 8.03018C29.5953 7.65901 28.909 7.47811 28.2163 7.51226L28.2902 9.01044ZM26.4245 9.10505L28.2912 9.01039L28.2152 7.51231L26.3486 7.60698L26.4245 9.10505ZM25.0481 8.8833C25.486 9.05245 25.9543 9.12801 26.4231 9.10512L26.35 7.60691C26.0904 7.61958 25.8311 7.57774 25.5887 7.48409L25.0481 8.8833ZM23.8812 8.12307C24.2128 8.45519 24.6103 8.71416 25.0481 8.8833L25.5887 7.48409C25.3463 7.39045 25.1262 7.24707 24.9426 7.06318L23.8812 8.12307ZM23.1227 6.95499C23.2912 7.39304 23.5495 7.79095 23.8812 8.12307L24.9426 7.06318C24.759 6.8793 24.6159 6.659 24.5226 6.41646L23.1227 6.95499ZM22.9028 5.57968C22.8793 6.04844 22.9541 6.51693 23.1226 6.95499L24.5226 6.41647C24.4294 6.17393 24.3879 5.91454 24.4009 5.65501L22.9028 5.57968ZM22.9975 3.7127L22.9029 5.57936L24.4009 5.65534L24.4956 3.78867L22.9975 3.7127ZM22.712 2.62318C22.9173 2.94813 23.0171 3.32865 22.9975 3.71254L24.4956 3.78883C24.5309 3.0957 24.3508 2.40862 23.9801 1.82191L22.712 2.62318ZM21.8507 1.89766C22.2058 2.0448 22.5067 2.29824 22.712 2.62318L23.9801 1.82191C23.6093 1.2352 23.0661 0.777598 22.4249 0.511918L21.8507 1.89766ZM20.7287 1.80136C21.1037 1.71688 21.4956 1.75052 21.8507 1.89766L22.4249 0.511919C21.7838 0.246238 21.0761 0.185499 20.399 0.338035L20.7287 1.80136ZM19.7564 2.3695C20.0141 2.0843 20.3537 1.88584 20.7287 1.80136L20.399 0.338035C19.722 0.490571 19.1087 0.848908 18.6434 1.36387L19.7564 2.3695ZM18.4929 3.75588L19.7542 2.37188L18.6456 1.36149L17.3842 2.74549L18.4929 3.75588ZM17.3659 4.57328C17.7958 4.38191 18.1808 4.10234 18.4958 3.75267L17.3813 2.74869C17.207 2.94222 16.9939 3.09697 16.7559 3.20289L17.3659 4.57328ZM15.9999 4.86354C16.4705 4.86354 16.9359 4.76465 17.3659 4.57328L16.7559 3.20288C16.518 3.3088 16.2604 3.36354 15.9999 3.36354V4.86354ZM14.6339 4.57328C15.0639 4.76465 15.5293 4.86354 15.9999 4.86354V3.36354C15.7394 3.36354 15.4818 3.3088 15.2438 3.20288L14.6339 4.57328ZM15.9998 22.0833C19.3596 22.0833 22.0832 19.3597 22.0832 16H20.5832C20.5832 18.5313 18.5311 20.5833 15.9998 20.5833V22.0833ZM9.9165 16C9.9165 19.3597 12.6401 22.0833 15.9998 22.0833V20.5833C13.4685 20.5833 11.4165 18.5313 11.4165 16H9.9165ZM15.9998 9.91666C12.6401 9.91666 9.9165 12.6403 9.9165 16H11.4165C11.4165 13.4687 13.4685 11.4167 15.9998 11.4167V9.91666ZM22.0832 16C22.0832 12.6403 19.3596 9.91666 15.9998 9.91666V11.4167C18.5311 11.4167 20.5832 13.4687 20.5832 16H22.0832Z" fill="#767676"/>
</svg>
