<svg width="32" height="32" viewBox="0 0 32 32" fill="none" xmlns="http://www.w3.org/2000/svg">
<path d="M14.0612 3.25068C14.3059 3.52228 14.6049 3.73944 14.9389 3.88808C15.2729 4.03673 15.6343 4.11354 15.9999 4.11354C16.3654 4.11354 16.7269 4.03673 17.0609 3.88808C17.3949 3.73944 17.6939 3.52228 17.9386 3.25068L19.1999 1.86668C19.5614 1.4666 20.0378 1.18821 20.5639 1.0697C21.0899 0.951188 21.6397 0.998378 22.1378 1.20479C22.636 1.4112 23.058 1.76672 23.346 2.22255C23.6341 2.67838 23.774 3.21217 23.7466 3.75068L23.6519 5.61735C23.6336 5.98149 23.6917 6.34543 23.8226 6.68573C23.9535 7.02602 24.1543 7.33512 24.4119 7.59313C24.6695 7.85113 24.9783 8.0523 25.3184 8.1837C25.6585 8.31509 26.0224 8.37379 26.3866 8.35602L28.2532 8.26135C28.7914 8.23482 29.3246 8.37537 29.7797 8.66373C30.2349 8.9521 30.5897 9.37417 30.7956 9.8721C31.0015 10.37 31.0484 10.9195 30.9298 11.4451C30.8112 11.9707 30.533 12.4467 30.1332 12.808L28.7439 14.0613C28.4726 14.3064 28.2558 14.6056 28.1074 14.9396C27.959 15.2737 27.8823 15.6351 27.8823 16.0007C27.8823 16.3662 27.959 16.7277 28.1074 17.0617C28.2558 17.3958 28.4726 17.695 28.7439 17.94L30.1332 19.1933C30.5333 19.5548 30.8117 20.0313 30.9302 20.5573C31.0487 21.0833 31.0015 21.6332 30.7951 22.1313C30.5887 22.6294 30.2332 23.0515 29.7774 23.3395C29.3215 23.6275 28.7877 23.7674 28.2492 23.74L26.3826 23.6453C26.0176 23.6266 25.6528 23.6846 25.3117 23.8158C24.9706 23.9469 24.6608 24.1481 24.4024 24.4065C24.144 24.6649 23.9428 24.9747 23.8116 25.3158C23.6805 25.6569 23.6225 26.0217 23.6412 26.3867L23.7359 28.2533C23.7598 28.7892 23.6181 29.3193 23.3302 29.7718C23.0423 30.2243 22.622 30.5772 22.1266 30.7826C21.6311 30.9879 21.0844 31.0358 20.5608 30.9196C20.0372 30.8035 19.5621 30.5289 19.1999 30.1333L17.9452 28.7453C17.7003 28.4741 17.4012 28.2573 17.0673 28.1089C16.7334 27.9605 16.372 27.8838 16.0066 27.8838C15.6411 27.8838 15.2798 27.9605 14.9458 28.1089C14.6119 28.2573 14.3128 28.4741 14.0679 28.7453L12.8079 30.1333C12.4463 30.5308 11.9709 30.8071 11.4466 30.9245C10.9223 31.0419 10.3745 30.9948 9.87795 30.7895C9.38139 30.5842 8.96022 30.2308 8.67185 29.7774C8.38349 29.324 8.24196 28.7928 8.26656 28.256L8.36256 26.3893C8.38133 26.0244 8.32328 25.6596 8.19215 25.3185C8.06103 24.9774 7.85976 24.6676 7.60136 24.4092C7.34296 24.1508 7.03319 23.9495 6.69209 23.8184C6.351 23.6873 5.98617 23.6292 5.62123 23.648L3.75456 23.7427C3.21627 23.7708 2.68248 23.6316 2.22648 23.3442C1.77047 23.0568 1.4146 22.6352 1.20773 22.1375C1.00087 21.6398 0.953135 21.0902 1.0711 20.5642C1.18906 20.0383 1.46693 19.5617 1.86656 19.2L3.25456 17.9467C3.52582 17.7017 3.74266 17.4025 3.89108 17.0684C4.03949 16.7344 4.11618 16.3729 4.11618 16.0073C4.11618 15.6418 4.03949 15.2803 3.89108 14.9463C3.74266 14.6122 3.52582 14.313 3.25456 14.068L1.86656 12.808C1.46822 12.4467 1.1912 11.9711 1.07336 11.4464C0.955518 10.9217 1.00261 10.3734 1.20819 9.87641C1.41377 9.37945 1.76781 8.95811 2.22192 8.66998C2.67603 8.38186 3.20804 8.24101 3.74523 8.26668L5.61189 8.36135C5.97753 8.38057 6.34312 8.32267 6.68493 8.1914C7.02673 8.06013 7.3371 7.85844 7.59588 7.59941C7.85465 7.34038 8.05605 7.02981 8.18699 6.68788C8.31792 6.34595 8.37547 5.9803 8.35589 5.61468L8.26656 3.74668C8.24137 3.2097 8.38247 2.67803 8.67062 2.2242C8.95876 1.77038 9.37992 1.41652 9.87661 1.2109C10.3733 1.00528 10.9213 0.957923 11.4459 1.07529C11.9705 1.19265 12.4462 1.46902 12.8079 1.86668L14.0612 3.25068Z" stroke="#71717A" stroke-width="1.5" stroke-linecap="round" stroke-linejoin="round"/>
<path d="M15.9998 21.3333C18.9454 21.3333 21.3332 18.9455 21.3332 16C21.3332 13.0545 18.9454 10.6667 15.9998 10.6667C13.0543 10.6667 10.6665 13.0545 10.6665 16C10.6665 18.9455 13.0543 21.3333 15.9998 21.3333Z" stroke="#71717A" stroke-width="1.5" stroke-linecap="round" stroke-linejoin="round"/>
</svg>
