<svg width="32" height="32" viewBox="0 0 32 32" fill="none" xmlns="http://www.w3.org/2000/svg">
<path fill-rule="evenodd" clip-rule="evenodd" d="M2.75 3C2.75 2.30964 3.30964 1.75 4 1.75H10C10.6904 1.75 11.25 2.30964 11.25 3V6.25H2.75V3ZM1.25 7V3C1.25 1.48122 2.48122 0.25 4 0.25H10C11.5188 0.25 12.75 1.48122 12.75 3V7V13V19V25.503L21.628 5.7576C21.6881 5.60859 21.7189 5.44935 21.7187 5.2886C21.7186 5.12444 21.6861 4.96193 21.6231 4.81034C21.5601 4.65874 21.4678 4.52104 21.3516 4.40509C21.2354 4.28915 21.0975 4.19723 20.9458 4.13458L15.4005 1.84525C15.0176 1.68719 14.8354 1.24868 14.9934 0.865809C15.1515 0.482939 15.59 0.300699 15.9729 0.458762L21.5182 2.7481L21.5182 2.7481C21.852 2.88593 22.1554 3.08816 22.4111 3.34324C22.6668 3.59832 22.8697 3.90126 23.0082 4.23477C23.1468 4.56827 23.2183 4.92581 23.2187 5.28696C23.2191 5.6481 23.1484 6.00579 23.0106 6.3396C23.0076 6.34675 23.0045 6.35385 23.0014 6.3609L13.5098 27.4711L28.8499 14.4205C28.9676 14.3115 29.0632 14.1808 29.1315 14.0356C29.2014 13.8871 29.2414 13.7262 29.2491 13.5623C29.2569 13.3983 29.2322 13.2344 29.1766 13.0799C29.121 12.9255 29.0355 12.7835 28.9251 12.6621L24.8865 8.22483C24.6077 7.9185 24.63 7.44415 24.9363 7.16534C25.2426 6.88653 25.717 6.90884 25.9958 7.21517L30.0345 11.6525L30.0345 11.6526C30.2776 11.9197 30.4656 12.2321 30.588 12.5719C30.7103 12.9117 30.7645 13.2722 30.7475 13.633C30.7304 13.9937 30.6425 14.3476 30.4887 14.6743C30.335 15.0011 30.1183 15.2944 29.8512 15.5374C29.845 15.543 29.8388 15.5485 29.8325 15.5539L12.3524 30.4251C11.8702 31.2193 10.9971 31.75 10 31.75H4C2.48122 31.75 1.25 30.5188 1.25 29V19V13V7ZM2.75 19.75V29C2.75 29.6904 3.30964 30.25 4 30.25H10C10.4695 30.25 10.8786 29.9911 11.0923 29.6083C11.0993 29.594 11.1069 29.5798 11.1149 29.5659C11.1995 29.3996 11.2479 29.2118 11.2499 29.013C11.2498 29.003 11.2498 28.993 11.25 28.9829V19.75H2.75ZM11.25 18.25H2.75V13.75H11.25V18.25ZM11.25 7.75V12.25H2.75V7.75H11.25Z" fill="#767676"/>
</svg>
