<svg width="32" height="32" viewBox="0 0 32 32" fill="none" xmlns="http://www.w3.org/2000/svg">
<path d="M30.7133 15.2492L29.4252 3.54945C29.3682 3.03229 29.1042 2.55937 28.6911 2.23472C28.278 1.91008 27.7497 1.76031 27.2225 1.81836L6.01728 4.15296C5.49004 4.21101 5.007 4.47212 4.67444 4.87885C4.34188 5.28559 4.18704 5.80462 4.24398 6.32179L4.4907 8.56272" stroke="#71717A" stroke-width="1.5" stroke-linecap="round" stroke-linejoin="round"/>
<path d="M25.0258 12.0093H2.97444C1.88404 12.0093 1.0001 12.9005 1.0001 14L1 29.0093C1 30.1087 1.88394 31 2.97433 31H25.0257C26.1161 31 27 30.1087 27 29.0093L27.0001 14C27.0001 12.9005 26.1162 12.0093 25.0258 12.0093Z" stroke="#71717A" stroke-width="1.51972" stroke-linecap="round" stroke-linejoin="round"/>
<path d="M1 25H27" stroke="#71717A" stroke-width="1.5" stroke-linecap="round" stroke-linejoin="round"/>
<path d="M6 17H9.33366" stroke="#71717A" stroke-width="1.5" stroke-linecap="round" stroke-linejoin="round"/>
<path d="M9.88477 8.8233L12.8667 8.495" stroke="#71717A" stroke-width="1.5" stroke-linecap="round" stroke-linejoin="round"/>
</svg>
