<svg width="32" height="32" viewBox="0 0 32 32" fill="none" xmlns="http://www.w3.org/2000/svg">
<path d="M8.99902 1V31M12.999 1V10C12.9959 11.0599 12.5734 12.0755 11.824 12.8249C11.0745 13.5744 10.0589 13.9968 8.99902 14C7.93913 13.9968 6.92355 13.5744 6.17409 12.8249C5.42463 12.0755 5.00219 11.0599 4.99902 10V1M20.999 21H24.999C25.2644 21.0101 25.529 20.9653 25.7762 20.8684C26.0234 20.7714 26.248 20.6245 26.4357 20.4367C26.6235 20.2489 26.7705 20.0244 26.8674 19.7772C26.9643 19.5299 27.0091 19.2654 26.999 19C26.7844 13.256 26.5524 7.24 22.8484 1.45733C22.7296 1.27641 22.5558 1.13852 22.3526 1.06404C22.1494 0.989553 21.9277 0.982438 21.7201 1.04374C21.5126 1.10505 21.3303 1.23152 21.2002 1.40445C21.0701 1.57738 20.9991 1.78759 20.9977 2.004V31" stroke="#767676" stroke-width="1.5" stroke-linecap="round" stroke-linejoin="round"/>
</svg>
