<svg width="32" height="32" viewBox="0 0 32 32" fill="none" xmlns="http://www.w3.org/2000/svg">
<path d="M8.99902 1V31" stroke="#474445" stroke-width="1.5" stroke-linecap="round" stroke-linejoin="round"/>
<path d="M12.999 1V10C12.9959 11.0599 12.5734 12.0755 11.824 12.8249C11.0745 13.5744 10.0589 13.9968 8.99902 14C7.93913 13.9968 6.92355 13.5744 6.17409 12.8249C5.42463 12.0755 5.00219 11.0599 4.99902 10V1" stroke="#474445" stroke-width="1.5" stroke-linecap="round" stroke-linejoin="round"/>
<path d="M20.9984 21H24.9984C25.2638 21.0101 25.5283 20.9653 25.7756 20.8683C26.0228 20.7714 26.2473 20.6245 26.4351 20.4367C26.6229 20.2489 26.7698 20.0244 26.8668 19.7772C26.9637 19.5299 27.0085 19.2653 26.9984 19C26.7837 13.256 26.5517 7.23999 22.8477 1.45732C22.729 1.27641 22.5552 1.13851 22.352 1.06403C22.1488 0.989544 21.927 0.982429 21.7195 1.04373C21.512 1.10504 21.3297 1.23151 21.1996 1.40444C21.0694 1.57737 20.9985 1.78759 20.9971 2.00399V31" stroke="#474445" stroke-width="1.5" stroke-linecap="round" stroke-linejoin="round"/>
</svg>
