<svg width="32" height="32" viewBox="0 0 32 32" fill="none" xmlns="http://www.w3.org/2000/svg">
<path d="M9.74902 1C9.74902 0.585786 9.41324 0.25 8.99902 0.25C8.58481 0.25 8.24902 0.585786 8.24902 1H9.74902ZM8.24902 31C8.24902 31.4142 8.58481 31.75 8.99902 31.75C9.41324 31.75 9.74902 31.4142 9.74902 31H8.24902ZM8.24902 1V31H9.74902V1H8.24902Z" fill="#767676"/>
<path d="M13.749 1C13.749 0.585786 13.4132 0.25 12.999 0.25C12.5848 0.25 12.249 0.585786 12.249 1H13.749ZM12.999 10L13.749 10.0022V10H12.999ZM8.99902 14L8.99678 14.75L9.00126 14.75L8.99902 14ZM4.99902 10H4.24902L4.24903 10.0022L4.99902 10ZM5.74902 1C5.74902 0.585786 5.41324 0.25 4.99902 0.25C4.58481 0.25 4.24902 0.585786 4.24902 1H5.74902ZM12.249 1V10H13.749V1H12.249ZM12.249 9.99776C12.2465 10.8595 11.903 11.6852 11.2936 12.2946L12.3543 13.3553C13.2438 12.4657 13.7453 11.2603 13.749 10.0022L12.249 9.99776ZM11.2936 12.2946C10.6843 12.904 9.85854 13.2474 8.99678 13.25L9.00126 14.75C10.2593 14.7462 11.4647 14.2448 12.3543 13.3553L11.2936 12.2946ZM9.00126 13.25C8.13951 13.2474 7.31378 12.904 6.70442 12.2946L5.64376 13.3553C6.53333 14.2448 7.73876 14.7462 8.99678 14.75L9.00126 13.25ZM6.70442 12.2946C6.09507 11.6852 5.75159 10.8595 5.74902 9.99776L4.24903 10.0022C4.25278 11.2603 4.7542 12.4657 5.64376 13.3553L6.70442 12.2946ZM5.74902 10V1H4.24902V10H5.74902Z" fill="#767676"/>
<path d="M24.9994 21L25.0279 20.2505C25.0184 20.2502 25.0089 20.25 24.9994 20.25V21ZM26.9994 19L26.2499 19.028L26.2499 19.0285L26.9994 19ZM22.8487 1.45732L23.4803 1.05277L23.4757 1.04577L22.8487 1.45732ZM20.998 2.00399L20.248 1.99919V2.00399H20.998ZM20.248 31C20.248 31.4142 20.5838 31.75 20.998 31.75C21.4123 31.75 21.748 31.4142 21.748 31H20.248ZM21.0989 20.25C20.6847 20.25 20.3489 20.5858 20.3489 21C20.3489 21.4142 20.6847 21.75 21.0989 21.75V20.25ZM24.9708 21.7494C25.3394 21.7635 25.7069 21.7012 26.0503 21.5666L25.5028 20.1701C25.3517 20.2293 25.1901 20.2567 25.0279 20.2505L24.9708 21.7494ZM26.0503 21.5666C26.3937 21.432 26.7056 21.2278 26.9664 20.967L25.9057 19.9064C25.791 20.0211 25.6538 20.1109 25.5028 20.1701L26.0503 21.5666ZM26.9664 20.967C27.2272 20.7062 27.4313 20.3943 27.566 20.0509L26.1695 19.5034C26.1103 19.6544 26.0205 19.7916 25.9057 19.9064L26.9664 20.967ZM27.566 20.0509C27.7006 19.7075 27.7629 19.34 27.7488 18.9714L26.2499 19.0285C26.2561 19.1907 26.2287 19.3523 26.1695 19.5034L27.566 20.0509ZM27.7489 18.972C27.5348 13.2449 27.3085 7.02946 23.4803 1.05279L22.2172 1.86185C25.7969 7.45052 26.0346 13.2671 26.2499 19.028L27.7489 18.972ZM23.4757 1.04577C23.2686 0.73025 22.9655 0.489751 22.6111 0.359849L22.0948 1.7682C22.1468 1.78727 22.1913 1.82256 22.2217 1.86887L23.4757 1.04577ZM22.6111 0.359849C22.2567 0.229947 21.87 0.217539 21.508 0.324458L21.9329 1.76301C21.9861 1.74732 22.0428 1.74914 22.0948 1.7682L22.6111 0.359849ZM21.508 0.324458C21.146 0.431379 20.8281 0.651951 20.6012 0.95355L21.7999 1.85533C21.8332 1.81107 21.8798 1.7787 21.9329 1.76301L21.508 0.324458ZM20.6012 0.95355C20.3743 1.25515 20.2505 1.62177 20.2481 1.99919L21.748 2.00879C21.7484 1.9534 21.7666 1.8996 21.7999 1.85533L20.6012 0.95355ZM20.248 2.00399V31H21.748V2.00399H20.248ZM21.0989 21.75H24.9994V20.25H21.0989V21.75Z" fill="#767676"/>
</svg>
