<svg width="32" height="32" viewBox="0 0 32 32" fill="none" xmlns="http://www.w3.org/2000/svg">
<path d="M29.4999 16C29.5101 15.0222 29.2121 14.066 28.6483 13.2671C28.0844 12.4682 27.2833 11.8672 26.3585 11.5493C26.7989 10.6674 26.9571 9.6713 26.8116 8.69635C26.6661 7.72139 26.2239 6.81488 25.5452 6.1C24.8832 5.40227 24.0101 4.94174 23.0605 4.78945C22.1108 4.63716 21.1374 4.80158 20.2905 5.25733C20.029 4.32044 19.468 3.49489 18.6933 2.90676C17.9185 2.31863 16.9726 2.00026 15.9999 2.00026C15.0271 2.00026 14.0812 2.31863 13.3064 2.90676C12.5317 3.49489 11.9707 4.32044 11.7092 5.25733C10.862 4.8017 9.88846 4.63735 8.93865 4.78963C7.98884 4.94191 7.11548 5.40235 6.45319 6.1C5.77469 6.81503 5.33278 7.72161 5.1875 8.69656C5.04222 9.67151 5.20063 10.6675 5.64119 11.5493C4.72219 11.8759 3.92685 12.479 3.3644 13.2758C2.80196 14.0726 2.5 15.024 2.5 15.9993C2.5 16.9746 2.80196 17.926 3.3644 18.7228C3.92685 19.5196 4.72219 20.1227 5.64119 20.4493C5.20063 21.3311 5.04222 22.3271 5.1875 23.3021C5.33278 24.277 5.77469 25.1836 6.45319 25.8987C7.11531 26.5965 7.9886 27.0572 8.93842 27.2097C9.88824 27.3623 10.8619 27.1981 11.7092 26.7427C11.9707 27.6796 12.5317 28.5051 13.3064 29.0932C14.0812 29.6814 15.0271 29.9997 15.9999 29.9997C16.9726 29.9997 17.9185 29.6814 18.6933 29.0932C19.468 28.5051 20.029 27.6796 20.2905 26.7427C21.1376 27.1983 22.111 27.3625 23.0607 27.2099C24.0103 27.0574 24.8834 26.5966 25.5452 25.8987C26.2239 25.1838 26.6661 24.2773 26.8116 23.3023C26.9571 22.3274 26.7989 21.3312 26.3585 20.4493C27.2832 20.1317 28.0843 19.5309 28.6481 18.7323C29.212 17.9336 29.51 16.9776 29.4999 16V16Z" stroke="#71717A" stroke-width="1.5" stroke-linecap="round" stroke-linejoin="round"/>
<path d="M11.5 21L21.5 11" stroke="#71717A" stroke-width="1.5" stroke-linecap="round" stroke-linejoin="round"/>
<path d="M12.5 14C13.6046 14 14.5 13.1046 14.5 12C14.5 10.8954 13.6046 10 12.5 10C11.3954 10 10.5 10.8954 10.5 12C10.5 13.1046 11.3954 14 12.5 14Z" stroke="#71717A" stroke-width="1.5" stroke-linecap="round" stroke-linejoin="round"/>
<path d="M20.5 22C21.6046 22 22.5 21.1046 22.5 20C22.5 18.8954 21.6046 18 20.5 18C19.3954 18 18.5 18.8954 18.5 20C18.5 21.1046 19.3954 22 20.5 22Z" stroke="#71717A" stroke-width="1.5" stroke-linecap="round" stroke-linejoin="round"/>
</svg>
