<svg width="32" height="32" viewBox="0 0 32 32" fill="none" xmlns="http://www.w3.org/2000/svg">
<path fill-rule="evenodd" clip-rule="evenodd" d="M15.9999 1.25026C14.8634 1.25026 13.7581 1.62224 12.8529 2.30938C12.1755 2.82365 11.6379 3.4933 11.2822 4.25657C10.4946 3.98934 9.64955 3.91608 8.81992 4.04909C7.70762 4.22742 6.68485 4.76663 5.90925 5.58363L5.90914 5.58375C5.12463 6.4105 4.61366 7.45874 4.44569 8.58603C4.31652 9.45285 4.39498 10.3341 4.66973 11.1586C3.90977 11.5594 3.2514 12.1354 2.75168 12.8433C2.09991 13.7667 1.75 14.8691 1.75 15.9993C1.75 17.1295 2.09991 18.232 2.75168 19.1553C3.2514 19.8633 3.90977 20.4393 4.66973 20.8401C4.39498 21.6646 4.31652 22.5458 4.44569 23.4126C4.61366 24.5399 5.12461 25.5881 5.90911 26.4149C6.68451 27.2321 7.7072 27.7716 8.81951 27.9503C9.64921 28.0835 10.4944 28.0104 11.2822 27.7433C11.6379 28.5066 12.1754 29.1763 12.8529 29.6906C13.7581 30.3778 14.8634 30.7497 15.9999 30.7497C17.1363 30.7497 18.2416 30.3778 19.1468 29.6906C19.8242 29.1763 20.3618 28.5067 20.7175 27.7434C21.505 28.0106 22.3501 28.0837 23.1796 27.9504C24.2918 27.7718 25.3143 27.2321 26.0894 26.4147C26.874 25.5882 27.3851 24.5402 27.5534 23.413C27.6824 22.5483 27.6049 21.6692 27.3319 20.8463C28.0968 20.4501 28.7596 19.8748 29.2608 19.1648C29.9141 18.2396 30.26 17.1324 30.2499 16C30.2601 14.8674 29.9142 13.7601 29.261 12.8346C28.7597 12.1244 28.0969 11.5489 27.3319 11.1524C27.6049 10.3295 27.6824 9.45039 27.5534 8.58563C27.3851 7.45843 26.8739 6.41035 26.0893 5.5838C25.314 4.76663 24.2914 4.22727 23.1792 4.04891C22.3497 3.91589 21.5048 3.98918 20.7174 4.25645C20.3617 3.49323 19.8242 2.82363 19.1468 2.30938C18.2416 1.62224 17.1363 1.25026 15.9999 1.25026ZM28.7499 15.9921L29.4999 16L28.7499 16.0078C28.7584 16.8278 28.5085 17.6297 28.0355 18.2997C27.5625 18.9696 26.8905 19.4736 26.1149 19.74C25.9104 19.8102 25.7462 19.9652 25.6644 20.1653C25.5825 20.3654 25.591 20.591 25.6875 20.7844C26.0591 21.5285 26.1926 22.369 26.0698 23.1916C25.947 24.0142 25.5739 24.7791 25.0013 25.3823L25.0009 25.3826C24.4524 25.9611 23.7288 26.343 22.9417 26.4694C22.1547 26.5958 21.3478 26.4597 20.6458 26.0821C20.4451 25.9742 20.2063 25.9634 19.9967 26.0526C19.7871 26.1419 19.6294 26.3216 19.5681 26.541C19.3507 27.3202 18.8841 28.0067 18.2398 28.4959C17.5955 28.985 16.8088 29.2497 15.9999 29.2497C15.1909 29.2497 14.4042 28.985 13.7599 28.4959C13.1156 28.0067 12.649 27.3202 12.4316 26.541C12.3703 26.3216 12.2127 26.1419 12.0031 26.0527C11.7935 25.9634 11.5547 25.9742 11.3541 26.0821C10.6517 26.4596 9.84466 26.5957 9.05733 26.4692C8.27 26.3428 7.54611 25.9609 6.99726 25.3824L6.99723 25.3824C6.42475 24.7791 6.05189 24.0142 5.92931 23.1916C5.80673 22.3689 5.94038 21.5285 6.31211 20.7845C6.40811 20.5924 6.41712 20.3683 6.33685 20.1691C6.25658 19.9698 6.09474 19.8146 5.89234 19.7426C5.11929 19.4679 4.45025 18.9606 3.97713 18.2903C3.50401 17.62 3.25 16.8197 3.25 15.9993C3.25 15.1789 3.50401 14.3786 3.97713 13.7084C4.45025 13.0381 5.11929 12.5308 5.89234 12.256C6.09474 12.1841 6.25658 12.0288 6.33685 11.8296C6.41712 11.6304 6.40811 11.4063 6.31211 11.2141C5.94038 10.4701 5.80673 9.62971 5.92931 8.8071C6.05189 7.98449 6.42475 7.21955 6.99723 6.61625C7.54621 6.03802 8.27011 5.65639 9.05738 5.53017C9.8447 5.40394 10.6517 5.54017 11.3539 5.91786C11.5546 6.02577 11.7934 6.03663 12.003 5.94737C12.2126 5.85811 12.3703 5.6784 12.4316 5.45896C12.649 4.67981 13.1156 3.99325 13.7599 3.50414C14.4042 3.01503 15.1909 2.75026 15.9999 2.75026C16.8088 2.75026 17.5955 3.01503 18.2398 3.50414C18.8841 3.99325 19.3507 4.67981 19.5681 5.45896C19.6294 5.67843 19.7871 5.85815 19.9968 5.9474C20.2064 6.03665 20.4453 6.02575 20.6459 5.91778C21.3479 5.54004 22.1546 5.40377 22.9417 5.52999C23.7288 5.65621 24.4524 6.03791 25.0011 6.61619L25.0013 6.61639C25.5739 7.21957 25.947 7.98444 26.0698 8.80706C26.1926 9.62968 26.0591 10.4702 25.6875 11.2143C25.591 11.4076 25.5825 11.6332 25.6643 11.8333C25.7462 12.0333 25.9103 12.1883 26.1147 12.2586C26.8905 12.5252 27.5625 13.0294 28.0355 13.6996C28.5085 14.3698 28.7585 15.1719 28.7499 15.9921ZM22.0303 11.5303C22.3232 11.2374 22.3232 10.7626 22.0303 10.4697C21.7374 10.1768 21.2626 10.1768 20.9697 10.4697L10.9697 20.4697C10.6768 20.7626 10.6768 21.2374 10.9697 21.5303C11.2626 21.8232 11.7374 21.8232 12.0303 21.5303L22.0303 11.5303ZM12.5 10.75C11.8096 10.75 11.25 11.3096 11.25 12C11.25 12.6904 11.8096 13.25 12.5 13.25C13.1904 13.25 13.75 12.6904 13.75 12C13.75 11.3096 13.1904 10.75 12.5 10.75ZM9.75 12C9.75 10.4812 10.9812 9.25 12.5 9.25C14.0188 9.25 15.25 10.4812 15.25 12C15.25 13.5188 14.0188 14.75 12.5 14.75C10.9812 14.75 9.75 13.5188 9.75 12ZM19.25 20C19.25 19.3096 19.8096 18.75 20.5 18.75C21.1904 18.75 21.75 19.3096 21.75 20C21.75 20.6904 21.1904 21.25 20.5 21.25C19.8096 21.25 19.25 20.6904 19.25 20ZM20.5 17.25C18.9812 17.25 17.75 18.4812 17.75 20C17.75 21.5188 18.9812 22.75 20.5 22.75C22.0188 22.75 23.25 21.5188 23.25 20C23.25 18.4812 22.0188 17.25 20.5 17.25Z" fill="#474445"/>
</svg>
