<svg width="32" height="32" viewBox="0 0 32 32" fill="none" xmlns="http://www.w3.org/2000/svg">
<path d="M21.3337 3.99998H27.3337C27.8641 3.99998 28.3728 4.21069 28.7479 4.58577C29.1229 4.96084 29.3337 5.46955 29.3337 5.99998V26C29.3337 26.5304 29.1229 27.0391 28.7479 27.4142C28.3728 27.7893 27.8641 28 27.3337 28H21.3337M11.3337 16H13.3337M16.138 30.6568L3.56655 28.9803C3.31688 28.9473 3.08837 28.8312 2.92309 28.6535C2.7578 28.4758 2.66686 28.2483 2.66699 28.0129V5.2074C2.6668 4.98349 2.74894 4.7663 2.89971 4.59213C3.05047 4.41795 3.26072 4.29736 3.49531 4.25048L16.0667 1.35498C16.2195 1.32445 16.3777 1.32621 16.5297 1.36013C16.6817 1.39405 16.8236 1.45927 16.9451 1.55102C17.0665 1.64277 17.1645 1.75871 17.2317 1.89037C17.299 2.02202 17.3338 2.16604 17.3337 2.31189V29.6895C17.3336 29.8295 17.3012 29.9679 17.2389 30.0953C17.1765 30.2226 17.0856 30.336 16.9722 30.4277C16.8589 30.5194 16.7257 30.5873 16.5818 30.6269C16.4378 30.6664 16.2865 30.6766 16.138 30.6568Z" stroke="#474445" stroke-width="1.5" stroke-linecap="round" stroke-linejoin="round"/>
</svg>
