<svg width="32" height="32" viewBox="0 0 32 32" fill="none" xmlns="http://www.w3.org/2000/svg">
<path d="M21.3994 3.25C20.9852 3.25 20.6494 3.58579 20.6494 4C20.6494 4.41421 20.9852 4.75 21.3994 4.75V3.25ZM21.3994 27.25C20.9852 27.25 20.6494 27.5858 20.6494 28C20.6494 28.4142 20.9852 28.75 21.3994 28.75V27.25ZM27.3333 4.75C27.6648 4.75 27.9828 4.8817 28.2172 5.11612L29.2778 4.05546C28.7621 3.53973 28.0626 3.25 27.3333 3.25V4.75ZM28.2172 5.11612C28.4516 5.35054 28.5833 5.66848 28.5833 6H30.0833C30.0833 5.27065 29.7936 4.57118 29.2778 4.05546L28.2172 5.11612ZM28.5833 6V26H30.0833V6H28.5833ZM28.5833 26C28.5833 26.3315 28.4516 26.6495 28.2172 26.8839L29.2778 27.9445C29.7936 27.4288 30.0833 26.7294 30.0833 26H28.5833ZM28.2172 26.8839C27.9828 27.1183 27.6648 27.25 27.3333 27.25V28.75C28.0626 28.75 28.7621 28.4603 29.2778 27.9445L28.2172 26.8839ZM21.3994 4.75H27.3333V3.25H21.3994V4.75ZM27.3333 27.25H21.3994V28.75H27.3333V27.25Z" fill="#71717A"/>
<path d="M16.138 30.6568L16.0388 31.4002L16.0389 31.4003L16.138 30.6568ZM3.56655 28.9803L3.66569 28.2369L3.6648 28.2367L3.56655 28.9803ZM2.66699 28.0129L3.41699 28.0134V28.0129H2.66699ZM2.66699 5.2074H3.41699L3.41699 5.20673L2.66699 5.2074ZM3.49531 4.25048L3.64226 4.98595C3.64941 4.98452 3.65654 4.98298 3.66365 4.98135L3.49531 4.25048ZM16.0667 1.35498L15.9198 0.619513C15.9126 0.620942 15.9055 0.622475 15.8984 0.624112L16.0667 1.35498ZM17.3337 2.31189L16.5837 2.31123V2.31189H17.3337ZM17.3337 29.6895L18.0837 29.69V29.6895H17.3337ZM16.2371 29.9134L3.66569 28.2369L3.4674 29.7237L16.0388 31.4002L16.2371 29.9134ZM3.6648 28.2367C3.58088 28.2257 3.51414 28.1877 3.47231 28.1428L2.37386 29.1642C2.66261 29.4747 3.05287 29.6689 3.46829 29.7238L3.6648 28.2367ZM3.47231 28.1428C3.4317 28.0991 3.41697 28.0526 3.41699 28.0134L1.91699 28.0125C1.91675 28.444 2.08391 28.8524 2.37386 29.1642L3.47231 28.1428ZM3.41699 28.0129V5.2074H1.91699V28.0129H3.41699ZM3.41699 5.20673C3.41696 5.16896 3.43042 5.12497 3.46677 5.08298L2.33265 4.10127C2.06747 4.40762 1.91663 4.79802 1.91699 5.20806L3.41699 5.20673ZM3.46677 5.08298C3.50411 5.03985 3.56421 5.00154 3.64226 4.98595L3.34836 3.51502C2.95723 3.59317 2.59684 3.79606 2.33265 4.10127L3.46677 5.08298ZM3.66365 4.98135L16.2351 2.08584L15.8984 0.624112L3.32697 3.51962L3.66365 4.98135ZM16.2137 2.09044C16.264 2.08039 16.3165 2.08099 16.3663 2.09212L16.6931 0.628139C16.439 0.57142 16.1751 0.568506 15.9198 0.619513L16.2137 2.09044ZM16.3663 2.09212C16.4161 2.10323 16.4591 2.12388 16.493 2.14949L17.3971 0.952547C17.1881 0.794662 16.9472 0.684867 16.6931 0.628139L16.3663 2.09212ZM16.493 2.14949C16.5268 2.17498 16.5497 2.20389 16.5638 2.23149L17.8997 1.54924C17.7793 1.31353 17.6063 1.11055 17.3971 0.952547L16.493 2.14949ZM16.5638 2.23149C16.5777 2.25882 16.5837 2.28587 16.5837 2.31123L18.0837 2.31255C18.0839 2.04621 18.0202 1.78522 17.8997 1.54924L16.5638 2.23149ZM16.5837 2.31189V29.6895H18.0837V2.31189H16.5837ZM16.5837 29.689C16.5836 29.7134 16.5781 29.7393 16.5653 29.7655L17.9125 30.425C18.0244 30.1965 18.0835 29.9457 18.0837 29.69L16.5837 29.689ZM16.5653 29.7655C16.5524 29.7919 16.5314 29.8196 16.5005 29.8446L17.444 31.0108C17.6398 30.8524 17.8007 30.6534 17.9125 30.425L16.5653 29.7655ZM16.5005 29.8446C16.4695 29.8698 16.4298 29.8909 16.3831 29.9037L16.7804 31.3501C17.0216 31.2838 17.2483 31.1691 17.444 31.0108L16.5005 29.8446ZM16.3831 29.9037C16.3365 29.9165 16.2864 29.92 16.237 29.9134L16.0389 31.4003C16.2866 31.4333 16.5392 31.4163 16.7804 31.3501L16.3831 29.9037Z" fill="#71717A"/>
<path d="M11.334 15.25C10.9198 15.25 10.584 15.5858 10.584 16C10.584 16.4142 10.9198 16.75 11.334 16.75V15.25ZM13.334 16.75C13.7482 16.75 14.084 16.4142 14.084 16C14.084 15.5858 13.7482 15.25 13.334 15.25V16.75ZM11.334 16.75H13.334V15.25H11.334V16.75Z" fill="#71717A"/>
</svg>
