<svg width="32" height="32" viewBox="0 0 32 32" fill="none" xmlns="http://www.w3.org/2000/svg">
<path d="M11.0029 31H19.0029" stroke="#474445" stroke-width="1.5" stroke-linecap="round" stroke-linejoin="round"/>
<path d="M15.0029 31V18" stroke="#474445" stroke-width="1.5" stroke-linecap="round" stroke-linejoin="round"/>
<path d="M1.00293 1H4.7656C5.13708 0.999889 5.50125 1.10324 5.81729 1.29847C6.13333 1.4937 6.38875 1.77309 6.55493 2.10533L9.00293 7" stroke="#474445" stroke-width="1.5" stroke-linecap="round" stroke-linejoin="round"/>
<path d="M24.9515 6.99999C25.0911 7.00028 25.2291 7.02971 25.3567 7.0864C25.4842 7.1431 25.5986 7.2258 25.6923 7.32922C25.7861 7.43264 25.8572 7.5545 25.9011 7.687C25.9451 7.81949 25.9609 7.9597 25.9475 8.09866C25.6744 10.8119 24.4033 13.327 22.3807 15.1561C20.3582 16.9852 17.7285 17.998 15.0015 17.998C12.2746 17.998 9.64481 16.9852 7.6223 15.1561C5.59978 13.327 4.32868 10.8119 4.05552 8.09866C4.04195 7.9596 4.0576 7.81924 4.10146 7.68659C4.14532 7.55393 4.21641 7.43191 4.31019 7.32834C4.40397 7.22477 4.51836 7.14194 4.64602 7.08517C4.77368 7.02839 4.9118 6.99893 5.05152 6.99866L24.9515 6.99999Z" stroke="#474445" stroke-width="1.5" stroke-linecap="round" stroke-linejoin="round"/>
<path d="M21.1039 7.00798C20.8955 5.99664 21.0053 4.94558 21.4181 3.9991C21.8309 3.05263 22.5266 2.25713 23.4096 1.72183C24.2926 1.18653 25.3197 0.937666 26.3498 1.0094C27.3799 1.08114 28.3625 1.46995 29.1628 2.12248C29.9631 2.775 30.5418 3.65924 30.8194 4.6538C31.0971 5.64836 31.0601 6.70448 30.7136 7.67719C30.367 8.64989 29.7279 9.49148 28.8839 10.0864C28.0399 10.6814 27.0325 11.0005 25.9999 11C25.7549 10.9999 25.5103 10.982 25.2679 10.9466" stroke="#474445" stroke-width="1.5" stroke-linecap="round" stroke-linejoin="round"/>
</svg>
