<svg width="32" height="32" viewBox="0 0 32 32" fill="none" xmlns="http://www.w3.org/2000/svg">
<path d="M11.0029 30.25C10.5887 30.25 10.2529 30.5858 10.2529 31C10.2529 31.4142 10.5887 31.75 11.0029 31.75V30.25ZM19.0029 31.75C19.4171 31.75 19.7529 31.4142 19.7529 31C19.7529 30.5858 19.4171 30.25 19.0029 30.25V31.75ZM11.0029 31.75H19.0029V30.25H11.0029V31.75Z" fill="#71717A"/>
<path d="M14.2529 31C14.2529 31.4142 14.5887 31.75 15.0029 31.75C15.4171 31.75 15.7529 31.4142 15.7529 31H14.2529ZM15.7529 18C15.7529 17.5858 15.4171 17.25 15.0029 17.25C14.5887 17.25 14.2529 17.5858 14.2529 18H15.7529ZM15.7529 31V18H14.2529V31H15.7529Z" fill="#71717A"/>
<path d="M4.7656 1V1.75L4.76582 1.75L4.7656 1ZM6.55493 2.10533L7.22571 1.76985L7.22571 1.76983L6.55493 2.10533ZM8.33215 7.33548C8.51743 7.70595 8.96795 7.85607 9.33841 7.67078C9.70888 7.4855 9.859 7.03498 9.67371 6.66452L8.33215 7.33548ZM1.07031 0.25C0.656099 0.25 0.320312 0.585787 0.320312 1C0.320312 1.41421 0.656099 1.75 1.07031 1.75L1.07031 0.25ZM4.76582 1.75C4.998 1.74993 5.2256 1.81453 5.42313 1.93654L6.21145 0.660397C5.77689 0.391956 5.27616 0.249847 4.76537 0.25L4.76582 1.75ZM5.42313 1.93654C5.62066 2.05856 5.78029 2.23318 5.88415 2.44083L7.22571 1.76983C6.99721 1.313 6.64601 0.928839 6.21145 0.660397L5.42313 1.93654ZM5.88415 2.44082L8.33215 7.33548L9.67371 6.66452L7.22571 1.76985L5.88415 2.44082ZM1.07031 1.75H4.7656V0.25H1.07031L1.07031 1.75Z" fill="#71717A"/>
<path d="M24.9525 6.99999L24.954 6.24999L24.9525 6.24999L24.9525 6.99999ZM25.9485 8.09866L26.6947 8.17379L26.695 8.17047L25.9485 8.09866ZM4.05649 8.09866L3.31003 8.17146L3.31027 8.17378L4.05649 8.09866ZM5.05249 6.99866L5.05254 6.24866L5.05105 6.24866L5.05249 6.99866ZM24.951 7.74999C24.9861 7.75006 25.0209 7.75748 25.0531 7.77176L25.6622 6.40104C25.4393 6.30194 25.198 6.25049 24.954 6.24999L24.951 7.74999ZM25.0531 7.77176C25.0852 7.78605 25.114 7.80689 25.1376 7.83295L26.2489 6.82549C26.0851 6.64471 25.8852 6.50014 25.6622 6.40104L25.0531 7.77176ZM25.1376 7.83295C25.1613 7.85902 25.1792 7.88973 25.1903 7.92311L26.614 7.45088C26.5372 7.21927 26.4128 7.00626 26.2489 6.82549L25.1376 7.83295ZM25.1903 7.92311C25.2013 7.95649 25.2053 7.99183 25.2019 8.02685L26.695 8.17047C26.7184 7.92758 26.6908 7.68249 26.614 7.45088L25.1903 7.92311ZM25.2023 8.02353C24.9477 10.5518 23.7633 12.8954 21.8786 14.5998L22.8848 15.7123C25.0452 13.7585 26.4029 11.072 26.6947 8.17378L25.2023 8.02353ZM21.8786 14.5998C19.994 16.3043 17.5435 17.248 15.0025 17.248V18.748C17.9153 18.748 20.7244 17.6662 22.8848 15.7123L21.8786 14.5998ZM15.0025 17.248C12.4615 17.248 10.011 16.3043 8.12634 14.5998L7.1202 15.7123C9.2806 17.6662 12.0896 18.748 15.0025 18.748V17.248ZM8.12634 14.5998C6.24171 12.8954 5.05726 10.5518 4.80272 8.02353L3.31027 8.17378C3.60205 11.072 4.95981 13.7585 7.1202 15.7123L8.12634 14.5998ZM4.80295 8.02585C4.79953 7.99081 4.80348 7.95544 4.81453 7.92201L3.39034 7.45116C3.31368 7.68305 3.28633 7.92839 3.31004 8.17146L4.80295 8.02585ZM4.81453 7.92201C4.82558 7.88858 4.8435 7.85783 4.86713 7.83173L3.75521 6.82494C3.59128 7.00598 3.46701 7.21928 3.39034 7.45116L4.81453 7.92201ZM4.86713 7.83173C4.89076 7.80563 4.91958 7.78476 4.95175 7.77046L4.34224 6.39988C4.11908 6.49912 3.91913 6.6439 3.75521 6.82494L4.86713 7.83173ZM4.95175 7.77046C4.98392 7.75615 5.01873 7.74872 5.05394 7.74866L5.05105 6.24866C4.80682 6.24913 4.56539 6.30064 4.34224 6.39988L4.95175 7.77046ZM5.05244 7.74866L24.9524 7.74999L24.9525 6.24999L5.05254 6.24866L5.05244 7.74866Z" fill="#71717A"/>
<path d="M20.3693 7.15934C20.4529 7.56503 20.8496 7.82614 21.2552 7.74255C21.6609 7.65896 21.922 7.26231 21.8385 6.85662L20.3693 7.15934ZM26.0002 10.25C25.586 10.2498 25.2501 10.5854 25.2499 10.9996C25.2497 11.4138 25.5853 11.7498 25.9995 11.75L26.0002 10.25ZM21.8385 6.85662C21.6613 5.99694 21.7546 5.1035 22.1055 4.29895L20.7306 3.69925C20.2559 4.78766 20.1297 5.99633 20.3693 7.15934L21.8385 6.85662ZM22.1055 4.29895C22.4565 3.49441 23.0478 2.81821 23.7984 2.36318L23.0208 1.08048C22.0054 1.69606 21.2054 2.61084 20.7306 3.69925L22.1055 4.29895ZM23.7984 2.36318C24.549 1.90816 25.422 1.69661 26.2977 1.75759L26.4019 0.261213C25.2173 0.178721 24.0362 0.464906 23.0208 1.08048L23.7984 2.36318ZM26.2977 1.75759C27.1733 1.81857 28.0086 2.14908 28.6888 2.70375L29.6367 1.54121C28.7164 0.79083 27.5864 0.343705 26.4019 0.261213L26.2977 1.75759ZM28.6888 2.70375C29.3691 3.25842 29.861 4.01006 30.0971 4.85547L31.5418 4.45212C31.2225 3.30842 30.557 2.29158 29.6367 1.54121L28.6888 2.70375ZM30.0971 4.85547C30.3331 5.70089 30.3016 6.59864 30.0071 7.42547L31.4201 7.9289C31.8186 6.81033 31.8611 5.59583 31.5418 4.45212L30.0971 4.85547ZM30.0071 7.42547C29.7125 8.25231 29.1692 8.96769 28.4518 9.47342L29.316 10.6994C30.2865 10.0153 31.0215 9.04747 31.4201 7.9289L30.0071 7.42547ZM28.4518 9.47342C27.7344 9.97914 26.878 10.2504 26.0002 10.25L25.9995 11.75C27.187 11.7506 28.3455 11.3836 29.316 10.6994L28.4518 9.47342Z" fill="#71717A"/>
</svg>
