<svg width="32" height="32" viewBox="0 0 32 32" fill="none" xmlns="http://www.w3.org/2000/svg">
<path d="M11.0029 31H19.0029M15.0029 31V18M1.00293 0.999988H4.7656C5.13708 0.999877 5.50125 1.10323 5.81729 1.29846C6.13333 1.49369 6.38875 1.77308 6.55493 2.10532L9.00293 6.99999M21.1043 7.00798C20.8959 5.99664 21.0057 4.94558 21.4185 3.9991C21.8314 3.05263 22.527 2.25713 23.41 1.72183C24.2931 1.18653 25.3201 0.937666 26.3502 1.0094C27.3803 1.08114 28.3629 1.46995 29.1632 2.12248C29.9635 2.775 30.5422 3.65924 30.8199 4.6538C31.0975 5.64836 31.0606 6.70448 30.714 7.67719C30.3674 8.64989 29.7283 9.49148 28.8843 10.0864C28.0404 10.6814 27.0329 11.0005 26.0003 11C25.7554 10.9999 25.5107 10.982 25.2683 10.9466M24.9522 7C25.0918 7.00028 25.2297 7.02971 25.3573 7.08641C25.4849 7.1431 25.5992 7.2258 25.6929 7.32923C25.7867 7.43265 25.8578 7.55451 25.9018 7.687C25.9457 7.8195 25.9615 7.95971 25.9482 8.09866C25.675 10.8119 24.4039 13.327 22.3814 15.1561C20.3589 16.9852 17.7291 17.998 15.0022 17.998C12.2752 17.998 9.64545 16.9852 7.62294 15.1561C5.60042 13.327 4.32932 10.8119 4.05616 8.09866C4.04259 7.9596 4.05824 7.81925 4.1021 7.68659C4.14596 7.55394 4.21705 7.43191 4.31083 7.32834C4.40461 7.22477 4.519 7.14194 4.64666 7.08517C4.77432 7.0284 4.91244 6.99893 5.05216 6.99866L24.9522 7Z" stroke="#767676" stroke-width="1.5" stroke-linecap="round" stroke-linejoin="round"/>
</svg>
