<svg width="32" height="32" viewBox="0 0 32 32" fill="none" xmlns="http://www.w3.org/2000/svg">
<path d="M29.284 2.7157C28.84 2.2735 28.3127 1.92368 27.7326 1.68643C27.1526 1.44918 26.5312 1.32921 25.9046 1.33345C25.2779 1.33769 24.6583 1.46606 24.0815 1.71114C23.5047 1.95623 22.9822 2.31316 22.5441 2.76133L3.64098 21.6647L1.3335 30.6667L10.3353 28.3579L29.2384 9.45444C29.6867 9.01658 30.0437 8.4942 30.2889 7.9175C30.5341 7.3408 30.6625 6.72122 30.6667 6.09459C30.671 5.46796 30.5509 4.8467 30.3136 4.26673C30.0763 3.68677 29.7264 3.1596 29.284 2.7157V2.7157Z" stroke="#71717A" stroke-width="1.5" stroke-linecap="round" stroke-linejoin="round"/>
</svg>
