<svg width="32" height="32" viewBox="0 0 32 32" fill="none" xmlns="http://www.w3.org/2000/svg">
<path d="M23.9079 31H8.09194L6.03594 21.708C5.9907 21.5066 5.987 21.2981 6.02505 21.0952C6.06311 20.8923 6.14212 20.6993 6.25728 20.528C6.36173 20.3676 6.5038 20.2352 6.67111 20.1422C6.83843 20.0493 7.02592 19.9986 7.21728 19.9947H24.7826C24.974 19.9986 25.1615 20.0493 25.3288 20.1422C25.4961 20.2352 25.6382 20.3676 25.7426 20.528C25.8578 20.6993 25.9368 20.8923 25.9748 21.0952C26.0129 21.2981 26.0092 21.5066 25.9639 21.708L23.9079 31Z" stroke="#474445" stroke-width="1.5" stroke-linecap="round" stroke-linejoin="round"/>
<path d="M1 31H31" stroke="#474445" stroke-width="1.5" stroke-linecap="round" stroke-linejoin="round"/>
<path d="M16 27C17.1046 27 18 26.1046 18 25C18 23.8954 17.1046 23 16 23C14.8954 23 14 23.8954 14 25C14 26.1046 14.8954 27 16 27Z" stroke="#474445" stroke-width="1.5" stroke-linecap="round" stroke-linejoin="round"/>
<path d="M16 12C19.0376 12 21.5 9.53757 21.5 6.5C21.5 3.46243 19.0376 1 16 1C12.9624 1 10.5 3.46243 10.5 6.5C10.5 9.53757 12.9624 12 16 12Z" stroke="#474445" stroke-width="1.5" stroke-linecap="round" stroke-linejoin="round"/>
<path d="M22.6663 17C21.8311 16.056 20.8049 15.3001 19.6556 14.7823C18.5063 14.2646 17.2602 13.9969 15.9997 13.9969C14.7392 13.9969 13.493 14.2646 12.3438 14.7823C11.1945 15.3001 10.1682 16.056 9.33301 17" stroke="#474445" stroke-width="1.5" stroke-linecap="round" stroke-linejoin="round"/>
</svg>
