<svg width="32" height="32" viewBox="0 0 32 32" fill="none" xmlns="http://www.w3.org/2000/svg">
<path d="M9 9C10.0609 9 11.0783 8.57857 11.8284 7.82843C12.5786 7.07828 13 6.06087 13 5C13 3.93913 12.5786 2.92172 11.8284 2.17157C11.0783 1.42143 10.0609 1 9 1H6V9H9Z" stroke="#71717A" stroke-width="1.5" stroke-linecap="round" stroke-linejoin="round"/>
<path d="M6 3H2" stroke="#71717A" stroke-width="1.5" stroke-linecap="round" stroke-linejoin="round"/>
<path d="M6 7H2" stroke="#71717A" stroke-width="1.5" stroke-linecap="round" stroke-linejoin="round"/>
<path d="M23 27H9C7.67392 27 6.40215 26.4732 5.46447 25.5355C4.52678 24.5979 4 23.3261 4 22C4 20.6739 4.52678 19.4021 5.46447 18.4645C6.40215 17.5268 7.67392 17 9 17H24C25.5913 17 27.1174 16.3679 28.2426 15.2426C29.3679 14.1174 30 12.5913 30 11C30 9.4087 29.3679 7.88258 28.2426 6.75736C27.1174 5.63214 25.5913 5 24 5H13.2379" stroke="#71717A" stroke-width="1.5" stroke-linecap="round" stroke-linejoin="round"/>
<path d="M18.8001 31C18.2183 31.0002 17.6434 30.8734 17.1156 30.6286C16.5879 30.3838 16.1198 30.0268 15.7442 29.5825C15.3686 29.1382 15.0944 28.6173 14.9408 28.0561C14.7872 27.4949 14.7578 26.907 14.8548 26.3333C15.0462 25.3776 15.568 24.5198 16.3287 23.9103C17.0893 23.3008 18.0403 22.9785 19.0148 23H22.3774C23.9572 22.9999 25.5017 23.4676 26.8161 24.344L29.5521 26.168C29.6891 26.2593 29.8014 26.383 29.879 26.5282C29.9567 26.6733 29.9973 26.8354 29.9973 27C29.9973 27.1646 29.9567 27.3267 29.879 27.4718C29.8014 27.617 29.6891 27.7407 29.5521 27.832L26.8161 29.656C25.5017 30.5324 23.9572 31.0001 22.3774 31H18.8001Z" stroke="#71717A" stroke-width="1.5" stroke-linecap="round" stroke-linejoin="round"/>
</svg>
