<svg width="32" height="32" viewBox="0 0 32 32" fill="none" xmlns="http://www.w3.org/2000/svg">
<path fill-rule="evenodd" clip-rule="evenodd" d="M5.25 1C5.25 0.585786 5.58579 0.25 6 0.25H9C10.2598 0.25 11.468 0.750445 12.3588 1.64124C13.0708 2.35329 13.5334 3.26812 13.6904 4.25H24C25.7902 4.25 27.5071 4.96116 28.773 6.22703C30.0388 7.4929 30.75 9.20979 30.75 11C30.75 12.7902 30.0388 14.5071 28.773 15.773C27.5071 17.0388 25.7902 17.75 24 17.75H9C7.87283 17.75 6.79183 18.1978 5.9948 18.9948C5.19777 19.7918 4.75 20.8728 4.75 22C4.75 23.1272 5.19777 24.2082 5.9948 25.0052C6.79183 25.8022 7.87283 26.25 9 26.25H14.1084C14.1106 26.2361 14.1129 26.2222 14.1153 26.2083C14.1165 26.2009 14.1179 26.1934 14.1194 26.186C14.3454 25.0575 14.9616 24.0447 15.8597 23.325C16.7556 22.6071 17.8751 22.2267 19.0227 22.25H22.3774H22.3774C24.1053 22.2499 25.7946 22.7614 27.2322 23.72L29.9681 25.544L29.9682 25.544C30.2079 25.7038 30.4044 25.9203 30.5403 26.1743C30.6762 26.4283 30.7473 26.7119 30.7473 27C30.7473 27.2881 30.6762 27.5717 30.5403 27.8257C30.4044 28.0797 30.2079 28.2962 29.9682 28.456L29.9681 28.456L27.2322 30.28C25.7946 31.2386 24.1053 31.7501 22.3774 31.75L21.8477 30.25H22.3774H22.3775C23.8092 30.2501 25.2089 29.8263 26.4 29.032L26.4001 29.032L29.136 27.208L29.1361 27.208C29.1703 27.1851 29.1984 27.1542 29.2178 27.118C29.2372 27.0817 29.2473 27.0412 29.2473 27C29.2473 26.9588 29.2372 26.9183 29.2178 26.882C29.1984 26.8458 29.1703 26.8149 29.1361 26.792L29.136 26.792L26.4001 24.968L26.4 24.968C25.2089 24.1737 23.8092 23.7499 22.3775 23.75H22.3774H19.5524H19.0148L18.9982 23.7498C18.1999 23.7322 17.4208 23.9962 16.7977 24.4956C16.2363 24.9453 15.8338 25.5602 15.6448 26.25H20.4352L19.5524 23.75L20.4352 26.25H23C23.4142 26.25 23.75 26.5858 23.75 27C23.75 27.4142 23.4142 27.75 23 27.75H20.9649L21.8477 30.25H21.8477L20.9649 27.75H15.6365C15.6451 27.7862 15.6543 27.8222 15.6642 27.8581C15.789 28.314 16.0117 28.7373 16.3169 29.0983C16.6221 29.4593 17.0024 29.7493 17.4312 29.9483C17.8601 30.1472 18.3271 30.2502 18.7999 30.25H18.8001H21.8477L22.3774 31.75H18.8004H18.8001C18.1093 31.7502 17.4267 31.5997 16.8001 31.309C16.1733 31.0183 15.6175 30.5943 15.1714 30.0667C14.7254 29.5391 14.3998 28.9205 14.2174 28.2541C14.1719 28.0878 14.1355 27.9195 14.1084 27.75H9C7.47501 27.75 6.01247 27.1442 4.93414 26.0659C3.8558 24.9875 3.25 23.525 3.25 22C3.25 20.475 3.8558 19.0125 4.93414 17.9341C6.01247 16.8558 7.47501 16.25 9 16.25H24C25.3924 16.25 26.7277 15.6969 27.7123 14.7123C28.6969 13.7277 29.25 12.3924 29.25 11C29.25 9.60761 28.6969 8.27225 27.7123 7.28769C26.7277 6.30312 25.3924 5.75 24 5.75H13.6904C13.5334 6.73188 13.0708 7.64671 12.3588 8.35876C11.468 9.24956 10.2598 9.75 9 9.75H6C5.58579 9.75 5.25 9.41421 5.25 9V7.75H2C1.58579 7.75 1.25 7.41421 1.25 7C1.25 6.58579 1.58579 6.25 2 6.25H5.25V3.75H2C1.58579 3.75 1.25 3.41421 1.25 3C1.25 2.58579 1.58579 2.25 2 2.25H5.25V1ZM11.2981 2.7019C11.9076 3.3114 12.25 4.13805 12.25 5C12.25 5.86195 11.9076 6.6886 11.2981 7.2981C10.6886 7.90759 9.86195 8.25 9 8.25H6.75V7V3V1.75H9C9.86195 1.75 10.6886 2.09241 11.2981 2.7019Z" fill="#474445"/>
</svg>
