<svg width="32" height="32" viewBox="0 0 32 32" fill="none" xmlns="http://www.w3.org/2000/svg">
<path d="M29.6991 22.269L30.3126 21.8375L29.6991 22.269ZM12.5835 9.33334C12.5835 11.1283 11.1284 12.5833 9.3335 12.5833V14.0833C11.9568 14.0833 14.0835 11.9567 14.0835 9.33334H12.5835ZM9.3335 12.5833C7.53857 12.5833 6.0835 11.1283 6.0835 9.33334H4.5835C4.5835 11.9567 6.71014 14.0833 9.3335 14.0833V12.5833ZM6.0835 9.33334C6.0835 7.53841 7.53857 6.08334 9.3335 6.08334V4.58334C6.71014 4.58334 4.5835 6.70998 4.5835 9.33334H6.0835ZM9.3335 6.08334C11.1284 6.08334 12.5835 7.53841 12.5835 9.33334H14.0835C14.0835 6.70998 11.9568 4.58334 9.3335 4.58334V6.08334ZM5.91683 28C5.91683 29.0585 5.05871 29.9167 4.00016 29.9167V31.4167C5.88714 31.4167 7.41683 29.887 7.41683 28H5.91683ZM4.00016 29.9167C2.94162 29.9167 2.0835 29.0585 2.0835 28H0.583496C0.583496 29.887 2.11319 31.4167 4.00016 31.4167V29.9167ZM2.0835 28C2.0835 26.9415 2.94162 26.0833 4.00016 26.0833V24.5833C2.11319 24.5833 0.583496 26.113 0.583496 28H2.0835ZM4.00016 26.0833C5.05871 26.0833 5.91683 26.9415 5.91683 28H7.41683C7.41683 26.113 5.88714 24.5833 4.00016 24.5833V26.0833ZM16.5835 9.33334C16.5835 13.3374 13.3376 16.5833 9.3335 16.5833V18.0833C14.166 18.0833 18.0835 14.1658 18.0835 9.33334H16.5835ZM9.3335 16.5833C5.32943 16.5833 2.0835 13.3374 2.0835 9.33334H0.583496C0.583496 14.1658 4.501 18.0833 9.3335 18.0833V16.5833ZM2.0835 9.33334C2.0835 5.32927 5.32943 2.08334 9.3335 2.08334V0.583336C4.501 0.583336 0.583496 4.50084 0.583496 9.33334H2.0835ZM29.9168 25.3333C29.9168 27.8646 27.8648 29.9167 25.3335 29.9167V31.4167C28.6932 31.4167 31.4168 28.6931 31.4168 25.3333H29.9168ZM25.3335 29.9167C22.8022 29.9167 20.7502 27.8646 20.7502 25.3333H19.2502C19.2502 28.6931 21.9738 31.4167 25.3335 31.4167V29.9167ZM20.7502 25.3333C20.7502 22.802 22.8022 20.75 25.3335 20.75V19.25C21.9738 19.25 19.2502 21.9736 19.2502 25.3333H20.7502ZM25.3335 29.9167H4.00016V31.4167H25.3335V29.9167ZM0.583496 9.33334V28H2.0835V9.33334H0.583496ZM9.3335 2.08334C11.4806 2.08334 13.409 3.01576 14.7376 4.50019L15.8553 3.49982C14.2542 1.71091 11.925 0.583336 9.3335 0.583336V2.08334ZM14.7376 4.50019C15.8861 5.78335 16.5835 7.476 16.5835 9.33334H18.0835C18.0835 7.09278 17.2404 5.04736 15.8553 3.49982L14.7376 4.50019ZM25.3335 20.75C26.8841 20.75 28.2551 21.5193 29.0856 22.7004L30.3126 21.8375C29.2132 20.2741 27.393 19.25 25.3335 19.25V20.75ZM29.0856 22.7004C29.6094 23.4452 29.9168 24.3523 29.9168 25.3333H31.4168C31.4168 24.0335 31.0083 22.8268 30.3126 21.8375L29.0856 22.7004ZM14.7075 4.46434L29.1102 22.7333L30.2881 21.8046L15.8854 3.53567L14.7075 4.46434Z" fill="#474445"/>
</svg>
