<svg width="32" height="32" viewBox="0 0 32 32" fill="none" xmlns="http://www.w3.org/2000/svg">
<path d="M15.1381 3.70012L15.7271 3.23578C15.7174 3.22352 15.7074 3.21156 15.6969 3.19993L15.1381 3.70012ZM29.7214 22.1982L30.3349 21.7668C30.3271 21.7556 30.3189 21.7446 30.3104 21.7339L29.7214 22.1982ZM3.70012 29.9513C2.6231 29.9513 1.75 29.0782 1.75 28.0012H0.25C0.25 29.9066 1.79467 31.4513 3.70012 31.4513V29.9513ZM1.75 9.10035C1.75 5.04086 5.04086 1.75 9.10035 1.75V0.25C4.21244 0.25 0.25 4.21244 0.25 9.10035H1.75ZM25.301 29.9513H3.70012V31.4513H25.301V29.9513ZM0.25 9.10035V28.0012H1.75V9.10035H0.25ZM9.10035 1.75C11.2772 1.75 13.2323 2.69535 14.5792 4.2003L15.6969 3.19993C14.0775 1.3905 11.7216 0.25 9.10035 0.25V1.75ZM14.5491 4.16445L29.1325 22.6625L30.3104 21.7339L15.7271 3.23578L14.5491 4.16445ZM29.1079 22.6296C31.1945 25.5968 29.0026 29.9513 25.301 29.9513V31.4513C30.2393 31.4513 33.1079 25.71 30.3349 21.7668L29.1079 22.6296Z" fill="#767676"/>
<path d="M29.108 22.6296C29.3463 22.9685 29.8141 23.05 30.1529 22.8117C30.4918 22.5734 30.5733 22.1056 30.335 21.7668L29.108 22.6296ZM25.3011 29.9513C22.7329 29.9513 20.6509 27.8693 20.6509 25.301H19.1509C19.1509 28.6977 21.9044 31.4513 25.3011 31.4513V29.9513ZM20.6509 25.301C20.6509 22.7328 22.7329 20.6508 25.3011 20.6508V19.1508C21.9044 19.1508 19.1509 21.9044 19.1509 25.301H20.6509ZM25.3011 20.6508C26.8743 20.6508 28.2653 21.4313 29.108 22.6296L30.335 21.7668C29.2235 20.1862 27.3832 19.1508 25.3011 19.1508V20.6508Z" fill="#767676"/>
<path d="M5.65023 28.0012C5.65023 29.0782 4.77713 29.9513 3.70012 29.9513V31.4513C5.60556 31.4513 7.15023 29.9066 7.15023 28.0012H5.65023ZM3.70012 29.9513C2.6231 29.9513 1.75 29.0782 1.75 28.0012H0.25C0.25 29.9066 1.79467 31.4513 3.70012 31.4513V29.9513ZM1.75 28.0012C1.75 26.9241 2.6231 26.051 3.70012 26.051V24.551C1.79467 24.551 0.25 26.0957 0.25 28.0012H1.75ZM3.70012 26.051C4.77713 26.051 5.65023 26.9241 5.65023 28.0012H7.15023C7.15023 26.0957 5.60556 24.551 3.70012 24.551V26.051Z" fill="#767676"/>
<path d="M15.6969 3.19993C15.4207 2.89129 14.9466 2.86502 14.6379 3.14127C14.3293 3.41751 14.303 3.89166 14.5792 4.2003L15.6969 3.19993ZM16.4507 9.10035C16.4507 13.1598 13.1598 16.4507 9.10035 16.4507V17.9507C13.9883 17.9507 17.9507 13.9883 17.9507 9.10035H16.4507ZM9.10035 16.4507C5.04086 16.4507 1.75 13.1598 1.75 9.10035H0.25C0.25 13.9883 4.21244 17.9507 9.10035 17.9507V16.4507ZM14.5792 4.2003C15.7436 5.50122 16.4507 7.21731 16.4507 9.10035H17.9507C17.9507 6.8341 17.0979 4.76523 15.6969 3.19993L14.5792 4.2003Z" fill="#767676"/>
<path d="M12.4006 9.10034C12.4006 10.923 10.9231 12.4005 9.10047 12.4005V13.9005C11.7515 13.9005 13.9006 11.7514 13.9006 9.10034H12.4006ZM9.10047 12.4005C7.27783 12.4005 5.80029 10.923 5.80029 9.10034H4.30029C4.30029 11.7514 6.4494 13.9005 9.10047 13.9005V12.4005ZM5.80029 9.10034C5.80029 7.27771 7.27783 5.80017 9.10047 5.80017V4.30017C6.4494 4.30017 4.30029 6.44928 4.30029 9.10034H5.80029ZM9.10047 5.80017C10.9231 5.80017 12.4006 7.27771 12.4006 9.10034H13.9006C13.9006 6.44928 11.7515 4.30017 9.10047 4.30017V5.80017Z" fill="#767676"/>
</svg>
