<svg width="32" height="32" viewBox="0 0 32 32" fill="none" xmlns="http://www.w3.org/2000/svg">
<rect x="1.3335" y="5.33333" width="29.3333" height="25.3333" rx="2.66667" stroke="#71717A" stroke-width="1.5" stroke-linecap="round" stroke-linejoin="round"/>
<path d="M30.6668 13.3333H1.3335" stroke="#71717A" stroke-width="1.5" stroke-linecap="round" stroke-linejoin="round"/>
<path d="M25.3332 18.6667H6.6665" stroke="#71717A" stroke-width="1.5" stroke-linecap="round" stroke-linejoin="round"/>
<path d="M10.6665 18.6667V22.6667C10.6665 24.1394 11.8604 25.3333 13.3332 25.3333H30.6665" stroke="#71717A" stroke-width="1.5" stroke-linecap="round" stroke-linejoin="round"/>
<path d="M27.9998 5.33333V2.66666C27.9998 1.93028 27.4029 1.33333 26.6665 1.33333H23.9998C23.2635 1.33333 22.6665 1.93028 22.6665 2.66666V5.33333" stroke="#71717A" stroke-width="1.5" stroke-linecap="round" stroke-linejoin="round"/>
<path d="M18.6668 5.33333V2.66666C18.6668 1.93028 18.0699 1.33333 17.3335 1.33333H14.6668C13.9304 1.33333 13.3335 1.93028 13.3335 2.66666V5.33333" stroke="#71717A" stroke-width="1.5" stroke-linecap="round" stroke-linejoin="round"/>
<path d="M9.33333 5.33333V2.66666C9.33333 1.93028 8.73638 1.33333 8 1.33333H5.33333C4.59695 1.33333 4 1.93028 4 2.66666V5.33333" stroke="#71717A" stroke-width="1.5" stroke-linecap="round" stroke-linejoin="round"/>
</svg>
