<svg width="32" height="32" viewBox="0 0 32 32" fill="none" xmlns="http://www.w3.org/2000/svg">
<path fill-rule="evenodd" clip-rule="evenodd" d="M23.9998 0.583328C22.8492 0.583328 21.9165 1.51607 21.9165 2.66666V4.58333H19.4168V2.66666C19.4168 1.51607 18.4841 0.583328 17.3335 0.583328H14.6668C13.5162 0.583328 12.5835 1.51607 12.5835 2.66666V4.58333H10.0833V2.66666C10.0833 1.51607 9.15059 0.583328 8 0.583328H5.33333C4.18274 0.583328 3.25 1.51607 3.25 2.66666V4.66594C1.72389 5.00783 0.583496 6.37074 0.583496 8V13.3333V28C0.583496 29.887 2.11319 31.4167 4.00016 31.4167H28.0002C29.8871 31.4167 31.4168 29.887 31.4168 28V13.3333V8C31.4168 6.37056 30.2762 5.00754 28.7498 4.66583V2.66666C28.7498 1.51607 27.8171 0.583328 26.6665 0.583328H23.9998ZM4.75 4.58333H8.58333V2.66666C8.58333 2.3445 8.32217 2.08333 8 2.08333H5.33333C5.01117 2.08333 4.75 2.3445 4.75 2.66666V4.58333ZM9.33333 6.08333H4.00016C2.94162 6.08333 2.0835 6.94145 2.0835 8V12.5833H29.9168V8C29.9168 6.94145 29.0587 6.08333 28.0002 6.08333H27.9998H22.6665H18.6668H13.3335H9.33333ZM17.9168 2.66666V4.58333H14.0835V2.66666C14.0835 2.3445 14.3447 2.08333 14.6668 2.08333H17.3335C17.6557 2.08333 17.9168 2.3445 17.9168 2.66666ZM27.2498 4.58333V2.66666C27.2498 2.3445 26.9887 2.08333 26.6665 2.08333H23.9998C23.6777 2.08333 23.4165 2.3445 23.4165 2.66666V4.58333H27.2498ZM29.9168 14.0833H2.0835V28C2.0835 29.0585 2.94162 29.9167 4.00016 29.9167H28.0002C29.0587 29.9167 29.9168 29.0585 29.9168 28V26.0833H13.3332C11.4462 26.0833 9.9165 24.5536 9.9165 22.6667V19.4167H6.6665C6.25229 19.4167 5.9165 19.0809 5.9165 18.6667C5.9165 18.2525 6.25229 17.9167 6.6665 17.9167H10.6665H25.3332C25.7474 17.9167 26.0832 18.2525 26.0832 18.6667C26.0832 19.0809 25.7474 19.4167 25.3332 19.4167H11.4165V22.6667C11.4165 23.7252 12.2746 24.5833 13.3332 24.5833H29.9168V14.0833Z" fill="#474445"/>
</svg>
