<svg width="32" height="32" viewBox="0 0 32 32" fill="none" xmlns="http://www.w3.org/2000/svg">
<path fill-rule="evenodd" clip-rule="evenodd" d="M16 1.75C8.12994 1.75 1.75 8.12994 1.75 16C1.75 23.8701 8.12994 30.25 16 30.25C23.8701 30.25 30.25 23.8701 30.25 16C30.25 8.12994 23.8701 1.75 16 1.75ZM0.25 16C0.25 7.30152 7.30152 0.25 16 0.25C24.6985 0.25 31.75 7.30152 31.75 16C31.75 24.6985 24.6985 31.75 16 31.75C7.30152 31.75 0.25 24.6985 0.25 16ZM19.5315 7.41435C19.8549 7.15559 20.3269 7.20803 20.5857 7.53148L23.2523 10.8648C23.4714 11.1387 23.4714 11.5279 23.2523 11.8019L20.5857 15.1352C20.3269 15.4586 19.8549 15.5111 19.5315 15.2523C19.208 14.9936 19.1556 14.5216 19.4143 14.1981L21.1062 12.0833H12C11.5858 12.0833 11.25 11.7475 11.25 11.3333C11.25 10.9191 11.5858 10.5833 12 10.5833H21.1062L19.4143 8.46852C19.1556 8.14507 19.208 7.67311 19.5315 7.41435ZM12.7478 24.4685C13.0066 24.792 13.4786 24.8444 13.802 24.5857C14.1255 24.3269 14.1779 23.8549 13.9192 23.5315L12.2273 21.4167H21.3335C21.7477 21.4167 22.0835 21.0809 22.0835 20.6667C22.0835 20.2525 21.7477 19.9167 21.3335 19.9167H12.2273L13.9192 17.8019C14.1779 17.4784 14.1255 17.0064 13.802 16.7477C13.4786 16.4889 13.0066 16.5414 12.7478 16.8648L10.0812 20.1981C9.86205 20.4721 9.86205 20.8613 10.0812 21.1352L12.7478 24.4685Z" fill="#474445"/>
</svg>
