<svg width="32" height="32" viewBox="0 0 32 32" fill="none" xmlns="http://www.w3.org/2000/svg">
<path fill-rule="evenodd" clip-rule="evenodd" d="M29.252 3.4806C29.5388 3.77941 29.5291 4.25419 29.2303 4.54104L4.23034 28.541C3.93153 28.8279 3.45675 28.8182 3.1699 28.5194C2.88304 28.2206 2.89273 27.7458 3.19154 27.459L28.1915 3.45896C28.4903 3.1721 28.9651 3.18179 29.252 3.4806ZM25.7277 11.3978C25.9719 11.0632 26.4411 10.99 26.7757 11.2342C28.3024 12.3486 29.7131 13.6138 30.9864 15.0107L30.9894 15.014C31.4803 15.559 31.752 16.2665 31.752 17C31.752 17.7335 31.4803 18.441 30.9894 18.986L30.9872 18.9884C27.5124 22.8125 21.7808 26.8431 15.9966 26.75C14.5503 26.7599 13.111 26.5466 11.7297 26.1176C11.3341 25.9947 11.113 25.5745 11.2359 25.1789C11.3587 24.7833 11.779 24.5622 12.1746 24.6851C13.4112 25.0691 14.6997 25.2597 15.9945 25.25L16.0128 25.2501C21.1582 25.3367 26.5097 21.685 29.8758 17.981C30.118 17.7117 30.252 17.3622 30.252 17C30.252 16.638 30.1181 16.2887 29.8762 16.0194C28.6711 14.6976 27.3361 13.5004 25.8913 12.4458C25.5567 12.2016 25.4835 11.7324 25.7277 11.3978ZM19.3982 7.6482C18.2875 7.37182 17.1462 7.23799 16.0018 7.24994C10.313 7.16033 4.5677 11.103 1.01682 15.0088L1.01682 15.0088L1.01451 15.0114C0.52361 15.5564 0.251953 16.2639 0.251953 16.9973C0.251953 17.7308 0.52361 18.4383 1.01451 18.9833L1.01449 18.9833L1.01803 18.9872C2.10933 20.1818 3.30044 21.2813 4.57845 22.2737C4.9056 22.5278 5.37677 22.4685 5.63081 22.1413C5.88486 21.8142 5.82559 21.343 5.49843 21.089C4.28849 20.1494 3.16077 19.1086 2.12747 17.9776C1.88571 17.7084 1.75195 17.3593 1.75195 16.9973C1.75195 16.6352 1.88591 16.2858 2.128 16.0164C5.56433 12.2372 10.9308 8.66586 15.9873 8.7499L16.0082 8.74996C17.0284 8.73852 18.0459 8.85743 19.036 9.10381C19.4379 9.20384 19.8449 8.95907 19.9449 8.55712C20.0449 8.15516 19.8002 7.74823 19.3982 7.6482ZM15.9998 12.75C15.4417 12.7499 14.889 12.8597 14.3733 13.0732C13.8576 13.2867 13.3891 13.5997 12.9944 13.9944C12.5997 14.3891 12.2867 14.8576 12.0732 15.3733C11.8597 15.889 11.7499 16.4417 11.75 16.9998C11.7501 17.414 11.4144 17.7499 11.0002 17.75C10.586 17.7501 10.2501 17.4144 10.25 17.0002C10.2498 16.245 10.3984 15.4972 10.6873 14.7995C10.9762 14.1017 11.3998 13.4677 11.9337 12.9337C12.4677 12.3998 13.1017 11.9762 13.7995 11.6873C14.4972 11.3984 15.245 11.2498 16.0002 11.25C16.4144 11.2501 16.7501 11.586 16.75 12.0002C16.7499 12.4144 16.414 12.7501 15.9998 12.75ZM21.75 16.9985C21.7499 16.5842 21.414 16.2485 20.9998 16.2487C20.5856 16.2488 20.2499 16.5846 20.25 16.9989C20.2501 17.5571 20.1403 18.1098 19.9268 18.6256C19.7133 19.1414 19.4003 19.61 19.0056 20.0048C18.6109 20.3996 18.1424 20.7127 17.6267 20.9264C17.111 21.14 16.5582 21.25 16 21.25C15.5858 21.25 15.25 21.5858 15.25 22C15.25 22.4142 15.5858 22.75 16 22.75C16.7552 22.75 17.5031 22.6012 18.2008 22.3122C18.8985 22.0231 19.5324 21.5994 20.0664 21.0653C20.6004 20.5312 21.0239 19.8972 21.3127 19.1994C21.6016 18.5016 21.7502 17.7537 21.75 16.9985Z" fill="#474445"/>
</svg>
