<svg width="32" height="32" viewBox="0 0 32 32" fill="none" xmlns="http://www.w3.org/2000/svg">
<path fill-rule="evenodd" clip-rule="evenodd" d="M30.9866 14.0087C27.4322 10.1007 21.6879 6.16126 15.9998 6.25124C10.3117 6.16126 4.56733 10.1007 1.01665 14.009L1.01664 14.009L1.01451 14.0114C0.52361 14.5564 0.251953 15.2639 0.251953 15.9973C0.251953 16.7308 0.52361 17.4383 1.0145 17.9833L1.01649 17.9855C4.48804 21.8091 10.2167 25.8388 15.9998 25.7474C21.7827 25.8388 27.5128 21.8091 30.9868 17.9857L30.989 17.9833C31.4799 17.4383 31.7516 16.7308 31.7516 15.9973C31.7516 15.2639 31.4799 14.5564 30.989 14.0114L30.9866 14.0087ZM1.75195 15.9973C1.75195 15.6351 1.88594 15.2857 2.1281 15.0163C5.56417 11.2347 10.9306 7.66593 15.9871 7.75123C15.9956 7.75137 16.004 7.75137 16.0124 7.75123C21.0689 7.66593 26.4353 11.2346 29.8756 15.0165C30.1177 15.2858 30.2516 15.6352 30.2516 15.9973C30.2516 16.3596 30.1176 16.709 29.8754 16.9784C26.5093 20.6824 21.1578 24.334 16.0124 24.2474C16.004 24.2473 15.9956 24.2473 15.9872 24.2474C10.8417 24.334 5.49143 20.6823 2.1281 16.9783C1.88594 16.709 1.75195 16.3596 1.75195 15.9973ZM16.0002 11.7487C16.5584 11.7485 17.1112 11.8584 17.627 12.072C17.7534 12.1243 17.8769 12.1826 17.9973 12.2467L19.7525 14.0024C19.8165 14.1227 19.8748 14.2463 19.9271 14.3727C20.1406 14.8885 20.2503 15.4414 20.25 15.9996V15.9998C20.2498 16.8403 20.0003 17.6619 19.5332 18.3607C19.0661 19.0594 18.4022 19.604 17.6256 19.9255C16.849 20.247 15.9945 20.331 15.1702 20.1669C14.3458 20.0027 13.5887 19.5979 12.9944 19.0035C12.4001 18.409 11.9955 17.6518 11.8316 16.8274C11.6677 16.003 11.7519 15.1485 12.0736 14.372C12.3953 13.5955 12.9401 12.9318 13.6389 12.4648C14.3378 11.9979 15.1595 11.7487 16 11.7487H16.0002ZM19.7523 14.0019L21.75 16.0002C21.7504 15.245 21.6019 14.497 21.3131 13.7992C21.0243 13.1013 20.6008 12.4671 20.0668 11.9329C19.5328 11.3988 18.8987 10.9751 18.2009 10.6861C17.5031 10.3971 16.7552 10.2485 16 10.2487L17.9977 12.2469C17.9976 12.2468 17.9974 12.2468 17.9973 12.2467L15.9998 10.2487C14.8627 10.2487 13.7511 10.5859 12.8056 11.2176C11.8601 11.8494 11.1231 12.7473 10.6878 13.7979C10.2526 14.8485 10.1386 16.0045 10.3604 17.1199C10.5821 18.2352 11.1296 19.2598 11.9336 20.064C12.7376 20.8682 13.762 21.4159 14.8773 21.638C15.9926 21.86 17.1487 21.7464 18.1994 21.3114C19.2501 20.8764 20.1482 20.1397 20.7802 19.1943C21.4122 18.249 21.7497 17.1375 21.75 16.0004L19.7525 14.0024C19.7524 14.0022 19.7524 14.0021 19.7523 14.0019ZM19.7523 14.0019C19.5552 13.6314 19.3038 13.2914 19.006 12.9935C18.7082 12.6956 18.3682 12.4441 17.9977 12.2469L19.7523 14.0019Z" fill="#767676"/>
</svg>
