<svg width="32" height="32" viewBox="0 0 32 32" fill="none" xmlns="http://www.w3.org/2000/svg">
<path d="M3.71094 28L28.7109 4" stroke="#71717A" stroke-width="1.5" stroke-linecap="round" stroke-linejoin="round"/>
<path d="M11.9521 25.4013C13.2626 25.8083 14.628 26.0102 16.0001 26C21.4668 26.092 27.0108 22.2493 30.4321 18.484C30.799 18.0768 31.002 17.5481 31.002 17C31.002 16.4519 30.799 15.9232 30.4321 15.516C29.1989 14.1631 27.8333 12.9371 26.3559 11.8564" stroke="#71717A" stroke-width="1.5" stroke-linecap="round" stroke-linejoin="round"/>
<path d="M5.03844 21.6813C3.79409 20.7151 2.63434 19.6445 1.57177 18.4813C1.20495 18.0741 1.00195 17.5454 1.00195 16.9973C1.00195 16.4492 1.20495 15.9206 1.57177 15.5133C5.06644 11.6693 10.6251 7.91067 15.9998 8C17.0729 7.98797 18.1432 8.11167 19.1853 8.36813" stroke="#71717A" stroke-width="1.5" stroke-linecap="round" stroke-linejoin="round"/>
<path d="M11 17C10.9998 16.3433 11.129 15.6931 11.3802 15.0864C11.6315 14.4797 11.9997 13.9284 12.4641 13.4641C12.9284 12.9997 13.4797 12.6315 14.0864 12.3802C14.681 12.134 15.3174 12.005 15.9608 12.0001" stroke="#71717A" stroke-width="1.5" stroke-linecap="round" stroke-linejoin="round"/>
<path d="M16 22C16.6567 22 17.307 21.8706 17.9137 21.6193C18.5204 21.3679 19.0717 20.9995 19.536 20.5351C20.0003 20.0706 20.3686 19.5193 20.6198 18.9125C20.8678 18.3133 20.9969 17.6717 20.9999 17.0234" stroke="#71717A" stroke-width="1.5" stroke-linecap="round" stroke-linejoin="round"/>
</svg>
