<svg width="32" height="32" viewBox="0 0 32 32" fill="none" xmlns="http://www.w3.org/2000/svg">
<path fill-rule="evenodd" clip-rule="evenodd" d="M15.9593 29.3333C16.7676 29.3333 17.2243 28.6278 18.5262 27.2467C20.1535 25.5202 21.7225 23.9115 22.8618 22.703C26.2256 19.1348 27.5482 17.7808 28.4867 16.7244C30.9811 13.9171 31.3047 10.0164 29.613 7.05522C27.4804 3.32211 24.2998 2.66666 22.5896 2.66666C20.8793 2.66666 19.6563 3.32211 17.4963 5.00937L15.9987 6.41118L14.5418 5.00937C12.1987 3.00649 10.5021 2.66666 9.41269 2.66666C8.50473 2.66666 4.71204 2.66722 2.26797 7.05522C0.484657 10.2569 1.41657 14.201 3.68854 16.7244C4.09535 17.1763 5.77196 18.933 8.68142 22.096C9.85283 23.3696 11.5103 25.1209 12.7306 26.4509C13.4219 27.2045 15.151 29.3333 15.9593 29.3333Z" stroke="#71717A" stroke-width="1.5"/>
</svg>
