<svg width="32" height="32" viewBox="0 0 32 32" fill="none" xmlns="http://www.w3.org/2000/svg">
<path fill-rule="evenodd" clip-rule="evenodd" d="M2.11612 2.11612C2.35054 1.8817 2.66848 1.75 3 1.75H25C25.3315 1.75 25.6495 1.8817 25.8839 2.11612C26.1183 2.35054 26.25 2.66848 26.25 3V9C26.25 9.41421 26.5858 9.75 27 9.75C27.4142 9.75 27.75 9.41421 27.75 9V3C27.75 2.27065 27.4603 1.57118 26.9445 1.05546C26.4288 0.539732 25.7293 0.25 25 0.25H3C2.27065 0.25 1.57118 0.539731 1.05546 1.05546C0.539731 1.57118 0.25 2.27065 0.25 3V19C0.25 19.7293 0.539731 20.4288 1.05546 20.9445C1.57118 21.4603 2.27065 21.75 3 21.75H6.25V27C6.25 27.2841 6.4105 27.5438 6.66459 27.6708C6.91868 27.7979 7.22274 27.7704 7.45 27.6L11.45 24.6C11.7814 24.3515 11.8485 23.8814 11.6 23.55C11.3515 23.2186 10.8814 23.1515 10.55 23.4L7.75 25.5V21C7.75 20.5858 7.41421 20.25 7 20.25H3C2.66848 20.25 2.35054 20.1183 2.11612 19.8839C1.8817 19.6495 1.75 19.3315 1.75 19V3C1.75 2.66848 1.8817 2.35054 2.11612 2.11612ZM7 6.25C6.58579 6.25 6.25 6.58579 6.25 7C6.25 7.41421 6.58579 7.75 7 7.75H21C21.4142 7.75 21.75 7.41421 21.75 7C21.75 6.58579 21.4142 6.25 21 6.25H7ZM6.25 13C6.25 12.5858 6.58579 12.25 7 12.25H11C11.4142 12.25 11.75 12.5858 11.75 13C11.75 13.4142 11.4142 13.75 11 13.75H7C6.58579 13.75 6.25 13.4142 6.25 13ZM15 12.25C14.5858 12.25 14.25 12.5858 14.25 13V25C14.25 25.4142 14.5858 25.75 15 25.75H20.6893L26.4697 31.5303C26.6842 31.7448 27.0068 31.809 27.287 31.6929C27.5673 31.5768 27.75 31.3033 27.75 31V25.75H31C31.4142 25.75 31.75 25.4142 31.75 25V13C31.75 12.5858 31.4142 12.25 31 12.25H15ZM21 24.25H15.75V13.75H30.25V24.25H27C26.5858 24.25 26.25 24.5858 26.25 25V29.1893L21.5303 24.4697C21.3897 24.329 21.1989 24.25 21 24.25ZM18.25 17C18.25 16.5858 18.5858 16.25 19 16.25H27C27.4142 16.25 27.75 16.5858 27.75 17C27.75 17.4142 27.4142 17.75 27 17.75H19C18.5858 17.75 18.25 17.4142 18.25 17ZM19 20.25C18.5858 20.25 18.25 20.5858 18.25 21C18.25 21.4142 18.5858 21.75 19 21.75H27C27.4142 21.75 27.75 21.4142 27.75 21C27.75 20.5858 27.4142 20.25 27 20.25H19Z" fill="#474445"/>
</svg>
