<svg width="32" height="32" viewBox="0 0 32 32" fill="none" xmlns="http://www.w3.org/2000/svg">
<path fill-rule="evenodd" clip-rule="evenodd" d="M2.11612 2.11612C2.35054 1.8817 2.66848 1.75 3 1.75L21.8843 5.945C22.1184 6.17927 22.2499 6.49685 22.25 6.828V6.82816V10C22.25 10.4142 22.5858 10.75 23 10.75C23.4142 10.75 23.75 10.4142 23.75 10V6.828V6.82784C23.7498 6.099 23.4604 5.40004 22.9452 4.88451L22.945 4.88434L19.1157 1.055L19.1155 1.05483C18.6 0.539633 17.901 0.250156 17.1722 0.25H17.172H3C2.27065 0.25 1.57118 0.539731 1.05546 1.05546C0.539731 1.57118 0.25 2.27065 0.25 3V25C0.25 25.7293 0.539732 26.4288 1.05546 26.9445C1.57118 27.4603 2.27065 27.75 3 27.75H10C10.4142 27.75 10.75 27.4142 10.75 27C10.75 26.5858 10.4142 26.25 10 26.25H3C2.66848 26.25 2.35054 26.1183 2.11612 25.8839C1.8817 25.6495 1.75 25.3315 1.75 25V3C1.75 2.66848 1.8817 2.35054 2.11612 2.11612ZM3 1.75L21.8842 5.94483L18.0552 2.11583L18.055 2.11566C17.8207 1.88163 17.5032 1.75011 17.172 1.75H17.1718H3ZM4.25 9C4.25 8.58579 4.58579 8.25 5 8.25H19C19.4142 8.25 19.75 8.58579 19.75 9C19.75 9.41421 19.4142 9.75 19 9.75H5C4.58579 9.75 4.25 9.41421 4.25 9ZM23 15.75C18.9959 15.75 15.75 18.9959 15.75 23C15.75 27.0041 18.9959 30.25 23 30.25C27.0041 30.25 30.25 27.0041 30.25 23C30.25 18.9959 27.0041 15.75 23 15.75ZM14.25 23C14.25 18.1675 18.1675 14.25 23 14.25C27.8325 14.25 31.75 18.1675 31.75 23C31.75 27.8325 27.8325 31.75 23 31.75C18.1675 31.75 14.25 27.8325 14.25 23ZM23 18.25C23.4142 18.25 23.75 18.5858 23.75 19V22.25H27C27.4142 22.25 27.75 22.5858 27.75 23C27.75 23.4142 27.4142 23.75 27 23.75H23.75V27C23.75 27.4142 23.4142 27.75 23 27.75C22.5858 27.75 22.25 27.4142 22.25 27V23.75H19C18.5858 23.75 18.25 23.4142 18.25 23C18.25 22.5858 18.5858 22.25 19 22.25H22.25V19C22.25 18.5858 22.5858 18.25 23 18.25ZM5 14.25C4.58579 14.25 4.25 14.5858 4.25 15C4.25 15.4142 4.58579 15.75 5 15.75H13C13.4142 15.75 13.75 15.4142 13.75 15C13.75 14.5858 13.4142 14.25 13 14.25H5ZM4.25 21C4.25 20.5858 4.58579 20.25 5 20.25H10C10.4142 20.25 10.75 20.5858 10.75 21C10.75 21.4142 10.4142 21.75 10 21.75H5C4.58579 21.75 4.25 21.4142 4.25 21Z" fill="#474445"/>
</svg>
