<svg width="32" height="32" viewBox="0 0 32 32" fill="none" xmlns="http://www.w3.org/2000/svg">
<path fill-rule="evenodd" clip-rule="evenodd" d="M1.91699 3.33331C1.91699 1.81453 3.14821 0.583313 4.66699 0.583313H27.3337C28.8524 0.583313 30.0837 1.81453 30.0837 3.33331V29.9167H31C31.4142 29.9167 31.75 30.2525 31.75 30.6667C31.75 31.0809 31.4142 31.4167 31 31.4167H1C0.585786 31.4167 0.25 31.0809 0.25 30.6667C0.25 30.2525 0.585786 29.9167 1 29.9167H1.91699V3.33331ZM28.5837 3.33331V29.9167H24.75V15.5C24.75 13.9769 23.6372 12.5833 22.08 12.5833H9.92C8.36276 12.5833 7.25 13.9769 7.25 15.5V29.9167H3.41699V3.33331C3.41699 2.64296 3.97664 2.08331 4.66699 2.08331H27.3337C28.024 2.08331 28.5837 2.64296 28.5837 3.33331ZM8.75 15.5C8.75 14.6298 9.35646 14.0833 9.92 14.0833H22.08C22.6435 14.0833 23.25 14.6298 23.25 15.5V29.9167H19.4337C20.1489 29.1261 20.799 27.7683 20.7471 26.0244C20.6914 24.1534 19.8324 21.9123 17.5311 19.4841C17.3554 19.2986 17.0973 19.2154 16.8463 19.2633C16.5953 19.3111 16.3859 19.4835 16.2908 19.7206L14.767 23.5169L13.624 22.3778C13.4651 22.2195 13.2436 22.1406 13.0204 22.1628C12.7971 22.1849 12.5956 22.3059 12.4709 22.4924C11.9858 23.2184 11.4238 24.4381 11.2832 25.8009C11.1456 27.1344 11.4119 28.6469 12.5921 29.9167H8.75V15.5ZM15.7367 25.1279L17.2286 21.411C18.7196 23.2545 19.2112 24.8421 19.2478 26.069C19.2905 27.5049 18.7147 28.5241 18.2372 28.9987L18.2365 28.9993C17.6474 29.5864 16.8479 29.9167 16.0137 29.9167C15.1797 29.9167 14.3804 29.5866 13.7914 28.9998C12.8883 28.0964 12.6666 27.0081 12.7752 25.9548C12.8435 25.293 13.0423 24.6634 13.2729 24.1456L14.5112 25.3797C14.6895 25.5574 14.9451 25.6338 15.1917 25.5831C15.4382 25.5324 15.6429 25.3615 15.7367 25.1279Z" fill="#474445"/>
</svg>
