<svg width="32" height="32" viewBox="0 0 32 32" fill="none" xmlns="http://www.w3.org/2000/svg">
<path d="M22.9493 18.9493C21.6309 20.2341 19.8595 20.9477 18.0187 20.9358C16.1779 20.9239 14.4159 20.1874 13.1142 18.8857C11.8126 17.5841 11.076 15.822 11.0641 13.9812C11.0522 12.1405 11.7659 10.3691 13.0506 9.05067L19.0506 3.05067C20.369 1.76595 22.1404 1.05227 23.9812 1.06417C25.822 1.07608 27.584 1.81261 28.8857 3.11428C30.1873 4.41594 30.9239 6.17796 30.9358 8.01875C30.9477 9.85954 30.234 11.6309 28.9493 12.9493L22.9493 18.9493Z" stroke="#474445" stroke-width="1.5" stroke-linecap="round" stroke-linejoin="round"/>
<path d="M13.0518 18.952L8.24242 23.7614C7.44581 24.5524 6.36815 24.9955 5.2455 24.9935C4.12285 24.9915 3.04674 24.5447 2.2529 23.7509C1.45907 22.957 1.01222 21.8809 1.01026 20.7583C1.0083 19.6356 1.45137 18.558 2.24242 17.7614L4.24242 15.7614" stroke="#474445" stroke-width="1.5" stroke-linecap="round" stroke-linejoin="round"/>
<path d="M13.0478 18.948L8.23852 23.7573C7.44746 24.5539 7.00439 25.6316 7.00635 26.7543C7.00832 27.8769 7.45516 28.953 8.249 29.7469C9.04283 30.5407 10.1189 30.9875 11.2416 30.9895C12.3642 30.9915 13.4419 30.5484 14.2385 29.7573L16.2385 27.7573" stroke="#474445" stroke-width="1.5" stroke-linecap="round" stroke-linejoin="round"/>
<path d="M16.0508 6.05066L25.9494 15.9493" stroke="#474445" stroke-width="1.5" stroke-linecap="round" stroke-linejoin="round"/>
</svg>
