<svg width="32" height="32" viewBox="0 0 32 32" fill="none" xmlns="http://www.w3.org/2000/svg">
<path fill-rule="evenodd" clip-rule="evenodd" d="M17.1114 6.05057L19.5774 3.58452C20.7542 2.43952 22.3343 1.80354 23.9763 1.81416C25.6199 1.82479 27.1931 2.48241 28.3553 3.64461C29.5175 4.80681 30.1751 6.38004 30.1858 8.0236C30.1964 9.66558 29.5604 11.2457 28.4154 12.4225L25.9494 14.8886L17.1114 6.05057ZM16.0507 7.11123L13.5845 9.57748C12.4395 10.7543 11.8035 12.3344 11.8141 13.9764C11.8247 15.62 12.4823 17.1932 13.6445 18.3554C14.8067 19.5176 16.38 20.1752 18.0235 20.1858C19.6655 20.1965 21.2457 19.5605 22.4224 18.4155L24.8887 15.9492L16.0507 7.11123ZM26.47 16.4893L23.4796 19.4797L23.4727 19.4865L23.4727 19.4865C22.013 20.9088 20.0519 21.699 18.0138 21.6858C16.2282 21.6743 14.5096 21.0469 13.142 19.9224L8.77275 24.2917L8.77089 24.2935C8.73892 24.3253 8.70656 24.3566 8.67383 24.3874C8.08343 25.0317 7.75482 25.8756 7.75635 26.7529C7.75797 27.6771 8.12582 28.563 8.77933 29.2165C9.43283 29.87 10.3187 30.2379 11.2429 30.2395C12.1667 30.2411 13.0535 29.8767 13.7092 29.226L13.71 29.2252L15.7082 27.227C16.0011 26.9341 16.476 26.9341 16.7688 27.227C17.0617 27.5199 17.0617 27.9948 16.7688 28.2877L14.7688 30.2877L14.767 30.2895C13.8296 31.2204 12.5614 31.7418 11.2403 31.7395C9.91917 31.7372 8.65283 31.2113 7.71867 30.2772C6.7845 29.343 6.25867 28.0767 6.25636 26.7556C6.25568 26.3678 6.30011 25.9847 6.38676 25.6131C6.01515 25.6998 5.63195 25.7442 5.24418 25.7435C3.92308 25.7412 2.65674 25.2154 1.72257 24.2812C0.788406 23.347 0.262573 22.0807 0.260262 20.7596C0.25795 19.4385 0.779348 18.1703 1.71024 17.2329L1.71209 17.231L3.71209 15.231C4.00499 14.9381 4.47986 14.9381 4.77275 15.231C5.06565 15.5239 5.06565 15.9988 4.77275 16.2917L2.77372 18.2907C2.12306 18.9464 1.75864 19.8332 1.76026 20.757C1.76188 21.6812 2.12973 22.567 2.78323 23.2205C3.43674 23.874 4.32262 24.2419 5.24681 24.2435C6.12414 24.2451 6.9681 23.9164 7.61244 23.326C7.64326 23.2932 7.67456 23.2609 7.70633 23.2289L7.70818 23.227L12.0774 18.8578C10.953 17.4902 10.3257 15.7716 10.3141 13.9861C10.3009 11.9481 11.0911 9.98689 12.5135 8.52724L12.5202 8.52029L12.5203 8.52034L18.5203 2.52034L18.5271 2.51347L18.5272 2.51352C19.9868 1.09115 21.948 0.301006 23.986 0.314188C26.0241 0.32737 27.9749 1.14282 29.416 2.58395C30.8571 4.02508 31.6726 5.97588 31.6857 8.0139C31.6989 10.0519 30.9088 12.0131 29.4864 13.4728L29.4796 13.4797L29.4796 13.4797L26.4894 16.4699C26.4862 16.4732 26.483 16.4764 26.4798 16.4797C26.4765 16.4829 26.4733 16.4861 26.47 16.4893Z" fill="#474445"/>
</svg>
