<svg width="32" height="32" viewBox="0 0 32 32" fill="none" xmlns="http://www.w3.org/2000/svg">
<path d="M21.7571 1.58536C21.3822 1.96042 21.1715 2.46903 21.1715 2.99936C21.1715 3.52969 21.3822 4.03831 21.7571 4.41336L27.5851 10.2414C27.7708 10.4271 27.9913 10.5745 28.2339 10.6751C28.4766 10.7757 28.7366 10.8275 28.9993 10.8275C29.262 10.8276 29.5221 10.7759 29.7648 10.6755C30.0075 10.575 30.228 10.4277 30.4138 10.242C30.5996 10.0563 30.7469 9.83588 30.8475 9.59323C30.9481 9.35058 30.9999 9.0905 31 8.82783C31 8.56517 30.9483 8.30506 30.8479 8.06237C30.7474 7.81967 30.6001 7.59914 30.4145 7.41336L24.5851 1.58536C24.2101 1.21042 23.7014 0.999789 23.1711 0.999789C22.6408 0.999789 22.1322 1.21042 21.7571 1.58536Z" stroke="#767676" stroke-width="1.5" stroke-linecap="round" stroke-linejoin="round"/>
<path d="M16.0999 1.58403C15.914 1.76977 15.7666 1.9903 15.666 2.23304C15.5654 2.47577 15.5137 2.73595 15.5137 2.9987C15.5137 3.26145 15.5654 3.52163 15.666 3.76436C15.7666 4.0071 15.914 4.22763 16.0999 4.41337L27.5866 15.9C27.7726 16.0857 27.9934 16.2329 28.2363 16.3333C28.4793 16.4337 28.7396 16.4852 29.0024 16.4849C29.2653 16.4847 29.5255 16.4327 29.7683 16.3319C30.011 16.231 30.2315 16.0834 30.4172 15.8974C30.6029 15.7113 30.7501 15.4905 30.8505 15.2476C30.9509 15.0047 31.0024 14.7443 31.0021 14.4815C31.0019 14.2186 30.9499 13.9584 30.8491 13.7157C30.7482 13.4729 30.6006 13.2524 30.4146 13.0667L18.9332 1.58403C18.7474 1.39758 18.5266 1.24964 18.2835 1.14869C18.0404 1.04775 17.7798 0.995789 17.5166 0.995789C17.2533 0.995789 16.9927 1.04775 16.7496 1.14869C16.5065 1.24964 16.2857 1.39758 16.0999 1.58403Z" stroke="#767676" stroke-width="1.5" stroke-linecap="round" stroke-linejoin="round"/>
<path d="M1.58515 21.7574C1.77088 21.5715 1.99142 21.4241 2.23415 21.3235C2.47689 21.2229 2.73706 21.1711 2.99981 21.1711C3.26257 21.1711 3.52274 21.2229 3.76548 21.3235C4.00821 21.4241 4.22875 21.5715 4.41448 21.7574L10.2425 27.5854C10.6068 27.9626 10.8084 28.4678 10.8038 28.9922C10.7993 29.5166 10.5889 30.0182 10.2181 30.389C9.8473 30.7598 9.34568 30.9701 8.82128 30.9747C8.29689 30.9793 7.79169 30.7777 7.41448 30.4134L1.58515 24.5854C1.21021 24.2103 0.999575 23.7017 0.999575 23.1714C0.999575 22.641 1.21021 22.1324 1.58515 21.7574Z" stroke="#767676" stroke-width="1.5" stroke-linecap="round" stroke-linejoin="round"/>
<path d="M1.58501 16.0987C1.96006 15.7238 2.46868 15.5131 2.99901 15.5131C3.52934 15.5131 4.03795 15.7238 4.41301 16.0987L15.8997 27.5854C16.2749 27.9611 16.4854 28.4705 16.4851 29.0014C16.4847 29.5324 16.2734 30.0415 15.8977 30.4167C15.5219 30.7919 15.0126 31.0025 14.4816 31.0021C13.9506 31.0017 13.4415 30.7904 13.0663 30.4147L1.58501 18.9334C1.39835 18.7475 1.25024 18.5267 1.14918 18.2834C1.04812 18.0402 0.996094 17.7794 0.996094 17.516C0.996094 17.2526 1.04812 16.9919 1.14918 16.7486C1.25024 16.5054 1.39835 16.2845 1.58501 16.0987Z" stroke="#767676" stroke-width="1.5" stroke-linecap="round" stroke-linejoin="round"/>
<path d="M20.428 8.74229L8.74185 20.4284L11.5703 23.2568L23.2564 11.5707L20.428 8.74229Z" stroke="#767676" stroke-width="1.5" stroke-linecap="round" stroke-linejoin="round"/>
</svg>
