<svg width="32" height="32" viewBox="0 0 32 32" fill="none" xmlns="http://www.w3.org/2000/svg">
<path d="M21.7574 1.58539L21.2272 1.05498L21.227 1.05514L21.7574 1.58539ZM21.7574 4.41339L21.227 4.94364L21.2271 4.94372L21.7574 4.41339ZM27.5854 10.2414L28.1159 9.71119L28.1158 9.71106L27.5854 10.2414ZM30.4148 7.41339L30.9452 6.88318L30.9451 6.883L30.4148 7.41339ZM24.5854 1.58539L25.1157 1.055L25.1157 1.05498L24.5854 1.58539ZM23.1714 0.999817V0.249817V0.999817ZM21.227 1.05514C20.7115 1.57084 20.4219 2.27019 20.4219 2.99939H21.9219C21.9219 2.66794 22.0535 2.35005 22.2879 2.11564L21.227 1.05514ZM20.4219 2.99939C20.4219 3.72859 20.7115 4.42794 21.227 4.94364L22.2879 3.88314C22.0535 3.64873 21.9219 3.33084 21.9219 2.99939H20.4219ZM21.2271 4.94372L27.0551 10.7717L28.1158 9.71106L22.2878 3.88306L21.2271 4.94372ZM27.055 10.7716C27.3103 11.027 27.6134 11.2297 27.9471 11.368L28.5214 9.98228C28.3698 9.91942 28.232 9.8273 28.1159 9.71119L27.055 10.7716ZM27.9471 11.368C28.2807 11.5063 28.6383 11.5775 28.9995 11.5776L28.9998 10.0776C28.8356 10.0775 28.6731 10.0451 28.5214 9.98228L27.9471 11.368ZM28.9995 11.5776C29.3606 11.5776 29.7183 11.5066 30.052 11.3685L29.4783 9.98251C29.3266 10.0453 29.164 10.0776 28.9998 10.0776L28.9995 11.5776ZM30.052 11.3685C30.3857 11.2303 30.6889 11.0278 30.9443 10.7725L29.8839 9.7116C29.7678 9.82766 29.63 9.91972 29.4783 9.98251L30.052 11.3685ZM30.9443 10.7725C31.1998 10.5172 31.4024 10.2141 31.5407 9.88043L30.155 9.30608C30.0921 9.45774 30 9.59554 29.8839 9.7116L30.9443 10.7725ZM31.5407 9.88043C31.679 9.5468 31.7502 9.1892 31.7503 8.82804L30.2503 8.82768C30.2502 8.99186 30.2179 9.15442 30.155 9.30608L31.5407 9.88043ZM31.7503 8.82804C31.7504 8.46688 31.6793 8.10924 31.5412 7.77554L30.1552 8.34924C30.218 8.50094 30.2503 8.66351 30.2503 8.82768L31.7503 8.82804ZM31.5412 7.77554C31.4031 7.44185 31.2006 7.13862 30.9452 6.88318L29.8843 7.94359C30.0004 8.05971 30.0924 8.19755 30.1552 8.34924L31.5412 7.77554ZM30.9451 6.883L25.1157 1.055L24.0552 2.11578L29.8845 7.94378L30.9451 6.883ZM25.1157 1.05498C24.6 0.539435 23.9007 0.249817 23.1714 0.249817V1.74982C23.5029 1.74982 23.8208 1.88146 24.0552 2.1158L25.1157 1.05498ZM23.1714 0.249817C22.4422 0.249817 21.7429 0.539434 21.2272 1.05498L22.2877 2.1158C22.5221 1.88146 22.84 1.74982 23.1714 1.74982V0.249817Z" fill="#767676"/>
<path d="M16.0999 1.58403L16.6301 2.11453L16.6312 2.11344L16.0999 1.58403ZM16.0999 4.41337L16.6302 3.88304L16.6301 3.88287L16.0999 4.41337ZM27.5866 15.9L27.0562 16.4304L27.0567 16.4309L27.5866 15.9ZM30.4146 13.0667L29.8842 13.597L29.8847 13.5975L30.4146 13.0667ZM18.9332 1.58403L18.402 2.11344L18.4029 2.11433L18.9332 1.58403ZM17.5166 0.995789V0.245789V0.995789ZM15.5698 1.05353C15.3142 1.30892 15.1115 1.61215 14.9732 1.94591L16.3589 2.52016C16.4218 2.36845 16.5139 2.23062 16.6301 2.11453L15.5698 1.05353ZM14.9732 1.94591C14.8349 2.27967 14.7637 2.63742 14.7637 2.9987H16.2637C16.2637 2.83448 16.296 2.67187 16.3589 2.52016L14.9732 1.94591ZM14.7637 2.9987C14.7637 3.35998 14.8349 3.71772 14.9732 4.05149L16.3589 3.47724C16.296 3.32553 16.2637 3.16292 16.2637 2.9987H14.7637ZM14.9732 4.05149C15.1115 4.38525 15.3142 4.68848 15.5698 4.94387L16.6301 3.88287C16.5139 3.76678 16.4218 3.62895 16.3589 3.47724L14.9732 4.05149ZM15.5696 4.9437L27.0562 16.4304L28.1169 15.3697L16.6302 3.88304L15.5696 4.9437ZM27.0567 16.4309C27.3125 16.6861 27.616 16.8885 27.95 17.0265L28.5227 15.6401C28.3708 15.5774 28.2327 15.4853 28.1164 15.3692L27.0567 16.4309ZM27.95 17.0265C28.284 17.1645 28.6418 17.2353 29.0032 17.2349L29.0018 15.7349C28.8374 15.7351 28.6746 15.7029 28.5227 15.6401L27.95 17.0265ZM29.0032 17.2349C29.3645 17.2346 29.7222 17.1631 30.056 17.0245L29.4806 15.6392C29.3288 15.7023 29.1661 15.7348 29.0018 15.7349L29.0032 17.2349ZM30.056 17.0245C30.3897 16.8859 30.6928 16.6829 30.9481 16.4272L29.8864 15.3675C29.7703 15.4839 29.6324 15.5762 29.4806 15.6392L30.056 17.0245ZM30.9481 16.4272C31.2033 16.1714 31.4057 15.8679 31.5437 15.534L30.1573 14.9612C30.0946 15.1131 30.0025 15.2512 29.8864 15.3675L30.9481 16.4272ZM31.5437 15.534C31.6817 15.2 31.7525 14.8421 31.7522 14.4808L30.2522 14.4822C30.2523 14.6465 30.2201 14.8093 30.1573 14.9612L31.5437 15.534ZM31.7522 14.4808C31.7518 14.1194 31.6803 13.7617 31.5417 13.428L30.1564 14.0033C30.2195 14.1551 30.252 14.3178 30.2522 14.4822L31.7522 14.4808ZM31.5417 13.428C31.4031 13.0943 31.2002 12.7911 30.9444 12.5359L29.8847 13.5975C30.0011 13.7136 30.0934 13.8515 30.1564 14.0033L31.5417 13.428ZM30.9449 12.5364L19.4636 1.05373L18.4029 2.11433L29.8842 13.597L30.9449 12.5364ZM19.4645 1.05462C19.209 0.79825 18.9054 0.594832 18.5712 0.456034L17.9959 1.84135C18.1479 1.90444 18.2859 1.99691 18.402 2.11344L19.4645 1.05462ZM18.5712 0.456034C18.2369 0.317236 17.8785 0.245789 17.5166 0.245789V1.74579C17.6811 1.74579 17.844 1.77826 17.9959 1.84135L18.5712 0.456034ZM17.5166 0.245789C17.1546 0.245789 16.7963 0.317236 16.462 0.456034L17.0372 1.84135C17.1892 1.77826 17.3521 1.74579 17.5166 1.74579V0.245789ZM16.462 0.456034C16.1277 0.594832 15.8241 0.79825 15.5687 1.05462L16.6312 2.11344C16.7473 1.99691 16.8853 1.90444 17.0372 1.84135L16.462 0.456034Z" fill="#767676"/>
<path d="M1.58557 21.7574L2.11598 22.2876L2.11607 22.2875L1.58557 21.7574ZM4.41491 21.7574L3.88441 22.2875L3.88458 22.2877L4.41491 21.7574ZM10.2429 27.5854L10.7825 27.0643L10.7732 27.0551L10.2429 27.5854ZM7.41491 30.4134L6.88456 30.9439L6.89387 30.9528L7.41491 30.4134ZM1.58557 24.5854L1.05516 25.1156L1.0553 25.1158L1.58557 24.5854ZM1 23.1714H0.25H1ZM2.11607 22.2875C2.23216 22.1714 2.36999 22.0792 2.5217 22.0164L1.94745 20.6306C1.61369 20.769 1.31045 20.9717 1.05507 21.2272L2.11607 22.2875ZM2.5217 22.0164C2.67341 21.9535 2.83602 21.9211 3.00024 21.9211V20.4211C2.63896 20.4211 2.28121 20.4923 1.94745 20.6306L2.5217 22.0164ZM3.00024 21.9211C3.16446 21.9211 3.32707 21.9535 3.47878 22.0164L4.05303 20.6306C3.71926 20.4923 3.36152 20.4211 3.00024 20.4211V21.9211ZM3.47878 22.0164C3.63049 22.0792 3.76832 22.1714 3.88441 22.2875L4.94541 21.2272C4.69002 20.9717 4.38679 20.769 4.05303 20.6306L3.47878 22.0164ZM3.88458 22.2877L9.71258 28.1157L10.7732 27.0551L4.94524 21.2271L3.88458 22.2877ZM9.70344 28.1064C9.93114 28.3422 10.0571 28.6579 10.0543 28.9857L11.5542 28.9987C11.5605 28.2777 11.2833 27.583 10.7824 27.0643L9.70344 28.1064ZM10.0543 28.9857C10.0514 29.3134 9.91997 29.6269 9.68821 29.8587L10.7489 30.9193C11.2587 30.4095 11.548 29.7197 11.5542 28.9987L10.0543 28.9857ZM9.68821 29.8587C9.45645 30.0905 9.14294 30.2219 8.81519 30.2248L8.82823 31.7247C9.54927 31.7184 10.239 31.4292 10.7489 30.9193L9.68821 29.8587ZM8.81519 30.2248C8.48744 30.2276 8.17169 30.1016 7.93594 29.8739L6.89387 30.9528C7.41253 31.4538 8.10718 31.731 8.82823 31.7247L8.81519 30.2248ZM7.94518 29.883L2.11584 24.055L1.0553 25.1158L6.88464 30.9438L7.94518 29.883ZM2.11598 24.0551C1.88164 23.8207 1.75 23.5028 1.75 23.1714H0.25C0.25 23.9006 0.539617 24.5999 1.05516 25.1156L2.11598 24.0551ZM1.75 23.1714C1.75 22.8399 1.88164 22.522 2.11598 22.2876L1.05516 21.2271C0.539617 21.7428 0.25 22.4422 0.25 23.1714H1.75Z" fill="#767676"/>
<path d="M1.58501 16.0987L2.11417 16.6302L2.11526 16.6291L1.58501 16.0987ZM4.41301 16.0987L4.94334 15.5684L4.94326 15.5683L4.41301 16.0987ZM15.8997 27.5854L16.4304 27.0554L16.43 27.055L15.8997 27.5854ZM13.0663 30.4147L13.597 29.8847L13.5967 29.8844L13.0663 30.4147ZM1.58501 18.9334L2.11534 18.403L2.11416 18.4019L1.58501 18.9334ZM0.996094 17.516H1.74609H0.996094ZM2.11526 16.6291C2.34967 16.3948 2.66755 16.2631 2.99901 16.2631V14.7631C2.26981 14.7631 1.57046 15.0527 1.05476 15.5683L2.11526 16.6291ZM2.99901 16.2631C3.33046 16.2631 3.64835 16.3948 3.88276 16.6291L4.94326 15.5683C4.42756 15.0527 3.72821 14.7631 2.99901 14.7631V16.2631ZM3.88268 16.629L15.3693 28.1157L16.43 27.055L4.94334 15.5684L3.88268 16.629ZM15.369 28.1153C15.6036 28.3503 15.7353 28.6688 15.7351 29.0009L17.2351 29.002C17.2356 28.2721 16.9461 27.5719 16.4304 27.0554L15.369 28.1153ZM15.7351 29.0009C15.7348 29.333 15.6027 29.6514 15.3677 29.886L16.4276 30.9474C16.9441 30.4317 17.2345 29.7319 17.2351 29.002L15.7351 29.0009ZM15.3677 29.886C15.1327 30.1206 14.8142 30.2523 14.4821 30.2521L14.4811 31.7521C15.211 31.7526 15.9112 31.4631 16.4276 30.9474L15.3677 29.886ZM14.4821 30.2521C14.1501 30.2518 13.8317 30.1197 13.597 29.8847L12.5356 30.9447C13.0514 31.4611 13.7512 31.7516 14.4811 31.7521L14.4821 30.2521ZM13.5967 29.8844L2.11534 18.403L1.05468 19.4637L12.536 30.945L13.5967 29.8844ZM2.11416 18.4019C1.99751 18.2857 1.90494 18.1477 1.84177 17.9957L0.456589 18.5712C0.595549 18.9056 0.7992 19.2093 1.05585 19.4649L2.11416 18.4019ZM1.84177 17.9957C1.77861 17.8436 1.74609 17.6806 1.74609 17.516H0.246094C0.246094 17.8782 0.317628 18.2368 0.456589 18.5712L1.84177 17.9957ZM1.74609 17.516C1.74609 17.3514 1.77861 17.1884 1.84177 17.0364L0.456589 16.4608C0.317628 16.7953 0.246094 17.1539 0.246094 17.516H1.74609ZM1.84177 17.0364C1.90494 16.8844 1.99751 16.7463 2.11416 16.6302L1.05585 15.5672C0.7992 15.8227 0.595549 16.1264 0.456589 16.4608L1.84177 17.0364Z" fill="#767676"/>
<path d="M8.74219 20.4284L8.21186 19.8981C7.91896 20.191 7.91896 20.6659 8.21186 20.9588L8.74219 20.4284ZM20.4283 8.74231L20.9586 8.21198C20.6657 7.91909 20.1909 7.91909 19.898 8.21198L20.4283 8.74231ZM23.2567 11.5707L23.7871 12.1011C24.08 11.8082 24.08 11.3333 23.7871 11.0404L23.2567 11.5707ZM11.5706 23.2569L11.0403 23.7872C11.1809 23.9278 11.3717 24.0069 11.5706 24.0069C11.7695 24.0069 11.9603 23.9278 12.1009 23.7872L11.5706 23.2569ZM9.27252 20.9588L20.9586 9.27264L19.898 8.21198L8.21186 19.8981L9.27252 20.9588ZM19.898 9.27264L22.7264 12.1011L23.7871 11.0404L20.9586 8.21198L19.898 9.27264ZM22.7264 11.0404L11.0403 22.7265L12.1009 23.7872L23.7871 12.1011L22.7264 11.0404ZM12.1009 22.7265L9.27252 19.8981L8.21186 20.9588L11.0403 23.7872L12.1009 22.7265Z" fill="#767676"/>
</svg>
