<svg width="32" height="32" viewBox="0 0 32 32" fill="none" xmlns="http://www.w3.org/2000/svg">
<path d="M21.7574 1.58533C21.3825 1.96038 21.1719 2.469 21.1719 2.99933C21.1719 3.52966 21.3825 4.03827 21.7574 4.41333L27.5854 10.2413C27.7711 10.4271 27.9916 10.5745 28.2342 10.6751C28.4769 10.7756 28.737 10.8274 28.9996 10.8275C29.2623 10.8276 29.5224 10.7759 29.7651 10.6754C30.0078 10.575 30.2283 10.4277 30.4141 10.242C30.5999 10.0563 30.7473 9.83584 30.8478 9.5932C30.9484 9.35055 31.0002 9.09047 31.0003 8.8278C31.0003 8.56513 30.9487 8.30503 30.8482 8.06233C30.7477 7.81964 30.6005 7.59911 30.4148 7.41333L24.5854 1.58533C24.2104 1.21039 23.7018 0.999756 23.1714 0.999756C22.6411 0.999756 22.1325 1.21039 21.7574 1.58533Z" stroke="#474445" stroke-width="1.5" stroke-linecap="round" stroke-linejoin="round"/>
<path d="M16.0999 1.58403C15.9141 1.76977 15.7666 1.9903 15.666 2.23304C15.5654 2.47577 15.5137 2.73595 15.5137 2.9987C15.5137 3.26145 15.5654 3.52163 15.666 3.76436C15.7666 4.0071 15.9141 4.22763 16.0999 4.41337L27.5866 15.9C27.7726 16.0857 27.9934 16.2329 28.2363 16.3333C28.4793 16.4337 28.7396 16.4852 29.0025 16.4849C29.2653 16.4847 29.5255 16.4327 29.7683 16.3319C30.011 16.231 30.2316 16.0834 30.4172 15.8974C30.6029 15.7113 30.7502 15.4905 30.8505 15.2476C30.9509 15.0047 31.0024 14.7443 31.0022 14.4815C31.0019 14.2186 30.9499 13.9584 30.8491 13.7157C30.7483 13.4729 30.6006 13.2524 30.4146 13.0667L18.9332 1.58403C18.7474 1.39758 18.5267 1.24964 18.2835 1.14869C18.0404 1.04775 17.7798 0.995789 17.5166 0.995789C17.2533 0.995789 16.9927 1.04775 16.7496 1.14869C16.5065 1.24964 16.2857 1.39758 16.0999 1.58403V1.58403Z" stroke="#474445" stroke-width="1.5" stroke-linecap="round" stroke-linejoin="round"/>
<path d="M1.58557 21.7573C1.77131 21.5715 1.99184 21.424 2.23458 21.3234C2.47731 21.2229 2.73749 21.1711 3.00024 21.1711C3.26299 21.1711 3.52317 21.2229 3.7659 21.3234C4.00864 21.424 4.22917 21.5715 4.41491 21.7573L10.2429 27.5853C10.6072 27.9625 10.8088 28.4677 10.8043 28.9921C10.7997 29.5165 10.5894 30.0181 10.2185 30.389C9.84773 30.7598 9.3461 30.9701 8.82171 30.9747C8.29731 30.9792 7.79211 30.7776 7.41491 30.4133L1.58557 24.5853C1.21063 24.2103 1 23.7016 1 23.1713C1 22.641 1.21063 22.1324 1.58557 21.7573Z" stroke="#474445" stroke-width="1.5" stroke-linecap="round" stroke-linejoin="round"/>
<path d="M1.58501 16.0987C1.96006 15.7238 2.46868 15.5131 2.99901 15.5131C3.52934 15.5131 4.03795 15.7238 4.41301 16.0987L15.8997 27.5854C16.2749 27.9611 16.4854 28.4705 16.4851 29.0014C16.4847 29.5324 16.2734 30.0415 15.8977 30.4167C15.5219 30.7919 15.0126 31.0025 14.4816 31.0021C13.9506 31.0017 13.4415 30.7904 13.0663 30.4147L1.58501 18.9334C1.39835 18.7475 1.25024 18.5267 1.14918 18.2834C1.04812 18.0402 0.996094 17.7794 0.996094 17.516C0.996094 17.2526 1.04812 16.9918 1.14918 16.7486C1.25024 16.5054 1.39835 16.2845 1.58501 16.0987V16.0987Z" stroke="#474445" stroke-width="1.5" stroke-linecap="round" stroke-linejoin="round"/>
<path d="M20.4283 8.74229L8.74219 20.4284L11.5706 23.2568L23.2567 11.5707L20.4283 8.74229Z" stroke="#474445" stroke-width="1.5" stroke-linecap="round" stroke-linejoin="round"/>
</svg>
