<svg width="32" height="32" viewBox="0 0 32 32" fill="none" xmlns="http://www.w3.org/2000/svg">
<path d="M2.99984 2.08334H5.6665V0.583336H2.99984V2.08334ZM6.24984 2.66667V9.33334H7.74984V2.66667H6.24984ZM5.6665 9.91667H2.99984V11.4167H5.6665V9.91667ZM2.4165 9.33334V2.66667H0.916504V9.33334H2.4165ZM2.99984 9.91667C2.67767 9.91667 2.4165 9.6555 2.4165 9.33334H0.916504C0.916504 10.4839 1.84924 11.4167 2.99984 11.4167V9.91667ZM6.24984 9.33334C6.24984 9.6555 5.98867 9.91667 5.6665 9.91667V11.4167C6.8171 11.4167 7.74984 10.4839 7.74984 9.33334H6.24984ZM5.6665 2.08334C5.98867 2.08334 6.24984 2.3445 6.24984 2.66667H7.74984C7.74984 1.51608 6.8171 0.583336 5.6665 0.583336V2.08334ZM2.99984 0.583336C1.84924 0.583336 0.916504 1.51608 0.916504 2.66667H2.4165C2.4165 2.3445 2.67767 2.08334 2.99984 2.08334V0.583336Z" fill="#71717A"/>
<path d="M26.3328 2.08334H28.9995V0.583336H26.3328V2.08334ZM29.5828 2.66667V9.33334H31.0828V2.66667H29.5828ZM28.9995 9.91667H26.3328V11.4167H28.9995V9.91667ZM25.7495 9.33334V2.66667H24.2495V9.33334H25.7495ZM26.3328 9.91667C26.0107 9.91667 25.7495 9.6555 25.7495 9.33334H24.2495C24.2495 10.4839 25.1823 11.4167 26.3328 11.4167V9.91667ZM29.5828 9.33334C29.5828 9.6555 29.3217 9.91667 28.9995 9.91667V11.4167C30.1501 11.4167 31.0828 10.4839 31.0828 9.33334H29.5828ZM28.9995 2.08334C29.3217 2.08334 29.5828 2.3445 29.5828 2.66667H31.0828C31.0828 1.51608 30.1501 0.583336 28.9995 0.583336V2.08334ZM26.3328 0.583336C25.1823 0.583336 24.2495 1.51608 24.2495 2.66667H25.7495C25.7495 2.3445 26.0107 2.08334 26.3328 2.08334V0.583336Z" fill="#71717A"/>
<path d="M24.9997 6.75C25.4139 6.75 25.7497 6.41421 25.7497 6C25.7497 5.58579 25.4139 5.25 24.9997 5.25V6.75ZM7 5.25C6.58579 5.25 6.25 5.58579 6.25 6C6.25 6.41421 6.58579 6.75 7 6.75V5.25ZM16 6.75H24.9997V5.25H16V6.75ZM16 5.25H7V6.75H16V5.25Z" fill="#71717A"/>
<path d="M25.3332 26.75C25.7474 26.75 26.0832 26.4142 26.0832 26C26.0832 25.5858 25.7474 25.25 25.3332 25.25V26.75ZM6.6665 25.25C6.25229 25.25 5.9165 25.5858 5.9165 26C5.9165 26.4142 6.25229 26.75 6.6665 26.75V25.25ZM15.9998 26.75H25.3332V25.25H15.9998V26.75ZM15.9998 25.25H6.6665V26.75H15.9998V25.25Z" fill="#71717A"/>
<path d="M13.333 1.75001C12.9188 1.75001 12.583 2.08579 12.583 2.50001C12.583 2.91422 12.9188 3.25001 13.333 3.25001L13.333 1.75001ZM18.6663 3.25001C19.0806 3.25001 19.4163 2.91422 19.4163 2.50001C19.4163 2.08579 19.0806 1.75001 18.6663 1.75001V3.25001ZM13.333 3.25001L18.6663 3.25001V1.75001L13.333 1.75001L13.333 3.25001Z" fill="#71717A"/>
<path d="M13.333 28.75C12.9188 28.75 12.583 29.0858 12.583 29.5C12.583 29.9142 12.9188 30.25 13.333 30.25V28.75ZM18.6663 30.25C19.0806 30.25 19.4163 29.9142 19.4163 29.5C19.4163 29.0858 19.0806 28.75 18.6663 28.75V30.25ZM13.333 30.25H18.6663V28.75H13.333V30.25Z" fill="#71717A"/>
</svg>
