<svg width="32" height="32" viewBox="0 0 32 32" fill="none" xmlns="http://www.w3.org/2000/svg">
<path d="M24.9995 6H15.9998H6.99984M25.3332 26H15.9998H6.66651M13.3332 2.50001L18.6665 2.50001M13.3332 29.5H18.6665M2.99984 10.6667H5.6665C6.40288 10.6667 6.99984 10.0697 6.99984 9.33334V2.66667C6.99984 1.93029 6.40288 1.33334 5.6665 1.33334H2.99984C2.26346 1.33334 1.6665 1.93029 1.6665 2.66667V9.33334C1.6665 10.0697 2.26346 10.6667 2.99984 10.6667ZM26.3328 10.6667H28.9995C29.7359 10.6667 30.3328 10.0697 30.3328 9.33334V2.66667C30.3328 1.93029 29.7359 1.33334 28.9995 1.33334H26.3328C25.5965 1.33334 24.9995 1.93029 24.9995 2.66667V9.33334C24.9995 10.0697 25.5965 10.6667 26.3328 10.6667Z" stroke="#474445" stroke-width="1.5" stroke-linecap="round" stroke-linejoin="round"/>
</svg>
