<svg width="32" height="32" viewBox="0 0 32 32" fill="none" xmlns="http://www.w3.org/2000/svg">
<path fill-rule="evenodd" clip-rule="evenodd" d="M2.33333 1.75C2.01117 1.75 1.75 2.01117 1.75 2.33333V12.25H20.25V7V2.33333C20.25 2.01117 19.9888 1.75 19.6667 1.75H2.33333ZM21.75 2.33333V6.25H23C23.7293 6.25 24.4288 6.53973 24.9445 7.05546C25.4603 7.57118 25.75 8.27065 25.75 9V29C25.75 29.3315 25.8817 29.6495 26.1161 29.8839C26.3505 30.1183 26.6685 30.25 27 30.25C27.3315 30.25 27.6495 30.1183 27.8839 29.8839C28.1183 29.6495 28.25 29.3315 28.25 29V17.0001V17C28.2499 15.5471 28.6796 14.1266 29.4852 12.9175L29.4857 12.9167L30.3763 11.5834C30.6064 11.239 31.0722 11.1463 31.4166 11.3763C31.761 11.6064 31.8537 12.0722 31.6237 12.4166L30.7335 13.7492L30.7332 13.7495C30.2315 14.5028 29.9129 15.359 29.7981 16.25H31C31.4142 16.25 31.75 16.5858 31.75 17C31.75 17.4142 31.4142 17.75 31 17.75H29.75V29C29.75 29.7293 29.4603 30.4288 28.9445 30.9445C28.4288 31.4603 27.7293 31.75 27 31.75C26.2707 31.75 25.5712 31.4603 25.0555 30.9445C24.5397 30.4288 24.25 29.7293 24.25 29V9C24.25 8.66848 24.1183 8.35054 23.8839 8.11612C23.6495 7.8817 23.3315 7.75 23 7.75H21.75V13V29.6667C21.75 30.8173 20.8173 31.75 19.6667 31.75H2.33333C1.18274 31.75 0.25 30.8173 0.25 29.6667V13V2.33333C0.25 1.18274 1.18274 0.25 2.33333 0.25H19.6667C20.8173 0.25 21.75 1.18274 21.75 2.33333ZM20.25 13.75H1.75V29.6667C1.75 29.9888 2.01117 30.25 2.33333 30.25H19.6667C19.9888 30.25 20.25 29.9888 20.25 29.6667V13.75ZM5.05546 5.05546C5.57118 4.53973 6.27066 4.25 7 4.25H15C15.7293 4.25 16.4288 4.53973 16.9445 5.05546C17.4603 5.57118 17.75 6.27066 17.75 7C17.75 7.72935 17.4603 8.42882 16.9445 8.94454C16.4288 9.46027 15.7293 9.75 15 9.75H7C6.27066 9.75 5.57118 9.46027 5.05546 8.94454C4.53973 8.42882 4.25 7.72935 4.25 7C4.25 6.27066 4.53973 5.57118 5.05546 5.05546ZM7 5.75C6.66848 5.75 6.35054 5.8817 6.11612 6.11612C5.8817 6.35054 5.75 6.66848 5.75 7C5.75 7.33152 5.8817 7.64946 6.11612 7.88388C6.35054 8.1183 6.66848 8.25 7 8.25H15C15.3315 8.25 15.6495 8.1183 15.8839 7.88388C16.1183 7.64946 16.25 7.33152 16.25 7C16.25 6.66848 16.1183 6.35054 15.8839 6.11612C15.6495 5.8817 15.3315 5.75 15 5.75H7Z" fill="#767676"/>
</svg>
