<svg width="32" height="32" viewBox="0 0 32 32" fill="none" xmlns="http://www.w3.org/2000/svg">
<path d="M19.6667 1H2.33333C1.59695 1 1 1.59695 1 2.33333V29.6667C1 30.403 1.59695 31 2.33333 31H19.6667C20.403 31 21 30.403 21 29.6667V2.33333C21 1.59695 20.403 1 19.6667 1Z" stroke="#71717A" stroke-width="1.5" stroke-linecap="round" stroke-linejoin="round"/>
<path d="M17 7C17 6.46957 16.7893 5.96086 16.4142 5.58579C16.0391 5.21071 15.5304 5 15 5H7C6.46957 5 5.96086 5.21071 5.58579 5.58579C5.21071 5.96086 5 6.46957 5 7C5 7.53043 5.21071 8.03914 5.58579 8.41421C5.96086 8.78929 6.46957 9 7 9H15C15.5304 9 16.0391 8.78929 16.4142 8.41421C16.7893 8.03914 17 7.53043 17 7Z" stroke="#71717A" stroke-width="1.5" stroke-linecap="round" stroke-linejoin="round"/>
<path d="M1 13H21" stroke="#71717A" stroke-width="1.5" stroke-linecap="round" stroke-linejoin="round"/>
<path d="M21 7H23C23.5304 7 24.0391 7.21071 24.4142 7.58579C24.7893 7.96086 25 8.46957 25 9V29C25 29.5304 25.2107 30.0391 25.5858 30.4142C25.9609 30.7893 26.4696 31 27 31C27.5304 31 28.0391 30.7893 28.4142 30.4142C28.7893 30.0391 29 29.5304 29 29V17C28.9999 15.6951 29.3858 14.4193 30.1093 13.3333L31 12" stroke="#71717A" stroke-width="1.5" stroke-linecap="round" stroke-linejoin="round"/>
<path d="M29 17H31" stroke="#71717A" stroke-width="1.5" stroke-linecap="round" stroke-linejoin="round"/>
</svg>
