<svg width="32" height="32" viewBox="0 0 32 32" fill="none" xmlns="http://www.w3.org/2000/svg">
<path fill-rule="evenodd" clip-rule="evenodd" d="M1.75 2.33333C1.75 2.01117 2.01117 1.75 2.33333 1.75H19.6667C19.9888 1.75 20.25 2.01117 20.25 2.33333V6.25H1.75V2.33333ZM21.75 2.33333V6.25H22.9997C23.729 6.25 24.4285 6.53973 24.9442 7.05546C25.4599 7.57118 25.7497 8.27065 25.7497 9V29C25.7497 29.3315 25.8814 29.6495 26.1158 29.8839C26.3502 30.1183 26.6682 30.25 26.9997 30.25C27.3312 30.25 27.6491 30.1183 27.8836 29.8839C28.118 29.6495 28.2497 29.3315 28.2497 29V17.0001V17C28.2495 15.5471 28.6793 14.1266 29.4848 12.9175L29.4854 12.9167L30.376 11.5834C30.6061 11.239 31.0718 11.1463 31.4163 11.3763C31.7607 11.6064 31.8534 12.0722 31.6233 12.4166L30.7332 13.7492C30.2313 14.5025 29.9126 15.3589 29.7978 16.25H31C31.4142 16.25 31.75 16.5858 31.75 17C31.75 17.4142 31.4142 17.75 31 17.75H29.7497V29C29.7497 29.7293 29.4599 30.4288 28.9442 30.9445C28.4285 31.4603 27.729 31.75 26.9997 31.75C26.2703 31.75 25.5709 31.4603 25.0551 30.9445C24.5394 30.4288 24.2497 29.7293 24.2497 29V9C24.2497 8.66848 24.118 8.35054 23.8836 8.11612C23.6491 7.8817 23.3312 7.75 22.9997 7.75H21.75V29.6667C21.75 30.8173 20.8173 31.75 19.6667 31.75H2.33333C1.18274 31.75 0.25 30.8173 0.25 29.6667V2.33333C0.25 1.18274 1.18274 0.25 2.33333 0.25H19.6667C20.8173 0.25 21.75 1.18274 21.75 2.33333ZM1.75 7.75H20.25V29.6667C20.25 29.9888 19.9888 30.25 19.6667 30.25H2.33333C2.01117 30.25 1.75 29.9888 1.75 29.6667V7.75ZM11.3333 13.3333L11.9629 12.9257C11.8246 12.7122 11.5876 12.5833 11.3333 12.5833C11.079 12.5833 10.842 12.7122 10.7038 12.9257L11.3333 13.3333ZM11.3333 13.3333C11.9629 12.9257 11.9629 12.9257 11.963 12.9258L11.9631 12.9261L11.9637 12.927L11.9658 12.9303L11.9736 12.9423L12.0026 12.9876C12.0279 13.027 12.0645 13.0847 12.111 13.1584C12.204 13.3058 12.3362 13.5179 12.4948 13.7782C12.8114 14.2983 13.2347 15.0141 13.6589 15.7941C14.0818 16.5718 14.5124 17.4256 14.8393 18.2192C15.1544 18.9843 15.4167 19.7935 15.4167 20.4445C15.4167 21.5713 14.9975 22.661 14.2375 23.4716C13.476 24.2838 12.4325 24.75 11.3333 24.75C10.2342 24.75 9.19064 24.2838 8.42916 23.4716C7.66921 22.661 7.25 21.5713 7.25 20.4445C7.25 19.7935 7.51222 18.9843 7.82735 18.2192C8.15424 17.4256 8.58487 16.5718 9.0078 15.7941C9.432 15.0141 9.85524 14.2983 10.1719 13.7782C10.3304 13.5179 10.4627 13.3058 10.5557 13.1584C10.6021 13.0847 10.6388 13.027 10.664 12.9876L10.6931 12.9423L10.7008 12.9303L10.7029 12.927L10.7035 12.9261L10.7037 12.9258C10.7038 12.9257 10.7038 12.9257 11.3333 13.3333ZM10.3255 16.5108C10.6837 15.8522 11.0426 15.2385 11.3333 14.756C11.6241 15.2385 11.983 15.8522 12.3411 16.5108C12.7515 17.2654 13.1542 18.0667 13.4524 18.7905C13.7622 19.5428 13.9167 20.1135 13.9167 20.4445C13.9167 21.2036 13.6335 21.9227 13.1432 22.4457C12.6544 22.967 12.0023 23.25 11.3333 23.25C10.6644 23.25 10.0122 22.967 9.52346 22.4457C9.03317 21.9227 8.75 21.2036 8.75 20.4445C8.75 20.1135 8.90445 19.5428 9.21431 18.7905C9.51243 18.0667 9.91513 17.2654 10.3255 16.5108Z" fill="#474445"/>
</svg>
