<svg width="32" height="32" viewBox="0 0 32 32" fill="none" xmlns="http://www.w3.org/2000/svg">
<path d="M15.9154 0.583567C15.5011 0.585832 15.1672 0.923451 15.1695 1.33766C15.1717 1.75187 15.5094 2.08581 15.9236 2.08354L15.9154 0.583567ZM3.05097 9.11221L2.4462 8.66864C2.4249 8.69767 2.40573 8.7282 2.38881 8.75999L3.05097 9.11221ZM4.10477 8.94357C4.34975 8.60957 4.27758 8.14021 3.94357 7.89523C3.60957 7.65025 3.14021 7.72242 2.89523 8.05643L4.10477 8.94357ZM15.9236 2.08354C18.9696 2.06688 21.937 3.05008 24.3705 4.88229L25.2727 3.68398C22.577 1.65428 19.2897 0.565108 15.9154 0.583567L15.9236 2.08354ZM24.3705 4.88229C26.8039 6.7145 28.569 9.29452 29.395 12.2265L30.8388 11.8198C29.9238 8.57178 27.9685 5.71367 25.2727 3.68398L24.3705 4.88229ZM29.395 12.2265C30.2209 15.1585 30.0621 18.2805 28.9428 21.1135L30.3379 21.6647C31.5778 18.5263 31.7538 15.0678 30.8388 11.8198L29.395 12.2265ZM28.9428 21.1135C27.8236 23.9465 25.8057 26.3341 23.1989 27.9099L23.9748 29.1936C26.8627 27.4479 29.098 24.8031 30.3379 21.6647L28.9428 21.1135ZM23.1989 27.9099C20.592 29.4856 17.5402 30.1626 14.5115 29.8369L14.3511 31.3283C17.7062 31.6891 21.087 30.9392 23.9748 29.1936L23.1989 27.9099ZM14.5115 29.8369C11.4829 29.5111 8.64478 28.2007 6.43261 26.1066L5.40143 27.196C7.85203 29.5158 10.9961 30.9674 14.3511 31.3283L14.5115 29.8369ZM6.43261 26.1066C4.22045 24.0126 2.75644 21.2506 2.26519 18.2443L0.784827 18.4862C1.32902 21.8165 2.95083 24.8762 5.40143 27.196L6.43261 26.1066ZM2.26519 18.2443C1.77395 15.2381 2.2826 12.1537 3.71312 9.46443L2.38881 8.75999C0.804112 11.7392 0.240632 15.156 0.784827 18.4862L2.26519 18.2443ZM3.65573 9.55579L4.10477 8.94357L2.89523 8.05643L2.4462 8.66864L3.65573 9.55579Z" fill="#71717A"/>
<path d="M7.78737 8.404L8.3177 8.93433L7.78737 8.404ZM2.66602 6.28267H1.91602H2.66602ZM3.5447 4.16133L3.01437 3.631L3.01437 3.631L3.5447 4.16133ZM5.66603 2.04L6.19636 1.50967C6.05571 1.36902 5.86495 1.29 5.66603 1.29C5.46712 1.29 5.27636 1.36902 5.1357 1.50967L5.66603 2.04ZM9.9087 6.28267L10.439 6.813C10.7319 6.5201 10.7319 6.04523 10.439 5.75234L9.9087 6.28267ZM7.25704 7.87367C6.83508 8.29563 6.26278 8.53269 5.66603 8.53269V10.0327C6.6606 10.0327 7.61443 9.6376 8.3177 8.93433L7.25704 7.87367ZM5.66603 8.53269C5.06929 8.53269 4.49699 8.29563 4.07503 7.87367L3.01437 8.93433C3.71764 9.6376 4.67147 10.0327 5.66603 10.0327V8.53269ZM4.07503 7.87367C3.65307 7.45171 3.41602 6.87941 3.41602 6.28267H1.91602C1.91602 7.27723 2.31111 8.23107 3.01437 8.93433L4.07503 7.87367ZM3.41602 6.28267C3.41602 5.68593 3.65307 5.11363 4.07503 4.69166L3.01437 3.631C2.31111 4.33427 1.91602 5.2881 1.91602 6.28267H3.41602ZM4.07503 4.69166L6.19636 2.57033L5.1357 1.50967L3.01437 3.631L4.07503 4.69166ZM5.1357 2.57033L9.37837 6.813L10.439 5.75234L6.19636 1.50967L5.1357 2.57033ZM9.37837 5.75234L7.25704 7.87367L8.3177 8.93433L10.439 6.813L9.37837 5.75234Z" fill="#71717A"/>
<path d="M5.84297 2.21609C5.54994 2.50884 5.54971 2.98372 5.84247 3.27675C6.13522 3.56978 6.6101 3.57 6.90313 3.27725L5.84297 2.21609ZM8.31779 1.86392C8.61082 1.57116 8.61105 1.09629 8.31829 0.803256C8.02554 0.510225 7.55066 0.510001 7.25763 0.802756L8.31779 1.86392ZM6.90313 3.27725L8.31779 1.86392L7.25763 0.802756L5.84297 2.21609L6.90313 3.27725Z" fill="#71717A"/>
<path d="M8.67157 5.04592C8.37881 5.33896 8.37904 5.81383 8.67207 6.10658C8.9651 6.39934 9.43997 6.39912 9.73273 6.10608L8.67157 5.04592ZM11.1461 4.69142C11.4388 4.39839 11.4386 3.92351 11.1456 3.63076C10.8525 3.338 10.3777 3.33823 10.0849 3.63126L11.1461 4.69142ZM9.73273 6.10608L11.1461 4.69142L10.0849 3.63126L8.67157 5.04592L9.73273 6.10608Z" fill="#71717A"/>
<path d="M12 17.3333H11.25H12ZM16 9.33334L16.6171 8.90707C16.4771 8.70435 16.2464 8.58334 16 8.58334C15.7536 8.58334 15.5229 8.70435 15.3829 8.90707L16 9.33334ZM19.25 17.3333C19.25 18.1953 18.9076 19.0219 18.2981 19.6314L19.3588 20.6921C20.2496 19.8013 20.75 18.5931 20.75 17.3333H19.25ZM18.2981 19.6314C17.6886 20.2409 16.862 20.5833 16 20.5833V22.0833C17.2598 22.0833 18.468 21.5829 19.3588 20.6921L18.2981 19.6314ZM16 20.5833C15.138 20.5833 14.3114 20.2409 13.7019 19.6314L12.6412 20.6921C13.532 21.5829 14.7402 22.0833 16 22.0833V20.5833ZM13.7019 19.6314C13.0924 19.0219 12.75 18.1953 12.75 17.3333H11.25C11.25 18.5931 11.7504 19.8013 12.6412 20.6921L13.7019 19.6314ZM12.75 17.3333C12.75 16.9513 12.939 16.3012 13.3117 15.4529C13.6708 14.6355 14.1555 13.7315 14.6487 12.8812C15.1406 12.0334 15.6335 11.2517 16.004 10.6812C16.189 10.3962 16.3431 10.1648 16.4505 10.005C16.5042 9.9251 16.5462 9.86319 16.5747 9.82153C16.5889 9.80069 16.5997 9.78493 16.6068 9.77451C16.6104 9.7693 16.6131 9.76543 16.6148 9.76293C16.6157 9.76168 16.6163 9.76078 16.6167 9.76022C16.6169 9.75994 16.617 9.75975 16.6171 9.75965C16.6171 9.7596 16.6171 9.75958 16.6171 9.75956C16.6171 9.75957 16.6171 9.7596 16 9.33334C15.3829 8.90707 15.3829 8.90715 15.3828 8.90725C15.3827 8.90731 15.3827 8.90743 15.3826 8.90755C15.3824 8.9078 15.3822 8.90814 15.3819 8.90856C15.3813 8.90941 15.3805 8.91061 15.3794 8.91215C15.3773 8.91524 15.3742 8.9197 15.3702 8.92552C15.3622 8.93715 15.3506 8.95417 15.3355 8.97629C15.3053 9.02052 15.2614 9.08518 15.2058 9.16796C15.0944 9.33348 14.936 9.57167 14.746 9.86414C14.3665 10.4484 13.8594 11.2525 13.3513 12.1285C12.8445 13.0021 12.3292 13.96 11.9383 14.8496C11.561 15.7085 11.25 16.6107 11.25 17.3333H12.75ZM16 9.33334C15.3829 9.7596 15.3829 9.75957 15.3829 9.75956C15.3829 9.75958 15.3829 9.7596 15.3829 9.75965C15.383 9.75975 15.3831 9.75994 15.3833 9.76022C15.3837 9.76078 15.3843 9.76168 15.3852 9.76293C15.3869 9.76543 15.3896 9.7693 15.3932 9.77451C15.4003 9.78493 15.4111 9.80069 15.4253 9.82153C15.4538 9.86319 15.4958 9.9251 15.5495 10.005C15.6569 10.1648 15.811 10.3962 15.996 10.6812C16.3665 11.2517 16.8594 12.0334 17.3513 12.8812C17.8445 13.7315 18.3292 14.6355 18.6883 15.4529C19.061 16.3012 19.25 16.9513 19.25 17.3333H20.75C20.75 16.6107 20.439 15.7085 20.0617 14.8496C19.6708 13.96 19.1555 13.0021 18.6487 12.1285C18.1406 11.2525 17.6335 10.4484 17.254 9.86414C17.064 9.57167 16.9056 9.33349 16.7942 9.16796C16.7386 9.08518 16.6947 9.02052 16.6645 8.97629C16.6494 8.95417 16.6378 8.93715 16.6298 8.92552C16.6258 8.91971 16.6227 8.91524 16.6206 8.91215C16.6195 8.91061 16.6187 8.90941 16.6181 8.90856C16.6178 8.90814 16.6176 8.9078 16.6174 8.90755C16.6173 8.90743 16.6173 8.90731 16.6172 8.90725C16.6171 8.90715 16.6171 8.90707 16 9.33334Z" fill="#71717A"/>
</svg>
