<svg width="32" height="32" viewBox="0 0 32 32" fill="none" xmlns="http://www.w3.org/2000/svg">
<path d="M15.9195 1.33355C19.1297 1.31599 22.257 2.35217 24.8216 4.28313C27.3862 6.21408 29.2464 8.93314 30.1169 12.0231C30.9873 15.1131 30.8199 18.4034 29.6404 21.3891C28.4608 24.3748 26.3342 26.891 23.5869 28.5517C20.8395 30.2124 17.6232 30.9258 14.4313 30.5825C11.2395 30.2393 8.2484 28.8582 5.91702 26.6513C3.58564 24.4444 2.04273 21.5335 1.52501 18.3653C1.00729 15.197 1.54336 11.9464 3.05097 9.1122M6.37305 2.74666L7.78771 1.33333M9.20247 5.576L10.6158 4.16133M7.78769 8.40399C7.22508 8.96661 6.46201 9.28268 5.66636 9.28268C4.87071 9.28268 4.10764 8.96661 3.54503 8.40399C2.98241 7.84138 2.66634 7.07831 2.66634 6.28266C2.66634 5.48701 2.98241 4.72394 3.54503 4.16133L5.66636 2.03999L9.90903 6.28266L7.78769 8.40399ZM19.9997 17.3333C19.9997 18.3942 19.5782 19.4116 18.8281 20.1618C18.078 20.9119 17.0605 21.3333 15.9997 21.3333C14.9388 21.3333 13.9214 20.9119 13.1712 20.1618C12.4211 19.4116 11.9997 18.3942 11.9997 17.3333C11.9997 15.124 15.9997 9.33333 15.9997 9.33333C15.9997 9.33333 19.9997 15.124 19.9997 17.3333Z" stroke="#474445" stroke-width="1.5" stroke-linecap="round" stroke-linejoin="round"/>
</svg>
