<svg width="32" height="32" viewBox="0 0 32 32" fill="none" xmlns="http://www.w3.org/2000/svg">
<path d="M29.3332 9.33333L18.8668 19.9187C18.6831 20.1045 18.4651 20.2519 18.2251 20.3525C17.9851 20.4531 17.7278 20.5049 17.468 20.5049C17.2082 20.5049 16.9509 20.4531 16.7109 20.3525C16.4709 20.2519 16.2529 20.1045 16.0692 19.9187L11.9454 15.748C11.7618 15.5621 11.5437 15.4147 11.3037 15.3141C11.0637 15.2135 10.8065 15.1618 10.5467 15.1618C10.2869 15.1618 10.0296 15.2135 9.78959 15.3141C9.54959 15.4147 9.33153 15.5621 9.14788 15.748L2.6665 21.4862" stroke="#71717A" stroke-width="1.5" stroke-linecap="round" stroke-linejoin="round"/>
<path d="M2.6665 2V30" stroke="#71717A" stroke-width="1.5" stroke-linecap="round" stroke-linejoin="round"/>
<path d="M29.3332 16V9.33333H22.6665" stroke="#71717A" stroke-width="1.5" stroke-linecap="round" stroke-linejoin="round"/>
</svg>
