<svg width="32" height="32" viewBox="0 0 32 32" fill="none" xmlns="http://www.w3.org/2000/svg">
<path fill-rule="evenodd" clip-rule="evenodd" d="M18 1.25C17.8011 1.25 17.6103 1.32902 17.4697 1.46967C17.329 1.61032 17.25 1.80109 17.25 2V14C17.25 14.4142 17.5858 14.75 18 14.75H30C30.1989 14.75 30.3897 14.671 30.5303 14.5303C30.671 14.3897 30.75 14.1989 30.75 14C30.75 10.6185 29.4067 7.37548 27.0156 4.98439C24.6245 2.5933 21.3815 1.25 18 1.25ZM18.75 13.25V2.77501C21.4598 2.95595 24.0226 4.11274 25.955 6.04505C27.8873 7.97736 29.044 10.5402 29.225 13.25H18.75ZM14 5.25C11.4783 5.25 9.01321 5.99777 6.91649 7.39876C4.81976 8.79975 3.18556 10.791 2.22054 13.1208C1.25552 15.4505 1.00303 18.0141 1.49499 20.4874C1.98696 22.9607 3.20127 25.2325 4.98439 27.0156C6.76751 28.7987 9.03935 30.0131 11.5126 30.505C13.9859 30.997 16.5495 30.7445 18.8792 29.7795C21.209 28.8144 23.2003 27.1802 24.6012 25.0835C26.0022 22.9868 26.75 20.5217 26.75 18C26.75 17.5858 26.4142 17.25 26 17.25H14.75V6C14.75 5.80109 14.671 5.61032 14.5303 5.46967C14.3897 5.32902 14.1989 5.25 14 5.25ZM7.74984 8.64597C9.39139 7.54912 11.2888 6.90604 13.25 6.77502V18C13.25 18.4142 13.5858 18.75 14 18.75H25.225C25.094 20.7112 24.4509 22.6086 23.354 24.2502C22.1179 26.1002 20.3609 27.5422 18.3052 28.3936C16.2495 29.2451 13.9875 29.4679 11.8052 29.0338C9.62295 28.5998 7.6184 27.5283 6.04505 25.955C4.47171 24.3816 3.40026 22.3771 2.96617 20.1948C2.53209 18.0125 2.75487 15.7505 3.60636 13.6948C4.45785 11.6391 5.89979 9.88213 7.74984 8.64597Z" fill="#767676"/>
</svg>
