<svg width="32" height="32" viewBox="0 0 32 32" fill="none" xmlns="http://www.w3.org/2000/svg">
<path fill-rule="evenodd" clip-rule="evenodd" d="M3.41651 2C3.41651 1.58579 3.08073 1.25 2.66651 1.25C2.2523 1.25 1.91651 1.58579 1.91651 2V21.4829C1.9165 21.4853 1.9165 21.4877 1.91651 21.4901V30C1.91651 30.4142 2.2523 30.75 2.66651 30.75C3.08073 30.75 3.41651 30.4142 3.41651 30V21.8239L9.64505 16.3095C9.65754 16.2985 9.66965 16.287 9.68138 16.2751C9.79577 16.1594 9.93113 16.068 10.0795 16.0058C10.2279 15.9436 10.3866 15.9118 10.5467 15.9118C10.7067 15.9118 10.8655 15.9436 11.0138 16.0058C11.1622 16.068 11.2976 16.1594 11.4119 16.2751L11.4121 16.2753L15.5358 20.4458L15.5359 20.446C15.7888 20.7018 16.0895 20.9053 16.421 21.0442C16.7527 21.1832 17.1085 21.2549 17.468 21.2549C17.8275 21.2549 18.1833 21.1832 18.515 21.0442C18.8466 20.9053 19.1474 20.7018 19.4003 20.4458L28.5832 11.1586V16C28.5832 16.4142 28.919 16.75 29.3332 16.75C29.7474 16.75 30.0832 16.4142 30.0832 16V9.33333C30.0832 8.91911 29.7474 8.58333 29.3332 8.58333H22.6665C22.2523 8.58333 21.9165 8.91911 21.9165 9.33333C21.9165 9.74754 22.2523 10.0833 22.6665 10.0833H27.5369L18.3335 19.3913L18.3333 19.3915C18.2189 19.5073 18.0835 19.5986 17.9352 19.6608C17.7868 19.723 17.6281 19.7549 17.468 19.7549C17.3079 19.7549 17.1492 19.723 17.0009 19.6608C16.8525 19.5986 16.7171 19.5073 16.6027 19.3915L16.6026 19.3913L12.4789 15.2208L12.4788 15.2207C12.2259 14.9648 11.9252 14.7614 11.5936 14.6224C11.262 14.4834 10.9062 14.4118 10.5467 14.4118C10.1871 14.4118 9.83136 14.4834 9.4997 14.6224C9.17637 14.7579 8.88239 14.9547 8.63349 15.2017L3.41651 19.8205V2Z" fill="#767676"/>
</svg>
