<svg width="32" height="32" viewBox="0 0 32 32" fill="none" xmlns="http://www.w3.org/2000/svg">
<path d="M30 14H18V2C21.1826 2 24.2348 3.26428 26.4853 5.51472C28.7357 7.76515 30 10.8174 30 14Z" stroke="#71717A" stroke-width="1.5" stroke-linecap="round" stroke-linejoin="round"/>
<path d="M14 6C11.6266 6 9.30655 6.70379 7.33316 8.02236C5.35977 9.34094 3.8217 11.2151 2.91345 13.4078C2.0052 15.6005 1.76756 18.0133 2.23058 20.3411C2.6936 22.6689 3.83649 24.8071 5.51472 26.4853C7.19295 28.1635 9.33115 29.3064 11.6589 29.7694C13.9867 30.2324 16.3995 29.9948 18.5922 29.0866C20.7849 28.1783 22.6591 26.6402 23.9776 24.6668C25.2962 22.6935 26 20.3734 26 18H14V6Z" stroke="#71717A" stroke-width="1.5" stroke-linecap="round" stroke-linejoin="round"/>
</svg>
