<svg width="32" height="32" viewBox="0 0 32 32" fill="none" xmlns="http://www.w3.org/2000/svg">
<path fill-rule="evenodd" clip-rule="evenodd" d="M1.75 2.996C1.75 2.30565 2.30964 1.746 3 1.746H11C11.6904 1.746 12.25 2.30565 12.25 2.996V10.996C12.25 11.6864 11.6904 12.246 11 12.246H3C2.30964 12.246 1.75 11.6864 1.75 10.996V2.996ZM3 0.246002C1.48122 0.246002 0.25 1.47722 0.25 2.996V10.996C0.25 12.5148 1.48122 13.746 3 13.746H11C12.5188 13.746 13.75 12.5148 13.75 10.996V2.996C13.75 1.47722 12.5188 0.246002 11 0.246002H3ZM1.75 20.996C1.75 20.3056 2.30964 19.746 3 19.746H11C11.6904 19.746 12.25 20.3056 12.25 20.996V28.996C12.25 29.6864 11.6904 30.246 11 30.246H3C2.30964 30.246 1.75 29.6864 1.75 28.996V20.996ZM3 18.246C1.48122 18.246 0.25 19.4772 0.25 20.996V28.996C0.25 30.5148 1.48122 31.746 3 31.746H11C12.5188 31.746 13.75 30.5148 13.75 28.996V20.996C13.75 19.4772 12.5188 18.246 11 18.246H3ZM21 1.746C20.3096 1.746 19.75 2.30565 19.75 2.996V10.996C19.75 11.6864 20.3096 12.246 21 12.246H29C29.6904 12.246 30.25 11.6864 30.25 10.996V2.996C30.25 2.30565 29.6904 1.746 29 1.746H21ZM18.25 2.996C18.25 1.47722 19.4812 0.246002 21 0.246002H29C30.5188 0.246002 31.75 1.47722 31.75 2.996V10.996C31.75 12.5148 30.5188 13.746 29 13.746H21C19.4812 13.746 18.25 12.5148 18.25 10.996V2.996ZM19.75 20.996C19.75 20.3056 20.3096 19.746 21 19.746H29C29.6904 19.746 30.25 20.3056 30.25 20.996V28.996C30.25 29.6864 29.6904 30.246 29 30.246H21C20.3096 30.246 19.75 29.6864 19.75 28.996V20.996ZM21 18.246C19.4812 18.246 18.25 19.4772 18.25 20.996V28.996C18.25 30.5148 19.4812 31.746 21 31.746H29C30.5188 31.746 31.75 30.5148 31.75 28.996V20.996C31.75 19.4772 30.5188 18.246 29 18.246H21Z" fill="#474445"/>
</svg>
