<svg width="32" height="32" viewBox="0 0 32 32" fill="none" xmlns="http://www.w3.org/2000/svg">
<path d="M26.0001 31L21.6441 19.1027M6 31L10.356 19.1027M24.5359 27H7.46389M9.22669 1L8.40002 2.09733C8.07002 2.53006 7.91978 3.07346 7.98064 3.61424C8.0415 4.15503 8.30876 4.65145 8.72669 5C9.14372 5.3493 9.40999 5.84597 9.47009 6.38663C9.5302 6.92729 9.37949 7.47031 9.04935 7.90267L8.83335 8.19067M16.7412 1L15.9185 2.09733C15.5884 2.52969 15.4377 3.07271 15.4978 3.61337C15.5579 4.15403 15.8241 4.6507 16.2412 5C16.6587 5.34893 16.9254 5.84553 16.9858 6.3863C17.0462 6.92707 16.8955 7.47027 16.5652 7.90267L16.3492 8.19067M23.7412 1L22.9185 2.09733C22.5884 2.52969 22.4377 3.07271 22.4978 3.61337C22.5579 4.15403 22.8241 4.6507 23.2412 5C23.6587 5.34893 23.9254 5.84553 23.9858 6.3863C24.0462 6.92707 23.8955 7.47027 23.5652 7.90267L23.3492 8.19067M23.5 12C23.7241 11.9977 23.946 12.0453 24.1495 12.1393C24.353 12.2333 24.5331 12.3714 24.6766 12.5435C24.8202 12.7157 24.9237 12.9176 24.9796 13.1347C25.0355 13.3518 25.0425 13.5786 25 13.7987C24.5491 15.8458 23.4127 17.6776 21.7788 18.9908C20.1449 20.304 18.1115 21.0198 16.0153 21.0198C13.9191 21.0198 11.8858 20.304 10.2519 18.9908C8.61798 17.6776 7.48153 15.8458 7.03066 13.7987C6.98759 13.5783 6.99424 13.3511 7.05012 13.1336C7.10599 12.9161 7.2097 12.7138 7.35366 12.5415C7.49763 12.3692 7.67823 12.2311 7.88231 12.1375C8.08639 12.0438 8.3088 11.9968 8.53332 12H23.5Z" stroke="#474445" stroke-width="1.5" stroke-linecap="round" stroke-linejoin="round"/>
</svg>
