<svg width="32" height="32" viewBox="0 0 32 32" fill="none" xmlns="http://www.w3.org/2000/svg">
<path d="M23.5003 12C23.7244 11.9977 23.9463 12.0453 24.1498 12.1393C24.3533 12.2333 24.5334 12.3714 24.6769 12.5435C24.8205 12.7157 24.924 12.9176 24.9799 13.1347C25.0358 13.3517 25.0428 13.5785 25.0003 13.7986C24.5494 15.8458 23.413 17.6776 21.7791 18.9908C20.1452 20.304 18.1118 21.0198 16.0156 21.0198C13.9194 21.0198 11.8861 20.304 10.2522 18.9908C8.61827 17.6776 7.48182 15.8458 7.03095 13.7986C6.98788 13.5783 6.99453 13.351 7.05041 13.1336C7.10629 12.9161 7.20999 12.7138 7.35396 12.5415C7.49793 12.3691 7.67853 12.2311 7.88261 12.1374C8.08668 12.0438 8.30909 11.9968 8.53362 12H23.5003Z" stroke="#474445" stroke-width="1.5" stroke-linecap="round" stroke-linejoin="round"/>
<path d="M26.0005 31L21.6445 19.1027" stroke="#474445" stroke-width="1.5" stroke-linecap="round" stroke-linejoin="round"/>
<path d="M6 31L10.356 19.1027" stroke="#474445" stroke-width="1.5" stroke-linecap="round" stroke-linejoin="round"/>
<path d="M24.5359 27H7.46387" stroke="#474445" stroke-width="1.5" stroke-linecap="round" stroke-linejoin="round"/>
<path d="M9.22707 1L8.4004 2.09733C8.0704 2.53006 7.92017 3.07346 7.98103 3.61424C8.04189 4.15503 8.30914 4.65145 8.72707 5V5C9.1441 5.3493 9.41038 5.84597 9.47048 6.38663C9.53058 6.92729 9.37988 7.47031 9.04974 7.90267L8.83374 8.19067" stroke="#474445" stroke-width="1.5" stroke-linecap="round" stroke-linejoin="round"/>
<path d="M16.7407 1L15.9181 2.09733C15.5879 2.52969 15.4372 3.07271 15.4973 3.61337C15.5574 4.15403 15.8237 4.6507 16.2407 5V5C16.6582 5.34893 16.925 5.84553 16.9854 6.3863C17.0457 6.92707 16.895 7.47027 16.5647 7.90267L16.3487 8.19067" stroke="#474445" stroke-width="1.5" stroke-linecap="round" stroke-linejoin="round"/>
<path d="M23.7407 1L22.9181 2.09733C22.5879 2.52969 22.4372 3.07271 22.4973 3.61337C22.5574 4.15403 22.8237 4.6507 23.2407 5V5C23.6582 5.34893 23.925 5.84553 23.9854 6.3863C24.0457 6.92707 23.895 7.47027 23.5647 7.90267L23.3487 8.19067" stroke="#474445" stroke-width="1.5" stroke-linecap="round" stroke-linejoin="round"/>
</svg>
