<svg width="32" height="32" viewBox="0 0 32 32" fill="none" xmlns="http://www.w3.org/2000/svg">
<path d="M23.5003 12V12.75L23.5079 12.7499L23.5003 12ZM25.0003 13.7986L25.7327 13.96C25.7341 13.9536 25.7354 13.9472 25.7367 13.9409L25.0003 13.7986ZM16.0156 21.0198V20.2698V21.0198ZM7.03095 13.7986L6.29487 13.9425C6.29602 13.9483 6.29723 13.9541 6.29851 13.96L7.03095 13.7986ZM8.53362 12L8.52301 12.75H8.53362V12ZM23.5079 12.7499C23.6209 12.7488 23.7327 12.7728 23.8353 12.8201L24.4643 11.4584C24.1599 11.3178 23.828 11.2466 23.4926 11.25L23.5079 12.7499ZM23.8353 12.8201C23.9378 12.8675 24.0286 12.9371 24.1009 13.0239L25.2529 12.0632C25.0381 11.8056 24.7688 11.599 24.4643 11.4584L23.8353 12.8201ZM24.1009 13.0239C24.1733 13.1106 24.2254 13.2124 24.2536 13.3218L25.7062 12.9476C25.6225 12.6228 25.4677 12.3207 25.2529 12.0632L24.1009 13.0239ZM24.2536 13.3218C24.2818 13.4312 24.2853 13.5455 24.2639 13.6564L25.7367 13.9409C25.8003 13.6116 25.7899 13.2723 25.7062 12.9476L24.2536 13.3218ZM24.2678 13.6373C23.8537 15.5176 22.8099 17.2 21.3092 18.4062L22.2489 19.5754C24.016 18.1551 25.2451 16.174 25.7327 13.96L24.2678 13.6373ZM21.3092 18.4062C19.8085 19.6123 17.9409 20.2698 16.0156 20.2698V21.7698C18.2827 21.7698 20.4818 20.9956 22.2489 19.5754L21.3092 18.4062ZM16.0156 20.2698C14.0903 20.2698 12.2227 19.6123 10.722 18.4062L9.78232 19.5754C11.5494 20.9956 13.7485 21.7698 16.0156 21.7698V20.2698ZM10.722 18.4062C9.22132 17.2 8.17751 15.5176 7.7634 13.6373L6.29851 13.96C6.78613 16.174 8.01523 18.1551 9.78232 19.5754L10.722 18.4062ZM7.76703 13.6548C7.74536 13.5439 7.7487 13.4296 7.77682 13.3202L6.324 12.9469C6.24036 13.2725 6.23041 13.6126 6.29487 13.9425L7.76703 13.6548ZM7.77682 13.3202C7.80493 13.2108 7.8571 13.109 7.92953 13.0223L6.77839 12.0606C6.56288 12.3186 6.40765 12.6214 6.324 12.9469L7.77682 13.3202ZM7.92953 13.0223C8.00196 12.9356 8.09282 12.8662 8.19549 12.819L7.56972 11.4558C7.26424 11.596 6.99389 11.8027 6.77839 12.0606L7.92953 13.0223ZM8.19549 12.819C8.29816 12.7719 8.41005 12.7483 8.52301 12.7499L8.54423 11.25C8.20813 11.2453 7.87521 11.3156 7.56972 11.4558L8.19549 12.819ZM8.53362 12.75H23.5003V11.25H8.53362V12.75Z" fill="#71717A"/>
<path d="M25.2963 31.2579C25.4387 31.6468 25.8694 31.8467 26.2584 31.7043C26.6474 31.5619 26.8472 31.1311 26.7048 30.7421L25.2963 31.2579ZM22.3488 18.8448C22.2064 18.4558 21.7756 18.256 21.3867 18.3984C20.9977 18.5408 20.7978 18.9716 20.9403 19.3605L22.3488 18.8448ZM26.7048 30.7421L22.3488 18.8448L20.9403 19.3605L25.2963 31.2579L26.7048 30.7421Z" fill="#71717A"/>
<path d="M5.29572 30.7421C5.15331 31.1311 5.35318 31.5619 5.74214 31.7043C6.1311 31.8467 6.56187 31.6468 6.70428 31.2579L5.29572 30.7421ZM11.0603 19.3605C11.2027 18.9716 11.0028 18.5408 10.6139 18.3984C10.2249 18.256 9.79413 18.4558 9.65172 18.8448L11.0603 19.3605ZM6.70428 31.2579L11.0603 19.3605L9.65172 18.8448L5.29572 30.7421L6.70428 31.2579Z" fill="#71717A"/>
<path d="M24.5359 27.75C24.9501 27.75 25.2859 27.4142 25.2859 27C25.2859 26.5858 24.9501 26.25 24.5359 26.25V27.75ZM7.46387 26.25C7.04965 26.25 6.71387 26.5858 6.71387 27C6.71387 27.4142 7.04965 27.75 7.46387 27.75V26.25ZM24.5359 26.25H7.46387V27.75H24.5359V26.25Z" fill="#71717A"/>
<path d="M8.4004 2.09731L8.99678 2.55212L8.99944 2.54859L8.4004 2.09731ZM8.72707 4.99998L9.20865 4.42502L9.20744 4.424L8.72707 4.99998ZM9.04974 7.90265L8.45362 7.44746L8.44974 7.45265L9.04974 7.90265ZM8.23374 7.74065C7.98521 8.07202 8.05236 8.54212 8.38374 8.79065C8.71511 9.03917 9.18521 8.97202 9.43374 8.64065L8.23374 7.74065ZM9.81276 1.46898C10.062 1.13814 9.99584 0.667897 9.665 0.418662C9.33416 0.169427 8.86392 0.235581 8.61468 0.56642L9.81276 1.46898ZM7.80403 1.64251C7.35684 2.2289 7.15326 2.96528 7.23573 3.6981L8.72632 3.53035C8.68708 3.1816 8.78396 2.83117 8.99677 2.55211L7.80403 1.64251ZM7.23573 3.6981C7.31821 4.43092 7.68037 5.10363 8.2467 5.57596L9.20744 4.424C8.93792 4.19923 8.76557 3.87909 8.72632 3.53035L7.23573 3.6981ZM8.24549 5.57494C8.51452 5.80028 8.6863 6.12068 8.72507 6.46947L10.2159 6.30375C10.1345 5.57121 9.77368 4.89828 9.20865 4.42502L8.24549 5.57494ZM8.72507 6.46947C8.76384 6.81826 8.66662 7.16856 8.45364 7.44748L9.64583 8.35781C10.0931 7.77201 10.2973 7.03628 10.2159 6.30375L8.72507 6.46947ZM8.44974 7.45265L8.23374 7.74065L9.43374 8.64065L9.64974 8.35265L8.44974 7.45265ZM8.61468 0.56642L7.80137 1.64603L8.99944 2.54859L9.81276 1.46898L8.61468 0.56642Z" fill="#71717A"/>
<path d="M15.9181 2.09732L16.5142 2.5525L16.5182 2.5472L15.9181 2.09732ZM16.2407 4.99998L15.7591 5.57494L15.7598 5.57548L16.2407 4.99998ZM16.5647 7.90265L15.9687 7.44735L15.9647 7.45265L16.5647 7.90265ZM15.7487 7.74065C15.5002 8.07202 15.5674 8.54212 15.8987 8.79065C16.2301 9.03918 16.7002 8.97202 16.9487 8.64065L15.7487 7.74065ZM17.3282 1.46667C17.5767 1.13525 17.5094 0.665161 17.178 0.416697C16.8466 0.168233 16.3765 0.235482 16.128 0.566902L17.3282 1.46667ZM15.322 1.64215C14.8747 2.22795 14.6705 2.96368 14.7519 3.69622L16.2427 3.53049C16.204 3.18171 16.3012 2.8314 16.5142 2.55248L15.322 1.64215ZM14.7519 3.69622C14.8333 4.42875 15.1941 5.10168 15.7591 5.57494L16.7223 4.42502C16.4533 4.19968 16.2815 3.87928 16.2427 3.53049L14.7519 3.69622ZM15.7598 5.57548C16.029 5.80049 16.2011 6.12075 16.24 6.46948L17.7307 6.30308C17.6489 5.57028 17.2875 4.89732 16.7217 4.42449L15.7598 5.57548ZM16.24 6.46948C16.2789 6.81821 16.1817 7.16852 15.9687 7.44737L17.1607 8.35793C17.6083 7.77198 17.8125 7.03589 17.7307 6.30308L16.24 6.46948ZM15.9647 7.45265L15.7487 7.74065L16.9487 8.64065L17.1647 8.35265L15.9647 7.45265ZM16.128 0.566902L15.318 1.64743L16.5182 2.5472L17.3282 1.46667L16.128 0.566902Z" fill="#71717A"/>
<path d="M22.9181 2.09735L23.5142 2.55254L23.5181 2.54724L22.9181 2.09735ZM23.2407 5.00002L22.7591 5.57498L22.7598 5.57551L23.2407 5.00002ZM23.5647 7.90269L22.9687 7.44738L22.9647 7.45268L23.5647 7.90269ZM22.7487 7.74068C22.5002 8.07205 22.5674 8.54215 22.8987 8.79068C23.2301 9.03921 23.7002 8.97206 23.9487 8.64069L22.7487 7.74068ZM24.3235 1.47296C24.572 1.14154 24.5047 0.671448 24.1733 0.422984C23.8419 0.17452 23.3718 0.241768 23.1234 0.573187L24.3235 1.47296ZM22.322 1.64219C21.8747 2.22799 21.6705 2.96371 21.7519 3.69625L23.2427 3.53053C23.204 3.18174 23.3012 2.83144 23.5142 2.55252L22.322 1.64219ZM21.7519 3.69625C21.8333 4.42879 22.1941 5.10171 22.7591 5.57498L23.7223 4.42506C23.4533 4.19972 23.2815 3.87932 23.2427 3.53053L21.7519 3.69625ZM22.7598 5.57551C23.029 5.80053 23.2011 6.12078 23.24 6.46952L24.7307 6.30312C24.6489 5.57032 24.2875 4.89736 23.7217 4.42453L22.7598 5.57551ZM23.24 6.46952C23.2789 6.81825 23.1817 7.16855 22.9687 7.4474L24.1607 8.35797C24.6083 7.77202 24.8125 7.03592 24.7307 6.30312L23.24 6.46952ZM22.9647 7.45268L22.7487 7.74068L23.9487 8.64069L24.1647 8.35269L22.9647 7.45268ZM23.1234 0.573187L22.318 1.64747L23.5181 2.54724L24.3235 1.47296L23.1234 0.573187Z" fill="#71717A"/>
</svg>
