<svg width="32" height="32" viewBox="0 0 32 32" fill="none" xmlns="http://www.w3.org/2000/svg">
<path fill-rule="evenodd" clip-rule="evenodd" d="M6.07698 0.254932C6.55783 0.225042 7.03808 0.321998 7.46967 0.536092C7.89429 0.74673 8.25714 1.06348 8.52314 1.45548L9.67571 2.98642L10.6237 2.36239C10.6823 2.32229 10.7386 2.28127 10.8029 2.23438L10.8076 2.23096C10.8694 2.18594 10.9414 2.13342 11.0158 2.08314C11.1725 1.97733 11.3666 1.86255 11.6108 1.78395C12.0251 1.65062 12.465 1.61749 12.8945 1.68729C13.324 1.75708 13.7309 1.92781 14.0815 2.18544C14.4322 2.44306 14.7168 2.78023 14.9118 3.16923L14.9122 3.16995L17.6708 8.68728C17.7871 8.91977 17.7746 9.19588 17.638 9.41699C17.5013 9.6381 17.2599 9.77269 17 9.77269H1C0.740071 9.77269 0.498672 9.6381 0.362017 9.41699C0.225362 9.19588 0.212939 8.91977 0.329184 8.68728L3.78782 1.77L3.78785 1.76995C4.00327 1.33904 4.32811 0.97229 4.72984 0.706406C5.13159 0.44051 5.59614 0.284823 6.07698 0.254932ZM6.80309 1.87984C6.60691 1.78253 6.38861 1.73846 6.17005 1.75204C5.95148 1.76563 5.74032 1.8364 5.55771 1.95726C5.3751 2.07812 5.22744 2.24483 5.12952 2.44071L5.12949 2.44077L2.21353 8.27269H15.7865L13.5709 3.84148L13.5708 3.84124C13.4821 3.66452 13.3528 3.51135 13.1935 3.3943C13.0341 3.2772 12.8492 3.19959 12.6539 3.16787C12.4587 3.13614 12.2587 3.1512 12.0704 3.2118C12.0134 3.23017 11.9513 3.26138 11.8553 3.3262C11.8054 3.35995 11.7537 3.39751 11.6868 3.44632L11.6836 3.44866L11.6835 3.4487C11.6205 3.49465 11.5454 3.54943 11.4638 3.60508L11.4538 3.61189L11.4537 3.61181L9.91239 4.62645C9.58176 4.8441 9.13891 4.76733 8.90083 4.45109L7.31283 2.34178C7.30417 2.33028 7.29584 2.31853 7.28785 2.30654C7.16643 2.1243 6.99926 1.97716 6.80309 1.87984ZM27 3.25C27.3154 3.25 27.5971 3.4473 27.7048 3.74369L31.7048 14.7437C31.7885 14.9736 31.7547 15.2299 31.6143 15.4303C31.4739 15.6307 31.2447 15.75 31 15.75H27.75V19C27.75 19.4142 27.4142 19.75 27 19.75C26.5858 19.75 26.25 19.4142 26.25 19V15.75H23C22.7553 15.75 22.5261 15.6307 22.3857 15.4303C22.2453 15.2299 22.2115 14.9736 22.2952 14.7437L26.2952 3.74369C26.4029 3.4473 26.6846 3.25 27 3.25ZM27 14.25H29.9292L27 6.19463L24.0708 14.25H27ZM5 15.25C5.31538 15.25 5.59707 15.4473 5.70485 15.7437L9.70485 26.7437C9.78846 26.9736 9.75467 27.2299 9.61431 27.4303C9.47395 27.6307 9.24466 27.75 9 27.75H5.75V31C5.75 31.4142 5.41422 31.75 5 31.75C4.58579 31.75 4.25 31.4142 4.25 31V27.75H1C0.755345 27.75 0.526064 27.6307 0.385704 27.4303C0.245344 27.2299 0.211549 26.9736 0.29516 26.7437L4.29516 15.7437C4.40294 15.4473 4.68463 15.25 5 15.25ZM5 26.25H7.92923L5 18.1946L2.07078 26.25H5ZM25.4584 25.7478C25.745 25.4487 26.2197 25.4385 26.5188 25.7251C27.399 26.5683 28.0498 27.6219 28.4099 28.7865C28.5322 29.1822 28.3106 29.6022 27.9149 29.7245C27.5191 29.8469 27.0991 29.6253 26.9768 29.2295C26.692 28.3085 26.1773 27.4752 25.4812 26.8082C25.1821 26.5217 25.1719 26.0469 25.4584 25.7478ZM20.1762 23.0683C19.7736 22.971 19.3683 23.2186 19.271 23.6212C19.1737 24.0238 19.4212 24.4291 19.8238 24.5264C20.1615 24.608 20.5114 24.6796 20.8763 24.74L20.8787 24.7404C21.5199 24.8442 22.1513 25.0018 22.7661 25.2113C23.1582 25.3449 23.5843 25.1354 23.7179 24.7433C23.8515 24.3512 23.642 23.9251 23.2499 23.7915C22.556 23.555 21.8435 23.3772 21.1198 23.2599C20.7918 23.2056 20.4782 23.1413 20.1762 23.0683ZM13.9299 18.8858C14.3001 18.6998 14.7509 18.8492 14.9368 19.2193C15.3254 19.9928 15.8558 20.6864 16.5004 21.2641C16.8089 21.5405 16.8349 22.0147 16.5585 22.3231C16.2821 22.6316 15.8079 22.6576 15.4994 22.3812C14.7149 21.6782 14.0693 20.834 13.5964 19.8926C13.4105 19.5225 13.5598 19.0717 13.9299 18.8858ZM13.7501 13.0025C13.7515 12.5882 13.4168 12.2514 13.0026 12.25C12.5884 12.2486 12.2515 12.5833 12.2501 12.9975C12.2475 13.8033 12.2875 14.6086 12.3701 15.4102C12.4125 15.8222 12.7809 16.1218 13.193 16.0794C13.605 16.037 13.9046 15.6685 13.8622 15.2565C13.7851 14.5077 13.7477 13.7553 13.7501 13.0025Z" fill="#767676"/>
</svg>
