<svg width="33" height="32" viewBox="0 0 33 32" fill="none" xmlns="http://www.w3.org/2000/svg">
<path d="M4.39339 5.38951C4.09507 5.67688 4.08619 6.15167 4.37356 6.44999C4.66093 6.74831 5.13572 6.75719 5.43403 6.46982L4.39339 5.38951ZM1.49367 17.7085C1.44026 17.2977 1.06398 17.008 0.653228 17.0614C0.242473 17.1148 -0.0472138 17.4911 0.00619553 17.9019L1.49367 17.7085ZM18.0668 3.2063C25.1352 5.10028 29.3299 12.3657 27.4359 19.4342L28.8848 19.8224C30.9932 11.9538 26.3236 3.8658 18.455 1.75741L18.0668 3.2063ZM27.4359 19.4342C25.5419 26.5026 18.2765 30.6973 11.208 28.8033L10.8198 30.2522C18.6884 32.3606 26.7764 27.691 28.8848 19.8224L27.4359 19.4342ZM5.43403 6.46982C8.67113 3.35157 13.412 1.95907 18.0668 3.2063L18.455 1.75741C13.2715 0.368497 7.99347 1.92161 4.39339 5.38951L5.43403 6.46982ZM11.208 28.8033C5.86713 27.3722 2.1653 22.8737 1.49367 17.7085L0.00619553 17.9019C0.753435 23.6487 4.87186 28.6585 10.8198 30.2522L11.208 28.8033Z" fill="#767676"/>
<path d="M5.14551 2.5L4.64551 6L7.64551 7" stroke="#767676" stroke-width="1.5" stroke-linecap="round" stroke-linejoin="round"/>
<path d="M14.1455 9V18L20.6455 15.5" stroke="#767676" stroke-width="1.5" stroke-linecap="round" stroke-linejoin="round"/>
</svg>
