<svg width="32" height="32" viewBox="0 0 32 32" fill="none" xmlns="http://www.w3.org/2000/svg">
<g clip-path="url(#clip0_3608_3107)">
<path d="M4.24788 5.38951C3.94957 5.67688 3.94069 6.15167 4.22805 6.44999C4.51542 6.74831 4.99021 6.75719 5.28853 6.46982L4.24788 5.38951ZM1.34817 17.7085C1.29476 17.2977 0.918476 17.008 0.507721 17.0614C0.0969647 17.1148 -0.192722 17.4911 -0.139312 17.9019L1.34817 17.7085ZM17.9212 3.2063C24.9897 5.10028 29.1844 12.3657 27.2904 19.4342L28.7393 19.8224C30.8477 11.9538 26.1781 3.8658 18.3095 1.75741L17.9212 3.2063ZM27.2904 19.4342C25.3964 26.5026 18.131 30.6973 11.0625 28.8033L10.6743 30.2522C18.5429 32.3606 26.6309 27.691 28.7393 19.8224L27.2904 19.4342ZM5.28853 6.46982C8.52563 3.35157 13.2665 1.95907 17.9212 3.2063L18.3095 1.75741C13.126 0.368497 7.84797 1.92161 4.24788 5.38951L5.28853 6.46982ZM11.0625 28.8033C5.72162 27.3722 2.01979 22.8737 1.34817 17.7085L-0.139312 17.9019C0.607927 23.6487 4.72635 28.6585 10.6743 30.2522L11.0625 28.8033Z" fill="#767676"/>
<path d="M5 2.5L4.5 6L7.5 7" stroke="#767676" stroke-width="1.5" stroke-linecap="round" stroke-linejoin="round"/>
<path d="M14 9V18L20.5 15.5" stroke="#767676" stroke-width="1.5" stroke-linecap="round" stroke-linejoin="round"/>
</g>
<defs>
<clipPath id="clip0_3608_3107">
<rect width="32" height="32" fill="white"/>
</clipPath>
</defs>
</svg>
