<svg width="32" height="32" viewBox="0 0 32 32" fill="none" xmlns="http://www.w3.org/2000/svg">
<path d="M22 31H25C25.5304 31 26.0391 30.7893 26.4142 30.4142C26.7893 30.0391 27 29.5304 27 29V17" stroke="#71717A" stroke-width="1.5" stroke-linecap="round" stroke-linejoin="round"/>
<path d="M10 31H7C6.46957 31 5.96086 30.7893 5.58579 30.4142C5.21071 30.0391 5 29.5304 5 29V17" stroke="#71717A" stroke-width="1.5" stroke-linecap="round" stroke-linejoin="round"/>
<path d="M1 16.172L14.5853 2.58534C14.7711 2.39949 14.9916 2.25205 15.2343 2.15146C15.4771 2.05087 15.7372 1.9991 16 1.9991C16.2628 1.9991 16.5229 2.05087 16.7657 2.15146C17.0084 2.25205 17.2289 2.39949 17.4147 2.58534L31 16.1707" stroke="#71717A" stroke-width="1.5" stroke-linecap="round" stroke-linejoin="round"/>
<path d="M16 17C17.6569 17 19 15.6569 19 14C19 12.3431 17.6569 11 16 11C14.3431 11 13 12.3431 13 14C13 15.6569 14.3431 17 16 17Z" stroke="#71717A" stroke-width="1.5" stroke-linecap="round" stroke-linejoin="round"/>
<path d="M16 19C14.6739 19 13.4021 19.5268 12.4645 20.4645C11.5268 21.4021 11 22.6739 11 24V25H13L14 31H18L19 25H21V24C21 22.6739 20.4732 21.4021 19.5355 20.4645C18.5979 19.5268 17.3261 19 16 19Z" stroke="#71717A" stroke-width="1.5" stroke-linecap="round" stroke-linejoin="round"/>
</svg>
