<svg width="32" height="32" viewBox="0 0 32 32" fill="none" xmlns="http://www.w3.org/2000/svg">
<path fill-rule="evenodd" clip-rule="evenodd" d="M10.2974 1.60477C10.4634 1.22527 10.9056 1.0522 11.2851 1.21821L24.2609 6.89425V2.80134C24.2609 2.38712 24.5967 2.05134 25.0109 2.05134H29.0042C29.4184 2.05134 29.7542 2.38712 29.7542 2.80134V9.29722L31.2958 9.97154C31.6753 10.1375 31.8483 10.5798 31.6823 10.9593C31.5163 11.3387 31.0741 11.5118 30.6946 11.3458L29.7538 10.9342V29.3447H31.0003C31.4145 29.3447 31.7503 29.6805 31.7503 30.0947C31.7503 30.5089 31.4145 30.8447 31.0003 30.8447H1.05093C0.636712 30.8447 0.300926 30.5089 0.300926 30.0947C0.300926 29.6805 0.636712 29.3447 1.05093 29.3447H2.298V12.6999L1.14726 12.9301C0.741097 13.0114 0.345967 12.748 0.264715 12.3418C0.183464 11.9356 0.44686 11.5405 0.853026 11.4593L2.8632 11.0571C2.87565 11.054 2.88823 11.0511 2.90095 11.0486L12.2804 9.17318V3.29083L10.6839 2.59248C10.3045 2.42647 10.1314 1.98426 10.2974 1.60477ZM28.2542 8.64107V3.55134H25.7609V7.5504L28.2542 8.64107ZM3.798 29.3447V12.3998L12.2804 10.703V29.3447H3.798ZM13.7807 29.3447V9.80975C13.7811 9.79341 13.781 9.77697 13.7804 9.76047V3.94799L28.2538 10.2786V29.3447H25.7622L25.7746 21.4398V21.4387C25.7746 20.7093 25.4848 20.0098 24.9691 19.4941C24.4534 18.9784 23.7539 18.6887 23.0246 18.6887H19.0246C18.2952 18.6887 17.5957 18.9784 17.08 19.4941C16.5643 20.0098 16.2746 20.7093 16.2746 21.4387V29.3447H13.7807ZM17.7746 29.3447H24.2622L24.2746 21.4387V21.4382C24.2744 21.1068 24.1427 20.7891 23.9084 20.5548C23.674 20.3204 23.3561 20.1887 23.0246 20.1887H19.0246C18.693 20.1887 18.3751 20.3204 18.1407 20.5548C17.9063 20.7892 17.7746 21.1071 17.7746 21.4387V29.3447ZM17.0001 9.25001C16.5859 9.25001 16.2501 9.58579 16.2501 10C16.2501 10.4142 16.5859 10.75 17.0001 10.75H19.0001C19.4144 10.75 19.7501 10.4142 19.7501 10C19.7501 9.58579 19.4144 9.25001 19.0001 9.25001H17.0001Z" fill="#474445"/>
</svg>
