<svg width="32" height="32" viewBox="0 0 32 32" fill="none" xmlns="http://www.w3.org/2000/svg">
<path d="M2.11133 14.0632L14.5854 1.91955C14.7711 1.7337 14.9916 1.58627 15.2344 1.48568C15.4771 1.38509 15.7373 1.33331 16 1.33331C16.2628 1.33331 16.523 1.38509 16.7657 1.48568C17.0084 1.58627 17.229 1.7337 17.4147 1.91955L29.8887 14.0632" stroke="#71717A" stroke-width="1.5" stroke-linecap="round" stroke-linejoin="round"/>
<path d="M22 6.17157V4.17157H26.6667V10.4429" stroke="#71717A" stroke-width="1.5" stroke-linecap="round" stroke-linejoin="round"/>
<path d="M4 12.6667V24.092V28.8736C4 29.3491 4.22987 29.8052 4.63904 30.1415C5.04821 30.4778 5.60316 30.6667 6.18182 30.6667H25.8182C26.3968 30.6667 26.9518 30.4778 27.361 30.1415C27.7701 29.8052 28 29.3491 28 28.8736V12.6667" stroke="#71717A" stroke-width="1.5" stroke-linecap="round" stroke-linejoin="round"/>
<path d="M20 30.6667V24C20 21.7909 18.2091 20 16 20V20C13.7909 20 12 21.7909 12 24V30.6667" stroke="#71717A" stroke-width="1.5"/>
<path d="M12 13.9167C11.5858 13.9167 11.25 14.2525 11.25 14.6667C11.25 15.0809 11.5858 15.4167 12 15.4167V13.9167ZM20 15.4167C20.4142 15.4167 20.75 15.0809 20.75 14.6667C20.75 14.2525 20.4142 13.9167 20 13.9167V15.4167ZM12 15.4167H20V13.9167H12V15.4167Z" fill="#71717A"/>
<path d="M12 9.91669C11.5858 9.91669 11.25 10.2525 11.25 10.6667C11.25 11.0809 11.5858 11.4167 12 11.4167V9.91669ZM20 11.4167C20.4142 11.4167 20.75 11.0809 20.75 10.6667C20.75 10.2525 20.4142 9.91669 20 9.91669V11.4167ZM12 11.4167H20V9.91669H12V11.4167Z" fill="#71717A"/>
</svg>
