<svg width="32" height="32" viewBox="0 0 32 32" fill="none" xmlns="http://www.w3.org/2000/svg">
<path fill-rule="evenodd" clip-rule="evenodd" d="M15.5215 2.84433C15.6732 2.78146 15.8358 2.7491 16 2.7491C16.1642 2.7491 16.3268 2.78146 16.4785 2.84433C16.6302 2.9072 16.7681 2.99934 16.8842 3.1155L16.8843 3.11564L30.4696 16.7023C30.7625 16.9952 31.2374 16.9952 31.5303 16.7024C31.8232 16.4095 31.8232 15.9346 31.5304 15.6417L17.9452 2.05518C17.6898 1.79963 17.3865 1.59691 17.0528 1.4586C16.719 1.32029 16.3613 1.2491 16 1.2491C15.6387 1.2491 15.281 1.32029 14.9472 1.4586C14.6135 1.59688 14.3103 1.79956 14.055 2.05504L14.0548 2.05518L0.469644 15.6417C0.176765 15.9346 0.176788 16.4095 0.469696 16.7024C0.762604 16.9952 1.23748 16.9952 1.53036 16.7023L15.1157 3.11564L15.1158 3.1155C15.2319 2.99934 15.3698 2.9072 15.5215 2.84433ZM5 16.25C5.41421 16.25 5.75 16.5858 5.75 17V29C5.75 29.3315 5.8817 29.6495 6.11612 29.8839C6.35054 30.1183 6.66848 30.25 7 30.25H10C10.4142 30.25 10.75 30.5858 10.75 31C10.75 31.4142 10.4142 31.75 10 31.75H7C6.27065 31.75 5.57118 31.4603 5.05546 30.9445C4.53973 30.4288 4.25 29.7293 4.25 29V17C4.25 16.5858 4.58579 16.25 5 16.25ZM27 16.25C27.4142 16.25 27.75 16.5858 27.75 17V29C27.75 29.7293 27.4603 30.4288 26.9445 30.9445C26.4288 31.4603 25.7293 31.75 25 31.75H22C21.5858 31.75 21.25 31.4142 21.25 31C21.25 30.5858 21.5858 30.25 22 30.25H25C25.3315 30.25 25.6495 30.1183 25.8839 29.8839C26.1183 29.6495 26.25 29.3315 26.25 29V17C26.25 16.5858 26.5858 16.25 27 16.25ZM16 11.75C14.7574 11.75 13.75 12.7574 13.75 14C13.75 15.2426 14.7574 16.25 16 16.25C17.2426 16.25 18.25 15.2426 18.25 14C18.25 12.7574 17.2426 11.75 16 11.75ZM12.25 14C12.25 11.9289 13.9289 10.25 16 10.25C18.0711 10.25 19.75 11.9289 19.75 14C19.75 16.0711 18.0711 17.75 16 17.75C13.9289 17.75 12.25 16.0711 12.25 14ZM16 18.25C14.475 18.25 13.0125 18.8558 11.9341 19.9341C10.8558 21.0125 10.25 22.475 10.25 24V25C10.25 25.4142 10.5858 25.75 11 25.75H12.3647L13.2602 31.1233C13.3205 31.4849 13.6334 31.75 14 31.75H18C18.3666 31.75 18.6795 31.4849 18.7398 31.1233L19.6353 25.75H21C21.4142 25.75 21.75 25.4142 21.75 25V24C21.75 22.475 21.1442 21.0125 20.0659 19.9341C18.9875 18.8558 17.525 18.25 16 18.25ZM12.9948 20.9948C13.7918 20.1978 14.8728 19.75 16 19.75C17.1272 19.75 18.2082 20.1978 19.0052 20.9948C19.8022 21.7918 20.25 22.8728 20.25 24V24.25H19C18.6334 24.25 18.3205 24.5151 18.2602 24.8767L17.3647 30.25H14.6353L13.7398 24.8767C13.6795 24.5151 13.3666 24.25 13 24.25H11.75V24C11.75 22.8728 12.1978 21.7918 12.9948 20.9948Z" fill="#474445"/>
</svg>
