<svg width="32" height="32" viewBox="0 0 32 32" fill="none" xmlns="http://www.w3.org/2000/svg">
<path d="M29.9694 29C29.9694 29.5304 29.7587 30.0391 29.3836 30.4142C29.0086 30.7893 28.4999 31 27.9694 31H4.03076C3.50033 31 2.99162 30.7893 2.61655 30.4142C2.24148 30.0391 2.03076 29.5304 2.03076 29V3C2.03076 2.46957 2.24148 1.96086 2.61655 1.58579C2.99162 1.21071 3.50033 1 4.03076 1H24.0308C24.5524 1.00005 25.0533 1.20387 25.4268 1.568L29.3668 5.412C29.5577 5.59842 29.7093 5.82116 29.8128 6.06709C29.9163 6.31302 29.9696 6.57718 29.9694 6.844V29Z" stroke="#71717A" stroke-width="1.5" stroke-linecap="round" stroke-linejoin="round"/>
<path d="M11.0308 13C12.6876 13 14.0308 11.6569 14.0308 10C14.0308 8.34315 12.6876 7 11.0308 7C9.37391 7 8.03076 8.34315 8.03076 10C8.03076 11.6569 9.37391 13 11.0308 13Z" stroke="#71717A" stroke-width="1.5" stroke-linecap="round" stroke-linejoin="round"/>
<path d="M25.3332 25.3333L19.8504 16.416C19.7289 16.2331 19.5644 16.0826 19.3714 15.9778C19.1784 15.8729 18.9628 15.8168 18.7431 15.8143C18.5235 15.8118 18.3066 15.863 18.1113 15.9634C17.916 16.0639 17.7481 16.2106 17.6224 16.3907L14.0344 21.5173L11.8104 19.7333C11.6645 19.6163 11.4957 19.531 11.315 19.4828C11.1342 19.4346 10.9454 19.4245 10.7605 19.4532C10.5757 19.4819 10.3988 19.5488 10.2412 19.6496C10.0836 19.7504 9.94871 19.8829 9.8451 20.0387L6.6665 25.3333" stroke="#71717A" stroke-width="1.5" stroke-linecap="round" stroke-linejoin="round"/>
</svg>
