<svg width="32" height="32" viewBox="0 0 32 32" fill="none" xmlns="http://www.w3.org/2000/svg">
<path fill-rule="evenodd" clip-rule="evenodd" d="M4.03076 1.75C3.69924 1.75 3.3813 1.8817 3.14688 2.11612C2.91246 2.35054 2.78076 2.66848 2.78076 3V29C2.78076 29.3315 2.91246 29.6495 3.14688 29.8839C3.3813 30.1183 3.69924 30.25 4.03076 30.25H27.9694C28.3009 30.25 28.6189 30.1183 28.8533 29.8839C29.0877 29.6495 29.2194 29.3315 29.2194 29V6.844V6.84359C29.2195 6.67682 29.1862 6.51172 29.1216 6.35802C29.0569 6.20442 28.9622 6.06529 28.843 5.94883L4.03076 1.75ZM4.03076 1.75H24.0307H24.0308C24.3567 1.75005 24.6698 1.87744 24.9032 2.105L28.8428 5.94859L4.03076 1.75ZM2.08622 1.05546C2.60194 0.539731 3.30142 0.25 4.03076 0.25H24.0308H24.0308C24.748 0.250072 25.4368 0.530326 25.9503 1.031L25.9505 1.03117L29.8905 4.87517L29.8908 4.87541C30.1532 5.13174 30.3618 5.438 30.5041 5.77616C30.6464 6.11432 30.7196 6.47753 30.7194 6.84441L29.9694 6.844H30.7194V6.84441V29C30.7194 29.7293 30.4297 30.4288 29.914 30.9445C29.3982 31.4603 28.6988 31.75 27.9694 31.75H4.03076C3.30142 31.75 2.60194 31.4603 2.08622 30.9445C1.57049 30.4288 1.28076 29.7293 1.28076 29V3C1.28076 2.27065 1.57049 1.57118 2.08622 1.05546ZM11.0308 7.75C9.78812 7.75 8.78076 8.75736 8.78076 10C8.78076 11.2426 9.78812 12.25 11.0308 12.25C12.2734 12.25 13.2808 11.2426 13.2808 10C13.2808 8.75736 12.2734 7.75 11.0308 7.75ZM7.28076 10C7.28076 7.92893 8.95969 6.25 11.0308 6.25C13.1018 6.25 14.7808 7.92893 14.7808 10C14.7808 12.0711 13.1018 13.75 11.0308 13.75C8.95969 13.75 7.28076 12.0711 7.28076 10ZM18.7517 15.0643C18.4098 15.0604 18.0723 15.1401 17.7683 15.2965C17.4646 15.4527 17.2036 15.6807 17.008 15.9606L17.0079 15.9608L17.0074 15.9614L13.8791 20.4313L12.2797 19.1483L12.2794 19.1481C12.0522 18.966 11.7896 18.8332 11.5083 18.7581C11.227 18.6831 10.9331 18.6674 10.6454 18.7121C10.3577 18.7568 10.0824 18.8609 9.83714 19.0178C9.59185 19.1746 9.3819 19.3809 9.22064 19.6233C9.21423 19.6329 9.20804 19.6427 9.20208 19.6526L6.02348 24.9473C5.88439 25.179 5.88069 25.4676 6.01381 25.7028C6.14692 25.9379 6.39627 26.0833 6.6665 26.0833H25.3332C25.6048 26.0833 25.8553 25.9364 25.9878 25.6993C26.1204 25.4622 26.1144 25.1719 25.9721 24.9405L20.4893 16.0232C20.4847 16.0156 20.4799 16.0082 20.475 16.0008C20.2858 15.7161 20.0299 15.482 19.7295 15.3188C19.4292 15.1556 19.0935 15.0682 18.7517 15.0643ZM18.4543 16.6304C18.541 16.5858 18.6372 16.5631 18.7346 16.5642C18.832 16.5653 18.9277 16.5902 19.0133 16.6368C19.0958 16.6816 19.1666 16.7452 19.2199 16.8224L23.9916 24.5833H7.99153L10.4774 20.4426C10.5222 20.3784 10.5793 20.3237 10.6453 20.2815C10.7152 20.2367 10.7937 20.2071 10.8757 20.1943C10.9577 20.1816 11.0414 20.1861 11.1216 20.2075C11.2018 20.2288 11.2767 20.2667 11.3414 20.3186L13.5651 22.1024C13.7269 22.2322 13.9353 22.2891 14.1406 22.2598C14.346 22.2304 14.53 22.1173 14.6489 21.9474L18.2369 16.8207L18.2374 16.8199C18.2932 16.74 18.3677 16.675 18.4543 16.6304Z" fill="#767676"/>
</svg>
