<svg width="32" height="32" viewBox="0 0 32 32" fill="none" xmlns="http://www.w3.org/2000/svg">
<g clip-path="url(#clip0)">
<path fill-rule="evenodd" clip-rule="evenodd" d="M1.75 16C1.75 23.8701 8.12994 30.25 16 30.25C23.8701 30.25 30.25 23.8701 30.25 16C30.25 8.12994 23.8701 1.75 16 1.75C8.12994 1.75 1.75 8.12994 1.75 16ZM16 31.75C7.30152 31.75 0.25 24.6985 0.25 16C0.25 7.30151 7.30152 0.25 16 0.25C24.6985 0.25 31.75 7.30151 31.75 16C31.75 24.6985 24.6985 31.75 16 31.75ZM16 24.75C16.4142 24.75 16.75 24.4142 16.75 24L16.75 14C16.75 13.5858 16.4142 13.25 16 13.25C15.5858 13.25 15.25 13.5858 15.25 14L15.25 24C15.25 24.4142 15.5858 24.75 16 24.75ZM16 11C15.8022 11 15.6089 10.9414 15.4444 10.8315C15.28 10.7216 15.1518 10.5654 15.0761 10.3827C15.0004 10.2 14.9806 9.99889 15.0192 9.80491C15.0578 9.61093 15.153 9.43274 15.2929 9.29289C15.4327 9.15304 15.6109 9.0578 15.8049 9.01921C15.9989 8.98063 16.2 9.00043 16.3827 9.07612C16.5654 9.15181 16.7216 9.27998 16.8315 9.44443C16.9414 9.60888 17 9.80222 17 10C17 10.2652 16.8946 10.5196 16.7071 10.7071C16.5196 10.8946 16.2652 11 16 11Z" fill="#474445"/>
</g>
<defs>
<clipPath id="clip0">
<rect width="32" height="32" fill="white"/>
</clipPath>
</defs>
</svg>
