<svg width="32" height="32" viewBox="0 0 32 32" fill="none" xmlns="http://www.w3.org/2000/svg">
<g clip-path="url(#clip0)">
<path d="M16 10C16.0989 10 16.1956 9.97067 16.2778 9.91573C16.36 9.86079 16.4241 9.7827 16.4619 9.69134C16.4998 9.59998 16.5097 9.49944 16.4904 9.40245C16.4711 9.30546 16.4235 9.21637 16.3536 9.14644C16.2836 9.07652 16.1945 9.0289 16.0975 9.00961C16.0006 8.99031 15.9 9.00021 15.8087 9.03806C15.7173 9.0759 15.6392 9.13999 15.5843 9.22221C15.5293 9.30444 15.5 9.40111 15.5 9.5C15.5 9.63261 15.5527 9.75978 15.6464 9.85355C15.7402 9.94732 15.8674 10 16 10Z" fill="#474445" stroke="#474445" stroke-width="1.5" stroke-linecap="round" stroke-linejoin="round"/>
<path d="M16 14L16 24" stroke="#474445" stroke-width="1.5" stroke-miterlimit="10" stroke-linecap="round"/>
<path d="M16 1C7.71573 1 0.999998 7.71573 0.999997 16C0.999997 24.2843 7.71573 31 16 31C24.2843 31 31 24.2843 31 16C31 7.71573 24.2843 1 16 1Z" stroke="#474445" stroke-width="1.5" stroke-miterlimit="10"/>
</g>
<defs>
<clipPath id="clip0">
<rect width="32" height="32" fill="white" transform="translate(32 32) rotate(-180)"/>
</clipPath>
</defs>
</svg>
