<svg width="32" height="32" viewBox="0 0 32 32" fill="none" xmlns="http://www.w3.org/2000/svg">
<path d="M17 13.076C16.9996 11.5798 16.5797 10.1137 15.7879 8.84424C14.996 7.57476 13.8641 6.55276 12.5206 5.89434C11.1771 5.23591 9.67582 4.96744 8.18738 5.11942C6.69894 5.2714 5.28294 5.83773 4.10022 6.7541C2.9175 7.67048 2.01546 8.90015 1.49655 10.3035C0.977643 11.7068 0.862667 13.2275 1.16468 14.6929C1.46669 16.1583 2.17359 17.5096 3.20509 18.5934C4.23658 19.6772 5.55133 20.45 7 20.824V29.0053C7 29.5358 7.21072 30.0445 7.58579 30.4196C7.96086 30.7946 8.46957 31.0053 9 31.0053C9.53044 31.0053 10.0391 30.7946 10.4142 30.4196C10.7893 30.0445 11 29.5358 11 29.0053V20.824C12.7176 20.3805 14.2391 19.3788 15.3252 17.9762C16.4113 16.5737 17.0005 14.8499 17 13.076V13.076Z" stroke="#474445" stroke-width="1.5" stroke-linecap="round" stroke-linejoin="round"/>
<path d="M18.0838 21C19.1285 20.8558 20.1342 20.5054 21.0425 19.9693L27.5851 26.5107C27.9623 26.875 28.4675 27.0766 28.9919 27.072C29.5163 27.0675 30.0179 26.8571 30.3888 26.4863C30.7596 26.1155 30.9699 25.6139 30.9745 25.0895C30.979 24.5651 30.7774 24.0599 30.4131 23.6827L23.8665 17.1413C24.7647 15.62 25.134 13.8441 24.9168 12.0908C24.6996 10.3374 23.9082 8.70533 22.666 7.44909C21.4237 6.19285 19.8006 5.38315 18.0498 5.14633C16.299 4.90952 14.5191 5.25891 12.9878 6.13999" stroke="#474445" stroke-width="1.5" stroke-linecap="round" stroke-linejoin="round"/>
<path d="M9 14.076C10.1046 14.076 11 13.1806 11 12.076C11 10.9714 10.1046 10.076 9 10.076C7.89543 10.076 7 10.9714 7 12.076C7 13.1806 7.89543 14.076 9 14.076Z" stroke="#474445" stroke-width="1.5" stroke-linecap="round" stroke-linejoin="round"/>
<path d="M9 10.076V4C9 3.20435 9.31607 2.44129 9.87868 1.87868C10.4413 1.31607 11.2044 1 12 1C12.7956 1 13.5587 1.31607 14.1213 1.87868C14.6839 2.44129 15 3.20435 15 4V5.31867" stroke="#474445" stroke-width="1.5" stroke-linecap="round" stroke-linejoin="round"/>
</svg>
