<svg width="32" height="32" viewBox="0 0 32 32" fill="none" xmlns="http://www.w3.org/2000/svg">
<path fill-rule="evenodd" clip-rule="evenodd" d="M10.409 2.40901C10.831 1.98705 11.4033 1.75 12 1.75C12.5967 1.75 13.169 1.98705 13.591 2.40901C14.0129 2.83097 14.25 3.40326 14.25 4V4.76009C13.8168 4.90218 13.3938 5.07846 12.9849 5.28812C12.9404 5.26533 12.8956 5.24291 12.8506 5.22086C11.8749 4.7427 10.8232 4.45257 9.75 4.36024V4C9.75 3.40326 9.98705 2.83097 10.409 2.40901ZM8.25 5.86694C6.90606 6.00671 5.62782 6.5193 4.55957 7.34697C3.48773 8.17743 2.67026 9.29183 2.2 10.5636C1.72974 11.8353 1.62554 13.2135 1.89924 14.5415C2.17294 15.8695 2.81357 17.0941 3.74836 18.0763C4.68315 19.0585 5.87464 19.7588 7.1875 20.0978C7.51864 20.1833 7.75 20.482 7.75 20.824V29.0053C7.75 29.3369 7.8817 29.6548 8.11612 29.8892C8.35054 30.1236 8.66848 30.2553 9 30.2553C9.33152 30.2553 9.64947 30.1236 9.88389 29.8892C10.1183 29.6548 10.25 29.3369 10.25 29.0053V20.824C10.25 20.482 10.4814 20.1833 10.8125 20.0978C12.3691 19.6959 13.7479 18.7881 14.7322 17.517C15.7165 16.246 16.2504 14.6838 16.25 13.0762C16.2497 11.7203 15.8691 10.3916 15.1515 9.24116C14.4339 8.09069 13.4081 7.16451 12.1905 6.56781C11.4211 6.19073 10.5946 5.95478 9.75 5.86693V9.42952C10.9043 9.75599 11.75 10.8172 11.75 12.076C11.75 13.5948 10.5188 14.826 9 14.826C7.48122 14.826 6.25 13.5948 6.25 12.076C6.25 10.8172 7.09575 9.75599 8.25 9.42952V5.86694ZM8.25 4.36024V4C8.25 3.00544 8.64509 2.05161 9.34835 1.34835C10.0516 0.645088 11.0054 0.25 12 0.25C12.9946 0.25 13.9484 0.645088 14.6517 1.34835C15.3549 2.05161 15.75 3.00544 15.75 4V4.41066C16.5408 4.29861 17.3484 4.29463 18.1503 4.4031C20.0653 4.66212 21.8406 5.54773 23.1993 6.92174C24.5579 8.29575 25.4236 10.0809 25.6611 11.9986C25.8745 13.7215 25.5701 15.4645 24.7936 17.0075L30.9432 23.1521L30.9527 23.1615L30.9526 23.1616C31.4535 23.6803 31.7307 24.3749 31.7244 25.096C31.7182 25.817 31.429 26.5068 30.9191 27.0166C30.4092 27.5265 29.7195 27.8157 28.9984 27.822C28.2774 27.8282 27.5827 27.5511 27.0641 27.0501L27.0548 27.0411L27.0548 27.041L20.9088 20.8962C20.0551 21.3254 19.1355 21.6119 18.1864 21.7429C17.776 21.7996 17.3975 21.5129 17.3408 21.1026C17.2842 20.6922 17.5709 20.3137 17.9812 20.257C18.9276 20.1264 19.8385 19.8091 20.6612 19.3235C20.9558 19.1495 21.3308 19.1971 21.5727 19.4389L28.1103 25.9752C28.3456 26.2004 28.6596 26.3249 28.9854 26.322C29.3132 26.3192 29.6267 26.1877 29.8584 25.956C30.0902 25.7242 30.2217 25.4107 30.2245 25.0829C30.2273 24.7572 30.1029 24.4432 29.8777 24.2079L23.3363 17.6719C23.0942 17.4299 23.0466 17.0548 23.2206 16.76C24.0346 15.3813 24.3693 13.7719 24.1725 12.183C23.9757 10.594 23.2584 9.1149 22.1327 7.97644C21.0069 6.83797 19.5359 6.10418 17.9493 5.88956C16.7766 5.73095 15.5895 5.86252 14.4896 6.26435C15.2486 6.8758 15.9036 7.61266 16.4242 8.44732C17.2903 9.83582 17.7496 11.4394 17.75 13.0758C17.7505 15.016 17.1061 16.9014 15.9182 18.4354C14.8502 19.8145 13.3975 20.8393 11.75 21.3847V29.0053C11.75 29.7347 11.4603 30.4342 10.9445 30.9499C10.4288 31.4656 9.72935 31.7553 9 31.7553C8.27066 31.7553 7.57118 31.4656 7.05546 30.9499C6.53973 30.4342 6.25 29.7347 6.25 29.0053V21.3847C4.88814 20.9338 3.65494 20.1539 2.66181 19.1104C1.53362 17.9251 0.760446 16.447 0.430119 14.8443C0.0997916 13.2415 0.225547 11.5782 0.793102 10.0434C1.36066 8.50848 2.34726 7.16352 3.64086 6.16124C4.93446 5.15895 6.48321 4.53952 8.1112 4.3733C8.15745 4.36857 8.20372 4.36422 8.25 4.36024ZM9 10.826C8.30964 10.826 7.75 11.3856 7.75 12.076C7.75 12.7664 8.30964 13.326 9 13.326C9.69036 13.326 10.25 12.7664 10.25 12.076C10.25 11.3856 9.69036 10.826 9 10.826Z" fill="#767676"/>
</svg>
