<svg width="32" height="32" viewBox="0 0 32 32" fill="none" xmlns="http://www.w3.org/2000/svg">
<g clip-path="url(#clip0)">
<path d="M10.0833 10.6667C10.0833 10.2525 9.74754 9.91667 9.33333 9.91667C8.91912 9.91667 8.58333 10.2525 8.58333 10.6667H10.0833ZM8.58333 21.3333C8.58333 21.7475 8.91912 22.0833 9.33333 22.0833C9.74754 22.0833 10.0833 21.7475 10.0833 21.3333H8.58333ZM15.1703 11.2224C15.4772 10.9443 15.5006 10.47 15.2224 10.163C14.9443 9.8561 14.47 9.83277 14.163 10.1109L15.1703 11.2224ZM14.1131 21.8394C14.3926 22.1451 14.867 22.1664 15.1727 21.8869C15.4784 21.6074 15.4997 21.133 15.2202 20.8273L14.1131 21.8394ZM18.6667 10.6667V9.91667C18.2524 9.91667 17.9167 10.2525 17.9167 10.6667H18.6667ZM22 10.6667V9.91667V10.6667ZM24 12.6667H23.25H24ZM24 14H24.75H24ZM18.6667 16H17.9167H18.6667ZM17.9167 21.3333C17.9167 21.7475 18.2525 22.0833 18.6667 22.0833C19.0809 22.0833 19.4167 21.7475 19.4167 21.3333H17.9167ZM22 16V15.25V16ZM23.4697 21.8637C23.7626 22.1566 24.2374 22.1566 24.5303 21.8637C24.8232 21.5708 24.8232 21.0959 24.5303 20.803L23.4697 21.8637ZM1.75 16C1.75 8.12994 8.12994 1.75 16 1.75V0.25C7.30152 0.249999 0.250001 7.30151 0.25 16H1.75ZM16 1.75C23.8701 1.75 30.25 8.12994 30.25 16H31.75C31.75 7.30152 24.6985 0.250001 16 0.25V1.75ZM30.25 16C30.25 23.8701 23.8701 30.25 16 30.25V31.75C24.6985 31.75 31.75 24.6985 31.75 16H30.25ZM16 30.25C8.12994 30.25 1.75 23.8701 1.75 16H0.25C0.249999 24.6985 7.30151 31.75 16 31.75V30.25ZM8.58333 10.6667L8.58333 15.5H10.0833L10.0833 10.6667H8.58333ZM8.58333 15.5L8.58333 21.3333H10.0833L10.0833 15.5H8.58333ZM9.83697 16.0557L15.1703 11.2224L14.163 10.1109L8.82969 14.9443L9.83697 16.0557ZM8.77981 16.0061L14.1131 21.8394L15.2202 20.8273L9.88685 14.9939L8.77981 16.0061ZM18.6667 11.4167H22V9.91667H18.6667V11.4167ZM23.25 12.6667V14H24.75V12.6667H23.25ZM17.9167 16L17.9167 21.3333H19.4167L19.4167 16H17.9167ZM22 15.25L18.6667 15.25V16.75L22 16.75V15.25ZM18.1363 16.5303L23.4697 21.8637L24.5303 20.803L19.197 15.4697L18.1363 16.5303ZM23.25 14C23.25 14.6904 22.6904 15.25 22 15.25V16.75C23.5188 16.75 24.75 15.5188 24.75 14H23.25ZM22 11.4167C22.6904 11.4167 23.25 11.9763 23.25 12.6667H24.75C24.75 11.1479 23.5188 9.91667 22 9.91667V11.4167ZM17.9167 10.6667V16H19.4167V10.6667H17.9167Z" fill="#474445"/>
</g>
<defs>
<clipPath id="clip0">
<rect width="32" height="32" fill="white" transform="translate(32 32) rotate(-180)"/>
</clipPath>
</defs>
</svg>
