<svg width="32" height="32" viewBox="0 0 32 32" fill="none" xmlns="http://www.w3.org/2000/svg">
<g clip-path="url(#clip0_1199_128)">
<path d="M1.75 16C1.75 8.12994 8.12994 1.75 16 1.75V0.25C7.30152 0.249999 0.250001 7.30151 0.25 16H1.75ZM16 1.75C23.8701 1.75 30.25 8.12994 30.25 16H31.75C31.75 7.30152 24.6985 0.250001 16 0.25V1.75ZM30.25 16C30.25 23.8701 23.8701 30.25 16 30.25V31.75C24.6985 31.75 31.75 24.6985 31.75 16H30.25ZM16 30.25C8.12994 30.25 1.75 23.8701 1.75 16H0.25C0.249999 24.6985 7.30151 31.75 16 31.75V30.25Z" fill="#767676"/>
<path d="M8.75 10.6667C8.75 10.2525 8.41421 9.91666 8 9.91666C7.58579 9.91666 7.25 10.2525 7.25 10.6667H8.75ZM7.25 21.3333C7.25 21.7475 7.58579 22.0833 8 22.0833C8.41421 22.0833 8.75 21.7475 8.75 21.3333H7.25ZM7.25 10.6667L7.25 21.3333H8.75L8.75 10.6667H7.25Z" fill="#767676"/>
<path d="M13.3333 10.6667L8 15.5L13.3333 21.3333" stroke="#767676" stroke-width="1.5" stroke-miterlimit="10" stroke-linecap="round" stroke-linejoin="round"/>
<path d="M17.3335 9.91666C16.9193 9.91666 16.5835 10.2525 16.5835 10.6667C16.5835 11.0809 16.9193 11.4167 17.3335 11.4167L17.3335 9.91666ZM20.0002 10.6667L20.0002 11.4167H20.0002V10.6667ZM17.3335 15.25C16.9193 15.25 16.5835 15.5858 16.5835 16C16.5835 16.4142 16.9193 16.75 17.3335 16.75V15.25ZM20.0002 16V16.75V16ZM17.3335 11.4167L20.0002 11.4167L20.0002 9.91666L17.3335 9.91666L17.3335 11.4167ZM20.0002 15.25H17.3335V16.75H20.0002V15.25ZM21.9168 13.3333C21.9168 14.3919 21.0587 15.25 20.0002 15.25V16.75C21.8871 16.75 23.4168 15.2203 23.4168 13.3333H21.9168ZM20.0002 11.4167C21.0587 11.4167 21.9168 12.2748 21.9168 13.3333H23.4168C23.4168 11.4464 21.8871 9.91666 20.0002 9.91666V11.4167Z" fill="#767676"/>
<path d="M17.3335 10.6667L17.3335 21.3333" stroke="#767676" stroke-width="1.5" stroke-miterlimit="10" stroke-linecap="round" stroke-linejoin="round"/>
<path d="M17.8638 15.4697C17.5709 15.1768 17.0961 15.1768 16.8032 15.4697C16.5103 15.7626 16.5103 16.2374 16.8032 16.5303L17.8638 15.4697ZM22.1365 21.8637C22.4294 22.1566 22.9043 22.1566 23.1972 21.8637C23.4901 21.5708 23.4901 21.0959 23.1972 20.803L22.1365 21.8637ZM16.8032 16.5303L22.1365 21.8637L23.1972 20.803L17.8638 15.4697L16.8032 16.5303Z" fill="#767676"/>
</g>
<defs>
<clipPath id="clip0_1199_128">
<rect width="32" height="32" fill="white"/>
</clipPath>
</defs>
</svg>
