<svg width="32" height="32" viewBox="0 0 32 32" fill="none" xmlns="http://www.w3.org/2000/svg">
<g clip-path="url(#clip0)">
<path fill-rule="evenodd" clip-rule="evenodd" d="M1.75 16C1.75 8.12994 8.12994 1.75 16 1.75C23.8701 1.75 30.25 8.12994 30.25 16C30.25 23.8701 23.8701 30.25 16 30.25C8.12994 30.25 1.75 23.8701 1.75 16ZM16 0.249999C7.30152 0.249998 0.250002 7.30151 0.250001 16C0.250001 24.6985 7.30151 31.75 16 31.75C24.6985 31.75 31.75 24.6985 31.75 16C31.75 7.30151 24.6985 0.249999 16 0.249999ZM15.1703 11.2224C15.4772 10.9443 15.5006 10.47 15.2224 10.163C14.9443 9.8561 14.47 9.83277 14.163 10.1109L10.0833 13.8081L10.0833 10.6667C10.0833 10.2525 9.74755 9.91666 9.33333 9.91666C8.91912 9.91666 8.58333 10.2525 8.58333 10.6667L8.58333 15.5L8.58333 21.3333C8.58333 21.7475 8.91912 22.0833 9.33333 22.0833C9.74755 22.0833 10.0833 21.7475 10.0833 21.3333L10.0833 17.4318L14.1131 21.8394C14.3926 22.1451 14.867 22.1663 15.1727 21.8869C15.4784 21.6074 15.4997 21.133 15.2202 20.8273L10.3952 15.5499L15.1703 11.2224ZM18.6667 9.91667C18.4678 9.91667 18.277 9.99568 18.1363 10.1363C17.9957 10.277 17.9167 10.4678 17.9167 10.6667L17.9167 16L17.9167 21.3333C17.9167 21.7475 18.2525 22.0833 18.6667 22.0833C19.0809 22.0833 19.4167 21.7475 19.4167 21.3333L19.4167 17.8107L23.4697 21.8637C23.7626 22.1566 24.2374 22.1566 24.5303 21.8637C24.8232 21.5708 24.8232 21.0959 24.5303 20.803L20.4773 16.75L21.3333 16.75C23.2203 16.75 24.75 15.2203 24.75 13.3333C24.75 11.4464 23.2203 9.91667 21.3333 9.91667L18.6667 9.91667ZM21.3333 11.4167L19.4167 11.4167L19.4167 15.25L21.3333 15.25C22.3919 15.25 23.25 14.3919 23.25 13.3333C23.25 12.2748 22.3919 11.4167 21.3333 11.4167Z" fill="#474445"/>
</g>
<defs>
<clipPath id="clip0">
<rect width="32" height="32" fill="white" transform="translate(32 32) rotate(-180)"/>
</clipPath>
</defs>
</svg>
