<svg width="32" height="32" viewBox="0 0 32 32" fill="none" xmlns="http://www.w3.org/2000/svg">
<path fill-rule="evenodd" clip-rule="evenodd" d="M1.75 16C1.75 8.12994 8.12994 1.75 16 1.75C23.8701 1.75 30.25 8.12995 30.25 16C30.25 23.8701 23.8701 30.25 16 30.25C8.12994 30.25 1.75 23.8701 1.75 16ZM16 0.25C7.30152 0.25 0.25 7.30152 0.25 16C0.249998 24.6985 7.30151 31.75 16 31.75C24.6985 31.75 31.75 24.6985 31.75 16C31.75 7.30152 24.6985 0.250002 16 0.25ZM13.8368 11.2224C14.1437 10.9443 14.1671 10.47 13.8889 10.163C13.6108 9.8561 13.1365 9.83277 12.8295 10.1109L8.74984 13.8081L8.74983 10.6667C8.74983 10.2524 8.41405 9.91666 7.99983 9.91666C7.58562 9.91666 7.24983 10.2524 7.24983 10.6667L7.24984 15.5L7.24983 21.3333C7.24983 21.7475 7.58562 22.0833 7.99983 22.0833C8.41405 22.0833 8.74983 21.7475 8.74983 21.3333L8.74984 17.4318L12.7796 21.8394C13.0591 22.1451 13.5335 22.1663 13.8392 21.8869C14.1449 21.6074 14.1662 21.133 13.8867 20.8273L9.06166 15.5499L13.8368 11.2224ZM17.3332 9.91666C17.1343 9.91666 16.9435 9.99568 16.8028 10.1363C16.6622 10.277 16.5832 10.4677 16.5832 10.6667L16.5832 16V21.3333C16.5832 21.7475 16.919 22.0833 17.3332 22.0833C17.7474 22.0833 18.0832 21.7475 18.0832 21.3333V17.8107L22.1362 21.8637C22.4291 22.1566 22.9039 22.1566 23.1968 21.8637C23.4897 21.5708 23.4897 21.0959 23.1968 20.803L19.1438 16.75H19.9998C21.8868 16.75 23.4165 15.2203 23.4165 13.3333C23.4165 11.4464 21.8868 9.91666 19.9998 9.91666L17.3332 9.91666ZM18.0832 11.4167L18.0832 15.25H19.9998C21.0584 15.25 21.9165 14.3919 21.9165 13.3333C21.9165 12.2748 21.0584 11.4167 19.9998 11.4167L18.0832 11.4167Z" fill="#767676"/>
</svg>
