<svg width="32" height="32" viewBox="0 0 32 32" fill="none" xmlns="http://www.w3.org/2000/svg">
<path fill-rule="evenodd" clip-rule="evenodd" d="M5 1.75C4.30964 1.75 3.75 2.30964 3.75 3V8.25H28.25V3C28.25 2.30964 27.6904 1.75 27 1.75H5ZM28.25 9.75H3.75V29C3.75 29.6904 4.30964 30.25 5 30.25H27C27.6904 30.25 28.25 29.6904 28.25 29V9.75ZM2.25 9V29C2.25 30.5188 3.48122 31.75 5 31.75H27C28.5188 31.75 29.75 30.5188 29.75 29V9V3C29.75 1.48122 28.5188 0.25 27 0.25H5C3.48122 0.25 2.25 1.48122 2.25 3V9ZM6.25 5C6.25 4.58579 6.58579 4.25 7 4.25H11C11.4142 4.25 11.75 4.58579 11.75 5C11.75 5.41421 11.4142 5.75 11 5.75H7C6.58579 5.75 6.25 5.41421 6.25 5ZM16 13.75C12.5482 13.75 9.75 16.5482 9.75 20C9.75 23.4518 12.5482 26.25 16 26.25C19.4518 26.25 22.25 23.4518 22.25 20C22.25 16.5482 19.4518 13.75 16 13.75ZM8.25 20C8.25 15.7198 11.7198 12.25 16 12.25C20.2802 12.25 23.75 15.7198 23.75 20C23.75 24.2802 20.2802 27.75 16 27.75C11.7198 27.75 8.25 24.2802 8.25 20ZM17.1161 4.11612C17.3505 3.8817 17.6685 3.75 18 3.75C18.2472 3.75 18.4889 3.82331 18.6945 3.96066C18.9 4.09802 19.0602 4.29324 19.1549 4.52165C19.2495 4.75005 19.2742 5.00139 19.226 5.24386C19.1777 5.48634 19.0587 5.70906 18.8839 5.88388C18.7091 6.0587 18.4863 6.17775 18.2439 6.22598C18.0014 6.27421 17.7501 6.24946 17.5216 6.15485C17.2932 6.06024 17.098 5.90002 16.9607 5.69446C16.8233 5.4889 16.75 5.24723 16.75 5C16.75 4.66848 16.8817 4.35054 17.1161 4.11612ZM23.333 3.75C23.0015 3.75 22.6835 3.8817 22.4491 4.11612C22.2147 4.35054 22.083 4.66848 22.083 5C22.083 5.24723 22.1563 5.4889 22.2937 5.69446C22.431 5.90002 22.6262 6.06024 22.8547 6.15485C23.0831 6.24946 23.3344 6.27421 23.5769 6.22598C23.8193 6.17775 24.0421 6.0587 24.2169 5.88388C24.3917 5.70906 24.5108 5.48634 24.559 5.24386C24.6072 5.00139 24.5825 4.75006 24.4879 4.52165C24.3932 4.29324 24.233 4.09802 24.0275 3.96066C23.8219 3.82331 23.5802 3.75 23.333 3.75ZM14.409 18.409C14.831 17.9871 15.4033 17.75 16 17.75C16.4142 17.75 16.75 17.4142 16.75 17C16.75 16.5858 16.4142 16.25 16 16.25C15.0054 16.25 14.0516 16.6451 13.3483 17.3484C12.6451 18.0516 12.25 19.0054 12.25 20C12.25 20.4142 12.5858 20.75 13 20.75C13.4142 20.75 13.75 20.4142 13.75 20C13.75 19.4033 13.9871 18.831 14.409 18.409Z" fill="#767676"/>
</svg>
