<svg width="32" height="32" viewBox="0 0 32 32" fill="none" xmlns="http://www.w3.org/2000/svg">
<path d="M27 1H5C3.89543 1 3 1.89543 3 3V29C3 30.1046 3.89543 31 5 31H27C28.1046 31 29 30.1046 29 29V3C29 1.89543 28.1046 1 27 1Z" stroke="#474445" stroke-width="1.5" stroke-linecap="round" stroke-linejoin="round"/>
<path d="M7 5H11" stroke="#474445" stroke-width="1.5" stroke-linecap="round" stroke-linejoin="round"/>
<path d="M3 9H29" stroke="#474445" stroke-width="1.5" stroke-linecap="round" stroke-linejoin="round"/>
<path d="M16 27C19.866 27 23 23.866 23 20C23 16.134 19.866 13 16 13C12.134 13 9 16.134 9 20C9 23.866 12.134 27 16 27Z" stroke="#474445" stroke-width="1.5" stroke-linecap="round" stroke-linejoin="round"/>
<path d="M18 4.5C18.0989 4.5 18.1956 4.52932 18.2778 4.58427C18.36 4.63921 18.4241 4.7173 18.4619 4.80866C18.4998 4.90002 18.5097 5.00055 18.4904 5.09755C18.4711 5.19454 18.4235 5.28363 18.3536 5.35355C18.2836 5.42348 18.1945 5.4711 18.0975 5.49039C18.0006 5.50969 17.9 5.49978 17.8087 5.46194C17.7173 5.4241 17.6392 5.36001 17.5843 5.27778C17.5293 5.19556 17.5 5.09889 17.5 5C17.5 4.86739 17.5527 4.74021 17.6464 4.64645C17.7402 4.55268 17.8674 4.5 18 4.5" stroke="#474445" stroke-width="1.5" stroke-linecap="round" stroke-linejoin="round"/>
<path d="M23.333 4.5C23.4319 4.5 23.5286 4.52932 23.6108 4.58427C23.693 4.63921 23.7571 4.7173 23.7949 4.80866C23.8328 4.90002 23.8427 5.00055 23.8234 5.09755C23.8041 5.19454 23.7565 5.28363 23.6866 5.35355C23.6166 5.42348 23.5275 5.4711 23.4306 5.49039C23.3336 5.50969 23.233 5.49978 23.1417 5.46194C23.0503 5.4241 22.9722 5.36001 22.9173 5.27778C22.8623 5.19556 22.833 5.09889 22.833 5C22.833 4.86739 22.8857 4.74021 22.9795 4.64645C23.0732 4.55268 23.2004 4.5 23.333 4.5" stroke="#474445" stroke-width="1.5" stroke-linecap="round" stroke-linejoin="round"/>
<path d="M13 20C13 19.2044 13.3161 18.4413 13.8787 17.8787C14.4413 17.3161 15.2044 17 16 17" stroke="#474445" stroke-width="1.5" stroke-linecap="round" stroke-linejoin="round"/>
</svg>
