<svg width="32" height="32" viewBox="0 0 32 32" fill="none" xmlns="http://www.w3.org/2000/svg">
<path d="M27 1H5C3.89543 1 3 1.89543 3 3V29C3 30.1046 3.89543 31 5 31H27C28.1046 31 29 30.1046 29 29V3C29 1.89543 28.1046 1 27 1Z" stroke="#71717A" stroke-width="1.5" stroke-linecap="round" stroke-linejoin="round"/>
<path d="M7 5H11" stroke="#71717A" stroke-width="1.5" stroke-linecap="round" stroke-linejoin="round"/>
<path d="M22 4V6" stroke="#71717A" stroke-width="1.5" stroke-linecap="round" stroke-linejoin="round"/>
<path d="M25 4V6" stroke="#71717A" stroke-width="1.5" stroke-linecap="round" stroke-linejoin="round"/>
<path d="M3 9H29" stroke="#71717A" stroke-width="1.5" stroke-linecap="round" stroke-linejoin="round"/>
<path d="M16 27C19.866 27 23 23.866 23 20C23 16.134 19.866 13 16 13C12.134 13 9 16.134 9 20C9 23.866 12.134 27 16 27Z" stroke="#71717A" stroke-width="1.5" stroke-linecap="round" stroke-linejoin="round"/>
<path d="M13 20C13 19.2043 13.3161 18.4413 13.8787 17.8787C14.4321 17.3253 15.1794 17.0104 15.9609 17.0002" stroke="#71717A" stroke-width="1.5" stroke-linecap="round" stroke-linejoin="round"/>
</svg>
