<svg width="32" height="32" viewBox="0 0 32 32" fill="none" xmlns="http://www.w3.org/2000/svg">
<path d="M30.5561 8.26663L16.9441 1.2293C16.6523 1.07858 16.3286 0.999939 16.0001 0.999939C15.6717 0.999939 15.348 1.07858 15.0561 1.2293L1.44412 8.26663C1.31043 8.33587 1.19834 8.44051 1.12011 8.56914C1.04187 8.69776 1.00049 8.84542 1.00049 8.99597C1.00049 9.14652 1.04187 9.29417 1.12011 9.4228C1.19834 9.55142 1.31043 9.65607 1.44412 9.7253L15.0561 16.7666C15.348 16.9173 15.6717 16.996 16.0001 16.996C16.3286 16.996 16.6523 16.9173 16.9441 16.7666L30.5561 9.7333C30.6898 9.66407 30.8019 9.55942 30.8801 9.4308C30.9584 9.30217 30.9997 9.15452 30.9997 9.00397C30.9997 8.85342 30.9584 8.70576 30.8801 8.57714C30.8019 8.44851 30.6898 8.34387 30.5561 8.27463V8.26663Z" stroke="#767676" stroke-width="1.5" stroke-linecap="round" stroke-linejoin="round"/>
<path d="M6.80012 12.5L1.44412 15.2707C1.31043 15.3399 1.19834 15.4445 1.12011 15.5732C1.04187 15.7018 1.00049 15.8494 1.00049 16C1.00049 16.1506 1.04187 16.2982 1.12011 16.4268C1.19834 16.5555 1.31043 16.6601 1.44412 16.7293L15.0561 23.7707C15.348 23.9214 15.6717 24 16.0001 24C16.3286 24 16.6523 23.9214 16.9441 23.7707L30.5561 16.7293C30.6898 16.6601 30.8019 16.5555 30.8801 16.4268C30.9584 16.2982 30.9997 16.1506 30.9997 16C30.9997 15.8494 30.9584 15.7018 30.8801 15.5732C30.8019 15.4445 30.6898 15.3399 30.5561 15.2707L25.2001 12.5" stroke="#767676" stroke-width="1.5" stroke-linecap="round" stroke-linejoin="round"/>
<path d="M6.80012 19.5L1.44412 22.2667C1.31043 22.3359 1.19834 22.4405 1.12011 22.5692C1.04187 22.6978 1.00049 22.8454 1.00049 22.996C1.00049 23.1465 1.04187 23.2942 1.12011 23.4228C1.19834 23.5515 1.31043 23.6561 1.44412 23.7253L15.0561 30.7667C15.348 30.9174 15.6717 30.996 16.0001 30.996C16.3286 30.996 16.6523 30.9174 16.9441 30.7667L30.5561 23.7333C30.6898 23.6641 30.8019 23.5595 30.8801 23.4308C30.9584 23.3022 30.9997 23.1546 30.9997 23.004C30.9997 22.8534 30.9584 22.7058 30.8801 22.5772C30.8019 22.4485 30.6898 22.3439 30.5561 22.2747L25.2001 19.5" stroke="#767676" stroke-width="1.5" stroke-linecap="round" stroke-linejoin="round"/>
</svg>
