<svg width="32" height="32" viewBox="0 0 32 32" fill="none" xmlns="http://www.w3.org/2000/svg">
<path fill-rule="evenodd" clip-rule="evenodd" d="M1.47033 3.25093C1.69171 3.14938 1.93625 3.10858 2.17882 3.13289C2.42723 3.15779 2.66411 3.25002 2.86394 3.39962C2.87397 3.40713 2.88381 3.41489 2.89345 3.42289C4.85567 5.05147 7.3822 5.86701 10.164 6.36983C11.5513 6.62059 12.9818 6.79041 14.4199 6.95021C14.6185 6.97229 14.8175 6.99419 15.0165 7.01609C16.2499 7.15185 17.486 7.2879 18.6726 7.46838C21.4113 7.88495 24.0414 8.5565 25.9828 10.1498C27.9724 11.7827 29.1272 14.2845 29.1272 18.0907C29.1272 20.9528 27.9903 23.6977 25.9665 25.7217C23.9428 27.7457 21.1981 28.883 18.3358 28.8833C9.46178 28.8833 -2.02149 19.8778 0.636489 4.31376L0.636251 4.31516C0.676052 4.07941 0.774865 3.85759 0.923474 3.67033C1.06851 3.48758 1.25641 3.34354 1.47033 3.25093ZM2.09182 4.70459C4.32182 6.48994 7.08611 7.3378 9.89722 7.84591C11.3394 8.1066 12.8146 8.28106 14.2542 8.44103C14.4558 8.46344 14.6567 8.48555 14.8566 8.50757C16.0921 8.6436 17.2937 8.7759 18.447 8.95133C21.1443 9.36159 23.4229 9.98945 25.0312 11.3093C26.5912 12.5897 27.6272 14.6149 27.6272 18.0907C27.6272 20.555 26.6483 22.9184 24.9058 24.6611C23.1634 26.4038 20.8001 27.383 18.3358 27.3833M18.3358 27.3833C10.3711 27.3832 -0.311145 19.222 2.09182 4.70459L18.3358 27.3833Z" fill="#474445"/>
<path fill-rule="evenodd" clip-rule="evenodd" d="M13.5954 15.2065C13.7052 14.8071 14.1179 14.5723 14.5173 14.6821C18.7712 15.8515 22.7574 17.836 26.2544 20.5255C26.2645 20.5332 26.2743 20.5412 26.284 20.5495L31.4867 24.9895C31.8018 25.2584 31.8392 25.7318 31.5703 26.0469C31.3015 26.3619 30.8281 26.3994 30.513 26.1305L25.3249 21.7029C21.9855 19.1377 18.1802 17.2446 14.1198 16.1285C13.7204 16.0187 13.4856 15.6059 13.5954 15.2065Z" fill="#474445"/>
</svg>
