<svg width="32" height="32" viewBox="0 0 32 32" fill="none" xmlns="http://www.w3.org/2000/svg">
<path d="M18.3361 28.1333C20.9994 28.133 23.5534 27.0748 25.4365 25.1914C27.3196 23.3081 28.3774 20.7539 28.3774 18.0907C28.3774 3.52667 10.8521 11.0027 2.41478 4.00001C2.32423 3.93222 2.21689 3.89043 2.10435 3.87915C1.9918 3.86787 1.87831 3.88753 1.77611 3.93601C1.67232 3.97944 1.58122 4.04843 1.51128 4.13655C1.44134 4.22468 1.39484 4.32907 1.37611 4.44001C-1.19989 19.524 9.90411 28.1333 18.3361 28.1333Z" stroke="#474445" stroke-width="1.5" stroke-linecap="round" stroke-linejoin="round"/>
<path d="M14.3187 15.4053C18.4789 16.5489 22.3773 18.4897 25.7973 21.12L31 25.56" stroke="#474445" stroke-width="1.5" stroke-linecap="round" stroke-linejoin="round"/>
</svg>
