<svg width="33" height="32" viewBox="0 0 33 32" fill="none" xmlns="http://www.w3.org/2000/svg">
<path d="M1.50885 3.5L1.94995 2.89343C1.75273 2.75001 1.49809 2.71142 1.26723 2.78998C1.03637 2.86854 0.858121 3.05444 0.789317 3.28839L1.50885 3.5ZM27.5092 22.5L28.1332 22.916L28.1475 22.8945L28.1604 22.8721L27.5092 22.5ZM21.0093 8.5L20.9414 9.24692L21.0093 8.5ZM0.789317 3.28839C-1.81348 12.1386 2.35338 20.9425 8.42799 25.5954C11.4731 27.9279 15.0572 29.2651 18.5814 28.9979C22.1332 28.7285 25.5196 26.8363 28.1332 22.916L26.8851 22.084C24.4985 25.6638 21.5099 27.2715 18.468 27.5022C15.3984 27.7349 12.17 26.5722 9.34011 24.4046C3.66474 20.0575 -0.16841 11.8614 2.22837 3.71161L0.789317 3.28839ZM28.1604 22.8721C28.7354 21.8655 29.0801 20.4741 29.1728 18.9813C29.2662 17.4778 29.108 15.8125 28.6252 14.2319C27.6563 11.0601 25.3334 8.14003 21.0772 7.75308L20.9414 9.24692C24.4153 9.56275 26.3422 11.8927 27.1907 14.6701C27.6165 16.0643 27.7589 17.5484 27.6757 18.8883C27.5918 20.2388 27.2827 21.3845 26.858 22.128L28.1604 22.8721ZM21.0772 7.75308C15.2899 7.22694 11.8618 6.98156 9.174 6.37626C6.54744 5.78476 4.63989 4.8496 1.94995 2.89343L1.06774 4.10657C3.87824 6.1504 5.9709 7.19249 8.84445 7.83962C11.6568 8.47295 15.2287 8.72756 20.9414 9.24692L21.0772 7.75308Z" fill="#71717A"/>
<path d="M14.0093 15.5C19.5093 16.5 23.858 18.9665 31.0093 25.5" stroke="#71717A" stroke-width="1.5" stroke-linecap="round"/>
</svg>
