<svg width="32" height="32" viewBox="0 0 32 32" fill="none" xmlns="http://www.w3.org/2000/svg">
<path d="M14.3184 15.4053C18.4786 16.5489 22.377 18.4897 25.797 21.12L30.9997 25.56M18.3358 28.1333C20.9991 28.133 23.5531 27.0748 25.4362 25.1914C27.3193 23.3081 28.3772 20.7539 28.3772 18.0907C28.3772 3.52667 10.8518 11.0027 2.41449 4.00001C2.32394 3.93222 2.21661 3.89043 2.10406 3.87915C1.99151 3.86787 1.87802 3.88753 1.77582 3.93601C1.67204 3.97944 1.58093 4.04843 1.51099 4.13655C1.44105 4.22468 1.39455 4.32907 1.37582 4.44001C-1.20018 19.524 9.90382 28.1333 18.3358 28.1333Z" stroke="#474445" stroke-width="1.5" stroke-linecap="round" stroke-linejoin="round"/>
</svg>
