<svg width="32" height="32" viewBox="0 0 32 32" fill="none" xmlns="http://www.w3.org/2000/svg">
<g clip-path="url(#clip0_1199_124)">
<path d="M1.49957 3.5L1.94067 2.89343C1.74345 2.75001 1.48881 2.71142 1.25795 2.78998C1.02709 2.86854 0.848843 3.05444 0.78004 3.28839L1.49957 3.5ZM27.4999 22.5L28.1239 22.916L28.1383 22.8945L28.1511 22.8721L27.4999 22.5ZM21 8.5L20.9321 9.24692L21 8.5ZM0.78004 3.28839C-1.82276 12.1386 2.3441 20.9425 8.41871 25.5954C11.4638 27.9279 15.0479 29.2651 18.5721 28.9979C22.124 28.7285 25.5104 26.8363 28.1239 22.916L26.8759 22.084C24.4893 25.6638 21.5006 27.2715 18.4587 27.5022C15.3891 27.7349 12.1607 26.5722 9.33083 24.4046C3.65546 20.0575 -0.177687 11.8614 2.2191 3.71161L0.78004 3.28839ZM28.1511 22.8721C28.7262 21.8655 29.0708 20.4741 29.1635 18.9813C29.2569 17.4778 29.0987 15.8125 28.6159 14.2319C27.647 11.0601 25.3242 8.14003 21.0679 7.75308L20.9321 9.24692C24.4061 9.56275 26.333 11.8927 27.1814 14.6701C27.6072 16.0643 27.7496 17.5484 27.6664 18.8883C27.5825 20.2388 27.2735 21.3845 26.8487 22.128L28.1511 22.8721ZM21.0679 7.75308C15.2806 7.22694 11.8525 6.98156 9.16472 6.37626C6.53816 5.78476 4.63061 4.8496 1.94067 2.89343L1.05846 4.10657C3.86896 6.1504 5.96162 7.19249 8.83517 7.83962C11.6475 8.47295 15.2194 8.72756 20.9321 9.24692L21.0679 7.75308Z" fill="#767676"/>
<path d="M14 15.5C19.5 16.5 23.8487 18.9665 31 25.5" stroke="#767676" stroke-width="1.5" stroke-linecap="round"/>
</g>
<defs>
<clipPath id="clip0_1199_124">
<rect width="32" height="32" fill="white" transform="matrix(-1 0 0 1 32 0)"/>
</clipPath>
</defs>
</svg>
