<svg width="32" height="32" viewBox="0 0 32 32" fill="none" xmlns="http://www.w3.org/2000/svg">
<path fill-rule="evenodd" clip-rule="evenodd" d="M2.33333 1.75C2.01117 1.75 1.75 2.01117 1.75 2.33333V29.6667C1.75 29.9888 2.01117 30.25 2.33333 30.25H7.25V14C7.25 13.5359 7.43437 13.0908 7.76256 12.7626C8.09075 12.4344 8.53587 12.25 9 12.25H16H23C23.4641 12.25 23.9092 12.4344 24.2374 12.7626C24.5656 13.0908 24.75 13.5359 24.75 14V30.25H29.6667C29.9888 30.25 30.25 29.9888 30.25 29.6667V2.33333C30.25 2.01117 29.9888 1.75 29.6667 1.75H2.33333ZM15.25 13.75H9C8.9337 13.75 8.87011 13.7763 8.82322 13.8232C8.77634 13.8701 8.75 13.9337 8.75 14V30.25H15.25V13.75ZM16.75 30.25V13.75H23C23.0663 13.75 23.1299 13.7763 23.1768 13.8232C23.2237 13.8701 23.25 13.9337 23.25 14V30.25H16.75ZM16 31.75H24H29.6667C30.8173 31.75 31.75 30.8173 31.75 29.6667V2.33333C31.75 1.18274 30.8173 0.25 29.6667 0.25H2.33333C1.18274 0.25 0.25 1.18274 0.25 2.33333V29.6667C0.25 30.8173 1.18274 31.75 2.33333 31.75H8H16ZM18.217 4.73334C18.5484 4.48482 19.0185 4.55197 19.267 4.88334L20.667 6.75001L22.067 4.88334C22.3155 4.55197 22.7856 4.48482 23.117 4.73334C23.4484 4.98187 23.5155 5.45197 23.267 5.78334L21.267 8.45001C21.1254 8.63886 20.9031 8.75001 20.667 8.75001C20.4309 8.75001 20.2086 8.63886 20.067 8.45001L18.067 5.78334C17.8185 5.45197 17.8856 4.98187 18.217 4.73334ZM12.733 8.45C12.9815 8.78137 13.4516 8.84853 13.783 8.6C14.1144 8.35147 14.1815 7.88137 13.933 7.55L11.933 4.88333C11.7914 4.69448 11.5691 4.58333 11.333 4.58333C11.0969 4.58333 10.8747 4.69448 10.733 4.88333L8.73301 7.55C8.48448 7.88137 8.55164 8.35147 8.88301 8.6C9.21438 8.84853 9.68448 8.78137 9.93301 8.45L11.333 6.58333L12.733 8.45Z" fill="#767676"/>
</svg>
