<svg width="32" height="32" viewBox="0 0 32 32" fill="none" xmlns="http://www.w3.org/2000/svg">
<path d="M9 22.9987L23 8.99867" stroke="#71717A" stroke-width="1.5" stroke-linecap="round" stroke-linejoin="round"/>
<path d="M10.3134 16.028C9.47471 15.9797 8.6353 16.1091 7.85015 16.4078C7.065 16.7065 6.35183 17.1678 5.75737 17.7613L2.75737 20.7613C1.63214 21.8866 1 23.4127 1 25.004C1 25.7919 1.1552 26.5722 1.45673 27.3001C1.75826 28.0281 2.20022 28.6895 2.75737 29.2467C3.31452 29.8038 3.97596 30.2458 4.70392 30.5473C5.43188 30.8488 6.2121 31.004 7.00004 31.004C8.59135 31.004 10.1175 30.3719 11.2427 29.2467L14.2427 26.2467C14.8363 25.6522 15.2975 24.939 15.5962 24.1539C15.8949 23.3687 16.0244 22.5293 15.976 21.6907V21.6523" stroke="#71717A" stroke-width="1.5" stroke-linecap="round" stroke-linejoin="round"/>
<path d="M21.6863 15.968C22.5249 16.0162 23.3643 15.8868 24.1494 15.588C24.9346 15.2893 25.6478 14.8281 26.2423 14.2347L29.2423 11.2347C30.3675 10.1094 30.9996 8.5833 30.9996 6.992C30.9996 5.40069 30.3675 3.87455 29.2423 2.74933C28.117 1.6241 26.5909 0.991959 24.9996 0.991959C23.4083 0.991959 21.8822 1.6241 20.7569 2.74933L17.7569 5.74933C17.1648 6.34452 16.7049 7.05797 16.4074 7.84306C16.0971 8.66167 16.0303 9.47414 16.0303 10.3398" stroke="#71717A" stroke-width="1.5" stroke-linecap="round" stroke-linejoin="round"/>
</svg>
