<svg width="32" height="32" viewBox="0 0 32 32" fill="none" xmlns="http://www.w3.org/2000/svg">
<path fill-rule="evenodd" clip-rule="evenodd" d="M31.4165 1.33335C31.4165 0.919139 31.0807 0.583353 30.6665 0.583353L22.6665 0.583344C22.2523 0.583344 21.9165 0.919129 21.9165 1.33334C21.9165 1.74756 22.2523 2.08334 22.6665 2.08334L28.9113 2.08335L15.4579 16.1482C15.1715 16.4476 15.1821 16.9223 15.4814 17.2086C15.7807 17.495 16.2555 17.4844 16.5418 17.1851L29.9165 3.20248V9.33333C29.9165 9.74755 30.2523 10.0833 30.6665 10.0833C31.0807 10.0833 31.4165 9.74755 31.4165 9.33333V1.33335ZM3.33349 0.583353C1.81471 0.583353 0.583496 1.81457 0.583496 3.33335V28.6667C0.583496 30.1855 1.81471 31.4167 3.3335 31.4167H28.6668C30.1856 31.4167 31.4168 30.1855 31.4168 28.6667V17.3334C31.4168 16.9191 31.081 16.5834 30.6668 16.5834C30.2526 16.5834 29.9168 16.9191 29.9168 17.3334V28.6667C29.9168 29.357 29.3572 29.9167 28.6668 29.9167H3.3335C2.64314 29.9167 2.0835 29.357 2.0835 28.6667V3.33335C2.0835 2.643 2.64314 2.08335 3.33349 2.08335H14.6668C15.081 2.08335 15.4168 1.74757 15.4168 1.33335C15.4168 0.919139 15.081 0.583353 14.6668 0.583353H3.33349Z" fill="#474445"/>
</svg>
