<svg width="32" height="32" viewBox="0 0 32 32" fill="none" xmlns="http://www.w3.org/2000/svg">
<path fill-rule="evenodd" clip-rule="evenodd" d="M25 0.241959C23.2098 0.241959 21.4929 0.953121 20.227 2.219L17.227 5.219L17.2256 5.22036C16.5591 5.89036 16.0414 6.69349 15.7064 7.57726C15.3715 8.46103 15.2268 9.40554 15.2819 10.349C15.3061 10.7625 15.6609 11.0782 16.0744 11.0541C16.4879 11.0299 16.8035 10.6751 16.7794 10.2616C16.7366 9.52882 16.8489 8.79525 17.1091 8.10885C17.3691 7.42274 17.7709 6.79921 18.2883 6.27898L18.289 6.2783L21.2876 3.27966C22.2722 2.29509 23.6076 1.74196 25 1.74196C26.3924 1.74196 27.7277 2.29509 28.7123 3.27966C29.6969 4.26423 30.25 5.5996 30.25 6.992C30.25 8.38439 29.6969 9.71976 28.7123 10.7043L25.7128 13.7039C25.193 14.2227 24.5695 14.6259 23.8831 14.8871C23.1967 15.1482 22.4629 15.2614 21.7297 15.2192C21.3162 15.1954 20.9617 15.5114 20.9379 15.9249C20.9141 16.3385 21.2301 16.693 21.6436 16.7168C22.5877 16.7711 23.5326 16.6253 24.4165 16.289C25.3004 15.9528 26.1032 15.4336 26.7725 14.7654L26.773 14.765L29.773 11.765C31.0389 10.4991 31.75 8.78222 31.75 6.992C31.75 5.20177 31.0389 3.48488 29.773 2.219C28.5071 0.953121 26.7902 0.241959 25 0.241959ZM23.5303 8.46834C23.8232 8.76124 23.8232 9.23611 23.5303 9.529L9.53033 23.529C9.23744 23.8219 8.76256 23.8219 8.46967 23.529C8.17678 23.2361 8.17678 22.7612 8.46967 22.4683L22.4697 8.46834C22.7626 8.17545 23.2374 8.17545 23.5303 8.46834ZM7.58346 15.7068C8.46737 15.3706 9.41236 15.2248 10.3565 15.2792C10.77 15.3031 11.086 15.6576 11.0621 16.0711C11.0383 16.4847 10.6838 16.8006 10.2702 16.7768C9.53706 16.7345 8.80323 16.8477 8.11684 17.1088C7.43045 17.3699 6.80698 17.7732 6.28729 18.2921L3.2877 21.2917C2.30313 22.2762 1.75 23.6116 1.75 25.004C1.75 25.6934 1.8858 26.3761 2.14964 27.0131C2.41347 27.6501 2.80019 28.2288 3.2877 28.7163C3.77521 29.2038 4.35397 29.5906 4.99093 29.8544C5.6279 30.1182 6.31059 30.254 7.00004 30.254C8.39243 30.254 9.7278 29.7009 10.7124 28.7163L13.712 25.7167C14.2309 25.1971 14.6341 24.5736 14.8952 23.8872C15.1564 23.2008 15.2695 22.467 15.2273 21.7338C15.2035 21.3203 15.5194 20.9657 15.9329 20.9419C16.3464 20.9181 16.701 21.234 16.7248 21.6475C16.7792 22.5917 16.6335 23.5367 16.2972 24.4206C15.9609 25.3045 15.4416 26.1074 14.7734 26.7766L14.773 26.777L11.773 29.777C10.5072 31.0429 8.79026 31.754 7.00004 31.754C6.11361 31.754 5.23586 31.5794 4.41691 31.2402C3.59796 30.901 2.85384 30.4038 2.22704 29.777C1.60024 29.1502 1.10304 28.4061 0.763816 27.5871C0.424595 26.7682 0.25 25.8904 0.25 25.004C0.25 23.2138 0.961163 21.4969 2.22704 20.231L5.22704 17.231L5.22744 17.2306C5.89668 16.5624 6.69955 16.0431 7.58346 15.7068Z" fill="#474445"/>
</svg>
