<svg width="32" height="32" viewBox="0 0 32 32" fill="none" xmlns="http://www.w3.org/2000/svg">
<path d="M29 0.996002H3C1.89543 0.996002 1 1.89143 1 2.996V10.996C1 12.1006 1.89543 12.996 3 12.996H29C30.1046 12.996 31 12.1006 31 10.996V2.996C31 1.89143 30.1046 0.996002 29 0.996002Z" stroke="#767676" stroke-width="1.5" stroke-linecap="round" stroke-linejoin="round"/>
<path d="M29 18.996H3C1.89543 18.996 1 19.8914 1 20.996V28.996C1 30.1006 1.89543 30.996 3 30.996H29C30.1046 30.996 31 30.1006 31 28.996V20.996C31 19.8914 30.1046 18.996 29 18.996Z" stroke="#767676" stroke-width="1.5" stroke-linecap="round" stroke-linejoin="round"/>
</svg>
