<svg width="32" height="32" viewBox="0 0 32 32" fill="none" xmlns="http://www.w3.org/2000/svg">
<path fill-rule="evenodd" clip-rule="evenodd" d="M6.3335 1.76465C5.47154 1.76465 4.64489 2.10706 4.0354 2.71655C3.42591 3.32604 3.0835 4.15269 3.0835 5.01465V27.0146C3.0835 27.8766 3.42591 28.7033 4.0354 29.3127C4.64489 29.9222 5.47154 30.2646 6.3335 30.2646H19.0095L19.0098 30.2647C19.0901 30.2647 19.1702 30.2617 19.25 30.2559V25.3333C19.25 24.0735 19.7504 22.8654 20.6412 21.9746C21.532 21.0838 22.7402 20.5833 24 20.5833H28.909C28.9142 20.5088 28.9168 20.4339 28.9168 20.3587V20.3585V5.01465C28.9168 4.15269 28.5744 3.32604 27.9649 2.71655C27.3554 2.10706 26.5288 1.76465 25.6668 1.76465H16.75V11.6667C16.75 11.9507 16.5895 12.2104 16.3355 12.3374C16.0814 12.4645 15.7774 12.4371 15.5501 12.2668L12.0001 9.60542L8.45 12.268C8.22274 12.4384 7.91868 12.4659 7.66459 12.3388C7.4105 12.2118 7.25 11.9521 7.25 11.668V1.76465H6.3335ZM8.75 1.76465V10.168L11.55 8.068C11.8166 7.86803 12.1832 7.86799 12.4499 8.0679L15.25 10.1671V1.76465H8.75ZM21.3084 29.3137C21.1389 29.4831 20.9515 29.6328 20.75 29.7605V25.3333C20.75 24.4714 21.0924 23.6447 21.7019 23.0352C22.3114 22.4257 23.138 22.0833 24 22.0833H28.4209C28.2919 22.2893 28.1392 22.4817 27.9646 22.6562L27.9644 22.6564L21.3087 29.3135L21.3086 29.3135L21.3084 29.3137ZM2.97474 1.65589C3.86554 0.765094 5.07372 0.264648 6.3335 0.264648H25.6668C26.9266 0.264648 28.1348 0.765093 29.0256 1.65589C29.9164 2.54669 30.4168 3.75487 30.4168 5.01465V20.3587V20.3588C30.4166 21.6184 29.916 22.8263 29.0252 23.7169L29.0251 23.7171L22.3692 30.3743L22.369 30.3745C21.9277 30.8155 21.4038 31.1653 20.8274 31.4038C20.251 31.6423 19.6333 31.7649 19.0095 31.7646H19.0092H6.3335C5.07372 31.7646 3.86554 31.2642 2.97474 30.3734C2.08394 29.4826 1.5835 28.2744 1.5835 27.0146V5.01465C1.5835 3.75487 2.08394 2.54669 2.97474 1.65589ZM8 24.5833C7.58579 24.5833 7.25 24.9191 7.25 25.3333C7.25 25.7475 7.58579 26.0833 8 26.0833H13.3333C13.7475 26.0833 14.0833 25.7475 14.0833 25.3333C14.0833 24.9191 13.7475 24.5833 13.3333 24.5833H8ZM7.25 18.6667C7.25 18.2525 7.58579 17.9167 8 17.9167H18.6667C19.0809 17.9167 19.4167 18.2525 19.4167 18.6667C19.4167 19.0809 19.0809 19.4167 18.6667 19.4167H8C7.58579 19.4167 7.25 19.0809 7.25 18.6667Z" fill="#474445"/>
</svg>
