<svg width="32" height="32" viewBox="0 0 32 32" fill="none" xmlns="http://www.w3.org/2000/svg">
<path fill-rule="evenodd" clip-rule="evenodd" d="M1.75 2.996C1.75 2.30565 2.30964 1.746 3 1.746H29C29.6904 1.746 30.25 2.30565 30.25 2.996V10.996C30.25 11.6864 29.6904 12.246 29 12.246H3C2.30964 12.246 1.75 11.6864 1.75 10.996V2.996ZM3 0.246002C1.48122 0.246002 0.25 1.47722 0.25 2.996V10.996C0.25 12.5148 1.48122 13.746 3 13.746H29C30.5188 13.746 31.75 12.5148 31.75 10.996V2.996C31.75 1.47722 30.5188 0.246002 29 0.246002H3ZM1.75 20.996C1.75 20.3056 2.30964 19.746 3 19.746H29C29.6904 19.746 30.25 20.3056 30.25 20.996V28.996C30.25 29.6864 29.6904 30.246 29 30.246H3C2.30964 30.246 1.75 29.6864 1.75 28.996V20.996ZM3 18.246C1.48122 18.246 0.25 19.4772 0.25 20.996V28.996C0.25 30.5148 1.48122 31.746 3 31.746H29C30.5188 31.746 31.75 30.5148 31.75 28.996V20.996C31.75 19.4772 30.5188 18.246 29 18.246H3Z" fill="#474445"/>
</svg>
