<svg width="32" height="32" viewBox="0 0 32 32" fill="none" xmlns="http://www.w3.org/2000/svg">
<path fill-rule="evenodd" clip-rule="evenodd" d="M2.78005 1.25093C2.79249 1.25031 2.80494 1.25 2.81739 1.25H19.1814C19.1938 1.25 19.2063 1.25031 19.2187 1.25093C19.9227 1.28602 20.5842 1.5985 21.0584 2.12002C21.5286 2.63701 21.7768 3.31772 21.7501 4.01551V10C21.7501 10.4142 21.4143 10.75 21.0001 10.75C20.5858 10.75 20.2501 10.4142 20.2501 10V4C20.2501 3.98873 20.2503 3.97745 20.2508 3.96619C20.2647 3.65821 20.1561 3.35726 19.9487 3.12917C19.7449 2.90513 19.4622 2.76929 19.1604 2.75H2.83838C2.5368 2.76928 2.25427 2.90508 2.05075 3.12905C1.84356 3.35707 1.73516 3.65788 1.74927 3.96564C1.7498 3.97709 1.75006 3.98854 1.75006 4V28C1.75006 28.0113 1.7498 28.0226 1.7493 28.0338C1.73539 28.3417 1.84392 28.6425 2.05116 28.8706C2.25466 29.0945 2.53711 29.2304 2.83865 29.25H19.1604C19.4622 29.2307 19.7449 29.0949 19.9487 28.8708C20.1561 28.6427 20.2647 28.3418 20.2508 28.0338C20.2503 28.0225 20.2501 28.0113 20.2501 28V22C20.2501 21.5858 20.5858 21.25 21.0001 21.25C21.4143 21.25 21.7501 21.5858 21.7501 22V27.9845C21.7768 28.6823 21.5286 29.363 21.0584 29.88C20.5842 30.4015 19.9227 30.714 19.2187 30.7491C19.2063 30.7497 19.1938 30.75 19.1814 30.75H2.81739C2.80477 30.75 2.79214 30.7497 2.77953 30.749C2.07584 30.7135 1.41485 30.4008 0.941012 29.8793C0.471283 29.3624 0.223354 28.6819 0.25006 27.9845V4.01577C0.22294 3.31812 0.470748 2.63739 0.940606 2.1203C1.41464 1.59863 2.07605 1.28602 2.78005 1.25093ZM9.25 16.0053C9.25 15.5911 9.58579 15.2553 10 15.2553H29.1894L25.4697 11.5357C25.1768 11.2428 25.1768 10.7679 25.4697 10.475C25.7626 10.1821 26.2374 10.1821 26.5303 10.475L31.5303 15.475C31.604 15.5486 31.6591 15.6337 31.6957 15.7246C31.7261 15.8 31.7447 15.8815 31.749 15.9667C31.7497 15.9795 31.75 15.9924 31.75 16.0053C31.75 16.1096 31.7287 16.2089 31.6903 16.2992C31.658 16.3749 31.6128 16.4465 31.5544 16.5104C31.5457 16.52 31.5367 16.5293 31.5275 16.5385L26.5303 21.5357C26.2374 21.8285 25.7626 21.8285 25.4697 21.5357C25.1768 21.2428 25.1768 20.7679 25.4697 20.475L29.1893 16.7553H10C9.58579 16.7553 9.25 16.4196 9.25 16.0053Z" fill="#767676"/>
</svg>
