<svg width="32" height="32" viewBox="0 0 32 32" fill="none" xmlns="http://www.w3.org/2000/svg">
<path fill-rule="evenodd" clip-rule="evenodd" d="M3.92794 6.08537C3.95179 6.08402 3.97581 6.08333 4 6.08333H28C28.0244 6.08333 28.0486 6.08403 28.0727 6.08541L18.2191 14.4345C17.5816 14.9202 16.8022 15.1834 16.0005 15.1834C15.1987 15.1834 14.4193 14.9202 13.7818 14.4345L3.92794 6.08537ZM2.77655 7.07584C2.75915 7.15894 2.75 7.24506 2.75 7.33333V24.6667C2.75 25.357 3.30964 25.9167 4 25.9167H28C28.6904 25.9167 29.25 25.357 29.25 24.6667V7.33333C29.25 7.24523 29.2409 7.15927 29.2236 7.07632L19.1747 15.5909C19.1656 15.5985 19.1565 15.6059 19.1471 15.6131C18.245 16.3071 17.1387 16.6834 16.0005 16.6834C14.8623 16.6834 13.756 16.3071 12.8538 15.6131C12.8445 15.6059 12.8353 15.5985 12.8263 15.5909L2.77655 7.07584ZM4 4.58333C2.48122 4.58333 1.25 5.81455 1.25 7.33333V24.6667C1.25 26.1854 2.48122 27.4167 4 27.4167H28C29.5188 27.4167 30.75 26.1854 30.75 24.6667V7.33333C30.75 5.81455 29.5188 4.58333 28 4.58333H4Z" fill="#474445"/>
</svg>
