<svg width="32" height="32" viewBox="0 0 32 32" fill="none" xmlns="http://www.w3.org/2000/svg">
<path d="M15 26V30.5" stroke="#767676" stroke-width="1.5" stroke-linecap="round" stroke-linejoin="round"/>
<path d="M30 10H6.81797C5.60038 10 4.43267 10.456 3.5717 11.2678C2.71074 12.0796 2.22705 13.1806 2.22705 14.3286V24.9179C2.22705 25.2049 2.34797 25.4801 2.56321 25.683C2.77845 25.886 3.07038 26 3.37478 26H30V10Z" stroke="#767676" stroke-width="1.54944" stroke-linecap="round" stroke-linejoin="round"/>
<path d="M15 10V2" stroke="#767676" stroke-width="1.5" stroke-linecap="round" stroke-linejoin="round"/>
<path d="M15 7L23 7L21 4.5L23 2L15 2" stroke="#767676" stroke-width="1.5" stroke-linecap="round" stroke-linejoin="round"/>
<path d="M14.25 21.6667C14.25 22.0809 14.5858 22.4167 15 22.4167C15.4142 22.4167 15.75 22.0809 15.75 21.6667H14.25ZM15 15V14.25C14.5858 14.25 14.25 14.5858 14.25 15H15ZM15 15.75H17.6667V14.25H15V15.75ZM18.25 16.3333V17.6667H19.75V16.3333H18.25ZM15.75 21.6667V19H14.25V21.6667H15.75ZM15.75 19V15H14.25V19H15.75ZM17.6667 18.25H15V19.75H17.6667V18.25ZM18.25 17.6667C18.25 17.9888 17.9888 18.25 17.6667 18.25V19.75C18.8173 19.75 19.75 18.8173 19.75 17.6667H18.25ZM17.6667 15.75C17.9888 15.75 18.25 16.0112 18.25 16.3333H19.75C19.75 15.1827 18.8173 14.25 17.6667 14.25V15.75Z" fill="#767676"/>
</svg>
