<svg width="32" height="32" viewBox="0 0 32 32" fill="none" xmlns="http://www.w3.org/2000/svg">
<path fill-rule="evenodd" clip-rule="evenodd" d="M3.99967 2.08334C2.94113 2.08334 2.08301 2.94146 2.08301 4.00001C2.08301 5.05856 2.94113 5.91668 3.99967 5.91668C5.05822 5.91668 5.91634 5.05856 5.91634 4.00001C5.91634 2.94146 5.05822 2.08334 3.99967 2.08334ZM0.583008 4.00001C0.583008 2.11304 2.1127 0.583344 3.99967 0.583344C5.88665 0.583344 7.41634 2.11304 7.41634 4.00001C7.41634 5.88698 5.88665 7.41668 3.99967 7.41668C2.1127 7.41668 0.583008 5.88698 0.583008 4.00001ZM14.083 4.00001C14.083 2.94146 14.9411 2.08334 15.9997 2.08334C17.0582 2.08334 17.9163 2.94146 17.9163 4.00001C17.9163 5.05856 17.0582 5.91668 15.9997 5.91668C14.9411 5.91668 14.083 5.05856 14.083 4.00001ZM15.9997 0.583344C14.1127 0.583344 12.583 2.11304 12.583 4.00001C12.583 5.88698 14.1127 7.41668 15.9997 7.41668C17.8866 7.41668 19.4163 5.88698 19.4163 4.00001C19.4163 2.11304 17.8866 0.583344 15.9997 0.583344ZM16.7497 10C16.7497 9.5858 16.4139 9.25001 15.9997 9.25001C15.5855 9.25001 15.2497 9.5858 15.2497 10V15.25H4.74967V10.6667C4.74967 10.2525 4.41389 9.91668 3.99967 9.91668C3.58546 9.91668 3.24967 10.2525 3.24967 10.6667V16V19V21.3333C3.24967 21.7476 3.58546 22.0833 3.99967 22.0833C4.41389 22.0833 4.74967 21.7476 4.74967 21.3333V19V16.75H15.2497V21.3333C15.2497 21.7476 15.5855 22.0833 15.9997 22.0833C16.4139 22.0833 16.7497 21.7476 16.7497 21.3333V16.75H26.4997C26.9139 16.75 27.2497 17.0858 27.2497 17.5V21.3333C27.2497 21.7476 27.5855 22.0833 27.9997 22.0833C28.4139 22.0833 28.7497 21.7476 28.7497 21.3333V17.5C28.7497 16.2574 27.7423 15.25 26.4997 15.25H16.7497V10ZM14.083 28C14.083 26.9415 14.9411 26.0833 15.9997 26.0833C17.0582 26.0833 17.9163 26.9415 17.9163 28C17.9163 29.0586 17.0582 29.9167 15.9997 29.9167C14.9411 29.9167 14.083 29.0586 14.083 28ZM15.9997 24.5833C14.1127 24.5833 12.583 26.113 12.583 28C12.583 29.887 14.1127 31.4167 15.9997 31.4167C17.8866 31.4167 19.4163 29.887 19.4163 28C19.4163 26.113 17.8866 24.5833 15.9997 24.5833ZM27.9997 26.0833C26.9411 26.0833 26.083 26.9415 26.083 28C26.083 29.0586 26.9411 29.9167 27.9997 29.9167C29.0582 29.9167 29.9163 29.0586 29.9163 28C29.9163 26.9415 29.0582 26.0833 27.9997 26.0833ZM24.583 28C24.583 26.113 26.1127 24.5833 27.9997 24.5833C29.8866 24.5833 31.4163 26.113 31.4163 28C31.4163 29.887 29.8866 31.4167 27.9997 31.4167C26.1127 31.4167 24.583 29.887 24.583 28ZM2.08301 28C2.08301 26.9415 2.94113 26.0833 3.99967 26.0833C5.05822 26.0833 5.91634 26.9415 5.91634 28C5.91634 29.0586 5.05822 29.9167 3.99967 29.9167C2.94113 29.9167 2.08301 29.0586 2.08301 28ZM3.99967 24.5833C2.1127 24.5833 0.583008 26.113 0.583008 28C0.583008 29.887 2.1127 31.4167 3.99967 31.4167C5.88665 31.4167 7.41634 29.887 7.41634 28C7.41634 26.113 5.88665 24.5833 3.99967 24.5833Z" fill="#474445"/>
</svg>
