<svg width="32" height="32" viewBox="0 0 32 32" fill="none" xmlns="http://www.w3.org/2000/svg">
<path d="M31 12V6.2C31.0001 5.8002 30.8803 5.40956 30.6562 5.07849C30.4321 4.74742 30.1139 4.49112 29.7427 4.34267L21.7427 1.14267C21.2659 0.951997 20.7341 0.951997 20.2573 1.14267L11.7427 4.54933C11.2659 4.74 10.7341 4.74 10.2573 4.54933L2.37201 1.39467C2.21987 1.33369 2.05507 1.31105 1.89212 1.32873C1.72917 1.34641 1.57306 1.40388 1.43754 1.49607C1.30201 1.58826 1.19123 1.71235 1.11494 1.85742C1.03864 2.00249 0.999176 2.16409 1.00001 2.328V21.492C0.999946 21.8918 1.1197 22.2824 1.34382 22.6135C1.56794 22.9446 1.88614 23.2009 2.25735 23.3493L10.2573 26.5493C10.7341 26.74 11.2659 26.74 11.7427 26.5493L15.584 25.012" stroke="#474445" stroke-width="1.5" stroke-linecap="round" stroke-linejoin="round"/>
<path d="M11 4.69202V26.692" stroke="#474445" stroke-width="1.5" stroke-linecap="round" stroke-linejoin="round"/>
<path d="M21 1V11" stroke="#474445" stroke-width="1.5" stroke-linecap="round" stroke-linejoin="round"/>
<path d="M25 20.5987C25.1326 20.5987 25.2598 20.6513 25.3536 20.7451C25.4473 20.8389 25.5 20.9661 25.5 21.0987" stroke="#474445" stroke-width="1.5" stroke-linecap="round" stroke-linejoin="round"/>
<path d="M24.5 21.0987C24.5 20.9661 24.5527 20.8389 24.6464 20.7451C24.7402 20.6513 24.8674 20.5987 25 20.5987" stroke="#474445" stroke-width="1.5" stroke-linecap="round" stroke-linejoin="round"/>
<path d="M25 21.6C24.8674 21.6 24.7402 21.5473 24.6464 21.4536C24.5527 21.3598 24.5 21.2326 24.5 21.1" stroke="#474445" stroke-width="1.5" stroke-linecap="round" stroke-linejoin="round"/>
<path d="M25.5 21.0987C25.5 21.2313 25.4473 21.3584 25.3536 21.4522C25.2598 21.546 25.1326 21.5987 25 21.5987" stroke="#474445" stroke-width="1.5" stroke-linecap="round" stroke-linejoin="round"/>
<path d="M25 15.0987C26.5913 15.0987 28.1174 15.7308 29.2426 16.856C30.3679 17.9812 31 19.5074 31 21.0987C31 23.66 27.416 28.5333 25.788 30.616C25.6945 30.7357 25.5749 30.8325 25.4384 30.8991C25.3018 30.9657 25.1519 31.0003 25 31.0003C24.8481 31.0003 24.6982 30.9657 24.5616 30.8991C24.4251 30.8325 24.3055 30.7357 24.212 30.616C22.584 28.5347 19 23.66 19 21.0987C19 19.5074 19.6321 17.9812 20.7574 16.856C21.8826 15.7308 23.4087 15.0987 25 15.0987Z" stroke="#474445" stroke-width="1.5" stroke-linecap="round" stroke-linejoin="round"/>
</svg>
