<svg width="32" height="32" viewBox="0 0 32 32" fill="none" xmlns="http://www.w3.org/2000/svg">
<path fill-rule="evenodd" clip-rule="evenodd" d="M30.0928 5.94491L21.75 2.60777V11.5C21.75 11.9142 21.4142 12.25 21 12.25C20.5858 12.25 20.25 11.9142 20.25 11.5V2.60777L11.75 6.00777V25.8922L15.7215 24.3036C16.106 24.1498 16.5425 24.3369 16.6964 24.7215C16.8502 25.106 16.6631 25.5425 16.2785 25.6964L11.6499 27.5478C11.2327 27.7147 10.7673 27.7147 10.3501 27.5478L1.35007 23.9478C0.685666 23.682 0.25 23.0385 0.25 22.323V2.97703C0.25 1.73896 1.50042 0.892387 2.64993 1.35219L10.9072 4.65508C10.9668 4.67892 11.0332 4.67892 11.0928 4.65508L20.3501 0.952192C20.7673 0.785304 21.2327 0.785305 21.6499 0.952192L30.6499 4.55219C31.3143 4.81795 31.75 5.46144 31.75 6.17703V12.5C31.75 12.9142 31.4142 13.25 31 13.25C30.5858 13.25 30.25 12.9142 30.25 12.5V6.17703C30.25 6.0748 30.1878 5.98287 30.0928 5.94491ZM10.25 6.00777L2.09285 2.74491C1.92863 2.67922 1.75 2.80016 1.75 2.97703V22.323C1.75 22.4252 1.81224 22.5171 1.90715 22.5551L10.25 25.8922V6.00777ZM25 15.75C22.1005 15.75 19.75 18.1005 19.75 21C19.75 21.6498 20.0402 22.5606 20.5663 23.6292C21.0814 24.6755 21.7789 25.7876 22.4967 26.8124C23.213 27.8352 23.9388 28.756 24.5014 29.4176C24.6906 29.64 24.8588 29.8301 25 29.9831C25.1412 29.8301 25.3094 29.64 25.4986 29.4176C26.0612 28.756 26.787 27.8352 27.5033 26.8124C28.2211 25.7876 28.9186 24.6755 29.4337 23.6292C29.9598 22.5606 30.25 21.6498 30.25 21C30.25 18.1005 27.8995 15.75 25 15.75ZM18.25 21C18.25 17.2721 21.2721 14.25 25 14.25C28.7279 14.25 31.75 17.2721 31.75 21C31.75 22.0071 31.3294 23.1746 30.7795 24.2917C30.2186 25.4311 29.475 26.6119 28.732 27.6729C27.9875 28.7358 27.2329 29.6937 26.6411 30.3894C26.346 30.7364 26.0858 31.0248 25.8836 31.2312C25.7841 31.3327 25.6882 31.4251 25.6033 31.4968C25.5624 31.5314 25.5087 31.5743 25.4486 31.6127C25.4187 31.6318 25.3729 31.6591 25.3156 31.6838C25.2696 31.7037 25.1537 31.75 25 31.75C24.8463 31.75 24.7304 31.7037 24.6844 31.6838C24.6271 31.6591 24.5813 31.6318 24.5514 31.6127C24.4913 31.5743 24.4376 31.5314 24.3967 31.4968C24.3118 31.4251 24.2159 31.3327 24.1164 31.2312C23.9142 31.0248 23.654 30.7364 23.3589 30.3894C22.7671 29.6937 22.0125 28.7358 21.268 27.6729C20.525 26.6119 19.7814 25.4311 19.2205 24.2917C18.6706 23.1746 18.25 22.0071 18.25 21ZM27 21C27 22.1046 26.1046 23 25 23C23.8954 23 23 22.1046 23 21C23 19.8954 23.8954 19 25 19C26.1046 19 27 19.8954 27 21Z" fill="#767676"/>
</svg>
