<svg width="32" height="32" viewBox="0 0 32 32" fill="none" xmlns="http://www.w3.org/2000/svg">
<g clip-path="url(#clip0_964_85)">
<path d="M16.2785 25.6964C16.6631 25.5425 16.8502 25.106 16.6964 24.7215C16.5425 24.3369 16.106 24.1498 15.7215 24.3036L16.2785 25.6964ZM30.25 12.5C30.25 12.9142 30.5858 13.25 31 13.25C31.4142 13.25 31.75 12.9142 31.75 12.5H30.25ZM30.3714 5.24856L30.0928 5.94491L30.3714 5.24856ZM21.3714 1.64856L21.0928 2.34491L21.3714 1.64856ZM10.6286 5.35144L10.9072 4.65509L10.6286 5.35144ZM11.3714 5.35144L11.6499 6.0478L11.3714 5.35144ZM2.37139 2.04856L2.09285 2.74491L2.37139 2.04856ZM1.62861 23.2514L1.35007 23.9478L1.62861 23.2514ZM11.3714 26.8514L11.0928 26.1551L11.3714 26.8514ZM10.6286 26.8514L10.9072 26.1551L10.6286 26.8514ZM15.7215 24.3036L11.0928 26.1551L11.6499 27.5478L16.2785 25.6964L15.7215 24.3036ZM10.9072 26.1551L1.90715 22.5551L1.35007 23.9478L10.3501 27.5478L10.9072 26.1551ZM1.75 22.323V2.97703H0.25V22.323H1.75ZM2.09285 2.74491L10.3501 6.0478L10.9072 4.65509L2.64993 1.3522L2.09285 2.74491ZM11.6499 6.0478L20.9072 2.34491L20.3501 0.952199L11.0928 4.65509L11.6499 6.0478ZM21.0928 2.34491L30.0928 5.94491L30.6499 4.5522L21.6499 0.952199L21.0928 2.34491ZM30.25 6.17703V12.5H31.75V6.17703H30.25ZM30.0928 5.94491C30.1878 5.98288 30.25 6.07481 30.25 6.17703H31.75C31.75 5.46145 31.3143 4.81796 30.6499 4.5522L30.0928 5.94491ZM20.9072 2.34491C20.9668 2.32107 21.0332 2.32107 21.0928 2.34491L21.6499 0.952199C21.2327 0.785311 20.7673 0.785311 20.3501 0.952199L20.9072 2.34491ZM10.3501 6.0478C10.7673 6.21469 11.2327 6.21469 11.6499 6.0478L11.0928 4.65509C11.0332 4.67893 10.9668 4.67893 10.9072 4.65509L10.3501 6.0478ZM1.75 2.97703C1.75 2.80017 1.92863 2.67923 2.09285 2.74491L2.64993 1.3522C1.50042 0.892393 0.25 1.73897 0.25 2.97703H1.75ZM1.90715 22.5551C1.81224 22.5171 1.75 22.4252 1.75 22.323H0.25C0.25 23.0386 0.685666 23.682 1.35007 23.9478L1.90715 22.5551ZM11.0928 26.1551C11.0332 26.1789 10.9668 26.1789 10.9072 26.1551L10.3501 27.5478C10.7673 27.7147 11.2327 27.7147 11.6499 27.5478L11.0928 26.1551Z" fill="#767676"/>
<path d="M11 5.5V26.5" stroke="#767676" stroke-width="1.5" stroke-linecap="round" stroke-linejoin="round"/>
<path d="M21 2.5V11.5" stroke="#767676" stroke-width="1.5" stroke-linecap="round" stroke-linejoin="round"/>
<path d="M31 21C31 24.3137 25.3137 31 25 31C24.6863 31 19 24.3137 19 21C19 17.6863 21.6863 15 25 15C28.3137 15 31 17.6863 31 21Z" stroke="#767676" stroke-width="1.5"/>
<path d="M23.5 22H26.5" stroke="#767676" stroke-width="1.5" stroke-linecap="round"/>
</g>
<defs>
<clipPath id="clip0_964_85">
<rect width="32" height="32" fill="white"/>
</clipPath>
</defs>
</svg>
