<svg width="32" height="32" viewBox="0 0 32 32" fill="none" xmlns="http://www.w3.org/2000/svg">
<path fill-rule="evenodd" clip-rule="evenodd" d="M27.9454 0.46967C27.6525 0.176777 27.1776 0.176777 26.8847 0.46967C26.5918 0.762563 26.5918 1.23744 26.8847 1.53033L29.6044 4.25H7C6.27066 4.25 5.57118 4.53973 5.05546 5.05546C4.53973 5.57118 4.25 6.27066 4.25 7V29.6029L1.53022 26.8842C1.23727 26.5914 0.762397 26.5915 0.469563 26.8845C0.176729 27.1774 0.176825 27.6523 0.469777 27.9451L3.76283 31.2368L3.76311 31.2371C3.92557 31.3996 4.11844 31.5285 4.33071 31.6165C4.53542 31.7013 4.7543 31.7465 4.97571 31.7496C4.98378 31.7499 4.99187 31.75 5 31.75C5.00778 31.75 5.01553 31.7499 5.02326 31.7496C5.24548 31.7468 5.46519 31.7016 5.67062 31.6165C5.88301 31.5285 6.07598 31.3995 6.2385 31.2368L9.53033 27.945C9.82322 27.6521 9.82322 27.1772 9.53033 26.8843C9.23744 26.5914 8.76256 26.5914 8.46967 26.8843L5.75 29.604V7C5.75 6.66848 5.8817 6.35054 6.11612 6.11612C6.35054 5.8817 6.66848 5.75 7 5.75H29.6044L26.8847 8.46967C26.5918 8.76256 26.5918 9.23744 26.8847 9.53033C27.1776 9.82322 27.6525 9.82322 27.9454 9.53033L31.2383 6.23737L31.2385 6.23719L31.2387 6.237C31.4012 6.07466 31.5301 5.88192 31.618 5.66976C31.7061 5.45744 31.7514 5.22984 31.7514 5C31.7514 4.77016 31.7061 4.54256 31.618 4.33024C31.5301 4.11808 31.4012 3.92534 31.2387 3.763L31.2385 3.76281L31.2383 3.76263L27.9454 0.46967ZM31.75 29C31.75 28.5858 31.4142 28.25 31 28.25C30.5858 28.25 30.25 28.5858 30.25 29C30.25 29.3315 30.1183 29.6495 29.8839 29.8839C29.6495 30.1183 29.3315 30.25 29 30.25C28.5858 30.25 28.25 30.5858 28.25 31C28.25 31.4142 28.5858 31.75 29 31.75C29.7293 31.75 30.4288 31.4603 30.9445 30.9445C31.4603 30.4288 31.75 29.7293 31.75 29ZM22.25 31C22.25 30.5858 22.5858 30.25 23 30.25H25C25.4142 30.25 25.75 30.5858 25.75 31C25.75 31.4142 25.4142 31.75 25 31.75H23C22.5858 31.75 22.25 31.4142 22.25 31ZM17 30.25C16.5858 30.25 16.25 30.5858 16.25 31C16.25 31.4142 16.5858 31.75 17 31.75H19C19.4142 31.75 19.75 31.4142 19.75 31C19.75 30.5858 19.4142 30.25 19 30.25H17ZM10.25 31C10.25 30.5858 10.5858 30.25 11 30.25H13C13.4142 30.25 13.75 30.5858 13.75 31C13.75 31.4142 13.4142 31.75 13 31.75H11C10.5858 31.75 10.25 31.4142 10.25 31ZM31.75 23C31.75 22.5858 31.4142 22.25 31 22.25C30.5858 22.25 30.25 22.5858 30.25 23V25C30.25 25.4142 30.5858 25.75 31 25.75C31.4142 25.75 31.75 25.4142 31.75 25V23ZM31 16.25C31.4142 16.25 31.75 16.5858 31.75 17V19C31.75 19.4142 31.4142 19.75 31 19.75C30.5858 19.75 30.25 19.4142 30.25 19V17C30.25 16.5858 30.5858 16.25 31 16.25ZM31.75 11C31.75 10.5858 31.4142 10.25 31 10.25C30.5858 10.25 30.25 10.5858 30.25 11V13C30.25 13.4142 30.5858 13.75 31 13.75C31.4142 13.75 31.75 13.4142 31.75 13V11Z" fill="#474445"/>
</svg>
