<svg width="32" height="32" viewBox="0 0 32 32" fill="none" xmlns="http://www.w3.org/2000/svg">
<path d="M27.415 1L30.7084 4.29333C30.8013 4.38609 30.8749 4.49624 30.9252 4.6175C30.9755 4.73876 31.0014 4.86873 31.0014 5C31.0014 5.13127 30.9755 5.26125 30.9252 5.3825C30.8749 5.50376 30.8013 5.61391 30.7084 5.70667L27.415 9" stroke="#474445" stroke-width="1.5" stroke-linecap="round" stroke-linejoin="round"/>
<path d="M5 31V7C5 6.46957 5.21071 5.96086 5.58579 5.58579C5.96086 5.21071 6.46957 5 7 5H31" stroke="#474445" stroke-width="1.5" stroke-linecap="round" stroke-linejoin="round"/>
<path d="M9 27.4147L5.708 30.7067C5.61513 30.7996 5.50487 30.8733 5.3835 30.9236C5.26213 30.9739 5.13204 30.9998 5.00067 30.9998C4.86929 30.9998 4.7392 30.9739 4.61784 30.9236C4.49647 30.8733 4.3862 30.7996 4.29333 30.7067L1 27.4147" stroke="#474445" stroke-width="1.5" stroke-linecap="round" stroke-linejoin="round"/>
<path d="M29 31C29.5304 31 30.0391 30.7893 30.4142 30.4142C30.7893 30.0391 31 29.5304 31 29" stroke="#474445" stroke-width="1.5" stroke-linecap="round" stroke-linejoin="round"/>
<path d="M25 31H23" stroke="#474445" stroke-width="1.5" stroke-linecap="round" stroke-linejoin="round"/>
<path d="M19 31H17" stroke="#474445" stroke-width="1.5" stroke-linecap="round" stroke-linejoin="round"/>
<path d="M13 31H11" stroke="#474445" stroke-width="1.5" stroke-linecap="round" stroke-linejoin="round"/>
<path d="M31 25V23" stroke="#474445" stroke-width="1.5" stroke-linecap="round" stroke-linejoin="round"/>
<path d="M31 19V17" stroke="#474445" stroke-width="1.5" stroke-linecap="round" stroke-linejoin="round"/>
<path d="M31 13V11" stroke="#474445" stroke-width="1.5" stroke-linecap="round" stroke-linejoin="round"/>
</svg>
