<svg width="32" height="32" viewBox="0 0 32 32" fill="none" xmlns="http://www.w3.org/2000/svg">
<path d="M29 25H15L7 31V25H3C2.46957 25 1.96086 24.7893 1.58579 24.4142C1.21071 24.0391 1 23.5304 1 23V3C1 2.46957 1.21071 1.96086 1.58579 1.58579C1.96086 1.21071 2.46957 1 3 1H29C29.5304 1 30.0391 1.21071 30.4142 1.58579C30.7893 1.96086 31 2.46957 31 3V23C31 23.5304 30.7893 24.0391 30.4142 24.4142C30.0391 24.7893 29.5304 25 29 25Z" stroke="#71717A" stroke-width="1.5" stroke-linecap="round" stroke-linejoin="round"/>
<path d="M7.50781 9.64075C7.75374 9.15221 8.12947 8.74059 8.59404 8.45122C9.0668 8.15675 9.61262 8.00066 10.1696 8.00066C10.7266 8.00066 11.2724 8.15675 11.7451 8.45122C12.2097 8.74059 12.5854 9.15221 12.8314 9.64075" stroke="#71717A" stroke-width="1.5" stroke-linecap="round" stroke-linejoin="round"/>
<path d="M19.499 9.64038C19.7449 9.152 20.1206 8.74052 20.5851 8.45122C21.0578 8.15675 21.6036 8.00066 22.1606 8.00066C22.7176 8.00066 23.2634 8.15675 23.7362 8.45122C24.2006 8.74052 24.5763 9.152 24.8222 9.64038" stroke="#71717A" stroke-width="1.5" stroke-linecap="round" stroke-linejoin="round"/>
<path d="M21.3054 17.0206C19.897 18.2945 18.0653 19.0002 16.1654 19.0002C14.2656 19.0002 12.4339 18.2945 11.0254 17.0206" stroke="#71717A" stroke-width="1.5" stroke-linecap="round" stroke-linejoin="round"/>
</svg>
