<svg width="32" height="32" viewBox="0 0 32 32" fill="none" xmlns="http://www.w3.org/2000/svg">
<path fill-rule="evenodd" clip-rule="evenodd" d="M2.11612 2.11612C2.35054 1.8817 2.66848 1.75 3 1.75H29C29.3315 1.75 29.6495 1.8817 29.8839 2.11612C30.1183 2.35054 30.25 2.66848 30.25 3V23C30.25 23.3315 30.1183 23.6495 29.8839 23.8839C29.6495 24.1183 29.3315 24.25 29 24.25H15C14.8377 24.25 14.6798 24.3026 14.55 24.4L7.75 29.5V25C7.75 24.5858 7.41421 24.25 7 24.25H3C2.66848 24.25 2.35054 24.1183 2.11612 23.8839C1.8817 23.6495 1.75 23.3315 1.75 23V3C1.75 2.66848 1.8817 2.35054 2.11612 2.11612ZM3 0.25C2.27065 0.25 1.57118 0.539731 1.05546 1.05546C0.539731 1.57118 0.25 2.27065 0.25 3V23C0.25 23.7293 0.539732 24.4288 1.05546 24.9445C1.57118 25.4603 2.27065 25.75 3 25.75H6.25V31C6.25 31.2841 6.4105 31.5438 6.66459 31.6708C6.91868 31.7979 7.22274 31.7704 7.45 31.6L15.25 25.75H29C29.7293 25.75 30.4288 25.4603 30.9445 24.9445C31.4603 24.4288 31.75 23.7293 31.75 23V3C31.75 2.27065 31.4603 1.57118 30.9445 1.05546C30.4288 0.539732 29.7293 0.25 29 0.25H3ZM8.6665 14.6667C9.77107 14.6667 10.6665 13.7712 10.6665 12.6667C10.6665 11.5621 9.77107 10.6667 8.6665 10.6667C7.56193 10.6667 6.6665 11.5621 6.6665 12.6667C6.6665 13.7712 7.56193 14.6667 8.6665 14.6667ZM18 12.6667C18 13.7712 17.1046 14.6667 16 14.6667C14.8954 14.6667 14 13.7712 14 12.6667C14 11.5621 14.8954 10.6667 16 10.6667C17.1046 10.6667 18 11.5621 18 12.6667ZM23.3335 14.6667C24.4381 14.6667 25.3335 13.7712 25.3335 12.6667C25.3335 11.5621 24.4381 10.6667 23.3335 10.6667C22.2289 10.6667 21.3335 11.5621 21.3335 12.6667C21.3335 13.7712 22.2289 14.6667 23.3335 14.6667Z" fill="#767676"/>
</svg>
