<svg width="32" height="32" viewBox="0 0 32 32" fill="none" xmlns="http://www.w3.org/2000/svg">
<path d="M29 25H15L7 31V25H3C2.46957 25 1.96086 24.7893 1.58579 24.4142C1.21071 24.0391 1 23.5304 1 23V3C1 2.46957 1.21071 1.96086 1.58579 1.58579C1.96086 1.21071 2.46957 1 3 1H29C29.5304 1 30.0391 1.21071 30.4142 1.58579C30.7893 1.96086 31 2.46957 31 3V23C31 23.5304 30.7893 24.0391 30.4142 24.4142C30.0391 24.7893 29.5304 25 29 25Z" stroke="#474445" stroke-width="1.5" stroke-linecap="round" stroke-linejoin="round"/>
<path d="M12.8445 9.66667C12.5989 9.16677 12.2181 8.7457 11.7453 8.45122C11.2726 8.15675 10.7268 8.00066 10.1698 8.00066C9.61281 8.00066 9.06699 8.15675 8.59423 8.45122C8.12148 8.7457 7.7407 9.16677 7.49512 9.66667" stroke="#474445" stroke-width="1.5" stroke-linecap="round" stroke-linejoin="round"/>
<path d="M24.8357 9.66667C24.5901 9.16677 24.2093 8.7457 23.7365 8.45122C23.2638 8.15675 22.718 8.00066 22.161 8.00066C21.604 8.00066 21.0582 8.15675 20.5854 8.45122C20.1127 8.7457 19.7319 9.16677 19.4863 9.66667" stroke="#474445" stroke-width="1.5" stroke-linecap="round" stroke-linejoin="round"/>
<path d="M11.0029 17C12.4144 18.2869 14.2556 19.0002 16.1656 19.0002C18.0756 19.0002 19.9168 18.2869 21.3283 17" stroke="#474445" stroke-width="1.5" stroke-linecap="round" stroke-linejoin="round"/>
</svg>
