<svg width="32" height="32" viewBox="0 0 32 32" fill="none" xmlns="http://www.w3.org/2000/svg">
<path fill-rule="evenodd" clip-rule="evenodd" d="M2.11612 2.11612C2.35054 1.8817 2.66848 1.75 3 1.75H29C29.3315 1.75 29.6495 1.8817 29.8839 2.11612C30.1183 2.35054 30.25 2.66848 30.25 3V23C30.25 23.3315 30.1183 23.6495 29.8839 23.8839C29.6495 24.1183 29.3315 24.25 29 24.25H15C14.8377 24.25 14.6798 24.3026 14.55 24.4L7.75 29.5V25C7.75 24.5858 7.41421 24.25 7 24.25H3C2.66848 24.25 2.35054 24.1183 2.11612 23.8839C1.8817 23.6495 1.75 23.3315 1.75 23V3C1.75 2.66848 1.8817 2.35054 2.11612 2.11612ZM3 0.25C2.27065 0.25 1.57118 0.539731 1.05546 1.05546C0.539731 1.57118 0.25 2.27065 0.25 3V23C0.25 23.7293 0.539732 24.4288 1.05546 24.9445C1.57118 25.4603 2.27065 25.75 3 25.75H6.25V31C6.25 31.2841 6.4105 31.5438 6.66459 31.6708C6.91868 31.7979 7.22274 31.7704 7.45 31.6L15.25 25.75H29C29.7293 25.75 30.4288 25.4603 30.9445 24.9445C31.4603 24.4288 31.75 23.7293 31.75 23V3C31.75 2.27065 31.4603 1.57118 30.9445 1.05546C30.4288 0.539732 29.7293 0.25 29 0.25H3ZM10.1698 7.25066C9.47264 7.25066 8.78944 7.44603 8.1977 7.81462C7.60596 8.18321 7.12936 8.71025 6.82196 9.33597C6.63932 9.70774 6.79264 10.1572 7.16442 10.3398C7.53619 10.5225 7.98563 10.3691 8.16827 9.99737C8.35205 9.62328 8.63699 9.30819 8.99076 9.08782C9.34454 8.86746 9.75299 8.75066 10.1698 8.75066C10.5866 8.75066 10.995 8.86746 11.3488 9.08782C11.7026 9.30819 11.9875 9.62328 12.1713 9.99737C12.3539 10.3691 12.8034 10.5225 13.1752 10.3398C13.5469 10.1572 13.7002 9.70774 13.5176 9.33597C13.2102 8.71025 12.7336 8.18321 12.1419 7.81462C11.5501 7.44603 10.8669 7.25066 10.1698 7.25066ZM20.1889 7.81462C20.7807 7.44603 21.4638 7.25066 22.161 7.25066C22.8581 7.25066 23.5413 7.44603 24.1331 7.81462C24.7248 8.18321 25.2014 8.71025 25.5088 9.33597C25.6915 9.70774 25.5381 10.1572 25.1664 10.3398C24.7946 10.5225 24.3451 10.3691 24.1625 9.99737C23.9787 9.62328 23.6938 9.30819 23.34 9.08782C22.9862 8.86746 22.5778 8.75066 22.161 8.75066C21.7442 8.75066 21.3358 8.86746 20.982 9.08782C20.6282 9.30819 20.3433 9.62328 20.1595 9.99737C19.9768 10.3691 19.5274 10.5225 19.1556 10.3398C18.7839 10.1572 18.6305 9.70774 18.8132 9.33597C19.1206 8.71025 19.5972 8.18321 20.1889 7.81462ZM11.5082 16.4458C11.2021 16.1667 10.7278 16.1886 10.4487 16.4947C10.1696 16.8008 10.1915 17.2752 10.4976 17.5542C12.0472 18.9671 14.0686 19.7502 16.1656 19.7502C18.2626 19.7502 20.284 18.9671 21.8336 17.5542C22.1397 17.2752 22.1616 16.8008 21.8825 16.4947C21.6034 16.1886 21.129 16.1667 20.823 16.4458C19.5497 17.6067 17.8887 18.2502 16.1656 18.2502C14.4425 18.2502 12.7815 17.6067 11.5082 16.4458Z" fill="#767676"/>
</svg>
