<svg width="32" height="32" viewBox="0 0 32 32" fill="none" xmlns="http://www.w3.org/2000/svg">
<path d="M5.6665 30.972L16.9998 12.972C17.1569 12.7676 17.3588 12.6021 17.5899 12.4881C17.8211 12.3742 18.0754 12.3149 18.3332 12.3149C18.5909 12.3149 18.8452 12.3742 19.0764 12.4881C19.3076 12.6021 19.5095 12.7676 19.6665 12.972L30.9998 30.972H5.6665Z" stroke="#474445" stroke-width="1.5" stroke-linecap="round" stroke-linejoin="round"/>
<path d="M5.66667 30.972H1L6 21.972L8.9 25.8373" stroke="#474445" stroke-width="1.5" stroke-linecap="round" stroke-linejoin="round"/>
<path d="M11.6001 21.5493L14.7308 24.18C14.986 24.396 15.3132 24.5083 15.6473 24.4945C15.9815 24.4806 16.2982 24.3417 16.5348 24.1053L17.3908 23.248C17.6408 22.998 17.9799 22.8576 18.3334 22.8576C18.687 22.8576 19.0261 22.998 19.2761 23.248L20.1321 24.1053C20.3686 24.3417 20.6854 24.4806 21.0195 24.4945C21.3537 24.5083 21.6808 24.396 21.9361 24.18L25.0668 21.5493" stroke="#474445" stroke-width="1.5" stroke-linecap="round" stroke-linejoin="round"/>
<path d="M18 12.356V0.971985" stroke="#474445" stroke-width="1.5" stroke-linecap="round" stroke-linejoin="round"/>
<path d="M18 0.971985H27.5907C27.7216 0.972649 27.8495 1.01064 27.9596 1.08149C28.0697 1.15234 28.1572 1.25311 28.212 1.37198C28.2684 1.49088 28.2905 1.6232 28.2756 1.75398C28.2608 1.88475 28.2096 2.00876 28.128 2.11198L26.612 4.03465C26.5143 4.15947 26.4611 4.31344 26.4611 4.47198C26.4611 4.63053 26.5143 4.7845 26.612 4.90932L28.1333 6.83465C28.215 6.93815 28.2661 7.06238 28.2809 7.19336C28.2957 7.32433 28.2737 7.45685 28.2173 7.57599C28.1627 7.69496 28.0751 7.79582 27.9651 7.86669C27.855 7.93756 27.7269 7.97548 27.596 7.97598H18" stroke="#474445" stroke-width="1.5" stroke-linecap="round" stroke-linejoin="round"/>
</svg>
