<svg width="32" height="32" viewBox="0 0 32 32" fill="none" xmlns="http://www.w3.org/2000/svg">
<path fill-rule="evenodd" clip-rule="evenodd" d="M17.25 0.971985C17.25 0.557771 17.5858 0.221985 18 0.221985H27.5945C27.868 0.223383 28.1355 0.30278 28.3656 0.450868C28.5944 0.598172 28.7767 0.807361 28.8913 1.0541C29.0065 1.29847 29.0513 1.5701 29.0208 1.83857C28.9902 2.10818 28.8849 2.36386 28.7166 2.57675L27.2223 4.47196L28.7218 6.36967C28.8899 6.58281 28.9956 6.8392 29.0261 7.10891C29.0565 7.3772 29.0118 7.64863 28.8971 7.89297C28.7826 8.1402 28.6002 8.34981 28.371 8.49731C28.1407 8.64559 27.8728 8.72493 27.5989 8.72598L27.596 8.72598H18.75V11.6009C18.9777 11.6406 19.1993 11.7126 19.4079 11.8154C19.7422 11.9801 20.0342 12.2196 20.2613 12.5151C20.2755 12.5336 20.2888 12.5527 20.3012 12.5724L31.6345 30.5724C31.78 30.8035 31.7884 31.0954 31.6564 31.3345C31.5244 31.5736 31.2729 31.722 30.9998 31.722H5.6665L5.65972 31.722H1C0.73426 31.722 0.488361 31.5814 0.353597 31.3523C0.218833 31.1233 0.215327 30.8401 0.344382 30.6078L5.34438 21.6078C5.46779 21.3856 5.6953 21.2411 5.94883 21.2237C6.20236 21.2064 6.44742 21.3186 6.59993 21.5219L8.84565 24.5152L16.3652 12.5724C16.3776 12.5527 16.3909 12.5336 16.4051 12.5151C16.6302 12.222 16.9192 11.9842 17.25 11.8196V0.971985ZM18.75 7.22598V1.72198H27.4804L26.0231 3.57028L26.0215 3.57225C25.8204 3.82905 25.7111 4.14582 25.7111 4.47198C25.7111 4.79815 25.8204 5.11492 26.0215 5.37172L26.0235 5.3743L27.4867 7.22598H18.75ZM18.227 13.071C18.177 13.0869 18.1247 13.0977 18.0707 13.1027C18.0195 13.1177 17.9696 13.1372 17.9215 13.1609C17.8023 13.2196 17.6973 13.303 17.6132 13.4055L12.5826 21.3953L15.2133 23.6058L15.2153 23.6075C15.327 23.7021 15.4701 23.7512 15.6163 23.7451C15.7624 23.7391 15.9009 23.6784 16.0043 23.5751L16.86 22.7181C17.2507 22.3275 17.781 22.1076 18.3334 22.1076C18.8859 22.1076 19.4157 22.327 19.8063 22.7176L20.6623 23.5749C20.7657 23.678 20.9046 23.7391 21.0506 23.7451C21.1967 23.7512 21.3399 23.7021 21.4515 23.6075L21.4536 23.6058L24.0839 21.3956L19.0532 13.4055C18.9691 13.303 18.864 13.2196 18.7449 13.1609C18.6168 13.0978 18.4759 13.0649 18.3332 13.0649C18.2976 13.0649 18.2622 13.067 18.227 13.071ZM24.8907 22.6769L22.4206 24.7524L22.4194 24.7535C22.0207 25.0904 21.5101 25.2654 20.9885 25.2438C20.4664 25.2222 19.9715 25.0052 19.6019 24.6358L18.7458 23.7784C18.6365 23.669 18.4881 23.6076 18.3334 23.6076C18.1789 23.6076 18.0306 23.669 17.9212 23.7782L17.0655 24.6352C16.6959 25.0046 16.2005 25.2222 15.6783 25.2438C15.1567 25.2654 14.646 25.0904 14.2473 24.7534L11.7758 22.6766L9.55089 26.2103C9.54056 26.2284 9.52944 26.246 9.51753 26.2633L7.02501 30.222H29.6413L24.8907 22.6769ZM6.09404 23.3471L7.99 25.8741L5.25246 30.222H2.27464L6.09404 23.3471Z" fill="#474445"/>
</svg>
