<svg width="32" height="32" viewBox="0 0 32 32" fill="none" xmlns="http://www.w3.org/2000/svg">
<path d="M5.60205 31.0658L4.96738 30.6662C4.82187 30.8973 4.81348 31.1892 4.94547 31.4283C5.07745 31.6673 5.32896 31.8158 5.60205 31.8158V31.0658ZM17.0062 12.9533L16.4115 12.4964C16.3973 12.5149 16.3839 12.534 16.3715 12.5537L17.0062 12.9533ZM19.6895 12.9533L20.3242 12.5537C20.3118 12.534 20.2985 12.5149 20.2843 12.4964L19.6895 12.9533ZM31.0937 31.0658V31.8158C31.3668 31.8158 31.6183 31.6673 31.7503 31.4283C31.8823 31.1892 31.8739 30.8973 31.7284 30.6662L31.0937 31.0658ZM6.23673 31.4654L17.6409 13.3529L16.3715 12.5537L4.96738 30.6662L6.23673 31.4654ZM17.601 13.4102C17.6889 13.2957 17.802 13.203 17.9315 13.1391L17.2685 11.7936C16.9327 11.9591 16.6395 12.1996 16.4115 12.4964L17.601 13.4102ZM17.9315 13.1391C18.0611 13.0753 18.2035 13.0421 18.3479 13.0421V11.5421C17.9736 11.5421 17.6042 11.6282 17.2685 11.7936L17.9315 13.1391ZM18.3479 13.0421C18.4923 13.0421 18.6347 13.0753 18.7642 13.1391L19.4273 11.7936C19.0915 11.6282 18.7222 11.5421 18.3479 11.5421V13.0421ZM18.7642 13.1391C18.8937 13.203 19.0068 13.2957 19.0948 13.4102L20.2843 12.4964C20.0563 12.1996 19.763 11.9591 19.4273 11.7936L18.7642 13.1391ZM19.0549 13.3529L30.459 31.4654L31.7284 30.6662L20.3242 12.5537L19.0549 13.3529ZM31.0937 30.3158H5.60205V31.8158H31.0937V30.3158Z" fill="#767676"/>
<path d="M5.60207 31.8158C6.01629 31.8158 6.35207 31.48 6.35207 31.0658C6.35207 30.6515 6.01629 30.3158 5.60207 30.3158L5.60207 31.8158ZM0.90625 31.0658L0.250632 30.7015C0.121577 30.9338 0.125083 31.2171 0.259847 31.4461C0.394611 31.6751 0.640511 31.8158 0.906251 31.8158L0.90625 31.0658ZM5.9375 22.0095L6.53742 21.5594C6.38492 21.3562 6.13985 21.2439 5.88633 21.2613C5.6328 21.2786 5.40529 21.4231 5.28188 21.6453L5.9375 22.0095ZM8.2557 26.3491C8.50428 26.6804 8.97439 26.7475 9.30572 26.4989C9.63705 26.2504 9.70413 25.7802 9.45555 25.4489L8.2557 26.3491ZM5.60207 30.3158L0.906249 30.3158L0.906251 31.8158L5.60207 31.8158L5.60207 30.3158ZM1.56187 31.43L6.59312 22.3738L5.28188 21.6453L0.250632 30.7015L1.56187 31.43ZM5.33757 22.4596L8.2557 26.3491L9.45555 25.4489L6.53742 21.5594L5.33757 22.4596Z" fill="#767676"/>
<path d="M12.0552 21.01C11.7381 20.7435 11.265 20.7846 10.9986 21.1017C10.7321 21.4188 10.7731 21.8919 11.0903 22.1584L12.0552 21.01ZM14.723 24.2313L15.2075 23.6588L15.2055 23.6571L14.723 24.2313ZM16.5383 24.1561L17.0685 24.6866L17.069 24.6861L16.5383 24.1561ZM17.3996 23.2935L16.8694 22.763L16.8689 22.7635L17.3996 23.2935ZM19.2967 23.2935L19.8275 22.7635L19.827 22.763L19.2967 23.2935ZM20.1581 24.1561L19.6273 24.6861L19.6279 24.6866L20.1581 24.1561ZM21.9733 24.2313L21.4909 23.6571L21.4888 23.6588L21.9733 24.2313ZM25.6061 22.1584C25.9232 21.8919 25.9642 21.4188 25.6978 21.1017C25.4313 20.7846 24.9582 20.7435 24.6411 21.01L25.6061 22.1584ZM11.0903 22.1584L14.2405 24.8055L15.2055 23.6571L12.0552 21.01L11.0903 22.1584ZM14.2384 24.8037C14.6389 25.1427 15.1521 25.3188 15.6763 25.2971L15.6143 23.7984C15.466 23.8045 15.3208 23.7547 15.2075 23.6588L14.2384 24.8037ZM15.6763 25.2971C16.2005 25.2754 16.6974 25.0575 17.0685 24.6866L16.0081 23.6257C15.9031 23.7306 15.7625 23.7922 15.6143 23.7984L15.6763 25.2971ZM17.069 24.6861L17.9304 23.8234L16.8689 22.7635L16.0075 23.6262L17.069 24.6861ZM17.9299 23.8239C18.0408 23.7129 18.1913 23.6506 18.3482 23.6506V22.1506C17.7935 22.1506 17.2616 22.3709 16.8694 22.763L17.9299 23.8239ZM18.3482 23.6506C18.5051 23.6506 18.6555 23.7129 18.7665 23.8239L19.827 22.763C19.4347 22.3709 18.9028 22.1506 18.3482 22.1506V23.6506ZM18.766 23.8234L19.6273 24.6861L20.6888 23.6262L19.8275 22.7635L18.766 23.8234ZM19.6279 24.6866C19.9989 25.0575 20.4958 25.2754 21.02 25.2971L21.0821 23.7984C20.9338 23.7922 20.7932 23.7306 20.6883 23.6257L19.6279 24.6866ZM21.02 25.2971C21.5442 25.3188 22.0574 25.1427 22.4579 24.8037L21.4888 23.6588C21.3755 23.7547 21.2304 23.8045 21.0821 23.7984L21.02 25.2971ZM22.4558 24.8055L25.6061 22.1584L24.6411 21.01L21.4909 23.6571L22.4558 24.8055Z" fill="#767676"/>
<path d="M17.2622 12.3334C17.2622 12.7477 17.598 13.0834 18.0122 13.0834C18.4264 13.0834 18.7622 12.7477 18.7622 12.3334H17.2622ZM18.7622 0.878296C18.7622 0.464082 18.4264 0.128296 18.0122 0.128296C17.598 0.128296 17.2622 0.464082 17.2622 0.878296H18.7622ZM18.7622 12.3334V0.878296H17.2622V12.3334H18.7622Z" fill="#767676"/>
<path d="M18.0122 0.128296C17.598 0.128296 17.2622 0.464082 17.2622 0.878296C17.2622 1.29251 17.598 1.6283 18.0122 1.6283V0.128296ZM27.6628 0.878296L27.6666 0.128296H27.6628V0.878296ZM28.288 1.2808L27.6069 1.59476L27.6105 1.60238L28.288 1.2808ZM28.2035 2.02542L27.6153 1.56015L27.6146 1.56104L28.2035 2.02542ZM26.678 3.9601L26.0891 3.49572L26.0875 3.4977L26.678 3.9601ZM26.678 4.84024L26.0875 5.30265L26.0896 5.30522L26.678 4.84024ZM28.2089 6.7776L28.7978 6.31318L28.7973 6.31262L28.2089 6.7776ZM28.2934 7.52357L27.6155 7.20266L27.6119 7.21047L28.2934 7.52357ZM27.6682 7.92607V8.67607L27.6711 8.67606L27.6682 7.92607ZM18.0122 7.17607C17.598 7.17607 17.2622 7.51185 17.2622 7.92607C17.2622 8.34028 17.598 8.67607 18.0122 8.67607V7.17607ZM18.0122 1.6283H27.6628V0.128296H18.0122V1.6283ZM27.659 1.62829C27.648 1.62823 27.6373 1.62504 27.6281 1.6191L28.44 0.357863C28.2093 0.209333 27.941 0.129698 27.6666 0.128306L27.659 1.62829ZM27.6281 1.6191C27.6188 1.61316 27.6115 1.60471 27.6069 1.59474L28.9692 0.966852C28.8543 0.717657 28.6707 0.506394 28.44 0.357863L27.6281 1.6191ZM27.6105 1.60238C27.6073 1.5956 27.606 1.58804 27.6068 1.58058L29.0973 1.74977C29.128 1.47912 29.0824 1.20528 28.9656 0.959207L27.6105 1.60238ZM27.6068 1.58058C27.6077 1.57312 27.6106 1.56604 27.6153 1.56015L28.7917 2.49069C28.9607 2.27706 29.0665 2.02041 29.0973 1.74977L27.6068 1.58058ZM27.6146 1.56104L26.0891 3.49573L27.267 4.42448L28.7924 2.4898L27.6146 1.56104ZM26.0875 3.4977C25.8858 3.75528 25.7762 4.07301 25.7762 4.40017H27.2762C27.2762 4.40827 27.2735 4.41613 27.2685 4.42251L26.0875 3.4977ZM25.7762 4.40017C25.7762 4.72733 25.8858 5.04506 26.0875 5.30264L27.2685 4.37783C27.2735 4.38421 27.2762 4.39207 27.2762 4.40017H25.7762ZM26.0896 5.30522L27.6204 7.24259L28.7973 6.31262L27.2665 4.37525L26.0896 5.30522ZM27.62 7.24203C27.6156 7.23653 27.6129 7.22994 27.6121 7.22299L29.1026 7.05411C29.0719 6.78358 28.9664 6.52697 28.7978 6.31318L27.62 7.24203ZM27.6121 7.22299C27.6113 7.21604 27.6125 7.20901 27.6155 7.20268L28.9713 7.84445C29.0878 7.59836 29.1332 7.32464 29.1026 7.05411L27.6121 7.22299ZM27.6119 7.21047C27.6166 7.20023 27.6241 7.19156 27.6336 7.18547L28.4455 8.44671C28.6765 8.29799 28.8602 8.08633 28.9749 7.83667L27.6119 7.21047ZM27.6336 7.18547C27.643 7.17938 27.654 7.17612 27.6653 7.17607L27.6711 8.67606C27.9458 8.67501 28.2145 8.59543 28.4455 8.44671L27.6336 7.18547ZM27.6682 7.17607H18.0122V8.67607H27.6682V7.17607Z" fill="#767676"/>
</svg>
