<svg width="24" height="24" viewBox="0 0 24 24" fill="none" xmlns="http://www.w3.org/2000/svg">
<path d="M18.5 9.25H21.75C22.1478 9.25 22.5294 9.40804 22.8107 9.68934C23.092 9.97064 23.25 10.3522 23.25 10.75V13.75C23.25 14.1478 23.092 14.5294 22.8107 14.8107C22.5294 15.092 22.1478 15.25 21.75 15.25H12.5" stroke="#474445" stroke-width="1.5" stroke-linecap="round" stroke-linejoin="round"/>
<path d="M5.25 15.25H3.75V9.25H11.25" stroke="#474445" stroke-width="1.5" stroke-linecap="round" stroke-linejoin="round"/>
<path d="M0.75 9.25V15.25" stroke="#474445" stroke-width="1.5" stroke-linecap="round" stroke-linejoin="round"/>
<path d="M0.75 23.25L23.25 0.75" stroke="#474445" stroke-width="1.5" stroke-linecap="round" stroke-linejoin="round"/>
<path d="M5.25 0.75C5.25 1.54565 4.93393 2.30871 4.37132 2.87132C3.80871 3.43393 3.04565 3.75 2.25 3.75C1.85218 3.75 1.47064 3.90804 1.18934 4.18934C0.908035 4.47064 0.75 4.85218 0.75 5.25" stroke="#474445" stroke-width="1.5" stroke-linecap="round" stroke-linejoin="round"/>
</svg>
