<svg width="24" height="24" viewBox="0 0 24 24" fill="none" xmlns="http://www.w3.org/2000/svg">
<path fill-rule="evenodd" clip-rule="evenodd" d="M4.90165 3.40165C5.60491 2.69839 6 1.74456 6 0.75C6 0.335786 5.66421 0 5.25 0C4.83579 0 4.5 0.335786 4.5 0.75C4.5 1.34674 4.26295 1.91903 3.84099 2.34099C3.41903 2.76295 2.84674 3 2.25 3C1.65326 3 1.08097 3.23705 0.65901 3.65901C0.237053 4.08097 0 4.65326 0 5.25C0 5.66421 0.335786 6 0.75 6C1.16421 6 1.5 5.66421 1.5 5.25C1.5 5.05109 1.57902 4.86032 1.71967 4.71967C1.86032 4.57902 2.05109 4.5 2.25 4.5C3.24456 4.5 4.19839 4.10491 4.90165 3.40165ZM22.7197 0.21967C23.0126 -0.0732233 23.4874 -0.0732233 23.7803 0.21967C24.0732 0.512563 24.0732 0.987437 23.7803 1.28033L1.28033 23.7803C0.987437 24.0732 0.512563 24.0732 0.21967 23.7803C-0.0732233 23.4874 -0.0732233 23.0126 0.21967 22.7197L22.7197 0.21967ZM1.5 9.25C1.5 8.83579 1.16421 8.5 0.75 8.5C0.335786 8.5 0 8.83579 0 9.25V15.25C0 15.6642 0.335786 16 0.75 16C1.16421 16 1.5 15.6642 1.5 15.25V9.25ZM3 9.25C3 8.83579 3.33579 8.5 3.75 8.5H11.25C11.6642 8.5 12 8.83579 12 9.25C12 9.66421 11.6642 10 11.25 10H4.5V14.5H5.25C5.66421 14.5 6 14.8358 6 15.25C6 15.6642 5.66421 16 5.25 16H3.75C3.33579 16 3 15.6642 3 15.25V9.25ZM17.75 9.25C17.75 8.83579 18.0858 8.5 18.5 8.5H21.75C22.3467 8.5 22.919 8.73705 23.341 9.15901C23.7629 9.58097 24 10.1533 24 10.75V13.75C24 14.3467 23.7629 14.919 23.341 15.341C22.919 15.7629 22.3467 16 21.75 16H12.5C12.0858 16 11.75 15.6642 11.75 15.25C11.75 14.8358 12.0858 14.5 12.5 14.5H21.75C21.9489 14.5 22.1397 14.421 22.2803 14.2803C22.421 14.1397 22.5 13.9489 22.5 13.75V10.75C22.5 10.5511 22.421 10.3603 22.2803 10.2197C22.1397 10.079 21.9489 10 21.75 10H18.5C18.0858 10 17.75 9.66421 17.75 9.25Z" fill="#767676"/>
</svg>
