<svg width="32" height="32" viewBox="0 0 32 32" fill="none" xmlns="http://www.w3.org/2000/svg">
<path fill-rule="evenodd" clip-rule="evenodd" d="M1.75 16C1.75 8.12994 8.12994 1.75 16 1.75C23.8701 1.75 30.25 8.12994 30.25 16C30.25 23.8701 23.8701 30.25 16 30.25C8.12994 30.25 1.75 23.8701 1.75 16ZM16 0.25C7.30152 0.25 0.25 7.30152 0.25 16C0.25 24.6985 7.30152 31.75 16 31.75C24.6985 31.75 31.75 24.6985 31.75 16C31.75 7.30152 24.6985 0.25 16 0.25ZM19.7379 17.7455C19.7379 17.2427 19.6189 16.8279 19.38 16.5022L19.379 16.5011C19.139 16.1743 18.8001 15.9389 18.3634 15.7972C18.7107 15.668 18.9843 15.4589 19.1843 15.1653C19.3821 14.8727 19.4811 14.5071 19.4811 14.0728C19.4811 13.4192 19.2727 12.9119 18.8538 12.5462C18.4381 12.1828 17.9045 12 17.2541 12H14.1335C13.983 12 13.8683 12.0434 13.7893 12.1303C13.7104 12.216 13.6715 12.3417 13.6715 12.5074V19.4926C13.6715 19.6572 13.7104 19.7829 13.7893 19.8697C13.8683 19.9554 13.983 19.9989 14.1335 19.9989H17.4698C18.1613 19.9989 18.7117 19.8 19.1222 19.4024C19.5326 19.0024 19.7379 18.4517 19.7379 17.7455ZM11.1466 12.0009C10.995 12.0009 10.8813 12.0443 10.8024 12.13L10.7982 12.1311C10.7193 12.2168 10.6793 12.3425 10.6793 12.5082V14.5696C10.6793 15.6952 10.694 16.6162 10.7214 17.3292C10.5172 16.9087 10.1562 16.2448 9.64364 15.3352L7.97022 12.3391C7.9018 12.218 7.82498 12.1323 7.73867 12.0808C7.65342 12.0271 7.54923 12.0009 7.42609 12.0009H6.46203C6.31153 12.0009 6.19681 12.0443 6.11788 12.1311C6.03894 12.2168 6 12.3425 6 12.5082V19.4935C6 19.658 6.03894 19.7837 6.11788 19.8706C6.19681 19.9563 6.31153 19.9997 6.46308 19.9997H7.15034C7.30085 19.9997 7.41557 19.9563 7.49555 19.8694C7.57449 19.7837 7.61448 19.6581 7.61448 19.4924V17.6229C7.61448 16.4814 7.59343 15.4495 7.55133 14.5239C7.85339 15.1558 8.28069 15.9591 8.83534 16.935L10.3551 19.6615C10.4846 19.8854 10.6698 19.9997 10.9087 19.9997H11.8328C11.9833 19.9997 12.098 19.9563 12.1769 19.8694C12.2559 19.7837 12.2958 19.6581 12.2958 19.4924V12.5071C12.2958 12.3425 12.2569 12.2168 12.178 12.13C12.099 12.0443 11.9843 12.0009 11.8338 12.0009H11.1466ZM15.3238 15.1424H16.833C17.1698 15.1424 17.4245 15.0624 17.6034 14.9024C17.7824 14.739 17.8697 14.5162 17.8697 14.2305C17.8697 13.6672 17.5277 13.3849 16.8436 13.3849H15.3238V15.1424ZM18.075 17.5878C18.075 17.918 17.9729 18.1717 17.7676 18.3488V18.35C17.5624 18.5248 17.2572 18.6128 16.8541 18.6128H15.3238V16.5513H16.8541C17.2572 16.5513 17.5624 16.6451 17.7676 16.8279C17.9729 17.0119 18.075 17.2655 18.075 17.5878ZM25.882 12.1291C25.961 12.216 25.9999 12.3417 25.9999 12.5062V13.025C25.9999 13.1907 25.961 13.3164 25.882 13.4021C25.8031 13.4889 25.6884 13.5324 25.5379 13.5324H22.4184V15.3241H25.2811C25.4326 15.3241 25.5473 15.3675 25.6263 15.4544C25.7052 15.5401 25.7441 15.6669 25.7441 15.8315V16.3502C25.7441 16.5148 25.7052 16.6405 25.6263 16.7273C25.5473 16.8142 25.4326 16.8564 25.2821 16.8564H22.4194V19.4915C22.4194 19.6572 22.3794 19.7829 22.3005 19.8686C22.2215 19.9554 22.1068 19.9989 21.9563 19.9989H21.2175C21.067 19.9989 20.9523 19.9554 20.8733 19.8697C20.7944 19.7829 20.7555 19.6572 20.7555 19.4926V12.5074C20.7555 12.3417 20.7944 12.216 20.8733 12.1303C20.9523 12.0434 21.067 12 21.2175 12H25.5389C25.6905 12 25.8052 12.0434 25.8841 12.1291H25.882Z" fill="#474445"/>
</svg>
