<svg width="32" height="32" viewBox="0 0 32 32" fill="none" xmlns="http://www.w3.org/2000/svg">
<path d="M16 31C24.2843 31 31 24.2843 31 16C31 7.71573 24.2843 1 16 1C7.71573 1 1 7.71573 1 16C1 24.2843 7.71573 31 16 31Z" stroke="#71717A" stroke-width="1.5" stroke-miterlimit="10"/>
<path d="M10.8024 12.13C10.8813 12.0443 10.995 12.0009 11.1466 12.0009H11.8338C11.9843 12.0009 12.099 12.0443 12.178 12.13C12.2569 12.2168 12.2958 12.3425 12.2958 12.5071V19.4924C12.2958 19.658 12.2559 19.7837 12.1769 19.8694C12.098 19.9563 11.9833 19.9997 11.8328 19.9997H10.9087C10.6698 19.9997 10.4846 19.8854 10.3551 19.6615L8.83534 16.935C8.28069 15.9591 7.85339 15.1558 7.55133 14.5239C7.59343 15.4495 7.61448 16.4814 7.61448 17.6229V19.4924C7.61448 19.658 7.57449 19.7837 7.49555 19.8694C7.41557 19.9563 7.30085 19.9997 7.15034 19.9997H6.46308C6.31153 19.9997 6.19681 19.9563 6.11788 19.8706C6.03894 19.7837 6 19.658 6 19.4935V12.5082C6 12.3425 6.03894 12.2168 6.11788 12.1311C6.19681 12.0443 6.31153 12.0009 6.46203 12.0009H7.42609C7.54923 12.0009 7.65342 12.0271 7.73867 12.0808C7.82498 12.1323 7.90181 12.218 7.97022 12.3391L9.64364 15.3352C10.1562 16.2448 10.5172 16.9087 10.7214 17.3292C10.694 16.6162 10.6793 15.6952 10.6793 14.5696V12.5082C10.6793 12.3425 10.7193 12.2168 10.7982 12.1311L10.8024 12.13Z" fill="#71717A"/>
<path fill-rule="evenodd" clip-rule="evenodd" d="M19.38 16.5022C19.6189 16.8279 19.7378 17.2427 19.7378 17.7455C19.7378 18.4517 19.5326 19.0024 19.1221 19.4024C18.7116 19.8 18.1612 19.9989 17.4697 19.9989H14.1334C13.9829 19.9989 13.8682 19.9554 13.7893 19.8697C13.7103 19.7829 13.6714 19.6572 13.6714 19.4926V12.5074C13.6714 12.3417 13.7103 12.216 13.7893 12.1303C13.8682 12.0434 13.9829 12 14.1334 12H17.254C17.9044 12 18.438 12.1828 18.8537 12.5462C19.2726 12.9119 19.481 13.4192 19.481 14.0728C19.481 14.5071 19.3821 14.8727 19.1842 15.1653C18.9842 15.4589 18.7106 15.668 18.3633 15.7972C18.8001 15.9389 19.1389 16.1743 19.3789 16.5011L19.38 16.5022ZM15.3237 15.1424H16.833C17.1698 15.1424 17.4245 15.0624 17.6034 14.9024C17.7823 14.739 17.8696 14.5162 17.8696 14.2305C17.8696 13.6672 17.5276 13.3849 16.8435 13.3849H15.3237V15.1424ZM18.0749 17.5878C18.0749 17.918 17.9728 18.1717 17.7676 18.3488V18.35C17.5623 18.5248 17.2571 18.6128 16.854 18.6128H15.3237V16.5514H16.854C17.2571 16.5514 17.5623 16.6451 17.7676 16.8279C17.9728 17.0119 18.0749 17.2655 18.0749 17.5878Z" fill="#71717A"/>
<path d="M25.8819 12.1291C25.9609 12.216 25.9998 12.3417 25.9998 12.5062V13.025C25.9998 13.1907 25.9609 13.3164 25.8819 13.4021C25.803 13.4889 25.6883 13.5324 25.5378 13.5324H22.4183V15.3241H25.281C25.4325 15.3241 25.5472 15.3675 25.6262 15.4544C25.7051 15.5401 25.7441 15.6669 25.7441 15.8315V16.3502C25.7441 16.5148 25.7051 16.6405 25.6262 16.7273C25.5472 16.8142 25.4325 16.8564 25.282 16.8564H22.4193V19.4915C22.4193 19.6572 22.3793 19.7829 22.3004 19.8686C22.2215 19.9554 22.1067 19.9989 21.9562 19.9989H21.2174C21.0669 19.9989 20.9522 19.9554 20.8732 19.8697C20.7943 19.7829 20.7554 19.6572 20.7554 19.4926V12.5074C20.7554 12.3417 20.7943 12.216 20.8732 12.1303C20.9522 12.0434 21.0669 12 21.2174 12H25.5388C25.6904 12 25.8051 12.0434 25.884 12.1291H25.8819Z" fill="#71717A"/>
</svg>
