<svg width="32" height="32" viewBox="0 0 32 32" fill="none" xmlns="http://www.w3.org/2000/svg">
<path fill-rule="evenodd" clip-rule="evenodd" d="M16 1.75C8.12994 1.75 1.75 8.12994 1.75 16C1.75 23.8701 8.12994 30.25 16 30.25C23.8701 30.25 30.25 23.8701 30.25 16C30.25 8.12994 23.8701 1.75 16 1.75ZM0.25 16C0.25 7.30152 7.30152 0.25 16 0.25C24.6985 0.25 31.75 7.30152 31.75 16C31.75 24.6985 24.6985 31.75 16 31.75C7.30152 31.75 0.25 24.6985 0.25 16ZM13.25 11C13.25 10.5858 13.5858 10.25 14 10.25H17C17.9946 10.25 18.9484 10.6451 19.6516 11.3483C20.3549 12.0516 20.75 13.0054 20.75 14C20.75 14.9946 20.3549 15.9484 19.6516 16.6516C18.9484 17.3549 17.9946 17.75 17 17.75H14.75V23C14.75 23.4142 14.4142 23.75 14 23.75C13.5858 23.75 13.25 23.4142 13.25 23V17V11ZM14.75 11.75V16.25H17C17.5967 16.25 18.169 16.0129 18.591 15.591C19.0129 15.169 19.25 14.5967 19.25 14C19.25 13.4033 19.0129 12.831 18.591 12.409C18.169 11.9871 17.5967 11.75 17 11.75H14.75Z" fill="#767676"/>
</svg>
