<svg width="32" height="32" viewBox="0 0 32 32" fill="none" xmlns="http://www.w3.org/2000/svg">
<path d="M21.9761 19.72C21.8732 18.8662 21.5751 18.0475 21.1048 17.3274C20.6345 16.6074 20.0046 16.0054 19.2641 15.568C18.2823 14.9785 17.1587 14.6671 16.0135 14.6671C14.8682 14.6671 13.7446 14.9785 12.7628 15.568C12.0223 16.0054 11.3924 16.6074 10.9221 17.3274C10.4518 18.0475 10.1537 18.8662 10.0508 19.72C9.98656 20.1814 9.81243 20.6207 9.54304 21.0007C9.27364 21.3808 8.91688 21.6906 8.50278 21.904C7.54124 22.4019 6.78649 23.2234 6.37176 24.2237C5.95704 25.2239 5.90899 26.3385 6.23612 27.3707C6.48902 28.1245 6.92649 28.803 7.5087 29.3444C8.09091 29.8859 8.79934 30.2731 9.56945 30.4707C10.3576 30.6917 11.1864 30.7265 11.9903 30.5721C12.7942 30.4178 13.5512 30.0786 14.2015 29.5814C14.7223 29.1849 15.3589 28.9703 16.0135 28.9703C16.668 28.9703 17.3046 29.1849 17.8255 29.5814C18.4757 30.0786 19.2327 30.4178 20.0366 30.5721C20.8405 30.7265 21.6693 30.6917 22.4575 30.4707C23.2276 30.2731 23.936 29.8859 24.5182 29.3444C25.1004 28.803 25.5379 28.1245 25.7908 27.3707C26.1179 26.3385 26.0699 25.2239 25.6551 24.2237C25.2404 23.2234 24.4857 22.4019 23.5241 21.904C23.11 21.6906 22.7533 21.3808 22.4839 21.0007C22.2145 20.6207 22.0403 20.1814 21.9761 19.72V19.72Z" stroke="#71717A" stroke-width="1.5" stroke-linecap="round" stroke-linejoin="round"/>
<path d="M11.0137 11.6667C12.6705 11.6667 14.0137 9.87583 14.0137 7.66669C14.0137 5.45755 12.6705 3.66669 11.0137 3.66669C9.35682 3.66669 8.01367 5.45755 8.01367 7.66669C8.01367 9.87583 9.35682 11.6667 11.0137 11.6667Z" stroke="#71717A" stroke-width="1.5" stroke-linecap="round" stroke-linejoin="round"/>
<path d="M4.01367 19.6667C5.67053 19.6667 7.01367 17.8758 7.01367 15.6667C7.01367 13.4575 5.67053 11.6667 4.01367 11.6667C2.35682 11.6667 1.01367 13.4575 1.01367 15.6667C1.01367 17.8758 2.35682 19.6667 4.01367 19.6667Z" stroke="#71717A" stroke-width="1.5" stroke-linecap="round" stroke-linejoin="round"/>
<path d="M21.0137 11.6667C22.6705 11.6667 24.0137 9.87583 24.0137 7.66669C24.0137 5.45755 22.6705 3.66669 21.0137 3.66669C19.3568 3.66669 18.0137 5.45755 18.0137 7.66669C18.0137 9.87583 19.3568 11.6667 21.0137 11.6667Z" stroke="#71717A" stroke-width="1.5" stroke-linecap="round" stroke-linejoin="round"/>
<path d="M28.0137 19.6667C29.6705 19.6667 31.0137 17.8758 31.0137 15.6667C31.0137 13.4575 29.6705 11.6667 28.0137 11.6667C26.3568 11.6667 25.0137 13.4575 25.0137 15.6667C25.0137 17.8758 26.3568 19.6667 28.0137 19.6667Z" stroke="#71717A" stroke-width="1.5" stroke-linecap="round" stroke-linejoin="round"/>
<path d="M4.01367 11.6667V9.66669" stroke="#71717A" stroke-width="1.5" stroke-linecap="round" stroke-linejoin="round"/>
<path d="M11.0137 3.66669V1.66669" stroke="#71717A" stroke-width="1.5" stroke-linecap="round" stroke-linejoin="round"/>
<path d="M21.0137 3.66669V1.66669" stroke="#71717A" stroke-width="1.5" stroke-linecap="round" stroke-linejoin="round"/>
<path d="M28.0137 11.6667V9.66669" stroke="#71717A" stroke-width="1.5" stroke-linecap="round" stroke-linejoin="round"/>
</svg>
