<svg width="32" height="32" viewBox="0 0 32 32" fill="none" xmlns="http://www.w3.org/2000/svg">
<path fill-rule="evenodd" clip-rule="evenodd" d="M11.7637 1.66669C11.7637 1.25247 11.4279 0.916687 11.0137 0.916687C10.5995 0.916687 10.2637 1.25247 10.2637 1.66669V3.01026C9.46959 3.21187 8.79105 3.72333 8.29235 4.38826C7.64308 5.25396 7.26367 6.41553 7.26367 7.66669C7.26367 8.91784 7.64308 10.0794 8.29235 10.9451C8.9418 11.811 9.89625 12.4167 11.0137 12.4167C12.1311 12.4167 13.0855 11.811 13.735 10.9451C14.3843 10.0794 14.7637 8.91784 14.7637 7.66669C14.7637 6.41553 14.3843 5.25396 13.735 4.38826C13.2363 3.72333 12.5578 3.21187 11.7637 3.01026V1.66669ZM11.0137 4.41669C10.4742 4.41669 9.92869 4.70647 9.49235 5.28826C9.05584 5.87028 8.76367 6.7087 8.76367 7.66669C8.76367 8.62467 9.05584 9.46309 9.49235 10.0451C9.92869 10.6269 10.4742 10.9167 11.0137 10.9167C11.5531 10.9167 12.0987 10.6269 12.535 10.0451C12.9715 9.46309 13.2637 8.62467 13.2637 7.66669C13.2637 6.7087 12.9715 5.87028 12.535 5.28826C12.0987 4.70647 11.5531 4.41669 11.0137 4.41669ZM12.379 14.9236C13.4769 14.265 14.7331 13.9171 16.0135 13.9171C17.2938 13.9171 18.55 14.265 19.6478 14.9236C20.4865 15.4194 21.1999 16.1016 21.7327 16.9173C22.2646 17.7317 22.6023 18.6573 22.7198 19.6228C22.7682 19.963 22.897 20.2867 23.0958 20.567C23.2957 20.8491 23.5604 21.079 23.8677 21.2374L23.869 21.238C24.9875 21.8172 25.8655 22.7729 26.3479 23.9364C26.8304 25.1 26.8863 26.3965 26.5057 27.5973L26.5019 27.6093L26.5018 27.6092C26.2091 28.4817 25.7028 29.267 25.029 29.8936C24.3572 30.5184 23.5402 30.9657 22.652 31.1951C21.7542 31.4455 20.8106 31.4844 19.8952 31.3087C18.9774 31.1325 18.1131 30.7453 17.3706 30.1777C16.9804 29.8809 16.5037 29.7203 16.0135 29.7203C15.5233 29.7203 15.0467 29.8809 14.6566 30.1775L14.657 30.1771L14.2015 29.5814L14.6557 30.1782L14.6566 30.1775C13.914 30.7452 13.0496 31.1324 12.1317 31.3087C11.2163 31.4844 10.2727 31.4455 9.37491 31.1951C8.48673 30.9657 7.66973 30.5184 6.99794 29.8936C6.3241 29.267 5.81777 28.4817 5.52507 27.6092L5.52106 27.5973L5.52116 27.5973C5.14063 26.3965 5.19651 25.1 5.67896 23.9364C6.1614 22.7729 7.03938 21.8172 8.15793 21.238L8.15919 21.2374C8.46649 21.079 8.73124 20.8491 8.93115 20.567C9.12988 20.2867 9.25875 19.9629 9.30709 19.6227C9.42458 18.6573 9.76229 17.7316 10.2942 16.9173C10.827 16.1016 11.5404 15.4194 12.379 14.9236ZM21.9761 19.72L21.2315 19.8097C21.1424 19.0702 20.8842 18.3612 20.4769 17.7376C20.0695 17.114 19.5241 16.5926 18.8827 16.2138L18.878 16.211L18.878 16.211C18.0128 15.6915 17.0226 15.4171 16.0135 15.4171C15.0043 15.4171 14.0141 15.6915 13.1489 16.211L13.1442 16.2138L13.1442 16.2138C12.5028 16.5926 11.9574 17.114 11.55 17.7376C11.1427 18.3612 10.8845 19.0702 10.7954 19.8097L10.7938 19.8234L10.7936 19.8234C10.7128 20.4038 10.4938 20.9563 10.1549 21.4344C9.81621 21.9123 9.3677 22.3018 8.84712 22.5703C8.04282 22.9869 7.41151 23.6742 7.06457 24.5109C6.71836 25.3459 6.67755 26.2761 6.94918 27.1381C7.16257 27.7708 7.53043 28.3404 8.01946 28.7952C8.51004 29.2515 9.10697 29.5777 9.75588 29.7442L9.77199 29.7486C10.4482 29.9382 11.1592 29.968 11.8489 29.8356C12.5386 29.7032 13.188 29.4122 13.7459 28.9856L13.7472 28.9845C14.3987 28.4887 15.1948 28.2203 16.0135 28.2203C16.8321 28.2203 17.6282 28.4887 18.2797 28.9845L18.281 28.9856C18.8389 29.4122 19.4883 29.7032 20.178 29.8356C20.8677 29.968 21.5787 29.9382 22.2549 29.7486L22.271 29.7442C22.9199 29.5777 23.5169 29.2515 24.0074 28.7952C24.4965 28.3404 24.8643 27.7709 25.0777 27.1381C25.3494 26.2761 25.3085 25.3459 24.9623 24.5109C24.6154 23.6742 23.9841 22.987 23.1799 22.5704C22.6593 22.3019 22.2107 21.9123 21.872 21.4344C21.5331 20.9563 21.3141 20.4038 21.2333 19.8234L21.9761 19.72ZM1.76367 15.6667C1.76367 14.7087 2.05584 13.8703 2.49235 13.2883C2.92869 12.7065 3.47424 12.4167 4.01367 12.4167C4.5531 12.4167 5.09865 12.7065 5.53499 13.2883C5.97151 13.8703 6.26367 14.7087 6.26367 15.6667C6.26367 16.6247 5.97151 17.4631 5.53499 18.0451C5.09865 18.6269 4.5531 18.9167 4.01367 18.9167C3.47424 18.9167 2.92869 18.6269 2.49235 18.0451C2.05584 17.4631 1.76367 16.6247 1.76367 15.6667ZM1.29235 12.3883C1.79105 11.7233 2.46959 11.2119 3.26367 11.0103V9.66669C3.26367 9.25247 3.59946 8.91669 4.01367 8.91669C4.42789 8.91669 4.76367 9.25247 4.76367 9.66669V11.0103C5.55775 11.2119 6.23629 11.7233 6.73499 12.3883C7.38426 13.254 7.76367 14.4155 7.76367 15.6667C7.76367 16.9178 7.38426 18.0794 6.73499 18.9451C6.08555 19.811 5.13109 20.4167 4.01367 20.4167C2.89625 20.4167 1.9418 19.811 1.29235 18.9451C0.643079 18.0794 0.263672 16.9178 0.263672 15.6667C0.263672 14.4155 0.643079 13.254 1.29235 12.3883ZM19.4924 5.28826C19.0558 5.87028 18.7637 6.7087 18.7637 7.66669C18.7637 8.62467 19.0558 9.46309 19.4924 10.0451C19.9287 10.6269 20.4742 10.9167 21.0137 10.9167C21.5531 10.9167 22.0987 10.6269 22.535 10.0451C22.9715 9.46309 23.2637 8.62467 23.2637 7.66669C23.2637 6.7087 22.9715 5.87028 22.535 5.28826C22.0987 4.70647 21.5531 4.41669 21.0137 4.41669C20.4742 4.41669 19.9287 4.70647 19.4924 5.28826ZM21.7637 1.66669V3.01026C22.5578 3.21187 23.2363 3.72333 23.735 4.38826C24.3843 5.25396 24.7637 6.41553 24.7637 7.66669C24.7637 8.91784 24.3843 10.0794 23.735 10.9451C23.0855 11.811 22.1311 12.4167 21.0137 12.4167C19.8962 12.4167 18.9418 11.811 18.2924 10.9451C17.6431 10.0794 17.2637 8.91784 17.2637 7.66669C17.2637 6.41553 17.6431 5.25396 18.2924 4.38826C18.791 3.72333 19.4696 3.21187 20.2637 3.01026V1.66669C20.2637 1.25247 20.5995 0.916687 21.0137 0.916687C21.4279 0.916687 21.7637 1.25247 21.7637 1.66669ZM25.7637 15.6667C25.7637 14.7087 26.0558 13.8703 26.4924 13.2883C26.9287 12.7065 27.4742 12.4167 28.0137 12.4167C28.5531 12.4167 29.0987 12.7065 29.535 13.2883C29.9715 13.8703 30.2637 14.7087 30.2637 15.6667C30.2637 16.6247 29.9715 17.4631 29.535 18.0451C29.0987 18.6269 28.5531 18.9167 28.0137 18.9167C27.4742 18.9167 26.9287 18.6269 26.4924 18.0451C26.0558 17.4631 25.7637 16.6247 25.7637 15.6667ZM27.2637 11.0103C26.4696 11.2119 25.791 11.7233 25.2924 12.3883C24.6431 13.254 24.2637 14.4155 24.2637 15.6667C24.2637 16.9178 24.6431 18.0794 25.2924 18.9451C25.9418 19.811 26.8962 20.4167 28.0137 20.4167C29.1311 20.4167 30.0855 19.811 30.735 18.9451C31.3843 18.0794 31.7637 16.9178 31.7637 15.6667C31.7637 14.4155 31.3843 13.254 30.735 12.3883C30.2363 11.7233 29.5578 11.2119 28.7637 11.0103V9.66669C28.7637 9.25247 28.4279 8.91669 28.0137 8.91669C27.5995 8.91669 27.2637 9.25247 27.2637 9.66669V11.0103Z" fill="#767676"/>
</svg>
