<svg width="32" height="32" viewBox="0 0 32 32" fill="none" xmlns="http://www.w3.org/2000/svg">
<path fill-rule="evenodd" clip-rule="evenodd" d="M6.41797 5C6.41797 3.20507 7.87304 1.75 9.66797 1.75H22.3346C24.1296 1.75 25.5846 3.20507 25.5846 5V23.25H6.41797V5ZM6.41797 24.75V27C6.41797 28.7949 7.87304 30.25 9.66797 30.25H22.3346C24.1296 30.25 25.5846 28.7949 25.5846 27V24.75H6.41797ZM9.66797 0.25C7.04462 0.25 4.91797 2.37665 4.91797 5V27C4.91797 29.6234 7.04462 31.75 9.66797 31.75H22.3346C24.958 31.75 27.0846 29.6234 27.0846 27V5C27.0846 2.37665 24.958 0.25 22.3346 0.25H9.66797Z" fill="#767676"/>
</svg>
