<svg width="32" height="32" viewBox="0 0 32 32" fill="none" xmlns="http://www.w3.org/2000/svg">
<rect x="6.66699" y="1.33331" width="18.6667" height="29.3333" rx="2.66667" stroke="#767676" stroke-width="1.5"/>
<path d="M6.66699 24.5834C6.25278 24.5834 5.91699 24.9192 5.91699 25.3334C5.91699 25.7476 6.25278 26.0834 6.66699 26.0834V24.5834ZM25.3337 26.0834C25.7479 26.0834 26.0837 25.7476 26.0837 25.3334C26.0837 24.9192 25.7479 24.5834 25.3337 24.5834V26.0834ZM25.3337 24.5834H6.66699V26.0834H25.3337V24.5834Z" fill="#767676"/>
<path d="M19.0442 8.31008C18.6862 8.10175 18.2271 8.22308 18.0188 8.58109C17.8104 8.93909 17.9318 9.39821 18.2898 9.60654L19.0442 8.31008ZM19.9564 10.5764C20.3144 10.7848 20.7736 10.6634 20.9819 10.3054C21.1902 9.94742 21.0689 9.48831 20.7109 9.27997L19.9564 10.5764ZM18.2898 9.60654L19.9564 10.5764L20.7109 9.27997L19.0442 8.31008L18.2898 9.60654Z" fill="#767676"/>
<path d="M19.0442 4.31008C18.6862 4.10175 18.2271 4.22308 18.0188 4.58109C17.8104 4.93909 17.9318 5.39821 18.2898 5.60654L19.0442 4.31008ZM21.6231 7.54632C21.9811 7.75466 22.4402 7.63332 22.6486 7.27532C22.8569 6.91731 22.7356 6.4582 22.3776 6.24986L21.6231 7.54632ZM18.2898 5.60654L21.6231 7.54632L22.3776 6.24986L19.0442 4.31008L18.2898 5.60654Z" fill="#767676"/>
<path d="M11.0442 17.6434C10.6862 17.4351 10.2271 17.5564 10.0188 17.9144C9.81043 18.2724 9.93176 18.7315 10.2898 18.9399L11.0442 17.6434ZM13.6231 20.8796C13.9811 21.088 14.4402 20.9666 14.6486 20.6086C14.8569 20.2506 14.7356 19.7915 14.3776 19.5832L13.6231 20.8796ZM10.2898 18.9399L13.6231 20.8796L14.3776 19.5832L11.0442 17.6434L10.2898 18.9399Z" fill="#767676"/>
</svg>
