<svg width="32" height="32" viewBox="0 0 32 32" fill="none" xmlns="http://www.w3.org/2000/svg">
<rect x="6.66699" y="1.33331" width="18.6667" height="29.3333" rx="2.66667" stroke="#767676" stroke-width="1.5"/>
<path d="M6.66699 24.5834C6.25278 24.5834 5.91699 24.9192 5.91699 25.3334C5.91699 25.7476 6.25278 26.0834 6.66699 26.0834V24.5834ZM25.3337 26.0834C25.7479 26.0834 26.0837 25.7476 26.0837 25.3334C26.0837 24.9192 25.7479 24.5834 25.3337 24.5834V26.0834ZM25.3337 24.5834H6.66699V26.0834H25.3337V24.5834Z" fill="#767676"/>
<path d="M5.71023 17.6434C5.35223 17.4351 4.89312 17.5564 4.68478 17.9144C4.47644 18.2724 4.59777 18.7315 4.95578 18.9399L5.71023 17.6434ZM8.28912 20.8796C8.64712 21.088 9.10623 20.9666 9.31457 20.6086C9.52291 20.2506 9.40157 19.7915 9.04357 19.5832L8.28912 20.8796ZM4.95578 18.9399L8.28912 20.8796L9.04357 19.5832L5.71023 17.6434L4.95578 18.9399Z" fill="#767676"/>
<path d="M5.71023 13.6435C5.35223 13.4351 4.89312 13.5565 4.68478 13.9145C4.47644 14.2725 4.59777 14.7316 4.95578 14.9399L5.71023 13.6435ZM8.28912 16.8797C8.64712 17.088 9.10623 16.9667 9.31457 16.6087C9.52291 16.2507 9.40157 15.7916 9.04357 15.5832L8.28912 16.8797ZM4.95578 14.9399L8.28912 16.8797L9.04357 15.5832L5.71023 13.6435L4.95578 14.9399Z" fill="#767676"/>
<path d="M24.3772 6.97677C24.0192 6.76844 23.5601 6.88977 23.3518 7.24777C23.1434 7.60578 23.2648 8.06489 23.6228 8.27323L24.3772 6.97677ZM26.9561 10.213C27.3141 10.4213 27.7732 10.3 27.9816 9.942C28.1899 9.584 28.0686 9.12489 27.7106 8.91655L26.9561 10.213ZM23.6228 8.27323L26.9561 10.213L27.7106 8.91655L24.3772 6.97677L23.6228 8.27323Z" fill="#767676"/>
</svg>
