<svg width="32" height="32" viewBox="0 0 32 32" fill="none" xmlns="http://www.w3.org/2000/svg">
<path d="M16.0002 1.33334C18.8291 1.33334 21.5422 2.547 23.5426 4.70733C25.543 6.86767 26.6668 9.79771 26.6668 12.8529C26.6668 17.5392 20.88 25.7377 17.8317 29.7329C17.6093 30.0248 17.3298 30.26 17.0133 30.4215C16.6967 30.5829 16.351 30.6667 16.001 30.6667C15.6509 30.6667 15.3052 30.5829 14.9886 30.4215C14.6721 30.26 14.3926 30.0248 14.1702 29.7329C11.1219 25.7411 5.3335 17.5392 5.3335 12.8529C5.3335 9.79771 6.4573 6.86767 8.45769 4.70733C10.4581 2.547 13.1712 1.33334 16.0002 1.33334Z" stroke="#474445" stroke-width="1.5" stroke-linecap="round" stroke-linejoin="round"/>
<path d="M16.0002 16C18.2093 16 20.0002 14.2091 20.0002 12C20.0002 9.79086 18.2093 8 16.0002 8C13.791 8 12.0002 9.79086 12.0002 12C12.0002 14.2091 13.791 16 16.0002 16Z" stroke="#474445" stroke-width="1.5" stroke-linecap="round" stroke-linejoin="round"/>
</svg>
