<svg width="32" height="32" viewBox="0 0 32 32" fill="none" xmlns="http://www.w3.org/2000/svg">
<path d="M16.0002 1.33333C18.8291 1.33333 21.5422 2.54699 23.5426 4.70733C25.543 6.86766 26.6668 9.7977 26.6668 12.8529C26.6668 17.5392 20.88 25.7377 17.8317 29.7329C17.6093 30.0248 17.3298 30.26 17.0133 30.4215C16.6967 30.5829 16.351 30.6667 16.001 30.6667C15.6509 30.6667 15.3052 30.5829 14.9886 30.4215C14.6721 30.26 14.3926 30.0248 14.1702 29.7329C11.1219 25.7411 5.3335 17.5392 5.3335 12.8529C5.3335 9.7977 6.4573 6.86766 8.45769 4.70733C10.4581 2.54699 13.1712 1.33333 16.0002 1.33333V1.33333Z" stroke="#474445" stroke-width="1.5" stroke-linecap="round" stroke-linejoin="round"/>
<path d="M16 16C18.2091 16 20 14.2091 20 12C20 9.79086 18.2091 8 16 8C13.7909 8 12 9.79086 12 12C12 14.2091 13.7909 16 16 16Z" stroke="#474445" stroke-width="1.5" stroke-linecap="round" stroke-linejoin="round"/>
</svg>
8.26667 31 2 29.2093 2 27C2 25.64 4.37467 24.4387 8 23.716" stroke="#474445" stroke-width="1.5" stroke-linecap="round" stroke-linejoin="round"/>
</svg>
