<svg width="32" height="32" viewBox="0 0 32 32" fill="none" xmlns="http://www.w3.org/2000/svg">
<path fill-rule="evenodd" clip-rule="evenodd" d="M16 1.75C13.812 1.75 11.7135 2.61919 10.1664 4.16637C8.61919 5.71354 7.75 7.81196 7.75 10C7.75 10.9237 8.12479 12.2254 8.78563 13.7635C9.43704 15.2796 10.3298 16.9437 11.2862 18.5639C13.0639 21.5754 15.0325 24.3861 16 25.7299C16.9675 24.3861 18.9361 21.5754 20.7138 18.5639C21.6702 16.9437 22.563 15.2796 23.2144 13.7635C23.8752 12.2254 24.25 10.9237 24.25 10C24.25 7.81196 23.3808 5.71354 21.8336 4.16637C20.2865 2.61919 18.188 1.75 16 1.75ZM9.10571 3.10571C10.9342 1.27723 13.4141 0.25 16 0.25C18.5859 0.25 21.0658 1.27723 22.8943 3.10571C24.7228 4.93419 25.75 7.41414 25.75 10C25.75 11.2437 25.2695 12.7801 24.5925 14.3556C23.9062 15.953 22.9788 17.6778 22.0055 19.3264C20.0582 22.6251 17.8937 25.6758 17.0123 26.8899L17.0101 26.8929C16.8938 27.0515 16.7417 27.1805 16.5662 27.2695C16.3907 27.3584 16.1967 27.4047 16 27.4047C15.8033 27.4047 15.6093 27.3584 15.4338 27.2695C15.2583 27.1805 15.1062 27.0515 14.9899 26.8929L14.9877 26.8899C14.1063 25.6758 11.9418 22.6251 9.99447 19.3264C9.02124 17.6778 8.09379 15.953 7.40745 14.3556C6.73054 12.7801 6.25 11.2437 6.25 10C6.25 7.41414 7.27723 4.93419 9.10571 3.10571ZM16 6.75C14.2051 6.75 12.75 8.20507 12.75 10C12.75 11.7949 14.2051 13.25 16 13.25C17.7949 13.25 19.25 11.7949 19.25 10C19.25 8.20507 17.7949 6.75 16 6.75ZM11.25 10C11.25 7.37665 13.3766 5.25 16 5.25C18.6234 5.25 20.75 7.37665 20.75 10C20.75 12.6234 18.6234 14.75 16 14.75C13.3766 14.75 11.25 12.6234 11.25 10ZM24.1177 22.9763C23.7114 22.8958 23.3167 23.16 23.2363 23.5663C23.1558 23.9726 23.42 24.3673 23.8263 24.4477C25.6117 24.8013 27.0385 25.2644 27.9988 25.7771C28.4793 26.0337 28.8087 26.2847 29.0097 26.5109C29.2066 26.7326 29.25 26.8934 29.25 27C29.25 27.1718 29.1222 27.5018 28.4801 27.9356C27.8642 28.3517 26.9237 28.756 25.694 29.1074C23.2447 29.8072 19.8174 30.25 16 30.25C12.1826 30.25 8.75526 29.8072 6.30605 29.1074C5.07634 28.756 4.13578 28.3517 3.51987 27.9356C2.87783 27.5018 2.75 27.1718 2.75 27C2.75 26.8935 2.79329 26.733 2.98902 26.5122C3.18892 26.2866 3.51647 26.0362 3.9946 25.7802C4.95008 25.2684 6.36988 24.8057 8.14662 24.4515C8.55284 24.3706 8.8165 23.9756 8.73553 23.5694C8.65455 23.1632 8.2596 22.8995 7.85338 22.9805C6.00479 23.349 4.42459 23.8483 3.2864 24.4579C2.7177 24.7624 2.22499 25.1126 1.86636 25.5174C1.50354 25.9268 1.25 26.4265 1.25 27C1.25 27.9329 1.9055 28.6552 2.68013 29.1785C3.48089 29.7195 4.59033 30.1772 5.89395 30.5496C8.51141 31.2975 12.084 31.75 16 31.75C19.916 31.75 23.4886 31.2975 26.106 30.5496C27.4097 30.1772 28.5191 29.7195 29.3199 29.1785C30.0945 28.6552 30.75 27.9329 30.75 27C30.75 26.4253 30.4953 25.9246 30.1311 25.5147C29.771 25.1094 29.2763 24.7588 28.7052 24.4539C27.5622 23.8436 25.975 23.3441 24.1177 22.9763Z" fill="#474445"/>
</svg>
