<svg width="32" height="32" viewBox="0 0 32 32" fill="none" xmlns="http://www.w3.org/2000/svg">
<path d="M16.0002 1.33334V0.583336V1.33334ZM26.6668 12.8529H25.9168H26.6668ZM17.8317 29.7329L17.2354 29.2779L17.235 29.2785L17.8317 29.7329ZM14.1702 29.7329L14.7669 29.2785L14.7663 29.2777L14.1702 29.7329ZM16.0002 2.08334C18.6108 2.08334 21.1273 3.2028 22.9923 5.2169L24.0929 4.19777C21.9571 1.89119 19.0475 0.583336 16.0002 0.583336V2.08334ZM22.9923 5.2169C24.8591 7.23294 25.9168 9.9788 25.9168 12.8529H27.4168C27.4168 9.61662 26.2269 6.5024 24.0929 4.19777L22.9923 5.2169ZM25.9168 12.8529C25.9168 13.887 25.5934 15.1759 25.0177 16.6294C24.4462 18.0724 23.6472 19.626 22.7444 21.1743C20.9391 24.2706 18.7513 27.2911 17.2354 29.2779L18.4279 30.1878C19.9603 28.1794 22.1901 25.1031 24.0403 21.9298C24.9653 20.3433 25.8035 18.7189 26.4123 17.1818C27.0169 15.6552 27.4168 14.1619 27.4168 12.8529H25.9168ZM17.235 29.2785C17.0785 29.4839 16.8854 29.6447 16.6725 29.7534L17.3541 31.0896C17.7742 30.8753 18.1401 30.5658 18.4283 30.1873L17.235 29.2785ZM16.6725 29.7534C16.4598 29.8618 16.2307 29.9167 16.001 29.9167V31.4167C16.4713 31.4167 16.9336 31.304 17.3541 31.0896L16.6725 29.7534ZM16.001 29.9167C15.7712 29.9167 15.5421 29.8618 15.3294 29.7534L14.6478 31.0896C15.0683 31.304 15.5306 31.4167 16.001 31.4167V29.9167ZM15.3294 29.7534C15.1165 29.6447 14.9234 29.4839 14.7669 29.2785L13.5736 30.1873C13.8618 30.5658 14.2277 30.8753 14.6478 31.0896L15.3294 29.7534ZM14.7663 29.2777C13.2505 27.2928 11.0624 24.2723 9.25666 21.1756C8.35375 19.6271 7.55453 18.0732 6.98286 16.6299C6.40703 15.1761 6.0835 13.887 6.0835 12.8529H4.5835C4.5835 14.1619 4.98351 15.6554 5.58828 17.1823C6.1972 18.7196 7.03561 20.3444 7.96085 21.9311C9.81145 25.1049 12.0416 28.1812 13.5742 30.1881L14.7663 29.2777ZM6.0835 12.8529C6.0835 9.9788 7.14123 7.23294 9.008 5.2169L7.90738 4.19777C5.77338 6.5024 4.5835 9.61662 4.5835 12.8529H6.0835ZM9.008 5.2169C10.873 3.2028 13.3895 2.08334 16.0002 2.08334V0.583336C12.9528 0.583336 10.0432 1.89119 7.90738 4.19777L9.008 5.2169Z" fill="#767676"/>
<path d="M19.25 12C19.25 13.7949 17.7949 15.25 16 15.25V16.75C18.6234 16.75 20.75 14.6234 20.75 12H19.25ZM16 15.25C14.2051 15.25 12.75 13.7949 12.75 12H11.25C11.25 14.6234 13.3766 16.75 16 16.75V15.25ZM12.75 12C12.75 10.2051 14.2051 8.75 16 8.75V7.25C13.3766 7.25 11.25 9.37665 11.25 12H12.75ZM16 8.75C17.7949 8.75 19.25 10.2051 19.25 12H20.75C20.75 9.37665 18.6234 7.25 16 7.25V8.75Z" fill="#767676"/>
</svg>
