<svg width="32" height="32" viewBox="0 0 32 32" fill="none" xmlns="http://www.w3.org/2000/svg">
<path d="M16 14C18.2091 14 20 12.2091 20 10C20 7.79086 18.2091 6 16 6C13.7909 6 12 7.79086 12 10C12 12.2091 13.7909 14 16 14Z" stroke="#71717A" stroke-width="1.5" stroke-linecap="round" stroke-linejoin="round"/>
<path d="M16 1C18.3869 1 20.6761 1.94821 22.364 3.63604C24.0518 5.32387 25 7.61305 25 10C25 14.3347 18.1573 24.036 16.4053 26.4493C16.3586 26.513 16.2976 26.5648 16.2272 26.6004C16.1568 26.6361 16.0789 26.6547 16 26.6547C15.9211 26.6547 15.8432 26.6361 15.7728 26.6004C15.7024 26.5648 15.6414 26.513 15.5947 26.4493C13.8427 24.036 7 14.3347 7 10C7 7.61305 7.94821 5.32387 9.63604 3.63604C11.3239 1.94821 13.6131 1 16 1V1Z" stroke="#71717A" stroke-width="1.5" stroke-linecap="round" stroke-linejoin="round"/>
<path d="M24.0951 23.7367C27.6683 24.4606 30 25.6528 30 27C30 29.2093 23.7333 31 16 31C8.26667 31 2 29.2093 2 27C2 25.6553 4.32159 24.4657 7.87825 23.7406" stroke="#71717A" stroke-width="1.5" stroke-linecap="round" stroke-linejoin="round"/>
</svg>
