<svg width="32" height="32" viewBox="0 0 32 32" fill="none" xmlns="http://www.w3.org/2000/svg">
<path d="M9.59768 20.4284L11.7906 18.7821C12.0144 18.6144 12.2701 18.4942 12.5419 18.4286C12.8138 18.3631 13.0961 18.3536 13.3718 18.4009C13.6474 18.4481 13.9105 18.551 14.1451 18.7033C14.3796 18.8556 14.5806 19.0541 14.7359 19.2867C14.9609 19.6247 15.0809 20.0217 15.0809 20.4277C15.0809 20.8338 14.9609 21.2307 14.7359 21.5687L12.5797 24.8024C11.9171 25.7956 10.9687 26.5644 9.85983 27.0071L6.68213 28.2795" stroke="#71717A" stroke-width="1.5" stroke-linecap="round" stroke-linejoin="round"/>
<path d="M0.75 31.2422V24.5874C0.749999 23.7885 0.912321 22.9978 1.22712 22.2635L2.76989 18.6641C3.36653 17.2716 4.47606 16.1621 5.86853 15.5655L10.554 13.5583" stroke="#71717A" stroke-width="1.5" stroke-linecap="round" stroke-linejoin="round"/>
<path d="M10.5806 26.6611V28.293C10.5806 29.0751 10.8913 29.8253 11.4444 30.3784C11.9975 30.9315 12.7476 31.2422 13.5298 31.2422H27.2928C28.075 31.2422 28.8251 30.9315 29.3782 30.3784C29.9313 29.8253 30.242 29.0751 30.242 28.293V4.69922C30.242 3.91704 29.9313 3.16689 29.3782 2.61381C28.8251 2.06072 28.075 1.75 27.2928 1.75H24.3436C24.3436 2.79291 23.9293 3.7931 23.1918 4.53055C22.4544 5.268 21.4542 5.68229 20.4113 5.68229C19.3684 5.68229 18.3682 5.268 17.6307 4.53055C16.8933 3.7931 16.479 2.79291 16.479 1.75H13.5298C12.7476 1.75 11.9975 2.06072 11.4444 2.61381C10.8913 3.16689 10.5806 3.91704 10.5806 4.69922V19.6904" stroke="#71717A" stroke-width="1.5" stroke-linecap="round" stroke-linejoin="round"/>
<path d="M15.8711 13.252L17.6852 14.3045L25.2959 10.5801" stroke="#71717A" stroke-width="1.5" stroke-linecap="round" stroke-linejoin="round"/>
<path d="M22.1406 12.1247L17.8374 9.61459" stroke="#71717A" stroke-width="1.5" stroke-linecap="round" stroke-linejoin="round"/>
<path d="M30.2423 25.3438H26.3101" stroke="#71717A" stroke-width="1.5" stroke-linecap="round" stroke-linejoin="round"/>
<path d="M22.3774 25.3438H19.4282" stroke="#71717A" stroke-width="1.5" stroke-linecap="round" stroke-linejoin="round"/>
</svg>
