<svg width="32" height="32" viewBox="0 0 32 32" fill="none" xmlns="http://www.w3.org/2000/svg">
<path d="M10 20L12.2307 18.3253C12.4584 18.1548 12.7184 18.0325 12.9949 17.9658C13.2715 17.8991 13.5587 17.8895 13.8391 17.9376C14.1195 17.9856 14.3871 18.0903 14.6257 18.2452C14.8643 18.4001 15.0687 18.6021 15.2267 18.8387V18.8387C15.4555 19.1825 15.5776 19.5863 15.5776 19.9993C15.5776 20.4124 15.4555 20.8162 15.2267 21.16L13.0333 24.4493C12.3593 25.4597 11.3946 26.2417 10.2667 26.692L7 28" stroke="#474445" stroke-width="1.5" stroke-linecap="round" stroke-linejoin="round"/>
<path d="M11 13L6.20667 15.0533C4.79022 15.6602 3.66158 16.7889 3.05467 18.2053L1.48533 21.8667C1.16512 22.6137 0.999999 23.4179 1 24.2307V31" stroke="#474445" stroke-width="1.5" stroke-linecap="round" stroke-linejoin="round"/>
<path d="M11 26.34V28C11 28.7957 11.3161 29.5587 11.8787 30.1213C12.4413 30.6839 13.2044 31 14 31H28C28.7956 31 29.5587 30.6839 30.1213 30.1213C30.6839 29.5587 31 28.7957 31 28V4C31 3.20435 30.6839 2.44129 30.1213 1.87868C29.5587 1.31607 28.7956 1 28 1H25C25 2.06087 24.5786 3.07828 23.8284 3.82843C23.0783 4.57857 22.0609 5 21 5C19.9391 5 18.9217 4.57857 18.1716 3.82843C17.4214 3.07828 17 2.06087 17 1H14C13.2044 1 12.4413 1.31607 11.8787 1.87868C11.3161 2.44129 11 3.20435 11 4V19.2493" stroke="#474445" stroke-width="1.5" stroke-linecap="round" stroke-linejoin="round"/>
<path d="M16.3813 12.7L18.2267 13.7707L26 9.96667" stroke="#474445" stroke-width="1.5" stroke-linecap="round" stroke-linejoin="round"/>
<path d="M22.7587 11.5533L18.3813 9" stroke="#474445" stroke-width="1.5" stroke-linecap="round" stroke-linejoin="round"/>
<path d="M31 25H27" stroke="#474445" stroke-width="1.5" stroke-linecap="round" stroke-linejoin="round"/>
<path d="M23 25H20" stroke="#474445" stroke-width="1.5" stroke-linecap="round" stroke-linejoin="round"/>
</svg>
