<svg width="32" height="32" viewBox="0 0 32 32" fill="none" xmlns="http://www.w3.org/2000/svg">
<path fill-rule="evenodd" clip-rule="evenodd" d="M7.50149 0.773013C7.78575 0.52008 8.21436 0.52008 8.49861 0.773012L15.2506 6.78101C15.5601 7.05636 15.5877 7.53043 15.3124 7.83987C15.037 8.14932 14.5629 8.17696 14.2535 7.90161L13.75 7.45361V8V13.9167H18.667H25.333H29.1667C30.4093 13.9167 31.4167 14.924 31.4167 16.1667V30.6667C31.4167 31.0809 31.0809 31.4167 30.6667 31.4167C30.2525 31.4167 29.9167 31.0809 29.9167 30.6667V16.1667C29.9167 15.7525 29.5809 15.4167 29.1667 15.4167H26.083V23.25H27.3337C27.7479 23.25 28.0837 23.5858 28.0837 24C28.0837 24.4142 27.7479 24.75 27.3337 24.75H25.3384L25.333 24.75L25.3276 24.75H18.6724L18.667 24.75L18.6616 24.75H16.667C16.2528 24.75 15.917 24.4142 15.917 24C15.917 23.5858 16.2528 23.25 16.667 23.25H17.917V15.4167H13.75V21.3333V28V30.6667C13.75 31.0809 13.4142 31.4167 13 31.4167C12.5858 31.4167 12.25 31.0809 12.25 30.6667V28.75H3.75001V30.6667C3.75001 31.0809 3.41422 31.4167 3.00001 31.4167C2.58579 31.4167 2.25001 31.0809 2.25001 30.6667V28V21.3333V14.6667V8V7.45369L1.74662 7.90161C1.43717 8.17696 0.963102 8.14932 0.687754 7.83987C0.412406 7.53043 0.440048 7.05636 0.749493 6.78101L7.50149 0.773013ZM3.75001 27.25H12.25V22.0833H3.75001V27.25ZM12.25 6.11889V7.25H3.75001V6.11897L8.00005 2.33724L12.25 6.11889ZM12.25 8.75H3.75001V13.9167H12.25V8.75ZM3.75001 15.4167V20.5833H12.25V15.4167H3.75001ZM19.417 15.4167V23.25H24.583V15.4167H19.417Z" fill="#767676"/>
</svg>
