<svg width="32" height="32" viewBox="0 0 32 32" fill="none" xmlns="http://www.w3.org/2000/svg">
<path d="M15.4214 2.356L14.7516 2.01846L14.7495 2.02271L15.4214 2.356ZM16 1.99963V1.24963V1.99963ZM16.5787 2.356L17.2506 2.0227L17.2484 2.01847L16.5787 2.356ZM17.924 5.068L17.2521 5.4013L17.2532 5.40348L17.924 5.068ZM18.408 5.41734L18.5152 4.67504L18.5151 4.67502L18.408 5.41734ZM21.4267 5.85334L21.3195 6.59564L21.3224 6.59604L21.4267 5.85334ZM21.9454 6.284L22.6574 6.04836L22.6562 6.04493L21.9454 6.284ZM21.784 6.93334L21.2651 6.39183L21.261 6.39584L21.784 6.93334ZM19.6 9.05867L20.1208 9.59841L20.1231 9.59617L19.6 9.05867ZM19.416 9.61734L18.6764 9.74198L18.677 9.74495L19.416 9.61734ZM19.9333 12.6133L20.6732 12.4901L20.6724 12.4857L19.9333 12.6133ZM19.6747 13.2333L19.2418 12.6208L19.2389 12.6229L19.6747 13.2333ZM18.996 13.28L19.3441 12.6157L19.3428 12.615L18.996 13.28ZM16.3014 11.8747L15.9497 12.5371L15.9545 12.5397L16.3014 11.8747ZM15.6987 11.8747L16.0462 12.5393L16.0503 12.5371L15.6987 11.8747ZM13.0107 13.28L12.6632 12.6154L12.6626 12.6157L13.0107 13.28ZM12.332 13.2333L12.7678 12.6229L12.7649 12.6208L12.332 13.2333ZM12.0734 12.6133L11.3343 12.4857L11.3335 12.4901L12.0734 12.6133ZM12.5907 9.61734L13.3298 9.74495L13.3303 9.74198L12.5907 9.61734ZM12.4067 9.05867L11.8844 9.59697L11.8859 9.59841L12.4067 9.05867ZM10.216 6.93334L10.7383 6.39503L10.735 6.39185L10.216 6.93334ZM10.0547 6.284L9.3438 6.04493L9.34266 6.04836L10.0547 6.284ZM10.5734 5.85334L10.6777 6.59605L10.6806 6.59563L10.5734 5.85334ZM13.592 5.41734L13.4849 4.67502L13.4848 4.67504L13.592 5.41734ZM14.076 5.068L14.7468 5.40348L14.7479 5.4013L14.076 5.068ZM16.0911 2.69354C16.0826 2.71041 16.0696 2.72458 16.0535 2.73449L15.2669 1.45726C15.0465 1.59301 14.8681 1.78729 14.7516 2.01847L16.0911 2.69354ZM16.0535 2.73449C16.0374 2.74439 16.0189 2.74963 16 2.74963V1.24963C15.7411 1.24963 15.4874 1.32151 15.2669 1.45726L16.0535 2.73449ZM16 2.74963C15.9811 2.74963 15.9626 2.74439 15.9465 2.73449L16.7331 1.45726C16.5127 1.32151 16.2589 1.24963 16 1.24963V2.74963ZM15.9465 2.73449C15.9304 2.72458 15.9174 2.7104 15.9089 2.69354L17.2484 2.01847C17.1319 1.78729 16.9535 1.59301 16.7331 1.45726L15.9465 2.73449ZM15.9068 2.6893L17.2521 5.4013L18.5959 4.73471L17.2506 2.02271L15.9068 2.6893ZM17.2532 5.40348C17.3539 5.60471 17.5017 5.77859 17.6842 5.91027L18.562 4.69399C18.5759 4.704 18.5872 4.71722 18.5948 4.73252L17.2532 5.40348ZM17.6842 5.91027C17.8666 6.04195 18.0782 6.12751 18.3009 6.15965L18.5151 4.67502C18.5321 4.67747 18.5482 4.68397 18.562 4.69399L17.6842 5.91027ZM18.3008 6.15963L21.3195 6.59563L21.5339 5.11104L18.5152 4.67504L18.3008 6.15963ZM21.3224 6.59604C21.3024 6.59324 21.2836 6.58493 21.2681 6.57204L22.2263 5.41801C22.0276 5.25299 21.7868 5.14656 21.531 5.11063L21.3224 6.59604ZM21.2681 6.57204C21.2525 6.55915 21.2409 6.5422 21.2345 6.52307L22.6562 6.04493C22.5739 5.8001 22.425 5.58302 22.2263 5.41801L21.2681 6.57204ZM21.2333 6.51964C21.226 6.49753 21.2251 6.47378 21.2307 6.45116L22.6865 6.81285C22.7492 6.56038 22.7391 6.29532 22.6574 6.04836L21.2333 6.51964ZM21.2307 6.45116C21.2363 6.42853 21.2483 6.40797 21.2651 6.39185L22.303 7.47482C22.4908 7.29484 22.6237 7.06532 22.6865 6.81285L21.2307 6.45116ZM21.261 6.39584L19.077 8.52117L20.1231 9.59617L22.3071 7.47084L21.261 6.39584ZM19.0793 8.51893C18.9178 8.67472 18.7967 8.86751 18.7265 9.08062L20.1513 9.54986C20.1452 9.56828 20.1347 9.58494 20.1208 9.59841L19.0793 8.51893ZM18.7265 9.08062C18.6564 9.29373 18.6392 9.52073 18.6764 9.74198L20.1556 9.4927C20.1588 9.51182 20.1573 9.53144 20.1513 9.54986L18.7265 9.08062ZM18.677 9.74495L19.1943 12.741L20.6724 12.4857L20.1551 9.48972L18.677 9.74495ZM19.1935 12.7366C19.1899 12.7147 19.1925 12.6923 19.201 12.6718L20.5854 13.2493C20.6854 13.0095 20.7159 12.7464 20.6732 12.4901L19.1935 12.7366ZM19.201 12.6718C19.2096 12.6513 19.2237 12.6336 19.2418 12.6208L20.1075 13.8458C20.3197 13.6959 20.4853 13.4891 20.5854 13.2493L19.201 12.6718ZM19.2389 12.6229C19.2541 12.6121 19.2719 12.6057 19.2905 12.6044L19.3934 14.1009C19.6516 14.0831 19.8998 13.9941 20.1104 13.8438L19.2389 12.6229ZM19.2905 12.6044C19.3091 12.6031 19.3276 12.607 19.3441 12.6157L18.6479 13.9443C18.8771 14.0644 19.1352 14.1186 19.3934 14.1009L19.2905 12.6044ZM19.3428 12.615L16.6482 11.2097L15.9545 12.5397L18.6492 13.945L19.3428 12.615ZM16.653 11.2122C16.4519 11.1055 16.2277 11.0496 16 11.0496V12.5496C15.9825 12.5496 15.9652 12.5453 15.9497 12.5371L16.653 11.2122ZM16 11.0496C15.7723 11.0496 15.5481 11.1055 15.347 11.2122L16.0503 12.5371C16.0348 12.5453 16.0176 12.5496 16 12.5496V11.0496ZM15.3512 11.21L12.6632 12.6154L13.3582 13.9446L16.0462 12.5393L15.3512 11.21ZM12.6626 12.6157C12.6791 12.607 12.6976 12.6031 12.7162 12.6044L12.6133 14.1009C12.8715 14.1186 13.1296 14.0644 13.3588 13.9443L12.6626 12.6157ZM12.7162 12.6044C12.7348 12.6057 12.7526 12.6121 12.7678 12.6229L11.8962 13.8438C12.1069 13.9941 12.3551 14.0831 12.6133 14.1009L12.7162 12.6044ZM12.7649 12.6208C12.783 12.6336 12.7971 12.6513 12.8057 12.6718L11.4213 13.2493C11.5214 13.4891 11.687 13.6959 11.8992 13.8458L12.7649 12.6208ZM12.8057 12.6718C12.8142 12.6923 12.8168 12.7147 12.8132 12.7366L11.3335 12.4901C11.2908 12.7464 11.3213 13.0095 11.4213 13.2493L12.8057 12.6718ZM12.8124 12.741L13.3297 9.74495L11.8516 9.48972L11.3343 12.4857L12.8124 12.741ZM13.3303 9.74198C13.3675 9.52073 13.3503 9.29372 13.2802 9.08062L11.8554 9.54986C11.8494 9.53144 11.8479 9.51182 11.8511 9.4927L13.3303 9.74198ZM13.2802 9.08062C13.21 8.86751 13.0889 8.67472 12.9274 8.51893L11.8859 9.59841C11.872 9.58494 11.8615 9.56828 11.8554 9.54986L13.2802 9.08062ZM12.9289 8.52037L10.7383 6.39504L9.69378 7.47163L11.8844 9.59697L12.9289 8.52037ZM10.735 6.39185C10.7518 6.40797 10.7637 6.42853 10.7693 6.45116L9.31357 6.81285C9.3763 7.06531 9.50927 7.29483 9.69708 7.47482L10.735 6.39185ZM10.7693 6.45116C10.7749 6.47377 10.774 6.49752 10.7667 6.51964L9.34266 6.04836C9.26093 6.29532 9.25084 6.56039 9.31357 6.81285L10.7693 6.45116ZM10.7656 6.52307C10.7591 6.5422 10.7475 6.55915 10.732 6.57204L9.77375 5.41801C9.57502 5.58302 9.42615 5.8001 9.34381 6.04493L10.7656 6.52307ZM10.732 6.57204C10.7165 6.58492 10.6977 6.59324 10.6777 6.59604L10.469 5.11063C10.2132 5.14656 9.97248 5.25299 9.77375 5.41801L10.732 6.57204ZM10.6806 6.59563L13.6992 6.15963L13.4848 4.67504L10.4661 5.11104L10.6806 6.59563ZM13.6991 6.15965C13.9218 6.12751 14.1334 6.04195 14.3159 5.91027L13.438 4.69399C13.4519 4.68397 13.468 4.67747 13.4849 4.67502L13.6991 6.15965ZM14.3159 5.91027C14.4983 5.7786 14.6462 5.60472 14.7468 5.40348L13.4052 4.73252C13.4129 4.71722 13.4241 4.704 13.438 4.69399L14.3159 5.91027ZM14.7479 5.4013L16.0932 2.6893L14.7495 2.02271L13.4041 4.73471L14.7479 5.4013Z" fill="#767676"/>
<path d="M7.27882 13.8667L7.62559 13.2017L7.6255 13.2016L7.27882 13.8667ZM6.97682 13.7927V13.0427V13.7927ZM6.67482 13.8667L7.02141 14.5318L7.0215 14.5317L6.67482 13.8667ZM3.98815 15.2667L3.64157 14.6016L3.64124 14.6017L3.98815 15.2667ZM3.30815 15.2213L2.87414 15.833L2.87604 15.8344L3.30815 15.2213ZM3.05082 14.6L2.31171 14.4727L2.31142 14.4743L3.05082 14.6ZM3.56682 11.6053L2.82776 11.4777L2.82771 11.478L3.56682 11.6053ZM3.38415 11.0467L2.86258 11.5856L2.86324 11.5863L3.38415 11.0467ZM1.19215 8.92534L0.670566 9.46427L0.670581 9.46429L1.19215 8.92534ZM1.03215 8.27601L0.321264 8.03693L0.319888 8.0411L1.03215 8.27601ZM1.55082 7.84534L1.65515 8.58805L1.65808 8.58763L1.55082 7.84534ZM4.56815 7.40934L4.4627 6.66679L4.46089 6.66705L4.56815 7.40934ZM5.05349 7.06001L5.72416 7.39573L5.72523 7.39357L5.05349 7.06001ZM6.40015 4.34801L5.72975 4.01175L5.72841 4.01445L6.40015 4.34801ZM6.9767 4.742C7.39091 4.74318 7.72764 4.40834 7.72882 3.99413C7.72999 3.57992 7.39516 3.24318 6.98094 3.24201L6.9767 4.742ZM8.06383 15.1218C8.43111 15.3134 8.8841 15.1709 9.07562 14.8036C9.26713 14.4363 9.12465 13.9833 8.75737 13.7918L8.06383 15.1218ZM7.6255 13.2016C7.42522 13.0972 7.20269 13.0427 6.97682 13.0427V14.5427C6.96126 14.5427 6.94593 14.5389 6.93214 14.5317L7.6255 13.2016ZM6.97682 13.0427C6.75095 13.0427 6.52842 13.0972 6.32814 13.2016L7.0215 14.5317C7.00771 14.5389 6.99238 14.5427 6.97682 14.5427V13.0427ZM6.32823 13.2016L3.64157 14.6016L4.33474 15.9318L7.02141 14.5318L6.32823 13.2016ZM3.64124 14.6017C3.65676 14.5936 3.67421 14.59 3.69168 14.5911L3.5919 16.0878C3.84927 16.105 4.10639 16.0509 4.33507 15.9316L3.64124 14.6017ZM3.69168 14.5911C3.70914 14.5923 3.72595 14.5982 3.74026 14.6083L2.87604 15.8344C3.08687 15.983 3.33454 16.0707 3.5919 16.0878L3.69168 14.5911ZM3.74217 14.6097C3.76029 14.6225 3.7744 14.6402 3.7829 14.6608L2.39706 15.2347C2.4966 15.4751 2.66197 15.6825 2.87414 15.833L3.74217 14.6097ZM3.7829 14.6608C3.7914 14.6813 3.79394 14.7038 3.79021 14.7257L2.31142 14.4743C2.26783 14.7308 2.29751 14.9944 2.39706 15.2347L3.7829 14.6608ZM3.78993 14.7274L4.30593 11.7327L2.82771 11.478L2.31171 14.4727L3.78993 14.7274ZM4.30588 11.733C4.34413 11.5114 4.32761 11.2839 4.25774 11.0702L2.83202 11.5364C2.82583 11.5175 2.82437 11.4973 2.82776 11.4777L4.30588 11.733ZM4.25774 11.0702C4.18788 10.8566 4.0668 10.6632 3.90506 10.5071L2.86324 11.5863C2.84892 11.5724 2.8382 11.5553 2.83202 11.5364L4.25774 11.0702ZM3.90572 10.5077L1.71372 8.38639L0.670581 9.46429L2.86258 11.5856L3.90572 10.5077ZM1.71374 8.38641C1.73004 8.40218 1.74156 8.42223 1.74698 8.44425L0.290547 8.80312C0.352572 9.05484 0.484279 9.28398 0.670566 9.46427L1.71374 8.38641ZM1.74698 8.44425C1.75241 8.46627 1.75152 8.48937 1.74442 8.51091L0.319888 8.0411C0.238691 8.28731 0.228523 8.55141 0.290547 8.80312L1.74698 8.44425ZM1.74303 8.51508C1.7366 8.5342 1.72497 8.55115 1.70945 8.56404L0.751217 7.41001C0.552487 7.57502 0.403615 7.7921 0.321276 8.03694L1.74303 8.51508ZM1.70945 8.56404C1.69393 8.57693 1.67513 8.58524 1.65515 8.58805L1.44649 7.10263C1.19069 7.13856 0.949948 7.245 0.751217 7.41001L1.70945 8.56404ZM1.65808 8.58763L4.67541 8.15163L4.46089 6.66705L1.44356 7.10305L1.65808 8.58763ZM4.6736 8.15189C4.89681 8.12019 5.10899 8.03483 5.29196 7.90313L4.41568 6.68571C4.42959 6.67569 4.44573 6.6692 4.4627 6.66679L4.6736 8.15189ZM5.29196 7.90313C5.47494 7.77143 5.62324 7.59732 5.72415 7.39572L4.38282 6.72429C4.39049 6.70896 4.40177 6.69572 4.41568 6.68571L5.29196 7.90313ZM5.72523 7.39357L7.0719 4.68157L5.72841 4.01445L4.38174 6.72645L5.72523 7.39357ZM7.07055 4.68426C7.06182 4.70166 7.04842 4.71628 7.03184 4.72649L6.24585 3.4489C6.02483 3.58487 5.8461 3.77979 5.72976 4.01175L7.07055 4.68426ZM7.03184 4.72649C7.01525 4.73669 6.99616 4.74206 6.9767 4.742L6.98094 3.24201C6.72144 3.24127 6.46688 3.31292 6.24585 3.4489L7.03184 4.72649ZM8.75737 13.7918L7.62559 13.2017L6.93205 14.5317L8.06383 15.1218L8.75737 13.7918Z" fill="#767676"/>
<path d="M24.7216 13.8653L24.3749 13.2003L24.3742 13.2006L24.7216 13.8653ZM25.3256 13.8653L25.6724 13.2004L25.6723 13.2003L25.3256 13.8653ZM28.0123 15.2667L28.3592 14.6017L28.3591 14.6017L28.0123 15.2667ZM28.6923 15.2213L29.1244 15.8344L29.1263 15.833L28.6923 15.2213ZM28.9496 14.6L29.689 14.4743L29.6887 14.4727L28.9496 14.6ZM28.4336 11.6053L29.1727 11.478L29.1727 11.4777L28.4336 11.6053ZM28.6163 11.0467L29.1372 11.5863L29.1385 11.585L28.6163 11.0467ZM30.8083 8.92001L30.2867 8.38107L30.286 8.38172L30.8083 8.92001ZM30.9683 8.27067L31.6805 8.03577L31.6791 8.0316L30.9683 8.27067ZM30.4496 7.84001L30.3423 8.5823L30.3453 8.58272L30.4496 7.84001ZM27.4323 7.40401L27.5395 6.66171L27.5377 6.66146L27.4323 7.40401ZM26.9469 7.05467L26.2754 7.38876L26.2763 7.39039L26.9469 7.05467ZM25.6003 4.34801L26.2717 4.01392L26.2707 4.01175L25.6003 4.34801ZM25.0195 3.24201C24.6053 3.24318 24.2704 3.57992 24.2716 3.99413C24.2728 4.40834 24.6095 4.74318 25.0237 4.742L25.0195 3.24201ZM23.2469 13.7898C22.8798 13.9816 22.7377 14.4348 22.9295 14.8019C23.1214 15.169 23.5745 15.311 23.9416 15.1192L23.2469 13.7898ZM25.0683 14.5304C25.0545 14.5376 25.0392 14.5414 25.0236 14.5414V13.0414C24.7977 13.0414 24.5752 13.0959 24.3749 13.2003L25.0683 14.5304ZM25.0236 14.5414C25.008 14.5414 24.9927 14.5376 24.9789 14.5304L25.6723 13.2003C25.472 13.0959 25.2495 13.0414 25.0236 13.0414V14.5414ZM24.9787 14.5303L27.6654 15.9317L28.3591 14.6017L25.6724 13.2004L24.9787 14.5303ZM27.6654 15.9316C27.894 16.0509 28.1511 16.105 28.4085 16.0878L28.3087 14.5911C28.3262 14.59 28.3437 14.5936 28.3592 14.6017L27.6654 15.9316ZM28.4085 16.0878C28.6659 16.0707 28.9135 15.983 29.1244 15.8344L28.2602 14.6083C28.2745 14.5982 28.2913 14.5923 28.3087 14.5911L28.4085 16.0878ZM29.1263 15.833C29.3384 15.6825 29.5038 15.4751 29.6034 15.2347L28.2175 14.6608C28.226 14.6402 28.2401 14.6225 28.2582 14.6097L29.1263 15.833ZM29.6034 15.2347C29.7029 14.9944 29.7326 14.7308 29.689 14.4743L28.2102 14.7257C28.2065 14.7038 28.209 14.6813 28.2175 14.6608L29.6034 15.2347ZM29.6887 14.4727L29.1727 11.478L27.6945 11.7327L28.2105 14.7274L29.6887 14.4727ZM29.1727 11.4777C29.176 11.4973 29.1746 11.5175 29.1684 11.5364L27.7427 11.0702C27.6728 11.2839 27.6563 11.5114 27.6945 11.733L29.1727 11.4777ZM29.1684 11.5364C29.1622 11.5553 29.1515 11.5724 29.1372 11.5863L28.0954 10.5071C27.9336 10.6632 27.8125 10.8566 27.7427 11.0702L29.1684 11.5364ZM29.1385 11.585L31.3305 9.4583L30.286 8.38172L28.094 10.5084L29.1385 11.585ZM31.3298 9.45894C31.5161 9.27864 31.6478 9.0495 31.7099 8.79779L30.2534 8.43891C30.2589 8.4169 30.2704 8.39685 30.2867 8.38108L31.3298 9.45894ZM31.7099 8.79779C31.7719 8.54608 31.7617 8.28198 31.6805 8.03577L30.256 8.50558C30.2489 8.48403 30.248 8.46093 30.2534 8.43891L31.7099 8.79779ZM31.6791 8.0316C31.5968 7.78677 31.4479 7.56969 31.2492 7.40468L30.291 8.55871C30.2754 8.54582 30.2638 8.52887 30.2574 8.50974L31.6791 8.0316ZM31.2492 7.40468C31.0505 7.23966 30.8097 7.13323 30.5539 7.0973L30.3453 8.58272C30.3253 8.57991 30.3065 8.5716 30.291 8.55871L31.2492 7.40468ZM30.5569 7.09772L27.5395 6.66172L27.325 8.1463L30.3423 8.5823L30.5569 7.09772ZM27.5377 6.66146C27.5547 6.66387 27.5708 6.67036 27.5847 6.68037L26.7085 7.8978C26.8914 8.0295 27.1036 8.11486 27.3268 8.14656L27.5377 6.66146ZM27.5847 6.68037C27.5986 6.69038 27.6099 6.70362 27.6176 6.71896L26.2763 7.39039C26.3772 7.592 26.5255 7.76611 26.7085 7.8978L27.5847 6.68037ZM27.6184 6.72059L26.2717 4.01392L24.9288 4.68209L26.2754 7.38876L27.6184 6.72059ZM26.2707 4.01175C26.1543 3.77979 25.9756 3.58487 25.7546 3.4489L24.9686 4.72649C24.952 4.71629 24.9386 4.70167 24.9299 4.68426L26.2707 4.01175ZM25.7546 3.4489C25.5335 3.31292 25.279 3.24127 25.0195 3.24201L25.0237 4.742C25.0043 4.74206 24.9852 4.73668 24.9686 4.72649L25.7546 3.4489ZM23.9416 15.1192L25.069 14.53L24.3742 13.2006L23.2469 13.7898L23.9416 15.1192Z" fill="#767676"/>
<path d="M4 19.25C3.58579 19.25 3.25 19.5858 3.25 20C3.25 20.4142 3.58579 20.75 4 20.75V19.25ZM28 20.75C28.4142 20.75 28.75 20.4142 28.75 20C28.75 19.5858 28.4142 19.25 28 19.25V20.75ZM4 20.75H28V19.25H4V20.75Z" fill="#767676"/>
<path d="M4 29.25C3.58579 29.25 3.25 29.5858 3.25 30C3.25 30.4142 3.58579 30.75 4 30.75V29.25ZM28 30.75C28.4142 30.75 28.75 30.4142 28.75 30C28.75 29.5858 28.4142 29.25 28 29.25V30.75ZM4 30.75H28V29.25H4V30.75Z" fill="#767676"/>
<path d="M4 24.25C3.58579 24.25 3.25 24.5858 3.25 25C3.25 25.4142 3.58579 25.75 4 25.75V24.25ZM22.6667 25.75C23.0809 25.75 23.4167 25.4142 23.4167 25C23.4167 24.5858 23.0809 24.25 22.6667 24.25V25.75ZM4 25.75H22.6667V24.25H4V25.75Z" fill="#767676"/>
</svg>
