<svg width="32" height="32" viewBox="0 0 32 32" fill="none" xmlns="http://www.w3.org/2000/svg">
<path d="M7.43431 29.0943C5.39661 30.9804 1.52333 30.1961 1.52333 30.1961C1.52333 30.1961 0.655798 26.2544 2.62512 24.2851C2.91935 23.9671 3.28097 23.719 3.6835 23.5589C4.08603 23.3987 4.51927 23.3307 4.95151 23.3597C5.38375 23.3886 5.80403 23.5139 6.18158 23.7264C6.55914 23.9388 6.8844 24.233 7.13355 24.5873C7.48757 24.8366 7.7814 25.1619 7.99351 25.5394C8.20563 25.9169 8.33068 26.337 8.35951 26.769C8.38834 27.2011 8.32022 27.6341 8.16014 28.0364C8.00007 28.4387 7.75207 28.8001 7.43431 29.0943Z" stroke="#71717A" stroke-width="1.5" stroke-linecap="round" stroke-linejoin="round"/>
<path d="M28.4033 3.30868L30.3787 1.33331" stroke="#71717A" stroke-width="1.5" stroke-linecap="round" stroke-linejoin="round"/>
<path d="M28.6664 10.2111L28.4034 3.30869L21.501 3.04572C20.4807 3.06746 19.4813 3.33979 18.591 3.83871C17.7007 4.33763 16.9468 5.04783 16.3956 5.90675L8.8916 18.3257L13.3743 22.8145L25.7933 15.3166C26.6549 14.7673 27.3679 14.014 27.869 13.1235C28.3701 12.233 28.6664 11.3923 28.6664 10.2111Z" stroke="#71717A" stroke-width="1.5" stroke-linecap="round" stroke-linejoin="round"/>
<path d="M8.89687 18.3317L4.89172 17.3493C4.75312 17.3147 4.62529 17.2461 4.51976 17.1498C4.41423 17.0535 4.3343 16.9325 4.28717 16.7976C4.23973 16.6718 4.22874 16.5351 4.25548 16.4033C4.28221 16.2715 4.34558 16.1499 4.43831 16.0525L7.3462 13.1522C7.74045 12.7745 8.2342 12.517 8.76958 12.41C9.30495 12.3029 9.85975 12.3506 10.3689 12.5477L11.994 13.1238" stroke="#71717A" stroke-width="1.5" stroke-linecap="round" stroke-linejoin="round"/>
<path d="M13.3809 22.8221L14.3633 26.8272C14.3978 26.9656 14.4662 27.0932 14.5622 27.1987C14.6582 27.3042 14.7789 27.3843 14.9134 27.4317C15.0394 27.4797 15.1764 27.4909 15.3086 27.4642C15.4407 27.4374 15.5626 27.3738 15.66 27.2806L18.5649 24.3652C18.9408 23.9698 19.1963 23.4755 19.3015 22.9402C19.4067 22.4049 19.3572 21.8506 19.1588 21.3424L18.5284 19.7394" stroke="#71717A" stroke-width="1.5" stroke-linecap="round" stroke-linejoin="round"/>
<path d="M21.562 12.4177C22.814 12.4177 23.829 11.4027 23.829 10.1507C23.829 8.8986 22.814 7.88361 21.562 7.88361C20.3099 7.88361 19.2949 8.8986 19.2949 10.1507C19.2949 11.4027 20.3099 12.4177 21.562 12.4177Z" stroke="#71717A" stroke-width="1.5" stroke-linecap="round" stroke-linejoin="round"/>
</svg>
