<svg width="32" height="32" viewBox="0 0 32 32" fill="none" xmlns="http://www.w3.org/2000/svg">
<path fill-rule="evenodd" clip-rule="evenodd" d="M30.909 1.86364C31.2019 1.57075 31.2019 1.09588 30.909 0.802983C30.6161 0.51009 30.1412 0.51009 29.8484 0.802983L28.1046 2.54673L21.5296 2.29623C21.5147 2.29566 21.4999 2.29554 21.485 2.29586C20.3417 2.32022 19.222 2.62537 18.2244 3.18441C17.2268 3.74345 16.382 4.53923 15.7644 5.50165L15.7537 5.51885L11.7019 12.2245L10.629 11.8441C9.98975 11.5991 9.294 11.5402 8.62249 11.6745C7.94729 11.8096 7.32457 12.1343 6.82736 12.6106L6.81656 12.6212L3.90867 15.5215L3.8951 15.5354C3.70508 15.735 3.57523 15.9842 3.52045 16.2542C3.46628 16.5213 3.48768 16.798 3.58212 17.0535C3.67065 17.3024 3.81902 17.5257 4.01422 17.7039C4.21163 17.884 4.45074 18.0122 4.71002 18.0769L4.71306 18.0777L8.51541 19.0104L12.702 23.2026L13.6348 27.0058L13.6356 27.009C13.7003 27.2677 13.8281 27.5063 14.0075 27.7035C14.1849 27.8985 14.4074 28.0469 14.6555 28.136C14.9115 28.2315 15.1893 28.2535 15.4574 28.1992C15.7284 28.1444 15.9784 28.0138 16.1783 27.8227L16.1913 27.8099L19.0962 24.8945L19.1084 24.8819C19.5825 24.3833 19.9048 23.7599 20.0374 23.0848C20.1701 22.4096 20.1077 21.7107 19.8575 21.0697L19.8568 21.0679L19.4464 20.0245L26.1809 15.9586L26.1965 15.9489C27.1621 15.3334 27.961 14.4893 28.5226 13.4913C29.0724 12.5144 29.4164 11.5478 29.4164 10.2111L29.4163 10.1956L29.4159 10.1826L29.1654 3.60729L30.909 1.86364ZM15.0909 26.6453L14.2382 23.169L18.1439 20.8109L18.4602 21.6151L18.4605 21.6158C18.6068 21.9911 18.6432 22.4003 18.5656 22.7955C18.4884 23.1884 18.3016 23.5513 18.0269 23.8425L15.1575 26.7224C15.142 26.716 15.1282 26.7063 15.1169 26.6939C15.1045 26.6803 15.0957 26.6639 15.0911 26.6461L15.0909 26.6453ZM8.53233 17.47L10.9099 13.5352L10.1183 13.2545L10.1104 13.2517L10.0983 13.2471C9.72211 13.1016 9.31221 13.0663 8.91666 13.1454C8.5234 13.224 8.16053 13.4125 7.87009 13.689L4.99687 16.5547C5.0031 16.5704 5.01281 16.5844 5.0253 16.5958C5.03874 16.6081 5.05499 16.6169 5.07261 16.6214L5.07343 16.6216L8.53233 17.47ZM12.6287 13.5911L9.83712 18.2111L13.4898 21.8687L25.3976 14.6794C26.1519 14.1967 26.7762 13.5362 27.2154 12.7557C27.6658 11.9553 27.9142 11.2431 27.9164 10.225L27.6804 4.03166L21.4954 3.79602C20.6055 3.81849 19.7344 4.05767 18.9577 4.49295C18.1775 4.93015 17.5164 5.55181 17.0321 6.30353L12.7104 13.4558C12.6877 13.5045 12.6602 13.5497 12.6287 13.5911ZM3.96071 24.2557C4.25931 24.137 4.5807 24.0865 4.90134 24.108C5.22198 24.1295 5.53375 24.2224 5.81382 24.38C6.09389 24.5376 6.33518 24.7558 6.52 25.0187C6.56966 25.0893 6.63114 25.1508 6.70174 25.2006C6.96436 25.3855 7.18232 25.6268 7.33967 25.9068C7.49702 26.1868 7.58978 26.4985 7.61117 26.819C7.63256 27.1394 7.58203 27.4607 7.46328 27.7591C7.34453 28.0575 7.16057 28.3257 6.92485 28.5438C6.1077 29.3002 4.85737 29.565 3.69036 29.6028C3.12348 29.6212 2.61272 29.5849 2.24351 29.5437L2.1731 29.5356C2.16961 29.5097 2.16612 29.483 2.16263 29.4554C2.11541 29.0815 2.07198 28.5659 2.08551 27.9969C2.11344 26.8225 2.37961 25.5912 3.15545 24.8154C3.1623 24.8085 3.16901 24.8016 3.17559 24.7944C3.39386 24.5586 3.66211 24.3745 3.96071 24.2557ZM0.790755 30.3568C0.790807 30.357 0.790856 30.3573 1.52333 30.196L0.790856 30.3573C0.85467 30.6472 1.0835 30.8722 1.37448 30.9311L1.52333 30.196C1.37448 30.9311 1.3747 30.9312 1.37493 30.9312L1.37548 30.9313L1.37683 30.9316L1.38061 30.9323L1.39237 30.9346L1.43228 30.9421C1.46598 30.9483 1.51372 30.9567 1.57406 30.9664C1.69467 30.9859 1.86618 31.011 2.07722 31.0345C2.49793 31.0814 3.08285 31.1233 3.73901 31.102C5.01806 31.0605 6.72322 30.7744 7.94377 29.6447C8.34358 29.2746 8.6556 28.8198 8.85701 28.3136C9.05842 27.8075 9.14412 27.2626 9.10784 26.7191C9.07157 26.1755 8.91423 25.6469 8.64735 25.172C8.40174 24.7349 8.06905 24.3534 7.67038 24.0509C7.36801 23.6518 6.98654 23.3187 6.54935 23.0727C6.07432 22.8054 5.54552 22.6478 5.00168 22.6113C4.45785 22.5749 3.91274 22.6605 3.40628 22.862C2.90436 23.0616 2.453 23.37 2.08461 23.7649C0.899682 24.958 0.616493 26.6761 0.585938 27.9612C0.570185 28.6238 0.620561 29.2167 0.674457 29.6434C0.701501 29.8575 0.729684 30.0317 0.751508 30.1543C0.762429 30.2156 0.771783 30.2642 0.778643 30.2985L0.786957 30.339L0.789501 30.351L0.790333 30.3549L0.790634 30.3562L0.790755 30.3568ZM20.0449 10.1507C20.0449 9.31282 20.7241 8.63361 21.562 8.63361C22.3998 8.63361 23.079 9.31282 23.079 10.1507C23.079 10.9885 22.3998 11.6677 21.562 11.6677C20.7241 11.6677 20.0449 10.9885 20.0449 10.1507ZM21.562 7.13361C19.8957 7.13361 18.5449 8.48439 18.5449 10.1507C18.5449 11.8169 19.8957 13.1677 21.562 13.1677C23.2283 13.1677 24.579 11.8169 24.579 10.1507C24.579 8.48439 23.2283 7.13361 21.562 7.13361Z" fill="#767676"/>
</svg>
