<svg width="32" height="32" viewBox="0 0 32 32" fill="none" xmlns="http://www.w3.org/2000/svg">
<path d="M4.82398 16.9531L5.38462 15.4642L4.07562 11.9871C3.98163 11.7363 3.97506 11.4606 4.05699 11.2055C4.13892 10.9504 4.30444 10.7313 4.52613 10.5844L7.60216 8.55066L8.56201 4.95959C8.63136 4.70061 8.78609 4.47344 9.00052 4.31578C9.21496 4.15813 9.47619 4.07947 9.74086 4.09287L13.4101 4.28167L16.2709 1.9438C16.4773 1.77522 16.7346 1.68329 16.9998 1.68329C17.265 1.68329 17.5223 1.77522 17.7288 1.9438L20.5896 4.28167L24.2588 4.09667C24.5234 4.08327 24.7847 4.16193 24.9991 4.31959C25.2135 4.47724 25.3683 4.70442 25.4376 4.96339L26.3975 8.55447L29.4735 10.5882C29.6954 10.7349 29.861 10.954 29.943 11.2092C30.0249 11.4643 30.0182 11.7402 29.924 11.9909L28.6163 15.468L29.924 18.9437C30.0183 19.1947 30.025 19.4708 29.9431 19.7261C29.8612 19.9815 29.6955 20.2008 29.4735 20.3477L26.3975 22.3752L25.4326 25.9675C25.3637 26.2268 25.2091 26.4544 24.9946 26.6124C24.7801 26.7703 24.5186 26.8491 24.2538 26.8355L20.5845 26.6505L17.7439 28.9669" stroke="#71717A" stroke-width="1.4625" stroke-linecap="round" stroke-linejoin="round"/>
<path d="M1.66309 24.4952L4.99001 29.4856" stroke="#71717A" stroke-width="1.5" stroke-linecap="round" stroke-linejoin="round"/>
<path d="M22.386 22.496L3.99935 28L2.66602 26L14.8767 10.6666L22.386 22.496Z" stroke="#71717A" stroke-width="1.5" stroke-linecap="round" stroke-linejoin="round"/>
<path d="M14 9.33331L23.3333 24" stroke="#71717A" stroke-width="1.5" stroke-linecap="round" stroke-linejoin="round"/>
<path d="M8 27.0879L9.168 28.8826C9.36112 29.1992 9.61693 29.473 9.9197 29.6872C10.2225 29.9014 10.5658 30.0514 10.9287 30.1281C11.2915 30.2047 11.6662 30.2064 12.0298 30.133C12.3933 30.0596 12.738 29.9127 13.0427 29.7013C13.6656 29.253 14.0936 28.5836 14.2391 27.8301C14.3846 27.0765 14.2366 26.2959 13.8253 25.6479" stroke="#71717A" stroke-width="1.5" stroke-linecap="round" stroke-linejoin="round"/>
</svg>
