<svg width="32" height="32" viewBox="0 0 32 32" fill="none" xmlns="http://www.w3.org/2000/svg">
<path d="M26 7H28.6667C29.403 7 30 7.59695 30 8.33333V24.3333C30 25.0697 29.403 25.6667 28.6667 25.6667H26M6 7H3.33333C2.59695 7 2 7.59695 2 8.33333V24.3333C2 25.0697 2.59695 25.6667 3.33333 25.6667H6M11 29H21C22.1046 29 23 28.1046 23 27V5C23 3.89543 22.1046 3 21 3H11C9.89543 3 9 3.89543 9 5V27C9 28.1046 9.89543 29 11 29Z" stroke="#474445" stroke-width="1.5" stroke-linecap="round" stroke-linejoin="round"/>
</svg>
