<svg width="32" height="32" viewBox="0 0 32 32" fill="none" xmlns="http://www.w3.org/2000/svg">
<path d="M14.6667 27H8C7.46957 27 6.96086 26.7893 6.58579 26.4142C6.21071 26.0391 6 25.5304 6 25V8.03906" stroke="#71717A" stroke-width="1.5" stroke-linecap="round" stroke-linejoin="round"/>
<path d="M2.5 10.5L13.7117 2.47079C14.0709 2.16681 14.5263 2 14.9968 2C15.4674 2 15.9227 2.16681 16.2819 2.47079L26.452 10.4623" stroke="#71717A" stroke-width="1.49197" stroke-linecap="round" stroke-linejoin="round"/>
<path d="M24.0003 16C25.4148 16 26.7714 16.5795 27.7716 17.6109C28.7718 18.6423 29.3337 20.0412 29.3337 21.4999C29.3337 23.8477 26.1479 28.4053 24.7008 30.3144C24.6176 30.4241 24.5113 30.5129 24.39 30.5739C24.2686 30.6349 24.1354 30.6667 24.0003 30.6667C23.8653 30.6667 23.732 30.6349 23.6107 30.5739C23.4893 30.5129 23.383 30.4241 23.2999 30.3144C21.8528 28.4053 18.667 23.8477 18.667 21.4999C18.667 20.0412 19.2289 18.6423 20.2291 17.6109C21.2293 16.5795 22.5858 16 24.0003 16V16Z" stroke="#71717A" stroke-width="1.5" stroke-linecap="round" stroke-linejoin="round"/>
<path d="M14 10H10V14H14V10Z" stroke="#71717A" stroke-width="1.5" stroke-linecap="round" stroke-linejoin="round"/>
<path d="M23 22H25" stroke="#71717A" stroke-width="1.5" stroke-linecap="round" stroke-linejoin="round"/>
</svg>
