<svg width="32" height="32" viewBox="0 0 32 32" fill="none" xmlns="http://www.w3.org/2000/svg">
<path d="M18.1 2.75H27.9V1.25H18.1V2.75ZM29.25 4.1V9.7H30.75V4.1H29.25ZM27.9 11.25H18.1V12.75H27.9V11.25ZM16.75 9.9V4.1H15.25V9.9H16.75ZM18.1 11.25C17.3544 11.25 16.75 10.6456 16.75 9.9H15.25C15.25 11.474 16.526 12.75 18.1 12.75V11.25ZM29.25 9.7C29.25 10.5354 28.5611 11.25 27.9 11.25V12.75C29.5585 12.75 30.75 11.1842 30.75 9.7H29.25ZM27.9 2.75C28.6456 2.75 29.25 3.35442 29.25 4.1H30.75C30.75 2.52599 29.474 1.25 27.9 1.25V2.75ZM18.1 1.25C16.526 1.25 15.25 2.52599 15.25 4.1H16.75C16.75 3.35442 17.3544 2.75 18.1 2.75V1.25Z" fill="#71717A"/>
<path d="M2 18.25C1.58579 18.25 1.25 18.5858 1.25 19C1.25 19.4142 1.58579 19.75 2 19.75V18.25ZM30 19.75C30.4142 19.75 30.75 19.4142 30.75 19C30.75 18.5858 30.4142 18.25 30 18.25V19.75ZM2 19.75H30V18.25H2V19.75Z" fill="#71717A"/>
<path d="M2 23.75C1.58579 23.75 1.25 24.0858 1.25 24.5C1.25 24.9142 1.58579 25.25 2 25.25V23.75ZM30 25.25C30.4142 25.25 30.75 24.9142 30.75 24.5C30.75 24.0858 30.4142 23.75 30 23.75V25.25ZM2 25.25H30V23.75H2V25.25Z" fill="#71717A"/>
<path d="M2 29.25C1.58579 29.25 1.25 29.5858 1.25 30C1.25 30.4142 1.58579 30.75 2 30.75V29.25ZM18.8 30.75C19.2142 30.75 19.55 30.4142 19.55 30C19.55 29.5858 19.2142 29.25 18.8 29.25V30.75ZM2 30.75H18.8V29.25H2V30.75Z" fill="#71717A"/>
<path d="M11.8 7.75C12.2142 7.75 12.55 7.41421 12.55 7C12.55 6.58579 12.2142 6.25 11.8 6.25V7.75ZM2 6.25C1.58579 6.25 1.25 6.58579 1.25 7C1.25 7.41421 1.58579 7.75 2 7.75V6.25ZM11.8 6.25H2V7.75H11.8V6.25Z" fill="#71717A"/>
<path d="M8.06863 1.51096C7.79854 1.19691 7.325 1.16128 7.01096 1.43137C6.69691 1.70146 6.66128 2.175 6.93137 2.48904L8.06863 1.51096ZM11.8002 7L12.3688 7.48904C12.6107 7.20786 12.6107 6.79214 12.3688 6.51096L11.8002 7ZM6.93137 11.511C6.66128 11.825 6.69691 12.2985 7.01096 12.5686C7.325 12.8387 7.79854 12.8031 8.06863 12.489L6.93137 11.511ZM6.93137 2.48904L11.2316 7.48904L12.3688 6.51096L8.06863 1.51096L6.93137 2.48904ZM11.2316 6.51096L6.93137 11.511L8.06863 12.489L12.3688 7.48904L11.2316 6.51096Z" fill="#71717A"/>
</svg>
