<svg width="32" height="32" viewBox="0 0 32 32" fill="none" xmlns="http://www.w3.org/2000/svg">
<path d="M30 16.75C30.4142 16.75 30.75 16.4142 30.75 16C30.75 15.5858 30.4142 15.25 30 15.25V16.75ZM10 15.25C9.58579 15.25 9.25 15.5858 9.25 16C9.25 16.4142 9.58579 16.75 10 16.75V15.25ZM30 15.25H10V16.75H30V15.25Z" fill="#767676"/>
<path d="M10 8.5H9.25H10ZM28.5 9.25H11.5V10.75H28.5V9.25ZM10.75 8.5V3.5H9.25V8.5H10.75ZM11.5 2.75H28.5V1.25H11.5V2.75ZM29.25 3.5V8.5H30.75V3.5H29.25ZM28.5 2.75C28.9142 2.75 29.25 3.08579 29.25 3.5H30.75C30.75 2.25736 29.7426 1.25 28.5 1.25V2.75ZM10.75 3.5C10.75 3.08579 11.0858 2.75 11.5 2.75V1.25C10.2574 1.25 9.25 2.25736 9.25 3.5H10.75ZM11.5 9.25C11.0858 9.25 10.75 8.91421 10.75 8.5H9.25C9.25 9.74264 10.2574 10.75 11.5 10.75V9.25ZM28.5 10.75C29.7426 10.75 30.75 9.74264 30.75 8.5H29.25C29.25 8.91421 28.9142 9.25 28.5 9.25V10.75Z" fill="#767676"/>
<path d="M30 22.75C30.4142 22.75 30.75 22.4142 30.75 22C30.75 21.5858 30.4142 21.25 30 21.25V22.75ZM10 21.25C9.58579 21.25 9.25 21.5858 9.25 22C9.25 22.4142 9.58579 22.75 10 22.75V21.25ZM30 21.25H10V22.75H30V21.25Z" fill="#767676"/>
<path d="M30 30.75C30.4142 30.75 30.75 30.4142 30.75 30C30.75 29.5858 30.4142 29.25 30 29.25V30.75ZM4.75 2C4.75 1.58579 4.41421 1.25 4 1.25C3.58579 1.25 3.25 1.58579 3.25 2H4.75ZM30 29.25H5.5V30.75H30V29.25ZM4.75 28.5V2H3.25V28.5H4.75ZM5.5 29.25C5.08579 29.25 4.75 28.9142 4.75 28.5H3.25C3.25 29.7426 4.25736 30.75 5.5 30.75V29.25Z" fill="#767676"/>
<path d="M3.99995 2L4.46847 1.41435C4.19456 1.19522 3.80534 1.19522 3.53143 1.41435L3.99995 2ZM1.06859 3.38462C0.745142 3.64338 0.692701 4.11535 0.951458 4.4388C1.21021 4.76224 1.68218 4.81468 2.00563 4.55593L1.06859 3.38462ZM5.99427 4.55593C6.31772 4.81468 6.78969 4.76224 7.04845 4.4388C7.3072 4.11535 7.25476 3.64338 6.93132 3.38462L5.99427 4.55593ZM3.53143 1.41435L1.06859 3.38462L2.00563 4.55593L4.46847 2.58565L3.53143 1.41435ZM6.93132 3.38462L4.46847 1.41435L3.53143 2.58565L5.99427 4.55593L6.93132 3.38462Z" fill="#767676"/>
</svg>
