<svg width="32" height="32" viewBox="0 0 32 32" fill="none" xmlns="http://www.w3.org/2000/svg">
<path d="M11 3.75H21V2.25H11V3.75ZM22.25 5V27H23.75V5H22.25ZM21 28.25H11V29.75H21V28.25ZM9.75 27V5H8.25V27H9.75ZM11 28.25C10.3096 28.25 9.75 27.6904 9.75 27H8.25C8.25 28.5188 9.48122 29.75 11 29.75V28.25ZM22.25 27C22.25 27.6904 21.6904 28.25 21 28.25V29.75C22.5188 29.75 23.75 28.5188 23.75 27H22.25ZM21 3.75C21.6904 3.75 22.25 4.30964 22.25 5H23.75C23.75 3.48122 22.5188 2.25 21 2.25V3.75ZM11 2.25C9.48122 2.25 8.25 3.48122 8.25 5H9.75C9.75 4.30964 10.3096 3.75 11 3.75V2.25Z" fill="#767676"/>
<path d="M26 6.25C25.5858 6.25 25.25 6.58579 25.25 7C25.25 7.41421 25.5858 7.75 26 7.75V6.25ZM26 24.9167C25.5858 24.9167 25.25 25.2525 25.25 25.6667C25.25 26.0809 25.5858 26.4167 26 26.4167V24.9167ZM28.6667 6.25H26V7.75H28.6667V6.25ZM26 26.4167H28.6667V24.9167H26V26.4167ZM30.75 24.3333V8.33333H29.25V24.3333H30.75ZM28.6667 26.4167C29.8173 26.4167 30.75 25.4839 30.75 24.3333H29.25C29.25 24.6555 28.9888 24.9167 28.6667 24.9167V26.4167ZM28.6667 7.75C28.9888 7.75 29.25 8.01117 29.25 8.33333H30.75C30.75 7.18274 29.8173 6.25 28.6667 6.25V7.75Z" fill="#767676"/>
<path d="M6 7.75C6.41421 7.75 6.75 7.41421 6.75 7C6.75 6.58579 6.41421 6.25 6 6.25V7.75ZM6 26.4167C6.41421 26.4167 6.75 26.0809 6.75 25.6667C6.75 25.2525 6.41421 24.9167 6 24.9167V26.4167ZM3.33333 7.75H6V6.25H3.33333V7.75ZM6 24.9167H3.33333V26.4167H6V24.9167ZM2.75 24.3333V8.33333H1.25V24.3333H2.75ZM3.33333 24.9167C3.01117 24.9167 2.75 24.6555 2.75 24.3333H1.25C1.25 25.4839 2.18274 26.4167 3.33333 26.4167V24.9167ZM3.33333 6.25C2.18274 6.25 1.25 7.18274 1.25 8.33333H2.75C2.75 8.01117 3.01117 7.75 3.33333 7.75V6.25Z" fill="#767676"/>
</svg>
