<svg width="32" height="32" viewBox="0 0 32 32" fill="none" xmlns="http://www.w3.org/2000/svg">
<path fill-rule="evenodd" clip-rule="evenodd" d="M17.1787 2.35052C17.3368 2.26292 17.5213 2.23568 17.6979 2.27387C17.8746 2.31206 18.0314 2.41308 18.1392 2.55817C18.2469 2.70325 18.2984 2.88253 18.2839 3.06268L18.2838 3.06465L17.3335 15.314C17.071 15.2487 16.7963 15.214 16.5136 15.214C16.2681 15.214 16.0288 15.2401 15.7982 15.2897L14.5456 14.2191L14.5449 14.2185C14.0538 13.7963 13.7063 13.2315 13.551 12.6027C13.3956 11.9738 13.44 11.3121 13.6781 10.7096L13.6783 10.7091L16.8299 2.7728C16.8329 2.76531 16.8357 2.75777 16.8385 2.75019C16.8997 2.58015 17.0206 2.43813 17.1787 2.35052ZM15.8471 16.8352C15.8642 16.8297 15.8811 16.8236 15.8978 16.8169C16.0908 16.7502 16.298 16.714 16.5136 16.714C16.8908 16.714 17.2421 16.8248 17.5368 17.0157C17.5623 17.0357 17.5892 17.0541 17.6173 17.0708C18.0904 17.4132 18.3982 17.97 18.3982 18.5987C18.3982 18.7061 18.3892 18.8115 18.372 18.9141C18.3691 18.9276 18.3667 18.9413 18.3646 18.955C18.198 19.8255 17.4326 20.4833 16.5136 20.4833C16.0591 20.4833 15.6421 20.3224 15.3166 20.0545C15.3053 20.0443 15.2937 20.0345 15.2817 20.0251C14.8819 19.6795 14.6289 19.1686 14.6289 18.5987C14.6289 17.7924 15.1352 17.1044 15.8471 16.8352ZM19.7349 19.6405C19.5735 20.1398 19.2993 20.5883 18.9423 20.9561L29.0791 27.9026L29.0799 27.9032C29.2288 28.0043 29.4091 28.0482 29.5878 28.0269C29.7669 28.0056 29.9322 27.9204 30.0532 27.7868C30.1743 27.6532 30.2431 27.4804 30.2467 27.3001C30.2504 27.1199 30.1888 26.9443 30.0733 26.8059L30.0607 26.7905L24.7662 20.0946L24.7661 20.0945C24.3641 19.5864 23.8135 19.2165 23.1911 19.0367C22.5686 18.8568 21.9055 18.8759 21.2944 19.0913L21.2942 19.0914L19.7349 19.6405ZM17.5513 21.8213C17.2243 21.9265 16.8756 21.9833 16.5136 21.9833C16.1086 21.9833 15.7202 21.9122 15.3603 21.7818L15.1748 22.771C14.9984 23.7161 14.5307 24.5823 13.8373 25.2483C13.1439 25.9143 12.2596 26.3466 11.3082 26.4849L11.3081 26.4849L2.87298 27.7207C2.34207 27.811 1.79625 27.7076 1.33499 27.4291C0.870417 27.1487 0.522999 26.7097 0.356895 26.1931C0.190791 25.6765 0.217221 25.1172 0.431304 24.6186C0.645387 24.1199 1.03266 23.7156 1.52161 23.4802L1.52316 23.4795L13.2033 17.8898C13.3626 17.1421 13.7688 16.4858 14.3326 16.0103L13.5696 15.3581L13.5681 15.3569C12.84 14.7313 12.325 13.8944 12.0948 12.9625C11.8645 12.0307 11.9304 11.0502 12.2834 10.1576L12.2838 10.1565L15.4318 2.2293C15.6176 1.72291 15.9795 1.30014 16.4516 1.03853C16.9275 0.774767 17.4831 0.692758 18.0149 0.80774C18.5468 0.922722 19.0188 1.22688 19.3433 1.66368C19.6675 2.1002 19.8224 2.63952 19.7792 3.18155L19.7791 3.18264L18.7783 16.0833C19.3278 16.5783 19.7142 17.2509 19.8473 18.0106L20.7957 17.6767L20.796 17.6766C21.7018 17.3573 22.6848 17.329 23.6075 17.5956C24.5303 17.8623 25.3467 18.4107 25.9426 19.164L25.9427 19.1641L31.2318 25.8531C31.5747 26.268 31.7574 26.7923 31.7464 27.3307C31.7354 27.8728 31.5287 28.3926 31.1646 28.7942C30.8004 29.1959 30.3033 29.4524 29.765 29.5164C29.2266 29.5805 28.6832 29.4477 28.2351 29.1427L28.2331 29.1413L17.5513 21.8213ZM13.2577 19.5267C13.4018 20.0331 13.6609 20.4912 14.0049 20.8708L13.7004 22.4951L13.7003 22.4957C13.5813 23.1331 13.2659 23.7173 12.7982 24.1665C12.3306 24.6156 11.7341 24.9072 11.0924 25.0005L11.0915 25.0006L2.64619 26.2379L2.62541 26.2413C2.44766 26.2724 2.26465 26.2382 2.11015 26.145C1.95566 26.0517 1.84013 25.9057 1.7849 25.7339C1.72966 25.5621 1.73845 25.3761 1.80964 25.2103C1.88074 25.0447 2.0093 24.9104 2.17162 24.8321L2.17221 24.8318L13.2577 19.5267ZM9.93584 9.65239C10.2696 9.40712 10.3414 8.9377 10.0961 8.60391C9.85086 8.27012 9.38144 8.19836 9.04765 8.44362C7.69365 9.43853 6.55235 10.6942 5.69093 12.1369C4.8295 13.5795 4.26536 15.1798 4.0317 16.8437C3.9741 17.2539 4.25993 17.6331 4.67012 17.6907C5.08031 17.7483 5.45952 17.4625 5.51713 17.0523C5.72296 15.5865 6.21994 14.1767 6.9788 12.9059C7.73765 11.635 8.74306 10.5288 9.93584 9.65239ZM22.9297 8.60402C23.1749 8.27019 23.6443 8.19833 23.9782 8.44354C25.3324 9.43825 26.4739 10.6939 27.3354 12.1366C28.1969 13.5793 28.7609 15.1798 28.9942 16.8438C29.0518 17.254 28.7659 17.6332 28.3557 17.6907C27.9455 17.7483 27.5663 17.4624 27.5088 17.0522C27.3032 15.5863 26.8064 14.1765 26.0475 12.9056C25.2887 11.6348 24.2831 10.5287 23.0902 9.65247C22.7564 9.40727 22.6845 8.93786 22.9297 8.60402ZM10.34 28.7459C10.5326 28.3792 10.986 28.2381 11.3527 28.4307C12.88 29.2331 14.5732 29.6683 16.2981 29.7019C18.0229 29.7355 19.7319 29.3666 21.2892 28.6243C21.6631 28.4461 22.1107 28.6047 22.2889 28.9786C22.4672 29.3526 22.3085 29.8001 21.9346 29.9784C20.1668 30.821 18.2269 31.2398 16.2689 31.2017C14.3109 31.1635 12.3888 30.6694 10.6551 29.7586C10.2884 29.566 10.1473 29.1125 10.34 28.7459Z" fill="#474445"/>
</svg>
