<svg width="32" height="32" viewBox="0 0 32 32" fill="none" xmlns="http://www.w3.org/2000/svg">
<path d="M16.5136 21.2333C17.9687 21.2333 19.1482 20.0537 19.1482 18.5987C19.1482 17.1436 17.9687 15.964 16.5136 15.964C15.0585 15.964 13.8789 17.1436 13.8789 18.5987C13.8789 20.0537 15.0585 21.2333 16.5136 21.2333Z" stroke="#71717A" stroke-width="1.5" stroke-linecap="round" stroke-linejoin="round"/>
<path d="M23.5342 9.048C24.8078 9.98347 25.8813 11.1644 26.6915 12.5211C27.4979 13.8717 28.0272 15.3693 28.2485 16.9266" stroke="#71717A" stroke-width="1.5" stroke-linecap="round" stroke-linejoin="round"/>
<path d="M4.77441 16.948C4.99416 15.3832 5.52472 13.8781 6.33486 12.5214C7.14079 11.1717 8.2072 9.99597 9.47191 9.06262" stroke="#71717A" stroke-width="1.5" stroke-linecap="round" stroke-linejoin="round"/>
<path d="M11.0039 29.0947C12.6344 29.9512 14.4421 30.4159 16.2835 30.4518C18.1167 30.4875 19.9331 30.0973 21.5897 29.3119" stroke="#71717A" stroke-width="1.5" stroke-linecap="round" stroke-linejoin="round"/>
<path d="M15.6168 16.1213L14.0568 14.788C13.447 14.2641 13.0157 13.5631 12.8229 12.7826C12.63 12.0021 12.6852 11.181 12.9808 10.4333L16.1328 2.49599C16.2557 2.15501 16.4981 1.87021 16.8151 1.69453C17.1322 1.51884 17.5022 1.46422 17.8564 1.5408C18.2107 1.61739 18.5251 1.81998 18.7412 2.11092C18.9573 2.40187 19.0605 2.76138 19.0315 3.12266L17.9995 16.4253" stroke="#71717A" stroke-width="1.5" stroke-linecap="round" stroke-linejoin="round"/>
<path d="M14.8162 20.6133L14.4376 22.6333C14.2899 23.4246 13.8983 24.1498 13.3178 24.7074C12.7372 25.265 11.9968 25.627 11.2002 25.7427L2.75491 26.98C2.39879 27.0424 2.03211 26.9739 1.72257 26.7871C1.41304 26.6002 1.18157 26.3077 1.0709 25.9635C0.960225 25.6193 0.977834 25.2467 1.12047 24.9144C1.26311 24.5822 1.52114 24.3128 1.84691 24.156L13.8829 18.396" stroke="#71717A" stroke-width="1.5" stroke-linecap="round" stroke-linejoin="round"/>
<path d="M19.1064 19.0667L21.0451 18.384C21.8035 18.1166 22.6266 18.0929 23.3993 18.3161C24.1719 18.5394 24.8555 18.9985 25.3544 19.6293L30.6491 26.3253C30.8805 26.6026 31.004 26.9543 30.9966 27.3154C30.9892 27.6766 30.8515 28.0229 30.6089 28.2905C30.3663 28.5581 30.0351 28.729 29.6764 28.7717C29.3177 28.8144 28.9557 28.7259 28.6571 28.5227L17.6504 20.98" stroke="#71717A" stroke-width="1.5" stroke-linecap="round" stroke-linejoin="round"/>
</svg>
