<svg width="32" height="32" viewBox="0 0 32 32" fill="none" xmlns="http://www.w3.org/2000/svg">
<path fill-rule="evenodd" clip-rule="evenodd" d="M1.75 16C1.75 8.12994 8.12994 1.75 16 1.75C23.8701 1.75 30.25 8.12994 30.25 16C30.25 23.8701 23.8701 30.25 16 30.25C8.12994 30.25 1.75 23.8701 1.75 16ZM16 0.25C7.30152 0.25 0.25 7.30152 0.25 16C0.25 24.6985 7.30152 31.75 16 31.75C24.6985 31.75 31.75 24.6985 31.75 16C31.75 7.30152 24.6985 0.25 16 0.25ZM16.2242 8.7585C15.6298 8.71741 15.0355 8.8405 14.5064 9.11431C13.9772 9.38813 13.5335 9.80213 13.2238 10.3111C12.914 10.82 12.7501 11.4043 12.75 12.0001C12.7499 12.4144 12.4141 12.7501 11.9999 12.75C11.5856 12.7499 11.2499 12.4141 11.25 11.9999C11.2502 11.1291 11.4897 10.2751 11.9424 9.53123C12.3952 8.78738 13.0436 8.18229 13.817 7.7821C14.5904 7.38191 15.4589 7.20201 16.3276 7.26208C17.1963 7.32214 18.0318 7.61985 18.7428 8.12267C19.4537 8.62549 20.0128 9.31406 20.3588 10.1131C20.7049 10.9122 20.8246 11.791 20.7049 12.6536C20.5853 13.5161 20.2308 14.3291 19.6802 15.0038C19.1297 15.6785 18.4043 16.1888 17.5833 16.4791C17.3395 16.5653 17.1284 16.725 16.9792 16.9362C16.8299 17.1474 16.7499 17.3997 16.75 17.6583V17.6587V19C16.75 19.4142 16.4142 19.75 16 19.75C15.5858 19.75 15.25 19.4142 15.25 19V17.6591V17.6587C15.2498 17.0899 15.4259 16.535 15.7542 16.0705C16.0826 15.6059 16.5469 15.2545 17.0833 15.0649C17.6451 14.8663 18.1414 14.5171 18.5181 14.0555C18.8947 13.5939 19.1373 13.0376 19.2192 12.4474C19.301 11.8573 19.2191 11.256 18.9824 10.7092C18.7456 10.1625 18.3631 9.69136 17.8766 9.34733C17.3902 9.0033 16.8186 8.7996 16.2242 8.7585ZM16 22C15.8022 22 15.6089 22.0586 15.4444 22.1685C15.28 22.2784 15.1518 22.4346 15.0761 22.6173C15.0004 22.8 14.9806 23.0011 15.0192 23.1951C15.0578 23.3891 15.153 23.5673 15.2929 23.7071C15.4327 23.847 15.6109 23.9422 15.8049 23.9808C15.9989 24.0194 16.2 23.9996 16.3827 23.9239C16.5654 23.8482 16.7216 23.72 16.8315 23.5556C16.9414 23.3911 17 23.1978 17 23C17 22.7348 16.8946 22.4804 16.7071 22.2929C16.5196 22.1054 16.2652 22 16 22Z" fill="#474445"/>
</svg>
