<svg width="32" height="32" viewBox="0 0 32 32" fill="none" xmlns="http://www.w3.org/2000/svg">
<path d="M12 12C12.0001 11.2667 12.2019 10.5476 12.5831 9.92116C12.9643 9.29476 13.5104 8.78521 14.1617 8.44821C14.813 8.1112 15.5444 7.95971 16.2759 8.01029C17.0074 8.06087 17.711 8.31157 18.3097 8.735C18.9084 9.15842 19.3792 9.73828 19.6706 10.4112C19.962 11.0841 20.0628 11.8242 19.962 12.5505C19.8613 13.2768 19.5628 13.9615 19.0992 14.5296C18.6356 15.0978 18.0247 15.5276 17.3333 15.772C16.9432 15.9099 16.6055 16.1654 16.3667 16.5033C16.1279 16.8412 15.9998 17.2449 16 17.6587C16 18.1667 16 18.4582 16 18.9531" stroke="#71717A" stroke-width="1.5" stroke-linecap="round" stroke-linejoin="round"/>
<path d="M16 23V24.0001" stroke="#71717A" stroke-width="1.5" stroke-linecap="round" stroke-linejoin="round"/>
<path d="M16 31C24.2843 31 31 24.2843 31 16C31 7.71573 24.2843 1 16 1C7.71573 1 1 7.71573 1 16C1 24.2843 7.71573 31 16 31Z" stroke="#71717A" stroke-width="1.5" stroke-miterlimit="10"/>
</svg>
