<svg width="32" height="32" viewBox="0 0 32 32" fill="none" xmlns="http://www.w3.org/2000/svg">
<path d="M27.3433 1.33335L27.3432 6.23437L22.0626 6.23437" stroke="#71717A" stroke-width="1.5" stroke-linecap="round" stroke-linejoin="round"/>
<path d="M26.0845 5.87867C26.3857 6.16302 26.8604 6.14937 27.1447 5.84817C27.4291 5.54698 27.4154 5.0723 27.1142 4.78795L26.0845 5.87867ZM30.8983 21.6061C31.049 21.2203 30.8584 20.7854 30.4725 20.6347C30.0867 20.484 29.6518 20.6746 29.5011 21.0605L30.8983 21.6061ZM16.5329 29.9166C8.84691 29.9166 2.61621 23.6859 2.61621 16H1.11621C1.11621 24.5144 8.01849 31.4166 16.5329 31.4166V29.9166ZM2.61621 16C2.61621 8.31402 8.84691 2.08331 16.5329 2.08331V0.583313C8.01849 0.583313 1.11621 7.48559 1.11621 16H2.61621ZM16.5329 2.08331C20.2314 2.08331 23.5915 3.52506 26.0845 5.87867L27.1142 4.78795C24.3539 2.18197 20.6293 0.583313 16.5329 0.583313V2.08331ZM29.5011 21.0605C27.4762 26.2455 22.4323 29.9166 16.5329 29.9166V31.4166C23.0707 31.4166 28.6562 27.3474 30.8983 21.6061L29.5011 21.0605Z" fill="#71717A"/>
</svg>
