<svg width="32" height="32" viewBox="0 0 32 32" fill="none" xmlns="http://www.w3.org/2000/svg">
<path fill-rule="evenodd" clip-rule="evenodd" d="M17.75 1.00537C17.75 0.591158 17.4142 0.255371 17 0.255371C16.5858 0.255371 16.25 0.591158 16.25 1.00537V2.27743C13.142 2.46044 10.1981 3.77606 7.98439 5.98976C5.77068 8.20346 4.45507 11.1474 4.27206 14.2554H3C2.58579 14.2554 2.25 14.5912 2.25 15.0054C2.25 15.4196 2.58579 15.7554 3 15.7554H5H27.7881L27.4351 16.4635L27.4347 16.4643C27.1644 17.0022 26.7501 17.4545 26.2379 17.7708C25.7256 18.0871 25.1354 18.2549 24.5333 18.2554H24.5331H24.5328H15C14.5858 18.2554 14.25 18.5912 14.25 19.0054C14.25 19.4196 14.5858 19.7554 15 19.7554H24.5333H24.5339C25.4141 19.7548 26.2769 19.5096 27.0259 19.0471C27.7749 18.5847 28.3807 17.9232 28.7756 17.1365L28.7766 17.1347L29.4641 15.7554H31C31.4142 15.7554 31.75 15.4196 31.75 15.0054C31.75 14.5912 31.4142 14.2554 31 14.2554H29.7279C29.5449 11.1474 28.2293 8.20346 26.0156 5.98976C23.8019 3.77606 20.858 2.46044 17.75 2.27743V1.00537ZM24.955 7.05042C26.8873 8.98273 28.044 11.5456 28.225 14.2554H5.77501C5.95595 11.5456 7.11274 8.98273 9.04505 7.05042C11.1548 4.94064 14.0163 3.75537 17 3.75537C19.9837 3.75537 22.8452 4.94064 24.955 7.05042ZM1 18.2554C1.41421 18.2554 1.75 18.5912 1.75 19.0054V20.2554H8C9.25978 20.2554 10.468 20.7558 11.3588 21.6466C12.0708 22.3587 12.5334 23.2735 12.6904 24.2554H17C18.2598 24.2554 19.468 24.7558 20.3588 25.6466C21.2496 26.5374 21.75 27.7456 21.75 29.0054C21.75 29.4196 21.4142 29.7554 21 29.7554H1.75V31.0054C1.75 31.4196 1.41421 31.7554 1 31.7554C0.585786 31.7554 0.25 31.4196 0.25 31.0054V29.0054V21.0054V19.0054C0.25 18.5912 0.585786 18.2554 1 18.2554ZM1.75 28.2554V21.7554H8C8.86195 21.7554 9.6886 22.0978 10.2981 22.7073C10.7275 23.1367 11.0244 23.6739 11.1623 24.2554H8C7.58579 24.2554 7.25 24.5912 7.25 25.0054C7.25 25.4196 7.58579 25.7554 8 25.7554H12H17C17.862 25.7554 18.6886 26.0978 19.2981 26.7073C19.7275 27.1367 20.0244 27.6739 20.1623 28.2554H1.75Z" fill="#767676"/>
</svg>
