<svg width="32" height="32" viewBox="0 0 32 32" fill="none" xmlns="http://www.w3.org/2000/svg">
<path d="M1.09261 30.2281C0.681533 30.1772 0.307045 30.4692 0.256167 30.8803C0.20529 31.2914 0.49729 31.6659 0.908367 31.7167L1.09261 30.2281ZM7.00049 28.9724L7.55718 28.4698C7.42107 28.3191 7.22964 28.23 7.02665 28.2229C6.82367 28.2158 6.62649 28.2913 6.4802 28.4322L7.00049 28.9724ZM16.0005 28.9724L16.5572 28.4698C16.415 28.3123 16.2127 28.2224 16.0005 28.2224C15.7883 28.2224 15.586 28.3123 15.4438 28.4698L16.0005 28.9724ZM25.0005 28.9724L25.5208 28.4322C25.3745 28.2913 25.1773 28.2158 24.9743 28.2229C24.7714 28.23 24.5799 28.3191 24.4438 28.4698L25.0005 28.9724ZM27.7743 30.651L27.5372 31.3625L27.7743 30.651ZM31.0356 31.7236C31.447 31.6756 31.7417 31.3032 31.6937 30.8918C31.6457 30.4804 31.2733 30.1857 30.8619 30.2337L31.0356 31.7236ZM0.908367 31.7167C2.10512 31.8648 3.31985 31.7438 4.46385 31.3625L3.98951 29.9395C3.05741 30.2502 2.06769 30.3488 1.09261 30.2281L0.908367 31.7167ZM4.46385 31.3625C5.60785 30.9812 6.65225 30.3491 7.52078 29.5126L6.4802 28.4322C5.77255 29.1138 4.92161 29.6288 3.98951 29.9395L4.46385 31.3625ZM6.44381 29.475C7.08256 30.1825 7.86267 30.7481 8.7337 31.1352L9.34289 29.7645C8.66364 29.4626 8.05529 29.0215 7.55718 28.4698L6.44381 29.475ZM8.7337 31.1352C9.60474 31.5223 10.5473 31.7223 11.5005 31.7223V30.2223C10.7572 30.2223 10.0221 30.0663 9.34289 29.7645L8.7337 31.1352ZM11.5005 31.7223C12.4537 31.7223 13.3963 31.5223 14.2673 31.1352L13.6581 29.7645C12.9789 30.0663 12.2438 30.2223 11.5005 30.2223V31.7223ZM14.2673 31.1352C15.1383 30.7481 15.9184 30.1825 16.5572 29.475L15.4438 28.4698C14.9457 29.0215 14.3374 29.4626 13.6581 29.7645L14.2673 31.1352ZM15.4438 29.475C16.0826 30.1825 16.8627 30.7481 17.7337 31.1352L18.3429 29.7645C17.6636 29.4626 17.0553 29.0215 16.5572 28.4698L15.4438 29.475ZM17.7337 31.1352C18.6047 31.5223 19.5473 31.7223 20.5005 31.7223V30.2223C19.7572 30.2223 19.0222 30.0663 18.3429 29.7645L17.7337 31.1352ZM20.5005 31.7223C21.4537 31.7223 22.3963 31.5223 23.2673 31.1352L22.6581 29.7645C21.9789 30.0663 21.2438 30.2223 20.5005 30.2223V31.7223ZM23.2673 31.1352C24.1383 30.7481 24.9184 30.1825 25.5572 29.475L24.4438 28.4698C23.9457 29.0215 23.3374 29.4626 22.6581 29.7645L23.2673 31.1352ZM24.4802 29.5126C25.3488 30.3491 26.3931 30.9812 27.5372 31.3625L28.0115 29.9395C27.0794 29.6288 26.2285 29.1138 25.5208 28.4322L24.4802 29.5126ZM27.5372 31.3625C28.663 31.7378 29.8573 31.8609 31.0356 31.7236L30.8619 30.2337C29.9019 30.3456 28.9288 30.2452 28.0115 29.9395L27.5372 31.3625Z" fill="#767676"/>
<path d="M28.5021 26.4312C28.1972 26.7116 28.1775 27.1861 28.4579 27.4909C28.7384 27.7958 29.2128 27.8155 29.5177 27.5351L28.5021 26.4312ZM30.9152 24.3778L31.5952 24.6945L31.6008 24.6818L30.9152 24.3778ZM30.0005 22.9725V23.7225L30.0009 23.7225L30.0005 22.9725ZM2.0005 22.9725L2.00013 23.7225H2.0005V22.9725ZM1.08583 24.3778L0.400205 24.6818C0.402489 24.687 0.404831 24.6921 0.40723 24.6972L1.08583 24.3778ZM2.95558 27.9605C3.27643 28.2225 3.7489 28.1747 4.01086 27.8539C4.27283 27.533 4.2251 27.0606 3.90424 26.7986L2.95558 27.9605ZM29.5177 27.5351C30.3893 26.7332 31.0951 25.7681 31.5951 24.6944L30.2353 24.0612C29.8181 24.9569 29.2293 25.7622 28.5021 26.4312L29.5177 27.5351ZM31.6008 24.6818C31.719 24.4153 31.7687 24.1235 31.7454 23.8329L30.2502 23.9525C30.2535 23.9941 30.2464 24.0357 30.2296 24.0738L31.6008 24.6818ZM31.7454 23.8329C31.7222 23.5424 31.6267 23.2622 31.4677 23.0179L30.2105 23.8361C30.2333 23.871 30.2469 23.911 30.2502 23.9525L31.7454 23.8329ZM31.4677 23.0179C31.3087 22.7735 31.0912 22.5728 30.8349 22.4339L30.1201 23.7527C30.1568 23.7725 30.1878 23.8012 30.2105 23.8361L31.4677 23.0179ZM30.8349 22.4339C30.5786 22.295 30.2917 22.2223 30.0001 22.2225L30.0009 23.7225C30.0425 23.7225 30.0835 23.7328 30.1201 23.7527L30.8349 22.4339ZM30.0005 22.2225H2.0005V23.7225H30.0005V22.2225ZM2.00087 22.2225C1.70936 22.2223 1.42243 22.295 1.16614 22.4339L1.88088 23.7527C1.91749 23.7328 1.95848 23.7225 2.00013 23.7225L2.00087 22.2225ZM1.16614 22.4339C0.909846 22.5728 0.692314 22.7735 0.533296 23.0179L1.79047 23.8361C1.81319 23.8012 1.84426 23.7725 1.88088 23.7527L1.16614 22.4339ZM0.533296 23.0179C0.374279 23.2622 0.278814 23.5424 0.255572 23.8329L1.7508 23.9525C1.75412 23.911 1.76775 23.871 1.79047 23.8361L0.533296 23.0179ZM0.255572 23.8329C0.232329 24.1235 0.282045 24.4153 0.400205 24.6818L1.77146 24.0738C1.75458 24.0357 1.74748 23.9941 1.7508 23.9525L0.255572 23.8329ZM0.40723 24.6972C1.00241 25.9618 1.87326 27.0768 2.95558 27.9605L3.90424 26.7986C2.99544 26.0566 2.2642 25.1203 1.76443 24.0584L0.40723 24.6972Z" fill="#767676"/>
<path d="M14.251 22.9724C14.251 23.3866 14.5868 23.7224 15.001 23.7224C15.4152 23.7224 15.751 23.3866 15.751 22.9724H14.251ZM15.751 16.8718C15.751 16.4576 15.4152 16.1218 15.001 16.1218C14.5868 16.1218 14.251 16.4576 14.251 16.8718H15.751ZM15.751 22.9724V16.8718H14.251V22.9724H15.751Z" fill="#767676"/>
<path d="M15.0008 2.66173L14.2508 2.66152V2.66159L15.0008 2.66173ZM11.9554 1.65373L11.3534 1.20643C11.3439 1.21923 11.3348 1.23233 11.3261 1.24571L11.9554 1.65373ZM3.02876 15.4217L3.65612 15.8327L3.65806 15.8298L3.02876 15.4217ZM3.86743 16.9697L3.86635 16.2197L3.86578 16.2197L3.86743 16.9697ZM14.9981 16.9537L14.9992 17.7037C15.4129 17.7031 15.748 17.3676 15.7481 16.9539L14.9981 16.9537ZM15.7508 2.66194C15.7509 2.14897 15.5893 1.64902 15.289 1.23315L14.073 2.11133C14.1886 2.27147 14.2508 2.46399 14.2508 2.66152L15.7508 2.66194ZM15.289 1.23315C14.9887 0.817285 14.5649 0.506676 14.078 0.345485L13.6066 1.7695C13.7941 1.83158 13.9573 1.95118 14.073 2.11133L15.289 1.23315ZM14.078 0.345485C13.591 0.184295 13.0656 0.180727 12.5764 0.335289L13.0284 1.76558C13.2168 1.70606 13.4191 1.70743 13.6066 1.7695L14.078 0.345485ZM12.5764 0.335289C12.0873 0.489852 11.6594 0.794677 11.3534 1.20643L12.5574 2.10103C12.6753 1.94248 12.84 1.8251 13.0284 1.76558L12.5764 0.335289ZM11.3261 1.24571L2.39945 15.0137L3.65806 15.8298L12.5847 2.06175L11.3261 1.24571ZM2.4014 15.0107C2.2283 15.275 2.12994 15.5811 2.11676 15.8967L3.61545 15.9593C3.61734 15.9142 3.63139 15.8705 3.65612 15.8327L2.4014 15.0107ZM2.11676 15.8967C2.10358 16.2123 2.17607 16.5256 2.32654 16.8034L3.64542 16.0888C3.62393 16.0492 3.61357 16.0044 3.61545 15.9593L2.11676 15.8967ZM2.32654 16.8034C2.47701 17.0811 2.69986 17.3129 2.97143 17.4743L3.73755 16.1847C3.69875 16.1616 3.66692 16.1285 3.64542 16.0888L2.32654 16.8034ZM2.97143 17.4743C3.24301 17.6356 3.55319 17.7204 3.86907 17.7197L3.86578 16.2197C3.82065 16.2198 3.77634 16.2077 3.73755 16.1847L2.97143 17.4743ZM3.8685 17.7197L14.9992 17.7037L14.997 16.2037L3.86635 16.2197L3.8685 17.7197ZM15.7481 16.9539L15.7508 2.66187L14.2508 2.66159L14.2481 16.9536L15.7481 16.9539Z" fill="#767676"/>
<path d="M20.8418 7.83644L20.2108 8.24182L20.2109 8.24201L20.8418 7.83644ZM19.0005 8.37777H19.7505L19.7505 8.37716L19.0005 8.37777ZM19.0005 18.9724H18.2505C18.2505 19.3867 18.5863 19.7224 19.0005 19.7224V18.9724ZM26.1685 18.9724V19.7224L26.1699 19.7224L26.1685 18.9724ZM27.0455 18.4509L26.3872 18.0915L27.0455 18.4509ZM27.0098 17.4311L27.6414 17.0266L27.6407 17.0255L27.0098 17.4311ZM21.4728 7.43105C21.2684 7.11281 20.9663 6.86939 20.6119 6.73723L20.0878 8.14271C20.1385 8.16159 20.1816 8.19636 20.2108 8.24182L21.4728 7.43105ZM20.6119 6.73723C20.2575 6.60508 19.8698 6.59132 19.5069 6.69801L19.93 8.1371C19.9818 8.12186 20.0372 8.12383 20.0878 8.14271L20.6119 6.73723ZM19.5069 6.69801C19.144 6.80469 18.8254 7.02609 18.5989 7.32902L19.8003 8.22725C19.8326 8.18397 19.8781 8.15234 19.93 8.1371L19.5069 6.69801ZM18.5989 7.32902C18.3724 7.63196 18.2502 8.00013 18.2505 8.37838L19.7505 8.37716C19.7504 8.32312 19.7679 8.27053 19.8003 8.22725L18.5989 7.32902ZM18.2505 8.37777V18.9724H19.7505V8.37777H18.2505ZM19.0005 19.7224H26.1685V18.2224H19.0005V19.7224ZM26.1699 19.7224C26.4839 19.7218 26.7919 19.6368 27.0618 19.4764L26.2951 18.1871C26.2563 18.2102 26.2121 18.2224 26.1671 18.2224L26.1699 19.7224ZM27.0618 19.4764C27.3316 19.3159 27.5534 19.0858 27.7038 18.8102L26.3872 18.0915C26.3656 18.1311 26.3338 18.1641 26.2951 18.1871L27.0618 19.4764ZM27.7038 18.8102C27.8542 18.5346 27.9278 18.2237 27.9168 17.9099L26.4178 17.9623C26.4193 18.0074 26.4088 18.052 26.3872 18.0915L27.7038 18.8102ZM27.9168 17.9099C27.9059 17.5961 27.8107 17.2911 27.6414 17.0266L26.3782 17.8356C26.4025 17.8735 26.4162 17.9173 26.4178 17.9623L27.9168 17.9099ZM27.6407 17.0255L21.4727 7.43087L20.2109 8.24201L26.3789 17.8367L27.6407 17.0255Z" fill="#767676"/>
</svg>
