<svg width="32" height="32" viewBox="0 0 32 32" fill="none" xmlns="http://www.w3.org/2000/svg">
<path d="M1 31.0173C2.08592 31.1517 3.18814 31.0419 4.22619 30.6959C5.26424 30.3499 6.21191 29.7764 7 29.0173C7.56843 29.6469 8.26266 30.1503 9.0378 30.4948C9.81295 30.8392 10.6518 31.0172 11.5 31.0172C12.3482 31.0172 13.1871 30.8392 13.9622 30.4948C14.7373 30.1503 15.4316 29.6469 16 29.0173C16.5684 29.6469 17.2627 30.1503 18.0378 30.4948C18.8129 30.8392 19.6518 31.0172 20.5 31.0172C21.3482 31.0172 22.1871 30.8392 22.9622 30.4948C23.7373 30.1503 24.4316 29.6469 25 29.0173C25.7881 29.7764 26.7358 30.3499 27.7738 30.6959C28.8119 31.0419 29.9141 31.1517 31 31.0173M29.0093 27.028C29.8087 26.2925 30.4561 25.4074 30.9147 24.4227C30.9822 24.2704 31.0106 24.1036 30.9973 23.9376C30.984 23.7716 30.9295 23.6115 30.8386 23.4718C30.7478 23.3322 30.6235 23.2175 30.477 23.1382C30.3305 23.0588 30.1666 23.0173 30 23.0173H2.00001C1.83343 23.0173 1.66947 23.0588 1.52302 23.1382C1.37657 23.2175 1.25226 23.3322 1.1614 23.4718C1.07053 23.6115 1.01598 23.7716 1.0027 23.9376C0.989414 24.1036 1.01782 24.2704 1.08534 24.4227C1.63963 25.6004 2.45383 26.6371 3.46668 27.4547M15 23.0173V2.70665C15 2.3514 14.8882 2.00516 14.6802 1.71716C14.4722 1.42916 14.1787 1.21405 13.8415 1.10242C13.5042 0.990786 13.1403 0.988315 12.8016 1.09536C12.4629 1.2024 12.1665 1.4135 11.9546 1.69865L3.02795 15.4667C2.92903 15.6176 2.87283 15.7926 2.8653 15.9729C2.85777 16.1533 2.89919 16.3323 2.98517 16.491C3.07116 16.6497 3.1985 16.7822 3.35368 16.8744C3.50887 16.9666 3.68611 17.015 3.86662 17.0147L14.9973 16.9987M20.8413 7.88132C20.7245 7.69947 20.5519 7.56037 20.3494 7.48485C20.1469 7.40934 19.9253 7.40147 19.7179 7.46244C19.5106 7.5234 19.3285 7.64991 19.1991 7.82302C19.0697 7.99612 18.9998 8.20651 19 8.42265V19.0173H26.168C26.3475 19.017 26.5236 18.9684 26.6779 18.8766C26.8322 18.7849 26.959 18.6533 27.045 18.4957C27.131 18.3382 27.1731 18.1604 27.1668 17.981C27.1605 17.8016 27.1061 17.6272 27.0093 17.476L20.8413 7.88132Z" stroke="#474445" stroke-width="1.5" stroke-linecap="round" stroke-linejoin="round"/>
</svg>
