<svg width="32" height="32" viewBox="0 0 32 32" fill="none" xmlns="http://www.w3.org/2000/svg">
<path fill-rule="evenodd" clip-rule="evenodd" d="M15.3296 2.28499C15.3296 2.285 15.3295 2.28501 15.3295 2.28502L5.41707 8.85833V29.9167H26.5837V8.85919L16.67 2.28502C16.67 2.28501 16.67 2.285 16.6699 2.28499C16.4718 2.15364 16.2386 2.08331 15.9998 2.08331C15.7609 2.08331 15.5277 2.15364 15.3296 2.28499ZM28.0837 9.8539L30.2519 11.2917C30.5971 11.5206 31.0626 11.4264 31.2915 11.0811C31.5204 10.7359 31.4261 10.2705 31.0809 10.0416L17.4989 1.03488L17.4989 1.03484C17.0546 0.740263 16.533 0.583313 15.9998 0.583313C15.4665 0.583313 14.9449 0.740263 14.5006 1.03484L14.5006 1.03488L0.918593 10.0416C0.573385 10.2705 0.479115 10.7359 0.708035 11.0811C0.936955 11.4264 1.40238 11.5206 1.74759 11.2917L3.91707 9.85303V30.6667C3.91707 31.0809 4.25286 31.4167 4.66707 31.4167H27.3337C27.748 31.4167 28.0837 31.0809 28.0837 30.6667V9.8539ZM13.236 12.8755C13.5581 13.136 13.608 13.6082 13.3476 13.9303C12.7951 14.6134 12.4699 15.4519 12.4171 16.3286C12.4213 17.0805 12.6537 17.8552 12.9325 18.7602L12.948 18.8104C13.2118 19.6665 13.5144 20.6486 13.5144 21.652C13.5144 21.666 13.514 21.68 13.5132 21.6939C13.4461 22.8924 13.0046 24.0396 12.2507 24.9737C11.9906 25.296 11.5184 25.3465 11.1961 25.0863C10.8737 24.8262 10.8233 24.354 11.0834 24.0317C11.6356 23.3475 11.9609 22.5084 12.0143 21.6311C12.0101 20.8807 11.7778 20.107 11.499 19.2018L11.4841 19.1534C11.2201 18.2966 10.9171 17.3134 10.9171 16.308C10.9171 16.2942 10.9175 16.2804 10.9182 16.2667C10.9844 15.068 11.4263 13.9205 12.1813 12.9871C12.4417 12.665 12.914 12.6151 13.236 12.8755ZM20.236 12.8755C20.5581 13.136 20.608 13.6082 20.3476 13.9303C19.7951 14.6134 19.4699 15.452 19.4171 16.3286C19.4213 17.0805 19.6537 17.8552 19.9325 18.7602L19.948 18.8104C20.2118 19.6665 20.5144 20.6486 20.5144 21.652C20.5144 21.666 20.514 21.68 20.5132 21.6939C20.4461 22.8924 20.0046 24.0396 19.2507 24.9737C18.9906 25.296 18.5184 25.3465 18.1961 25.0863C17.8737 24.8262 17.8233 24.354 18.0834 24.0317C18.6356 23.3475 18.9609 22.5084 19.0143 21.6312C19.0101 20.8808 18.7778 20.107 18.499 19.2018L18.4841 19.1534C18.2201 18.2966 17.9171 17.3134 17.9171 16.308C17.9171 16.2942 17.9175 16.2804 17.9182 16.2667C17.9844 15.068 18.4263 13.9205 19.1813 12.9871C19.4417 12.665 19.914 12.6151 20.236 12.8755Z" fill="#474445"/>
</svg>
