<svg width="32" height="32" viewBox="0 0 32 32" fill="none" xmlns="http://www.w3.org/2000/svg">
<g clip-path="url(#clip0_1312_560)">
<path d="M14.915 1.65993L14.5006 1.03484L14.5005 1.03488L14.915 1.65993ZM17.0844 1.65993L17.4989 1.03488L17.4988 1.03484L17.0844 1.65993ZM0.952691 10.0189C0.607483 10.2479 0.513213 10.7133 0.742133 11.0585C0.971053 11.4037 1.43648 11.498 1.78168 11.269L0.952691 10.0189ZM30.2177 11.269C30.5629 11.498 31.0283 11.4037 31.2572 11.0585C31.4862 10.7133 31.3919 10.2479 31.0467 10.0189L30.2177 11.269ZM15.3294 2.28502C15.5276 2.15366 15.7608 2.08331 15.9997 2.08331V0.583313C15.4665 0.583313 14.9449 0.740263 14.5006 1.03484L15.3294 2.28502ZM15.9997 2.08331C16.2386 2.08331 16.4718 2.15366 16.6699 2.28502L17.4988 1.03484C17.0545 0.740263 16.5329 0.583313 15.9997 0.583313V2.08331ZM1.78168 11.269L15.3295 2.28499L14.5005 1.03488L0.952691 10.0189L1.78168 11.269ZM16.6699 2.28499L30.2177 11.269L31.0467 10.0189L17.4989 1.03488L16.6699 2.28499Z" fill="#767676"/>
<path d="M11.667 16.308L10.9181 16.2667C10.9174 16.2804 10.917 16.2942 10.917 16.308H11.667ZM12.7643 21.652L13.5132 21.6939C13.5139 21.68 13.5143 21.666 13.5143 21.652H12.7643ZM11.0833 24.0317C10.8232 24.354 10.8736 24.8262 11.196 25.0863C11.5183 25.3465 11.9905 25.296 12.2506 24.9737L11.0833 24.0317ZM13.3187 13.9663C13.5757 13.6414 13.5206 13.1697 13.1957 12.9128C12.8708 12.6558 12.3991 12.7109 12.1422 13.0358L13.3187 13.9663ZM10.917 16.308C10.917 17.3323 11.2315 18.3338 11.4989 19.2018C11.7803 20.1153 12.0143 20.8951 12.0143 21.652H13.5143C13.5143 20.629 13.1997 19.628 12.9324 18.7602C12.6511 17.8469 12.417 17.0664 12.417 16.308H10.917ZM12.0155 21.6101C11.966 22.495 11.6399 23.342 11.0833 24.0317L12.2506 24.9737C13.0045 24.0396 13.4461 22.8924 13.5132 21.6939L12.0155 21.6101ZM12.1422 13.0358C11.411 13.9603 10.9832 15.0887 10.9181 16.2667L12.4159 16.3494C12.4638 15.4805 12.7794 14.6482 13.3187 13.9663L12.1422 13.0358Z" fill="#767676"/>
<path d="M18.667 16.308L17.9181 16.2666C17.9174 16.2804 17.917 16.2942 17.917 16.308H18.667ZM19.7643 21.652L20.5132 21.6939C20.5139 21.68 20.5143 21.666 20.5143 21.652H19.7643ZM18.0833 24.0317C17.8232 24.354 17.8736 24.8262 18.196 25.0863C18.5183 25.3465 18.9905 25.296 19.2506 24.9737L18.0833 24.0317ZM20.3146 13.9715C20.571 13.6462 20.5152 13.1746 20.1899 12.9181C19.8646 12.6617 19.3931 12.7175 19.1366 13.0428L20.3146 13.9715ZM17.917 16.308C17.917 17.3323 18.2315 18.3338 18.4989 19.2018C18.7803 20.1153 19.0143 20.8951 19.0143 21.652H20.5143C20.5143 20.6289 20.1997 19.628 19.9324 18.7602C19.6511 17.8469 19.417 17.0663 19.417 16.308H17.917ZM19.0155 21.6101C18.966 22.495 18.6399 23.342 18.0833 24.0317L19.2506 24.9737C20.0045 24.0396 20.4461 22.8924 20.5132 21.6939L19.0155 21.6101ZM19.1366 13.0428C18.4089 13.966 17.983 15.0917 17.9181 16.2666L19.4159 16.3494C19.4637 15.4827 19.7778 14.6524 20.3146 13.9715L19.1366 13.0428Z" fill="#767676"/>
<path d="M4.66699 30.6667H3.91699C3.91699 31.0809 4.25278 31.4167 4.66699 31.4167V30.6667ZM27.3337 30.6667V31.4167C27.7479 31.4167 28.0837 31.0809 28.0837 30.6667H27.3337ZM28.0837 8.66669C28.0837 8.25247 27.7479 7.91669 27.3337 7.91669C26.9194 7.91669 26.5837 8.25247 26.5837 8.66669H28.0837ZM3.91699 8.66669V30.6667H5.41699V8.66669H3.91699ZM4.66699 31.4167H27.3337V29.9167H4.66699V31.4167ZM28.0837 30.6667V8.66669H26.5837V30.6667H28.0837Z" fill="#767676"/>
</g>
<defs>
<clipPath id="clip0_1312_560">
<rect width="32" height="32" fill="white"/>
</clipPath>
</defs>
</svg>
