<svg width="32" height="32" viewBox="0 0 32 32" fill="none" xmlns="http://www.w3.org/2000/svg">
<path fill-rule="evenodd" clip-rule="evenodd" d="M15.3295 2.28499C15.3295 2.285 15.3295 2.28501 15.3294 2.28502L5.41699 8.85833V29.9167H26.5837V8.85919L16.6699 2.28502C16.6699 2.28501 16.6699 2.285 16.6699 2.28499C16.4717 2.15364 16.2385 2.08331 15.9997 2.08331C15.7608 2.08331 15.5276 2.15364 15.3295 2.28499ZM28.0837 9.8539L30.2518 11.2917C30.5971 11.5206 31.0625 11.4264 31.2914 11.0811C31.5203 10.7359 31.426 10.2705 31.0808 10.0416L17.4989 1.03488L17.4988 1.03484C17.0545 0.740263 16.5329 0.583313 15.9997 0.583313C15.4665 0.583313 14.9449 0.740263 14.5005 1.03484L14.5005 1.03488L0.918511 10.0416C0.573304 10.2705 0.479034 10.7359 0.707954 11.0811C0.936874 11.4264 1.4023 11.5206 1.7475 11.2917L3.91699 9.85303V30.6667C3.91699 31.0809 4.25278 31.4167 4.66699 31.4167H27.3337C27.7479 31.4167 28.0837 31.0809 28.0837 30.6667V9.8539ZM13.236 12.8755C13.558 13.136 13.608 13.6082 13.3475 13.9303C12.795 14.6134 12.4698 15.4519 12.417 16.3286C12.4212 17.0805 12.6537 17.8552 12.9324 18.7602L12.9479 18.8104C13.2117 19.6665 13.5143 20.6486 13.5143 21.652C13.5143 21.666 13.5139 21.68 13.5132 21.6939C13.4461 22.8924 13.0045 24.0396 12.2506 24.9737C11.9905 25.296 11.5183 25.3465 11.196 25.0863C10.8736 24.8262 10.8232 24.354 11.0833 24.0317C11.6355 23.3475 11.9608 22.5084 12.0143 21.6311C12.01 20.8807 11.7777 20.107 11.4989 19.2018L11.484 19.1534C11.22 18.2966 10.917 17.3134 10.917 16.308C10.917 16.2942 10.9174 16.2804 10.9181 16.2667C10.9843 15.068 11.4262 13.9205 12.1812 12.9871C12.4416 12.665 12.9139 12.6151 13.236 12.8755ZM20.236 12.8755C20.558 13.136 20.608 13.6082 20.3475 13.9303C19.795 14.6134 19.4698 15.452 19.417 16.3286C19.4212 17.0805 19.6537 17.8552 19.9324 18.7602L19.9479 18.8104C20.2117 19.6665 20.5143 20.6486 20.5143 21.652C20.5143 21.666 20.5139 21.68 20.5132 21.6939C20.4461 22.8924 20.0045 24.0396 19.2506 24.9737C18.9905 25.296 18.5183 25.3465 18.196 25.0863C17.8736 24.8262 17.8232 24.354 18.0833 24.0317C18.6355 23.3475 18.9608 22.5084 19.0143 21.6312C19.01 20.8808 18.7777 20.107 18.4989 19.2018L18.484 19.1534C18.22 18.2966 17.917 17.3134 17.917 16.308C17.917 16.2942 17.9174 16.2804 17.9181 16.2667C17.9843 15.068 18.4262 13.9205 19.1812 12.9871C19.4416 12.665 19.9139 12.6151 20.236 12.8755Z" fill="#767676"/>
</svg>
