<svg width="32" height="32" viewBox="0 0 32 32" fill="none" xmlns="http://www.w3.org/2000/svg">
<path fill-rule="evenodd" clip-rule="evenodd" d="M2.65282 17.5159C0.20449 11.755 2.88987 5.10009 8.65079 2.65175C14.4117 0.203421 21.0666 2.8888 23.515 8.64972C25.3659 13.0051 24.2827 17.8714 21.1546 21.0446C21.1349 21.0607 21.1158 21.0779 21.0974 21.0963C21.0789 21.1148 21.0616 21.134 21.0454 21.1539C20.0574 22.1291 18.8723 22.9379 17.517 23.5139C11.7561 25.9622 5.10115 23.2768 2.65282 17.5159ZM21.6155 22.6752C20.6002 23.5779 19.4232 24.3336 18.1037 24.8944C11.5803 27.6667 4.04468 24.626 1.27232 18.1026C-1.50004 11.5793 1.54074 4.04361 8.06409 1.27125C14.5874 -1.50111 22.1231 1.53968 24.8955 8.06303C26.8994 12.7782 25.8661 18.0223 22.6758 21.6142L31.5301 30.4697C31.823 30.7626 31.8229 31.2375 31.53 31.5304C31.2371 31.8232 30.7622 31.8232 30.4694 31.5303L21.6155 22.6752Z" fill="#474445"/>
</svg>
