<svg width="32" height="32" viewBox="0 0 32 32" fill="none" xmlns="http://www.w3.org/2000/svg">
<path d="M23.2456 24.7153C26.1136 22.2813 27.933 18.6542 27.933 14.6032C27.933 7.27444 21.9784 1.33333 14.633 1.33333C7.28762 1.33333 1.33301 7.27444 1.33301 14.6032C1.33301 21.9319 7.28762 27.873 14.633 27.873C17.9182 27.873 20.9251 26.6847 23.2456 24.7153ZM23.2456 24.7153L29.333 30.6667M20.4886 11.5343C20.2257 11.2601 19.9095 11.0418 19.5592 10.8927C19.209 10.7436 18.8319 10.6667 18.4508 10.6667C18.0697 10.6667 17.6926 10.7436 17.3423 10.8927C16.9921 11.0418 16.6759 11.2601 16.413 11.5343L14.6663 13.3291L12.9197 11.5343C12.6568 11.2601 12.3406 11.0418 11.9904 10.8927C11.6401 10.7436 11.263 10.6667 10.8819 10.6667C10.5008 10.6667 10.1237 10.7436 9.77345 10.8927C9.42317 11.0418 9.10701 11.2601 8.84412 11.5343C8.3021 12.0985 7.99967 12.8486 7.99967 13.6287C7.99967 14.4088 8.3021 15.1589 8.84412 15.7231L14.0456 21.0692C14.1257 21.1527 14.222 21.2191 14.3287 21.2645C14.4354 21.3099 14.5503 21.3333 14.6663 21.3333C14.7824 21.3333 14.8973 21.3099 15.004 21.2645C15.1107 21.2191 15.207 21.1527 15.2871 21.0692L20.4886 15.7231C21.0306 15.1589 21.333 14.4088 21.333 13.6287C21.333 12.8486 21.0306 12.0985 20.4886 11.5343Z" stroke="#474445" stroke-width="1.5" stroke-linecap="round" stroke-linejoin="round"/>
</svg>
