<svg width="32" height="32" viewBox="0 0 32 32" fill="none" xmlns="http://www.w3.org/2000/svg">
<path d="M14.633 27.123C7.70023 27.123 2.08301 21.5161 2.08301 14.6032H0.583008C0.583008 22.3477 6.87501 28.623 14.633 28.623V27.123ZM2.08301 14.6032C2.08301 7.69026 7.70023 2.08334 14.633 2.08334V0.583336C6.87501 0.583336 0.583008 6.85863 0.583008 14.6032H2.08301ZM14.633 2.08334C21.5658 2.08334 27.183 7.69026 27.183 14.6032H28.683C28.683 6.85863 22.391 0.583336 14.633 0.583336V2.08334ZM27.183 14.6032C27.183 21.5161 21.5658 27.123 14.633 27.123V28.623C22.391 28.623 28.683 22.3477 28.683 14.6032H27.183Z" fill="#71717A"/>
<path d="M20.4889 11.5343L19.9475 12.0534L19.948 12.0539L20.4889 11.5343ZM16.4133 11.5343L16.9508 12.0574L16.9547 12.0534L16.4133 11.5343ZM14.6667 13.3291L14.1292 13.8522C14.2704 13.9972 14.4642 14.0791 14.6667 14.0791C14.8691 14.0791 15.063 13.9972 15.2042 13.8522L14.6667 13.3291ZM12.92 11.5343L12.3786 12.0534L12.3825 12.0574L12.92 11.5343ZM8.84445 11.5343L9.38532 12.0539L9.38581 12.0534L8.84445 11.5343ZM8 13.6287H7.25H8ZM8.84445 15.7231L8.30356 16.2427L8.3069 16.2461L8.84445 15.7231ZM14.0459 21.0692L14.5871 20.5499L14.5835 20.5462L14.0459 21.0692ZM15.2874 21.0692L14.7498 20.5462L14.7463 20.5499L15.2874 21.0692ZM20.4889 15.7231L21.0264 16.2461L21.0298 16.2427L20.4889 15.7231ZM21.3333 13.6287H22.0833H21.3333ZM21.0302 11.0152C20.6971 10.6677 20.2966 10.3914 19.8534 10.2027L19.2658 11.5828C19.523 11.6923 19.7549 11.8525 19.9475 12.0534L21.0302 11.0152ZM19.8534 10.2027C19.4101 10.0139 18.9331 9.91667 18.4511 9.91667V11.4167C18.7313 11.4167 19.0085 11.4732 19.2658 11.5828L19.8534 10.2027ZM18.4511 9.91667C17.9692 9.91667 17.4921 10.0139 17.0489 10.2027L17.6365 11.5828C17.8937 11.4732 18.1709 11.4167 18.4511 11.4167V9.91667ZM17.0489 10.2027C16.6056 10.3914 16.2051 10.6677 15.872 11.0152L16.9547 12.0534C17.1473 11.8525 17.3792 11.6923 17.6365 11.5828L17.0489 10.2027ZM15.8758 11.0112L14.1292 12.806L15.2042 13.8522L16.9508 12.0574L15.8758 11.0112ZM15.2042 12.806L13.4575 11.0112L12.3825 12.0574L14.1292 13.8522L15.2042 12.806ZM13.4614 11.0152C13.1282 10.6677 12.7278 10.3914 12.2845 10.2027L11.6969 11.5828C11.9541 11.6923 12.186 11.8525 12.3786 12.0534L13.4614 11.0152ZM12.2845 10.2027C11.8412 10.0139 11.3642 9.91667 10.8822 9.91667V11.4167C11.1624 11.4167 11.4396 11.4732 11.6969 11.5828L12.2845 10.2027ZM10.8822 9.91667C10.4003 9.91667 9.92324 10.0139 9.47997 10.2027L10.0676 11.5828C10.3249 11.4732 10.602 11.4167 10.8822 11.4167V9.91667ZM9.47997 10.2027C9.03669 10.3914 8.63626 10.6677 8.30309 11.0152L9.38581 12.0534C9.5784 11.8525 9.8103 11.6923 10.0676 11.5828L9.47997 10.2027ZM8.30358 11.0147C7.62782 11.7182 7.25 12.6543 7.25 13.6287H8.75C8.75 13.043 8.97704 12.4789 9.38532 12.0539L8.30358 11.0147ZM7.25 13.6287C7.25 14.6031 7.62782 15.5392 8.30358 16.2427L9.38532 15.2035C8.97704 14.7785 8.75 14.2144 8.75 13.6287H7.25ZM8.3069 16.2461L13.5084 21.5922L14.5835 20.5462L9.382 15.2001L8.3069 16.2461ZM13.5048 21.5885C13.6552 21.7452 13.8357 21.8697 14.0354 21.9546L14.6227 20.5744C14.609 20.5686 14.5969 20.5601 14.5871 20.5499L13.5048 21.5885ZM14.0354 21.9546C14.235 22.0396 14.4498 22.0833 14.6667 22.0833V20.5833C14.6514 20.5833 14.6364 20.5803 14.6227 20.5744L14.0354 21.9546ZM14.6667 22.0833C14.8836 22.0833 15.0983 22.0396 15.298 21.9546L14.7106 20.5744C14.6969 20.5803 14.6819 20.5833 14.6667 20.5833V22.0833ZM15.298 21.9546C15.4976 21.8697 15.6782 21.7452 15.8286 21.5885L14.7463 20.5499C14.7364 20.5601 14.7244 20.5686 14.7106 20.5744L15.298 21.9546ZM15.825 21.5922L21.0264 16.2461L19.9513 15.2001L14.7499 20.5462L15.825 21.5922ZM21.0298 16.2427C21.7055 15.5392 22.0833 14.6031 22.0833 13.6287H20.5833C20.5833 14.2144 20.3563 14.7785 19.948 15.2035L21.0298 16.2427ZM22.0833 13.6287C22.0833 12.6543 21.7055 11.7182 21.0298 11.0147L19.948 12.0539C20.3563 12.4789 20.5833 13.043 20.5833 13.6287H22.0833Z" fill="#71717A"/>
<path d="M23.7704 24.179C23.4742 23.8894 22.9994 23.8948 22.7098 24.191C22.4202 24.4872 22.4256 24.962 22.7218 25.2516L23.7704 24.179ZM28.8092 31.203C29.1054 31.4925 29.5802 31.4872 29.8698 31.191C30.1593 30.8948 30.154 30.4199 29.8578 30.1304L28.8092 31.203ZM22.7218 25.2516L28.8092 31.203L29.8578 30.1304L23.7704 24.179L22.7218 25.2516Z" fill="#71717A"/>
</svg>
