<svg width="32" height="32" viewBox="0 0 32 32" fill="none" xmlns="http://www.w3.org/2000/svg">
<path d="M12.8335 19.1667L14.0002 24H27.0002C28.657 24 30.0002 25.3431 30.0002 27V29.3333C30.0002 30.0697 29.4032 30.6667 28.6668 30.6667H10.1288C8.88371 30.6667 7.80435 29.8051 7.52842 28.591L1.70368 2.96216C1.51406 2.12781 2.14824 1.33334 3.00386 1.33334H7.60911C8.22863 1.33334 8.76653 1.76005 8.90748 2.36331L9.28988 4M12.8335 19.1667H18.0002M12.8335 19.1667H10.0002M12.8335 19.1667L10.6668 10M9.28988 4H12.3335C12.8858 4 13.3335 4.44772 13.3335 5V8L10.6668 10M9.28988 4L10.6668 10" stroke="#474445" stroke-width="1.5" stroke-linecap="round" stroke-linejoin="round"/>
</svg>
