<svg width="32" height="32" viewBox="0 0 32 32" fill="none" xmlns="http://www.w3.org/2000/svg">
<path d="M1.86645 4.99066C1.65829 4.61818 1.5747 4.18888 1.62792 3.76551C1.68114 3.34214 1.86838 2.94688 2.16226 2.63751C2.45614 2.32814 2.84126 2.12087 3.26134 2.04599C3.68143 1.97111 4.11445 2.03255 4.49712 2.22133L29.8491 15.1C30.0136 15.1837 30.1517 15.3112 30.2482 15.4685C30.3447 15.6258 30.3958 15.8068 30.3958 15.9913C30.3958 16.1759 30.3447 16.3568 30.2482 16.5141C30.1517 16.6714 30.0136 16.799 29.8491 16.8827L4.49712 29.7787C4.11445 29.9674 3.68143 30.0289 3.26134 29.954C2.84126 29.8791 2.45614 29.6718 2.16226 29.3625C1.86838 29.0531 1.68114 28.6579 1.62792 28.2345C1.5747 27.8111 1.65829 27.3818 1.86645 27.0093L8.61045 15.9907L1.86645 4.99066Z" stroke="#71717A" stroke-width="1.5" stroke-linecap="round" stroke-linejoin="round"/>
<path d="M30.396 15.9907H8.604" stroke="#71717A" stroke-width="1.5" stroke-linecap="round" stroke-linejoin="round"/>
</svg>
