<svg width="32" height="32" viewBox="0 0 32 32" fill="none" xmlns="http://www.w3.org/2000/svg">
<path d="M5.96667 13.8307L3 15.8307L1 12.864" stroke="#474445" stroke-width="1.5" stroke-linecap="round" stroke-linejoin="round"/>
<path d="M3.00146 15.832C3.04327 12.4408 4.31469 9.18 6.57949 6.65553C8.8443 4.13107 11.9485 2.51456 15.3153 2.10636C18.6822 1.69815 22.0827 2.526 24.8852 4.43609C27.6877 6.34619 29.7015 9.20864 30.5525 12.4916C31.4035 15.7746 31.0338 19.2549 29.5122 22.2859C27.9905 25.3169 25.4204 27.6925 22.2792 28.9712C19.138 30.25 15.6394 30.3451 12.4335 29.2387C9.22749 28.1324 6.53211 25.8999 4.84813 22.956" stroke="#474445" stroke-width="1.5" stroke-linecap="round" stroke-linejoin="round"/>
<path d="M12.6665 16.6667H21.9998" stroke="#474445" stroke-width="1.5" stroke-linecap="round" stroke-linejoin="round"/>
<path d="M10.6665 14.6667C11.1969 14.6667 11.7056 14.8774 12.0807 15.2524C12.4558 15.6275 12.6665 16.1362 12.6665 16.6667C12.6665 17.1971 12.4558 17.7058 12.0807 18.0809C11.7056 18.4559 11.1969 18.6667 10.6665 18.6667" stroke="#474445" stroke-width="1.5" stroke-linecap="round" stroke-linejoin="round"/>
<path d="M24.3335 14.6667C23.8031 14.6667 23.2944 14.8774 22.9193 15.2524C22.5442 15.6275 22.3335 16.1362 22.3335 16.6667C22.3335 17.1971 22.5442 17.7058 22.9193 18.0809C23.2944 18.4559 23.8031 18.6667 24.3335 18.6667" stroke="#474445" stroke-width="1.5" stroke-linecap="round" stroke-linejoin="round"/>
</svg>
