<svg width="32" height="32" viewBox="0 0 32 32" fill="none" xmlns="http://www.w3.org/2000/svg">
<path fill-rule="evenodd" clip-rule="evenodd" d="M24.4629 5.05583C21.8106 3.24807 18.5922 2.46457 15.4057 2.85091C12.2192 3.23725 9.28131 4.76715 7.13783 7.15638C5.32873 9.17289 4.18935 11.6858 3.85411 14.3504L5.5475 13.2088C5.89095 12.9773 6.35708 13.068 6.58862 13.4114C6.82016 13.7549 6.72944 14.221 6.38599 14.4526L3.46446 16.4221C3.33458 16.5241 3.1703 16.5841 2.9923 16.582C2.82349 16.5799 2.6684 16.5222 2.54423 16.4265C2.48128 16.3783 2.42495 16.3193 2.3782 16.2499L0.378197 13.2833C0.146654 12.9398 0.237377 12.4737 0.580832 12.2421C0.924286 12.0106 1.39041 12.1013 1.62196 12.4448L2.4386 13.6561C2.8865 10.8788 4.12254 8.27116 6.02131 6.15469C8.40744 3.49499 11.6779 1.79189 15.2251 1.36181C18.7724 0.931738 22.3551 1.80394 25.3077 3.81635C28.2603 5.82877 30.382 8.84458 31.2786 12.3034C32.1752 15.7623 31.7857 19.4291 30.1825 22.6224C28.5794 25.8158 25.8715 28.3186 22.5621 29.6659C19.2526 31.0132 15.5666 31.1133 12.1889 29.9477C8.81116 28.7821 5.97139 26.43 4.19719 23.3284C3.99152 22.9689 4.11626 22.5107 4.47581 22.305C4.83536 22.0993 5.29355 22.2241 5.49922 22.5836C7.09299 25.3698 9.64397 27.4827 12.6782 28.5298C15.7124 29.5768 19.0236 29.4869 21.9965 28.2766C24.9694 27.0663 27.4019 24.818 28.842 21.9494C30.2821 19.0808 30.632 15.787 29.8266 12.6798C29.0212 9.57271 27.1152 6.8636 24.4629 5.05583ZM12.6111 14.7221C12.9459 15.0569 13.1855 15.4691 13.3123 15.9167H21.6878C21.8147 15.4691 22.0542 15.0569 22.389 14.7221C22.9048 14.2064 23.6042 13.9167 24.3336 13.9167C24.7478 13.9167 25.0836 14.2524 25.0836 14.6667C25.0836 15.0809 24.7478 15.4167 24.3336 15.4167C24.0021 15.4167 23.6841 15.5484 23.4497 15.7828C23.2153 16.0172 23.0836 16.3351 23.0836 16.6667C23.0836 16.9982 23.2153 17.3161 23.4497 17.5505C23.6841 17.785 24.0021 17.9167 24.3336 17.9167C24.7478 17.9167 25.0836 18.2524 25.0836 18.6667C25.0836 19.0809 24.7478 19.4167 24.3336 19.4167C23.6042 19.4167 22.9048 19.1269 22.389 18.6112C22.0542 18.2764 21.8147 17.8642 21.6878 17.4167H13.3123C13.1855 17.8642 12.9459 18.2764 12.6111 18.6112C12.0954 19.1269 11.3959 19.4167 10.6666 19.4167C10.2524 19.4167 9.91658 19.0809 9.91658 18.6667C9.91658 18.2524 10.2524 17.9167 10.6666 17.9167C10.9981 17.9167 11.316 17.785 11.5505 17.5505C11.7849 17.3161 11.9166 16.9982 11.9166 16.6667C11.9166 16.3351 11.7849 16.0172 11.5505 15.7828C11.316 15.5484 10.9981 15.4167 10.6666 15.4167C10.2524 15.4167 9.91658 15.0809 9.91658 14.6667C9.91658 14.2524 10.2524 13.9167 10.6666 13.9167C11.3959 13.9167 12.0954 14.2064 12.6111 14.7221Z" fill="#767676"/>
</svg>
