<svg width="32" height="32" viewBox="0 0 32 32" fill="none" xmlns="http://www.w3.org/2000/svg">
<path fill-rule="evenodd" clip-rule="evenodd" d="M31.2275 7.83162C31.4801 7.54746 31.4801 7.11924 31.2275 6.83508L25.8942 0.835079C25.619 0.525492 25.145 0.497606 24.8354 0.772795C24.5258 1.04798 24.4979 1.52204 24.7731 1.83162L28.9969 6.58335H18.0003C16.4815 6.58335 15.2503 7.81457 15.2503 9.33335L15.2503 16.6667C15.2503 17.0809 15.5861 17.4167 16.0003 17.4167C16.4145 17.4167 16.7503 17.0809 16.7503 16.6667V9.33335C16.7503 8.643 17.31 8.08335 18.0003 8.08335H28.9969L24.7731 12.8351C24.4979 13.1447 24.5258 13.6187 24.8354 13.8939C25.145 14.1691 25.619 14.1412 25.8942 13.8316L31.2275 7.83162ZM2.08301 3.33335C2.08301 2.643 2.64265 2.08335 3.33301 2.08335H11.9997C12.4139 2.08335 12.7497 1.74757 12.7497 1.33335C12.7497 0.919138 12.4139 0.583352 11.9997 0.583352H3.33301C1.81423 0.583352 0.583008 1.81457 0.583008 3.33335V28.6667C0.583008 30.1855 1.81422 31.4167 3.33301 31.4167H28.6663C30.1851 31.4167 31.4163 30.1855 31.4163 28.6667V17.3334C31.4163 16.9191 31.0806 16.5834 30.6663 16.5834C30.2521 16.5834 29.9163 16.9191 29.9163 17.3334V28.6667C29.9163 29.357 29.3567 29.9167 28.6663 29.9167H3.33301C2.64265 29.9167 2.08301 29.357 2.08301 28.6667V3.33335Z" fill="#474445"/>
</svg>
