<svg width="32" height="32" viewBox="0 0 32 32" fill="none" xmlns="http://www.w3.org/2000/svg">
<path fill-rule="evenodd" clip-rule="evenodd" d="M15.3737 3.87348C16.7333 2.51384 18.5774 1.75 20.5002 1.75C22.423 1.75 24.2671 2.51384 25.6267 3.87348C26.9864 5.23311 27.7502 7.07718 27.7502 9V31C27.7502 31.4142 28.086 31.75 28.5002 31.75C28.9144 31.75 29.2502 31.4142 29.2502 31V9C29.2502 6.67936 28.3283 4.45376 26.6874 2.81282C25.0464 1.17187 22.8208 0.25 20.5002 0.25C18.1796 0.25 15.954 1.17187 14.313 2.81282C12.8406 4.28525 11.9471 6.22842 11.7791 8.2886C10.2541 8.45241 8.82198 9.13228 7.72723 10.227C6.46136 11.4929 5.7502 13.2098 5.7502 15C5.7502 15.1989 5.82922 15.3897 5.96987 15.5303C6.11053 15.671 6.30129 15.75 6.5002 15.75H18.5002C18.6991 15.75 18.8899 15.671 19.0305 15.5303C19.1712 15.3897 19.2502 15.1989 19.2502 15C19.2502 13.2098 18.539 11.4929 17.2732 10.227C16.1936 9.14742 14.7859 8.47129 13.2845 8.29569C13.4469 6.63142 14.1811 5.06609 15.3737 3.87348ZM8.78789 11.2877C9.77246 10.3031 11.1078 9.75 12.5002 9.75C13.8926 9.75 15.2279 10.3031 16.2125 11.2877C17.0186 12.0937 17.5354 13.1349 17.6964 14.25H7.30403C7.46496 13.1349 7.98184 12.0937 8.78789 11.2877ZM7.73737 18.2885C8.13033 18.4195 8.3427 18.8442 8.21172 19.2372L7.21172 22.2372C7.08073 22.6301 6.65599 22.8425 6.26303 22.7115C5.87008 22.5805 5.65771 22.1558 5.78869 21.7628L6.78869 18.7628C6.91968 18.3699 7.34442 18.1575 7.73737 18.2885ZM5.21172 28.2372C5.3427 27.8442 5.13033 27.4195 4.73737 27.2885C4.34442 27.1575 3.91968 27.3699 3.78869 27.7628L2.78869 30.7628C2.65771 31.1558 2.87008 31.5805 3.26303 31.7115C3.65599 31.8425 4.08073 31.6301 4.21172 31.2372L5.21172 28.2372ZM17.263 18.2885C17.656 18.1575 18.0807 18.3699 18.2117 18.7628L19.2117 21.7628C19.3427 22.1558 19.1303 22.5805 18.7374 22.7115C18.3444 22.8425 17.9197 22.6301 17.7887 22.2372L16.7887 19.2372C16.6577 18.8442 16.8701 18.4195 17.263 18.2885ZM21.2117 27.7628C21.0807 27.3699 20.656 27.1575 20.263 27.2885C19.8701 27.4195 19.6577 27.8442 19.7887 28.2372L20.7887 31.2372C20.9197 31.6301 21.3444 31.8425 21.7374 31.7115C22.1303 31.5805 22.3427 31.1558 22.2117 30.7628L21.2117 27.7628ZM12.5002 18.25C12.9144 18.25 13.2502 18.5858 13.2502 19V22C13.2502 22.4142 12.9144 22.75 12.5002 22.75C12.086 22.75 11.7502 22.4142 11.7502 22V19C11.7502 18.5858 12.086 18.25 12.5002 18.25ZM13.2502 28C13.2502 27.5858 12.9144 27.25 12.5002 27.25C12.086 27.25 11.7502 27.5858 11.7502 28V31C11.7502 31.4142 12.086 31.75 12.5002 31.75C12.9144 31.75 13.2502 31.4142 13.2502 31V28Z" fill="#767676"/>
</svg>
