<svg width="32" height="32" viewBox="0 0 32 32" fill="none" xmlns="http://www.w3.org/2000/svg">
<path d="M16 31C24.2843 31 31 24.2843 31 16C31 7.71573 24.2843 1 16 1C7.71573 1 1 7.71573 1 16C1 24.2843 7.71573 31 16 31Z" stroke="#474445" stroke-width="1.5" stroke-linecap="round" stroke-linejoin="round"/>
<path d="M25.0001 12C24.7934 12.5851 24.4104 13.0917 23.9038 13.45C23.3972 13.8083 22.7919 14.0007 22.1714 14.0007C21.5509 14.0007 20.9457 13.8083 20.4391 13.45C19.9325 13.0917 19.5495 12.5851 19.3428 12" stroke="#474445" stroke-width="1.5" stroke-linecap="round" stroke-linejoin="round"/>
<path d="M12.6573 12C12.4506 12.5851 12.0676 13.0917 11.561 13.45C11.0544 13.8083 10.4492 14.0007 9.82867 14.0007C9.20816 14.0007 8.60292 13.8083 8.09632 13.45C7.58972 13.0917 7.2067 12.5851 7 12" stroke="#474445" stroke-width="1.5" stroke-linecap="round" stroke-linejoin="round"/>
<path d="M24.0645 23.6722C23.3197 22.1692 22.1699 20.9042 20.7446 20.0198C19.3193 19.1353 17.6752 18.6667 15.9978 18.6667C14.3204 18.6667 12.6764 19.1353 11.2511 20.0198C9.82577 20.9042 8.67591 22.1692 7.93115 23.6722" stroke="#474445" stroke-width="1.5" stroke-linecap="round" stroke-linejoin="round"/>
</svg>
