<svg width="32" height="32" viewBox="0 0 32 32" fill="none" xmlns="http://www.w3.org/2000/svg">
<path d="M16 31C24.2843 31 31 24.2843 31 16C31 7.71573 24.2843 1 16 1C7.71573 1 1 7.71573 1 16C1 24.2843 7.71573 31 16 31Z" stroke="#71717A" stroke-width="1.5" stroke-linecap="round" stroke-linejoin="round"/>
<path d="M15.9973 25.0056C17.6747 25.0056 19.3188 24.5369 20.7441 23.6525C22.1608 22.7734 23.3054 21.5183 24.0505 20.0272L7.93066 20C8.67542 21.503 9.82528 22.7681 11.2506 23.6525C12.6759 24.5369 14.3199 25.0056 15.9973 25.0056Z" stroke="#71717A" stroke-width="1.5" stroke-linecap="round" stroke-linejoin="round"/>
<path d="M25 14.0007C24.7933 13.4156 24.4103 12.909 23.9037 12.5507C23.3971 12.1924 22.7918 12 22.1713 12C21.5508 12 20.9456 12.1924 20.439 12.5507C19.939 12.9043 19.5594 13.4024 19.3509 13.9777" stroke="#71717A" stroke-width="1.5" stroke-linecap="round" stroke-linejoin="round"/>
<path d="M7.00028 14.0007C7.20697 13.4156 7.59 12.909 8.0966 12.5507C8.6032 12.1924 9.20844 12 9.82894 12C10.4495 12 11.0547 12.1924 11.5613 12.5507C12.0613 12.9043 12.4409 13.4024 12.6494 13.9778" stroke="#71717A" stroke-width="1.5" stroke-linecap="round" stroke-linejoin="round"/>
</svg>
