<svg width="32" height="32" viewBox="0 0 32 32" fill="none" xmlns="http://www.w3.org/2000/svg">
<path d="M16 31C24.2843 31 31 24.2843 31 16C31 7.71573 24.2843 1 16 1C7.71573 1 1 7.71573 1 16C1 24.2843 7.71573 31 16 31Z" stroke="#71717A" stroke-width="1.5" stroke-linecap="round" stroke-linejoin="round"/>
<path d="M19.3574 12.041C19.5673 12.6087 19.9442 13.1001 20.4389 13.45C20.9455 13.8083 21.5508 14.0007 22.1713 14.0007C22.7918 14.0007 23.397 13.8083 23.9036 13.45C24.3983 13.1001 24.7752 12.6087 24.9851 12.041" stroke="#71717A" stroke-width="1.5" stroke-linecap="round" stroke-linejoin="round"/>
<path d="M7.01416 12.0388C7.22389 12.6075 7.60111 13.0996 8.09647 13.45C8.60306 13.8083 9.2083 14.0007 9.82881 14.0007C10.4493 14.0007 11.0546 13.8083 11.5612 13.45C12.0565 13.0996 12.4337 12.6075 12.6435 12.0388" stroke="#71717A" stroke-width="1.5" stroke-linecap="round" stroke-linejoin="round"/>
<path d="M7.98486 23.565C8.73065 22.109 9.85947 20.8831 11.2507 20.0198C12.676 19.1353 14.3201 18.6667 15.9975 18.6667C17.6749 18.6667 19.3189 19.1353 20.7442 20.0198C22.1355 20.8831 23.2643 22.109 24.0101 23.565" stroke="#71717A" stroke-width="1.5" stroke-linecap="round" stroke-linejoin="round"/>
</svg>
