<svg width="32" height="32" viewBox="0 0 32 32" fill="none" xmlns="http://www.w3.org/2000/svg">
<path d="M16 31C24.2843 31 31 24.2843 31 16C31 7.71573 24.2843 1 16 1C7.71573 1 1 7.71573 1 16C1 24.2843 7.71573 31 16 31Z" stroke="#71717A" stroke-width="1.5" stroke-linecap="round" stroke-linejoin="round"/>
<path d="M10 21H22" stroke="#71717A" stroke-width="1.5" stroke-linecap="round" stroke-linejoin="round"/>
<path d="M24.9996 12C24.7929 12.5851 24.4099 13.0917 23.9033 13.45C23.3967 13.8083 22.7915 14.0007 22.171 14.0007C21.5504 14.0007 20.9452 13.8083 20.4386 13.45C19.932 13.0917 19.549 12.5851 19.3423 12" stroke="#71717A" stroke-width="1.5" stroke-linecap="round" stroke-linejoin="round"/>
<path d="M12.6573 12C12.4506 12.5851 12.0676 13.0917 11.561 13.45C11.0544 13.8083 10.4492 14.0007 9.82867 14.0007C9.20816 14.0007 8.60292 13.8083 8.09632 13.45C7.58972 13.0917 7.2067 12.5851 7 12" stroke="#71717A" stroke-width="1.5" stroke-linecap="round" stroke-linejoin="round"/>
<path d="M19.3701 12.0753C19.5824 12.6285 19.954 13.1071 20.4387 13.4499C20.9453 13.8083 21.5505 14.0007 22.1711 14.0007C22.7916 14.0007 23.3968 13.8083 23.9034 13.4499C24.3881 13.1071 24.7598 12.6285 24.972 12.0753" stroke="#71717A" stroke-width="1.5" stroke-linecap="round" stroke-linejoin="round"/>
<path d="M7.0166 12.0463C7.22688 12.6118 7.60295 13.1012 8.09614 13.45C8.60274 13.8083 9.20797 14.0007 9.82848 14.0007C10.449 14.0007 11.0542 13.8083 11.5608 13.45C12.054 13.1012 12.4301 12.6118 12.6404 12.0463" stroke="#71717A" stroke-width="1.5" stroke-linecap="round" stroke-linejoin="round"/>
</svg>
