<svg width="32" height="32" viewBox="0 0 32 32" fill="none" xmlns="http://www.w3.org/2000/svg">
<path d="M16 31C24.2843 31 31 24.2843 31 16C31 7.71573 24.2843 1 16 1C7.71573 1 1 7.71573 1 16C1 24.2843 7.71573 31 16 31Z" stroke="#767676" stroke-width="1.5" stroke-linecap="round" stroke-linejoin="round"/>
<path d="M24.064 20C23.3192 21.503 22.1694 22.7681 20.7441 23.6525C19.3188 24.5369 17.6747 25.0056 15.9973 25.0056C14.3199 25.0056 12.6759 24.5369 11.2506 23.6525C9.82528 22.7681 8.67542 21.503 7.93066 20" stroke="#767676" stroke-width="1.5" stroke-linecap="round" stroke-linejoin="round"/>
<path d="M19.3427 14.0007C19.5494 13.4156 19.9324 12.909 20.439 12.5507C20.9456 12.1924 21.5508 12 22.1713 12C22.7918 12 23.3971 12.1924 23.9037 12.5507C24.4103 12.909 24.7933 13.4156 25 14.0007" stroke="#767676" stroke-width="1.5" stroke-linecap="round" stroke-linejoin="round"/>
<path d="M6.99989 14.0007C7.20659 13.4156 7.58962 12.909 8.09622 12.5507C8.60281 12.1924 9.20805 12 9.82856 12C10.4491 12 11.0543 12.1924 11.5609 12.5507C12.0675 12.909 12.4505 13.4156 12.6572 14.0007" stroke="#767676" stroke-width="1.5" stroke-linecap="round" stroke-linejoin="round"/>
</svg>
