<svg width="32" height="32" viewBox="0 0 32 32" fill="none" xmlns="http://www.w3.org/2000/svg">
<path d="M16.0254 16.8413C14.8259 15.8709 13.8483 14.6548 13.1583 13.2749C12.4683 11.8949 12.082 10.3831 12.0254 8.84131C12.0633 7.45111 12.3756 6.08211 12.9445 4.81305C13.5133 3.544 14.3275 2.39993 15.3401 1.44664C15.5232 1.26708 15.7695 1.1665 16.0261 1.1665C16.2826 1.1665 16.5289 1.26708 16.7121 1.44664C17.7242 2.40022 18.5379 3.54438 19.1065 4.81339C19.6751 6.0824 19.9874 7.45125 20.0254 8.84131C19.9688 10.3831 19.5825 11.8949 18.8925 13.2749C18.2025 14.6548 17.2249 15.8709 16.0254 16.8413ZM16.0254 16.8413C14.4822 17.0046 12.9218 16.8369 11.4487 16.3492C9.97555 15.8615 8.6234 15.0652 7.48252 14.0134C6.52869 13.0057 5.78317 11.8197 5.28873 10.5233C4.79428 9.22687 4.56063 7.8456 4.60118 6.4587C4.60294 6.19499 4.70894 5.94269 4.89603 5.75684C5.08313 5.57099 5.33614 5.46669 5.59985 5.4667C7.93057 5.44087 10.2124 6.13565 12.1332 7.45603M19.9201 7.44134C21.8303 6.14212 24.0899 5.45352 26.4001 5.46668C26.6634 5.46703 26.9159 5.57152 27.1025 5.75737C27.2891 5.94322 27.3947 6.19532 27.3961 6.45868C27.4355 7.84519 27.201 9.22586 26.7059 10.5216C26.2108 11.8173 25.4648 13.0025 24.5107 14.0093C23.3804 15.0595 22.0382 15.8552 20.5746 16.343C19.1109 16.8308 17.5597 16.9994 16.0254 16.8373M26 19.5C26 22.2613 21.5227 24.5 16 24.5C10.4773 24.5 6 22.2667 6 19.5M29.7464 15.496C30.548 16.6772 30.9831 18.0686 30.9971 19.496C30.9971 25.0187 24.2811 29.496 15.9971 29.496C7.71307 29.496 0.99707 25.0227 0.99707 19.5C1.01042 18.0729 1.44454 16.6815 2.24507 15.5" stroke="#767676" stroke-width="1.5" stroke-linecap="round" stroke-linejoin="round"/>
</svg>
