<svg width="32" height="32" viewBox="0 0 32 32" fill="none" xmlns="http://www.w3.org/2000/svg">
<path d="M16.1079 17.759C16.5198 17.7154 16.8184 17.3462 16.7748 16.9342C16.7312 16.5223 16.362 16.2237 15.9501 16.2673L16.1079 17.759ZM4.55033 6.58194L5.30001 6.60386C5.30018 6.59822 5.30028 6.59258 5.30032 6.58694L4.55033 6.58194ZM5.55367 5.58529L5.55366 6.33534L5.56198 6.33525L5.55367 5.58529ZM11.5509 8.10618C11.896 8.33529 12.3615 8.24128 12.5906 7.8962C12.8197 7.55112 12.7257 7.08564 12.3806 6.85653L11.5509 8.10618ZM5.55369 4.83529C5.09069 4.83528 4.64649 5.0184 4.31801 5.34469L5.37511 6.4089C5.42258 6.36175 5.48676 6.33529 5.55366 6.33529L5.55369 4.83529ZM4.31801 5.34469C3.98953 5.67098 3.80344 6.11395 3.80035 6.57693L5.30032 6.58694C5.30076 6.52005 5.32765 6.45604 5.37511 6.4089L4.31801 5.34469ZM3.80065 6.56002C3.60268 13.3312 9.58631 18.4491 16.1079 17.759L15.9501 16.2673C10.2758 16.8678 5.13021 12.4115 5.30001 6.60386L3.80065 6.56002ZM12.3806 6.85653C10.3577 5.51346 7.97637 4.8084 5.54536 4.83534L5.56198 6.33525C7.692 6.31164 9.77848 6.92941 11.5509 8.10618L12.3806 6.85653Z" fill="#767676"/>
<path d="M19.5187 6.94903C19.1762 7.18198 19.0874 7.64847 19.3203 7.99098C19.5533 8.33348 20.0198 8.42228 20.3623 8.18933L19.5187 6.94903ZM26.4508 5.58527L26.4465 6.33526L26.4498 6.33527L26.4508 5.58527ZM27.4515 6.58191L26.7015 6.58592C26.7015 6.5917 26.7016 6.59748 26.7018 6.60326L27.4515 6.58191ZM24.5526 14.1679L25.0631 14.7174C25.0748 14.7066 25.0861 14.6953 25.097 14.6838L24.5526 14.1679ZM20.5981 16.5125L20.3609 15.801L20.5981 16.5125ZM16.2616 16.2785C15.849 16.2414 15.4845 16.5457 15.4474 16.9582C15.4102 17.3708 15.7145 17.7353 16.1271 17.7725L16.2616 16.2785ZM20.3623 8.18933C22.1558 6.96945 24.2775 6.32291 26.4465 6.33526L26.4551 4.83528C23.9823 4.8212 21.5634 5.5583 19.5187 6.94903L20.3623 8.18933ZM26.4498 6.33527C26.5164 6.33536 26.5802 6.36176 26.6273 6.40872L27.6858 5.34593C27.3581 5.01945 26.9144 4.83588 26.4518 4.83527L26.4498 6.33527ZM26.6273 6.40872C26.6745 6.45568 26.7011 6.51938 26.7015 6.58592L28.2015 6.5779C28.199 6.11527 28.0136 5.6724 27.6858 5.34593L26.6273 6.40872ZM26.7018 6.60326C26.7386 7.89762 26.5197 9.18652 26.0575 10.3961L27.4587 10.9315C27.9913 9.53758 28.2437 8.05221 28.2012 6.56056L26.7018 6.60326ZM26.0575 10.3961C25.5953 11.6057 24.8989 12.7121 24.0082 13.6521L25.097 14.6838C26.1235 13.6006 26.926 12.3255 27.4587 10.9315L26.0575 10.3961ZM24.0422 13.6185C22.9851 14.6006 21.7298 15.3448 20.3609 15.801L20.8352 17.2241C22.4074 16.7001 23.849 15.8453 25.0631 14.7174L24.0422 13.6185ZM20.3609 15.801C19.0414 16.2408 17.6458 16.4031 16.2616 16.2785L16.1271 17.7725C17.7168 17.9156 19.3197 17.7291 20.8352 17.2241L20.3609 15.801Z" fill="#767676"/>
<path d="M26.7989 19.7385C26.8057 19.3243 26.4754 18.9831 26.0613 18.9763C25.6471 18.9695 25.3059 19.2998 25.2991 19.7139L26.7989 19.7385ZM6.70596 19.714C6.69921 19.2998 6.35799 18.9695 5.94383 18.9763C5.52968 18.983 5.19941 19.3243 5.20615 19.7384L6.70596 19.714ZM25.2991 19.7139C25.2836 20.6602 24.4825 21.7164 22.7457 22.5782C21.0535 23.4178 18.6719 23.9577 16.0025 23.9577V25.4577C18.8537 25.4577 21.4728 24.8843 23.4124 23.9219C25.3074 22.9816 26.7693 21.5471 26.7989 19.7385L25.2991 19.7139ZM16.0025 23.9577C13.3328 23.9577 10.9512 23.419 9.25909 22.5801C7.52278 21.7192 6.72142 20.6631 6.70596 19.714L5.20615 19.7384C5.23567 21.5495 6.69725 22.9841 8.59278 23.924C10.5325 24.8857 13.1516 25.4577 16.0025 25.4577V23.9577Z" fill="#767676"/>
<path d="M31.0701 19.6802H31.8202L31.8201 19.6729L31.0701 19.6802ZM0.929688 19.6843L0.179688 19.6772V19.6843H0.929688ZM2.80443 16.0862C3.03677 15.7433 2.94714 15.277 2.60422 15.0446C2.26131 14.8123 1.79497 14.9019 1.56263 15.2448L2.80443 16.0862ZM30.4572 15.2745C30.2264 14.9306 29.7604 14.8389 29.4165 15.0698C29.0726 15.3006 28.9809 15.7666 29.2118 16.1105L30.4572 15.2745ZM30.3201 19.6802C30.3201 22.1257 28.8332 24.4315 26.24 26.1603C23.6521 27.8856 20.0339 28.977 15.9999 28.977V30.477C20.2887 30.477 24.2055 29.3194 27.0721 27.4084C29.9334 25.5009 31.8201 22.7833 31.8201 19.6802H30.3201ZM15.9999 28.977C11.9658 28.977 8.34748 27.8865 5.75962 26.1622C3.16654 24.4344 1.67969 22.1296 1.67969 19.6843H0.179688C0.179688 22.7874 2.06655 25.504 4.92789 27.4105C7.79444 29.3205 11.7112 30.477 15.9999 30.477V28.977ZM1.67965 19.6913C1.69169 18.4051 2.08295 17.1511 2.80443 16.0862L1.56263 15.2448C0.675567 16.554 0.194513 18.0959 0.17972 19.6772L1.67965 19.6913ZM29.2118 16.1105C29.9222 17.1689 30.3077 18.4124 30.3202 19.6876L31.8201 19.6729C31.8047 18.1049 31.3308 16.576 30.4572 15.2745L29.2118 16.1105Z" fill="#767676"/>
<path d="M16.0304 17.0132L15.5587 17.5963C15.8338 17.8188 16.2271 17.8188 16.5022 17.5963L16.0304 17.0132ZM12.0117 8.97575L11.262 8.95532C11.2616 8.9713 11.2616 8.98729 11.2622 9.00327L12.0117 8.97575ZM15.3419 1.54647L15.856 2.09255C15.8597 2.08909 15.8633 2.0856 15.8669 2.08207L15.3419 1.54647ZM16.0311 1.26501V2.01501V1.26501ZM16.7203 1.54647L16.1953 2.08207C16.1989 2.08553 16.2024 2.08896 16.206 2.09235L16.7203 1.54647ZM20.0492 8.97575L20.7987 9.00327C20.7992 8.98727 20.7993 8.97126 20.7989 8.95525L20.0492 8.97575ZM15.8669 2.08207C15.9108 2.03909 15.9697 2.01501 16.0311 2.01501V0.515015C15.5771 0.515015 15.1411 0.693036 14.8169 1.01086L15.8669 2.08207ZM16.0311 2.01501C16.0925 2.01501 16.1515 2.03909 16.1953 2.08207L17.2453 1.01086C16.9211 0.693036 16.4851 0.515015 16.0311 0.515015V2.01501ZM12.7614 8.99617C12.8321 6.40235 13.9667 3.87117 15.856 2.09255L14.8278 1.00039C12.6478 3.05275 11.3435 5.9623 11.262 8.95532L12.7614 8.99617ZM16.5022 16.4301C14.2513 14.6091 12.8675 11.8415 12.7612 8.94822L11.2622 9.00327C11.3844 12.3299 12.9708 15.5026 15.5587 17.5963L16.5022 16.4301ZM19.2997 8.94822C19.1934 11.8415 17.8096 14.6091 15.5587 16.4301L16.5022 17.5963C19.0901 15.5026 20.6765 12.3299 20.7987 9.00327L19.2997 8.94822ZM16.206 2.09235C18.0945 3.8716 19.2286 6.40259 19.2994 8.99624L20.7989 8.95525C20.7171 5.96266 19.4136 3.05351 17.2346 1.00058L16.206 2.09235Z" fill="#767676"/>
</svg>
