<svg width="32" height="32" viewBox="0 0 32 32" fill="none" xmlns="http://www.w3.org/2000/svg">
<path d="M12 20.3893V20.0093C12 18.9485 12.4214 17.9311 13.1716 17.1809C13.9217 16.4308 14.9391 16.0093 16 16.0093C17.0609 16.0093 18.0783 16.4308 18.8284 17.1809C19.5786 17.9311 20 18.9485 20 20.0093V20.3893" stroke="#474445" stroke-width="1.5" stroke-linecap="round" stroke-linejoin="round"/>
<path d="M19.0024 7.00934L16.0024 16.0093" stroke="#474445" stroke-width="1.5" stroke-linecap="round" stroke-linejoin="round"/>
<path d="M8.50244 10.0093C8.40355 10.0093 8.30688 10.0387 8.22466 10.0936C8.14243 10.1485 8.07835 10.2266 8.0405 10.318C8.00266 10.4094 7.99276 10.5099 8.01205 10.6069C8.03134 10.7039 8.07896 10.793 8.14889 10.8629C8.21881 10.9328 8.30791 10.9804 8.4049 10.9997C8.50189 11.019 8.60242 11.0091 8.69378 10.9713C8.78515 10.9334 8.86324 10.8693 8.91818 10.7871C8.97312 10.7049 9.00244 10.6082 9.00244 10.5093C9.00244 10.3767 8.94976 10.2496 8.856 10.1558C8.76223 10.062 8.63505 10.0093 8.50244 10.0093Z" fill="#474445" stroke="#474445" stroke-width="1.5" stroke-linecap="round" stroke-linejoin="round"/>
<path d="M25.5024 15.0093C25.4036 15.0093 25.3069 15.0387 25.2247 15.0936C25.1424 15.1485 25.0783 15.2266 25.0405 15.318C25.0027 15.4094 24.9928 15.5099 25.012 15.6069C25.0313 15.7039 25.079 15.793 25.1489 15.8629C25.2188 15.9328 25.3079 15.9804 25.4049 15.9997C25.5019 16.019 25.6024 16.0091 25.6938 15.9713C25.7851 15.9334 25.8632 15.8693 25.9182 15.7871C25.9731 15.7049 26.0024 15.6082 26.0024 15.5093C26.0024 15.3767 25.9498 15.2496 25.856 15.1558C25.7622 15.062 25.6351 15.0093 25.5024 15.0093Z" fill="#474445" stroke="#474445" stroke-width="1.5" stroke-linecap="round" stroke-linejoin="round"/>
<path d="M23.5027 10.0093C23.4037 10.0088 23.3067 10.0377 23.2242 10.0923C23.1416 10.1469 23.0771 10.2248 23.0388 10.3161C23.0006 10.4074 22.9903 10.5081 23.0093 10.6052C23.0283 10.7024 23.0757 10.7917 23.1455 10.8619C23.2153 10.9321 23.3044 10.98 23.4015 10.9995C23.4985 11.019 23.5992 11.0093 23.6907 10.9715C23.7822 10.9338 23.8605 10.8697 23.9155 10.7874C23.9706 10.7051 24 10.6083 24 10.5093C24 10.3767 23.9473 10.2495 23.8536 10.1558C23.7598 10.062 23.6326 10.0093 23.5 10.0093" fill="#474445"/>
<path d="M23.5027 10.0093C23.4037 10.0088 23.3067 10.0377 23.2242 10.0923C23.1416 10.1469 23.0771 10.2248 23.0388 10.3161C23.0006 10.4074 22.9903 10.5081 23.0093 10.6052C23.0283 10.7024 23.0757 10.7917 23.1455 10.8619C23.2153 10.9321 23.3044 10.98 23.4015 10.9995C23.4985 11.019 23.5992 11.0093 23.6907 10.9715C23.7822 10.9338 23.8605 10.8697 23.9155 10.7874C23.9706 10.7051 24 10.6083 24 10.5093C24 10.3767 23.9473 10.2495 23.8536 10.1558C23.7598 10.062 23.6326 10.0093 23.5 10.0093" stroke="#474445" stroke-width="1.5" stroke-linecap="round" stroke-linejoin="round"/>
<path d="M12.5024 6.00934C12.4036 6.00934 12.3069 6.03866 12.2247 6.0936C12.1424 6.14854 12.0783 6.22663 12.0405 6.318C12.0027 6.40936 11.9928 6.50989 12.012 6.60688C12.0313 6.70387 12.079 6.79297 12.1489 6.86289C12.2188 6.93282 12.3079 6.98044 12.4049 6.99973C12.5019 7.01902 12.6024 7.00912 12.6938 6.97128C12.7851 6.93343 12.8632 6.86935 12.9182 6.78712C12.9731 6.7049 13.0024 6.60823 13.0024 6.50934C13.0024 6.37673 12.9498 6.24955 12.856 6.15579C12.7622 6.06202 12.635 6.00934 12.5024 6.00934Z" fill="#474445" stroke="#474445" stroke-width="1.5" stroke-linecap="round" stroke-linejoin="round"/>
<path d="M28.5746 24.1893C24.9439 21.4756 20.5327 20.0093 16 20.0093C11.4672 20.0093 7.056 21.4756 3.42529 24.1893" stroke="#474445" stroke-width="1.5" stroke-linecap="round" stroke-linejoin="round"/>
<path d="M16 31.0093C24.2843 31.0093 31 24.2936 31 16.0093C31 7.72507 24.2843 1.00934 16 1.00934C7.71573 1.00934 1 7.72507 1 16.0093C1 24.2936 7.71573 31.0093 16 31.0093Z" stroke="#474445" stroke-width="1.5" stroke-linecap="round" stroke-linejoin="round"/>
<path d="M6.50244 15.0093C6.40355 15.0093 6.30688 15.0387 6.22466 15.0936C6.14243 15.1485 6.07835 15.2266 6.0405 15.318C6.00266 15.4094 5.99276 15.5099 6.01205 15.6069C6.03134 15.7039 6.07896 15.793 6.14889 15.8629C6.21881 15.9328 6.30791 15.9804 6.4049 15.9997C6.50189 16.019 6.60242 16.0091 6.69378 15.9713C6.78515 15.9334 6.86324 15.8693 6.91818 15.7871C6.97312 15.7049 7.00244 15.6082 7.00244 15.5093C7.00244 15.3767 6.94976 15.2496 6.856 15.1558C6.76223 15.062 6.63505 15.0093 6.50244 15.0093Z" fill="#474445" stroke="#474445" stroke-width="1.5" stroke-linecap="round" stroke-linejoin="round"/>
</svg>
