<svg width="32" height="32" viewBox="0 0 32 32" fill="none" xmlns="http://www.w3.org/2000/svg">
<path fill-rule="evenodd" clip-rule="evenodd" d="M16.0002 2.08333C8.3142 2.08333 2.0835 8.31403 2.0835 16C2.0835 23.686 8.3142 29.9167 16.0002 29.9167C23.6861 29.9167 29.9168 23.686 29.9168 16C29.9168 8.31403 23.6861 2.08333 16.0002 2.08333ZM0.583496 16C0.583496 7.4856 7.48577 0.583328 16.0002 0.583328C24.5146 0.583328 31.4168 7.4856 31.4168 16C31.4168 24.5144 24.5146 31.4167 16.0002 31.4167C7.48577 31.4167 0.583496 24.5144 0.583496 16ZM16 4.58333C16.4142 4.58333 16.75 4.91911 16.75 5.33333V7.33333C16.75 7.74754 16.4142 8.08333 16 8.08333C15.5858 8.08333 15.25 7.74754 15.25 7.33333V5.33333C15.25 4.91911 15.5858 4.58333 16 4.58333ZM8.53033 7.46967C8.23744 7.17678 7.76256 7.17678 7.46967 7.46967C7.17678 7.76256 7.17678 8.23744 7.46967 8.53033L8.88388 9.94454C9.17678 10.2374 9.65165 10.2374 9.94454 9.94454C10.2374 9.65165 10.2374 9.17678 9.94454 8.88388L8.53033 7.46967ZM3.9165 16C3.9165 16.4142 4.25229 16.75 4.6665 16.75H6.6665C7.08072 16.75 7.4165 16.4142 7.4165 16C7.4165 15.5858 7.08072 15.25 6.6665 15.25H4.6665C4.25229 15.25 3.9165 15.5858 3.9165 16ZM14 24.75C13.5858 24.75 13.25 24.4142 13.25 24C13.25 23.5858 13.5858 23.25 14 23.25H18C18.4142 23.25 18.75 23.5858 18.75 24C18.75 24.4142 18.4142 24.75 18 24.75H14ZM24.5835 16C24.5835 16.4142 24.9193 16.75 25.3335 16.75H27.3335C27.7477 16.75 28.0835 16.4142 28.0835 16C28.0835 15.5858 27.7477 15.25 27.3335 15.25H25.3335C24.9193 15.25 24.5835 15.5858 24.5835 16ZM8.53033 24.6112C8.23744 24.9041 7.76256 24.9041 7.46967 24.6112C7.17678 24.3183 7.17678 23.8435 7.46967 23.5506L8.88388 22.1363C9.17678 21.8435 9.65165 21.8435 9.94454 22.1363C10.2374 22.4292 10.2374 22.9041 9.94454 23.197L8.53033 24.6112ZM24.5303 24.6112C24.2374 24.9041 23.7626 24.9041 23.4697 24.6112L22.0555 23.197C21.7626 22.9041 21.7626 22.4292 22.0555 22.1363C22.3484 21.8435 22.8232 21.8435 23.1161 22.1363L24.5303 23.5506C24.8232 23.8435 24.8232 24.3183 24.5303 24.6112ZM22.4072 9.97515L22.6975 10.6667C22.4072 9.97515 22.4071 9.97518 22.407 9.97521L22.4067 9.97534L22.4056 9.9758L22.4014 9.97757L22.3853 9.98437L22.3229 10.0107C22.2684 10.0337 22.1886 10.0676 22.0868 10.111C21.8831 10.1979 21.5912 10.3231 21.2373 10.477C20.53 10.7847 19.5736 11.2076 18.5793 11.6679C17.5866 12.1274 16.5483 12.6278 15.68 13.0899C15.2462 13.3208 14.8473 13.5463 14.5143 13.7555C14.1928 13.9575 13.8907 14.1702 13.6819 14.379C12.9786 15.0823 12.5835 16.0361 12.5835 17.0307C12.5835 18.0252 12.9786 18.9791 13.6819 19.6823C14.3851 20.3856 15.3389 20.7807 16.3335 20.7807C17.3281 20.7807 18.2819 20.3856 18.9852 19.6823L18.9855 19.682C19.194 19.4732 19.4065 19.1712 19.6084 18.8498C19.8175 18.5168 20.0428 18.1179 20.2737 17.6841C20.7358 16.8159 21.2362 15.7776 21.6958 14.7849C22.1561 13.7906 22.5792 12.8342 22.8869 12.1269C23.0409 11.7731 23.1662 11.4812 23.2531 11.2775C23.2965 11.1756 23.3304 11.0958 23.3534 11.0414L23.3798 10.979L23.3866 10.9629L23.3883 10.9587L23.3888 10.9576L23.3889 10.9573C23.389 10.9572 23.389 10.9571 22.6975 10.6667L23.389 10.9571C23.507 10.6762 23.4433 10.3518 23.2279 10.1364C23.0125 9.92092 22.6881 9.8572 22.4072 9.97515ZM19.2094 13.0291C19.9414 12.6903 20.6536 12.3715 21.2592 12.1048C20.9924 12.7104 20.6735 13.4227 20.3346 14.1547C19.8799 15.1369 19.3927 16.1467 18.9496 16.9794C18.7278 17.396 18.5211 17.7607 18.3381 18.052C18.1481 18.3545 18.0086 18.5373 17.9245 18.6217C17.5026 19.0436 16.9303 19.2807 16.3335 19.2807C15.7368 19.2807 15.1645 19.0436 14.7425 18.6217C14.3206 18.1997 14.0835 17.6274 14.0835 17.0307C14.0835 16.4339 14.3206 15.8616 14.7425 15.4397C14.8267 15.3555 15.0095 15.2159 15.3123 15.0256C15.6036 14.8426 15.9682 14.6358 16.3849 14.414C17.2175 13.9708 18.2273 13.4838 19.2094 13.0291Z" fill="#474445"/>
</svg>
