<svg width="32" height="32" viewBox="0 0 32 32" fill="none" xmlns="http://www.w3.org/2000/svg">
<path fill-rule="evenodd" clip-rule="evenodd" d="M25.75 1C25.75 0.585786 25.4142 0.25 25 0.25C24.5858 0.25 24.25 0.585786 24.25 1V6.25H17C16.5858 6.25 16.25 6.58578 16.25 7V14.25H9C8.58578 14.25 8.25 14.5858 8.25 15V22.25H1C0.585786 22.25 0.25 22.5858 0.25 23V31C0.25 31.4142 0.585786 31.75 1 31.75C1.41421 31.75 1.75 31.4142 1.75 31V23.75H9C9.41421 23.75 9.75 23.4142 9.75 23V15.75H17C17.4142 15.75 17.75 15.4142 17.75 15V7.75H25C25.4142 7.75 25.75 7.41421 25.75 7V1ZM31.5301 16.4704C31.6837 16.6235 31.757 16.8267 31.75 17.0277V25C31.75 25.4142 31.4142 25.75 31 25.75C30.5858 25.75 30.25 25.4142 30.25 25V18.8156L17.5674 31.5297C17.2749 31.8229 16.8 31.8235 16.5068 31.531C16.2135 31.2385 16.2129 30.7636 16.5055 30.4703L29.193 17.7513H23C22.5858 17.7513 22.25 17.4156 22.25 17.0013C22.25 16.5871 22.5858 16.2513 23 16.2513H31C31.0238 16.2513 31.0477 16.2524 31.0714 16.2547C31.2388 16.2705 31.4018 16.3424 31.5301 16.4704Z" fill="#474445"/>
</svg>
