<svg width="32" height="32" viewBox="0 0 32 32" fill="none" xmlns="http://www.w3.org/2000/svg">
<path fill-rule="evenodd" clip-rule="evenodd" d="M15.0387 0.526165C15.328 0.349277 15.6605 0.255676 15.9996 0.255676C16.3387 0.255676 16.6712 0.349277 16.9605 0.526165C17.2498 0.703053 17.4846 0.956365 17.6391 1.25819L17.6412 1.26228L17.6412 1.26229L21.9103 9.72762L30.0817 10.5372C30.4265 10.5671 30.7558 10.6946 31.0309 10.9047C31.3078 11.1162 31.5183 11.4027 31.6374 11.7301C31.7566 12.0576 31.7794 12.4123 31.7032 12.7523C31.627 13.0923 31.455 13.4034 31.2075 13.6487L31.207 13.6492L30.8363 14.0159C30.5419 14.3072 30.067 14.3046 29.7757 14.0101C29.4844 13.7156 29.487 13.2408 29.7815 12.9495L30.1516 12.5833C30.1955 12.5398 30.226 12.4846 30.2395 12.4243C30.253 12.364 30.249 12.3011 30.2278 12.2431C30.2067 12.185 30.1694 12.1342 30.1203 12.0967C30.0712 12.0592 30.0124 12.0365 29.9508 12.0314L29.9389 12.0304L29.939 12.0303L21.3523 11.1797C21.0969 11.1544 20.8721 11.0002 20.7566 10.771L16.304 1.94181L16.3032 1.94033C16.2745 1.88495 16.2312 1.83845 16.178 1.8059C16.1243 1.77305 16.0625 1.75568 15.9996 1.75568C15.9366 1.75568 15.8749 1.77305 15.8212 1.8059C15.7679 1.83848 15.7245 1.88502 15.6958 1.94047L15.6951 1.94181L11.2357 10.7715C11.1201 11.0004 10.8954 11.1544 10.6402 11.1797L2.0535 12.0303L2.04168 12.0315L2.04167 12.0314C1.98009 12.0365 1.92127 12.0592 1.87217 12.0967C1.82307 12.1342 1.78574 12.185 1.76461 12.2431C1.74348 12.3011 1.73943 12.364 1.75294 12.4243C1.76645 12.4846 1.79696 12.5398 1.84085 12.5833L1.84086 12.5833L8.90753 19.5873C9.09976 19.7778 9.17443 20.0572 9.1029 20.3182L6.49644 29.8298L6.4959 29.8319C6.47997 29.8935 6.48195 29.9583 6.50164 30.0189C6.52155 30.0801 6.55871 30.1342 6.60866 30.1748C6.65861 30.2154 6.71922 30.2406 6.7832 30.2476C6.84718 30.2545 6.9118 30.2429 6.9693 30.2139L6.97334 30.2119L11.956 27.7439C12.3272 27.5601 12.7771 27.7119 12.961 28.0831C13.1448 28.4543 12.993 28.9042 12.6218 29.0881L7.64316 31.5541L7.64089 31.5552C7.32575 31.7131 6.97176 31.7769 6.62129 31.7388C6.26998 31.7007 5.93717 31.5619 5.66289 31.3391C5.38861 31.1162 5.18453 30.8189 5.07522 30.4829C4.9659 30.1469 4.95599 29.7864 5.04669 29.4448L5.04821 29.4391L5.04823 29.4391L7.54045 20.3443L0.784948 13.6487L0.784934 13.6487C0.537449 13.4034 0.365428 13.0923 0.289238 12.7523C0.213048 12.4123 0.235883 12.0576 0.35504 11.7301C0.474197 11.4027 0.684687 11.1162 0.961586 10.9047C1.23669 10.6946 1.5659 10.5671 1.9107 10.5372L10.0824 9.72759L14.3581 1.26189L14.36 1.25819C14.5145 0.956365 14.7494 0.703053 15.0387 0.526165ZM23 15.75C18.9959 15.75 15.75 18.9959 15.75 23C15.75 27.0041 18.9959 30.25 23 30.25C27.0041 30.25 30.25 27.0041 30.25 23C30.25 18.9959 27.0041 15.75 23 15.75ZM14.25 23C14.25 18.1675 18.1675 14.25 23 14.25C27.8325 14.25 31.75 18.1675 31.75 23C31.75 27.8325 27.8325 31.75 23 31.75C18.1675 31.75 14.25 27.8325 14.25 23ZM27.1649 21.1247C27.4135 20.7933 27.3463 20.3232 27.015 20.0747C26.6836 19.8261 26.2135 19.8933 25.9649 20.2246L22.0924 25.3876L22.0921 25.3879C22.0705 25.4166 22.0429 25.4404 22.0113 25.4575C21.9796 25.4748 21.9446 25.4851 21.9086 25.4877C21.8726 25.4902 21.8364 25.4851 21.8026 25.4725C21.769 25.46 21.7384 25.4405 21.7129 25.4153L21.7124 25.4148L19.7139 23.4163C19.421 23.1234 18.9462 23.1234 18.6533 23.4163C18.3604 23.7092 18.3604 24.1841 18.6533 24.477L20.6533 26.477L20.6548 26.4785C20.8324 26.6551 21.0457 26.7915 21.2805 26.8787C21.5152 26.9659 21.766 27.0017 22.0157 26.9838C22.2655 26.9659 22.5086 26.8947 22.7285 26.775C22.9484 26.6553 23.1402 26.4898 23.2908 26.2897L23.2916 26.2887L27.1649 21.1247Z" fill="#474445"/>
</svg>
