<svg width="32" height="32" viewBox="0 0 32 32" fill="none" xmlns="http://www.w3.org/2000/svg">
<path d="M27.3842 3H4.61582C4.40339 2.99996 4.19729 3.07262 4.03148 3.206C3.86566 3.33938 3.75003 3.52552 3.70364 3.73375L2 10.1875C2 10.9334 2.295 11.6488 2.8201 12.1762C3.3452 12.7037 4.05739 13 4.8 13C5.54261 13 6.2548 12.7037 6.7799 12.1762C7.305 11.6488 7.6 10.9334 7.6 10.1875C7.6 10.9334 7.895 11.6488 8.4201 12.1762C8.9452 12.7037 9.65739 13 10.4 13C11.1426 13 11.8548 12.7037 12.3799 12.1762C12.905 11.6488 13.2 10.9334 13.2 10.1875C13.2 10.9334 13.495 11.6488 14.0201 12.1762C14.5452 12.7037 15.2574 13 16 13C16.7426 13 17.4548 12.7037 17.9799 12.1762C18.505 11.6488 18.8 10.9334 18.8 10.1875C18.8 10.9334 19.095 11.6488 19.6201 12.1762C20.1452 12.7037 20.8574 13 21.6 13C22.3426 13 23.0548 12.7037 23.5799 12.1762C24.105 11.6488 24.4 10.9334 24.4 10.1875C24.4 10.9334 24.695 11.6488 25.2201 12.1762C25.7452 12.7037 26.4574 13 27.2 13C27.9426 13 28.6548 12.7037 29.1799 12.1762C29.705 11.6488 30 10.9334 30 10.1875L28.2951 3.73375C28.2492 3.52552 28.1339 3.33927 27.9682 3.20584C27.8026 3.07241 27.5965 2.99979 27.3842 3Z" stroke="#767676" stroke-width="1.5" stroke-linecap="round" stroke-linejoin="round"/>
<path d="M3.75 17.2583C3.75 16.8441 3.41421 16.5083 3 16.5083C2.58579 16.5083 2.25 16.8441 2.25 17.2583H3.75ZM29.75 17.2583C29.75 16.8441 29.4142 16.5083 29 16.5083C28.5858 16.5083 28.25 16.8441 28.25 17.2583H29.75ZM2.25 17.2583V27.3H3.75V17.2583H2.25ZM5.7 30.75H26.3V29.25H5.7V30.75ZM29.75 27.3V17.2583H28.25V27.3H29.75ZM26.3 30.75C28.2054 30.75 29.75 29.2054 29.75 27.3H28.25C28.25 28.377 27.377 29.25 26.3 29.25V30.75ZM2.25 27.3C2.25 29.2054 3.79462 30.75 5.7 30.75V29.25C4.62305 29.25 3.75 28.377 3.75 27.3H2.25Z" fill="#767676"/>
<path d="M8 19.6667C8 19.2985 8.29848 19 8.66667 19H12.3333C12.7015 19 13 19.2985 13 19.6667V23.3333C13 23.7015 12.7015 24 12.3333 24H8.66667C8.29848 24 8 23.7015 8 23.3333V19.6667Z" stroke="#767676" stroke-width="1.5"/>
<path d="M24 30V21.6667C24 21.2985 23.7015 21 23.3333 21H19.6667C19.2985 21 19 21.2985 19 21.6667V30" stroke="#767676" stroke-width="1.5"/>
</svg>
