<svg width="32" height="32" viewBox="0 0 32 32" fill="none" xmlns="http://www.w3.org/2000/svg">
<path fill-rule="evenodd" clip-rule="evenodd" d="M0.583496 2.83331C0.583496 1.59067 1.59086 0.583313 2.8335 0.583313H29.1668C30.4095 0.583313 31.4168 1.59067 31.4168 2.83331V29.1666C31.4168 30.4093 30.4095 31.4166 29.1668 31.4166H2.8335C1.59086 31.4166 0.583496 30.4093 0.583496 29.1666V2.83331ZM2.8335 2.08331C2.41928 2.08331 2.0835 2.4191 2.0835 2.83331V29.1666C2.0835 29.5809 2.41928 29.9166 2.8335 29.9166H29.1668C29.581 29.9166 29.9168 29.5809 29.9168 29.1666V2.83331C29.9168 2.4191 29.581 2.08331 29.1668 2.08331H2.8335ZM9.3335 6.08331C7.53857 6.08331 6.0835 7.53839 6.0835 9.33331C6.0835 11.1282 7.53857 12.5833 9.3335 12.5833C11.1284 12.5833 12.5835 11.1282 12.5835 9.33331C12.5835 7.53839 11.1284 6.08331 9.3335 6.08331ZM4.5835 9.33331C4.5835 6.70996 6.71014 4.58331 9.3335 4.58331C11.9568 4.58331 14.0835 6.70996 14.0835 9.33331C14.0835 11.9567 11.9568 14.0833 9.3335 14.0833C6.71014 14.0833 4.5835 11.9567 4.5835 9.33331ZM9.3335 19.4167C7.53857 19.4167 6.0835 20.8718 6.0835 22.6667C6.0835 24.4616 7.53857 25.9167 9.3335 25.9167C11.1284 25.9167 12.5835 24.4616 12.5835 22.6667C12.5835 20.8718 11.1284 19.4167 9.3335 19.4167ZM4.5835 22.6667C4.5835 20.0433 6.71014 17.9167 9.3335 17.9167C11.9568 17.9167 14.0835 20.0433 14.0835 22.6667C14.0835 25.29 11.9568 27.4167 9.3335 27.4167C6.71014 27.4167 4.5835 25.29 4.5835 22.6667ZM19.4165 9.33331C19.4165 7.53839 20.8716 6.08331 22.6665 6.08331C24.4614 6.08331 25.9165 7.53839 25.9165 9.33331C25.9165 11.1282 24.4614 12.5833 22.6665 12.5833C20.8716 12.5833 19.4165 11.1282 19.4165 9.33331ZM22.6665 4.58331C20.0432 4.58331 17.9165 6.70996 17.9165 9.33331C17.9165 11.9567 20.0432 14.0833 22.6665 14.0833C25.2899 14.0833 27.4165 11.9567 27.4165 9.33331C27.4165 6.70996 25.2899 4.58331 22.6665 4.58331ZM19.4165 25.3333C19.4165 24.9191 19.0807 24.5833 18.6665 24.5833C18.2523 24.5833 17.9165 24.9191 17.9165 25.3333V26.6666C17.9165 27.0809 18.2523 27.4166 18.6665 27.4166C19.0807 27.4166 19.4165 27.0809 19.4165 26.6666V25.3333ZM22.6665 24.5833C23.0807 24.5833 23.4165 24.9191 23.4165 25.3333V26.6666C23.4165 27.0809 23.0807 27.4166 22.6665 27.4166C22.2523 27.4166 21.9165 27.0809 21.9165 26.6666V25.3333C21.9165 24.9191 22.2523 24.5833 22.6665 24.5833ZM27.4165 25.3333C27.4165 24.9191 27.0807 24.5833 26.6665 24.5833C26.2523 24.5833 25.9165 24.9191 25.9165 25.3333V26.6666C25.9165 27.0809 26.2523 27.4166 26.6665 27.4166C27.0807 27.4166 27.4165 27.0809 27.4165 26.6666V25.3333Z" fill="#767676"/>
</svg>
