<svg width="32" height="32" viewBox="0 0 32 32" fill="none" xmlns="http://www.w3.org/2000/svg">
<path d="M9.3335 13.3333C11.5426 13.3333 13.3335 11.5425 13.3335 9.33331C13.3335 7.12417 11.5426 5.33331 9.3335 5.33331C7.12436 5.33331 5.3335 7.12417 5.3335 9.33331C5.3335 11.5425 7.12436 13.3333 9.3335 13.3333Z" stroke="#71717A" stroke-width="1.5" stroke-linecap="round" stroke-linejoin="round"/>
<path d="M9.3335 26.6667C11.5426 26.6667 13.3335 24.8758 13.3335 22.6667C13.3335 20.4575 11.5426 18.6667 9.3335 18.6667C7.12436 18.6667 5.3335 20.4575 5.3335 22.6667C5.3335 24.8758 7.12436 26.6667 9.3335 26.6667Z" stroke="#71717A" stroke-width="1.5" stroke-linecap="round" stroke-linejoin="round"/>
<path d="M22.6665 13.3333C24.8756 13.3333 26.6665 11.5425 26.6665 9.33331C26.6665 7.12417 24.8756 5.33331 22.6665 5.33331C20.4574 5.33331 18.6665 7.12417 18.6665 9.33331C18.6665 11.5425 20.4574 13.3333 22.6665 13.3333Z" stroke="#71717A" stroke-width="1.5" stroke-linecap="round" stroke-linejoin="round"/>
<rect x="1.3335" y="1.33331" width="29.3333" height="29.3333" rx="1.5" stroke="#71717A" stroke-width="1.5" stroke-linecap="round" stroke-linejoin="round"/>
<path d="M18.6665 26.6666V25.3333" stroke="#71717A" stroke-width="1.5" stroke-linecap="round" stroke-linejoin="round"/>
<path d="M22.6665 26.6666V25.3333" stroke="#71717A" stroke-width="1.5" stroke-linecap="round" stroke-linejoin="round"/>
<path d="M26.6665 26.6666V25.3333" stroke="#71717A" stroke-width="1.5" stroke-linecap="round" stroke-linejoin="round"/>
</svg>
