<svg width="32" height="32" viewBox="0 0 32 32" fill="none" xmlns="http://www.w3.org/2000/svg">
<path d="M9.25 30C9.25 30.4142 9.58579 30.75 10 30.75C10.4142 30.75 10.75 30.4142 10.75 30H9.25ZM21.25 30C21.25 30.4142 21.5858 30.75 22 30.75C22.4142 30.75 22.75 30.4142 22.75 30H21.25ZM5.73333 10.75H26.2667V9.25H5.73333V10.75ZM26.2667 10.75C27.8664 10.75 29.25 12.1555 29.25 14H30.75C30.75 11.4262 28.7906 9.25 26.2667 9.25V10.75ZM29.25 14V26H30.75V14H29.25ZM29.25 26C29.25 27.8445 27.8664 29.25 26.2667 29.25V30.75C28.7906 30.75 30.75 28.5738 30.75 26H29.25ZM26.2667 29.25H5.73333V30.75H26.2667V29.25ZM5.73333 29.25C4.13358 29.25 2.75 27.8445 2.75 26H1.25C1.25 28.5738 3.20936 30.75 5.73333 30.75V29.25ZM2.75 26V14H1.25V26H2.75ZM2.75 14C2.75 12.1555 4.13358 10.75 5.73333 10.75V9.25C3.20936 9.25 1.25 11.4262 1.25 14H2.75ZM12 2.75H20V1.25H12V2.75ZM20 2.75C20.6904 2.75 21.25 3.30964 21.25 4H22.75C22.75 2.48122 21.5188 1.25 20 1.25V2.75ZM10.75 4C10.75 3.30964 11.3096 2.75 12 2.75V1.25C10.4812 1.25 9.25 2.48122 9.25 4H10.75ZM9.25 4V30H10.75V4H9.25ZM21.25 4V30H22.75V4H21.25Z" fill="#767676"/>
</svg>
