<svg width="32" height="32" viewBox="0 0 32 32" fill="none" xmlns="http://www.w3.org/2000/svg">
<path fill-rule="evenodd" clip-rule="evenodd" d="M13.0987 2.42467C14.0335 1.94963 15.0729 1.71739 16.121 1.74933C17.1692 1.78127 18.1924 2.07637 19.0966 2.60745C20.0008 3.13854 20.7569 3.88855 21.2953 4.78845C21.63 5.34804 21.8739 5.95441 22.0202 6.58496C20.8198 7.02563 19.5494 7.25129 18.2677 7.25001L18.2665 7.25001C16.8098 7.2508 15.3678 6.95861 14.0263 6.39081C12.8584 5.89648 11.7874 5.20204 10.861 4.34015C11.4432 3.53315 12.2102 2.87615 13.0987 2.42467ZM10.1201 5.69178C9.90665 6.22971 9.76807 6.79678 9.71016 7.37713C9.66904 7.7893 9.30157 8.09009 8.88941 8.04897C8.47724 8.00784 8.17645 7.64038 8.21757 7.22821C8.34666 5.93439 8.79915 4.69382 9.53338 3.62071C10.2676 2.54761 11.26 1.67644 12.4192 1.08742C13.5783 0.498387 14.8671 0.210421 16.1667 0.250027C17.4664 0.289632 18.7352 0.655536 19.8563 1.31406C20.9775 1.97258 21.915 2.90255 22.5825 4.01837C23.25 5.1342 23.6261 6.40001 23.6762 7.6993C23.7263 8.99858 23.4487 10.2896 22.869 11.4535C22.2893 12.6174 21.4262 13.6167 20.359 14.3596C20.0191 14.5962 19.5516 14.5124 19.315 14.1725C19.0783 13.8325 19.1621 13.3651 19.5021 13.1285C20.3627 12.5294 21.0588 11.7234 21.5263 10.7847C21.9401 9.9539 22.163 9.04275 22.1808 8.11774C20.9206 8.53713 19.5988 8.75134 18.2662 8.75001L18.2669 8.00032L18.2674 8.75001H18.2662C16.6087 8.75076 14.968 8.41823 13.4416 7.77217C12.2289 7.25888 11.108 6.55601 10.1201 5.69178ZM12.9028 12.7135C13.3551 12.4113 13.8868 12.25 14.4307 12.25C15.16 12.25 15.8595 12.5397 16.3752 13.0555C16.8909 13.5712 17.1807 14.2707 17.1807 15C17.1807 15.5439 17.0194 16.0756 16.7172 16.5278C16.415 16.9801 15.9855 17.3325 15.483 17.5407C14.9805 17.7488 14.4276 17.8033 13.8942 17.6972C13.3607 17.591 12.8707 17.3291 12.4861 16.9445C12.1534 16.6119 11.9126 16.2003 11.7849 15.75H10.4307C9.17089 15.75 7.96271 15.2496 7.07191 14.3588C6.18111 13.468 5.68066 12.2598 5.68066 11V9.56267C5.68066 9.14845 6.01645 8.81267 6.43066 8.81267C6.84488 8.81267 7.18066 9.14845 7.18066 9.56267V11C7.18066 11.862 7.52307 12.6886 8.13257 13.2981C8.74206 13.9076 9.56871 14.25 10.4307 14.25H11.7849C11.8139 14.1476 11.849 14.0466 11.89 13.9476C12.0981 13.4451 12.4506 13.0156 12.9028 12.7135ZM14.4307 13.75C14.1834 13.75 13.9418 13.8233 13.7362 13.9607C13.5306 14.098 13.3704 14.2932 13.2758 14.5216C13.1812 14.7501 13.1565 15.0014 13.2047 15.2439C13.2529 15.4863 13.372 15.7091 13.5468 15.8839C13.7216 16.0587 13.9443 16.1777 14.1868 16.226C14.4293 16.2742 14.6806 16.2495 14.909 16.1548C15.1374 16.0602 15.3327 15.9 15.47 15.6945C15.6074 15.4889 15.6807 15.2472 15.6807 15C15.6807 14.6685 15.549 14.3505 15.3145 14.1161C15.0801 13.8817 14.7622 13.75 14.4307 13.75ZM21.2681 19.1289C21.459 18.7613 21.9118 18.6182 22.2794 18.8091C24.5112 19.9687 26.3819 21.7187 27.6875 23.8684C28.9932 26.0181 29.6836 28.4849 29.6836 31C29.6836 31.4142 29.3478 31.75 28.9336 31.75C28.5194 31.75 28.1836 31.4142 28.1836 31C28.1836 28.7595 27.5686 26.562 26.4055 24.6471C25.2424 22.7321 23.576 21.1732 21.5878 20.1402C21.2202 19.9492 21.0771 19.4965 21.2681 19.1289ZM10.2769 20.1401C10.6444 19.9491 10.7874 19.4963 10.5964 19.1287C10.4053 18.7612 9.95251 18.6182 9.58499 18.8092C7.35367 19.9692 5.48354 21.7193 4.17844 23.869C2.87333 26.0186 2.18331 28.4853 2.18359 31.0001C2.18364 31.4143 2.51946 31.75 2.93368 31.75C3.34789 31.75 3.68364 31.4141 3.68359 30.9999C3.68335 28.7597 4.29802 26.5624 5.46063 24.6474C6.62324 22.7325 8.28917 21.1734 10.2769 20.1401Z" fill="#474445"/>
</svg>
