<svg width="32" height="32" viewBox="0 0 32 32" fill="none" xmlns="http://www.w3.org/2000/svg">
<path d="M8.96387 7.30267C9.08047 6.13403 9.48917 5.0135 10.1524 4.04423C10.8155 3.07495 11.7119 2.28808 12.7589 1.75604C13.8059 1.22401 14.97 0.963905 16.1439 0.999679C17.3178 1.03545 18.4638 1.36595 19.4765 1.96076C20.4892 2.55556 21.3359 3.39555 21.9389 4.40341C22.5418 5.41127 22.8815 6.55461 22.9268 7.72818C22.972 8.90175 22.7213 10.0678 22.1977 11.1191C21.6793 12.16 20.9099 13.0551 19.9591 13.724" stroke="#71717A" stroke-width="1.5" stroke-linecap="round" stroke-linejoin="round"/>
<path d="M9.91895 4.46667C11.0024 5.58525 12.2998 6.47449 13.734 7.08149C15.1681 7.68849 16.7096 8.00086 18.2669 8.00001C19.8235 8.00156 21.3643 7.69005 22.7978 7.08417" stroke="#71717A" stroke-width="1.5" stroke-linecap="round" stroke-linejoin="round"/>
<path d="M14.4307 13C14.0351 13 13.6484 13.1173 13.3195 13.3371C12.9906 13.5568 12.7343 13.8692 12.5829 14.2346C12.4315 14.6001 12.3919 15.0022 12.4691 15.3902C12.5463 15.7781 12.7367 16.1345 13.0165 16.4142C13.2962 16.6939 13.6525 16.8844 14.0405 16.9616C14.4284 17.0387 14.8306 16.9991 15.196 16.8478C15.5615 16.6964 15.8738 16.44 16.0936 16.1111C16.3134 15.7822 16.4307 15.3956 16.4307 15C16.4307 14.4696 16.22 13.9609 15.8449 13.5858C15.4698 13.2107 14.9611 13 14.4307 13Z" stroke="#71717A" stroke-width="1.5" stroke-linecap="round" stroke-linejoin="round"/>
<path d="M6.43066 9.56267V11C6.43066 12.0609 6.85209 13.0783 7.60224 13.8284C8.35238 14.5786 9.3698 15 10.4307 15H12.3854" stroke="#71717A" stroke-width="1.5" stroke-linecap="round" stroke-linejoin="round"/>
<path d="M28.9333 31C28.9333 28.6222 28.2806 26.29 27.0462 24.2577C25.8159 22.2321 24.0549 20.5818 21.9541 19.4855" stroke="#71717A" stroke-width="1.5" stroke-linecap="round" stroke-linejoin="round"/>
<path d="M2.93359 31C2.93333 28.6225 3.58567 26.2905 4.81953 24.2582C6.04615 22.2378 7.80069 20.5907 9.89383 19.494" stroke="#71717A" stroke-width="1.5" stroke-linecap="round" stroke-linejoin="round"/>
</svg>
