<svg width="32" height="32" viewBox="0 0 32 32" fill="none" xmlns="http://www.w3.org/2000/svg">
<path d="M8.96387 7.30267C9.08047 6.13403 9.48917 5.0135 10.1524 4.04423C10.8155 3.07495 11.7119 2.28808 12.7589 1.75604C13.8059 1.22401 14.97 0.963905 16.1439 0.999679C17.3178 1.03545 18.4638 1.36595 19.4765 1.96076C20.4892 2.55556 21.3359 3.39555 21.9389 4.40341C22.5418 5.41127 22.8815 6.55461 22.9268 7.72818C22.972 8.90175 22.7213 10.0678 22.1977 11.1191C21.6741 12.1704 20.8944 13.073 19.9305 13.744" stroke="#474445" stroke-width="1.5" stroke-linecap="round" stroke-linejoin="round"/>
<path d="M9.91895 4.46667C11.0024 5.58525 12.2998 6.47449 13.734 7.08149C15.1681 7.68849 16.7096 8.00086 18.2669 8.00001C19.8384 8.00158 21.3938 7.68405 22.8389 7.06668" stroke="#474445" stroke-width="1.5" stroke-linecap="round" stroke-linejoin="round"/>
<path d="M14.4307 13C14.0351 13 13.6484 13.1173 13.3195 13.3371C12.9906 13.5568 12.7343 13.8692 12.5829 14.2346C12.4315 14.6001 12.3919 15.0022 12.4691 15.3902C12.5463 15.7781 12.7367 16.1345 13.0165 16.4142C13.2962 16.6939 13.6525 16.8844 14.0405 16.9616C14.4284 17.0387 14.8306 16.9991 15.196 16.8478C15.5615 16.6964 15.8738 16.44 16.0936 16.1111C16.3134 15.7822 16.4307 15.3956 16.4307 15C16.4307 14.4696 16.22 13.9609 15.8449 13.5858C15.4698 13.2107 14.9611 13 14.4307 13Z" stroke="#474445" stroke-width="1.5" stroke-linecap="round" stroke-linejoin="round"/>
<path d="M12.4307 15H10.4307C9.3698 15 8.35238 14.5786 7.60224 13.8284C6.85209 13.0783 6.43066 12.0609 6.43066 11V9.56267" stroke="#474445" stroke-width="1.5" stroke-linecap="round" stroke-linejoin="round"/>
<path d="M28.9336 31C28.9336 28.6222 28.2809 26.29 27.0465 24.2577C25.8122 22.2254 24.0436 20.5709 21.9336 19.4747" stroke="#474445" stroke-width="1.5" stroke-linecap="round" stroke-linejoin="round"/>
<path d="M9.93093 19.4747C7.82142 20.5713 6.05339 22.2259 4.81953 24.2582C3.58567 26.2905 2.93333 28.6225 2.93359 31" stroke="#474445" stroke-width="1.5" stroke-linecap="round" stroke-linejoin="round"/>
</svg>
