<svg width="32" height="32" viewBox="0 0 32 32" fill="none" xmlns="http://www.w3.org/2000/svg">
<path d="M26 14.9267C27.933 14.9267 29.5 13.3597 29.5 11.4267C29.5 9.4937 27.933 7.9267 26 7.9267C24.067 7.9267 22.5 9.4937 22.5 11.4267C22.5 13.3597 24.067 14.9267 26 14.9267Z" stroke="#474445" stroke-width="1.5" stroke-linecap="round" stroke-linejoin="round"/>
<path d="M9.83887 18.6667L14.9469 15.4667L11.2002 11.192C10.7976 10.732 10.5058 10.1857 10.3472 9.59531C10.1886 9.00489 10.1675 8.38597 10.2854 7.7861C10.4034 7.18624 10.6573 6.62139 11.0275 6.13494C11.3978 5.6485 11.8747 5.25341 12.4215 4.98001L18.1055 2.13335C18.3407 2.01343 18.5972 1.94125 18.8604 1.92096C19.1236 1.90067 19.3882 1.93267 19.6389 2.01513C19.8897 2.09758 20.1216 2.22886 20.3214 2.40139C20.5211 2.57391 20.6848 2.78427 20.8029 3.02035C20.9209 3.25642 20.9911 3.51353 21.0094 3.77685C21.0276 4.04018 20.9935 4.30451 20.9091 4.5546C20.8247 4.8047 20.6916 5.03561 20.5176 5.23403C20.3435 5.43245 20.1319 5.59445 19.8949 5.71068L15.3615 7.97735C15.2256 8.04684 15.1073 8.14651 15.0158 8.26873C14.9242 8.39095 14.8619 8.53248 14.8334 8.68251C14.805 8.83253 14.8112 8.98708 14.8517 9.13432C14.8922 9.28155 14.9658 9.41759 15.0669 9.53201L22.2362 17.7253" stroke="#474445" stroke-width="1.5" stroke-linecap="round" stroke-linejoin="round"/>
<path d="M1 22.6667C3 22.6667 4 24.6667 6 24.6667C8 24.6667 9 22.6667 11 22.6667C13 22.6667 14 24.6667 16 24.6667C18 24.6667 19 22.6667 21 22.6667C23 22.6667 24 24.6667 26 24.6667C28 24.6667 29 22.6667 31 22.6667" stroke="#474445" stroke-width="1.5" stroke-linecap="round" stroke-linejoin="round"/>
<path d="M1 28C3 28 4 30 6 30C8 30 9 28 11 28C13 28 14 30 16 30C18 30 19 28 21 28C23 28 24 30 26 30C28 30 29 28 31 28" stroke="#474445" stroke-width="1.5" stroke-linecap="round" stroke-linejoin="round"/>
</svg>
