<svg width="32" height="32" viewBox="0 0 32 32" fill="none" xmlns="http://www.w3.org/2000/svg">
<path fill-rule="evenodd" clip-rule="evenodd" d="M18.9181 2.66874C19.0825 2.65606 19.2479 2.67606 19.4046 2.7276C19.5613 2.77913 19.7063 2.86118 19.8312 2.96901C19.956 3.07683 20.0583 3.20831 20.1321 3.35586C20.2059 3.5034 20.2498 3.6641 20.2612 3.82867C20.2726 3.99325 20.2513 4.15845 20.1985 4.31477C20.1458 4.47108 20.0626 4.6154 19.9538 4.73941C19.845 4.86342 19.7127 4.96467 19.5646 5.03732L19.5646 5.0373L19.5595 5.03986L15.0261 7.30653L15.0261 7.3065L15.0202 7.30951C14.7824 7.43106 14.5755 7.60537 14.4154 7.81914C14.2554 8.0329 14.1463 8.28045 14.0965 8.54284C14.0468 8.80524 14.0577 9.07553 14.1285 9.33305C14.1991 9.58988 14.3273 9.82722 14.5034 10.027L14.5048 10.0286L21.6718 18.2192C21.9445 18.531 22.4184 18.5625 22.7301 18.2898C23.0418 18.017 23.0734 17.5432 22.8006 17.2315L15.6313 9.03813L15.6313 9.03812L15.6289 9.0354C15.6035 9.00668 15.585 8.97253 15.5749 8.93558C15.5647 8.89862 15.5632 8.85983 15.5703 8.82217C15.5774 8.78452 15.5931 8.74899 15.6161 8.71832C15.6386 8.68823 15.6676 8.66359 15.7009 8.64619L20.2279 6.38267C20.5527 6.22294 20.8427 6.00069 21.0813 5.72865C21.3207 5.45583 21.5037 5.13832 21.6197 4.79444C21.7358 4.45056 21.7826 4.08711 21.7576 3.72503C21.7325 3.36296 21.636 3.00943 21.4736 2.68484C21.3113 2.36024 21.0863 2.07099 20.8116 1.83377C20.5369 1.59654 20.218 1.41604 19.8732 1.30266C19.5284 1.18929 19.1646 1.14528 18.8028 1.17318C18.4419 1.201 18.09 1.29979 17.7674 1.46388L12.0861 4.30919L12.086 4.30927C11.4367 4.63392 10.8705 5.10306 10.4308 5.68066C9.99105 6.25832 9.68958 6.92908 9.54953 7.64142C9.40948 8.35376 9.43457 9.08872 9.62288 9.78985C9.81119 10.491 10.1577 11.1396 10.6358 11.6859L10.6362 11.6864L13.8023 15.2987L9.4407 18.0311C9.08968 18.251 8.98339 18.7138 9.20329 19.0649C9.42319 19.4159 9.88602 19.5222 10.237 19.3023L15.345 16.1023C15.5313 15.9856 15.657 15.7931 15.6889 15.5756C15.7208 15.3581 15.6558 15.1376 15.5109 14.9723L11.7646 10.6981L11.7643 10.6977L11.7642 10.6977C11.4373 10.324 11.2003 9.88031 11.0715 9.40077C10.9427 8.92105 10.9255 8.41818 11.0214 7.93079C11.1172 7.4434 11.3234 6.98446 11.6243 6.58922C11.9252 6.19399 12.3126 5.87297 12.7569 5.65084L12.7574 5.65061L18.4414 2.80395L18.4414 2.80397L18.4463 2.80148C18.5932 2.72653 18.7536 2.68142 18.9181 2.66874ZM23.25 11.4267C23.25 9.90791 24.4812 8.6767 26 8.6767C27.5188 8.6767 28.75 9.90791 28.75 11.4267C28.75 12.9455 27.5188 14.1767 26 14.1767C24.4812 14.1767 23.25 12.9455 23.25 11.4267ZM26 7.1767C23.6528 7.1767 21.75 9.07949 21.75 11.4267C21.75 13.7739 23.6528 15.6767 26 15.6767C28.3472 15.6767 30.25 13.7739 30.25 11.4267C30.25 9.07949 28.3472 7.1767 26 7.1767ZM0.25 22.6667C0.25 22.2525 0.585786 21.9167 1 21.9167C2.22885 21.9167 3.14513 22.5282 3.86316 23.0074L3.91603 23.0427C4.69022 23.5588 5.25922 23.9167 6 23.9167C6.74078 23.9167 7.30978 23.5588 8.08397 23.0427L8.13684 23.0074C8.85487 22.5282 9.77115 21.9167 11 21.9167C12.2289 21.9167 13.1451 22.5282 13.8632 23.0074L13.916 23.0427C14.6902 23.5588 15.2592 23.9167 16 23.9167C16.7408 23.9167 17.3098 23.5588 18.084 23.0427L18.1368 23.0074C18.8549 22.5282 19.7711 21.9167 21 21.9167C22.2289 21.9167 23.1451 22.5282 23.8632 23.0074L23.916 23.0427C24.6902 23.5588 25.2592 23.9167 26 23.9167C26.7408 23.9167 27.3098 23.5588 28.084 23.0427L28.1368 23.0074C28.8549 22.5282 29.7711 21.9167 31 21.9167C31.4142 21.9167 31.75 22.2525 31.75 22.6667C31.75 23.0809 31.4142 23.4167 31 23.4167C30.2592 23.4167 29.6902 23.7746 28.916 24.2907L28.8632 24.326C28.1451 24.8052 27.2289 25.4167 26 25.4167C24.7711 25.4167 23.8549 24.8052 23.1368 24.326L23.084 24.2907C22.3098 23.7746 21.7408 23.4167 21 23.4167C20.2592 23.4167 19.6902 23.7746 18.916 24.2907L18.8632 24.326C18.1451 24.8052 17.2289 25.4167 16 25.4167C14.7711 25.4167 13.8549 24.8052 13.1368 24.326L13.084 24.2907C12.3098 23.7746 11.7408 23.4167 11 23.4167C10.2592 23.4167 9.69022 23.7746 8.91603 24.2907L8.86316 24.326C8.14513 24.8052 7.22885 25.4167 6 25.4167C4.77115 25.4167 3.85487 24.8052 3.13684 24.326L3.08397 24.2907C2.30978 23.7746 1.74078 23.4167 1 23.4167C0.585786 23.4167 0.25 23.0809 0.25 22.6667ZM1 27.25C0.585786 27.25 0.25 27.5858 0.25 28C0.25 28.4142 0.585786 28.75 1 28.75C1.74078 28.75 2.30978 29.1079 3.08397 29.624L3.13684 29.6593C3.85487 30.1385 4.77115 30.75 6 30.75C7.22885 30.75 8.14513 30.1385 8.86316 29.6593L8.91603 29.624C9.69022 29.1079 10.2592 28.75 11 28.75C11.7408 28.75 12.3098 29.1079 13.084 29.624L13.1368 29.6593C13.8549 30.1385 14.7711 30.75 16 30.75C17.2289 30.75 18.1451 30.1385 18.8632 29.6593L18.916 29.624C19.6902 29.1079 20.2592 28.75 21 28.75C21.7408 28.75 22.3098 29.1079 23.084 29.624L23.1368 29.6593C23.8549 30.1385 24.7711 30.75 26 30.75C27.2289 30.75 28.1451 30.1385 28.8632 29.6593L28.916 29.624C29.6902 29.1079 30.2592 28.75 31 28.75C31.4142 28.75 31.75 28.4142 31.75 28C31.75 27.5858 31.4142 27.25 31 27.25C29.7711 27.25 28.8549 27.8615 28.1368 28.3407L28.084 28.376C27.3098 28.8921 26.7408 29.25 26 29.25C25.2592 29.25 24.6902 28.8921 23.916 28.376L23.8632 28.3407C23.1451 27.8615 22.2289 27.25 21 27.25C19.7711 27.25 18.8549 27.8615 18.1368 28.3407L18.084 28.376C17.3098 28.8921 16.7408 29.25 16 29.25C15.2592 29.25 14.6902 28.8921 13.916 28.376L13.8632 28.3407C13.1451 27.8615 12.2289 27.25 11 27.25C9.77115 27.25 8.85487 27.8615 8.13684 28.3407L8.08397 28.376C7.30978 28.8921 6.74078 29.25 6 29.25C5.25922 29.25 4.69022 28.8921 3.91603 28.376L3.86316 28.3407C3.14513 27.8615 2.22885 27.25 1 27.25Z" fill="#474445"/>
</svg>
