<svg width="32" height="32" viewBox="0 0 32 32" fill="none" xmlns="http://www.w3.org/2000/svg">
<path fill-rule="evenodd" clip-rule="evenodd" d="M3.90586 1C3.13518 1 2.39606 1.30615 1.85111 1.85111C1.30615 2.39606 1 3.13518 1 3.90586V11.9882C1.00027 13.2726 1.51077 14.5043 2.41903 15.4123L17.439 30.4323C17.6868 30.6802 17.9973 30.8563 18.3373 30.9417C18.6775 31.0271 19.0344 31.0186 19.3701 30.917C19.7058 30.8154 20.0076 30.6247 20.2434 30.365C20.4791 30.1054 20.64 29.7866 20.7088 29.4427L22.1642 22.1642L29.4427 20.7088C29.7866 20.64 30.1054 20.4791 30.365 20.2434C30.6247 20.0076 30.8155 19.7058 30.917 19.3701C31.0186 19.0344 31.0271 18.6775 30.9417 18.3373C30.8563 17.9973 30.6802 17.6868 30.4323 17.439L15.4122 2.41893C14.5042 1.51067 13.2724 1.00027 11.988 1H3.90586Z" stroke="#71717A" stroke-width="1.5" stroke-linecap="round" stroke-linejoin="round"/>
<path fill-rule="evenodd" clip-rule="evenodd" d="M6 8.5C6 7.11929 7.11929 6 8.5 6C9.88071 6 11 7.11929 11 8.5C11 9.88071 9.88071 11 8.5 11C7.11929 11 6 9.88071 6 8.5Z" stroke="#71717A" stroke-width="1.5" stroke-linecap="round" stroke-linejoin="round"/>
</svg>
