<svg width="32" height="32" viewBox="0 0 32 32" fill="none" xmlns="http://www.w3.org/2000/svg">
<path d="M1.51367 3.51199V11.856C1.5139 12.9168 1.93547 13.934 2.68567 14.684L18.1923 30.1907C18.3203 30.3187 18.4806 30.4097 18.6562 30.4538C18.8318 30.4978 19.016 30.4934 19.1893 30.441C19.3626 30.3886 19.5184 30.2901 19.6401 30.1561C19.7618 30.0221 19.8448 29.8575 19.8803 29.68L21.5137 21.512L29.6817 19.8787C29.8592 19.8432 30.0237 19.7601 30.1578 19.6384C30.2918 19.5167 30.3903 19.3609 30.4427 19.1876C30.4951 19.0144 30.4995 18.8301 30.4554 18.6545C30.4113 18.4789 30.3204 18.3186 30.1923 18.1907L14.6857 2.68399C13.9357 1.9338 12.9185 1.51222 11.8577 1.51199H3.51367C2.98324 1.51199 2.47453 1.72271 2.09946 2.09778C1.72439 2.47285 1.51367 2.98156 1.51367 3.51199Z" stroke="#474445" stroke-width="1.5" stroke-linecap="round" stroke-linejoin="round"/>
<path d="M8.51367 10.512C9.61824 10.512 10.5137 9.61656 10.5137 8.51199C10.5137 7.40742 9.61824 6.51199 8.51367 6.51199C7.4091 6.51199 6.51367 7.40742 6.51367 8.51199C6.51367 9.61656 7.4091 10.512 8.51367 10.512Z" stroke="#474445" stroke-width="1.5" stroke-linecap="round" stroke-linejoin="round"/>
</svg>
