<svg width="32" height="32" viewBox="0 0 32 32" fill="none" xmlns="http://www.w3.org/2000/svg">
<path fill-rule="evenodd" clip-rule="evenodd" d="M1.56913 1.56745C2.08485 1.05172 2.78433 0.761993 3.51367 0.761993H11.8577C13.1173 0.762262 14.3254 1.26285 15.216 2.15366L30.7227 17.6603C30.9467 17.8842 31.1057 18.1647 31.1828 18.4719C31.26 18.7791 31.2523 19.1016 31.1606 19.4048C31.0688 19.7081 30.8965 19.9807 30.6619 20.1937C30.4274 20.4067 30.1394 20.552 29.8288 20.6141L22.1511 22.1494L20.6158 29.8271C20.5536 30.1377 20.4083 30.4257 20.1954 30.6603C19.9824 30.8948 19.7097 31.0672 19.4065 31.1589C19.1033 31.2506 18.7808 31.2583 18.4735 31.1812C18.1664 31.104 17.8859 30.945 17.662 30.721L2.15542 15.2144C1.26461 14.3238 0.763941 13.1158 0.763672 11.8562V3.51199C0.763672 2.78265 1.0534 2.08317 1.56913 1.56745ZM2.62979 2.62811C2.86421 2.39369 3.18215 2.26199 3.51367 2.26199H11.8577C12.7195 2.26222 13.546 2.60483 14.1553 3.21432L29.6622 18.7212C29.6943 18.7532 29.717 18.7933 29.728 18.8372C29.739 18.8811 29.7379 18.9271 29.7248 18.9705C29.7117 19.0138 29.6871 19.0527 29.6536 19.0832C29.6201 19.1136 29.579 19.1344 29.5346 19.1432L21.3666 20.7766C21.0697 20.8359 20.8376 21.068 20.7782 21.3649L19.1449 29.5329C19.136 29.5773 19.1153 29.6184 19.0848 29.6519C19.0544 29.6854 19.0155 29.7101 18.9722 29.7232C18.9288 29.7363 18.8828 29.7374 18.8389 29.7263C18.795 29.7153 18.7547 29.6923 18.7227 29.6603L3.21592 14.1536C2.60642 13.5443 2.2639 12.7177 2.26367 11.8558V3.51199C2.26367 3.18047 2.39537 2.86253 2.62979 2.62811ZM7.26367 8.51199C7.26367 7.82164 7.82332 7.26199 8.51367 7.26199C9.20403 7.26199 9.76367 7.82164 9.76367 8.51199C9.76367 9.20235 9.20403 9.76199 8.51367 9.76199C7.82332 9.76199 7.26367 9.20235 7.26367 8.51199ZM8.51367 5.76199C6.99489 5.76199 5.76367 6.99321 5.76367 8.51199C5.76367 10.0308 6.99489 11.262 8.51367 11.262C10.0325 11.262 11.2637 10.0308 11.2637 8.51199C11.2637 6.99321 10.0325 5.76199 8.51367 5.76199Z" fill="#767676"/>
</svg>
