<svg width="32" height="32" viewBox="0 0 32 32" fill="none" xmlns="http://www.w3.org/2000/svg">
<path fill-rule="evenodd" clip-rule="evenodd" d="M2.49347 0.294325C2.91182 0.215859 3.34267 0.235573 3.7521 0.351915L3.753 0.35217C9.14795 1.89244 14.8662 1.89244 20.2612 0.352171L20.2671 0.350489L20.2671 0.350513C20.6754 0.237553 21.1042 0.220434 21.5202 0.300491C21.9361 0.380547 22.328 0.555615 22.6651 0.812041C23.0023 1.06847 23.2757 1.39932 23.4639 1.77878C23.6522 2.15825 23.7502 2.57608 23.7504 2.99968V3.00002V5.38002C23.7504 5.79423 23.4146 6.13002 23.0004 6.13002C22.5862 6.13002 22.2504 5.79423 22.2504 5.38002V3.00036C22.2503 2.80782 22.2058 2.6179 22.1202 2.44541C22.0346 2.27292 21.9104 2.12254 21.7571 2.00598C21.6039 1.88943 21.4257 1.80985 21.2367 1.77346C21.0485 1.73724 20.8545 1.74478 20.6697 1.79548C15.0067 3.41161 9.00455 3.41134 3.34169 1.79468C3.15571 1.7419 2.96001 1.73298 2.76999 1.76862C2.57984 1.80428 2.40055 1.8836 2.24626 2.00033C2.09197 2.11706 1.96688 2.26801 1.88084 2.4413C1.7948 2.61459 1.75016 2.80549 1.75043 2.99896L1.75043 3.00002L1.75043 12.5494V12.5565H1.7504C1.72968 14.7185 2.52173 16.8094 3.96959 18.415C4.18797 18.6524 4.42153 18.8937 4.66796 19.1376C4.96239 19.4289 4.96489 19.9038 4.67354 20.1982C4.3822 20.4927 3.90733 20.4951 3.6129 20.2038C3.35089 19.9445 3.09991 19.6853 2.86297 19.4276L2.85829 19.4225L2.85831 19.4225C1.15775 17.5382 0.227024 15.0839 0.250431 12.5458V3.00049L2.49347 0.294325ZM28.2638 6.9725C28.6726 6.85785 29.1025 6.83944 29.5196 6.9187C29.9368 6.99796 30.3299 7.17275 30.6682 7.42937C31.0065 7.68598 31.2808 8.01745 31.4696 8.3978C31.6583 8.77804 31.7564 9.19681 31.7563 9.62131V9.62166V19.1658C31.7797 21.7038 30.849 24.1581 29.1484 26.0425L29.1452 26.046C26.8917 28.5112 24.0854 30.4064 20.9569 31.5758L20.9525 31.5774C20.3412 31.8017 19.6701 31.8017 19.0587 31.5774L19.0541 31.5757C15.9265 30.4055 13.1209 28.5105 10.8675 26.0461L10.8642 26.0425L10.8642 26.0425C9.16361 24.1581 8.23288 21.7038 8.25629 19.1658V9.62131V9.62097C8.25648 9.19737 8.35453 8.77954 8.54279 8.40007C8.73104 8.0206 9.00441 7.68975 9.34158 7.43333C9.67875 7.1769 10.0706 7.00183 10.4866 6.92178C10.9025 6.84172 11.3314 6.85884 11.7396 6.9718L11.5396 7.69464L11.7454 6.97343C17.1427 8.51366 22.8632 8.51366 28.2605 6.97343L28.2638 6.9725ZM11.3371 8.41678C11.1523 8.36607 10.9583 8.35852 10.7701 8.39474C10.581 8.43113 10.4029 8.51071 10.2496 8.62727C10.0963 8.74382 9.97209 8.89421 9.88652 9.0667C9.801 9.23908 9.75643 9.42888 9.75629 9.62131V9.62153V9.62165V19.1693V19.1765H9.75626C9.73553 21.3388 10.5278 23.4299 11.9761 25.0356C14.0687 27.3235 16.6736 29.083 19.5774 30.17C19.854 30.2708 20.1574 30.2708 20.434 30.1699C23.3385 29.0838 25.9439 27.3243 28.0364 25.0358C29.4847 23.4301 30.277 21.3388 30.2563 19.1765L30.2563 19.1693H30.2563V9.62131V9.62095C30.2564 9.42794 30.2118 9.23754 30.126 9.06465C30.0402 8.89177 29.9155 8.7411 29.7617 8.62445C29.6079 8.50781 29.4292 8.42836 29.2396 8.39233C29.0505 8.3564 28.8557 8.36463 28.6703 8.41636C23.0056 10.0325 17.0018 10.0327 11.3371 8.41678ZM16.75 21C16.75 20.5858 16.4142 20.25 16 20.25C15.5858 20.25 15.25 20.5858 15.25 21C15.25 22.2598 15.7504 23.468 16.6412 24.3588C17.532 25.2496 18.7402 25.75 20 25.75C21.2598 25.75 22.468 25.2496 23.3588 24.3588C24.2496 23.468 24.75 22.2598 24.75 21C24.75 20.5858 24.4142 20.25 24 20.25C23.5858 20.25 23.25 20.5858 23.25 21C23.25 21.862 22.9076 22.6886 22.2981 23.2981C21.6886 23.9076 20.862 24.25 20 24.25C19.138 24.25 18.3114 23.9076 17.7019 23.2981C17.0924 22.6886 16.75 21.862 16.75 21ZM15 13.75C14.6685 13.75 14.3505 13.8817 14.1161 14.1161C13.8817 14.3505 13.75 14.6685 13.75 15C13.75 15.4142 13.4142 15.75 13 15.75C12.5858 15.75 12.25 15.4142 12.25 15C12.25 14.2707 12.5397 13.5712 13.0555 13.0555C13.5712 12.5397 14.2707 12.25 15 12.25C15.7293 12.25 16.4288 12.5397 16.9445 13.0555C17.4603 13.5712 17.75 14.2707 17.75 15C17.75 15.4142 17.4142 15.75 17 15.75C16.5858 15.75 16.25 15.4142 16.25 15C16.25 14.6685 16.1183 14.3505 15.8839 14.1161C15.6495 13.8817 15.3315 13.75 15 13.75ZM24.1161 14.1161C24.3505 13.8817 24.6685 13.75 25 13.75C25.3315 13.75 25.6495 13.8817 25.8839 14.1161C26.1183 14.3505 26.25 14.6685 26.25 15C26.25 15.4142 26.5858 15.75 27 15.75C27.4142 15.75 27.75 15.4142 27.75 15C27.75 14.2707 27.4603 13.5712 26.9445 13.0555C26.4288 12.5397 25.7293 12.25 25 12.25C24.2707 12.25 23.5712 12.5397 23.0555 13.0555C22.5397 13.5712 22.25 14.2707 22.25 15C22.25 15.4142 22.5858 15.75 23 15.75C23.4142 15.75 23.75 15.4142 23.75 15C23.75 14.6685 23.8817 14.3505 24.1161 14.1161Z" fill="#767676"/>
</svg>
