<svg width="32" height="32" viewBox="0 0 32 32" fill="none" xmlns="http://www.w3.org/2000/svg">
<path d="M11.5396 7.69464C11.2427 7.61249 10.9308 7.60004 10.6283 7.65826C10.3258 7.71648 10.0408 7.84381 9.79559 8.0303C9.55038 8.21679 9.35156 8.45741 9.21465 8.73338C9.07774 9.00936 9.00643 9.31324 9.00629 9.62131V19.1693C8.98376 21.5205 9.84561 23.7944 11.421 25.54C13.5944 27.9169 16.3004 29.7446 19.317 30.8733C19.7616 31.0364 20.2497 31.0364 20.6943 30.8733C23.7116 29.7454 26.4182 27.9176 28.5916 25.54C30.167 23.7944 31.0288 21.5205 31.0063 19.1693V9.62131C31.0064 9.31249 30.9351 9.00784 30.7978 8.73122C30.6605 8.45461 30.461 8.21354 30.215 8.02691C29.9689 7.84028 29.683 7.71316 29.3796 7.65552C29.0762 7.59787 28.7636 7.61126 28.4663 7.69464C22.9345 9.27325 17.0714 9.27325 11.5396 7.69464V7.69464Z" stroke="#474445" stroke-width="1.5" stroke-linecap="round" stroke-linejoin="round"/>
<path d="M23.0004 5.38002V3.00002C23.0003 2.69195 22.929 2.38807 22.7921 2.1121C22.6552 1.83612 22.4563 1.5955 22.2111 1.40901C21.9659 1.22252 21.6809 1.0952 21.3784 1.03697C21.0759 0.978751 20.764 0.991202 20.4671 1.07335C14.9376 2.65205 9.07662 2.65205 3.5471 1.07335C3.24933 0.988742 2.93598 0.974404 2.63173 1.03147C2.32748 1.08854 2.04063 1.21545 1.79376 1.40222C1.54689 1.58898 1.34675 1.83051 1.20908 2.10777C1.07142 2.38503 0.999993 2.69046 1.00043 3.00002V12.5494C0.977897 14.9006 1.83975 17.1744 3.4151 18.92C3.6431 19.168 3.88576 19.4187 4.14043 19.6707" stroke="#474445" stroke-width="1.5" stroke-linecap="round" stroke-linejoin="round"/>
<path d="M24 21C24 22.0609 23.5786 23.0783 22.8284 23.8284C22.0783 24.5786 21.0609 25 20 25C18.9391 25 17.9217 24.5786 17.1716 23.8284C16.4214 23.0783 16 22.0609 16 21" stroke="#474445" stroke-width="1.5" stroke-linecap="round" stroke-linejoin="round"/>
<path d="M13 15C13 14.4696 13.2107 13.9609 13.5858 13.5858C13.9609 13.2107 14.4696 13 15 13C15.5304 13 16.0391 13.2107 16.4142 13.5858C16.7893 13.9609 17 14.4696 17 15" stroke="#474445" stroke-width="1.5" stroke-linecap="round" stroke-linejoin="round"/>
<path d="M23 15C23 14.4696 23.2107 13.9609 23.5858 13.5858C23.9609 13.2107 24.4696 13 25 13C25.5304 13 26.0391 13.2107 26.4142 13.5858C26.7893 13.9609 27 14.4696 27 15" stroke="#474445" stroke-width="1.5" stroke-linecap="round" stroke-linejoin="round"/>
</svg>
