<svg width="32" height="32" viewBox="0 0 32 32" fill="none" xmlns="http://www.w3.org/2000/svg">
<path d="M29.1677 8.53849C29.3815 8.89328 29.2672 9.35419 28.9124 9.56797C28.5576 9.78175 28.0967 9.66744 27.8829 9.31265L29.1677 8.53849ZM28.7803 21.1882C28.9382 20.8052 29.3766 20.6228 29.7595 20.7807C30.1425 20.9386 30.3249 21.377 30.167 21.76L28.7803 21.1882ZM16.5253 2.89075C9.20756 2.89075 3.27534 8.82298 3.27534 16.1407L1.77534 16.1407C1.77534 7.99455 8.37913 1.39075 16.5253 1.39075L16.5253 2.89075ZM3.27534 16.1407C3.27534 23.4585 9.20756 29.3907 16.5253 29.3907L16.5253 30.8907C8.37914 30.8907 1.77534 24.2869 1.77534 16.1407L3.27534 16.1407ZM27.8829 9.31265C25.5632 5.46283 21.3443 2.89075 16.5253 2.89075L16.5253 1.39075C21.8917 1.39075 26.5879 4.25699 29.1677 8.53849L27.8829 9.31265ZM16.5253 29.3907C22.0547 29.3907 26.7946 26.0036 28.7803 21.1882L30.167 21.76C27.9578 27.1176 22.6831 30.8907 16.5253 30.8907L16.5253 29.3907Z" fill="#71717A"/>
<path d="M29.192 5.47412L29.192 9.47412L25.3271 8.82998" stroke="#71717A" stroke-width="1.5" stroke-linecap="round" stroke-linejoin="round"/>
<path d="M22 12.5V22H12V18.6815V12.5" stroke="#71717A" stroke-width="1.55" stroke-linecap="round" stroke-linejoin="round"/>
<path d="M9.5 13.5L17 9.5L24.5 13.5" stroke="#71717A" stroke-width="1.5" stroke-linecap="round" stroke-linejoin="round"/>
</svg>
