<svg width="32" height="32" viewBox="0 0 32 32" fill="none" xmlns="http://www.w3.org/2000/svg">
<path d="M16 0.999939V30.6666" stroke="#71717A" stroke-width="1.5" stroke-linecap="round" stroke-linejoin="round"/>
<path d="M8 31H24" stroke="#71717A" stroke-width="1.5" stroke-linecap="round" stroke-linejoin="round"/>
<path d="M6.68753 18.636L1.36753 13.316C1.22515 13.174 1.11936 12.9996 1.05925 12.8076C0.999137 12.6157 0.986505 12.4121 1.02243 12.2142C1.05836 12.0163 1.14178 11.8301 1.26552 11.6716C1.38927 11.5131 1.54964 11.3869 1.73287 11.304L6.63553 9.11604C6.86506 9.01378 7.12019 8.98351 7.36727 9.02921C7.61435 9.07492 7.84177 9.19445 8.01953 9.37204L10.5529 11.9054C10.7275 12.0799 10.8462 12.3024 10.8937 12.5447C10.9412 12.7869 10.9154 13.0379 10.8195 13.2654L8.70887 18.2414C8.62972 18.4288 8.50573 18.5938 8.34781 18.722C8.18989 18.8503 8.00289 18.9377 7.80324 18.9767C7.6036 19.0157 7.39743 19.005 7.20288 18.9456C7.00833 18.8862 6.83136 18.7799 6.68753 18.636V18.636Z" stroke="#71717A" stroke-width="1.5" stroke-linecap="round" stroke-linejoin="round"/>
<path d="M30.2987 9.57198L25.0387 14.832C24.8968 14.9742 24.7221 15.0795 24.53 15.1386C24.3379 15.1977 24.1342 15.2087 23.9368 15.1709C23.7394 15.133 23.5544 15.0472 23.3978 14.9212C23.2412 14.7952 23.1179 14.6327 23.0387 14.448L20.9681 9.62531C20.8714 9.39883 20.8452 9.1485 20.8927 8.9069C20.9403 8.66529 21.0595 8.44359 21.2347 8.27064L23.7441 5.76131C23.9175 5.58639 24.1394 5.46748 24.3812 5.41994C24.6229 5.37241 24.8733 5.39843 25.1001 5.49464L29.9147 7.57331C30.0992 7.65258 30.2615 7.77583 30.3873 7.93229C30.5132 8.08875 30.5988 8.27365 30.6367 8.47083C30.6745 8.66802 30.6635 8.87148 30.6046 9.06343C30.5457 9.25538 30.4407 9.42999 30.2987 9.57198V9.57198Z" stroke="#71717A" stroke-width="1.5" stroke-linecap="round" stroke-linejoin="round"/>
<path d="M14.6665 4H18.8385C19.3686 4.00011 19.8769 4.21064 20.2518 4.58533L22.4446 6.98045" stroke="#71717A" stroke-width="1.5" stroke-linecap="round" stroke-linejoin="round"/>
<path d="M17.3333 8H12.832C12.3019 8.00011 11.7936 8.21064 11.4187 8.58533L9.38086 10.6388" stroke="#71717A" stroke-width="1.5" stroke-linecap="round" stroke-linejoin="round"/>
</svg>
