<svg width="32" height="32" viewBox="0 0 32 32" fill="none" xmlns="http://www.w3.org/2000/svg">
<path d="M23.9998 28C22.5271 28 21.3332 26.8061 21.3332 25.3334C21.3332 23.8606 22.5271 22.6667 23.9998 22.6667C25.4726 22.6667 26.6665 23.8606 26.6665 25.3334C26.6665 26.8061 25.4726 28 23.9998 28Z" stroke="#767676" stroke-width="1.5" stroke-linecap="round" stroke-linejoin="round"/>
<path d="M9.33333 28C7.86057 28 6.66667 26.8061 6.66667 25.3334C6.66667 23.8606 7.86057 22.6667 9.33333 22.6667C10.8061 22.6667 12 23.8606 12 25.3334C12 26.8061 10.8061 28 9.33333 28Z" stroke="#767676" stroke-width="1.5" stroke-linecap="round" stroke-linejoin="round"/>
<path d="M21.3335 24H12.0002" stroke="#767676" stroke-width="1.5" stroke-linecap="round" stroke-linejoin="round"/>
<path d="M20.75 24C20.75 24.4142 20.4142 24.75 20 24.75C19.5858 24.75 19.25 24.4142 19.25 24H20.75ZM3.25 6.66667C3.25 7.08088 2.91421 7.41667 2.5 7.41667C2.08579 7.41667 1.75 7.08088 1.75 6.66667H3.25ZM3.5 4V4.75V4ZM16 4.00002L16 3.25002L16 4.00002ZM19.25 24V8.00002H20.75V24H19.25ZM16 4.75002L3.5 4.75L3.5 3.25L16 3.25002L16 4.75002ZM3.25 5V6.66667H1.75V5H3.25ZM3.5 4.75C3.36193 4.75 3.25 4.86193 3.25 5H1.75C1.75 4.0335 2.5335 3.25 3.5 3.25L3.5 4.75ZM19.25 8.00002C19.25 6.20509 17.7949 4.75002 16 4.75002L16 3.25002C18.6234 3.25002 20.75 5.37667 20.75 8.00002H19.25Z" fill="#767676"/>
<path d="M12 11.25C12.4142 11.25 12.75 11.5858 12.75 12C12.75 12.4142 12.4142 12.75 12 12.75V11.25ZM1.33333 12.75C0.91912 12.75 0.583333 12.4142 0.583333 12C0.583333 11.5858 0.91912 11.25 1.33333 11.25V12.75ZM12 12.75H1.33333V11.25H12V12.75Z" fill="#767676"/>
<path d="M12 15.25C12.4142 15.25 12.75 15.5858 12.75 16C12.75 16.4142 12.4142 16.75 12 16.75V15.25ZM5.33333 16.75C4.91912 16.75 4.58333 16.4142 4.58333 16C4.58333 15.5858 4.91912 15.25 5.33333 15.25V16.75ZM12 16.75H5.33333V15.25H12V16.75Z" fill="#767676"/>
<path d="M27 15.25C27.4142 15.25 27.75 15.5858 27.75 16C27.75 16.4142 27.4142 16.75 27 16.75V15.25ZM19.9998 16.75C19.5856 16.75 19.2498 16.4142 19.2498 16C19.2498 15.5858 19.5856 15.25 19.9998 15.25V16.75ZM27 16.75H19.9998V15.25H27V16.75Z" fill="#767676"/>
<path d="M2.5 21.3333V23C2.5 23.5523 2.94772 24 3.5 24H6.6665" stroke="#767676" stroke-width="1.5" stroke-linecap="round"/>
<path d="M20 11L23.7279 11C24.1365 10.9999 24.5371 11.1118 24.8848 11.3233C25.2324 11.5348 25.5134 11.8375 25.6962 12.1974L27 16L30.0267 17.135C30.6121 17.3546 31 17.9142 31 18.5395V22.5C31 23.3284 30.3284 24 29.5 24H26.875" stroke="#767676" stroke-width="1.5" stroke-linecap="round" stroke-linejoin="round"/>
</svg>
