<svg width="32" height="32" viewBox="0 0 32 32" fill="none" xmlns="http://www.w3.org/2000/svg">
<path d="M16.0002 8.00002C17.4729 8.00002 18.6668 6.80611 18.6668 5.33335C18.6668 3.86059 17.4729 2.66669 16.0002 2.66669C14.5274 2.66669 13.3335 3.86059 13.3335 5.33335C13.3335 6.80611 14.5274 8.00002 16.0002 8.00002Z" stroke="#71717A" stroke-width="1.5" stroke-linecap="round" stroke-linejoin="round"/>
<path d="M21 18.6667V16C21 14.6739 20.4732 13.4021 19.5355 12.4645C18.5979 11.5268 17.3261 11 16 11C14.6739 11 13.4021 11.5268 12.4645 12.4645C11.5268 13.4021 11 14.6739 11 16V18.6667H13L14 26.6667H18L19 18.6667H21Z" stroke="#71717A" stroke-width="1.5" stroke-linecap="round" stroke-linejoin="round"/>
<path d="M6.66667 10.6666C8.13943 10.6666 9.33333 9.47274 9.33333 7.99998C9.33333 6.52722 8.13943 5.33331 6.66667 5.33331C5.19391 5.33331 4 6.52722 4 7.99998C4 9.47274 5.19391 10.6666 6.66667 10.6666Z" stroke="#71717A" stroke-width="1.5" stroke-linecap="round" stroke-linejoin="round"/>
<path d="M5.2613 13.0567C4.47644 13.1745 3.73085 13.4773 3.08609 13.9401C2.44133 14.4029 1.9159 15.0124 1.55318 15.7183C1.19046 16.4242 1.00084 17.2063 1 18V18.6666H3L4 25.3333H8L8.50133 21.992" stroke="#71717A" stroke-width="1.5" stroke-linecap="round" stroke-linejoin="round"/>
<path d="M25.3332 10.6666C26.8059 10.6666 27.9998 9.47274 27.9998 7.99998C27.9998 6.52722 26.8059 5.33331 25.3332 5.33331C23.8604 5.33331 22.6665 6.52722 22.6665 7.99998C22.6665 9.47274 23.8604 10.6666 25.3332 10.6666Z" stroke="#71717A" stroke-width="1.5" stroke-linecap="round" stroke-linejoin="round"/>
<path d="M26.7386 13.0567C27.5234 13.1745 28.269 13.4773 28.9138 13.9401C29.5585 14.4029 30.084 15.0124 30.4467 15.7183C30.8094 16.4242 30.999 17.2063 30.9999 18V18.6666H28.9999L27.9999 25.3333H23.9999L23.4985 21.992" stroke="#71717A" stroke-width="1.5" stroke-linecap="round" stroke-linejoin="round"/>
<path d="M5 30H26.3333" stroke="#71717A" stroke-width="1.5" stroke-linecap="round" stroke-linejoin="round"/>
</svg>
