<svg width="32" height="32" viewBox="0 0 32 32" fill="none" xmlns="http://www.w3.org/2000/svg">
<path d="M26.7679 30.9241C26.7679 30.9241 31.0252 23.0625 30.9999 15.9364C30.9856 11.9608 29.3915 8.1536 26.5683 5.35249C23.7452 2.55139 19.9242 0.985785 15.946 1.0001C11.9678 1.01441 8.15818 2.60747 5.35528 5.42881C2.55238 8.25016 0.985776 12.0687 1.0001 16.0444C1.02454 22.9217 5.04115 30.4489 5.32435 30.9712" stroke="#71717A" stroke-width="1.5" stroke-linecap="round" stroke-linejoin="round"/>
<path d="M8.11456 19.0585L5.96477 19.9656C5.28632 20.2519 4.96841 21.0339 5.25469 21.7124L8.49444 29.3902C8.78072 30.0686 9.56279 30.3866 10.2412 30.1003L12.391 29.1931C13.0695 28.9069 13.3874 28.1248 13.1011 27.4463L9.86136 19.7685C9.57508 19.0901 8.79301 18.7722 8.11456 19.0585Z" stroke="#71717A" stroke-width="1.5" stroke-linecap="round" stroke-linejoin="round"/>
<path d="M19.6086 29.1951L21.7584 30.1022C22.4368 30.3885 23.2189 30.0706 23.5052 29.3922L26.7449 21.7144C27.0312 21.0359 26.7133 20.2538 26.0348 19.9676L23.8851 19.0604C23.2066 18.7742 22.4245 19.0921 22.1383 19.7705L18.8985 27.4483C18.6122 28.1268 18.9301 28.9088 19.6086 29.1951Z" stroke="#71717A" stroke-width="1.5" stroke-linecap="round" stroke-linejoin="round"/>
</svg>
