<svg width="32" height="32" viewBox="0 0 32 32" fill="none" xmlns="http://www.w3.org/2000/svg">
<path d="M13.5 22.5L4.23417 21.0065C3.86782 20.9774 3.50034 21.0465 3.16947 21.2064C2.83859 21.3663 2.55625 21.6115 2.35142 21.9166C2.1466 22.2217 2.02667 22.5759 2.00396 22.9427C1.98125 23.3095 2.05656 23.6757 2.22217 24.0038C2.45546 24.4719 2.85763 24.834 3.34751 25.0171L17.2595 30.2345C18.1166 30.5555 19.0578 30.5729 19.9262 30.2838L30.5835 26.7318" stroke="#474445" stroke-width="1.5" stroke-linecap="round" stroke-linejoin="round"/>
<path d="M22.4971 22.8683H14.7784C14.4052 22.8686 14.0413 22.7512 13.7386 22.533C13.4358 22.3147 13.2095 22.0065 13.0918 21.6523V21.6523C13.015 21.4229 12.986 21.1802 13.0063 20.9391C13.0266 20.6981 13.096 20.4637 13.2101 20.2504C13.3242 20.037 13.4806 19.8492 13.6698 19.6985C13.859 19.5477 14.077 19.4372 14.3104 19.3737L22.2278 17.2137C23.0632 16.9845 23.9384 16.939 24.7931 17.0803L29.4971 17.8643" stroke="#474445" stroke-width="1.5" stroke-linecap="round" stroke-linejoin="round"/>
<path d="M4 17V3.85439C4.01561 3.34968 4.26647 2.8709 4.69742 2.52328C5.12837 2.17567 5.70415 1.98768 6.29818 2.00063H25.7033C26.2971 1.98801 26.8725 2.17615 27.3031 2.52373C27.7337 2.87131 27.9844 3.3499 28 3.85439V13.2925" stroke="#474445" stroke-width="1.5" stroke-linecap="round" stroke-linejoin="round"/>
<path d="M12 2V9H20V2" stroke="#474445" stroke-width="1.5" stroke-linecap="round" stroke-linejoin="round"/>
</svg>
