<svg width="32" height="32" viewBox="0 0 32 32" fill="none" xmlns="http://www.w3.org/2000/svg">
<path d="M25.8333 30.3333C24.3606 30.3333 23.1667 29.1394 23.1667 27.6667C23.1667 26.1939 24.3606 25 25.8333 25C27.3061 25 28.5 26.1939 28.5 27.6667C28.5 29.1394 27.3061 30.3333 25.8333 30.3333Z" stroke="#71717A" stroke-width="1.5" stroke-linecap="round" stroke-linejoin="round"/>
<path d="M12.8333 30.3333C11.3606 30.3333 10.1667 29.1394 10.1667 27.6667C10.1667 26.1939 11.3606 25 12.8333 25C14.3061 25 15.5 26.1939 15.5 27.6667C15.5 29.1394 14.3061 30.3333 12.8333 30.3333Z" stroke="#71717A" stroke-width="1.5" stroke-linecap="round" stroke-linejoin="round"/>
<path d="M1.49988 1.54132H2.88388C3.54491 1.54108 4.18748 1.75927 4.71169 2.16195C5.23591 2.56464 5.61237 3.12925 5.78255 3.76799L10.1387 20.016C10.2526 20.4425 10.5044 20.8193 10.8548 21.0877C11.2052 21.3562 11.6346 21.5011 12.076 21.5H26.5C26.9408 21.5002 27.3693 21.3549 27.7189 21.0865C28.0685 20.8181 28.3197 20.4418 28.4334 20.016L30.9922 9.53219" stroke="#71717A" stroke-width="1.5" stroke-linecap="round" stroke-linejoin="round"/>
<path d="M30.9922 9.48438L7.5 9.5" stroke="#71717A" stroke-width="1.5" stroke-linecap="round" stroke-linejoin="round"/>
</svg>
