<svg width="32" height="32" viewBox="0 0 32 32" fill="none" xmlns="http://www.w3.org/2000/svg">
<path d="M25.8333 30.3333C24.3606 30.3333 23.1667 29.1394 23.1667 27.6667C23.1667 26.1939 24.3606 25 25.8333 25C27.3061 25 28.5 26.1939 28.5 27.6667C28.5 29.1394 27.3061 30.3333 25.8333 30.3333Z" stroke="#474445" stroke-width="1.5" stroke-linecap="round" stroke-linejoin="round"/>
<path d="M12.8333 30.3333C11.3606 30.3333 10.1667 29.1394 10.1667 27.6667C10.1667 26.1939 11.3606 25 12.8333 25C14.3061 25 15.5 26.1939 15.5 27.6667C15.5 29.1394 14.3061 30.3333 12.8333 30.3333Z" stroke="#474445" stroke-width="1.5" stroke-linecap="round" stroke-linejoin="round"/>
<path d="M31 9.5L28.4333 20.016C28.3196 20.4418 28.0684 20.8181 27.7188 21.0865C27.3692 21.3549 26.9407 21.5002 26.5 21.5H12.076C11.6346 21.5011 11.2052 21.3562 10.8548 21.0877C10.5043 20.8193 10.2526 20.4425 10.1387 20.016L5.78251 3.76799C5.61233 3.12925 5.23586 2.56464 4.71165 2.16195C4.18744 1.75927 3.54486 1.54108 2.88384 1.54132H1.49984" stroke="#474445" stroke-width="1.5" stroke-linecap="round" stroke-linejoin="round"/>
<path d="M30.5 9.5H7.5" stroke="#474445" stroke-width="1.5" stroke-linecap="round" stroke-linejoin="round"/>
</svg>
