<svg width="32" height="32" viewBox="0 0 32 32" fill="none" xmlns="http://www.w3.org/2000/svg">
<path d="M20 21.3333L23.5347 30.5266L25.3333 26.6666L29.192 24.8693L20 21.3333Z" stroke="#71717A" stroke-width="1.5" stroke-linecap="round" stroke-linejoin="round"/>
<path d="M25.3335 26.6666L29.3335 30.6666" stroke="#71717A" stroke-width="1.5" stroke-linecap="round" stroke-linejoin="round"/>
<path d="M22 18H25.5L23.687 13.2622C23.5932 12.8989 23.383 12.5777 23.0896 12.3491C22.7962 12.1206 22.4362 11.9977 22.0665 12H18.36C18.36 12.6758 18.0957 13.324 17.6253 13.8018C17.1549 14.2797 16.5169 14.5482 15.8516 14.5482C15.1864 14.5482 14.5484 14.2797 14.078 13.8018C13.6076 13.324 13.3433 12.6758 13.3433 12H9.64149C9.27175 11.9977 8.91179 12.1206 8.61837 12.3491C8.32496 12.5777 8.11478 12.8989 8.02099 13.2622L6.5 18H9.99999L10 25.3333H16.1406" stroke="#71717A" stroke-width="1.5" stroke-linecap="round" stroke-linejoin="round"/>
<path d="M18.6 29H4.85699C4.61242 28.9994 4.37037 28.9506 4.14467 28.8564C3.91896 28.7622 3.71403 28.6245 3.54158 28.4511C3.36913 28.2777 3.23254 28.072 3.13961 27.8457C3.04669 27.6195 2.99925 27.3772 3.00001 27.1326V4.86622C2.9994 4.62175 3.04695 4.37956 3.13994 4.15347C3.23294 3.92737 3.36955 3.72181 3.54199 3.54852C3.71442 3.37522 3.91931 3.23759 4.14493 3.14347C4.37056 3.04936 4.61252 3.00061 4.85699 3H27.143C27.3875 3.00061 27.6294 3.04936 27.8551 3.14347C28.0807 3.23759 28.2856 3.37522 28.458 3.54852C28.6305 3.72181 28.7671 3.92737 28.8601 4.15347C28.9531 4.37956 29.0006 4.62175 29 4.86622V19.4219" stroke="#71717A" stroke-width="1.5" stroke-linecap="round" stroke-linejoin="round"/>
<path d="M3 8H29" stroke="#71717A" stroke-width="1.5" stroke-linecap="round" stroke-linejoin="round"/>
</svg>
