<svg width="32" height="32" viewBox="0 0 32 32" fill="none" xmlns="http://www.w3.org/2000/svg">
<path d="M2 9L8.28685 2.32244C8.38048 2.22022 8.49165 2.13913 8.61402 2.0838C8.73639 2.02848 8.86754 2 9 2C9.13246 2 9.26361 2.02848 9.38598 2.0838C9.50835 2.13913 9.61952 2.22022 9.71315 2.32244L16 9" stroke="#71717A" stroke-width="1.5" stroke-linecap="round" stroke-linejoin="round"/>
<path d="M16 12L22.2868 5.32244C22.3805 5.22022 22.4917 5.13913 22.614 5.0838C22.7364 5.02848 22.8675 5 23 5C23.1325 5 23.2636 5.02848 23.386 5.0838C23.5083 5.13913 23.6195 5.22022 23.7132 5.32244L30 12" stroke="#71717A" stroke-width="1.5" stroke-linecap="round" stroke-linejoin="round"/>
<path d="M2 9V31H16V9" stroke="#71717A" stroke-width="1.5" stroke-linecap="round" stroke-linejoin="round"/>
<path d="M16 31H30V12" stroke="#71717A" stroke-width="1.5" stroke-linecap="round" stroke-linejoin="round"/>
<path d="M6.25 31C6.25 31.4142 6.58579 31.75 7 31.75C7.41421 31.75 7.75 31.4142 7.75 31H6.25ZM10.25 31C10.25 31.4142 10.5858 31.75 11 31.75C11.4142 31.75 11.75 31.4142 11.75 31H10.25ZM7.3 25.75H10.7V24.25H7.3V25.75ZM6.25 25.3V31H7.75V25.3H6.25ZM11.75 31V25.3H10.25V31H11.75ZM10.7 25.75C10.4515 25.75 10.25 25.5485 10.25 25.3H11.75C11.75 24.7201 11.2799 24.25 10.7 24.25V25.75ZM7.3 24.25C6.7201 24.25 6.25 24.7201 6.25 25.3H7.75C7.75 25.5485 7.54853 25.75 7.3 25.75V24.25Z" fill="#71717A"/>
<path d="M20.25 31C20.25 31.4142 20.5858 31.75 21 31.75C21.4142 31.75 21.75 31.4142 21.75 31H20.25ZM24.25 31C24.25 31.4142 24.5858 31.75 25 31.75C25.4142 31.75 25.75 31.4142 25.75 31H24.25ZM21.3 25.75H24.7V24.25H21.3V25.75ZM20.25 25.3V31H21.75V25.3H20.25ZM25.75 31V25.3H24.25V31H25.75ZM24.7 25.75C24.4515 25.75 24.25 25.5485 24.25 25.3H25.75C25.75 24.7201 25.2799 24.25 24.7 24.25V25.75ZM21.3 24.25C20.7201 24.25 20.25 24.7201 20.25 25.3H21.75C21.75 25.5485 21.5485 25.75 21.3 25.75V24.25Z" fill="#71717A"/>
<path d="M21 15.25C20.5858 15.25 20.25 15.5858 20.25 16C20.25 16.4142 20.5858 16.75 21 16.75V15.25ZM25 16.75C25.4142 16.75 25.75 16.4142 25.75 16C25.75 15.5858 25.4142 15.25 25 15.25V16.75ZM21 16.75H25V15.25H21V16.75Z" fill="#71717A"/>
<path d="M6.5 12.25C6.08579 12.25 5.75 12.5858 5.75 13C5.75 13.4142 6.08579 13.75 6.5 13.75V12.25ZM11.5 13.75C11.9142 13.75 12.25 13.4142 12.25 13C12.25 12.5858 11.9142 12.25 11.5 12.25V13.75ZM6.5 13.75H11.5V12.25H6.5V13.75Z" fill="#71717A"/>
<path d="M22 11.25C21.5858 11.25 21.25 11.5858 21.25 12C21.25 12.4142 21.5858 12.75 22 12.75V11.25ZM24 12.75C24.4142 12.75 24.75 12.4142 24.75 12C24.75 11.5858 24.4142 11.25 24 11.25V12.75ZM22 12.75H24V11.25H22V12.75Z" fill="#71717A"/>
<path d="M8 8.25C7.58579 8.25 7.25 8.58579 7.25 9C7.25 9.41421 7.58579 9.75 8 9.75V8.25ZM10 9.75C10.4142 9.75 10.75 9.41421 10.75 9C10.75 8.58579 10.4142 8.25 10 8.25V9.75ZM8 9.75H10V8.25H8V9.75Z" fill="#71717A"/>
<path d="M15.25 9.33331C15.25 9.74753 15.5858 10.0833 16 10.0833C16.4142 10.0833 16.75 9.74753 16.75 9.33331H15.25ZM16.75 5.33331C16.75 4.9191 16.4142 4.58331 16 4.58331C15.5858 4.58331 15.25 4.9191 15.25 5.33331H16.75ZM16.75 9.33331V5.33331H15.25V9.33331H16.75Z" fill="#71717A"/>
<path d="M29.25 12C29.25 12.4142 29.5858 12.75 30 12.75C30.4142 12.75 30.75 12.4142 30.75 12H29.25ZM30.75 8C30.75 7.58579 30.4142 7.25 30 7.25C29.5858 7.25 29.25 7.58579 29.25 8H30.75ZM30.75 12V8H29.25V12H30.75Z" fill="#71717A"/>
</svg>
