<svg width="32" height="32" viewBox="0 0 32 32" fill="none" xmlns="http://www.w3.org/2000/svg">
<path fill-rule="evenodd" clip-rule="evenodd" d="M16.2279 2.01098C15.9449 1.46147 15.156 1.47092 14.8863 2.02704L1.7196 29.1727C1.478 29.6708 1.84081 30.25 2.39441 30.25H15.521H29.5401C30.1015 30.25 30.4639 29.6558 30.2068 29.1566L16.2279 2.01098ZM13.5367 1.37242C14.3459 -0.295937 16.7125 -0.324269 17.5615 1.32424L31.5404 28.4699C32.3115 29.9673 31.2244 31.75 29.5401 31.75H15.521H2.39441C0.733615 31.75 -0.354812 30.0124 0.369978 28.5181L13.5367 1.37242ZM16.0002 10.9167C16.4144 10.9167 16.7502 11.2525 16.7502 11.6667V21.5001C16.7502 21.9143 16.4144 22.2501 16.0002 22.2501C15.586 22.2501 15.2502 21.9143 15.2502 21.5001V11.6667C15.2502 11.2525 15.586 10.9167 16.0002 10.9167ZM16 27C16.7364 27 17.3334 26.4031 17.3334 25.6667C17.3334 24.9303 16.7364 24.3333 16 24.3333C15.2637 24.3333 14.6667 24.9303 14.6667 25.6667C14.6667 26.4031 15.2637 27 16 27Z" fill="#767676"/>
</svg>
