<svg width="32" height="32" viewBox="0 0 32 32" fill="none" xmlns="http://www.w3.org/2000/svg">
<path d="M29.6667 3.5H2.33333C1.59695 3.5 1 4.09695 1 4.83333V22.1667C1 22.903 1.59695 23.5 2.33333 23.5H29.6667C30.403 23.5 31 22.903 31 22.1667V4.83333C31 4.09695 30.403 3.5 29.6667 3.5Z" stroke="#71717A" stroke-width="1.5" stroke-linecap="round" stroke-linejoin="round"/>
<path d="M10 28.5H22" stroke="#71717A" stroke-width="1.5" stroke-linecap="round" stroke-linejoin="round"/>
<path d="M16 23.5V28.5" stroke="#71717A" stroke-width="1.5" stroke-linecap="round" stroke-linejoin="round"/>
<path d="M29.6667 3.5H2.33333C1.59695 3.5 1 4.09695 1 4.83333V22.1667C1 22.903 1.59695 23.5 2.33333 23.5H29.6667C30.403 23.5 31 22.903 31 22.1667V4.83333C31 4.09695 30.403 3.5 29.6667 3.5Z" stroke="#71717A" stroke-width="1.5" stroke-linecap="round" stroke-linejoin="round"/>
<path d="M10 28.5H22" stroke="#71717A" stroke-width="1.5" stroke-linecap="round" stroke-linejoin="round"/>
<path d="M16 23.5V28.5" stroke="#71717A" stroke-width="1.5" stroke-linecap="round" stroke-linejoin="round"/>
</svg>
