<svg width="32" height="32" viewBox="0 0 32 32" fill="none" xmlns="http://www.w3.org/2000/svg">
<path fill-rule="evenodd" clip-rule="evenodd" d="M1.75 4.83333C1.75 4.51117 2.01117 4.25 2.33333 4.25H29.6667C29.9888 4.25 30.25 4.51117 30.25 4.83333V22.1667C30.25 22.4888 29.9888 22.75 29.6667 22.75H16H2.33333C2.01117 22.75 1.75 22.4888 1.75 22.1667V4.83333ZM16.75 24.25V27.75H22C22.4142 27.75 22.75 28.0858 22.75 28.5C22.75 28.9142 22.4142 29.25 22 29.25H16H10C9.58579 29.25 9.25 28.9142 9.25 28.5C9.25 28.0858 9.58579 27.75 10 27.75H15.25V24.25H2.33333C1.18274 24.25 0.25 23.3173 0.25 22.1667V4.83333C0.25 3.68274 1.18274 2.75 2.33333 2.75H29.6667C30.8173 2.75 31.75 3.68274 31.75 4.83333V22.1667C31.75 23.3173 30.8173 24.25 29.6667 24.25H16.75Z" fill="#767676"/>
</svg>
