<svg width="32" height="32" viewBox="0 0 32 32" fill="none" xmlns="http://www.w3.org/2000/svg">
<path fill-rule="evenodd" clip-rule="evenodd" d="M14.75 30.5C14.75 30.9142 15.0858 31.25 15.5 31.25C15.9142 31.25 16.25 30.9142 16.25 30.5L16.25 7.58268L20.5251 11.0805C20.8457 11.3428 21.3182 11.2955 21.5805 10.9749C21.8428 10.6543 21.7955 10.1818 21.4749 9.91953L15.9749 5.41953C15.6987 5.19349 15.3013 5.19349 15.0251 5.41953L9.52507 9.91953C9.20449 10.1818 9.15724 10.6543 9.41953 10.9749C9.68183 11.2955 10.1543 11.3428 10.4749 11.0805L14.75 7.58268L14.75 30.5ZM31 0.249992L1 0.249995C0.585788 0.249995 0.250001 0.585782 0.250001 0.999995C0.250001 1.41421 0.585787 1.75 1 1.75L31 1.74999C31.4142 1.74999 31.75 1.41421 31.75 0.999992C31.75 0.585779 31.4142 0.249992 31 0.249992Z" fill="#767676"/>
</svg>
