<svg width="32" height="32" viewBox="0 0 32 32" fill="none" xmlns="http://www.w3.org/2000/svg">
<path d="M10 16C13.0376 16 15.5 13.5376 15.5 10.5C15.5 7.46243 13.0376 5 10 5C6.96243 5 4.5 7.46243 4.5 10.5C4.5 13.5376 6.96243 16 10 16Z" stroke="#71717A" stroke-width="1.5" stroke-linecap="round" stroke-linejoin="round"/>
<path d="M1 27C1 24.6131 1.94821 22.3239 3.63604 20.636C5.32387 18.9482 7.61305 18 10 18C12.3869 18 14.6761 18.9482 16.364 20.636C18.0343 22.3064 18.9803 24.5658 18.9997 26.926" stroke="#71717A" stroke-width="1.5" stroke-linecap="round" stroke-linejoin="round"/>
<path d="M23.6357 19C26.121 19 28.1357 16.9853 28.1357 14.5C28.1357 12.0147 26.121 10 23.6357 10C21.1505 10 19.1357 12.0147 19.1357 14.5C19.1357 16.9853 21.1505 19 23.6357 19Z" stroke="#71717A" stroke-width="1.5" stroke-linecap="round" stroke-linejoin="round"/>
<path d="M21.084 20.0907C22.1974 19.6803 23.3935 19.5449 24.5705 19.6961C25.7475 19.8472 26.8706 20.2804 27.8442 20.9589C28.8178 21.6373 29.6132 22.5408 30.1626 23.5926C30.7078 24.6363 30.9949 25.7954 30.9999 26.9726" stroke="#71717A" stroke-width="1.5" stroke-linecap="round" stroke-linejoin="round"/>
</svg>
