<svg width="32" height="32" viewBox="0 0 32 32" fill="none" xmlns="http://www.w3.org/2000/svg">
<path d="M9.96777 4.44534C11.0515 5.56982 12.3509 6.46419 13.7883 7.07496C15.2256 7.68572 16.7714 8.00035 18.3331 8.00001C19.9149 8.00046 21.4801 7.67834 22.9331 7.05334" stroke="#474445" stroke-width="1.5" stroke-linecap="round" stroke-linejoin="round"/>
<path d="M16 15C19.866 15 23 11.866 23 8C23 4.13401 19.866 1 16 1C12.134 1 9 4.13401 9 8C9 11.866 12.134 15 16 15Z" stroke="#474445" stroke-width="1.5" stroke-linecap="round" stroke-linejoin="round"/>
<path d="M4.5 31C3.67157 31 2.99105 30.3261 3.08641 29.5032C3.42209 26.6065 4.72509 23.8901 6.80761 21.8076C9.24559 19.3696 12.5522 18 16 18C19.4478 18 22.7544 19.3696 25.1924 21.8076C27.2749 23.8901 28.5779 26.6065 28.9136 29.5032" stroke="#474445" stroke-width="1.5" stroke-linecap="round" stroke-linejoin="round"/>
</svg>
