<svg width="32" height="32" viewBox="0 0 32 32" fill="none" xmlns="http://www.w3.org/2000/svg">
<path d="M3.02023 29.0074L3.76134 29.1226L3.02023 29.0074ZM28.9798 29.0074L28.2387 29.1226L28.9798 29.0074ZM3.76134 29.1226C4.67325 23.2541 9.80105 18.75 16 18.75V17.25C9.06151 17.25 3.30458 22.2931 2.27913 28.8923L3.76134 29.1226ZM16 18.75C22.1989 18.75 27.3267 23.2541 28.2387 29.1226L29.7209 28.8923C28.6954 22.2931 22.9385 17.25 16 17.25V18.75ZM27.1126 30.25H4.8874V31.75H27.1126V30.25ZM2.27913 28.8923C2.02537 30.5253 3.40362 31.75 4.8874 31.75V30.25C4.13944 30.25 3.67581 29.673 3.76134 29.1226L2.27913 28.8923ZM28.2387 29.1226C28.3242 29.673 27.8606 30.25 27.1126 30.25V31.75C28.5964 31.75 29.9746 30.5253 29.7209 28.8923L28.2387 29.1226Z" fill="#71717A"/>
<path d="M22.322 8C22.322 11.4446 19.4989 14.25 16.0004 14.25V15.75C20.3129 15.75 23.822 12.2874 23.822 8H22.322ZM16.0004 14.25C12.5018 14.25 9.67871 11.4446 9.67871 8H8.17871C8.17871 12.2874 11.6878 15.75 16.0004 15.75V14.25ZM9.67871 8C9.67871 4.5554 12.5018 1.75 16.0004 1.75V0.25C11.6878 0.25 8.17871 3.71261 8.17871 8H9.67871ZM16.0004 1.75C19.4989 1.75 22.322 4.5554 22.322 8H23.822C23.822 3.71261 20.3129 0.25 16.0004 0.25V1.75Z" fill="#71717A"/>
<path d="M8.97924 6.09671C10.1579 6.99422 12.2345 8.09698 14.7126 8.56213C17.2045 9.02987 20.1381 8.85752 22.9568 7.14052L22.1765 5.85948C19.7419 7.34248 17.2035 7.50347 14.9893 7.08787C12.7614 6.66969 10.8981 5.67245 9.88795 4.90329L8.97924 6.09671Z" fill="#71717A"/>
</svg>
