<svg width="32" height="32" viewBox="0 0 32 32" fill="none" xmlns="http://www.w3.org/2000/svg">
<path d="M9.43347 5.5C11.6223 7.16667 17.3133 9.7 22.5665 6.5M3.02023 29.0074C3.98892 22.7736 9.43128 18 16 18C22.5687 18 28.0111 22.7736 28.9798 29.0074C29.1494 30.0992 28.2285 31 27.1126 31H4.8874C3.77153 31 2.85059 30.0992 3.02023 29.0074ZM23.0717 8C23.0717 11.866 19.9056 15 16 15C12.0944 15 8.92835 11.866 8.92835 8C8.92835 4.13401 12.0944 1 16 1C19.9056 1 23.0717 4.13401 23.0717 8Z" stroke="#474445" stroke-width="1.5"/>
</svg>
