<svg width="32" height="32" viewBox="0 0 32 32" fill="none" xmlns="http://www.w3.org/2000/svg">
<path fill-rule="evenodd" clip-rule="evenodd" d="M5.25 10.5C5.25 7.87665 7.37665 5.75 10 5.75C12.6234 5.75 14.75 7.87665 14.75 10.5C14.75 13.1234 12.6234 15.25 10 15.25C7.37665 15.25 5.25 13.1234 5.25 10.5ZM10 4.25C6.54822 4.25 3.75 7.04822 3.75 10.5C3.75 13.9518 6.54822 16.75 10 16.75C13.4518 16.75 16.25 13.9518 16.25 10.5C16.25 7.04822 13.4518 4.25 10 4.25ZM4.16637 21.1664C5.71354 19.6192 7.81196 18.75 10 18.75C12.188 18.75 14.2865 19.6192 15.8336 21.1664C17.3808 22.7135 18.25 24.812 18.25 27C18.25 27.4142 18.5858 27.75 19 27.75C19.4142 27.75 19.75 27.4142 19.75 27C19.75 24.4141 18.7228 21.9342 16.8943 20.1057C15.0658 18.2772 12.5859 17.25 10 17.25C7.41414 17.25 4.93419 18.2772 3.10571 20.1057C1.27723 21.9342 0.25 24.4141 0.25 27C0.25 27.4142 0.585786 27.75 1 27.75C1.41421 27.75 1.75 27.4142 1.75 27C1.75 24.812 2.61919 22.7135 4.16637 21.1664ZM23.6357 10.75C21.5647 10.75 19.8857 12.4289 19.8857 14.5C19.8857 16.5711 21.5647 18.25 23.6357 18.25C25.7068 18.25 27.3857 16.5711 27.3857 14.5C27.3857 12.4289 25.7068 10.75 23.6357 10.75ZM18.3857 14.5C18.3857 11.6005 20.7362 9.25 23.6357 9.25C26.5352 9.25 28.8857 11.6005 28.8857 14.5C28.8857 16.5741 27.683 18.3673 25.9369 19.2201C26.768 19.4663 27.5572 19.8447 28.273 20.3435C29.3457 21.091 30.222 22.0865 30.8274 23.2453C31.4328 24.4042 31.7493 25.6921 31.75 26.9996C31.7502 27.4138 31.4146 27.7498 31.0004 27.75C30.5862 27.7502 30.2502 27.4146 30.25 27.0004C30.2494 25.9345 29.9914 24.8846 29.4979 23.9398C29.0044 22.9951 28.29 22.1836 27.4154 21.5742C26.5409 20.9649 25.5322 20.5757 24.475 20.44C23.4178 20.3042 22.3435 20.4258 21.3433 20.7944C20.9547 20.9376 20.5235 20.7387 20.3803 20.35C20.237 19.9614 20.436 19.5302 20.8246 19.3869C20.9921 19.3252 21.1612 19.2692 21.3318 19.2188C19.5872 18.3654 18.3857 16.573 18.3857 14.5Z" fill="#767676"/>
</svg>
