<svg width="32" height="32" viewBox="0 0 32 32" fill="none" xmlns="http://www.w3.org/2000/svg">
<path d="M5.85673 21.6819C3.49747 17.5338 2.17691 12.8246 2.01438 7.99674C2.00174 7.6212 2.20918 7.27428 2.54153 7.09897L15.5335 0.246091C15.8254 0.0920859 16.1746 0.0920859 16.4665 0.246091L29.4585 7.09897C29.7908 7.27428 29.9983 7.62121 29.9856 7.99674C29.8231 12.8246 28.5025 17.5338 26.1433 21.6819C23.7829 25.832 20.4636 29.2785 16.4997 31.7019C16.1928 31.8895 15.8072 31.8895 15.5003 31.7019C11.5364 29.2785 8.21707 25.832 5.85673 21.6819Z" fill="#0063FB"/>
<path d="M11 17L15 20L23 12" stroke="white" stroke-width="2" stroke-linecap="round" stroke-linejoin="round"/>
</svg>
