<svg width="32" height="32" viewBox="0 0 32 32" fill="none" xmlns="http://www.w3.org/2000/svg">
<path d="M29 24V28C29 28.5304 28.7893 29.0391 28.4142 29.4142C28.0391 29.7893 27.5304 30 27 30H4C3.20435 30 2.44129 29.6839 1.87868 29.1213C1.31607 28.5587 1 27.7956 1 27V5C1 4.20435 1.31607 3.44129 1.87868 2.87868C2.44129 2.31607 3.20435 2 4 2H25C25.5304 2 26.0391 2.21071 26.4142 2.58579C26.7893 2.96086 27 3.46957 27 4V7" stroke="#71717A" stroke-width="1.5" stroke-linecap="round" stroke-linejoin="round"/>
<path d="M29 24C29.5304 24 30.0391 23.7893 30.4142 23.4142C30.7893 23.0391 31 22.5304 31 22V16C31 15.4696 30.7893 14.9609 30.4142 14.5858C30.0391 14.2107 29.5304 14 29 14H24C22.6739 14 21.4021 14.5268 20.4645 15.4645C19.5268 16.4021 19 17.6739 19 19C19 20.3261 19.5268 21.5979 20.4645 22.5355C21.4021 23.4732 22.6739 24 24 24H29Z" stroke="#71717A" stroke-width="1.5" stroke-linecap="round" stroke-linejoin="round"/>
<path d="M5.34766 5.80666C5.56027 6.18569 5.87418 6.49807 6.25424 6.70883C6.63431 6.91959 7.06554 7.0204 7.49966 6.99999H26.9997C27.5301 6.99999 28.0388 7.2107 28.4139 7.58578C28.7889 7.96085 28.9997 8.46956 28.9997 8.99999V13.8125" stroke="#71717A" stroke-width="1.5" stroke-linecap="round" stroke-linejoin="round"/>
<path d="M19 19H22" stroke="#71717A" stroke-width="1.5" stroke-linecap="round" stroke-linejoin="round"/>
</svg>
