<svg width="32" height="32" viewBox="0 0 32 32" fill="none" xmlns="http://www.w3.org/2000/svg">
<path fill-rule="evenodd" clip-rule="evenodd" d="M4 2.75C3.40326 2.75 2.83097 2.98705 2.40901 3.40901C1.98705 3.83097 1.75 4.40326 1.75 5V27C1.75 27.5967 1.98705 28.169 2.40901 28.591C2.83097 29.0129 3.40326 29.25 4 29.25H27C27.3315 29.25 27.6495 29.1183 27.8839 28.8839C28.1183 28.6495 28.25 28.3315 28.25 28V24.75H24C22.475 24.75 21.0125 24.1442 19.9341 23.0659C18.8558 21.9875 18.25 20.525 18.25 19C18.25 17.475 18.8558 16.0125 19.9341 14.9341C21.0125 13.8558 22.475 13.25 24 13.25H28.2497V8.99999C28.2497 8.66847 28.118 8.35053 27.8835 8.11611C27.6499 7.88249 27.3334 7.7509 27.0031 7.74999C27.0021 7.75 27.001 7.75 27 7.75C26.9986 7.75 26.9973 7.75 26.9959 7.74999H7.51606C6.94925 7.77318 6.38685 7.63996 5.89053 7.36474C5.38871 7.08647 4.97425 6.67402 4.69353 6.17357C4.49089 5.81231 4.61948 5.35517 4.98074 5.15253C5.34201 4.94989 5.79914 5.07848 6.00178 5.43974C6.14628 5.69736 6.35964 5.90968 6.61796 6.05293C6.87628 6.19617 7.16937 6.26469 7.46443 6.25082C7.47616 6.25027 7.48791 6.24999 7.49966 6.24999H26.25V4C26.25 3.66848 26.1183 3.35054 25.8839 3.11612C25.6495 2.8817 25.3315 2.75 25 2.75H4ZM27.75 6.35433V4C27.75 3.27065 27.4603 2.57118 26.9445 2.05546C26.4288 1.53973 25.7293 1.25 25 1.25H4C3.00544 1.25 2.05161 1.64509 1.34835 2.34835C0.645088 3.05161 0.25 4.00544 0.25 5V27C0.25 27.9946 0.645088 28.9484 1.34835 29.6517C2.05161 30.3549 3.00544 30.75 4 30.75H27C27.7293 30.75 28.4288 30.4603 28.9445 29.9445C29.4603 29.4288 29.75 28.7293 29.75 28V24.6458C30.1975 24.5189 30.6098 24.2793 30.9445 23.9445C31.4603 23.4288 31.75 22.7293 31.75 22V16C31.75 15.2707 31.4603 14.5712 30.9445 14.0555C30.6097 13.7206 30.1973 13.481 29.7497 13.3541V8.99999C29.7497 8.27064 29.4599 7.57117 28.9442 7.05545C28.6095 6.72075 28.1974 6.48124 27.75 6.35433ZM29.8839 22.8839C29.6495 23.1183 29.3315 23.25 29 23.25H24C22.8728 23.25 21.7918 22.8022 20.9948 22.0052C20.3768 21.3872 19.9688 20.5986 19.8167 19.75H22C22.4142 19.75 22.75 19.4142 22.75 19C22.75 18.5858 22.4142 18.25 22 18.25H19.8167C19.9688 17.4014 20.3768 16.6128 20.9948 15.9948C21.7918 15.1978 22.8728 14.75 24 14.75H29C29.3315 14.75 29.6495 14.8817 29.8839 15.1161C30.1183 15.3505 30.25 15.6685 30.25 16V22C30.25 22.3315 30.1183 22.6495 29.8839 22.8839Z" fill="#474445"/>
</svg>
