<svg width="32" height="32" viewBox="0 0 32 32" fill="none" xmlns="http://www.w3.org/2000/svg">
<path fill-rule="evenodd" clip-rule="evenodd" d="M18.1235 1.39993C17.0234 0.0632241 14.9767 0.063224 13.8767 1.39993L11.6895 4.05758C11.425 4.379 11.0178 4.54766 10.6035 4.50742L7.17772 4.17472C5.45468 4.00738 4.00744 5.45462 4.17478 7.17766L4.50748 10.6034C4.54772 11.0178 4.37906 11.4249 4.05764 11.6895L1.39999 13.8766C0.0632852 14.9766 0.063285 17.0233 1.39999 18.1234L4.05764 20.3105C4.37906 20.5751 4.54772 20.9822 4.50748 21.3965L4.17478 24.8223C4.00744 26.5454 5.45468 27.9926 7.17772 27.8253L10.6035 27.4926C11.0178 27.4523 11.425 27.621 11.6895 27.9424L13.8767 30.6001C14.9767 31.9368 17.0234 31.9368 18.1235 30.6001L20.3106 27.9424C20.5751 27.621 20.9823 27.4523 21.3966 27.4926L24.8224 27.8253C26.5454 27.9926 27.9927 26.5454 27.8253 24.8223L27.4926 21.3965C27.4524 20.9822 27.6211 20.5751 27.9425 20.3105L30.6001 18.1234C31.9368 17.0233 31.9368 14.9766 30.6001 13.8766L27.9425 11.6895C27.6211 11.4249 27.4524 11.0178 27.4926 10.6034L27.8253 7.17766C27.9927 5.45461 26.5454 4.00738 24.8224 4.17472L21.3966 4.50742C20.9823 4.54766 20.5751 4.379 20.3106 4.05758L18.1235 1.39993ZM15.0349 2.35309C15.5349 1.7455 16.4652 1.7455 16.9652 2.35309L19.1524 5.01075C19.7343 5.71788 20.6301 6.08892 21.5416 6.0004L24.9674 5.66769C25.7506 5.59163 26.4084 6.24946 26.3324 7.03267L25.9997 10.4585C25.9111 11.37 26.2822 12.2657 26.9893 12.8477L29.647 15.0348C30.2546 15.5348 30.2546 16.4652 29.647 16.9652L26.9893 19.1523C26.2822 19.7343 25.9111 20.63 25.9997 21.5415L26.3324 24.9673C26.4084 25.7505 25.7506 26.4084 24.9674 26.3323L21.5416 25.9996C20.6301 25.9111 19.7343 26.2821 19.1524 26.9892L16.9652 29.6469C16.4652 30.2545 15.5349 30.2545 15.0349 29.6469L12.8477 26.9892C12.2658 26.2821 11.37 25.9111 10.4585 25.9996L7.03273 26.3323C6.24953 26.4084 5.59169 25.7505 5.66775 24.9673L6.00046 21.5415C6.08898 20.63 5.71794 19.7343 5.01081 19.1523L2.35316 16.9652C1.74556 16.4652 1.74556 15.5348 2.35316 15.0348L5.01081 12.8477C5.71794 12.2657 6.08898 11.37 6.00046 10.4585L5.66775 7.03267C5.59169 6.24946 6.24953 5.59163 7.03273 5.66769L10.4585 6.0004C11.37 6.08892 12.2658 5.71788 12.8477 5.01075L15.0349 2.35309ZM21.6001 13.45C21.8486 13.1186 21.7814 12.6485 21.4501 12.4C21.1187 12.1515 20.6486 12.2186 20.4001 12.55L15.0919 19.6276C15.0006 19.7493 14.8227 19.7619 14.7151 19.6544L11.5304 16.4697C11.2375 16.1768 10.7626 16.1768 10.4697 16.4697C10.1768 16.7626 10.1768 17.2374 10.4697 17.5303L13.6544 20.715C14.4075 21.4681 15.6529 21.3796 16.2919 20.5276L21.6001 13.45Z" fill="#474445"/>
</svg>
