<svg width="32" height="32" viewBox="0 0 32 32" fill="none" xmlns="http://www.w3.org/2000/svg">
<path d="M21 12.9987L15.692 20.076C15.606 20.1905 15.4964 20.2852 15.3706 20.3537C15.2449 20.4222 15.1059 20.4629 14.963 20.473C14.8201 20.4831 14.6768 20.4624 14.5426 20.4123C14.4085 20.3622 14.2866 20.2839 14.1853 20.1827L11 16.9987" stroke="#474445" stroke-width="1.5" stroke-linecap="round" stroke-linejoin="round"/>
<path d="M14.3066 1.8093C14.5103 1.55614 14.7682 1.35187 15.0612 1.21152C15.3543 1.07118 15.675 0.998322 16 0.998322C16.3249 0.998322 16.6457 1.07118 16.9387 1.21152C17.2318 1.35187 17.4896 1.55614 17.6933 1.8093L19.7093 4.3173C19.9376 4.60184 20.2339 4.82428 20.5709 4.9641C20.9079 5.10391 21.2746 5.1566 21.6373 5.1173L24.8373 4.7693C25.1612 4.73332 25.4891 4.77065 25.7967 4.87854C26.1042 4.98643 26.3836 5.16211 26.614 5.39257C26.8445 5.62304 27.0202 5.90239 27.1281 6.20994C27.2359 6.51749 27.2733 6.84537 27.2373 7.1693L26.8893 10.3693C26.85 10.732 26.9027 11.0987 27.0425 11.4357C27.1823 11.7727 27.4048 12.069 27.6893 12.2973L30.1973 14.3133C30.4505 14.517 30.6547 14.7748 30.7951 15.0679C30.9354 15.3609 31.0083 15.6817 31.0083 16.0066C31.0083 16.3316 30.9354 16.6523 30.7951 16.9454C30.6547 17.2384 30.4505 17.4963 30.1973 17.7L27.6813 19.7066C27.3968 19.9353 27.1745 20.2319 27.0347 20.569C26.8949 20.9062 26.8421 21.2731 26.8813 21.636L27.2293 24.836C27.2655 25.16 27.2284 25.4879 27.1206 25.7956C27.0128 26.1033 26.8371 26.3827 26.6066 26.6133C26.3761 26.8438 26.0966 27.0195 25.7889 27.1273C25.4813 27.2351 25.1533 27.2722 24.8293 27.236L21.6293 26.888C21.2666 26.8485 20.8998 26.9012 20.5628 27.041C20.2258 27.1808 19.9295 27.4033 19.7013 27.688L17.6933 30.1866C17.4898 30.44 17.232 30.6445 16.9389 30.785C16.6458 30.9255 16.325 30.9984 16 30.9984C15.675 30.9984 15.3541 30.9255 15.061 30.785C14.768 30.6445 14.5102 30.44 14.3066 30.1866L12.292 27.68C12.0634 27.3954 11.7668 27.173 11.4296 27.0332C11.0925 26.8934 10.7255 26.8407 10.3626 26.88L7.16263 27.228C6.83859 27.2645 6.51049 27.2275 6.2027 27.1198C5.89491 27.0121 5.61534 26.8364 5.38476 26.6058C5.15418 26.3753 4.97852 26.0957 4.87081 25.7879C4.76311 25.4801 4.72613 25.152 4.76263 24.828L5.11063 21.628C5.14991 21.2651 5.09722 20.8981 4.95741 20.561C4.81761 20.2238 4.59518 19.9272 4.31063 19.6986L1.80396 17.684C1.55059 17.4804 1.34611 17.2226 1.20562 16.9296C1.06512 16.6365 0.992188 16.3156 0.992188 15.9906C0.992187 15.6656 1.06512 15.3448 1.20562 15.0517C1.34611 14.7586 1.55059 14.5008 1.80396 14.2973L4.31063 12.2813C4.59526 12.0531 4.81777 11.7568 4.9576 11.4198C5.09742 11.0828 5.15005 10.716 5.11063 10.3533L4.76263 7.1533C4.72639 6.82932 4.76354 6.50133 4.87134 6.19366C4.97914 5.88599 5.15481 5.60653 5.38533 5.376C5.61585 5.14548 5.89531 4.96981 6.20298 4.86201C6.51065 4.75422 6.83864 4.71706 7.16263 4.7533L10.3626 5.1013C10.7255 5.14046 11.0924 5.08771 11.4296 4.94791C11.7667 4.80812 12.0633 4.58576 12.292 4.3013L14.3066 1.8093Z" stroke="#474445" stroke-width="1.5" stroke-linecap="round" stroke-linejoin="round"/>
</svg>
