<svg width="32" height="32" viewBox="0 0 32 32" fill="none" xmlns="http://www.w3.org/2000/svg">
<path d="M14.4557 1.87651C15.2557 0.904366 16.7443 0.904366 17.5443 1.87651L19.7314 4.53417C20.1547 5.04844 20.8061 5.31829 21.469 5.25391L24.8948 4.92121C26.148 4.79951 27.2005 5.85204 27.0788 7.10517L26.7461 10.531C26.6817 11.1939 26.9516 11.8453 27.4658 12.2686L30.1235 14.4557C31.0956 15.2557 31.0956 16.7443 30.1235 17.5443L27.4658 19.7314C26.9516 20.1547 26.6817 20.8061 26.7461 21.469L27.0788 24.8948C27.2005 26.148 26.148 27.2005 24.8948 27.0788L21.469 26.7461C20.8061 26.6817 20.1547 26.9516 19.7314 27.4658L17.5443 30.1235C16.7443 31.0956 15.2557 31.0956 14.4557 30.1235L12.2686 27.4658C11.8453 26.9516 11.1939 26.6817 10.531 26.7461L7.10517 27.0788C5.85204 27.2005 4.79951 26.148 4.92121 24.8948L5.25391 21.469C5.31829 20.8061 5.04844 20.1547 4.53417 19.7314L1.87651 17.5443C0.904366 16.7443 0.904366 15.2557 1.87651 14.4557L4.53417 12.2686C5.04844 11.8453 5.31829 11.1939 5.25391 10.531L4.92121 7.10517C4.79951 5.85204 5.85204 4.79951 7.10517 4.92121L10.531 5.25391C11.1939 5.31829 11.8453 5.04844 12.2686 4.53417L14.4557 1.87651Z" stroke="#71717A" stroke-width="1.5"/>
<path d="M11 17L14.1847 20.1847C14.615 20.615 15.3267 20.5644 15.6918 20.0776L21 13" stroke="#71717A" stroke-width="1.5" stroke-linecap="round"/>
</svg>
