<svg width="32" height="32" viewBox="0 0 32 32" fill="none" xmlns="http://www.w3.org/2000/svg">
<path fill-rule="evenodd" clip-rule="evenodd" d="M13 1.75C11.2051 1.75 9.75 3.20507 9.75 5C9.75 6.79493 11.2051 8.25 13 8.25C14.7949 8.25 16.25 6.79493 16.25 5C16.25 3.20507 14.7949 1.75 13 1.75ZM17.75 5C17.75 7.36815 16.017 9.33154 13.75 9.69112V14.25H21C21.4142 14.25 21.75 14.5858 21.75 15C21.75 15.4142 21.4142 15.75 21 15.75H13.75V19C13.75 19.3315 13.8817 19.6495 14.1161 19.8839C14.3505 20.1183 14.6685 20.25 15 20.25H21C22.2598 20.25 23.468 20.7504 24.3588 21.6412C25.2496 22.532 25.75 23.7402 25.75 25V30.25H27C27.4142 30.25 27.75 30.5858 27.75 31C27.75 31.4142 27.4142 31.75 27 31.75H25C24.5858 31.75 24.25 31.4142 24.25 31V25C24.25 24.138 23.9076 23.3114 23.2981 22.7019C22.8687 22.2725 22.3314 21.9756 21.75 21.8377V23C21.75 24.7306 21.2368 26.4223 20.2754 27.8612C19.3139 29.3002 17.9473 30.4217 16.3485 31.0839C14.7496 31.7462 12.9903 31.9195 11.293 31.5819C9.59563 31.2443 8.03653 30.4109 6.81282 29.1872C5.58911 27.9635 4.75575 26.4044 4.41813 24.707C4.08051 23.0097 4.25379 21.2504 4.91606 19.6515C5.57833 18.0527 6.69984 16.6861 8.13877 15.7246C9.36897 14.9026 10.7839 14.4083 12.25 14.2822V9.69112C9.98301 9.33154 8.25 7.36815 8.25 5C8.25 2.37665 10.3766 0.25 13 0.25C15.6234 0.25 17.75 2.37665 17.75 5ZM12.25 15.7889C11.0812 15.9105 9.95542 16.3148 8.97212 16.9718C7.77986 17.7685 6.85061 18.9008 6.30188 20.2255C5.75314 21.5503 5.60957 23.008 5.88931 24.4144C6.16905 25.8208 6.85955 27.1126 7.87348 28.1265C8.88741 29.1405 10.1792 29.831 11.5856 30.1107C12.992 30.3904 14.4497 30.2469 15.7745 29.6981C17.0992 29.1494 18.2315 28.2201 19.0282 27.0279C19.8248 25.8356 20.25 24.4339 20.25 23V21.75H15C14.2707 21.75 13.5712 21.4603 13.0555 20.9445C12.5397 20.4288 12.25 19.7293 12.25 19V15.7889Z" fill="#474445"/>
</svg>
