<svg width="32" height="32" viewBox="0 0 32 32" fill="none" xmlns="http://www.w3.org/2000/svg">
<path d="M13 9C15.2091 9 17 7.20914 17 5C17 2.79086 15.2091 1 13 1C10.7909 1 9 2.79086 9 5C9 7.20914 10.7909 9 13 9Z" stroke="#474445" stroke-width="1.5" stroke-linecap="round" stroke-linejoin="round"/>
<path d="M13 9V19C13 19.5304 13.2107 20.0391 13.5858 20.4142C13.9609 20.7893 14.4696 21 15 21H21C22.0609 21 23.0783 21.4214 23.8284 22.1716C24.5786 22.9217 25 23.9391 25 25V31H27" stroke="#474445" stroke-width="1.5" stroke-linecap="round" stroke-linejoin="round"/>
<path d="M21 15H13C11.4178 15 9.87104 15.4692 8.55544 16.3482C7.23985 17.2273 6.21447 18.4767 5.60897 19.9385C5.00347 21.4003 4.84504 23.0089 5.15372 24.5607C5.4624 26.1126 6.22433 27.538 7.34315 28.6569C8.46197 29.7757 9.88743 30.5376 11.4393 30.8463C12.9911 31.155 14.5997 30.9965 16.0615 30.391C17.5233 29.7855 18.7727 28.7602 19.6518 27.4446C20.5308 26.129 21 24.5823 21 23V21" stroke="#474445" stroke-width="1.5" stroke-linecap="round" stroke-linejoin="round"/>
</svg>
