<svg width="32" height="32" viewBox="0 0 32 32" fill="none" xmlns="http://www.w3.org/2000/svg">
<path d="M16 29C18.2091 29 20 27.2091 20 25C20 22.7909 18.2091 21 16 21C13.7909 21 12 22.7909 12 25C12 27.2091 13.7909 29 16 29Z" stroke="#71717A" stroke-width="1.5" stroke-linecap="round" stroke-linejoin="round"/>
<path d="M8.94727 17.9081C10.8205 16.0462 13.3547 15.0008 15.9966 15.0008C18.6385 15.0008 21.1727 16.0462 23.046 17.9081" stroke="#71717A" stroke-width="1.5" stroke-linecap="round" stroke-linejoin="round"/>
<path d="M4.71387 13.6593C7.71176 10.676 11.7694 9.00073 15.9998 9.00073C20.2301 9.00073 24.2878 10.676 27.2857 13.6593" stroke="#71717A" stroke-width="1.5" stroke-linecap="round" stroke-linejoin="round"/>
<path d="M1.02637 8.88369C5.09571 5.10314 10.4449 3.00146 16.0003 3.00146C21.5556 3.00146 26.9048 5.10314 30.9741 8.88369" stroke="#71717A" stroke-width="1.5" stroke-linecap="round" stroke-linejoin="round"/>
</svg>
