<svg width="32" height="32" viewBox="0 0 32 32" fill="none" xmlns="http://www.w3.org/2000/svg">
<path fill-rule="evenodd" clip-rule="evenodd" d="M16 2.25146C10.243 2.25146 4.70003 4.4341 0.488639 8.35935C0.185633 8.64177 0.168943 9.11635 0.451362 9.41935C0.73378 9.72236 1.20836 9.73905 1.51137 9.45663C5.44508 5.79019 10.6226 3.75146 16 3.75146C21.3774 3.75146 26.5549 5.79019 30.4886 9.45663C30.7916 9.73905 31.2662 9.72236 31.5486 9.41935C31.8311 9.11635 31.8144 8.64177 31.5114 8.35935C27.3 4.4341 21.757 2.25146 16 2.25146ZM4.15621 13.1563C7.29742 10.0153 11.5577 8.25073 15.9999 8.25073C20.442 8.25073 24.7023 10.0153 27.8435 13.1563C28.1364 13.4492 28.1364 13.9241 27.8435 14.217C27.5507 14.5099 27.0758 14.5099 26.7829 14.217C23.923 11.3573 20.0442 9.75073 15.9999 9.75073C11.9555 9.75073 8.07674 11.3573 5.21684 14.217C4.92394 14.5099 4.44906 14.5099 4.15618 14.217C3.8633 13.9241 3.86331 13.4492 4.15621 13.1563ZM15.9965 14.2508C13.1456 14.2508 10.4115 15.3832 8.39548 17.399C8.10257 17.6918 8.10255 18.1667 8.39542 18.4596C8.6883 18.7525 9.16317 18.7526 9.45608 18.4597C11.1908 16.7252 13.5434 15.7508 15.9965 15.7508C18.4495 15.7508 20.8021 16.7252 22.5368 18.4597C22.8297 18.7526 23.3046 18.7525 23.5975 18.4596C23.8904 18.1667 23.8903 17.6918 23.5974 17.399C21.5814 15.3832 18.8473 14.2508 15.9965 14.2508ZM12.75 25C12.75 23.2051 14.2051 21.75 16 21.75C17.7949 21.75 19.25 23.2051 19.25 25C19.25 26.7949 17.7949 28.25 16 28.25C14.2051 28.25 12.75 26.7949 12.75 25ZM16 20.25C13.3766 20.25 11.25 22.3766 11.25 25C11.25 27.6234 13.3766 29.75 16 29.75C18.6234 29.75 20.75 27.6234 20.75 25C20.75 22.3766 18.6234 20.25 16 20.25Z" fill="#767676"/>
</svg>
