<svg width="32" height="32" viewBox="0 0 32 32" fill="none" xmlns="http://www.w3.org/2000/svg">
<path d="M16 29C18.2091 29 20 27.2091 20 25C20 22.7909 18.2091 21 16 21C13.7909 21 12 22.7909 12 25C12 27.2091 13.7909 29 16 29Z" stroke="#474445" stroke-width="1.5" stroke-linecap="round" stroke-linejoin="round"/>
<path d="M23.0671 17.9293C21.1918 16.0542 18.6484 15.0008 15.9964 15.0008C13.3445 15.0008 10.8011 16.0542 8.92578 17.9293" stroke="#474445" stroke-width="1.5" stroke-linecap="round" stroke-linejoin="round"/>
<path d="M27.3132 13.6866C24.3126 10.6863 20.2431 9.00073 15.9999 9.00073C11.7566 9.00073 7.68707 10.6863 4.68652 13.6866" stroke="#474445" stroke-width="1.5" stroke-linecap="round" stroke-linejoin="round"/>
<path d="M31 8.90799C26.9274 5.11215 21.5672 3.00146 16 3.00146C10.4328 3.00146 5.07255 5.11215 1 8.90799" stroke="#474445" stroke-width="1.5" stroke-linecap="round" stroke-linejoin="round"/>
</svg>
