<svg width="32" height="32" viewBox="0 0 32 32" fill="none" xmlns="http://www.w3.org/2000/svg">
<path d="M9.83181 1.44535C9.74049 1.30839 9.61677 1.19609 9.47163 1.11843C9.32649 1.04076 9.16442 1.00012 8.99981 1.00012C8.8352 1.00012 8.67313 1.04076 8.52799 1.11843C8.38285 1.19609 8.25913 1.30839 8.16781 1.44535L2.99981 10H5.99981L2.13314 15.504C2.04634 15.656 2.00094 15.8281 2.00147 16.0031C2.002 16.1781 2.04845 16.3499 2.13618 16.5013C2.22391 16.6527 2.34984 16.7785 2.50139 16.866C2.65294 16.9535 2.8248 16.9997 2.99981 17H14.9998C15.1749 17 15.347 16.9539 15.4987 16.8665C15.6504 16.7791 15.7766 16.6533 15.8644 16.5019C15.9523 16.3504 15.9989 16.1785 15.9995 16.0034C16.0001 15.8283 15.9547 15.6561 15.8678 15.504L11.9998 10H14.9998L9.83181 1.44535Z" stroke="#474445" stroke-width="1.5" stroke-linecap="round" stroke-linejoin="round"/>
<path d="M9 17V23.1093" stroke="#474445" stroke-width="1.5" stroke-linecap="round" stroke-linejoin="round"/>
<path d="M25.6827 1.36398C25.6079 1.25205 25.5066 1.16029 25.3879 1.09684C25.2692 1.03338 25.1366 1.00018 25.002 1.00018C24.8674 1.00018 24.7348 1.03338 24.6161 1.09684C24.4974 1.16029 24.3961 1.25205 24.3213 1.36398L20.092 7.99998H22.5467L19.1093 12.776C19.038 12.9004 19.0006 13.0414 19.001 13.1848C19.0014 13.3282 19.0395 13.469 19.1115 13.593C19.1835 13.7171 19.2869 13.82 19.4112 13.8914C19.5356 13.9628 19.6766 14.0003 19.82 14H30.18C30.3234 14.0003 30.4644 13.9628 30.5887 13.8914C30.7131 13.82 30.8165 13.7171 30.8885 13.593C30.9605 13.469 30.9986 13.3282 30.999 13.1848C30.9994 13.0414 30.962 12.9004 30.8907 12.776L27.456 7.99998H29.9107L25.6827 1.36398Z" stroke="#474445" stroke-width="1.5" stroke-linecap="round" stroke-linejoin="round"/>
<path d="M25.0015 14V19.38" stroke="#474445" stroke-width="1.5" stroke-linecap="round" stroke-linejoin="round"/>
<path d="M1.07324 24C4.84067 22.6908 8.93596 22.6683 12.7176 23.936C16.4992 25.2037 19.7534 27.69 21.9706 31.0054" stroke="#474445" stroke-width="1.5" stroke-linecap="round" stroke-linejoin="round"/>
<path d="M14.6255 24.6907C18.5154 21.0291 23.658 18.9932 29.0002 19C29.6748 19 30.3415 19.0311 31.0002 19.0933" stroke="#474445" stroke-width="1.5" stroke-linecap="round" stroke-linejoin="round"/>
</svg>
