<svg width="32" height="32" viewBox="0 0 32 32" fill="none" xmlns="http://www.w3.org/2000/svg">
<g clip-path="url(#clip0_964_4)">
<path d="M9.83181 1.44535L10.4738 1.05753C10.468 1.04798 10.462 1.03855 10.4558 1.02926L9.83181 1.44535ZM8.16781 1.44535L7.54381 1.02926C7.53762 1.03855 7.53163 1.04798 7.52586 1.05753L8.16781 1.44535ZM2.99981 10L2.35786 9.6122C2.21793 9.84382 2.21363 10.1329 2.3466 10.3686C2.47958 10.6042 2.7292 10.75 2.99981 10.75V10ZM5.99981 10L6.61351 10.4311C6.7744 10.2021 6.79438 9.90258 6.66534 9.65422C6.53629 9.40586 6.27969 9.25001 5.99981 9.25001V10ZM2.13314 15.504L1.51945 15.0729C1.50602 15.092 1.49349 15.1117 1.4819 15.132L2.13314 15.504ZM2.99981 17L2.99857 17.75H2.99981V17ZM14.9998 17V17.75H15.0001L14.9998 17ZM15.8678 15.504L16.5191 15.132C16.5074 15.1117 16.4949 15.0919 16.4814 15.0728L15.8678 15.504ZM11.9998 10V9.25001C11.7199 9.25001 11.4633 9.40588 11.3343 9.65427C11.2052 9.90266 11.2252 10.2022 11.3862 10.4312L11.9998 10ZM14.9998 10V10.75C15.2704 10.75 15.52 10.6042 15.653 10.3686C15.786 10.1329 15.7817 9.84382 15.6418 9.6122L14.9998 10ZM10.4558 1.02926C10.296 0.789589 10.0795 0.593072 9.82549 0.457154L9.11777 1.7797C9.15405 1.79911 9.18498 1.82719 9.20781 1.86143L10.4558 1.02926ZM9.82549 0.457154C9.5715 0.321236 9.28788 0.250122 8.99981 0.250122V1.75012C9.04096 1.75012 9.08148 1.76028 9.11777 1.7797L9.82549 0.457154ZM8.99981 0.250122C8.71174 0.250122 8.42812 0.321236 8.17413 0.457154L8.88186 1.7797C8.91814 1.76028 8.95866 1.75012 8.99981 1.75012V0.250122ZM8.17413 0.457154C7.92014 0.593071 7.70363 0.789588 7.54381 1.02926L8.79181 1.86143C8.81464 1.82719 8.84557 1.79912 8.88186 1.7797L8.17413 0.457154ZM7.52586 1.05753L2.35786 9.6122L3.64176 10.3878L8.80976 1.83316L7.52586 1.05753ZM2.99981 10.75H5.99981V9.25001H2.99981V10.75ZM5.38611 9.56888L1.51945 15.0729L2.74684 15.9351L6.61351 10.4311L5.38611 9.56888ZM1.4819 15.132C1.33 15.3979 1.25054 15.6991 1.25147 16.0053L2.75147 16.0008C2.75133 15.957 2.76268 15.914 2.78438 15.876L1.4819 15.132ZM1.25147 16.0053C1.25241 16.3116 1.33369 16.6122 1.48722 16.8773L2.78514 16.1253C2.76321 16.0875 2.7516 16.0445 2.75147 16.0008L1.25147 16.0053ZM1.48722 16.8773C1.64074 17.1423 1.86112 17.3623 2.12633 17.5155L2.87645 16.2165C2.83856 16.1946 2.80707 16.1632 2.78514 16.1253L1.48722 16.8773ZM2.12633 17.5155C2.39154 17.6686 2.69231 17.7495 2.99857 17.75L3.00105 16.25C2.9573 16.2499 2.91433 16.2384 2.87645 16.2165L2.12633 17.5155ZM2.99981 17.75H14.9998V16.25H2.99981V17.75ZM15.0001 17.75C15.3065 17.7499 15.6076 17.6693 15.8731 17.5164L15.1243 16.2166C15.0864 16.2385 15.0434 16.25 14.9996 16.25L15.0001 17.75ZM15.8731 17.5164C16.1386 17.3634 16.3594 17.1433 16.5132 16.8783L15.2157 16.1255C15.1938 16.1633 15.1622 16.1948 15.1243 16.2166L15.8731 17.5164ZM16.5132 16.8783C16.6669 16.6132 16.7484 16.3124 16.7495 16.0059L15.2495 16.0009C15.2493 16.0446 15.2377 16.0876 15.2157 16.1255L16.5132 16.8783ZM16.7495 16.0059C16.7505 15.6995 16.6711 15.3981 16.5191 15.132L15.2166 15.876C15.2383 15.914 15.2496 15.9571 15.2495 16.0009L16.7495 16.0059ZM16.4814 15.0728L12.6134 9.56878L11.3862 10.4312L15.2542 15.9352L16.4814 15.0728ZM11.9998 10.75H14.9998V9.25001H11.9998V10.75ZM15.6418 9.6122L10.4738 1.05753L9.18986 1.83316L14.3579 10.3878L15.6418 9.6122Z" fill="#767676"/>
<path d="M9.75 17C9.75 16.5858 9.41421 16.25 9 16.25C8.58579 16.25 8.25 16.5858 8.25 17H9.75ZM8.25 23.1093C8.25 23.5235 8.58579 23.8593 9 23.8593C9.41421 23.8593 9.75 23.5235 9.75 23.1093H8.25ZM8.25 17V23.1093H9.75V17H8.25Z" fill="#767676"/>
<path d="M25.6827 1.36398L26.3152 0.960976C26.3123 0.956372 26.3093 0.951799 26.3062 0.94726L25.6827 1.36398ZM25.002 1.00018V1.75018V1.00018ZM24.3213 1.36398L23.6978 0.94726C23.6947 0.95177 23.6918 0.956312 23.6889 0.960886L24.3213 1.36398ZM20.092 7.99998L19.4595 7.59689C19.3124 7.8278 19.3027 8.12057 19.4344 8.36066C19.5661 8.60074 19.8182 8.74998 20.092 8.74998V7.99998ZM22.5467 7.99998L23.1554 8.43809C23.3198 8.20967 23.3425 7.90845 23.2142 7.65799C23.0858 7.40752 22.8281 7.24998 22.5467 7.24998V7.99998ZM19.1093 12.776L18.5006 12.3379C18.4855 12.3588 18.4716 12.3805 18.4588 12.4028L19.1093 12.776ZM19.82 14V13.25L19.8184 13.25L19.82 14ZM30.18 14L30.1815 13.25H30.18V14ZM30.8907 12.776L31.5412 12.4028C31.5285 12.3805 31.5145 12.3589 31.4996 12.3381L30.8907 12.776ZM27.456 7.99998V7.24998C27.1746 7.24998 26.9169 7.40747 26.7886 7.65787C26.6602 7.90826 26.6828 8.20943 26.8471 8.43787L27.456 7.99998ZM29.9107 7.99998V8.74998C30.1845 8.74998 30.4365 8.60077 30.5682 8.36071C30.6999 8.12065 30.6903 7.8279 30.5432 7.59698L29.9107 7.99998ZM26.3062 0.94726C26.1629 0.732796 25.9689 0.556978 25.7414 0.435385L25.0344 1.75829C25.0443 1.76361 25.0528 1.7713 25.0591 1.7807L26.3062 0.94726ZM25.7414 0.435385C25.5139 0.313794 25.2599 0.250183 25.002 0.250183V1.75018C25.0133 1.75018 25.0244 1.75297 25.0344 1.75829L25.7414 0.435385ZM25.002 0.250183C24.744 0.250183 24.4901 0.313795 24.2626 0.435385L24.9696 1.75829C24.9796 1.75297 24.9907 1.75018 25.002 1.75018V0.250183ZM24.2626 0.435385C24.0351 0.556976 23.8411 0.732791 23.6978 0.94726L24.9449 1.7807C24.9512 1.77131 24.9597 1.76361 24.9696 1.75829L24.2626 0.435385ZM23.6889 0.960886L19.4595 7.59689L20.7245 8.40307L24.9538 1.76707L23.6889 0.960886ZM20.092 8.74998H22.5467V7.24998H20.092V8.74998ZM21.9379 7.56187L18.5006 12.3379L19.7181 13.2141L23.1554 8.43809L21.9379 7.56187ZM18.4588 12.4028C18.3219 12.6414 18.2503 12.9117 18.251 13.1868L19.751 13.1828C19.7509 13.171 19.754 13.1594 19.7599 13.1491L18.4588 12.4028ZM18.251 13.1868C18.2517 13.4618 18.3248 13.7318 18.4629 13.9696L19.7601 13.2165C19.7541 13.2062 19.751 13.1946 19.751 13.1828L18.251 13.1868ZM18.4629 13.9696C18.601 14.2075 18.7992 14.4048 19.0377 14.5418L19.7848 13.241C19.7745 13.2352 19.766 13.2267 19.7601 13.2165L18.4629 13.9696ZM19.0377 14.5418C19.2762 14.6787 19.5465 14.7505 19.8215 14.75L19.8184 13.25C19.8066 13.25 19.795 13.2469 19.7848 13.241L19.0377 14.5418ZM19.82 14.75H30.18V13.25H19.82V14.75ZM30.1784 14.75C30.4535 14.7505 30.7238 14.6787 30.9623 14.5418L30.2152 13.241C30.205 13.2469 30.1934 13.25 30.1815 13.25L30.1784 14.75ZM30.9623 14.5418C31.2008 14.4048 31.399 14.2075 31.5371 13.9696L30.2399 13.2165C30.234 13.2267 30.2255 13.2352 30.2152 13.241L30.9623 14.5418ZM31.5371 13.9696C31.6752 13.7318 31.7483 13.4618 31.749 13.1868L30.249 13.1828C30.249 13.1946 30.2458 13.2062 30.2399 13.2165L31.5371 13.9696ZM31.749 13.1868C31.7497 12.9117 31.6781 12.6414 31.5412 12.4028L30.2401 13.1491C30.246 13.1594 30.249 13.171 30.249 13.1828L31.749 13.1868ZM31.4996 12.3381L28.0649 7.56209L26.8471 8.43787L30.2818 13.2139L31.4996 12.3381ZM27.456 8.74998H29.9107V7.24998H27.456V8.74998ZM30.5432 7.59698L26.3152 0.960976L25.0501 1.76698L29.2781 8.40298L30.5432 7.59698Z" fill="#767676"/>
<path d="M25.751 14C25.751 13.5858 25.4152 13.25 25.001 13.25C24.5868 13.25 24.251 13.5858 24.251 14H25.751ZM24.251 19.38C24.251 19.7942 24.5868 20.13 25.001 20.13C25.4152 20.13 25.751 19.7942 25.751 19.38H24.251ZM24.251 14V19.38H25.751V14H24.251Z" fill="#767676"/>
<path d="M0.827054 23.2916C0.435792 23.4275 0.228833 23.855 0.364799 24.2462C0.500765 24.6375 0.928168 24.8444 1.31943 24.7085L0.827054 23.2916ZM12.7176 23.936L12.4792 24.6471L12.7176 23.936ZM21.32 31.3818C21.5512 31.7255 22.0173 31.8166 22.3609 31.5854C22.7046 31.3542 22.7957 30.8881 22.5645 30.5445L21.32 31.3818ZM1.31943 24.7085C4.93008 23.4537 8.85495 23.4322 12.4792 24.6471L12.9559 23.2249C9.01697 21.9044 4.75126 21.9279 0.827054 23.2916L1.31943 24.7085ZM12.4792 24.6471C16.088 25.8569 19.1957 28.2246 21.32 31.3818L22.5645 30.5445C20.2558 27.1131 16.8782 24.5397 12.9559 23.2249L12.4792 24.6471Z" fill="#767676"/>
<path d="M29.0001 19L28.9991 19.75H29.0001V19ZM30.9295 19.84C31.3419 19.879 31.7078 19.5763 31.7467 19.1639C31.7857 18.7515 31.483 18.3856 31.0706 18.3467L30.9295 19.84ZM14.1878 24.0729C13.8848 24.3554 13.8682 24.83 14.1506 25.1329C14.4331 25.4359 14.9077 25.4526 15.2106 25.1701L14.1878 24.0729ZM29.0001 19.75C29.6516 19.75 30.2948 19.7801 30.9295 19.84L31.0706 18.3467C30.388 18.2822 29.6978 18.25 29.0001 18.25V19.75ZM15.2106 25.1701C18.9526 21.6817 23.8809 19.7435 28.9991 19.75L29.001 18.25C23.5024 18.243 18.2079 20.3252 14.1878 24.0729L15.2106 25.1701Z" fill="#767676"/>
</g>
<defs>
<clipPath id="clip0_964_4">
<rect width="32" height="32" fill="white"/>
</clipPath>
</defs>
</svg>
