<svg width="32" height="32" viewBox="0 0 32 32" fill="none" xmlns="http://www.w3.org/2000/svg">
<path d="M8.99983 17V23.1093M25.0011 14V19.38M1.07324 24C4.84067 22.6908 8.93596 22.6683 12.7176 23.936C16.4992 25.2037 19.7534 27.69 21.9706 31.0053M14.6252 24.6907C18.5151 21.0291 23.6577 18.9932 28.9998 19C29.6745 19 30.3412 19.0311 30.9998 19.0933M9.8318 1.44535C9.74048 1.30839 9.61676 1.19609 9.47162 1.11843C9.32648 1.04076 9.16441 1.00012 8.9998 1.00012C8.83519 1.00012 8.67312 1.04076 8.52798 1.11843C8.38285 1.19609 8.25912 1.30839 8.1678 1.44535L2.9998 10H5.9998L2.13313 15.504C2.04633 15.656 2.00093 15.8281 2.00146 16.0031C2.00199 16.1781 2.04844 16.3499 2.13617 16.5013C2.2239 16.6527 2.34983 16.7785 2.50138 16.866C2.65293 16.9535 2.8248 16.9997 2.9998 17H14.9998C15.1749 17 15.347 16.9539 15.4987 16.8665C15.6504 16.7791 15.7765 16.6533 15.8644 16.5019C15.9523 16.3504 15.9989 16.1785 15.9995 16.0034C16.0001 15.8283 15.9547 15.6561 15.8678 15.504L11.9998 10H14.9998L9.8318 1.44535ZM25.6825 1.364C25.6077 1.25207 25.5064 1.16031 25.3877 1.09686C25.269 1.0334 25.1364 1.0002 25.0018 1.0002C24.8672 1.0002 24.7347 1.0334 24.6159 1.09686C24.4972 1.16031 24.396 1.25207 24.3212 1.364L20.0918 8H22.5465L19.1092 12.776C19.0378 12.9004 19.0004 13.0414 19.0008 13.1848C19.0012 13.3282 19.0393 13.469 19.1113 13.5931C19.1833 13.7171 19.2867 13.82 19.4111 13.8914C19.5354 13.9628 19.6764 14.0003 19.8198 14H30.1798C30.3232 14.0003 30.4642 13.9628 30.5886 13.8914C30.7129 13.82 30.8163 13.7171 30.8883 13.5931C30.9604 13.469 30.9985 13.3282 30.9988 13.1848C30.9992 13.0414 30.9618 12.9004 30.8905 12.776L27.4558 8H29.9105L25.6825 1.364Z" stroke="#767676" stroke-width="1.5" stroke-linecap="round" stroke-linejoin="round"/>
</svg>
