<svg width="24" height="24" viewBox="0 0 24 24" fill="none" xmlns="http://www.w3.org/2000/svg">
<g clip-path="url(#clip0)">
<path d="M21.75 3.75H2.25C1.42157 3.75 0.75 4.42157 0.75 5.25V21.75C0.75 22.5784 1.42157 23.25 2.25 23.25H21.75C22.5784 23.25 23.25 22.5784 23.25 21.75V5.25C23.25 4.42157 22.5784 3.75 21.75 3.75Z" stroke="black" stroke-width="1.5" stroke-linecap="round" stroke-linejoin="round"/>
<path d="M0.75 9.75H23.25" stroke="black" stroke-width="1.5" stroke-linecap="round" stroke-linejoin="round"/>
<path d="M6.75 5V0.75" stroke="black" stroke-width="1.5" stroke-linecap="round" stroke-linejoin="round"/>
<path d="M17.25 5V0.75" stroke="black" stroke-width="1.5" stroke-linecap="round" stroke-linejoin="round"/>
<path fill-rule="evenodd" clip-rule="evenodd" d="M4.44443 18.1685C4.60888 18.0586 4.80222 18 5 18C5.26521 18 5.51957 18.1054 5.70711 18.2929C5.89464 18.4804 6 18.7348 6 19C6 19.1978 5.94135 19.3911 5.83147 19.5556C5.72159 19.72 5.5654 19.8482 5.38268 19.9239C5.19996 19.9996 4.99889 20.0194 4.80491 19.9808C4.61093 19.9422 4.43275 19.847 4.29289 19.7071C4.15304 19.5672 4.0578 19.3891 4.01922 19.1951C3.98063 19.0011 4.00043 18.8 4.07612 18.6173C4.15181 18.4346 4.27998 18.2784 4.44443 18.1685Z" fill="black"/>
<path fill-rule="evenodd" clip-rule="evenodd" d="M4.44443 13.1685C4.60888 13.0586 4.80222 13 5 13C5.26521 13 5.51957 13.1054 5.70711 13.2929C5.89464 13.4804 6 13.7348 6 14C6 14.1978 5.94135 14.3911 5.83147 14.5556C5.72159 14.72 5.5654 14.8482 5.38268 14.9239C5.19996 14.9996 4.99889 15.0194 4.80491 14.9808C4.61093 14.9422 4.43275 14.847 4.29289 14.7071C4.15304 14.5672 4.0578 14.3891 4.01922 14.1951C3.98063 14.0011 4.00043 13.8 4.07612 13.6173C4.15181 13.4346 4.27998 13.2784 4.44443 13.1685Z" fill="black"/>
<path fill-rule="evenodd" clip-rule="evenodd" d="M11.4444 18.1685C11.6089 18.0586 11.8022 18 12 18C12.2652 18 12.5196 18.1054 12.7071 18.2929C12.8946 18.4804 13 18.7348 13 19C13 19.1978 12.9414 19.3911 12.8315 19.5556C12.7216 19.72 12.5654 19.8482 12.3827 19.9239C12.2 19.9996 11.9989 20.0194 11.8049 19.9808C11.6109 19.9422 11.4327 19.847 11.2929 19.7071C11.153 19.5672 11.0578 19.3891 11.0192 19.1951C10.9806 19.0011 11.0004 18.8 11.0761 18.6173C11.1518 18.4346 11.28 18.2784 11.4444 18.1685Z" fill="black"/>
<path fill-rule="evenodd" clip-rule="evenodd" d="M11.4444 13.1685C11.6089 13.0586 11.8022 13 12 13C12.2652 13 12.5196 13.1054 12.7071 13.2929C12.8946 13.4804 13 13.7348 13 14C13 14.1978 12.9414 14.3911 12.8315 14.5556C12.7216 14.72 12.5654 14.8482 12.3827 14.9239C12.2 14.9996 11.9989 15.0194 11.8049 14.9808C11.6109 14.9422 11.4327 14.847 11.2929 14.7071C11.153 14.5672 11.0578 14.3891 11.0192 14.1951C10.9806 14.0011 11.0004 13.8 11.0761 13.6173C11.1518 13.4346 11.28 13.2784 11.4444 13.1685Z" fill="black"/>
<path fill-rule="evenodd" clip-rule="evenodd" d="M18.4444 18.1685C18.6089 18.0586 18.8022 18 19 18C19.2652 18 19.5196 18.1054 19.7071 18.2929C19.8946 18.4804 20 18.7348 20 19C20 19.1978 19.9414 19.3911 19.8315 19.5556C19.7216 19.72 19.5654 19.8482 19.3827 19.9239C19.2 19.9996 18.9989 20.0194 18.8049 19.9808C18.6109 19.9422 18.4327 19.847 18.2929 19.7071C18.153 19.5672 18.0578 19.3891 18.0192 19.1951C17.9806 19.0011 18.0004 18.8 18.0761 18.6173C18.1518 18.4346 18.28 18.2784 18.4444 18.1685Z" fill="black"/>
<path fill-rule="evenodd" clip-rule="evenodd" d="M18.4444 13.1685C18.6089 13.0586 18.8022 13 19 13C19.2652 13 19.5196 13.1054 19.7071 13.2929C19.8946 13.4804 20 13.7348 20 14C20 14.1978 19.9414 14.3911 19.8315 14.5556C19.7216 14.72 19.5654 14.8482 19.3827 14.9239C19.2 14.9996 18.9989 15.0194 18.8049 14.9808C18.6109 14.9422 18.4327 14.847 18.2929 14.7071C18.153 14.5672 18.0578 14.3891 18.0192 14.1951C17.9806 14.0011 18.0004 13.8 18.0761 13.6173C18.1518 13.4346 18.28 13.2784 18.4444 13.1685Z" fill="black"/>
</g>
<defs>
<clipPath id="clip0">
<rect width="24" height="24" fill="white"/>
</clipPath>
</defs>
</svg>
