<svg width="24" height="24" viewBox="0 0 24 24" fill="none" xmlns="http://www.w3.org/2000/svg">
<path d="M21.75 19.25C22.1478 19.25 22.5294 19.092 22.8107 18.8107C23.092 18.5294 23.25 18.1478 23.25 17.75V13.25C23.2499 12.7703 23.0593 12.3102 22.72 11.971L20.25 9.5H3.75L1.28 11.97C1.11189 12.1381 0.978554 12.3376 0.887613 12.5573C0.796672 12.7769 0.74991 13.0123 0.75 13.25V17.75C0.75 18.1478 0.908035 18.5294 1.18934 18.8107C1.47064 19.092 1.85218 19.25 2.25 19.25H21.75Z" stroke="black" stroke-width="1.5" stroke-linecap="round" stroke-linejoin="round"/>
<path d="M4 9L5.473 2.9C5.62852 2.48827 5.90582 2.13372 6.26797 1.88359C6.63011 1.63347 7.05988 1.49966 7.5 1.5H16.5C16.9401 1.4998 17.3698 1.63367 17.7319 1.88377C18.094 2.13388 18.3714 2.48835 18.527 2.9L20 9" stroke="black" stroke-width="1.5" stroke-linecap="round" stroke-linejoin="round"/>
<path d="M3.75 9.50101L2.25 8.00101H0.75" stroke="black" stroke-width="1.5" stroke-linecap="round" stroke-linejoin="round"/>
<path d="M20.25 9.50101L21.75 8.00101H23.25" stroke="black" stroke-width="1.5" stroke-linecap="round" stroke-linejoin="round"/>
<path d="M2.25 19.25V20.75C2.25 21.1478 2.40804 21.5294 2.68934 21.8107C2.97064 22.092 3.35218 22.25 3.75 22.25C4.14782 22.25 4.52936 22.092 4.81066 21.8107C5.09196 21.5294 5.25 21.1478 5.25 20.75V19.25H2.25Z" stroke="black" stroke-width="1.5" stroke-linecap="round" stroke-linejoin="round"/>
<path d="M21.75 19.25V20.75C21.75 21.1478 21.592 21.5294 21.3107 21.8107C21.0294 22.092 20.6478 22.25 20.25 22.25C19.8522 22.25 19.4706 22.092 19.1893 21.8107C18.908 21.5294 18.75 21.1478 18.75 20.75V19.25H21.75Z" stroke="black" stroke-width="1.5" stroke-linecap="round" stroke-linejoin="round"/>
<path d="M23.0871 12.5H18.7501L16.9371 15.522C16.8038 15.744 16.6153 15.9278 16.39 16.0554C16.1646 16.1829 15.91 16.25 15.6511 16.25H8.35009C8.09069 16.2502 7.83566 16.1832 7.60992 16.0554C7.38417 15.9276 7.19542 15.7435 7.06209 15.521L5.25009 12.5H0.913086" stroke="black" stroke-width="1.5" stroke-linecap="round" stroke-linejoin="round"/>
<path d="M16.937 15.5H23.25" stroke="black" stroke-width="1.5" stroke-linecap="round" stroke-linejoin="round"/>
<path d="M7.063 15.5H0.75" stroke="black" stroke-width="1.5" stroke-linecap="round" stroke-linejoin="round"/>
</svg>
