<svg width="24" height="24" viewBox="0 0 24 24" fill="none" xmlns="http://www.w3.org/2000/svg">
<path d="M21.75 18.75H11.25L5.25 23.25V18.75H2.25C1.85218 18.75 1.47064 18.592 1.18934 18.3107C0.908035 18.0294 0.75 17.6478 0.75 17.25V2.25C0.75 1.85218 0.908035 1.47064 1.18934 1.18934C1.47064 0.908035 1.85218 0.75 2.25 0.75H21.75C22.1478 0.75 22.5294 0.908035 22.8107 1.18934C23.092 1.47064 23.25 1.85218 23.25 2.25V17.25C23.25 17.6478 23.092 18.0294 22.8107 18.3107C22.5294 18.592 22.1478 18.75 21.75 18.75Z" stroke="black" stroke-width="1.5" stroke-linecap="round" stroke-linejoin="round"/>
<path d="M9.63309 7.25C9.4489 6.87507 9.16333 6.55927 8.80876 6.33841C8.45419 6.11756 8.04482 6.00049 7.62709 6.00049C7.20937 6.00049 6.8 6.11756 6.44543 6.33841C6.09086 6.55927 5.80528 6.87507 5.62109 7.25" stroke="black" stroke-width="1.5" stroke-linecap="round" stroke-linejoin="round"/>
<path d="M18.627 7.25C18.4428 6.87507 18.1572 6.55927 17.8027 6.33841C17.4481 6.11756 17.0387 6.00049 16.621 6.00049C16.2033 6.00049 15.7939 6.11756 15.4393 6.33841C15.0848 6.55927 14.7992 6.87507 14.615 7.25" stroke="black" stroke-width="1.5" stroke-linecap="round" stroke-linejoin="round"/>
<path d="M8.25195 12.75C9.31054 13.7152 10.6914 14.2502 12.124 14.2502C13.5565 14.2502 14.9374 13.7152 15.996 12.75" stroke="black" stroke-width="1.5" stroke-linecap="round" stroke-linejoin="round"/>
</svg>
