<svg width="24" height="24" viewBox="0 0 24 24" fill="none" xmlns="http://www.w3.org/2000/svg">
<g clip-path="url(#clip0)">
<path fill-rule="evenodd" clip-rule="evenodd" d="M12.746 0.747009C12.746 0.332796 12.4102 -0.00299072 11.996 -0.00299072C11.5818 -0.00299072 11.246 0.332796 11.246 0.747009V2.99701H7.496C7.29709 2.99701 7.10632 3.07603 6.96567 3.21668L4.71567 5.46668C4.57502 5.60733 4.496 5.7981 4.496 5.99701C4.496 6.19592 4.57502 6.38669 4.71567 6.52734L6.96567 8.77734C7.10632 8.91799 7.29709 8.99701 7.496 8.99701H11.246V11.2704C8.3371 11.4525 5.58373 12.6887 3.51072 14.7617C1.84236 16.4301 0.715991 18.5391 0.24493 20.8152C0.239236 20.8377 0.234557 20.8606 0.230944 20.8838C0.0757833 21.6562 -0.00400162 22.4475 -0.00400162 23.247C-0.00400162 23.6612 0.331785 23.997 0.745998 23.997C1.16021 23.997 1.496 23.6612 1.496 23.247C1.496 22.7431 1.53222 22.2429 1.60322 21.75H6.32517C6.49226 21.75 6.65459 21.8057 6.78638 21.9084C6.91818 22.0112 7.0119 22.155 7.05267 22.317L7.33055 23.4245C7.43135 23.8263 7.83876 24.0703 8.24052 23.9695C8.64228 23.8687 8.88625 23.4612 8.78545 23.0595L8.50733 21.951C8.38502 21.4649 8.10386 21.0335 7.70848 20.7253C7.31314 20.4172 6.82623 20.2499 6.325 20.25H1.93278C2.42641 18.5927 3.32644 17.0673 4.57138 15.8224C6.54051 13.8533 9.21123 12.747 11.996 12.747C14.7465 12.747 17.3857 13.8262 19.3475 15.75H16.9183C16.4162 15.7499 15.9283 15.9177 15.5326 16.2267C15.1369 16.5356 14.8559 16.9684 14.7343 17.4555L13.9843 20.4555C13.9016 20.7872 13.8955 21.1335 13.9666 21.4679C14.0377 21.8023 14.1841 22.1161 14.3946 22.3855C14.6051 22.6549 14.8743 22.8728 15.1816 23.0226C15.4889 23.1723 15.8265 23.2501 16.1683 23.25H17.1111L17.1323 23.3768C17.2006 23.7853 17.5872 24.0611 17.9958 23.9927C18.4043 23.9244 18.6801 23.5378 18.6117 23.1292L18.4857 22.3762C18.4252 22.0148 18.1124 21.75 17.746 21.75H16.1677C16.0537 21.75 15.9413 21.7241 15.8388 21.6742C15.7364 21.6243 15.6467 21.5516 15.5765 21.4618C15.5063 21.372 15.4575 21.2674 15.4338 21.156C15.4101 21.0446 15.4122 20.929 15.4397 20.8185L16.1897 17.8185C16.2302 17.6561 16.3239 17.5119 16.4558 17.4089C16.5877 17.3059 16.7506 17.2499 16.918 17.25H20.615C21.8312 18.998 22.496 21.0882 22.496 23.247C22.496 23.6612 22.8318 23.997 23.246 23.997C23.6602 23.997 23.996 23.6612 23.996 23.247C23.996 20.0644 22.7317 17.0122 20.4813 14.7617C18.4083 12.6887 15.6549 11.4525 12.746 11.2704V8.99701H17.246C17.6602 8.99701 17.996 8.66122 17.996 8.24701V3.74701C17.996 3.3328 17.6602 2.99701 17.246 2.99701H12.746V0.747009ZM11.996 7.49701H16.496V4.49701H11.996H7.80666L6.30666 5.99701L7.80666 7.49701H11.996Z" fill="black"/>
</g>
<defs>
<clipPath id="clip0">
<rect width="24" height="24" fill="white"/>
</clipPath>
</defs>
</svg>
