<svg width="24" height="24" viewBox="0 0 24 24" fill="none" xmlns="http://www.w3.org/2000/svg">
<path d="M6.75 6.75C7.54565 6.75 8.30871 6.43393 8.87132 5.87132C9.43393 5.30871 9.75 4.54565 9.75 3.75C9.75 2.95435 9.43393 2.19129 8.87132 1.62868C8.30871 1.06607 7.54565 0.75 6.75 0.75H4.5V6.75H6.75Z" stroke="black" stroke-width="1.5" stroke-linecap="round" stroke-linejoin="round"/>
<path d="M4.5 2.25H1.5" stroke="black" stroke-width="1.5" stroke-linecap="round" stroke-linejoin="round"/>
<path d="M4.5 5.25H1.5" stroke="black" stroke-width="1.5" stroke-linecap="round" stroke-linejoin="round"/>
<path d="M9.75 3.75H18C19.1935 3.75 20.3381 4.22411 21.182 5.06802C22.0259 5.91193 22.5 7.05653 22.5 8.25C22.5 9.44347 22.0259 10.5881 21.182 11.432C20.3381 12.2759 19.1935 12.75 18 12.75H6.75C5.75544 12.75 4.80161 13.1451 4.09835 13.8483C3.39509 14.5516 3 15.5054 3 16.5C3 17.4946 3.39509 18.4484 4.09835 19.1517C4.80161 19.8549 5.75544 20.25 6.75 20.25H17.25" stroke="black" stroke-width="1.5" stroke-linecap="round" stroke-linejoin="round"/>
<path d="M14.1 23.25C13.6637 23.2501 13.2325 23.1551 12.8367 22.9715C12.4408 22.7878 12.0898 22.5201 11.8081 22.1869C11.5264 21.8536 11.3207 21.4629 11.2055 21.0421C11.0903 20.6212 11.0683 20.1803 11.141 19.75C11.2846 19.0332 11.676 18.3898 12.2465 17.9327C12.8169 17.4756 13.5302 17.2339 14.261 17.25H16.783C17.9679 17.2499 19.1262 17.6007 20.112 18.258L22.164 19.626C22.2667 19.6945 22.351 19.7873 22.4092 19.8961C22.4675 20.005 22.4979 20.1265 22.4979 20.25C22.4979 20.3735 22.4675 20.495 22.4092 20.6039C22.351 20.7127 22.2667 20.8055 22.164 20.874L20.112 22.242C19.1262 22.8993 17.9679 23.2501 16.783 23.25H14.1Z" stroke="black" stroke-width="1.5" stroke-linecap="round" stroke-linejoin="round"/>
</svg>
