<svg width="24" height="24" viewBox="0 0 24 24" fill="none" xmlns="http://www.w3.org/2000/svg">
<path d="M9 17.25C13.5563 17.25 17.25 13.5563 17.25 9C17.25 4.44365 13.5563 0.75 9 0.75C4.44365 0.75 0.75 4.44365 0.75 9C0.75 13.5563 4.44365 17.25 9 17.25Z" stroke="black" stroke-width="1.5" stroke-linecap="round" stroke-linejoin="round"/>
<path d="M9 12.75C11.0711 12.75 12.75 11.0711 12.75 9C12.75 6.92893 11.0711 5.25 9 5.25C6.92893 5.25 5.25 6.92893 5.25 9C5.25 11.0711 6.92893 12.75 9 12.75Z" stroke="black" stroke-width="1.5" stroke-linecap="round" stroke-linejoin="round"/>
<path d="M8.63 20.243C9.36133 21.1311 10.2703 21.8563 11.2985 22.3723C12.3268 22.8882 13.4516 23.1834 14.6006 23.2389C15.7497 23.2944 16.8977 23.1089 17.9709 22.6944C19.044 22.2799 20.0186 21.6456 20.8321 20.8321C21.6456 20.0186 22.2799 19.044 22.6944 17.9709C23.1089 16.8977 23.2944 15.7497 23.2389 14.6006C23.1834 13.4516 22.8882 12.3268 22.3723 11.2985C21.8563 10.2703 21.1311 9.36133 20.243 8.63" stroke="black" stroke-width="1.5" stroke-linecap="round" stroke-linejoin="round"/>
<path d="M14.645 18.733C14.762 18.744 14.88 18.75 15 18.75C15.9946 18.75 16.9484 18.3549 17.6516 17.6517C18.3549 16.9484 18.75 15.9946 18.75 15C18.75 14.88 18.744 14.762 18.733 14.645" stroke="black" stroke-width="1.5" stroke-linecap="round" stroke-linejoin="round"/>
</svg>
