<svg width="24" height="24" viewBox="0 0 24 24" fill="none" xmlns="http://www.w3.org/2000/svg">
<g clip-path="url(#clip0)">
<path fill-rule="evenodd" clip-rule="evenodd" d="M12.416 0.125962C12.1641 -0.0419874 11.8359 -0.0419874 11.584 0.125962L0.333974 7.62596C-0.0106721 7.85573 -0.103802 8.32138 0.125962 8.66603C0.355726 9.01067 0.821378 9.1038 1.16602 8.87404L12 1.65139L22.834 8.87404C23.1786 9.1038 23.6443 9.01067 23.874 8.66603C24.1038 8.32138 24.0107 7.85573 23.666 7.62596L12.416 0.125962ZM3 12.75C3 12.3358 2.66421 12 2.25 12C1.83579 12 1.5 12.3358 1.5 12.75V14.25V18.75V23.25C1.5 23.6642 1.83579 24 2.25 24H21.75C22.1642 24 22.5 23.6642 22.5 23.25V18.75V17.25C22.5 16.2554 22.1049 15.3016 21.4017 14.5983C20.6984 13.8951 19.7446 13.5 18.75 13.5H14.031C13.0559 13.5 12.1001 13.7716 11.2707 14.2843C10.4414 14.797 9.7711 15.5305 9.33514 16.4027L8.99618 17.0806C8.95402 16.1477 8.56488 15.2616 7.90165 14.5983C7.19839 13.8951 6.24456 13.5 5.25 13.5H3V12.75ZM10.2135 18H21V17.25C21 16.6533 20.7629 16.081 20.341 15.659C19.919 15.2371 19.3467 15 18.75 15H14.031C13.3345 15 12.6518 15.194 12.0594 15.5602C11.467 15.9264 10.9883 16.4504 10.6769 17.0733L10.2135 18ZM9 19.5H8.25H3V22.5H21V19.5H9ZM7.5 17.25V18H3V15H5.25C5.84674 15 6.41903 15.2371 6.84099 15.659C7.26295 16.081 7.5 16.6533 7.5 17.25Z" fill="black"/>
</g>
<defs>
<clipPath id="clip0">
<rect width="24" height="24" fill="white"/>
</clipPath>
</defs>
</svg>
