<svg width="24" height="24" viewBox="0 0 24 24" fill="none" xmlns="http://www.w3.org/2000/svg">
<path d="M0.75 8.25L12 0.75L23.25 8.25" stroke="black" stroke-width="1.5" stroke-linecap="round" stroke-linejoin="round"/>
<path d="M2.25 18.75H21.75V23.25H2.25V12.75" stroke="black" stroke-width="1.5" stroke-linecap="round" stroke-linejoin="round"/>
<path d="M5.25 14.25H2.25V18.75H8.25V17.25C8.25 16.4544 7.93393 15.6913 7.37132 15.1287C6.80871 14.5661 6.04565 14.25 5.25 14.25Z" stroke="black" stroke-width="1.5" stroke-linecap="round" stroke-linejoin="round"/>
<path d="M18.75 14.25H14.031C13.1952 14.25 12.376 14.4828 11.6651 14.9222C10.9542 15.3617 10.3797 15.9904 10.006 16.738L9 18.75H21.75V17.25C21.75 16.4544 21.4339 15.6913 20.8713 15.1287C20.3087 14.5661 19.5456 14.25 18.75 14.25Z" stroke="black" stroke-width="1.5" stroke-linecap="round" stroke-linejoin="round"/>
</svg>
