<svg width="24" height="24" viewBox="0 0 24 24" fill="none" xmlns="http://www.w3.org/2000/svg">
<path d="M11.9398 1.00016C14.3475 0.986994 16.693 1.76413 18.6164 3.21235C20.5399 4.66057 21.9351 6.69986 22.5879 9.01736C23.2408 11.3349 23.1152 13.8025 22.2305 16.0418C21.3458 18.2811 19.7509 20.1683 17.6904 21.4138C15.6299 22.6593 13.2176 23.1944 10.8237 22.9369C8.42985 22.6795 6.18655 21.6437 4.43801 19.9885C2.68948 18.3333 1.53229 16.1501 1.144 13.774C0.755711 11.3978 1.15776 8.95984 2.28847 6.83416M4.78003 2.06L5.84103 1M6.9021 4.182L7.9621 3.121M5.84101 6.303C5.41905 6.72496 4.84675 6.96201 4.25001 6.96201C3.65327 6.96201 3.08097 6.72496 2.65901 6.303C2.23705 5.88104 2 5.30874 2 4.712C2 4.11526 2.23705 3.54296 2.65901 3.121L4.25001 1.53L7.43201 4.712L5.84101 6.303ZM15 13C15 13.7956 14.6839 14.5587 14.1213 15.1213C13.5587 15.6839 12.7956 16 12 16C11.2044 16 10.4413 15.6839 9.87868 15.1213C9.31607 14.5587 9 13.7956 9 13C9 11.343 12 7 12 7C12 7 15 11.343 15 13Z" stroke="black" stroke-width="1.5" stroke-linecap="round" stroke-linejoin="round"/>
</svg>
