<svg width="24" height="24" viewBox="0 0 24 24" fill="none" xmlns="http://www.w3.org/2000/svg">
<g clip-path="url(#clip0)">
<path d="M6.75 17.249L17.25 6.74899" stroke="black" stroke-width="1.5" stroke-linecap="round" stroke-linejoin="round"/>
<path d="M7.73503 12.021C7.10603 11.9848 6.47648 12.0818 5.88761 12.3059C5.29875 12.5299 4.76387 12.8758 4.31803 13.321L2.06803 15.571C1.22411 16.4149 0.75 17.5595 0.75 18.753C0.75 19.344 0.866397 19.9291 1.09254 20.4751C1.31869 21.0211 1.65016 21.5171 2.06803 21.935C2.48589 22.3529 2.98197 22.6843 3.52794 22.9105C4.07391 23.1366 4.65908 23.253 5.25003 23.253C6.44351 23.253 7.58811 22.7789 8.43203 21.935L10.682 19.685C11.1272 19.2392 11.4731 18.7043 11.6972 18.1154C11.9212 17.5266 12.0183 16.897 11.982 16.268" stroke="black" stroke-width="1.5" stroke-linecap="round" stroke-linejoin="round"/>
<path d="M16.265 11.976C16.894 12.0122 17.5235 11.9151 18.1124 11.691C18.7012 11.467 19.2361 11.1211 19.682 10.676L21.932 8.426C22.7759 7.58208 23.25 6.43748 23.25 5.244C23.25 4.05052 22.7759 2.90592 21.932 2.062C21.0881 1.21808 19.9435 0.743973 18.75 0.743973C17.5565 0.743973 16.4119 1.21808 15.568 2.062L13.318 4.312C12.8739 4.75839 12.529 5.29348 12.3058 5.8823C12.0827 6.47111 11.9863 7.10039 12.023 7.729" stroke="black" stroke-width="1.5" stroke-linecap="round" stroke-linejoin="round"/>
</g>
<defs>
<clipPath id="clip0">
<rect width="24" height="24" fill="white"/>
</clipPath>
</defs>
</svg>
