<svg width="24" height="24" viewBox="0 0 24 24" fill="none" xmlns="http://www.w3.org/2000/svg">
<path d="M12.385 15.925C13.4763 15.925 14.361 15.0403 14.361 13.949C14.361 12.8577 13.4763 11.973 12.385 11.973C11.2937 11.973 10.409 12.8577 10.409 13.949C10.409 15.0403 11.2937 15.925 12.385 15.925Z" stroke="black" stroke-width="1.5" stroke-linecap="round" stroke-linejoin="round"/>
<path d="M17.651 6.786C18.6062 7.48759 19.4113 8.37327 20.019 9.39084C20.6266 10.4084 21.0244 11.5373 21.189 12.711" stroke="black" stroke-width="1.5" stroke-linecap="round" stroke-linejoin="round"/>
<path d="M7.11899 6.786C6.16395 7.48776 5.35893 8.37347 4.75133 9.39101C4.14372 10.4086 3.74581 11.5374 3.58099 12.711" stroke="black" stroke-width="1.5" stroke-linecap="round" stroke-linejoin="round"/>
<path d="M16.209 21.976C14.9621 22.5703 13.5937 22.8658 12.2127 22.8389C10.8316 22.8119 9.47583 22.4634 8.25299 21.821" stroke="black" stroke-width="1.5" stroke-linecap="round" stroke-linejoin="round"/>
<path d="M11.713 12.091L10.543 11.091C10.0856 10.6981 9.76215 10.1723 9.61751 9.58698C9.47287 9.00161 9.51429 8.38572 9.736 7.825L12.1 1.872C12.1921 1.61626 12.374 1.40266 12.6117 1.27089C12.8495 1.13913 13.127 1.09816 13.3927 1.1556C13.6584 1.21304 13.8942 1.36498 14.0563 1.58319C14.2184 1.8014 14.2957 2.07104 14.274 2.342L13.5 12.319" stroke="black" stroke-width="1.5" stroke-linecap="round" stroke-linejoin="round"/>
<path d="M11.112 15.46L10.828 16.975C10.7172 17.5684 10.4235 18.1124 9.98814 18.5305C9.55274 18.9487 8.99743 19.2202 8.4 19.307L2.066 20.235C1.79891 20.2818 1.5239 20.2304 1.29175 20.0903C1.0596 19.9502 0.885991 19.7308 0.802988 19.4726C0.719986 19.2145 0.733193 18.935 0.840171 18.6858C0.947149 18.4367 1.14067 18.2346 1.385 18.117L10.412 13.797" stroke="black" stroke-width="1.5" stroke-linecap="round" stroke-linejoin="round"/>
<path d="M14.33 14.3L15.784 13.788C16.3528 13.5874 16.9702 13.5697 17.5496 13.7371C18.1291 13.9046 18.6418 14.2489 19.016 14.722L22.987 19.744C23.1606 19.952 23.2532 20.2157 23.2476 20.4866C23.2421 20.7574 23.1388 21.0172 22.9569 21.2179C22.7749 21.4186 22.5265 21.5468 22.2575 21.5788C21.9885 21.6108 21.7169 21.5444 21.493 21.392L13.238 15.735" stroke="black" stroke-width="1.5" stroke-linecap="round" stroke-linejoin="round"/>
</svg>
