<svg width="24" height="24" viewBox="0 0 24 24" fill="none" xmlns="http://www.w3.org/2000/svg">
<path d="M4.475 10.373L2.25 11.873L0.75 9.64799" stroke="black" stroke-width="1.5" stroke-linecap="round" stroke-linejoin="round"/>
<path d="M2.25098 11.874C2.28233 9.33057 3.23589 6.88499 4.9345 4.99164C6.6331 3.09829 8.96125 1.88592 11.4864 1.57976C14.0115 1.27361 16.5619 1.89449 18.6638 3.32706C20.7656 4.75963 22.276 6.90648 22.9142 9.36872C23.5525 11.831 23.2753 14.4412 22.134 16.7144C20.9928 18.9877 19.0652 20.7693 16.7093 21.7284C14.3534 22.6875 11.7295 22.7588 9.32497 21.929C6.92049 21.0993 4.89896 19.4249 3.63598 17.217" stroke="black" stroke-width="1.5" stroke-linecap="round" stroke-linejoin="round"/>
<path d="M9.5 12.5H16" stroke="black" stroke-width="1.5" stroke-linecap="round" stroke-linejoin="round"/>
<path d="M8 11C8.39782 11 8.77936 11.158 9.06066 11.4393C9.34196 11.7206 9.5 12.1022 9.5 12.5C9.5 12.8978 9.34196 13.2794 9.06066 13.5607C8.77936 13.842 8.39782 14 8 14" stroke="black" stroke-width="1.5" stroke-linecap="round" stroke-linejoin="round"/>
<path d="M17.5 11C17.1022 11 16.7206 11.158 16.4393 11.4393C16.158 11.7206 16 12.1022 16 12.5C16 12.8978 16.158 13.2794 16.4393 13.5607C16.7206 13.842 17.1022 14 17.5 14" stroke="black" stroke-width="1.5" stroke-linecap="round" stroke-linejoin="round"/>
</svg>
