<svg width="24" height="24" viewBox="0 0 24 24" fill="none" xmlns="http://www.w3.org/2000/svg">
<path d="M21.75 5.25H13.5C12.7044 5.25 11.9413 5.56607 11.3787 6.12868C10.8161 6.69129 10.5 7.45435 10.5 8.25V14.5" stroke="black" stroke-width="1.5" stroke-linecap="round" stroke-linejoin="round"/>
<path d="M17.25 9.75L21.75 5.25L17.25 0.75" stroke="black" stroke-width="1.5" stroke-linecap="round" stroke-linejoin="round"/>
<path d="M18.75 14.25V21.75C18.75 22.1478 18.592 22.5294 18.3107 22.8107C18.0294 23.092 17.6478 23.25 17.25 23.25H3.75C3.35218 23.25 2.97064 23.092 2.68934 22.8107C2.40804 22.5294 2.25 22.1478 2.25 21.75V6.75C2.25 6.35218 2.40804 5.97064 2.68934 5.68934C2.97064 5.40804 3.35218 5.25 3.75 5.25H6" stroke="black" stroke-width="1.5" stroke-linecap="round" stroke-linejoin="round"/>
</svg>
