<svg width="24" height="24" viewBox="0 0 24 24" fill="none" xmlns="http://www.w3.org/2000/svg">
<g clip-path="url(#clip0)">
<path d="M22.7319 10.112L23.0099 9.837C23.1192 9.72871 23.1951 9.59137 23.2288 9.44125C23.2624 9.29114 23.2523 9.13452 23.1997 8.98996C23.1471 8.84539 23.0542 8.71893 22.9319 8.62554C22.8097 8.53215 22.6632 8.47574 22.5099 8.463L16.0699 7.825L12.7289 1.2C12.6602 1.0658 12.5558 0.953173 12.4272 0.874523C12.2985 0.795874 12.1507 0.754257 11.9999 0.754257C11.8491 0.754257 11.7013 0.795874 11.5727 0.874523C11.4441 0.953173 11.3396 1.0658 11.2709 1.2L7.92492 7.825L1.48492 8.463C1.3316 8.47574 1.18515 8.53215 1.0629 8.62554C0.940651 8.71893 0.847721 8.84539 0.795113 8.98996C0.742505 9.13452 0.732423 9.29114 0.766062 9.44125C0.7997 9.59137 0.875649 9.72871 0.984917 9.837L6.28492 15.09L4.32892 22.228C4.28871 22.3794 4.2931 22.5392 4.34156 22.6882C4.39002 22.8371 4.48049 22.9689 4.60207 23.0677C4.72366 23.1665 4.8712 23.228 5.02693 23.2449C5.18266 23.2618 5.33997 23.2334 5.47992 23.163L9.21692 21.312" stroke="black" stroke-width="1.5" stroke-linecap="round" stroke-linejoin="round"/>
<path d="M17.25 23.25C20.5637 23.25 23.25 20.5637 23.25 17.25C23.25 13.9363 20.5637 11.25 17.25 11.25C13.9363 11.25 11.25 13.9363 11.25 17.25C11.25 20.5637 13.9363 23.25 17.25 23.25Z" stroke="black" stroke-width="1.5" stroke-linecap="round" stroke-linejoin="round"/>
<path d="M19.9239 15.506L17.0189 19.379C16.9543 19.4648 16.8721 19.5358 16.7777 19.5872C16.6833 19.6386 16.579 19.6691 16.4719 19.6768C16.3647 19.6845 16.2571 19.6691 16.1564 19.6317C16.0557 19.5943 15.9641 19.5358 15.8879 19.46L14.3879 17.96" stroke="black" stroke-width="1.5" stroke-linecap="round" stroke-linejoin="round"/>
</g>
<defs>
<clipPath id="clip0">
<rect width="24" height="24" fill="white"/>
</clipPath>
</defs>
</svg>
