<svg width="24" height="24" viewBox="0 0 24 24" fill="none" xmlns="http://www.w3.org/2000/svg">
<path fill-rule="evenodd" clip-rule="evenodd" d="M9.75 0.499023C9.15326 0.499023 8.58097 0.736076 8.15901 1.15803C7.73705 1.57999 7.5 2.15229 7.5 2.74902V6.99902H6.75H3.75C1.67893 6.99902 0 8.67795 0 10.749V19.749C0 21.8201 1.67893 23.499 3.75 23.499H6.75H17.25H20.25C22.3211 23.499 24 21.8201 24 19.749V10.749C24 8.67795 22.3211 6.99902 20.25 6.99902H17.25H16.5V2.74902C16.5 2.15229 16.2629 1.57999 15.841 1.15803C15.419 0.736076 14.8467 0.499023 14.25 0.499023H9.75ZM15 6.99902V2.74902C15 2.55011 14.921 2.35935 14.7803 2.21869C14.6397 2.07804 14.4489 1.99902 14.25 1.99902H9.75C9.55109 1.99902 9.36032 2.07804 9.21967 2.21869C9.07902 2.35935 9 2.55011 9 2.74902V6.99902H15ZM1.5 10.749C1.5 9.50638 2.50736 8.49902 3.75 8.49902H6V21.999H3.75C2.50736 21.999 1.5 20.9917 1.5 19.749V10.749ZM7.5 21.999V8.49902H16.5V21.999H7.5ZM18 21.999V8.49902H20.25C21.4926 8.49902 22.5 9.50638 22.5 10.749V19.749C22.5 20.9917 21.4926 21.999 20.25 21.999H18Z" fill="black"/>
</svg>
