<svg width="24" height="24" viewBox="0 0 24 24" fill="none" xmlns="http://www.w3.org/2000/svg">
<g clip-path="url(#clip0)">
<path d="M6.72302 5.477C6.81047 4.60052 7.117 3.76012 7.61439 3.03316C8.11178 2.30621 8.78405 1.71605 9.56931 1.31703C10.3546 0.917999 11.2276 0.722921 12.108 0.749751C12.9884 0.776581 13.848 1.02446 14.6075 1.47056C15.367 1.91666 16.0021 2.54666 16.4543 3.30255C16.9065 4.05844 17.1613 4.91595 17.1952 5.79612C17.2291 6.6763 17.0411 7.55087 16.6484 8.33932C16.2557 9.12777 15.671 9.80477 14.948 10.308" stroke="black" stroke-width="1.5" stroke-linecap="round" stroke-linejoin="round"/>
<path d="M7.43896 3.35001C8.25158 4.18894 9.22463 4.85587 10.3002 5.31112C11.3758 5.76637 12.532 6.00064 13.7 6.00001C14.8786 6.00118 16.0451 5.76304 17.129 5.30001" stroke="black" stroke-width="1.5" stroke-linecap="round" stroke-linejoin="round"/>
<path d="M10.823 9.75C10.5263 9.75 10.2363 9.83797 9.98964 10.0028C9.74297 10.1676 9.55071 10.4019 9.43718 10.676C9.32365 10.9501 9.29394 11.2517 9.35182 11.5426C9.4097 11.8336 9.55256 12.1009 9.76234 12.3107C9.97212 12.5204 10.2394 12.6633 10.5304 12.7212C10.8213 12.7791 11.1229 12.7494 11.397 12.6358C11.6711 12.5223 11.9054 12.33 12.0702 12.0834C12.235 11.8367 12.323 11.5467 12.323 11.25C12.323 10.8522 12.165 10.4706 11.8837 10.1893C11.6024 9.90804 11.2208 9.75 10.823 9.75Z" stroke="black" stroke-width="1.5" stroke-linecap="round" stroke-linejoin="round"/>
<path d="M9.323 11.25H7.823C7.02735 11.25 6.26429 10.9339 5.70168 10.3713C5.13907 9.80871 4.823 9.04565 4.823 8.25V7.172" stroke="black" stroke-width="1.5" stroke-linecap="round" stroke-linejoin="round"/>
<path d="M21.7 23.25C21.7 21.4667 21.2104 19.7175 20.2846 18.1933C19.3589 16.669 18.0325 15.4282 16.45 14.606" stroke="black" stroke-width="1.5" stroke-linecap="round" stroke-linejoin="round"/>
<path d="M7.44795 14.606C5.86582 15.4285 4.5398 16.6694 3.61441 18.1937C2.68901 19.7179 2.19975 21.4669 2.19995 23.25" stroke="black" stroke-width="1.5" stroke-linecap="round" stroke-linejoin="round"/>
</g>
<defs>
<clipPath id="clip0">
<rect width="24" height="24" fill="white"/>
</clipPath>
</defs>
</svg>
