<svg width="24" height="24" viewBox="0 0 24 24" fill="none" xmlns="http://www.w3.org/2000/svg">
<path d="M1.13501 2.634V8.892C1.13518 9.68759 1.45136 10.4505 2.01401 11.013L13.644 22.643C13.74 22.7391 13.8602 22.8073 13.9919 22.8403C14.1236 22.8734 14.2618 22.8701 14.3918 22.8308C14.5217 22.7915 14.6386 22.7176 14.7298 22.6171C14.8211 22.5166 14.8834 22.3931 14.91 22.26L16.135 16.134L22.261 14.909C22.3941 14.8824 22.5176 14.8201 22.6181 14.7288C22.7186 14.6376 22.7925 14.5207 22.8318 14.3907C22.8711 14.2608 22.8744 14.1226 22.8413 13.9909C22.8083 13.8592 22.7401 13.739 22.644 13.643L11.014 2.013C10.4515 1.45035 9.68859 1.13417 8.89301 1.134H2.63501C2.23719 1.134 1.85565 1.29204 1.57435 1.57334C1.29305 1.85465 1.13501 2.23618 1.13501 2.634V2.634Z" stroke="black" stroke-width="1.5" stroke-linecap="round" stroke-linejoin="round"/>
<path d="M6.38501 7.884C7.21344 7.884 7.88501 7.21243 7.88501 6.384C7.88501 5.55558 7.21344 4.884 6.38501 4.884C5.55658 4.884 4.88501 5.55558 4.88501 6.384C4.88501 7.21243 5.55658 7.884 6.38501 7.884Z" stroke="black" stroke-width="1.5" stroke-linecap="round" stroke-linejoin="round"/>
</svg>
