<svg width="24" height="24" viewBox="0 0 24 24" fill="none" xmlns="http://www.w3.org/2000/svg">
<g clip-path="url(#clip0)">
<path fill-rule="evenodd" clip-rule="evenodd" d="M7.40901 0.657011C7.83097 0.235054 8.40326 -0.0019989 9 -0.0019989H12C12.2955 -0.0019989 12.5881 0.056199 12.861 0.169272C13.134 0.282345 13.3821 0.448079 13.591 0.657011C13.7999 0.865943 13.9657 1.11398 14.0787 1.38696C14.1918 1.65995 14.25 1.95253 14.25 2.248V4.498H14.996H17.246C18.2406 4.498 19.1944 4.89309 19.8976 5.59635C20.6009 6.29961 20.996 7.25344 20.996 8.248V9C20.996 9.41422 20.6602 9.75 20.246 9.75C19.8318 9.75 19.496 9.41422 19.496 9V8.248C19.496 7.65126 19.2589 7.07897 18.837 6.65701C18.415 6.23505 17.8427 5.998 17.246 5.998H15.746V8.999C15.746 9.41321 15.4102 9.749 14.996 9.749C14.5818 9.749 14.246 9.41321 14.246 8.999V5.998H13.5H7.5H6.746V19.498H9C9.41421 19.498 9.75 19.8338 9.75 20.248C9.75 20.6622 9.41421 20.998 9 20.998H5.996H3.746C2.75144 20.998 1.79761 20.6029 1.09435 19.8997C0.391086 19.1964 -0.00400162 18.2426 -0.00400162 17.248V8.248C-0.00400162 7.25344 0.391086 6.29961 1.09435 5.59635C1.79761 4.89309 2.75144 4.498 3.746 4.498H5.996H6.75V2.248C6.75 1.65126 6.98705 1.07897 7.40901 0.657011ZM12.75 2.248V4.498H8.25V2.248C8.25 2.04909 8.32902 1.85832 8.46967 1.71767C8.61032 1.57702 8.80109 1.498 9 1.498H12C12.0985 1.498 12.196 1.5174 12.287 1.55509C12.378 1.59278 12.4607 1.64803 12.5303 1.71767C12.6 1.78731 12.6552 1.86999 12.6929 1.96099C12.7306 2.05198 12.75 2.14951 12.75 2.248ZM3.746 5.998C3.14926 5.998 2.57696 6.23505 2.15501 6.65701C1.73305 7.07897 1.496 7.65126 1.496 8.248V17.248C1.496 17.8447 1.73305 18.417 2.15501 18.839C2.57696 19.2609 3.14926 19.498 3.746 19.498H5.246V5.998H3.746ZM11.996 17.248C11.996 15.0966 13.2901 13.2475 15.1423 12.4365L16.5 14.25C16.5591 14.3288 16.6021 14.4184 16.6265 14.5139C16.651 14.6093 16.6564 14.7086 16.6425 14.8061C16.6285 14.9036 16.5955 14.9974 16.5454 15.0821C16.4953 15.1667 16.4286 15.241 16.35 15.3L14.5504 16.6477C14.3613 16.7893 14.25 17.0117 14.25 17.248V18C14.25 18.1989 14.171 18.3897 14.0303 18.5303C13.8897 18.671 13.6989 18.75 13.5 18.75H12.214C12.0722 18.2741 11.996 17.77 11.996 17.248ZM17.7 13.35L16.7082 12.0252C16.885 12.0072 17.0644 11.998 17.246 11.998C19.8687 11.998 22.0423 13.9212 22.4333 16.4343L20.2379 17.539L20.2368 17.5396C19.7791 17.7685 19.4131 18.1465 19.1992 18.6114C18.9851 19.0767 18.9361 19.6011 19.0604 20.098L19.5391 21.972C18.8463 22.309 18.0682 22.498 17.246 22.498C15.4628 22.498 13.8873 21.609 12.9384 20.25H13.5C14.0967 20.25 14.669 20.0129 15.091 19.591C15.5129 19.169 15.75 18.5967 15.75 18V17.6233L17.25 16.5C17.4864 16.3227 17.6855 16.1006 17.8361 15.8464C17.9866 15.5921 18.0856 15.3107 18.1274 15.0182C18.1692 14.7257 18.1529 14.4278 18.0796 14.1416C18.0063 13.8554 17.8772 13.5863 17.7 13.35ZM20.8546 21.0612C21.6659 20.2931 22.2323 19.269 22.4242 18.1181L20.9081 18.881C20.7553 18.9573 20.6332 19.0834 20.5618 19.2385C20.4907 19.3931 20.4742 19.5673 20.5152 19.7325L20.8546 21.0612ZM17.246 10.498C13.5181 10.498 10.496 13.5201 10.496 17.248C10.496 20.9759 13.5181 23.998 17.246 23.998C20.9739 23.998 23.996 20.9759 23.996 17.248C23.996 13.5201 20.9739 10.498 17.246 10.498Z" fill="black"/>
</g>
<defs>
<clipPath id="clip0">
<rect width="24" height="24" fill="white"/>
</clipPath>
</defs>
</svg>
