<svg width="24" height="24" viewBox="0 0 24 24" fill="none" xmlns="http://www.w3.org/2000/svg">
<path d="M7.47607 3.334C8.28889 4.17736 9.26345 4.84813 10.3415 5.30621C11.4195 5.76429 12.5788 6.00025 13.7501 6C14.9364 6.00034 16.1103 5.75875 17.2001 5.29" stroke="black" stroke-width="1.5" stroke-linecap="round" stroke-linejoin="round"/>
<path d="M12 11.25C14.8995 11.25 17.25 8.8995 17.25 6C17.25 3.10051 14.8995 0.75 12 0.75C9.10051 0.75 6.75 3.10051 6.75 6C6.75 8.8995 9.10051 11.25 12 11.25Z" stroke="black" stroke-width="1.5" stroke-linecap="round" stroke-linejoin="round"/>
<path d="M2.25 23.25C2.25 20.6641 3.27723 18.1842 5.10571 16.3557C6.93419 14.5272 9.41414 13.5 12 13.5C14.5859 13.5 17.0658 14.5272 18.8943 16.3557C20.7228 18.1842 21.75 20.6641 21.75 23.25" stroke="black" stroke-width="1.5" stroke-linecap="round" stroke-linejoin="round"/>
</svg>
