<svg width="32" height="32" viewBox="0 0 32 32" fill="none" xmlns="http://www.w3.org/2000/svg">
<path d="M9.33341 10.6667L9.33342 15.5M9.33341 21.3333L9.33342 15.5M9.33342 15.5L14.6667 10.6667M9.33342 15.5L14.6667 21.3333" stroke="black" stroke-width="1.5" stroke-miterlimit="10" stroke-linecap="round"/>
<path d="M18.6667 21.3333L18.6667 16M18.6667 16L18.6667 15.5L18.6667 10.6667L22 10.6667C23.1046 10.6667 24 11.5621 24 12.6667L24 14C24 15.1046 23.1046 16 22 16L18.6667 16ZM18.6667 16L24 21.3333" stroke="black" stroke-width="1.5" stroke-miterlimit="10" stroke-linecap="round" stroke-linejoin="round"/>
<path d="M16 1C7.71573 1 1 7.71573 1 16C1 24.2843 7.71573 31 16 31C24.2843 31 31 24.2843 31 16C31 7.71573 24.2843 1 16 1Z" stroke="black" stroke-width="1.5" stroke-miterlimit="10"/>
</svg>
